<svg xmlns="http://www.w3.org/2000/svg" xml:space="preserve" id="Layer_1" x="0" y="0" version="1.1" viewBox="0 0 132 132"><style>.st0{fill:#1b63ef}</style><path id="path829" d="M31.7 100.1c0-.1 5.3-7 11.9-15.3S62.2 61 70.3 50.6l14.9-19h15.1V100l-5.8.1-5.8.1-.1-26.3c0-22.9-.1-26.4-.6-26.4-.3 0-9.9 11.9-21.3 26.4L46 100.3h-7.1c-4-.1-7.2-.2-7.2-.2" class="st0"/><path d="M117 7c4.4 0 8 3.6 8 8v102c0 4.4-3.6 8-8 8H15c-4.4 0-8-3.6-8-8V15c0-4.4 3.6-8 8-8zm0-7H15C6.7 0 0 6.7 0 15v102c0 8.3 6.7 15 15 15h102c8.3 0 15-6.7 15-15V15c0-8.3-6.7-15-15-15" class="st0"/></svg>