<svg xmlns="http://www.w3.org/2000/svg" xml:space="preserve" id="Layer_1" x="0" y="0" version="1.1" viewBox="0 0 132 132"><style>.st0{fill:#1b63ef}</style><path d="M117 7c4.4 0 8 3.6 8 8v102c0 4.4-3.6 8-8 8H15c-4.4 0-8-3.6-8-8V15c0-4.4 3.6-8 8-8zm0-7H15C6.7 0 0 6.7 0 15v102c0 8.3 6.7 15 15 15h102c8.3 0 15-6.7 15-15V15c0-8.3-6.7-15-15-15" class="st0"/><path d="M104.9 37.5c-2.1-.9-4.5-.4-6.1 1.2l-19.9 20v11.5l21.4-21.4v37.9H64l-4.3-7.1-7 7.1-8.1 8.2H103c3.1 0 5.6-2.6 5.6-5.7V42.8c-.2-2.3-1.5-4.4-3.7-5.3" class="st0"/><path d="m43 86.7 24.9-25.1v22.5H76V55.6c0-2.3-1.4-4.4-3.5-5.2-2.1-.9-4.5-.4-6.1 1.2l-43 43.3H41l8.1-8.2z" class="st0"/></svg>