<svg xmlns="http://www.w3.org/2000/svg" xml:space="preserve" id="svg12" x="0" y="0" version="1.1" viewBox="0 0 132 132"><style>.st0{fill:#1b63ef}</style><g id="Layer_2-2"><g id="Layer_1-3" transform="matrix(.84008 0 0 .84008 -12.723 10.277)"><path id="Контур_14033" d="m52.8 61 12.9-12.9 13 13 7.5-7.5L65.7 33 45.2 53.5zm-20.4 5.3 7.5-7.5 7.5 7.5-7.5 7.5zm20.4 5.4 12.9 12.9 13-12.9 7.5 7.5-20.5 20.5-20.5-20.5zM84 66.3l7.5-7.5 7.5 7.5-7.5 7.5z" class="st0"/><path id="Контур_14034" d="m73.4 66.3-7.6-7.7-5.7 5.7-.7.7-1.3 1.3 7.7 7.7z" class="st0"/></g></g><text class="st0" style="font-family:&quot;ArialMT&quot;;font-size:32.4136px" transform="translate(63.511 77.581)">.US</text><path d="M117 7c4.4 0 8 3.6 8 8v102c0 4.4-3.6 8-8 8H15c-4.4 0-8-3.6-8-8V15c0-4.4 3.6-8 8-8zm0-7H15C6.7 0 0 6.7 0 15v102c0 8.3 6.7 15 15 15h102c8.3 0 15-6.7 15-15V15c0-8.3-6.7-15-15-15" class="st0"/></svg>