<svg xmlns="http://www.w3.org/2000/svg" xml:space="preserve" id="Layer_1" x="0" y="0" version="1.1" viewBox="0 0 132 132"><style>.st0{fill:#fff}</style><path id="Контур_14033" d="M53.1 60.7 66 47.8l13 13 7.5-7.5L66 32.7 45.5 53.2zM32.7 66l7.5-7.5 7.5 7.5-7.5 7.5zm20.4 5.3L66 84.2l13-12.9 7.5 7.5L66 99.3 45.5 78.8zM84.3 66l7.5-7.5 7.5 7.5-7.5 7.5z" class="st0"/><path id="Контур_14034" d="m73.7 66-7.6-7.7-5.7 5.7-.7.7-1.3 1.3 7.7 7.7z" class="st0"/><path d="M117 7c4.4 0 8 3.6 8 8v102c0 4.4-3.6 8-8 8H15c-4.4 0-8-3.6-8-8V15c0-4.4 3.6-8 8-8zm0-7H15C6.7 0 0 6.7 0 15v102c0 8.3 6.7 15 15 15h102c8.3 0 15-6.7 15-15V15c0-8.3-6.7-15-15-15" style="fill:#1b63ef"/></svg>