<svg xmlns="http://www.w3.org/2000/svg" xml:space="preserve" id="Layer_1" x="0" y="0" version="1.1" viewBox="0 0 132 132"><style>.st0{fill:#fff}</style><path id="Контур_14035" d="M66 32 47.9 42.4l6.7 3.8L66 39.6l11.4 6.6 6.6-3.8z" class="st0"/><path id="Контур_14036" d="m77.4 51.7 6.6 3.8v7.7l-11.4 6.6v13.1L66 86.7l-6.6-3.8V69.8L48 63.2v-7.7l6.7-3.8 11.4 6.6z" class="st0"/><path id="Контур_14037" d="M84.1 68.7v7.7l-6.6 3.8v-7.7z" class="st0"/><path id="Контур_14038" d="m77.4 85.7 11.4-6.6V66l6.6-3.8V83l-18 10.3z" class="st0"/><path id="Контур_14039" d="M88.8 52.8 82.1 49l6.6-3.8 6.6 3.8v7.7l-6.6 3.8z" class="st0"/><path id="Контур_14040" d="M59.4 96.1v-7.7l6.6 3.8 6.6-3.8v7.7L66 100z" class="st0"/><path id="Контур_14041" d="M54.6 80.2 48 76.4v-7.7l6.6 3.8z" class="st0"/><path id="Контур_14042" d="M66 52.8 59.4 49l6.6-3.8 6.6 3.8z" class="st0"/><path id="Контур_14043" d="m49.9 49-6.6 3.8v7.7l-6.7-3.8V49l6.6-3.8z" class="st0"/><path id="Контур_14044" d="m36.6 62.1 6.6 3.9v13.1l11.4 6.6v7.7l-18-10.5z" class="st0"/><path d="M117 7c4.4 0 8 3.6 8 8v102c0 4.4-3.6 8-8 8H15c-4.4 0-8-3.6-8-8V15c0-4.4 3.6-8 8-8zm0-7H15C6.7 0 0 6.7 0 15v102c0 8.3 6.7 15 15 15h102c8.3 0 15-6.7 15-15V15c0-8.3-6.7-15-15-15" style="fill:#1b63ef"/></svg>