<svg xmlns="http://www.w3.org/2000/svg" xml:space="preserve" id="Layer_1" x="0" y="0" version="1.1" viewBox="0 0 132 132"><style>.st0{fill-rule:evenodd;clip-rule:evenodd;fill:#1b63ef}</style><path d="M87.553 34.549c-4.92-4.002-11.756-6.086-20.344-6.086H45.7v3.001h21.093c7.337 0 14.007 1.5 18.01 5.003 4.085 3.501 7.17 8.754 7.17 15.174 0 6.253-2.668 10.839-6.92 14.34s-11.756 5.003-19.26 5.003H41.53v3.001h24.429c9.088 0 16.174-2 21.26-5.92s7.67-9.504 7.67-16.674c.084-7.17-2.417-12.757-7.336-16.842" class="st0"/><path d="M85.718 38.968c-3.084-2.335-6.586-4.169-16.591-4.169H52.535v2.918h16.258c8.505.084 11.59 1.084 14.508 3.169 3.668 2.668 5.92 6.086 5.92 10.755 0 4.502-2.335 7.67-6.004 10.422-3.752 2.751-9.504 2.835-11.839 2.835h-12.34v2.918h9.172c8.087-.167 12.84-.667 17.342-4.002 4.168-3.085 6.42-7.17 6.42-12.423 0-6.837-3.419-10.339-6.254-12.423m-1.5 3.835c-2.335-1.417-4.336-2.418-13.84-2.418H58.455v1.918h11.589c8.42 0 11.673 1.5 12.59 2.084 1.917 1.168 4.418 3.085 4.418 6.92 0 2.502-1.417 5.587-3.585 6.754-2 1.084-5.586 2.084-11.839 2.084H32.692v1.918h39.02c7.587 0 10.255-.834 12.923-2.335s4.502-4.502 4.502-8.42c0-4.336-2.418-7.004-4.92-8.505" class="st0"/><path d="M91.805 64.064c-4.92-4.086-11.756-6.087-20.344-6.087H57.038v3.002h14.007c7.337 0 14.007 1.5 18.092 5.002s7.17 8.755 7.17 15.175c0 6.253-2.668 10.838-6.92 14.34s-11.756 5.003-19.26 5.003H45.865v3.001h24.43c9.087 0 16.174-2 21.26-5.92s7.67-9.504 7.67-16.674-2.501-12.757-7.42-16.842" class="st0"/><path d="M89.97 68.4c-3.084-2.335-6.586-4.17-16.591-4.17H50.784v2.919h22.262c8.504.083 11.589 1.084 14.507 3.168 3.668 2.751 5.92 6.086 5.92 10.755 0 4.503-2.335 7.67-6.004 10.422-3.751 2.752-9.504 2.752-11.839 2.835H63.29v2.918h9.255c8.088-.167 12.84-.667 17.342-4.002 4.169-3.085 6.42-7.17 6.42-12.423-.083-6.837-3.502-10.255-6.336-12.423m-13.09 8.338H55.704v1.667H76.88zm-.167 5.92H64.458v1.417h12.34zm-24.596-5.92h-6.253v1.667h6.253zm8.838 5.836h-19.01v1.668h19.01zm-6.92-41.77h-7.42v1.333h7.42zm4.419 10.755H41.446v1.584h17.009zm1.334 43.521H41.863v2.001H59.79z" class="st0"/><path d="M41.947 100.582h-4.503v2.835h4.503zm34.85-53.777H48.7v1.584h28.097zm-.583 4.753H62.707v1.584h13.507zm12.34 21.01c-2.335-1.417-4.336-2.334-13.841-2.334H59.455v1.834h14.841c8.421 0 11.673 1.417 12.59 2 1.917 1.085 4.419 2.919 4.419 6.67 0 2.419-1.418 5.337-3.586 6.504-2 1.084-5.586 2.001-11.839 2.001H36.944v1.834h39.103c7.587 0 10.255-.833 12.923-2.25s4.502-4.42 4.502-8.172c-.083-4.085-2.5-6.586-4.919-8.087" class="st0"/><path d="M117 7c4.4 0 8 3.6 8 8v102c0 4.4-3.6 8-8 8H15c-4.4 0-8-3.6-8-8V15c0-4.4 3.6-8 8-8zm0-7H15C6.7 0 0 6.7 0 15v102c0 8.3 6.7 15 15 15h102c8.3 0 15-6.7 15-15V15c0-8.3-6.7-15-15-15" style="fill:#1b63ef"/></svg>