<svg xmlns="http://www.w3.org/2000/svg" xml:space="preserve" id="Layer_1" x="0" y="0" version="1.1" viewBox="0 0 132 132"><style>.st0{fill:#1b63ef}</style><g id="Page-1" transform="matrix(4.43894 0 0 4.4335 50 63.841)"><g id="Desktop-HD-Copy-2" transform="translate(-100 -56)"><g id="bitmex" transform="translate(100 56)"><g id="Group"><path id="Path" d="m4-1.3 1.4-5.4h-7.2L-5.3 7.6h3.6L.5-1.3z" class="st0"/><path id="polygon5" d="M1.8 7.6H9l2.2-8.9 1.3-5.4H9L7.6-1.3l-.9 3.6H3.2z" class="st0"/></g></g></g></g><path d="M117 7c4.4 0 8 3.6 8 8v102c0 4.4-3.6 8-8 8H15c-4.4 0-8-3.6-8-8V15c0-4.4 3.6-8 8-8zm0-7H15C6.7 0 0 6.7 0 15v102c0 8.3 6.7 15 15 15h102c8.3 0 15-6.7 15-15V15c0-8.3-6.7-15-15-15" class="st0"/></svg>