<svg xmlns="http://www.w3.org/2000/svg" xml:space="preserve" id="Layer_1" x="0" y="0" version="1.1" viewBox="0 0 132 132"><style>.st0{fill:#1b63ef}</style><g id="Group_185893"><path id="Контур_14016" d="M96.6 78.9V35.4H53.1v12.9h8v-4.9h27.6V71h-9.8V53.1H35.4v43.5h43.5V83.8h-8v4.9H43.4V61.1h9.8v17.8zm-25.7-8h-9.8v-9.8h9.8z" class="st0"/></g><path d="M117 7c4.4 0 8 3.6 8 8v102c0 4.4-3.6 8-8 8H15c-4.4 0-8-3.6-8-8V15c0-4.4 3.6-8 8-8zm0-7H15C6.7 0 0 6.7 0 15v102c0 8.3 6.7 15 15 15h102c8.3 0 15-6.7 15-15V15c0-8.3-6.7-15-15-15" class="st0"/></svg>