<svg xmlns="http://www.w3.org/2000/svg" xml:space="preserve" id="Layer_1" x="0" y="0" version="1.1" viewBox="0 0 132 132"><style>.st0{fill:#fff}</style><g id="Сгруппировать_185840"><path id="Контур_13975" d="M94.1 38.8c-3.9.2-7.7.8-11.5 1.7-8.5 2-14.8 5.3-18.7 9.8-.9 1-1.7 2-2.4 2.9-1.5.4-5.8 1.6-7.8 2-1.1.2-2.1.9-2.7 1.8-1.4 2-3.8 6.2-4 6.4l-2.8 4.8 5.1-2.2c2.2-1 5.4-1.7 6.3-1.1 0 0 .1 0 .1.3 0 1.5.3 2.9 1 4.3a5.46 5.46 0 0 0-2.1 4.6v6.3h6.3c1.8.1 3.5-.7 4.6-2.1 1.3.6 2.8 1 4.3 1 .2 0 .3.1.3.1.5.9-.1 4-1.1 6.3l-2.3 5 4.8-2.8c.2-.1 4.4-2.5 6.4-3.9.9-.6 1.6-1.6 1.8-2.8.4-2 1.5-6.2 2-7.8.9-.7 1.9-1.5 2.9-2.4C95 61.7 96 41.5 96 40.7l.1-2zM56.4 61.2c-1.3-.3-2.6-.4-3.9-.1.5-.8 1-1.6 1.4-2.2.1-.2.3-.3.5-.3.9-.2 2.3-.5 3.7-.9-.6 1.2-1.2 2.3-1.7 3.5m6.1 14.6c-.4.5-1 .8-1.6.7h-.6l3.8-5.9-5.9 3.8v-.6c-.1-.6.2-1.2.7-1.6l7.2-5.7c.4-.3.8-.5 1.3-.6l1.9-.5-.4 1.9c-.1.5-.3.9-.6 1.3zm13.6 4.6c0 .2-.2.4-.3.5-.6.4-1.4.9-2.2 1.4.3-1.3.2-2.6-.1-3.9 1.2-.5 2.4-1 3.5-1.7-.4 1.4-.8 2.7-.9 3.7m6-12.2c-6.3 5.5-9.7 7.2-12.2 7.3h-.1c-.7 0-1.4-.1-2-.4l3.4-4.3c.6-.8 1.1-1.7 1.4-2.7l1.8-7.6-7.6 1.8c-1 .2-1.9.7-2.7 1.4L59.8 67c-.2-.6-.4-1.3-.4-2v-.1c0-2.5 1.7-6 7.3-12.2 6.7-7.6 20.5-9.6 25.6-10.1-.7 5.2-2.7 19-10.2 25.6" class="st0"/><path id="Контур_13976" d="M53.9 89.2c-2.3.4-4.7.6-7 .6-1.4 0-2.7 0-4.1-.2.5-.9 1-1.8 1.5-2.8.8-1.9 1.5-3.9 2-5.9.5-1.9 1-3.8 1.7-5.6.6-1.9 1.4-3.7 2.2-5.6-.7.7-1.4 1.5-2 2.3s-1.2 1.7-1.7 2.5c-1 1.8-1.9 3.6-2.7 5.5-.7 1.8-1.5 3.6-2.4 5.3-.9 1.6-2 3.2-3.2 4.6L36 92.4l3.2.4c2.6.4 5.1.5 7.7.4 1.3 0 2.6-.1 3.9-.4 1.3-.2 2.6-.5 3.8-.9 2.5-.7 4.9-1.9 7-3.4 1.1-.8 2-1.6 2.8-2.6s1.5-2.1 2.1-3.2c-1.7 1.7-3.7 3.1-5.9 4.2-2.1 1.1-4.4 1.8-6.7 2.3" class="st0"/><path id="Контур_13977" d="M80.8 60.4c1.7 0 3.3-.7 4.5-1.9 2.5-2.5 2.5-6.5 0-9-1.2-1.2-2.8-1.9-4.5-1.9s-3.3.7-4.5 1.9c-2.5 2.5-2.4 6.5.1 9 1 1.2 2.7 1.9 4.4 1.9m-2-8.4c.5-.5 1.2-.8 2-.8s1.5.3 2 .8c1.2 1 1.4 2.7.4 3.9s-2.7 1.4-3.9.4L79 56l-.1-.1c-1-1.1-1-2.8-.1-3.9" class="st0"/></g><path d="M117 7c4.4 0 8 3.6 8 8v102c0 4.4-3.6 8-8 8H15c-4.4 0-8-3.6-8-8V15c0-4.4 3.6-8 8-8zm0-7H15C6.7 0 0 6.7 0 15v102c0 8.3 6.7 15 15 15h102c8.3 0 15-6.7 15-15V15c0-8.3-6.7-15-15-15" style="fill:#1b63ef"/></svg>