<svg xmlns="http://www.w3.org/2000/svg" xml:space="preserve" viewBox="0 0 132 132"><path d="M56.6 91c-.4.3-.8.5-1.2.7-.8.4-1.6.6-2.5.7-.2 0-.4.1-.7.1h-.1c-4-.2-7-3.5-6.9-7.5.2-3.8 3.2-6.8 7-6.9h.2c3.8.1 6.8 3.1 6.9 6.9v.4c0 .5-.1.9-.2 1.4 0 .2-.1.4-.2.6s-.1.5-.2.7-.2.5-.4.7c-.1.1-.2.3-.2.4-.2.3-.4.5-.6.8-.1.1-.1.2-.2.2-.2.4-.5.6-.7.8M70 45.9c-.1-.4-.1-.8-.1-1.2s.1-.8.2-1.3c0-.1.1-.2.1-.3.1-.3.2-.7.3-1 0-.1.1-.3.2-.4s.2-.5.4-.7l.3-.5.3-.3c.3-.3.6-.7 1-.9l.1-.1c.2-.2.5-.3.7-.5 1.1-.7 2.3-1 3.6-1h.2c4 0 7.2 3.3 7.1 7.3s-3.3 7.1-7.3 7h-.2c-3.1-.1-5.7-2.1-6.6-5.1-.1-.3-.2-.6-.3-1m-.6 14.4c11.3 3.2 17.7 7.5 17.5 17.4v.2c-.2 7.4-3.9 12.6-9.8 15.2-4.5 2.6-15.5 2.9-21.2 2.9 4.4-1.6 7.4-5.7 7.5-10.4v-.7c2.3-.2 4.7-.6 6.9-1.3 2.7-.8 4.2-2.4 4.3-4.7v-.2c.1-3.2-1.8-4.8-11.2-7.5-11.3-3.1-18.5-6.4-18.3-17.7v-.2c0-6.2 3.5-11.8 9.1-14.5 4.2-2.5 11.5-2.9 15.9-2.8-3.3 2.6-4.8 6.9-3.9 11-2 .2-3.9.6-5.8 1.3-1.7.6-2.9 2.2-3 4v.2c0 3.8 2.3 5.1 12 7.8" style="fill-rule:evenodd;clip-rule:evenodd;fill:#fff"/><path d="M117 7c4.4 0 8 3.6 8 8v102c0 4.4-3.6 8-8 8H15c-4.4 0-8-3.6-8-8V15c0-4.4 3.6-8 8-8zm0-7H15C6.7 0 0 6.7 0 15v102c0 8.3 6.7 15 15 15h102c8.3 0 15-6.7 15-15V15c0-8.3-6.7-15-15-15" style="fill:#1b63ef"/></svg>