<svg xmlns="http://www.w3.org/2000/svg" xml:space="preserve" viewBox="0 0 132 132"><path d="M86.3 69.8c-1.8 9.5-10.1 16.7-20.2 16.7-11.3 0-20.5-9.2-20.5-20.5s9.2-20.5 20.5-20.5c10 0 18.4 7.2 20.2 16.7H107C105.1 41.3 87.5 25 66.1 25 43.4 25 25 43.4 25 66s18.4 41 41.1 41c21.4 0 39-16.3 40.9-37.2z" style="fill:#fff"/><path d="M117 7c4.4 0 8 3.6 8 8v102c0 4.4-3.6 8-8 8H15c-4.4 0-8-3.6-8-8V15c0-4.4 3.6-8 8-8zm0-7H15C6.7 0 0 6.7 0 15v102c0 8.3 6.7 15 15 15h102c8.3 0 15-6.7 15-15V15c0-8.3-6.7-15-15-15" style="fill:#1b63ef"/></svg>