<svg xmlns="http://www.w3.org/2000/svg" xml:space="preserve" id="FTX" x="0" y="0" version="1.1" viewBox="0 0 132 132"><style>.st0{fill:#fff}</style><g id="Layer_1-2"><path id="Path_472521" d="M50.6 35.1h51v16.5h-51z" class="st0"/><path id="Path_472522" d="M30.5 57.8H47v16.5H30.5c-.1-5.6-.1-11 0-16.5" class="st0"/><path id="Path_472523" d="M50.6 57.8h36.8v16.5H50.6q-.15-8.4 0-16.5" class="st0"/><path id="Path_472524" d="M50.6 80.5c5.5-.1 11-.1 16.4 0 .1 5.5.1 11 0 16.4-5.5.1-11 .1-16.4 0-.1-5.5-.1-11 0-16.4" class="st0"/></g><path d="M117 7c4.4 0 8 3.6 8 8v102c0 4.4-3.6 8-8 8H15c-4.4 0-8-3.6-8-8V15c0-4.4 3.6-8 8-8zm0-7H15C6.7 0 0 6.7 0 15v102c0 8.3 6.7 15 15 15h102c8.3 0 15-6.7 15-15V15c0-8.3-6.7-15-15-15" style="fill:#1b63ef"/></svg>