<svg xmlns="http://www.w3.org/2000/svg" xml:space="preserve" id="Layer_1" x="0" y="0" version="1.1" viewBox="0 0 132 132"><style>.st0{fill:#1b63ef}</style><path id="Path_472521" d="M50.6 35.1h51v16.5h-51z" class="st0"/><path id="Path_472522" d="M30.5 57.8H47v16.5H30.5c-.1-5.6-.1-11 0-16.5" class="st0"/><path id="Path_472523" d="M50.6 57.8h36.8v16.5H50.6q-.15-8.4 0-16.5" class="st0"/><path id="Path_472524" d="M50.6 80.5c5.5-.1 11-.1 16.4 0 .1 5.5.1 11 0 16.4-5.5.1-11 .1-16.4 0-.1-5.5-.1-11 0-16.4" class="st0"/><path d="M71.5 93.1c-.7-.7-1.1-1.7-1.1-3.1v-5.1h2.1v5c0 1.6.7 2.4 2 2.4q1.05 0 1.5-.6c.45-.6.5-1 .5-1.9v-5h2.2V90c0 1.3-.4 2.4-1.1 3.1s-1.7 1.1-3 1.1-2.4-.4-3.1-1.1M81.7 93.9c-.7-.2-1.2-.4-1.6-.8l.7-1.6c.4.3.9.5 1.4.7s1.1.3 1.6.3c.6 0 1-.1 1.3-.3s.4-.4.4-.7c0-.2-.1-.4-.3-.5s-.4-.3-.6-.3c-.3-.1-.6-.2-1.1-.3-.7-.2-1.3-.3-1.7-.5s-.8-.4-1.1-.8-.5-.8-.5-1.5c0-.5.1-1 .4-1.4s.7-.8 1.3-1c.6-.3 1.3-.4 2.1-.4.6 0 1.1.1 1.7.2s1 .3 1.5.6l-.7 1.6c-.8-.5-1.7-.7-2.5-.7-.6 0-1 .1-1.3.3s-.4.4-.4.8c0 .3.2.5.5.7s.8.3 1.5.4c.7.2 1.3.3 1.7.5s.8.4 1.1.8.5.8.5 1.4c0 .5-.1 1-.4 1.4s-.7.8-1.3 1c-.6.3-1.3.4-2.1.4s-1.5-.1-2.1-.3" class="st0"/><path d="M117 7c4.4 0 8 3.6 8 8v102c0 4.4-3.6 8-8 8H15c-4.4 0-8-3.6-8-8V15c0-4.4 3.6-8 8-8zm0-7H15C6.7 0 0 6.7 0 15v102c0 8.3 6.7 15 15 15h102c8.3 0 15-6.7 15-15V15c0-8.3-6.7-15-15-15" class="st0"/></svg>