<svg xmlns="http://www.w3.org/2000/svg" xml:space="preserve" id="图层_1" x="0" y="0" style="enable-background:new 0 0 132 132" version="1.1" viewBox="0 0 132 132"><style>.st1{fill-rule:evenodd;clip-rule:evenodd;fill:#fff}</style><path d="M117 7c4.4 0 8 3.6 8 8v102c0 4.4-3.6 8-8 8H15c-4.4 0-8-3.6-8-8V15c0-4.4 3.6-8 8-8zm0-7H15C6.7 0 0 6.7 0 15v102c0 8.3 6.7 15 15 15h102c8.3 0 15-6.7 15-15V15c0-8.3-6.7-15-15-15" style="fill:#1b63ef"/><path id="Fill-3" d="M66 66h19.2V46.7H66z" class="st1"/><defs><filter id="Adobe_OpacityMaskFilter" width="70" height="70" x="31" y="31" filterUnits="userSpaceOnUse"><feColorMatrix values="1 0 0 0 0 0 1 0 0 0 0 0 1 0 0 0 0 0 1 0"/></filter></defs><mask id="mask-2_00000096059747115923882480000017138576190926048949_" width="70" height="70" x="31" y="31" maskUnits="userSpaceOnUse"><g style="filter:url(#Adobe_OpacityMaskFilter)"><path id="path-1_00000112593548592436635480000000696296111337489295_" d="M31 31h70v70H31z" class="st1"/></g></mask><path id="Fill-1" d="M66 85.2c-10.6 0-19.3-8.6-19.3-19.3S55.4 46.8 66 46.8V31c-19.3 0-35 15.7-35 35s15.7 35 35 35 35-15.7 35-35H85.3c0 10.6-8.7 19.2-19.3 19.2" style="mask:url(#mask-2_00000096059747115923882480000017138576190926048949_);fill-rule:evenodd;clip-rule:evenodd;fill:#fff"/></svg>