<svg xmlns="http://www.w3.org/2000/svg" xml:space="preserve" id="svg6" x="0" y="0" version="1.1" viewBox="0 0 132 132"><style>.st0{fill:#fff}</style><g id="g28" transform="translate(157.422 14.745)"><g id="g847" transform="translate(-77.296 18.107)scale(.729)"><g id="g1016" transform="translate(-63.208 -23.062)"><path id="path2" d="M55.2 47.1c0-16-7.7-29.7-13.6-34.2 0 0-.4-.2-.4.4-.5 30.9-16.1 39.3-24.8 50.5-19.9 26-1.4 54.5 17.4 59.8 10.6 2.9-2.5-5.2-4.1-22.4-1.9-20.9 25.5-36.8 25.5-54.1" class="st0"/><path id="path4" d="M65.5 57.7c-.1-.1-.2-.1-.4 0l-.1.1c-.3 3.8-4.6 12.2-9.9 19.8-18.1 25.9-7.8 38.3-2 45 3.4 3.9 0 0 8.4-4 .7-.3 16.4-8.7 18.1-27.6 1.8-18.4-9.9-30-14.1-33.3" class="st0"/></g></g></g><path d="M117 7c4.4 0 8 3.6 8 8v102c0 4.4-3.6 8-8 8H15c-4.4 0-8-3.6-8-8V15c0-4.4 3.6-8 8-8zm0-7H15C6.7 0 0 6.7 0 15v102c0 8.3 6.7 15 15 15h102c8.3 0 15-6.7 15-15V15c0-8.3-6.7-15-15-15" style="fill:#1b63ef"/></svg>