<svg xmlns="http://www.w3.org/2000/svg" xml:space="preserve" id="Layer_1" x="0" y="0" version="1.1" viewBox="0 0 132 132"><style>.st0{fill:#1b63ef}</style><path d="M117 7c4.4 0 8 3.6 8 8v102c0 4.4-3.6 8-8 8H15c-4.4 0-8-3.6-8-8V15c0-4.4 3.6-8 8-8zm0-7H15C6.7 0 0 6.7 0 15v102c0 8.3 6.7 15 15 15h102c8.3 0 15-6.7 15-15V15c0-8.3-6.7-15-15-15" class="st0"/><path d="M72.3 38.6q-3.3-1.35-6.9-1.8c-.2 0-.2 0 0-.1h.8c12 .6 22.5 8.4 26.4 19.9 0 .1 0 .1-.1 0q-2.7-3-5.7-5.4c-.2-.2-.4-.4-.6-.7-3.3-5.5-7.9-9.5-13.9-11.9" class="st0"/><path d="M46.1 43.2c11.6-8.8 28-6.7 37.2 4.5-2.7-2.6-5.7-4.6-9.1-5.8-14.1-5.3-29.5 2.4-33.9 16.8 0 .1-.1.1-.1.1-1.4.4-2.8.5-4.2.4-.1 0-.1 0-.1-.1q2.4-9.9 10.2-15.9M52.6 63.6q-.15 0 0 0-.15 0 0 0M52.6 63.6q-.15 0 0 0-.15 0 0 0M81.4 59.4" class="st0"/><path d="M105.8 64.8c-1.4.6-2.7 1-4-.1-.5-.4-1.1-.9-1.5-1.3-1.4-1.2-2.7-2.1-3.9-2.6s-2.3-.4-3.6-.2c-.2 0-.2 0 0-.1.5-.3 1.1-.5 1.8-.5.1 0 .1 0 0-.1-1.1-1.5-2.3-3-3.6-4.3-2-2.1-4.3-4-6.7-5.6-4-2.7-8.2-4.6-12.9-5.8h-.2C64.7 51.3 56.9 56 47.7 58.6c-.3.1-.3.1 0-.1l4-1.9c.2-.1.2-.1 0-.1-2.6.1-5.1.6-7.6 1.5-1 .3-2.2.9-3.1 1.2-.7.2-1.6.4-2.6.5h-2.7q-1.8-.15-2.4 0c-.8.1-1.6.3-2.4.7-2.3 1.1-3.9 3-4.6 5.6-.2.8-.3 1.8 0 2.5.9 1.6 3.6.6 4.8 0 1-.5 2-.7 3.1-.3 0 0 .1 0 0 .1-1.2 1.7-1.3 3.4-.3 5.3 0 .1.1.1.2 0 1.5-1.4 2.1-3.3 1.5-5.2-.4-1.2-1.2-1.7-2.5-1.5-1.7.3-3.2.7-4.6 1.1-.3-.1-.4-.2-.5-.4q-.15-.45 0-.9c.5-2.1 2-4.4 4.4-4.4 1.1.2 1.8.4 2.1.4 1.4.3 2.9.3 4.4.2.1 0 .1 0 .2-.1.9-1 1.9-1.7 3.1-2.2-2.1 1.2-3.9 3-4.1 5.6-.1 1.4-.1 2.6-.7 3.9-.5 1.1-1.2 2-2.2 2.8 0 0-.1.1-.1.2 0 2.4-.4 4.6-1.3 6.8-.3.7-.6 1.4-1 2-.2.3-.3.7-.4 1-.2 1.1-.3 2.3-.5 3.4 0 .1 0 .1.1.1q3 1.95 6.3.3v-.1L36 83.2V83c.2-1.7.9-3.2 1.9-4.6 1.3-1.7 2.9-3 5-3.7 2.9-1 5.6-1.7 7.3-4.5 1.3-2.1 1.9-4.1 1.6-6.5h.1q1.2 5.1-2.4 8.7v.1l1.3.7c.3.1.5.3.7.4 4.9 2.2 10 2.6 15.2 1.2.1 0 .2-.1.2-.2l3.7-4.4h.1l1.9.8h.2l2.9-1.6v-.1c-2.8-1.2-5.8-2-8.9-2.4-.1 0-.1 0-.1-.1l-.1-.4c-.7-2.6-.5-5.2.9-7.4.2-.3.2-.3.1.1-.7 2.3-.9 4.6-.5 7 0 .1 0 .1.1.1h.4c2.9.4 5.7 1.2 8.4 2.5.6.3 1.3.7 2.1 1.1.3.2.5.3.6.5.1.1.1.1 0 .1l-1.4-.6h-.2l-4.6 2.6h-.2l-1.6-1.1c-.1-.1-.1 0-.2 0l-2.6 4.2 3.7-.2c.1 0 .1 0 .2.1.7.6 1.4 1 2.3 1.3.2.1.4 0 .5-.2 1.1-1.4 2.3-2.7 4.2-2.7 1.1 0 2.1 0 3.2.2 0 0 .1 0 .1-.1l.3-4.4c0-.1 0-.1-.1-.1L80 67l-3-3.1v-.1l.9-1.8c.5-1.2.7-2.4.6-3.7 0-.6-.2-1.2-.4-1.7v-.1h.1c.7 1.2.9 2.4.7 3.8q-.3 1.5-.9 3v.1l4.7 4.9c.1.1.1 0 .1 0l.5-1.1V67c-.6-2-.5-4.2 1-5.7.2-.2.2-.2.1.1-.5 1-.7 1.9-.6 2.9 0 1.2.2 2.8.5 4.7 0 .1 0 .1.1.1.2-.1.3-.2.4-.3h.1c.1 0 .1 0 .1.1-.9 1.5-2.1 4.1.7 4.5.9.1 1.8.2 2.9.3.1 0 .1 0 .1-.1-.3-1.6.2-2.7 1.2-3.6.8-.7 1.6-1.3 2.5-1.9.1 0 .1-.1.1-.2.3-1 .7-1.9 1.3-2.8.2-.3.4-.5.6-.7.1 0 .1-.1 0-.1h-.3l-.9-.3c-.1 0-.1-.1 0-.1 1.2-.7 2.5-.4 3.8.3 1.1.6 2.2 1.1 3.2 1.6.5.2.9.3 1.4.4 1.5.3 3.1-.4 4.2-1.4q.15 0 0 0m-53.2-1.2q-.15 0 0 0-.15 0 0 0m37.8 3.8999999999999995h-.2c-.3-.3-.5-.7-.4-1.2l.4-.9h.1l.4.6q.6.9-.3 1.5M79.2 67.2" class="st0"/><path d="M35.7 67.5c-.1-.2-.2-.3-.2-.5-.1-1.3-.1-2.5-.1-3.6 0-.1 0-.1.1-.1.9.1 1.8.1 2.8 0 0 0 .1 0 .1.1-.9 1.5-.8 2.9-1 4.6q-.15 1.5-1.2 3c-.1.1-.1.1-.1 0v-.6c.2-1 0-2-.4-2.9M88.6 73.9c.2-.1.3-.2.3-.4-.1-1.3.3-2.4 1.3-3.3q1.2-1.05 2.4-1.8l.3-.3c.3-.9.6-1.7 1-2.5.1-.2.2-.2.2 0 .1 10.7-5.4 20.4-14.6 25.7-12.5 7.3-28.2 4.3-37.4-6.7 10.7 10.4 27.7 10.7 38.7.6 3.3-3.1 5.8-6.8 7.4-11.1 0-.1.1-.1.1-.1zM49.5 73.4c-.7.5-1.2 1.1-1.7 1.9-.4.7-.2 1.7-.1 2.4.1.8.6 1.6.9 2.3v.2c-1 1-3.3.8-4.4.4-.7-.2-1.1-.8-1-1.5.1-.5.2-1.1.2-1.6 0-.3.1-.5.3-.8.3-.5.6-1 .9-1.4 0-.1.1-.1.1-.1zc.1-.2.1-.1 0 0" class="st0"/><path d="M71.6 81.7c-1.7.8-3.9 1.2-5.4-.2-.1 0-.1-.1 0-.2q.45-1.5 0-3.3v-.2c.3-.3.6-.7.8-1.2 0-.1.1-.1.2-.1 1.2.1 2.4 0 3.5-.5.1 0 .1 0 .1.1l-.9 2.8v.2l1.7 2.4c.1.1.1.1 0 .2M60.7 91.8c-9.2-.6-17.1-5.6-21.8-13.6V78c.6-.8 1.4-1.4 2.2-1.9h.1l1.3 2.6v.2c0 .2 0 .3-.1.5-.1 1 .8 1.7 1.7 1.9.1 0 .1.1.2.1 4.4 5.8 10.6 9.4 17.9 10.3-.5.1-1 .1-1.5.1" class="st0"/></svg>