<svg xmlns="http://www.w3.org/2000/svg" xml:space="preserve" viewBox="0 0 132 132"><path d="M64 40.4c5.7-.4 11.4.8 16.5 3.3 7.6 3.8 13.4 10.3 16.3 18.2 1.3 3.5 1.9 7.1 1.9 10.8v13.7c0 .6 0 1.1-.1 1.7-.3 1.4-1.3 2.6-2.6 3.2-.9.4-1.9.5-2.9.3-2.1-.4-3.7-2.3-3.7-4.5V74.3c.1-1.2-.1-2.5-.6-3.6-1.3-2.2-4.1-3-6.4-1.7-1.3.9-2.2 2.4-2.3 4v12.9c0 .8 0 1.6-.2 2.4-.7 2.5-3.4 3.9-5.8 3.1-1.1-.3-2.1-1.1-2.7-2.1-.6-1.1-.8-2.4-.6-3.7V72.7c-.1-2.6-2.3-4.6-4.9-4.4-2.2.1-4 1.8-4.4 4v13.2c.1 1 0 2.1-.3 3.1-.9 2.4-3.6 3.7-6 2.7-1.3-.5-2.3-1.5-2.7-2.7-.3-.9-.4-1.9-.3-2.8V72.9c0-2.6-2.1-4.7-4.7-4.7-1.7 0-3.3.9-4.1 2.4-.4.7-.6 1.5-.6 2.3v14c0 1.4-.6 2.7-1.7 3.6-1.7 1.5-4 1.5-5.8.3-1.2-.8-1.9-2.2-1.9-3.7V72.9c.1-17.2 13.4-31.4 30.6-32.5" style="fill:#fff"/><path d="M117 7c4.4 0 8 3.6 8 8v102c0 4.4-3.6 8-8 8H15c-4.4 0-8-3.6-8-8V15c0-4.4 3.6-8 8-8zm0-7H15C6.7 0 0 6.7 0 15v102c0 8.3 6.7 15 15 15h102c8.3 0 15-6.7 15-15V15c0-8.3-6.7-15-15-15" style="fill:#1b63ef"/></svg>