<svg xmlns="http://www.w3.org/2000/svg" xml:space="preserve" viewBox="0 0 132 132"><path d="m56.4 66 17 17.3 10.8-10.8c1.6-1.8 4.4-2 6.2-.4.1.1.3.2.4.4 2 2 2 5.2 0 7.2L76.7 94.2c-1.8 1.9-4.8 2-6.7.2l-.2-.2-20.3-21v12.5c.1 2.7-2 5-4.7 5.1s-5-2-5.1-4.7V46.3c-.1-2.7 2-5 4.7-5.1s5 2 5.1 4.7v12.9l20.3-21c1.8-1.9 4.8-2 6.7-.2l.2.2 14.1 14.5c2 2 2 5.2 0 7.2-1.6 1.8-4.3 2-6.1.5-.2-.1-.3-.3-.5-.5L73.5 48.3zm17-4.9c2.7 0 4.9 2.2 4.9 4.9s-2.2 4.9-4.9 4.9-4.9-2.2-4.9-4.9c.1-2.7 2.3-4.9 4.9-4.9" style="fill-rule:evenodd;clip-rule:evenodd;fill:#1b63ef"/><path d="M117 7c4.4 0 8 3.6 8 8v102c0 4.4-3.6 8-8 8H15c-4.4 0-8-3.6-8-8V15c0-4.4 3.6-8 8-8zm0-7H15C6.7 0 0 6.7 0 15v102c0 8.3 6.7 15 15 15h102c8.3 0 15-6.7 15-15V15c0-8.3-6.7-15-15-15" style="fill:#1b63ef"/></svg>