<svg xmlns="http://www.w3.org/2000/svg" xml:space="preserve" id="Layer_1" x="0" y="0" version="1.1" viewBox="0 0 132 132"><style>.st0{fill:#1b63ef}</style><g id="kyber-network-knc-logo"><path id="Контур_13978" d="m62.7 66 23.7 13.6c.6.4 1.4.2 1.7-.4.1-.2.2-.4.2-.7v-25c0-.7-.5-1.3-1.2-1.3-.2 0-.5.1-.7.2z" class="st0"/><path id="Контур_13979" d="M85.9 46.4 69.7 34.5c-.6-.4-1.4-.3-1.8.2-.1.1-.2.3-.2.5l-6 26.5 24-13.3c.6-.3.8-1 .5-1.6-.1-.1-.2-.3-.3-.4" class="st0"/><path id="Контур_13980" d="m69.6 97.5 16.2-11.9c.5-.4.7-1.2.3-1.7-.1-.2-.3-.3-.4-.4l-24-13.3 5.9 26.5c.1.7.8 1.1 1.5 1h.1c.1 0 .3-.1.4-.2" class="st0"/><path id="Контур_13981" d="m56.5 65.5 6.2-28.8c.1-.7-.3-1.3-.9-1.5h-.1c-.3-.1-.7 0-.9.2L45 47.5c-.8.6-1.3 1.6-1.3 2.6v30.7c0 1 .5 2 1.3 2.6l15.7 12.1c.6.4 1.3.3 1.7-.3.2-.3.3-.6.2-.9z" class="st0"/></g><path d="M117 7c4.4 0 8 3.6 8 8v102c0 4.4-3.6 8-8 8H15c-4.4 0-8-3.6-8-8V15c0-4.4 3.6-8 8-8zm0-7H15C6.7 0 0 6.7 0 15v102c0 8.3 6.7 15 15 15h102c8.3 0 15-6.7 15-15V15c0-8.3-6.7-15-15-15" class="st0"/></svg>