<svg xmlns="http://www.w3.org/2000/svg" xmlns:xlink="http://www.w3.org/1999/xlink" xml:space="preserve" id="svg12" x="0" y="0" version="1.1" viewBox="0 0 132 132"><style>.st0{fill:#1b63ef}.st4,.st5{fill:none;stroke:#1b63ef}.st4{stroke-miterlimit:10}.st5{stroke-width:5.3498}</style><path d="M117 7c4.4 0 8 3.6 8 8v102c0 4.4-3.6 8-8 8H15c-4.4 0-8-3.6-8-8V15c0-4.4 3.6-8 8-8zm0-7H15C6.7 0 0 6.7 0 15v102c0 8.3 6.7 15 15 15h102c8.3 0 15-6.7 15-15V15c0-8.3-6.7-15-15-15" class="st0"/><defs><path id="SVGID_1_" d="M46 46h40v40H46z"/></defs><clipPath id="SVGID_00000116221617675334056830000004696982849960717445_"><use xlink:href="#SVGID_1_" style="overflow:visible"/></clipPath><g style="clip-path:url(#SVGID_00000116221617675334056830000004696982849960717445_)"><path d="M66 86c11 0 20-9 20-20s-9-20-20-20-20 9-20 20 9 20 20 20m-.7-19.2-.4.2v9l-4.1-2.4v1.6c0 .4.3.9.6 1.1L66 79l4.5-2.6c.4-.2.6-.7.6-1.1v-1.6L67 76.1v-9l-.4-.2c-.3-.3-.9-.3-1.3-.1m2.4-1 7.1-4.1v4.7l1.4-.8c.4-.2.6-.7.6-1.1v-5.2l-4.5-2.6c-.4-.2-.9-.2-1.3 0l-1.4.8 4.2 2.4-7.2 4.1v.4c0 .4.3.9.6 1.1zm-8-9.1-4.5 2.6v5.2c0 .4.3.9.6 1.1l1.4.8v-4.7l7.2 4.1.4-.2c.4-.2.6-.7.6-1.1V64l-7.1-4.1 4.1-2.4-1.4-.8c-.4-.3-1-.3-1.3 0m15.1 10.9c0-.4.3-.9.6-1.1l1.4-.8V72c0 .4-.3.9-.6 1.1l-4.5 2.6v-1.6c0-.4.3-.9.6-1.1l2.4-1.4zm-17.6 4 2.4 1.4c.4.2.6.7.6 1.1v1.6l-4.5-2.6c-.4-.2-.6-.7-.6-1.1v-6.4l1.4.8c.4.2.6.7.6 1.1zM60.8 56l3.3-1.9 1.3-.7c.4-.2.9-.2 1.3 0l4.7 2.7-1.4.8c-.4.2-.9.2-1.3 0L66 55.4l-2.5 1.4c-.4.2-.9.2-1.3 0z" style="fill-rule:evenodd;clip-rule:evenodd;fill:#1b63ef"/></g><defs><path id="SVGID_00000086688757173215255100000002671343652006596024_" d="M28.6 58.4H39l44.9-17.9 4.4-7-24.1-11.4-36.9 19.4z"/></defs><clipPath id="SVGID_00000076598682415582167300000010845046235714682760_"><use xlink:href="#SVGID_00000086688757173215255100000002671343652006596024_" style="overflow:visible"/></clipPath><g id="Mask_Group_19_00000149355165236507293900000010873734993626260917_" style="clip-path:url(#SVGID_00000076598682415582167300000010845046235714682760_)"><g id="Ellipse_447_00000133530469753244528680000016607469594725138365_" transform="translate(-23726 11520)"><circle cx="23792.1" cy="-11454.1" r="37.4" class="st4"/><circle cx="23792.1" cy="-11454.1" r="34.8" class="st5"/></g></g><path d="M34.4 70.9 21.2 57.7H35c-.5 2.1-.7 4.3-.8 6.5s0 4.4.2 6.7" class="st0"/><defs><path id="SVGID_00000042708501049623353530000001970319003547380662_" d="M103.4 73.6H93L48.1 91.5l-4.4 7 24.1 11.4 36.9-19.4z"/></defs><clipPath id="SVGID_00000129927585340767178120000000735300238311545753_"><use xlink:href="#SVGID_00000042708501049623353530000001970319003547380662_" style="overflow:visible"/></clipPath><g id="Mask_Group_19_00000114757736267906920030000002183791434012395451_" style="clip-path:url(#SVGID_00000129927585340767178120000000735300238311545753_)"><g id="Ellipse_447_00000019668123109921042760000000650799229752783013_" transform="translate(-23726 11520)"><circle cx="23791.9" cy="-11453.9" r="37.4" class="st4"/><circle cx="23791.9" cy="-11453.9" r="34.8" class="st5"/></g></g><path d="m97.6 61.1 13.2 13.2H97c.5-2.1.7-4.3.8-6.5s0-4.4-.2-6.7" class="st0"/></svg>