<svg xmlns="http://www.w3.org/2000/svg" xml:space="preserve" id="svg12" x="0" y="0" version="1.1" viewBox="0 0 132 132"><style>.st0{fill:#fff}</style><g id="serum-srm-logo" transform="matrix(.51332 0 0 .51332 32.76 29.057)"><path id="Path_472473" d="M64.8 119.6c-22.3 0-40.4-18.1-40.4-40.4 0-21.7 36.6-60 38.1-61.6l1.9-2 2 2c1.6 1.6 38.8 39.9 38.8 61.6 0 22.2-18.1 40.3-40.4 40.4m-.4-96.2c-3.2 3.5-9.9 11-16.6 19.8-11.8 15.6-18.1 28-18.1 36 0 19.3 15.7 35 35 35s35-15.7 35-35c0-7.9-6.4-20.3-18.4-36-6.7-8.8-13.6-16.4-16.9-19.8" class="st0"/><path id="Path_472474" d="M64.8 132.5c-29.4 0-53.3-23.9-53.3-53.3 0-28.8 40.2-68.9 41.9-70.6 1.1-1.1 2.8-1.1 3.8 0 1.1 1.1 1.1 2.8 0 3.8-.4.4-40.3 40.3-40.3 66.7 0 26.5 21.5 48 48 48s48-21.5 48-48c0-10.9-7-25.9-20.4-43.5-6.5-8.3-13.4-16.3-20.8-23.8-1.1-1.1-1.1-2.8 0-3.8 1.1-1.1 2.8-1.1 3.8 0 1.8 1.7 42.6 42.4 42.6 71.2 0 29.4-23.9 53.2-53.3 53.3" class="st0"/><path id="Path_472475" d="M64.8 145.4C29 145.4-.1 116.3-.1 80.5c0-14.8 7.5-33 22.1-54.1C28.6 16.9 35.9 7.8 43.9-.7c1-1.1 2.7-1.1 3.8-.1s1.1 2.7.1 3.8l-.1.1C40 11.4 32.8 20.2 26.3 29.5 12.5 49.4 5.2 67 5.2 80.5c0 32.9 26.6 59.6 59.5 59.6s59.6-26.6 59.6-59.5c0-13.5-7.3-31.1-21.3-50.9Q93.1 15.75 81.4 3.3c-1-1.1-1-2.8.1-3.8s2.7-1 3.8.1c1.8 1.9 44.3 46 44.3 81.1 0 35.6-29 64.7-64.8 64.7" class="st0"/></g><path d="M117 7c4.4 0 8 3.6 8 8v102c0 4.4-3.6 8-8 8H15c-4.4 0-8-3.6-8-8V15c0-4.4 3.6-8 8-8zm0-7H15C6.7 0 0 6.7 0 15v102c0 8.3 6.7 15 15 15h102c8.3 0 15-6.7 15-15V15c0-8.3-6.7-15-15-15" style="fill:#1b63ef"/></svg>