<svg xmlns="http://www.w3.org/2000/svg" xml:space="preserve" id="Layer_1" x="0" y="0" version="1.1" viewBox="0 0 132 132"><style>.st0{fill:#fff}</style><g id="logo"><path id="Контур_14025" d="M55.9 73.4h-4.6V62h-6.5v-3.4h17.5V62H56c-.1 0-.1 11.4-.1 11.4m27.6-3.3v3.4H67.2V58.6h16.3V62H71.9v2.5h10.9v3H71.9v2.4zm11.2 3.3h-6.2l7.2-7.3-6.9-7.5h6l4.1 4.6 4.1-4.6h6.1l-7 7.5 7.3 7.3h-6.2L98.9 69zM40.1 58.6v3.1H28.3v.2H28c-.2 0-.4.1-.6.2s-.3.2-.4.4-.2.4-.2.6c-.1.4.2.8.5.9s.6.2 1 .2v.2h7.8c.4 0 .7 0 1 .1.8 0 1.7.3 2.3.8-.2.2-.2.6 0 .9.1.1.2.2.2.3-.3.9-.1 2.1-.3 2.8-.1.3 0 .6.2.8-.3.6-.4 1.3-.3 1.9l-1.1 1.1c-.6.2-1.3.3-2 .3H22.7v-3.2h12.2c.2 0 .4-.1.6-.2s.3-.2.5-.4c.1-.2.2-.4.2-.6 0-.3-.1-.5-.2-.7s-.3-.3-.5-.4h-.1c-.2-.1-.5-.1-.7-.1v-.3H27l-1-.1c-1.1 0-2.1-.4-2.8-1.1l.1-.1c.2-.3.3-.7.4-1.1.1-.6-.3-1.1-.2-1.6s.5-.7.4-1.2-.5-1-.6-1.6c0-.1 0-.2-.1-.3l1.4-1.4c.6-.2 1.1-.3 1.7-.3h13.8z" class="st0"/><path id="Контур_14026" d="M27.1 58.6V62c-.4 0-.8.4-.7.8v.2c-.2.4-.1.9.3 1.1.1 0 .2.1.3.1v3.2h-4.4v-6.9l.3-.3 1.4-1.4.3-.3h2.5z" class="st0"/><path id="Контур_14027" d="M28.3 61.8h-2.5v2.6h2.6zm11.6 2.6v7l-.6.6-1.1 1.1-.3.3h-2.5v-9z" class="st0"/><path id="Контур_14028" d="M34.6 67.6h1.7v2.7h-1.9v-.1h.2z" class="st0"/><path id="Контур_14029" d="M34.4 70.2h.2v.2H22.7v-.2zm5.7-8.9H28.3v.7h11.8zm-2 11.8-.3.3zm1.8-1.7-.6.6z" class="st0"/><path id="Контур_14030" d="m38.6 70.1-2 2 1.4 1.4 2-2z" class="st0"/></g><path d="M117 7c4.4 0 8 3.6 8 8v102c0 4.4-3.6 8-8 8H15c-4.4 0-8-3.6-8-8V15c0-4.4 3.6-8 8-8zm0-7H15C6.7 0 0 6.7 0 15v102c0 8.3 6.7 15 15 15h102c8.3 0 15-6.7 15-15V15c0-8.3-6.7-15-15-15" style="fill:#1b63ef"/></svg>