<?xml version="1.0" encoding="UTF-8" standalone="no"?>
<svg
   id="Flux_symbol-mark_blue"
   width="279.714"
   height="322.975"
   viewBox="0 0 279.714 322.975"
   version="1.1"
   sodipodi:docname="flux-icon.svg"
   inkscape:version="1.1.2 (0a00cf5339, 2022-02-04)"
   xmlns:inkscape="http://www.inkscape.org/namespaces/inkscape"
   xmlns:sodipodi="http://sodipodi.sourceforge.net/DTD/sodipodi-0.dtd"
   xmlns="http://www.w3.org/2000/svg"
   xmlns:svg="http://www.w3.org/2000/svg">
  <path
     id="Path_73"
     data-name="Path 73"
     d="m 156.04322,242.5685 -16.184,9.352 -34.776,-20.0732 15.792,-9.1196 0.392,-0.23184 0.60312,0.34832 z"
     fill="#2b61d1"
     style="stroke-width:0.56" />
  <path
     id="Path_74"
     data-name="Path 74"
     d="m 218.17746,116.2689 v 18.81992 l -34.22888,-19.75792 -9.28256,-5.36032 -9.28256,5.36032 -43.512,25.12048 -9.28256,5.36032 v 11.08072 l -16.744,-9.66504 -9.28256,-5.36032 -9.28256,5.36032 -15.7416,9.08544 V 116.2689 l 78.31936,-45.2144 z"
     fill="#2b61d1"
     style="stroke-width:0.56" />
  <path
     id="Path_75"
     data-name="Path 75"
     d="m 218.18082,156.53346 v 50.2404 l -43.512,25.12048 -0.056,-0.0347 -43.45264,-25.088 v -50.23816 l 43.50864,-25.13168 z"
     fill="#2b61d1"
     style="stroke-width:0.56" />
  <path
     id="Path_76"
     data-name="Path 76"
     d="m 111.59322,177.75466 v 28.89096 L 86.5657,221.10314 61.53818,206.64562 v -28.89096 l 25.02752,-14.448 z"
     fill="#2b61d1"
     style="stroke-width:0.56" />
</svg>
