<svg xmlns="http://www.w3.org/2000/svg" width="256" height="256" viewBox="0 0 67.733 67.733"><defs><linearGradient id="b" x1="703.832" x2="126.488" y1="176.152" y2="661.928" gradientUnits="userSpaceOnUse"><stop offset="0" stop-color="#b6509e"/><stop offset="1" stop-color="#2ebac6"/></linearGradient><clipPath id="a"><path d="M0 0h800v800H0z"/></clipPath></defs><g clip-path="url(#a)" transform="matrix(.08353 0 0 .08353 .453 .453)"><circle cx="388" cy="388" r="388" style="fill:url(#b)" transform="translate(12 12)"/><path d="M343.986 341.581 212.753 24.422C205.337 8.033 194.374 0 179.864 0h-11.607c-14.51 0-25.473 8.033-32.889 24.422L78.3 162.6H35.089a23.63 23.63 0 0 0-23.538 23.458v.321a23.63 23.63 0 0 0 23.538 23.458H58.3L3.812 341.581a27.8 27.8 0 0 0-1.612 9c0 7.391 2.257 13.175 6.449 17.674q6.287 6.747 17.412 6.745a23.57 23.57 0 0 0 13.539-4.5c4.192-2.892 7.094-7.069 9.351-11.889l59.974-148.779h41.595a23.63 23.63 0 0 0 23.538-23.458v-.643a23.63 23.63 0 0 0-23.538-23.458h-22.246L174.06 48.2l124.785 310.412c2.257 4.82 5.159 9 9.351 11.889a23.57 23.57 0 0 0 13.543 4.5q11.124 0 17.412-6.748c4.192-4.5 6.449-10.283 6.449-17.674a21.25 21.25 0 0 0-1.614-8.998" style="fill:#fff" transform="translate(225.8 213)"/></g></svg>