<svg xmlns="http://www.w3.org/2000/svg" width="64" height="64" fill="none"><circle cx="32" cy="32" r="32" fill="#161B25"/><path fill="#B8B5F8" fill-rule="evenodd" d="M28.296 7.758h7.408v9.286a15.5 15.5 0 0 0-4.04-.532c-1.157 0-2.284.127-3.368.367zM23.858 18.62l-6.38-6.381-5.239 5.238 6.298 6.298a15.57 15.57 0 0 1 5.32-5.155m-7.237 9.676H7.758v7.408h8.863A15.5 15.5 0 0 1 16.175 32c0-1.276.154-2.517.446-3.704m1.916 11.929-6.298 6.298 5.238 5.238 6.38-6.38a15.6 15.6 0 0 1-5.32-5.156m9.76 6.896v9.121h7.407v-9.286a15.5 15.5 0 0 1-4.04.532c-1.157 0-2.284-.127-3.368-.367m11.592-1.995 6.634 6.635 5.238-5.238-6.717-6.717a15.6 15.6 0 0 1-5.155 5.32m6.817-9.422h9.536v-7.408h-9.536c.291 1.187.445 2.428.445 3.704s-.154 2.517-.445 3.704m-1.663-11.51 6.718-6.717-5.238-5.238-6.635 6.635a15.57 15.57 0 0 1 5.156 5.32" clip-rule="evenodd"/></svg>