<svg xmlns="http://www.w3.org/2000/svg" xml:space="preserve" viewBox="0 0 245 245"><path d="M0 122.5C0 190 55 245 122.5 245S245 190 245 122.5 190 0 122.5 0 0 55 0 122.5" style="fill:#2350a4"/><path d="m47.5 55.3 7.6-7.6 7.6 7.6-7.6 7.6zm0 23 7.6-7.6 7.6 7.6-7.6 7.6zM59 66.8l7.6-7.6 7.6 7.6-7.6 7.6zm11.5-11.5 7.6-7.6 7.6 7.6-7.6 7.6zm-12 34 7.6-7.6 7.6 7.6-7.6 7.6zM70 77.8l7.6-7.6 7.6 7.6-7.6 7.6zm11.5-11.5 7.6-7.6 7.6 7.6-7.6 7.6zm-12 34.5 7.6-7.6 7.6 7.6-7.6 7.6zm23-23 7.6-7.6 7.6 7.6-7.6 7.6zM81 112.3l7.6-7.6 7.6 7.6-7.6 7.6zm11.5 10.5 7.6-7.6 7.6 7.6-7.6 7.6zm-22.5 0 7.6-7.6 7.6 7.6-7.6 7.6zm34-33.5 7.6-7.6 7.6 7.6-7.6 7.6zm11 11 7.6-7.6 7.6 7.6-7.6 7.6zm0-21.5 7.6-7.6 7.6 7.6-7.6 7.6zm75.4-31.3 7.6 7.6-7.6 7.6-7.6-7.6zm-22.9 0 7.6 7.6-7.6 7.6-7.6-7.6zM178.9 59l7.6 7.6-7.6 7.6-7.6-7.6zm11.5 11.4L198 78l-7.6 7.6-7.6-7.6zm-33.9-11.9 7.6 7.6-7.6 7.6-7.6-7.6zM168 69.9l7.6 7.6-7.6 7.6-7.6-7.6zm11.4 11.5L187 89l-7.6 7.6-7.6-7.6zm-34.4-12 7.6 7.6-7.6 7.6-7.6-7.6zm23 23 7.6 7.6-7.6 7.6-7.6-7.6zm-34.4-11.5 7.6 7.6-7.6 7.6-7.6-7.6zm22.9 23 7.6 7.6-7.6 7.6-7.6-7.6zm-11 10.9 7.6 7.6-7.6 7.6-7.6-7.6zm21.5 0 7.6 7.6-7.6 7.6-7.6-7.6zm31 75.4-7.6 7.6-7.6-7.6 7.6-7.6zm0-23-7.6 7.6-7.6-7.6 7.6-7.6zm-11.5 11.5-7.6 7.6-7.6-7.6 7.6-7.6zM175 190.2l-7.6 7.6-7.6-7.6 7.6-7.6zm12-34-7.6 7.6-7.6-7.6 7.6-7.6zm-11.5 11.5-7.6 7.6-7.6-7.6 7.6-7.6zM164 179.2l-7.6 7.6-7.6-7.6 7.6-7.6zm12-34.5-7.6 7.6-7.6-7.6 7.6-7.6zm-23 23-7.6 7.6-7.6-7.6 7.6-7.6zm11.5-34.6-7.6 7.6-7.6-7.6 7.6-7.6zm-23 23.1-7.6 7.6-7.6-7.6 7.6-7.6zm-11-11.1-7.6 7.6-7.6-7.6 7.6-7.6zm0 21.6-7.6 7.6-7.6-7.6 7.6-7.6zM55.1 198l-7.6-7.6 7.6-7.6 7.6 7.6zm22.9 0-7.6-7.6 7.6-7.6 7.6 7.6zm-11.4-11.5-7.6-7.6 7.6-7.6 7.6 7.6zM55.1 175l-7.6-7.6 7.6-7.6 7.6 7.6zM89 187l-7.6-7.6 7.6-7.6 7.6 7.6zm-11.5-11.5-7.6-7.6 7.6-7.6 7.6 7.6zM66.1 164l-7.6-7.6 7.6-7.6 7.6 7.6zm34.4 12-7.6-7.6 7.6-7.6 7.6 7.6zm-23-23-7.6-7.6 7.6-7.6 7.6 7.6zm34.4 11.5-7.6-7.6 7.6-7.6 7.6 7.6zM89 141.6l-7.6-7.6 7.6-7.6 7.6 7.6z" style="fill:#fff"/></svg>