<svg xmlns="http://www.w3.org/2000/svg" xml:space="preserve" id="AdEx" x="0" y="0" version="1.1" viewBox="0 0 245 245"><style>.st1{fill:#fff}</style><path id="Main" d="M0 122.5C0 190 55 245 122.5 245S245 190 245 122.5 190 0 122.5 0 0 55 0 122.5" style="fill:#1b75bc"/><path id="X" d="M61.5 85 84 63.5l38.5 37 38.5-37L183.5 85 145 122.5l39 37-23 21.5-38.5-37L84 181.5l-22.5-22 38.5-37z" class="st1"/><path id="Top" d="m86.5 61 19 18.5 17-16.5 17 16.5 19-18.5-36-35z" class="st1"/><path id="Bottom" d="m86.5 184 19-18.5 17 16.5 17-16.5 19 18.5-36 35z" class="st1"/></svg>