<svg xmlns="http://www.w3.org/2000/svg" xml:space="preserve" viewBox="0 0 245 245"><path d="M0 122.5C0 190 55 245 122.5 245S245 190 245 122.5 190 0 122.5 0 0 55 0 122.5" style="fill:#de3f6b"/><path d="m112 129.5 7 9.5s-14.8 23-42 23c-13.9 0-37.5-12.2-37.5-39.5S63.9 83 77 83c28.6 0 38.6 20.1 45.5 29 14.1 19.3 26.9 40 44.5 40 20.3 0 28-17 28-17h10.5s-7.5 27-38.5 27c-26.9-.4-40.7-24.9-44.5-30.5-2.1-3.1-6.8-10.3-13-18.5-7.4-9.9-17.1-20.7-32.5-20 0-.4-27.6 3.4-27.5 29.5 0 24 22.7 29.5 27.5 29.5 23.2 0 35-22.5 35-22.5m15-25 6 9.5s13.4-21 34-21c24.7 0 28.5 25.5 28.5 25.5h-37v8.5H206s-.5-8.8-.5-10.5S198.3 83 167 83c-24.1 0-40 21.5-40 21.5" style="fill:#fff"/></svg>