<svg xmlns="http://www.w3.org/2000/svg" xml:space="preserve" viewBox="0 0 490 490"><path d="M0 245c0 135.1 109.9 245 245 245s245-109.9 245-245S380.1 0 245 0 0 109.9 0 245" style="fill:#ff33b2"/><path d="m340.2 245.9-27.7-27.6q-5.25 4.65-11.1 8.4c-15 8.1-30.5 15-46.6 20.6l-38 14.5-7.6 2.8c-20.8 7.7-55.6 20.6-74 44.9-11.1 15.4-17.4 33.7-18.3 52.6v1h40.7l.1-.9c.7-10.9 4.3-21.4 10.5-30.3 11.4-15 40.3-25.7 55.9-31.5l12.8-4.8 38-14.6c15.9-6.2 31.4-13.5 46.4-21.7 6.8-3.8 13.2-8.3 18.9-13.4m-53.3 56c-3.1-5.6-7.3-12.8-12.1-20.8l-20-33.8c-2.7-4.8-24.3-32.4-28.4-61-1.8-15.1 2.3-30.3 11.4-42.4l-29.1-29c-18.9 20.3-27.6 48.1-23.5 75.5 3.8 37.1 29.8 68.4 31.6 71.4l20.1 33.8c5.6 9.5 10.5 17.8 14.1 24.2 7.7 12.8 12 27.3 12.5 42.3v1h40.7v-1c-.5-21.2-6.4-42-17.3-60.2" style="fill:#fff"/><path d="M278.3 126.1c14.5.2 28.5 5.9 38.9 16 12.5 12.6 17.5 30.8 13.2 48-2.7 11.1-9 21.1-17.8 28.3l27.7 27.6c15.9-13.5 26.8-31.9 31.1-52.3 4.6-23.6-1.1-48.1-15.6-67.4-12.8-16.3-30.2-28.5-49.9-34.8-17.9-4.4-36.6-4.5-54.6-.5-16 4.2-30.7 12.4-42.6 23.9l29.1 29c10.1-11.7 25-18.3 40.5-17.8" style="fill:#dbdbdb"/></svg>