<svg xmlns="http://www.w3.org/2000/svg" xml:space="preserve" viewBox="0 0 490 490"><path d="M0 245c0 135.1 109.9 245 245 245s245-109.9 245-245S380.1 0 245 0 0 109.9 0 245" style="fill:#5a2ff1"/><path d="M229.2 77.8c-12.8 12.2-24 25.6-30.4 40.3-6.3 14.3-8 30.3-4.9 45.6 2.5 14.7 9.7 28.1 20.5 38.3 10.7 10.7 25.1 19.5 40.5 28.9s31.9 19.8 45.7 35.6c13.9 16 22 36.1 23.2 57.2 1.4 20.3-3.6 40.5-14.3 57.8-10.5 16-24.7 29.2-41.4 38.7-2.2 1.3-5 .6-6.3-1.5v-.1c-1.1-1.9-.7-4.4 1-5.9 13.2-10.8 23.9-24.3 31.4-39.6 6.7-14.7 8.7-31 5.7-46.8-2.3-15.1-9.6-29-20.9-39.4-10.9-10.6-25.3-19.1-40.8-28.1s-32.2-18.9-46.7-34.2c-7.3-7.8-13.3-16.8-17.7-26.6-4.2-9.8-6.7-20.2-7.5-30.9a95.05 95.05 0 0 1 14.7-59c11-16 25.7-28.9 43-37.7 2.2-1.2 4.9-.3 6.1 1.9 1 1.9.6 4.2-.9 5.5m36.4-7.4c-1.5-.7-3.3-.3-4.3 1-1.4 1.7-1.3 4.2.2 5.8 8.8 8.7 16.7 18.2 23.6 28.4 25.9 44.5 3.4 85-2.3 95.1l-.2.5c-2.2 4.1-1.9 9.1.6 13 3.7 5.4 11 6.8 16.4 3.1.1 0 .1-.1.2-.1 20.2-17.9 22.2-55.1 22.4-62.8-.1-7.7-1.1-15.4-3-22.9-2-7.3-4.9-14.3-8.5-20.8-3.7-6.1-8-11.8-12.8-17-9.3-9.6-20.2-17.5-32.3-23.3m-41.1 350.2c1.5.7 3.3.3 4.3-1 1.4-1.7 1.3-4.2-.2-5.9-8.8-8.7-16.7-18.2-23.6-28.4-25.9-44.5-3.2-85 2.3-95.1l.2-.5c2.2-4.1 1.9-9.1-.6-13-3.6-5.4-10.9-6.8-16.3-3.2-.1.1-.2.1-.2.2-20.4 17.7-22.3 54.9-22.5 62.6.1 7.7 1.1 15.4 3 22.9 2 7.3 5 14.3 8.7 20.9 3.7 6.2 8 11.9 12.8 17.2 9.2 9.7 20.1 17.6 32.1 23.3" style="fill:#fff"/></svg>