<svg xmlns="http://www.w3.org/2000/svg" width="236" height="236"><g transform="scale(1.38824)"><rect width="170" height="170" fill="#220d3a" ry="85"/><path fill="#fff" d="M77.902 10.24C72.155 15.68 67.1 21.636 64.25 28.22a33.14 33.14 0 0 0-2.168 20.33 30.66 30.66 0 0 0 9.214 17.098c4.794 4.762 11.281 8.679 18.145 12.879 6.819 4.247 14.319 8.852 20.518 15.864a42.17 42.17 0 0 1 10.41 25.511 43.16 43.16 0 0 1-6.405 25.789c-4.756 7.525-11.513 13.049-18.601 17.269a2.062 2.062 0 0 1-2.385-3.347c5.979-5.1 11.135-11.034 14.175-17.675a34.74 34.74 0 0 0 2.58-20.887 30.03 30.03 0 0 0-9.382-17.566c-4.935-4.726-11.445-8.499-18.374-12.539-6.878-4.096-14.464-8.423-20.989-15.225a43.3 43.3 0 0 1-7.967-11.878 42.8 42.8 0 0 1-3.365-13.752c-.636-9.149 1.517-18.834 6.619-26.323A51.74 51.74 0 0 1 75.59 6.981a2.015 2.015 0 0 1 2.312 3.259m16.371-3.335A49.2 49.2 0 0 1 108.73 17.28a45 45 0 0 1 5.759 7.682 41.3 41.3 0 0 1 3.873 9.323 42.5 42.5 0 0 1 1.346 10.214c-.07 3.42-.911 20.003-10.058 27.98a5.32 5.32 0 0 1-7.438-1.335 5.78 5.78 0 0 1-.271-5.825l.117-.215c2.455-4.629 12.661-22.622 1.011-42.48a85.5 85.5 0 0 0-10.636-12.66l-.014-.012a1.97 1.97 0 0 1-.079-2.62 1.616 1.616 0 0 1 1.932-.427Zm-18.478 156.19a49.2 49.2 0 0 1-14.457-10.375 45 45 0 0 1-5.759-7.684 41.2 41.2 0 0 1-3.873-9.322 42.4 42.4 0 0 1-1.344-10.216c.068-3.42.911-20.001 10.057-27.979a5.32 5.32 0 0 1 7.438 1.335 5.78 5.78 0 0 1 .271 5.825l-.117.215c-2.455 4.629-12.661 22.621-1.009 42.48a85.4 85.4 0 0 0 10.634 12.661l.012.012a1.97 1.97 0 0 1 .079 2.62 1.615 1.615 0 0 1-1.932.427z"/></g></svg>