<svg xmlns="http://www.w3.org/2000/svg" width="244.8" height="244.8"><path fill="#3c8ded" d="M1.248 122.5c0 66.812 54.44 121.248 121.252 121.248S243.748 189.312 243.748 122.5 189.312 1.248 122.5 1.248 1.248 55.688 1.248 122.5"/><g fill="none"><path d="M0 122.4c0 67.444 54.954 122.4 122.4 122.4s122.4-54.954 122.4-122.4S189.841 0 122.4 0 0 54.954 0 122.4" data-name="Path 472526"/><path d="M122.4 11a111.4 111.4 0 1 0 111.4 111.4A111.526 111.526 0 0 0 122.4 11m0-11c67.441 0 122.4 54.954 122.4 122.4s-54.954 122.4-122.4 122.4S0 189.844 0 122.4 54.959 0 122.4 0" data-name="Path 472527"/></g><g fill="#fff" data-name="Group 9324"><g data-name="Group 9322" transform="rotate(45 26.348 114.666)"><circle cx="11.322" cy="11.322" r="11.322" data-name="Ellipse 1192" transform="translate(44.989 44.692)"/><circle cx="11.322" cy="11.322" r="11.322" data-name="Ellipse 1193" transform="translate(123.647 44.692)"/><rect width="11.918" height="33.966" data-name="Rectangle 1039" rx="5.959" transform="translate(129.01 78.657)"/><rect width="11.918" height="33.966" data-name="Rectangle 1040" rx="5.959" transform="translate(50.352)"/><rect width="11.918" height="33.966" data-name="Rectangle 1041" rx="5.959" transform="rotate(90 -8.045 42.01)"/><rect width="11.918" height="33.966" data-name="Rectangle 1043" rx="5.959" transform="rotate(90 70.612 120.668)"/><rect width="11.918" height="33.966" data-name="Rectangle 1044" rx="5.959" transform="rotate(90 31.284 81.339)"/></g><text font-family="Monospace821BT-Roman, Monospac821 BT" font-size="25" letter-spacing="-.03em" transform="rotate(45 -76.207 259.97)"><tspan x="-57.58" y="0">aleph.im</tspan></text></g></svg>