<svg xmlns="http://www.w3.org/2000/svg" xml:space="preserve" id="AMB" x="0" y="0" version="1.1" viewBox="0 0 490 490"><style>.st1{fill:#fff}</style><path id="Full" d="M0 245c0 135.1 109.9 245 245 245s245-109.9 245-245S380.1 0 245 0 0 109.9 0 245" style="fill:#8ae3ff"/><path id="Dots" d="M154.8 245.1c5.3 0 9.6 4.2 9.6 9.5s-4.2 9.6-9.5 9.6-9.6-4.2-9.6-9.5 4.2-9.6 9.5-9.6m181.8-21.8c5.3 0 9.6 4.2 9.6 9.5s-4.2 9.6-9.5 9.6-9.6-4.2-9.6-9.5c-.1-5.3 4.2-9.6 9.5-9.6" class="st1"/><path id="Middle" d="M335.7 236.1c-2.2 0-4-1.6-4.3-3.8-5.7-38.4-36.1-68.4-74.6-73.6-2.4-.3-4.1-2.5-3.7-4.9.3-2.4 2.5-4 4.8-3.8 42.1 5.6 75.8 38.9 82.1 81.1.4 2.4-1.3 4.7-3.7 5zm-22.6 75c-1.1 0-2.1-.4-2.9-1.1-1.8-1.6-2-4.3-.4-6.1 12.3-13.5 20-30.5 22-48.6.2-2.4 2.3-4.1 4.7-3.9s4.1 2.3 3.9 4.7v.3c-2.3 19.9-10.8 38.6-24.2 53.4-.8.9-1.9 1.3-3.1 1.3m-55.6 29.3c-2.2 0-4-1.6-4.3-3.8-.3-2.4 1.3-4.5 3.7-4.8h.1c14.6-2 28.5-7.6 40.3-16.4 1.9-1.4 4.7-1 6.1.9s1 4.7-.9 6.1c-13 9.7-28.3 16-44.5 18.2-.1-.1-.3-.2-.5-.2m-24 0h-.5c-43.5-5.7-77.5-40.4-82.5-84-.4-2.4 1.2-4.6 3.6-5s4.6 1.2 5 3.6v.3c4.5 39.7 35.4 71.2 74.9 76.5 2.4.3 4 2.5 3.8 4.9-.3 2.1-2.1 3.8-4.3 3.7m-78.3-104.3h-.7c-2.4-.4-4-2.6-3.8-5 2.8-19.4 11.6-37.5 25.1-51.8 1.6-1.8 4.3-1.9 6.1-.3s1.9 4.3.3 6.1l-.1.1c-12.3 13-20.3 29.4-22.8 47.1-.2 2.2-2 3.8-4.1 3.8m37.2-61.2c-1.4 0-2.7-.7-3.6-1.8-1.4-2-.9-4.7 1-6.1 12.7-9 27.4-14.9 42.8-16.9 2.4-.3 4.5 1.4 4.8 3.8s-1.4 4.5-3.7 4.8c-14 1.9-27.4 7.2-38.9 15.5-.6.5-1.5.8-2.4.7m53.1 147.9c-42.7 0-77.3-34.9-77.3-77.5 0-42.8 34.8-77.5 77.3-77.5 42.7 0 77.2 34.9 77.2 77.5.1 42.7-34.5 77.4-77.2 77.5m0-146.4c-37.8 0-68.6 30.9-68.6 68.9s30.8 68.9 68.6 68.9 68.6-30.9 68.6-68.9c-.1-38-30.8-68.9-68.6-68.9m25.3 47.5c0-13.7-11.1-24.7-24.8-24.7s-24.7 11.1-24.7 24.8c0 8.3 4.2 16 11.1 20.6l.4-1.8c.7-3.3 3.6-5.8 7-5.9h12.5c3.4.1 6.4 2.6 7 5.9l.4 1.8c6.9-4.7 11-12.4 11.1-20.7m-38.4 20.6-6.8 41.7c-.5 2.7 1.2 5.3 3.9 5.8.4.1.7.1 1.1.1h30.8c2.7.1 5-2 5.1-4.7 0-.4 0-.9-.1-1.3l-6.8-41.7c-8.2 5.7-18.9 5.7-27.2.1m19.9-7.9h-12.6c-3.4.1-6.4 2.6-7 5.9l-.4 1.8c4.1 2.7 8.8 4.1 13.6 4.1 4.9 0 9.6-1.4 13.6-4.1l-.4-1.8c-.4-3.3-3.4-5.8-6.8-5.9" class="st1"/><path id="Bottom" d="M245.5 348C126.1 348 72.4 252.8 70 248.9c-2.2-4-.7-8.9 3.2-11.1 4-2.2 8.9-.7 11.1 3.2.5.9 51.6 90.7 161.1 90.7S406 241.9 406.5 241c2.2-4 7.2-5.4 11.1-3.2 4 2.2 5.4 7.2 3.2 11.1-2.2 4.1-55.9 99.1-175.3 99.1" class="st1"/><path id="Top" d="M413.8 253.2c-3 0-5.7-1.5-7.2-4.1-.5-.9-51.6-90.7-161.1-90.7S84.9 248.1 84.4 249c-2.2 4-7.2 5.4-11.1 3.2-4-2.2-5.4-7.2-3.2-11.1 2.2-4 55.9-99.1 175.5-99.1 119.4 0 173.1 95.2 175.5 99.1 2.2 4 .7 8.9-3.2 11.2-1.4.5-2.7.8-4.1.9" class="st1"/></svg>