<svg xmlns="http://www.w3.org/2000/svg" width="256" height="256" viewBox="0 0 67.733 67.733"><g transform="translate(0 -229.267)"><circle cx="33.867" cy="263.133" r="32.411" style="opacity:1;fill:#fff;fill-opacity:1;fill-rule:nonzero;stroke:none;stroke-width:.69222212;stroke-linecap:round;stroke-linejoin:round;stroke-miterlimit:4;stroke-dasharray:none;stroke-dashoffset:0;stroke-opacity:1;paint-order:stroke fill markers"/><path d="M17.421 278.687a14 14 0 0 1-.008-1.402q.232-.067.475-.1c.468-.079.935-.195 1.387-.328.124-.039.249-.086.374-.132.6-.234 1.129-.623 1.534-1.122.28-.35.522-.732.732-1.13.296-.544.553-1.113.787-1.69.467-1.168.934-2.328 1.394-3.497l4.767-12.056a854 854 0 0 0 4.431-11.497l.094-.233c.537-.148 1.06-.304 1.604-.452q.05.115.086.218c.615 1.714 1.23 3.427 1.838 5.148 2.095 5.85 4.19 11.691 6.34 17.517.592 1.59 1.184 3.186 1.784 4.775.233.646.514 1.285.833 1.892.14.265.288.514.452.764a3.65 3.65 0 0 0 2.165 1.565c.483.125.966.226 1.465.288l.35.055c.047.156.023.304.023.452v.475c.008.156 0 .304-.007.46-.047.006-.086.015-.133.023H37.866q-.021-.038-.03-.086v-1.262c0-.015.007-.039.015-.054.101-.031.202-.047.311-.063.507-.07 1.005-.163 1.504-.296.194-.054.397-.124.584-.202a2 2 0 0 0 .28-.14c.49-.273.686-.701.639-1.246a4 4 0 0 0-.133-.733c-.1-.373-.233-.74-.358-1.098A2905 2905 0 0 1 33.1 252.09c-.024-.078-.04-.164-.117-.234-.023.016-.062.032-.078.047a.4.4 0 0 0-.047.117c-1.223 3.513-2.523 7.002-3.816 10.483-.958 2.579-1.916 5.164-2.804 7.766a149 149 0 0 0-1.036 3.146 7.6 7.6 0 0 0-.288 1.231c-.047.28-.055.56-.024.85.04.365.234.7.538.918q.294.21.646.327c.366.133.74.226 1.122.288.42.078.841.14 1.27.203.03.007.054.007.093.015l.023.094v1.223c0 .023-.008.047-.015.07a.6.6 0 0 1-.117.016h-.164z" style="stroke-width:.07788724"/></g></svg>