<svg xmlns="http://www.w3.org/2000/svg" xml:space="preserve" viewBox="0 0 245 245"><path d="M0 122.5C0 190 55 245 122.5 245S245 190 245 122.5 190 0 122.5 0 0 55 0 122.5" style="fill:#ba252b"/><circle cx="122.5" cy="122.5" r="87.5" style="fill:none;stroke:#fff;stroke-width:7;stroke-linecap:round;stroke-linejoin:round"/><path d="m171.5 50-7-4L141 79l-6.5-2 23-33.5-7.5-3-63.5 89-16-4-12 17L75 146l-21.5 30 5 5.5 25-33L90 150l-26 37 6 4.5 28.5-39 43 10.5 6.5 43.5 19-8.5-17.5-117zM111 135.5l22-30.5 5.5 37z" style="fill:#fff"/></svg>