<svg xmlns="http://www.w3.org/2000/svg" xml:space="preserve" id="Lager_1" x="0" y="0" version="1.1" viewBox="0 0 256 256"><style>.st0{fill:#01c0e3}.st1{fill:#fff}</style><g id="Page-1"><g id="Aragon"><path id="Full" d="M0 128c0 70.6 57.4 128 128 128s128-57.4 128-128S198.6 0 128 0 0 57.4 0 128" class="st0"/><path id="A-Nose" d="M170.4 94c3.7 5 5.7 11 5.7 17.3 0 7.5-3.1 14.5-8.4 20.1l3.2 12h9.8l10.3-11.7 2.8-17.1.6-10.2L184.2 93z" class="st1"/><path id="A-Body" d="m57.1 144.9 1.8 7.1s21.1 43.2 68.6 59.3c0 0 44.5-18.4 63.7-49.6l-27.8-23.1s-12.7 10.1-31.5 10.1-44.4-11.2-44.4-34.3S114 82.8 114 82.8L102.7 80h-29l-18.3 44z" class="st1"/><path id="A-Round" d="M133.8 57.5c28.8.1 52.1 23.4 52.1 52.3s-23.4 52.1-52.2 52.1-52.1-23.4-52.1-52.2c0-13.9 5.5-27.1 15.3-36.9s23-15.3 36.9-15.3" class="st1"/><path id="A-Background" d="M216.9 98.4c-.8-.8-24.2-25.5-88.4-47.6l-.4-.2C65.9 72 39.2 98.4 39.2 98.4c2.4 14.1 8.5 29.8 14.1 42 .5 1 7.8 14 13.3 21.1-3.2-7.1-6.7-13.2-6.7-23.8 0-29.9 23.2-54.1 52.2-55.2.7 0 1.4 0 2.1.1l-6.9-6.9s27.8-4.7 63.6 16.9c0 0 .5 1.1 0 4.3 0 0 16.8 7.2 18.3 21.3 1.4 14.1-7.5 22.1-14.7 23.3 0 0 3.7-5.8-2-8.9-1.3-.7-2.7-1-4.1-.9-11 0-12.3 12.5-12.3 12.5-.1.6-.1 1.3-.1 1.9 0 0-1.8 18.4 30.9 18 0 0 16.6-18.8 21-35.6 1.6-6.2 2.8-10.9 3.5-14.3 1.8-4.9 3.6-10 5.4-15.2z" class="st0"/><path id="A-Eye" d="M156.5 98.6c1.4-.7 2.6-1.6 3.7-2.8 2.3.3 4.6.9 6.9 1.6-6.3-3.8-14.9-6-24.4-6 0 0 3.6 5.2 13.7 7.3z" class="st0"/><path id="A-Shield" d="M41.8 96.7c3.4 15.5 8.8 30.6 16 44.7 7.4 14.5 16.4 27.1 26.7 37.6 12.2 12.4 27 21.9 43.3 27.8 16.1-5.8 30.7-15.2 43.3-27.8 10.3-10.4 19.3-23 26.7-37.6 7.2-14.1 12.6-29.1 16-44.6-34-28-76.1-42.8-86-46-9.9 3.1-51.8 17.7-86 45.9z" style="fill:none;stroke:#fff;stroke-width:20"/></g></g></svg>