<svg xmlns="http://www.w3.org/2000/svg" xml:space="preserve" id="Aurora" x="0" y="0" version="1.1" viewBox="0 0 245 245"><style>.st1{stroke-width:4}.st1,.st2{fill:none;stroke:#fff;stroke-linecap:round;stroke-linejoin:round}</style><path id="Full" d="M0 122.5C0 190 55 245 122.5 245S245 190 245 122.5 190 0 122.5 0 0 55 0 122.5" style="fill:#6ee4e5"/><g id="Aurora-2"><path id="Left" d="M122.5 47 41 141.5l81.5 56.5z" class="st1"/><path id="Right" d="m122.5 47 81.5 94.5-81.5 56.5z" class="st1"/><path id="First_Line" d="M69.5 161.5c7.3-5.8 52 12.6 31-35s21.5-11 21.5-11 20.1 16.3 25.5 22" class="st2"/><path id="Second_Line" d="M108 62c-3.9 17.7 14.5 37.7 35.5 47.5 12.2 7 58 8.5 35.5 50" class="st2"/></g></svg>