<svg xmlns="http://www.w3.org/2000/svg" width="250" height="250" fill="none"><circle cx="125" cy="125" r="125" fill="#fff"/><path fill="url(#a)" d="M35.604 9.785a.514.514 0 0 0-.445.771l33.315 57.818h21.722a.514.514 0 0 0 .445-.772l-33.324-57.56a.51.51 0 0 0-.445-.256z" transform="matrix(2.07893 0 0 2.07893 28.939 26.766)"/><path fill="url(#b)" d="M12.198 48.844H79.78l10.86 18.758a.514.514 0 0 1-.445.771H1.783a.514.514 0 0 1-.445-.771z" transform="matrix(2.07893 0 0 2.07893 28.939 26.766)"/><path fill="url(#c)" d="M57.167 9.781 23.35 68.369H1.782a.514.514 0 0 1-.445-.771l33.23-57.56a.51.51 0 0 1 .445-.257z" transform="matrix(2.07893 0 0 2.07893 28.939 26.766)"/><defs><linearGradient id="a" x1="51" x2="78.575" y1="19.549" y2="67.299" gradientUnits="userSpaceOnUse"><stop stop-color="#08aeea"/><stop offset="1" stop-color="#2af598"/></linearGradient><linearGradient id="b" x1="27.616" x2="63.591" y1="60.15" y2="60.425" gradientUnits="userSpaceOnUse"><stop stop-color="#08aeea"/><stop offset="1" stop-color="#2af598"/></linearGradient><linearGradient id="c" x1="47.483" x2="29.184" y1=".767" y2="31.034" gradientUnits="userSpaceOnUse"><stop stop-color="#08aeea"/><stop offset="1" stop-color="#2af598"/></linearGradient></defs></svg>