<svg xmlns="http://www.w3.org/2000/svg" xml:space="preserve" id="Aeron" x="0" y="0" version="1.1" viewBox="0 0 245 245"><style>.st1{fill:none;stroke:#fff;stroke-width:5}</style><path id="Full" d="M0 122.5C0 190 55 245 122.5 245S245 190 245 122.5 190 0 122.5 0 0 55 0 122.5" style="fill:#033152"/><g id="Aeron-2"><path id="Shield" d="M50.1 60.2c19.1-11 43.2-16.5 72.4-16.4 29.1 0 53.3 5.5 72.4 16.4 3.4 1.9 5.3 5.6 5.1 9.5l-3.8 62.4c-1.6 26.5-15.7 50.6-38 65l-30.1 19.5c-3.4 2.2-7.7 2.2-11.1 0l-30.1-19.5c-22.2-14.4-36.3-38.5-38-65L45 69.7c-.2-3.9 1.7-7.6 5.1-9.5z" class="st1"/><path id="Plane" d="M162.7 107.6c4.6 0 8.3 3.7 8.3 8.3s-3.7 8.3-8.3 8.3-8.3-3.7-8.3-8.3 3.7-8.3 8.3-8.3m-40 71.4c4.6 0 8.3 3.7 8.3 8.3s-3.7 8.3-8.3 8.3-8.3-3.7-8.3-8.3 3.7-8.3 8.3-8.3m-41.9-71.4c4.6 0 8.3 3.7 8.3 8.3s-3.7 8.3-8.3 8.3-8.3-3.7-8.3-8.3 3.7-8.3 8.3-8.3m41.9 80.6v27.9m-.2-129.7c-2.5.1-4.4 2-4.5 4.5v16.5l-24 15 2.6 5.6 21.4-7v16.5l-6 4.5v4.5l10.5-3 10.5 3V142l-6-4.5V121l21.1 7.5 2.9-6-24-15V90.9c-.1-2.4-2-4.4-4.5-4.5" style="fill:#fff"/><path id="Down" d="m50.9 60.2 68.5 123.9c1 1.8 3.3 2.5 5.1 1.5.6-.3 1.1-.9 1.5-1.5l68-124.5" class="st1"/><path id="Up" d="m56.2 162.2 65-116.2c.6-1.1 2-1.5 3.1-.9q.6.3.9.9l63.2 116.6" class="st1"/><path id="Middle" d="M64.2 174.9c5.6 1.3 25.3 6.1 59.1 14.3l58.8-15.5" class="st1"/><path id="Last" d="M122.7 188.2v27.9" class="st1"/></g></svg>