<svg xmlns="http://www.w3.org/2000/svg" xml:space="preserve" viewBox="0 0 245 245"><path d="M0 122.5C0 190 55 245 122.5 245S245 190 245 122.5 190 0 122.5 0 0 55 0 122.5" style="fill:#00a3ff"/><path d="M51 122.5c3.4-3.3 71.5-71.5 71.5-71.5s69.1 69.8 70.5 71.5c-35.1 37.2-103.8 36.9-142 0zm54 54c17-1 37.5-9.4 46-14.5-7.6 9.1-29.5 31.5-29.5 31.5s-8.8-9.1-16.5-17zM84.5 117c33.3-13.6 72.7-.8 81.5 5.5-4.6 2.8-15.2 9.1-29.5 11-12.2-9.8-38.1-15.2-52-16.5z" style="fill:none;stroke:#fff;stroke-width:4;stroke-linecap:round"/></svg>