<svg xmlns="http://www.w3.org/2000/svg" xmlns:xlink="http://www.w3.org/1999/xlink" width="96" height="96"><defs><path id="a" d="M8 15.5.5.5h15z"/><path id="c" d="M26 20.487 12.588 49.322c-.443.924-.673 1.674-1.648 1.674L2.081 51c-1.27 0-1.97-.331-1.354-1.674L22.39 2.112c.442-.785.717-1.362 1.693-1.362h3.835c.975 0 1.25.577 1.693 1.362l21.661 47.214C51.89 50.669 51.189 51 49.919 51l-8.859-.004c-.975 0-1.205-.75-1.648-1.674z"/></defs><circle cx="48" cy="48" r="48" fill="#17181d"/><g fill="none" fill-rule="evenodd"><g transform="translate(40 67)"><mask id="b" fill="#fff"><use xlink:href="#a"/></mask><path fill="#32feff" d="M-3.25 19.25h22.5v-22.5h-22.5z" mask="url(#b)"/></g><g fill="#fff" transform="translate(22 21)"><mask id="d"><use xlink:href="#c"/></mask><path d="M-3.25 54.75h58.5V-3h-58.5z" mask="url(#d)"/></g></g></svg>