<svg xmlns="http://www.w3.org/2000/svg" width="236" height="236"><g transform="scale(.0944)"><circle cx="1250" cy="1250" r="1250" style="fill:#d127e3;fill-opacity:1;stroke-width:1.00685;paint-order:stroke fill markers"/><path d="M838.2 1948.872c-15.151-1.911-29.059-13.418-33.937-28.078-2.147-6.454-2.2-20.26-.101-26.463.809-2.391 38.376-67.302 83.483-144.247 78.192-133.382 82.275-140.161 87.632-145.504 3.447-3.438 7.366-6.44 10.14-7.764 9.872-4.718-4.158-4.418 207.43-4.429 213.63-.015 198.008.352 208.434-4.83 16.9-8.401 25.94-30.827 19.298-47.875-2.528-6.49-209.5-359.472-213.212-363.624-7.184-8.036-18.231-12.896-29.318-12.896-11.724 0-20.555 3.54-28.58 11.454-4.347 4.287-14.253 20.839-101.479 169.56-53.164 90.645-98.198 166.967-100.075 169.604-5.708 8.018-14.962 13.926-25.217 16.098-3.34.708-45.164.876-171.783.692l-167.368-.243-4.816-1.801c-13.881-5.191-23.967-16.505-27.364-30.697-1.707-7.132-1.114-16.33 1.499-23.25 1.062-2.814 134.147-230.277 295.743-505.473 326.27-555.633 297.476-507.932 310.403-514.235 16.567-8.079 36.35-5.016 49.054 7.594 4.393 4.36 41.496 67.445 421.26 716.259 229.043 391.312 417.147 713.451 418.009 715.865 7.724 21.64-5.027 46.78-27.137 53.504-5.128 1.56-8.73 1.57-591.265 1.466-322.358-.057-588.188-.366-590.732-.687z" style="fill:#fff;fill-opacity:1;stroke:#000;stroke-width:.796566;stroke-opacity:1"/></g></svg>