<svg xmlns="http://www.w3.org/2000/svg" xmlns:xlink="http://www.w3.org/1999/xlink" width="250" height="250"><defs><linearGradient xlink:href="#a" id="d" x1="17.337" x2="80" y1="74.339" y2="74.339"><stop offset="0" stop-color="#000040"/><stop offset=".325" stop-color="#000043"/><stop offset=".585" stop-color="#00004d"/><stop offset=".823" stop-color="#00005e"/><stop offset="1" stop-color="#000070"/></linearGradient><linearGradient xlink:href="#a" id="e" x1="48.668" x2="48.668" y1="68.69" y2="80"><stop offset=".35" stop-color="#00209f"/><stop offset=".645" stop-color="#001f9d"/><stop offset=".752" stop-color="#001d96"/><stop offset=".828" stop-color="#00198b"/><stop offset=".889" stop-color="#00137a"/><stop offset=".941" stop-color="#000c64"/><stop offset=".987" stop-color="#000349"/><stop offset="1" stop-color="#000040"/></linearGradient><linearGradient xlink:href="#a" id="f" x1="17.337" x2="80" y1="55.314" y2="55.314"><stop offset="0" stop-color="#00209f"/><stop offset=".021" stop-color="#0222a1"/><stop offset=".244" stop-color="#1333b2"/><stop offset=".487" stop-color="#1d3dbc"/><stop offset=".791" stop-color="#2040bf"/><stop offset=".841" stop-color="#1e3dbc"/><stop offset=".882" stop-color="#1933b2"/><stop offset=".919" stop-color="#1122a1"/><stop offset=".954" stop-color="#050a89"/><stop offset=".966" stop-color="#00007f"/><stop offset="1" stop-color="#2040bf"/></linearGradient><linearGradient xlink:href="#a" id="b" x1="17.337" x2="80.001" y1="46.992" y2="46.992"><stop offset="0" stop-color="#dfdfdf"/><stop offset=".021" stop-color="#e1e1e1"/><stop offset=".244" stop-color="#f2f2f2"/><stop offset=".487" stop-color="#fcfcfc"/><stop offset=".791" stop-color="#fff"/><stop offset=".841" stop-color="#fcfcfc"/><stop offset=".882" stop-color="#f2f2f2"/><stop offset=".919" stop-color="#e1e1e1"/><stop offset=".954" stop-color="#c9c9c9"/><stop offset=".966" stop-color="#bfbfbf"/><stop offset="1" stop-color="#fff"/></linearGradient><linearGradient xlink:href="#b" id="h" x1="17.336" y1="68.287" y2="68.287"/><linearGradient xlink:href="#b" id="i" x1="17.339" x2="79.999" y1="67.46" y2="67.46"/><linearGradient xlink:href="#b" id="j" x1="17.336" x2="80" y1="52.273" y2="52.273"/><linearGradient xlink:href="#b" id="k" x1="17.338" x2="80" y1="39.61" y2="39.61"/><linearGradient xlink:href="#b" id="l" x2="80" y1="46.991" y2="46.991"/><linearGradient xlink:href="#b" id="m" x1="17.333" y1="54.692" y2="54.692"/><linearGradient xlink:href="#a" id="c" x1="17.337" x2="80.001" y1="47.594" y2="47.594"><stop offset="0" stop-color="#bf1010"/><stop offset=".021" stop-color="#c11212"/><stop offset=".244" stop-color="#d22323"/><stop offset=".487" stop-color="#dc2d2d"/><stop offset=".791" stop-color="#df3030"/><stop offset=".841" stop-color="#dc2e2e"/><stop offset=".882" stop-color="#d22626"/><stop offset=".919" stop-color="#c11919"/><stop offset=".954" stop-color="#a90808"/><stop offset=".966" stop-color="#9f0000"/><stop offset="1" stop-color="#df3030"/></linearGradient><linearGradient xlink:href="#c" id="o" x2="80" y1="39.541" y2="39.541"/><linearGradient xlink:href="#c" id="p" x2="80" y1="41.511" y2="41.511"/><linearGradient xlink:href="#c" id="q" x1="17.336" y1="53.237" y2="53.237"/><linearGradient xlink:href="#c" id="r" x2="79.999" y1="55.028" y2="55.028"/><linearGradient xlink:href="#b" id="g"/><linearGradient xlink:href="#c" id="n"/><linearGradient id="a" gradientUnits="userSpaceOnUse"/></defs><circle cx="125" cy="125" r="125" fill="#cdcdcd" fill-rule="evenodd"/><path fill="#0e3ca5" d="M105.685 164.864c4.822 17.889 22.123 31.535 30.86 30.972.306-.022 33.138-6.158 51.112-36.261 13.983-23.435 9.224-46.054-9.798-46.547-6.845.5-81.358 17.763-72.17 51.84m70.395-114.89-.019-.018.027-.014a83.496 83.72 0 0 0-88-12.733 48.788 48.918 0 0 0-5.275 2.599c-1.172.626-2.344 1.247-3.482 1.934l.278.084a38.045 38.147 0 0 0-8.812 8.365c-23.975 31.735 56.344 54.814 99.292 54.882 19.748 14.221 25.293-40.032 5.991-55.1"/><path fill="#5493f7" d="M92.943 50.618C81.908 67.249 45.153 78.967 39.109 77.14l-.041-.077q.373-.752.754-1.494A88.494 88.73 0 0 1 66.03 44.908q3.393-2.49 7.023-4.66A26.038 26.108 0 0 1 85.204 37c16.368.314 7.82 13.489 7.732 13.622m-9.049 117.512c.793 5.226-.019 25.866-1.085 27.601-.918.058-2.83.175-8.368-2.942a87.85 88.085 0 0 1-43.281-62.368 88.964 89.202 0 0 1 0-28.625 87.457 87.691 0 0 1 3.334-13.576q.441-1.33.923-2.64c6.344 8.461 13.685 16.112 19.924 24.658 5.943 8.137 14.119 21.399 15.782 24.232 10.329 17.594 11.976 28.448 12.764 33.662m122.11-52.022a87.759 87.993 0 0 1-6.126 32.407c-10.367 11.171-80.244-16.324-80.929-16.624-9.56-4.2-38.65-16.978-41.275-37.042-3.764-28.885 54.654-49.008 80.33-49.772 3.079.037 12.448.145 17.911 4.593a87.785 88.02 0 0 1 30.089 66.435m-47.305 78.261c-7.619 3.563-16.004.967-13.825-6.471 4.183-14.282 40.712-28.927 48.779-29.734.995-.097 1.417.582.976 1.356a88.882 89.12 0 0 1-35.923 34.837"/><path fill="url(#d)" d="M17.337 77.254a2.55 2.55 0 0 0 2.328 2.714c30.7.21 60.335-1.2 60.335-5.8 0-13.924-62.663 3.086-62.663 3.086" transform="matrix(2.41095 0 0 2.4174 27.124 21.609)"/><path fill="url(#e)" d="M17.337 77.254a2.55 2.55 0 0 0 2.34 2.714c30.691.233 60.286-.731 60.323-5.8 0-13.924-62.663 3.086-62.663 3.086m2.341 2.537a2 2 0 0 1-.245-.014 2.4 2.4 0 0 1-1.987-1.763 2.37 2.37 0 0 0 2.229 1.761c30.671-.192 59.844-9.635 59.844-5.477 0 4.244-29.171 5.702-59.841 5.493" transform="matrix(2.41095 0 0 2.4174 27.124 21.609)"/><path fill="url(#f)" d="M19.68 37.823a2.34 2.34 0 0 0-2.343 2.343v37.088a2.343 2.343 0 0 0 2.328 2.346C50.364 79.37 80.037 69.209 80 74.169V32.394c.037-4.96-29.626 5.199-60.32 5.429" transform="matrix(2.41095 0 0 2.4174 27.124 21.609)"/><path fill="url(#g)" d="M20.856 58.7a329 329 0 0 0 4.791-3.345l2.216-1.588 2.577-1.883v6.369l2.618-.215 2.62-.244v-6.365a428 428 0 0 0 4.789 2.671l2.213 1.2 2.577 1.376a162 162 0 0 0 3.501-.505v-2.334a447 447 0 0 1-6.952-3.673l2.427-.308 2.117-.286 2.407-.356v-6.965a193 193 0 0 1-4.522.641l-2.43.307 2.429-1.918 2.117-1.693 2.406-1.965v-2.378q-1.692.255-3.439.5l-.054.047-2.582 2.046-2.214 1.744-2.212 1.72-2.578 1.975V36.91q-2.7.272-5.458.474l.22 3.167v3.185a254 254 0 0 1-4.793-2.899l-2.212-1.385-2.577-1.637-.011-.007-1.167.015a2.34 2.34 0 0 0-2.343 2.343v.026l2.428 1.59 2.117 1.359 2.424 1.531a211 211 0 0 1-4.541.127l-2.428.021v6.96a156 156 0 0 0 4.545-.065l2.424-.082a343 343 0 0 1-4.542 3.145l-2.427 1.63v2.334l1.759-.009z" transform="matrix(2.41095 0 0 2.4174 27.124 21.609)"/><path fill="url(#h)" d="m35.781 67.612 1.095-1.753 1.1-1.758-1.853.888-1.852.876-.606-1.821-.6-1.824-.606 1.931-.6 1.929-1.852-.556-1.852-.577 1.1 1.574 1.094 1.567-1.7 1.123-1.7 1.105a180 180 0 0 0 3.947.088l-.271 1.975-.273 1.975 1.364-1.537 1.362-1.546 1.363 1.306 1.364 1.3-.271-1.928-.273-1.927 1.974-.367 1.971-.385-1.7-.823z" transform="matrix(2.41095 0 0 2.4174 27.124 21.609)"/><path fill="url(#i)" d="m65.7 66.973 1.036-1.743-1.752.968-.572-1.689-.574 1.891-1.753-.359 1.037 1.386-1.613 1.238 1.869-.161-.257 1.906 1.291-1.59 1.289 1.136-.256-1.817 1.866-.481z" transform="matrix(2.41095 0 0 2.4174 27.124 21.609)"/><path fill="url(#j)" d="m57.881 51.8 1.04-1.744-1.756.967-.575-1.69-.57 1.887-1.752-.376 1.038 1.4-1.615 1.222 1.87-.143-.258 1.9 1.288-1.581 1.292 1.14-.257-1.816 1.87-.485z" transform="matrix(2.41095 0 0 2.4174 27.124 21.609)"/><path fill="url(#k)" d="m63.379 40.653-.258 1.907 1.291-1.591 1.289 1.136-.257-1.816 1.867-.481-1.611-.686 1.035-1.743-1.751.969-.572-1.688-.574 1.89-1.752-.359 1.038 1.385-1.613 1.24z" transform="matrix(2.41095 0 0 2.4174 27.124 21.609)"/><path fill="url(#l)" d="m72.658 46.566 1.235-1.715a20 20 0 0 0-1.97.917l-.573-1.708-.573 1.872-1.752-.4 1.036 1.4-1.61 1.211 1.866-.128-.257 1.9 1.29-1.554 1.31 1.18-.274-1.823a32 32 0 0 1 2.25-.428z" transform="matrix(2.41095 0 0 2.4174 27.124 21.609)"/><path fill="url(#m)" d="m67.987 54.072-.453-1.04-.454 1.19-1.2.291.917.621-.287 1.218 1.02-.806 1.02.469-.287-1.123.917-.924z" transform="matrix(2.41095 0 0 2.4174 27.124 21.609)"/><path fill="url(#n)" d="M20.441 50.356a214 214 0 0 0 5.253-.173 163 163 0 0 0 5.8-.365v8.356l3.141-.277v-8.356a241 241 0 0 0 8.343-.922l2.7-.354 3.084-.449V43.64l-3.082.449-2.7.355-2.555.313-2.689.3-3.1.308v-8.353q-1.56.15-3.142.276v8.359a161 161 0 0 1-5.795.364l-2.554.1-2.7.073-3.105.033v4.176z" transform="matrix(2.41095 0 0 2.4174 27.124 21.609)"/><path fill="url(#o)" d="m43.613 37.877-2.426 1.914-2.415 1.891-2.817 2.164 2.345-.241 2.808-2.194 2.425-1.913 2.428-1.933 2.8-2.28c.014-.016.023-.032.037-.048q-1.114.168-2.253.332a.24.24 0 0 1-.107.059z" transform="matrix(2.41095 0 0 2.4174 27.124 21.609)"/><path fill="url(#p)" d="m22.647 42.847 2.828 1.777 2.344-.12-2.816-1.732-2.42-1.522a303 303 0 0 1-4.426-2.85 2.33 2.33 0 0 0-.709 1.089l2.724 1.782z" transform="matrix(2.41095 0 0 2.4174 27.124 21.609)"/><path fill="url(#q)" d="M43.467 51.833a344 344 0 0 1-2.831-1.532l-2.337.265a333 333 0 0 0 5.232 2.858 407 407 0 0 0 5.225 2.749v-1.557l-2.817-1.47z" transform="matrix(2.41095 0 0 2.4174 27.124 21.609)"/><path fill="url(#r)" d="m25 53.477-2.421 1.7-2.426 1.672-2.819 1.9 2.346-.019 2.818-1.937 2.422-1.7 2.423-1.727 2.817-2.051-2.344.153A294 294 0 0 1 25 53.477" transform="matrix(2.41095 0 0 2.4174 27.124 21.609)"/></svg>