<svg xmlns="http://www.w3.org/2000/svg" viewBox="0 0 28 28"><defs><linearGradient id="a" x1="1085" x2="1085" y1="373.21" y2="372.21" gradientTransform="matrix(28 0 0 -28 -30366.07 10449.82)" gradientUnits="userSpaceOnUse"><stop offset="0" stop-color="#2674c8"/><stop offset="1" stop-color="#133a64"/></linearGradient></defs><g data-name="Layer 2"><g data-name="Layer 1"><circle cx="14" cy="14" r="14" fill="url(#a)" data-name="Эллипс 162"/><path fill="#fff" d="M19.12 14.39a.94.94 0 0 1 1.18-.59 1 1 0 0 1 .59.59l3.05 5.35c.49.85.09 1.54-.89 1.54H16.9c-1 0-1.37-.69-.89-1.54Zm-5.9-10.3a.92.92 0 0 1 1.17-.59.94.94 0 0 1 .59.59l.68 1.22 1.6 2.82a2.9 2.9 0 0 1 0 2.54L11.88 20a2.85 2.85 0 0 1-2.2 1.29H5.22c-1 0-1.38-.68-.89-1.54Z" data-name="Контур 13586"/></g></g><text xml:space="preserve" x="11.112" y="27.08" style="font-size:7.78648px;line-height:1.25;font-family:Arial;-inkscape-font-specification:&quot;Arial, Normal&quot;;font-variant-ligatures:none;fill:#fff;fill-opacity:1;stroke-width:.291988"><tspan x="11.112" y="27.08" style="fill:#fff;fill-opacity:1;stroke-width:.291988">X</tspan></text></svg>