<svg xmlns="http://www.w3.org/2000/svg" xml:space="preserve" id="AXE" x="0" y="0" version="1.1" viewBox="0 0 490 490"><style>.st1{fill:none;stroke:#fff;stroke-width:10;stroke-linecap:round;stroke-linejoin:round}</style><path id="Full" d="M0 245c0 135.1 109.9 245 245 245s245-109.9 245-245S380.1 0 245 0 0 109.9 0 245" style="fill:#00a0ea"/><path id="X" d="m166.7 97.5-69.1 69.1 78.3 78.3-78.3 78.3 69.1 69.1L245 268l78.3 124.4 69.1-69.1-78.3-78.3 78.3-78.3-69.1-69.1L245 222z" class="st1"/><path id="TopBottom" d="m245 268-78.3 124.4 78.3-78.3 78.3 78.3zm0-46 78.3-124.4-78.3 78.3-78.3-78.3z" class="st1"/></svg>