<svg xmlns="http://www.w3.org/2000/svg" width="290" height="290"><g transform="translate(.299 .299)"><circle cx="145" cy="145" r="145" fill="#fff" transform="translate(-.299 -.299)"/><g fill-rule="evenodd"><path fill="#070504" d="M77.174 60.545c0 .183-.2.258-.717.27-1.043.024-1.54.2-1.722.608-.115.257-.374.392-.908.472-1.042.156-1.166.223-1.283.688-.08.319-.214.41-.606.41-.315 0-.5.087-.5.233 0 .348-.473.676-1.249.865-.5.122-.707.265-.742.516-.032.223-.241.4-.585.506a.79.79 0 0 0-.632.582.55.55 0 0 1-.554.476c-.382.044-.457.135-.457.549 0 .435-.06.5-.5.5-.413 0-.5.076-.549.457a.55.55 0 0 1-.476.554.79.79 0 0 0-.584.639c-.1.345-.27.544-.458.544-.4 0-.646.509-.646 1.34 0 .65-.027.686-.506.686-.448 0-.506.057-.506.5a.675.675 0 0 1-.464.719c-.377.18-.492.382-.609 1.075-.105.619-.242.9-.5 1.011-.43.192-.581.687-.6 1.973-.013.743-.076.971-.27.971-.229-.009-.259 2.561-.259 22.103s.03 22.118.253 22.118.253.371.254 2.321c0 2.5.175 3.489.655 3.746.258.138.32.477.408 2.229.1 2.051.108 2.07.617 2.468s.513.415.513 2.044c0 1.694.122 2.047.709 2.047.27 0 .3.168.3 1.508 0 1.691.183 2.366.677 2.495.286.075.336.232.336 1.056 0 1.186.26 1.984.689 2.12a.514.514 0 0 1 .325.555 3.06 3.06 0 0 0 .689 2.215c.4.4.482.632.525 1.551.049 1.034.069 1.079.515 1.13s.464.095.464.979c0 .976.319 1.814.753 1.981q.26.1.26.769c0 .926.26 1.536.655 1.536.271 0 .344.165.441 1 .108.929.152 1.011.6 1.109s.486.163.533 1.065.076.962.514 1.012.464.08.464 1.14v1.086h-.506c-.45 0-.506.056-.506.506s-.059.506-.482.506c-.4 0-.509.095-.638.542a.79.79 0 0 1-.573.64.55.55 0 0 0-.47.545c-.041.344-.158.459-.506.5s-.466.155-.508.517q-.054.462-.346.464c-.456 0-.7.35-.7 1.01a.836.836 0 0 1-.513.908 1.26 1.26 0 0 0-.612.8c-.074.37-.194.493-.48.493-.425 0-.584.373-.587 1.381 0 .552-.054.628-.466.675s-.469.126-.518.813c-.055.771-.4 1.351-.816 1.351-.165 0-.227.273-.227.992 0 .959-.016 1-.489 1.09-.456.091-.5.165-.6 1.1-.095.815-.187 1.032-.5 1.175-.471.214-.6.791-.6 2.673 0 1.144-.048 1.414-.253 1.414-.223 0-.253 1.575-.253 13.168s.03 13.168.253 13.168c.194 0 .257.228.27.971.022 1.292.174 1.782.611 1.977.275.122.391.369.478 1.013.13.965.316 1.273.772 1.273.263 0 .317.129.317.747 0 .758.31 1.278.761 1.278.137 0 .252.223.284.549.043.45.133.558.5.6.4.046.456.143.557.9.1.744.176.877.611 1.041.38.143.5.3.5.636 0 .36.1.468.495.547s.506.2.549.57.152.482.508.523.466.156.506.506.155.466.506.506.466.156.506.506c.043.376.147.463.6.507.476.046.549.116.549.528 0 .385.089.493.474.57a.96.96 0 0 1 .669.521c.157.344.356.447 1.035.538.749.1.847.16.893.555.042.364.15.453.6.5.408.04.549.135.549.374 0 .423.494.671 1.34.671.559 0 .686.059.686.317 0 .462.323.66 1.28.787.637.084.889.2 1.009.469.192.431.686.582 1.974.6.743.013.971.076.971.27 0 .223 1.426.253 11.817.253s11.817-.03 11.817-.253c0-.185.192-.253.717-.254.72 0 1.815-.509 1.815-.841 0-.094.184-.171.41-.171a.937.937 0 0 0 .941-.856c0-.258.12-.325.577-.325.8 0 1.112-.149 1.289-.614a.59.59 0 0 1 .46-.4.713.713 0 0 0 .713-.688c0-.176.182-.319.484-.379.372-.074.507-.216.587-.612s.191-.515.516-.515.438-.112.522-.5a.83.83 0 0 1 .445-.605c.382-.121.654-.716.654-1.428 0-.4.078-.493.464-.538s.473-.143.519-.623a2.04 2.04 0 0 1 .633-1.165 1.6 1.6 0 0 0 .579-1.5c0-.67.062-.9.241-.9.575 0 .772-.5.772-1.946 0-1.291.038-1.453.43-1.845.65-.649 1.569-.608 1.706.077.089.443.173.506.671.506.371 0 .57.081.57.233 0 .36.4.612 1.2.747.588.1.747.205.826.543.084.36.233.44 1.062.573.76.121.964.218.964.458 0 .4.5.654 1.3.654.566 0 .674.065.841.506.18.479.242.506 1.123.506s.934.02.985.464.106.467 1.012.514.965.078 1.067.541.178.5 1.1.6c.848.1 1 .168 1.086.506s.238.409 1.093.506c.805.091 1.026.184 1.166.491.192.422.8.6 2.079.6.68 0 .823.053.823.3 0 .52.369.709 1.378.709.778 0 1.007.063 1.142.316a2.65 2.65 0 0 0 2.094.866c.606 0 .787.068.868.324.135.423.931.689 2.064.689.785 0 .967.065 1.31.464.378.439.489.467 2.071.521 1.671.057 1.672.057 1.857.549l.186.492h3.381l.414.53.415.53 2.032.084c1.768.073 2.042.123 2.111.385.125.478 1.184.664 3.789.665 2.025 0 2.406.041 2.406.254s2.57.253 22.115.253 22.115-.03 22.115-.253c0-.194.228-.257.971-.27 1.281-.022 1.782-.173 1.97-.6.111-.249.4-.392 1.013-.5.694-.124.9-.241 1.078-.617a.67.67 0 0 1 .717-.464c.44 0 .5-.058.5-.506 0-.464.048-.506.58-.506.822 0 1.446-.274 1.446-.636 0-.2.19-.363.549-.468s.566-.281.6-.531.211-.4.549-.477c.411-.09.5-.194.5-.6 0-.432.061-.493.493-.493.409 0 .512-.085.6-.5.074-.338.226-.513.477-.549s.421-.23.531-.6.268-.549.468-.549c.362 0 .636-.624.636-1.446 0-.532.042-.58.506-.58.448 0 .506-.057.506-.5a.67.67 0 0 1 .464-.717c.376-.179.493-.384.617-1.078.109-.612.252-.9.5-1.013.422-.188.573-.689.6-1.97.013-.743.076-.971.27-.971.222 0 .253-1.107.253-8.947s-.031-8.947-.253-8.947c-.2 0-.254-.24-.255-1.14 0-1.492-.122-1.881-.609-2-.3-.076-.4-.217-.4-.568 0-1.121-.184-1.522-.7-1.522-.466 0-.485-.032-.488-.8 0-.92-.105-1.133-.62-1.294a.62.62 0 0 1-.422-.571c-.041-.356-.154-.468-.517-.51-.385-.044-.464-.135-.464-.535s-.089-.5-.487-.589a.64.64 0 0 1-.579-.562.93.93 0 0 0-.484-.624 1.24 1.24 0 0 1-.558-.549.61.61 0 0 0-.633-.38c-.406 0-.466-.066-.466-.506s-.058-.506-.493-.506c-.411 0-.512-.085-.6-.506-.088-.4-.2-.506-.536-.506-.619 0-1.527-.478-1.626-.855-.071-.271-.238-.326-.993-.326-.853 0-.919-.03-1.1-.506s-.24-.506-1.147-.506c-.837 0-1.019-.063-1.463-.506-.476-.476-.586-.506-1.818-.506-1.3 0-1.87-.24-1.87-.792 0-.179-1.139-.39-2.106-.39a1.23 1.23 0 0 1-.991-.506c-.4-.444-.563-.506-1.361-.506a1.63 1.63 0 0 1-1.451-.506c-.483-.451-.658-.506-1.6-.506-.915 0-1.072-.046-1.148-.336q-.177-.677-1.988-.677c-.688 0-1-.066-1-.211-.006-.526-.359-.707-1.716-.88-1.234-.158-1.41-.223-1.456-.538-.057-.393-.582-.562-1.784-.571-.737-.005-1.153-.227-1.335-.712-.089-.236-.314-.3-1.129-.3-.775 0-1.018-.058-1.018-.244 0-.479-.709-.769-1.881-.769-1.108 0-1.133-.01-1.237-.486-.1-.452-.177-.493-1.129-.6-.8-.09-1.041-.184-1.105-.432-.1-.393-.878-.675-1.854-.675-.648 0-.779-.064-1.03-.505-.266-.468-.358-.506-1.247-.506-.921 0-.962-.02-1.013-.466s-.111-.469-1.067-.549-1.016-.114-1.065-.533-.13-.458-1.055-.566c-.825-.1-1-.172-1-.431 0-.415-.5-.665-1.323-.665-.592 0-.69-.059-.846-.506-.17-.486-.157-.506.31-.506a.97.97 0 0 0 .847-.506.99.99 0 0 1 1.03-.506c.874 0 1.779-.387 1.916-.819.074-.233.282-.36.649-.4.449-.043.55-.131.594-.517s.13-.465.591-.466c.872 0 1.294-.182 1.4-.59a.67.67 0 0 1 .589-.482c.358-.072.493-.2.493-.455 0-.243.165-.419.519-.552a.85.85 0 0 0 .61-.651.53.53 0 0 1 .536-.507c.342-.04.457-.157.5-.508a.62.62 0 0 1 .422-.571c.506-.158.617-.374.62-1.209 0-.6.058-.717.328-.717a.937.937 0 0 0 .856-.941c0-.225.077-.41.171-.41.371 0 .84-1.1.841-1.967 0-.815.033-.881.507-1.046l.506-.176v-1.512c0-1.383.031-1.527.347-1.627.613-.195.666-.79.666-7.573v-6.626l-.506-.374-.506-.374v-2.147c0-2.274-.053-2.493-.588-2.593-.25-.047-.349-.215-.38-.652-.146-2.045-.227-2.36-.63-2.461-.341-.086-.411-.238-.512-1.105-.109-.939-.15-1.012-.606-1.1s-.489-.152-.489-.887c0-.831-.212-1.194-.7-1.194-.207 0-.309-.16-.346-.549-.043-.45-.133-.558-.5-.6-.4-.046-.456-.144-.555-.893-.09-.679-.194-.879-.538-1.035a.96.96 0 0 1-.521-.669c-.077-.385-.184-.474-.57-.474-.412 0-.482-.072-.528-.549-.043-.454-.131-.558-.507-.6-.351-.041-.466-.156-.506-.506s-.155-.466-.506-.506-.466-.156-.506-.506-.154-.466-.523-.508-.493-.163-.57-.549c-.082-.409-.182-.495-.584-.495-.368 0-.485-.079-.485-.328 0-.4-.212-.546-1.1-.777a1.23 1.23 0 0 1-.9-.633.676.676 0 0 0-.717-.457c-.366 0-.5-.08-.5-.3 0-.5-.357-.709-1.194-.709-.734 0-.8-.034-.886-.484s-.166-.492-1.1-.6c-.874-.1-1.018-.166-1.106-.517-.1-.413-.406-.492-2.463-.639-.437-.031-.606-.13-.652-.38-.1-.536-.32-.585-2.593-.588h-2.147l-.374-.506-.374-.506h-6.679c-7.249 0-7.394.014-7.543.609l-.1.4h-6.064l-.451.506c-.415.466-.541.506-1.563.507-1.411 0-2.315.247-2.423.658-.064.246-.306.342-1.095.433-.853.1-1.07.195-1.376.61a1.02 1.02 0 0 1-1.023.493c-.885 0-1.539.269-1.646.677-.065.25-.231.336-.65.336a.69.69 0 0 0-.784.464c-.173.36-.374.485-.9.555-.839.113-1.1.267-1.1.658 0 .2-.165.339-.493.405a1.26 1.26 0 0 0-.8.612c-.405.685-.906.689-.906.007 0-.448-.057-.506-.5-.506-.493 0-.5-.011-.549-1.055-.048-1.011-.07-1.057-.514-1.109s-.464-.1-.464-.88c0-.959-.418-1.958-.869-2.076-.256-.067-.313-.248-.313-.993 0-.95-.2-1.316-.709-1.316-.256 0-.3-.147-.3-.943 0-.893-.027-.953-.506-1.134s-.507-.249-.523-1.125c-.023-1.263-.177-1.746-.622-1.944-.289-.129-.374-.309-.374-.791 0-.978-.26-1.49-.755-1.49-.426 0-.426 0-.426-1.593 0-1.825-.173-2.459-.671-2.459-.315 0-.342-.108-.344-1.393 0-1.524-.066-1.711-.631-1.888-.359-.112-.38-.207-.382-1.753 0-1.984-.087-2.338-.582-2.462-.362-.091-.388-.2-.463-1.862-.081-1.823-.249-2.29-.823-2.29-.261 0-.317-.164-.359-1.055-.048-1.011-.07-1.057-.514-1.109s-.464-.087-.464-1.059-.012-1.008-.506-1.107c-.45-.09-.507-.169-.509-.713 0-1.016-.162-1.372-.609-1.372-.316 0-.4-.09-.4-.42 0-.3-.176-.535-.589-.8-.5-.326-.589-.476-.591-1.029s-.068-.673-.5-.836a.72.72 0 0 1-.549-.619c-.038-.323-.161-.443-.5-.482s-.469-.169-.542-.537-.2-.5-.568-.539-.482-.153-.523-.507a.55.55 0 0 0-.511-.554.98.98 0 0 1-.623-.475 1.12 1.12 0 0 0-.862-.53 1.35 1.35 0 0 1-.98-.633.8.8 0 0 0-.78-.478c-.374 0-.5-.079-.5-.317 0-.449-.306-.647-1.2-.781-.583-.087-.827-.214-.956-.5-.186-.408-.794-.6-1.912-.6-.469 0-.654-.072-.654-.253.011-.229-1.152-.26-9.442-.26s-9.454.031-9.454.253m11.9 10.194a7.8 7.8 0 0 1 2.448.48 11 11 0 0 0 1.455.536 3.9 3.9 0 0 1 1.1.487 5 5 0 0 0 .853.5 20.3 20.3 0 0 1 4.705 4.621c.111.269.272.489.357.489s.3.35.487.777a6.6 6.6 0 0 0 .653 1.184 4.1 4.1 0 0 1 .528 1.291 4.8 4.8 0 0 0 .5 1.306 5.7 5.7 0 0 1 .5 1.688 25 25 0 0 0 .592 2.532c.21.7.473 1.757.584 2.357a7.5 7.5 0 0 0 .456 1.57 8.7 8.7 0 0 1 .486 1.721 9 9 0 0 0 .567 1.887 8 8 0 0 1 .532 1.656 5.3 5.3 0 0 0 .436 1.364 7.8 7.8 0 0 1 .553 1.526 12.6 12.6 0 0 0 .676 1.881 3.4 3.4 0 0 1 .358 1.013 5 5 0 0 0 .492 1.269 8.3 8.3 0 0 1 .606 1.519 6.5 6.5 0 0 0 .585 1.4 6 6 0 0 1 .577 1.46 1.67 1.67 0 0 0 .349.815 2.2 2.2 0 0 1 .441.819c.11.341.494 1.236.853 1.989a11.5 11.5 0 0 1 .652 1.535.97.97 0 0 0 .321.456 1.7 1.7 0 0 1 .422.828 2.6 2.6 0 0 0 .516 1.02 3.8 3.8 0 0 1 .612 1.1 3.3 3.3 0 0 0 .487.953 4 4 0 0 1 .522.928 7.3 7.3 0 0 0 .618 1.163 2.3 2.3 0 0 1 .386.806 3.9 3.9 0 0 0 .591 1.093 4 4 0 0 1 .591 1.08 1.85 1.85 0 0 0 .424.726 5 5 0 0 1 .666 1.081 2.5 2.5 0 0 0 .5.8.7.7 0 0 1 .263.425 2.9 2.9 0 0 0 .493.887 14 14 0 0 1 .839 1.334 8 8 0 0 0 .861 1.245l.514.591.516-.591a7 7 0 0 0 .782-1.1 15 15 0 0 1 1.213-1.672 46 46 0 0 0 1.2-1.521 45 45 0 0 1 3.959-3.905 16.2 16.2 0 0 1 2.707-1.946 2.6 2.6 0 0 0 .757-.506 2.4 2.4 0 0 1 .765-.5 5 5 0 0 0 1.1-.591 4.2 4.2 0 0 1 1.179-.591 2.3 2.3 0 0 0 .85-.393 5.8 5.8 0 0 1 1.432-.62 5.7 5.7 0 0 0 1.2-.455 6.6 6.6 0 0 1 1.519-.471c.639-.133 1.657-.4 2.26-.6 2.669-.862 16.017-.849 17.139.017a9.5 9.5 0 0 0 1.519.494 7.2 7.2 0 0 1 1.6.574 4.9 4.9 0 0 0 1.042.5 3.1 3.1 0 0 1 1 .545 2.6 2.6 0 0 0 .809.5 2.4 2.4 0 0 1 .689.383 5 5 0 0 0 .754.579c1.522 1.022 5.329 5.179 5.329 5.82a1.8 1.8 0 0 0 .391.66 4.6 4.6 0 0 1 .617 1.068 9 9 0 0 0 .52 1.1 8 8 0 0 1 .569 1.6 12 12 0 0 0 .51 1.6c.936 2.01.818 12.454-.162 14.406a4.6 4.6 0 0 0-.42 1.042 10.59 10.59 0 0 1-8.02 5.7c-1.879.106-1.743.707-1.8-7.951-.045-6.346-.088-7.412-.306-7.55-.478-.3-16.826-.208-17.9.1-.508.147-1.493.421-2.189.609a6.2 6.2 0 0 0-1.522.568 5 5 0 0 1-.928.531c-1.416.643-5.315 4.034-5.315 4.624a2.1 2.1 0 0 1-.391.605 4.7 4.7 0 0 0-.62 1.068 6 6 0 0 1-.535 1.036 4.87 4.87 0 0 0-.587 2.561c.154.608 5.219 5.868 8.548 8.877.882.8 1.87 1.706 2.195 2.02a15 15 0 0 0 1.182 1.012c.325.243.761.594.97.782.984.885 1.555 1.348 3.814 3.089.449.346 1 .8 1.232 1.009a1.54 1.54 0 0 0 .578.38 2.3 2.3 0 0 1 .71.524 5.9 5.9 0 0 0 1.138.826 3.8 3.8 0 0 1 .912.658 1.04 1.04 0 0 0 .547.356.68.68 0 0 1 .436.338c.116.186.3.338.411.338a3.6 3.6 0 0 1 .986.6 7 7 0 0 0 1.153.745 3.4 3.4 0 0 1 .7.413 18.5 18.5 0 0 0 2.883 1.787.7.7 0 0 1 .42.266 4.6 4.6 0 0 0 1.056.69 9 9 0 0 1 1.023.584 22 22 0 0 0 2.624 1.414 9.4 9.4 0 0 1 1.316.759 2.6 2.6 0 0 0 .877.42 2.1 2.1 0 0 1 .828.433 4 4 0 0 0 1.162.6 5 5 0 0 1 1.211.591 3.4 3.4 0 0 0 1.029.485 3.1 3.1 0 0 1 1.018.508 3.2 3.2 0 0 0 1.082.517 4.1 4.1 0 0 1 1.113.479 5 5 0 0 0 1.1.52 12 12 0 0 1 1.435.6 10 10 0 0 0 1.519.6 4.3 4.3 0 0 1 1.157.514 2.8 2.8 0 0 0 1.013.414 6.1 6.1 0 0 1 1.386.512 10.3 10.3 0 0 0 1.768.659 4.5 4.5 0 0 1 1.256.485 3.8 3.8 0 0 0 1.187.431 11 11 0 0 1 1.773.588 11 11 0 0 0 1.846.593 8 8 0 0 1 1.6.522 6.7 6.7 0 0 0 1.639.475 8.6 8.6 0 0 1 1.831.526 8 8 0 0 0 1.684.506 9.6 9.6 0 0 1 2.539.675 10.4 10.4 0 0 0 1.857.418 9.3 9.3 0 0 1 2.044.512 3.5 3.5 0 0 0 1.013.352 11.4 11.4 0 0 1 4.052 2.086 16.4 16.4 0 0 1 5.626 7.55 14 14 0 0 0 .5 1.351c.636 1.434.553 6.874-.127 8.375a13 13 0 0 0-.529 1.416 18 18 0 0 1-1.885 3.554 17.4 17.4 0 0 1-7.623 5.758 5 5 0 0 0-1.073.415c-.628.512-26.705.657-30.366.169l-3.123-.416a169 169 0 0 0-3.714-.446 19 19 0 0 1-2.532-.419 18 18 0 0 0-2.195-.421c-.789-.1-1.891-.309-2.448-.453s-1.811-.435-2.785-.646a23 23 0 0 1-2.261-.579 19 19 0 0 0-1.951-.522 11.5 11.5 0 0 1-1.96-.585 4.4 4.4 0 0 0-1.088-.358 11.7 11.7 0 0 1-2.448-.743 5.4 5.4 0 0 0-1.013-.343 14 14 0 0 1-1.688-.6 10 10 0 0 0-1.348-.492 33 33 0 0 1-4.163-1.713 4 4 0 0 0-1.022-.406 4.5 4.5 0 0 1-1.072-.4c-.46-.222-1.595-.757-2.523-1.188s-1.8-.853-1.941-.937-1.013-.541-1.941-1.015-2.22-1.162-2.87-1.527-1.613-.891-2.14-1.169a5 5 0 0 1-1.065-.677 3 3 0 0 0-.856-.514c-.412-.188-.75-.407-.75-.487s-.285-.281-.633-.446a20 20 0 0 1-2.743-1.774 2.6 2.6 0 0 0-.535-.344 84 84 0 0 1-6.889-5.018c-.232-.2-.916-.756-1.519-1.229a69 69 0 0 1-3.386-2.858l-1.684-1.519c-1.57-1.416-4.683-4.513-6.853-6.818-1.657-1.76-1.727-1.812-2.287-1.707-.89.167-2.815 1.874-3.9 3.46a8 8 0 0 1-.635.844 4.8 4.8 0 0 0-.482.922 6 6 0 0 1-.6 1.1 4.8 4.8 0 0 0-.508 1.272 17 17 0 0 1-.568 1.688c-.355.834-.545 18.38-.2 18.722.127.128 2.484.2 7.557.235 8.548.057 7.974-.064 7.974 1.685 0 1.7-1.029 3.89-2.766 5.876a10.1 10.1 0 0 1-3.443 2.427c-.395.126-.717.283-.717.35 0 .812-12.593.887-14.178.084a10 10 0 0 0-1.5-.483 7.8 7.8 0 0 1-1.656-.613 2.7 2.7 0 0 0-.786-.348 21.6 21.6 0 0 1-2.9-1.637 71 71 0 0 0-.844-.635 18 18 0 0 1-2.139-1.888 19.1 19.1 0 0 1-3.179-4.019 1.8 1.8 0 0 0-.422-.7 2.2 2.2 0 0 1-.422-.623 11 11 0 0 0-.591-1.35 7.2 7.2 0 0 1-.591-1.485 9 9 0 0 0-.421-1.472c-.926-2.65-.976-14.322-.074-17.106a17 17 0 0 0 .516-2.09 8.6 8.6 0 0 1 .56-1.857 8.4 8.4 0 0 0 .52-1.435 4 4 0 0 1 .526-1.179 2.3 2.3 0 0 0 .4-.863 2.3 2.3 0 0 1 .391-.852 15 15 0 0 0 .79-1.376 4.7 4.7 0 0 1 .706-1.077.9.9 0 0 0 .307-.466 14.3 14.3 0 0 1 1.941-2.719 33.1 33.1 0 0 1 8.638-7.276c1.218-.637 1.338-1.25.488-2.484a4.3 4.3 0 0 1-.6-1.07 1.8 1.8 0 0 0-.391-.674 4.7 4.7 0 0 1-.619-1.068 4 4 0 0 0-.436-.844c-.115-.139-.633-1.08-1.152-2.091s-1.01-1.922-1.09-2.026a6.3 6.3 0 0 1-.461-1.032 4.6 4.6 0 0 0-.614-1.171 1.1 1.1 0 0 1-.3-.57 5.8 5.8 0 0 0-.527-1.277 13.6 13.6 0 0 1-.766-1.835c-.132-.441-.3-.8-.375-.8a2.8 2.8 0 0 1-.446-1.055 7 7 0 0 0-.617-1.5 6.2 6.2 0 0 1-.579-1.511 6.6 6.6 0 0 0-.51-1.427 6.2 6.2 0 0 1-.5-1.359 11 11 0 0 0-.586-1.678 7.8 7.8 0 0 1-.5-1.587 6.7 6.7 0 0 0-.436-1.429 11.3 11.3 0 0 1-.569-1.968 11 11 0 0 0-.577-1.971 10.6 10.6 0 0 1-.534-2.184 12 12 0 0 0-.528-2.232 7.7 7.7 0 0 1-.417-1.773 36 36 0 0 0-.728-3.985 29 29 0 0 1-.428-3.039c-.1-1.068-.25-2.359-.343-2.87a44.5 44.5 0 0 1-.666-7.934c-.393-11.1-.18-24.838.4-25.989.12-.237.388-.914.6-1.5a9 9 0 0 1 .782-1.67 2.8 2.8 0 0 0 .4-.75c0-.685 4.674-5.37 5.357-5.37a5.8 5.8 0 0 0 1.058-.591 4 4 0 0 1 1.213-.591 5.3 5.3 0 0 0 1.272-.452c1.4-.65 3.819-.844 7.222-.58"/><path fill="#faba04" d="M150.258 113.706a52 52 0 0 1-5.518.68 7.8 7.8 0 0 0-2.7.474 4.95 4.95 0 0 1-2.232.713 2.4 2.4 0 0 0-1.1.427 3.4 3.4 0 0 1-1.175.54 3.2 3.2 0 0 0-1.2.59 2.2 2.2 0 0 1-.989.485 1.4 1.4 0 0 0-.869.5 1.3 1.3 0 0 1-.736.479 2.9 2.9 0 0 0-1.049.588 3.5 3.5 0 0 1-.934.606.79.79 0 0 0-.473.436.75.75 0 0 1-.439.428 36.3 36.3 0 0 0-4.95 4.924.8.8 0 0 1-.443.475.46.46 0 0 0-.329.379 1.6 1.6 0 0 1-.46.755 4.1 4.1 0 0 0-.72 1.191 1.67 1.67 0 0 1-.644.874c-.207.092-.377.26-.377.374 0 .279-.64.605-1 .511-.222-.058-.292.03-.292.368a4.3 4.3 0 0 1-.47 1.37 28 28 0 0 0-2.044 6.158c-.155.743-.356 1.654-.447 2.026s-.215 5.021-.276 10.332c-.087 7.575-.158 9.7-.33 9.876s-2.314.243-9.96.328c-5.358.06-10.045.183-10.416.273s-1.245.292-1.941.449a33.3 33.3 0 0 0-5.776 1.91.9.9 0 0 1-.717.173c-.388-.074-.428-.03-.428.473a1.35 1.35 0 0 1-1.278 1.255.5.5 0 0 0-.49.321 2.3 2.3 0 0 1-1.392.861 2 2 0 0 0-.639.506 1.6 1.6 0 0 1-.764.506c-.153 0-.365.19-.471.422s-.32.422-.476.422a33.5 33.5 0 0 0-4.867 4.878.76.76 0 0 1-.436.442.83.83 0 0 0-.441.555 1.6 1.6 0 0 1-.487.745 2.9 2.9 0 0 0-.66 1.008 2.54 2.54 0 0 1-.591.928 1.5 1.5 0 0 0-.42.828 2.2 2.2 0 0 1-.484.983 3.2 3.2 0 0 0-.59 1.2 3.5 3.5 0 0 1-.528 1.173 3.6 3.6 0 0 0-.486 1.381 9.3 9.3 0 0 1-.593 1.941 6.7 6.7 0 0 0-.524 2.618 59 59 0 0 1-.377 3.63 28.4 28.4 0 0 0-.239 6.889c.345 2 .69 4.677.69 5.349a2.03 2.03 0 0 0 .415 1.225 4.6 4.6 0 0 1 .611 1.508 2.3 2.3 0 0 0 .5 1.159 2 2 0 0 1 .51.846 4.1 4.1 0 0 0 .688 1.187 2 2 0 0 1 .482.805c0 .138.19.338.422.444s.422.289.422.406a13.9 13.9 0 0 0 2.673 2.77c.1 0 .336.228.535.506a1.16 1.16 0 0 0 .658.506 1.22 1.22 0 0 1 .669.4 3 3 0 0 0 1.055.622 2.1 2.1 0 0 1 .891.524 2.15 2.15 0 0 0 1.043.484 5.2 5.2 0 0 1 1.431.577 5.35 5.35 0 0 0 2.448.591c1.018.109 2.268.265 2.779.346a47.6 47.6 0 0 0 7.344 0c.464-.079 1.437-.233 2.162-.343a2.85 2.85 0 0 0 1.726-.607 2.13 2.13 0 0 1 .914-.509.81.81 0 0 0 .607-.42 1.24 1.24 0 0 1 .563-.558 1.7 1.7 0 0 0 .66-.674c.109-.239.312-.435.452-.435s.3-.209.366-.464a3.7 3.7 0 0 1 .594-1.08 2.2 2.2 0 0 0 .482-.958 8 8 0 0 1 .2-1.2 1.87 1.87 0 0 0 .008-1.27l-.189-.416-7.056-.051c-7.749-.056-7.62-.038-7.964-1.1-.663-2.041.034-20.2.8-20.945a3 3 0 0 0 .52-1.093 2.6 2.6 0 0 1 .472-1.011 3.4 3.4 0 0 0 .577-.963 5.4 5.4 0 0 1 1.538-2.039 3.9 3.9 0 0 0 .678-.886.44.44 0 0 1 .353-.3c.136 0 .409-.228.607-.506a1.7 1.7 0 0 1 .765-.608.75.75 0 0 0 .5-.407c.123-.388.4-.492 1.674-.618a4.1 4.1 0 0 0 1.213-.248 19 19 0 0 1 2.026-.779l1.839-.633h29.225l.581.483c.319.265.885.76 1.256 1.1a48 48 0 0 0 3.8 3.114c.6.436 1.175.857 1.27.933s.4.284.675.46.958.665 1.515 1.086 1.351.984 1.764 1.252.831.555.928.639.785.506 1.528.938a16 16 0 0 1 1.435.9 6 6 0 0 0 .844.536c.418.235 1.253.712 1.857 1.059 2.813 1.621 10.157 5.318 10.567 5.318a10 10 0 0 1 1.192.506 7.5 7.5 0 0 0 1.248.506 4 4 0 0 1 .886.351 15 15 0 0 0 1.659.662c.522.171 1.32.461 1.773.646a15 15 0 0 0 1.667.546 8 8 0 0 1 1.347.463 12 12 0 0 0 1.795.565 17 17 0 0 1 1.885.561 14 14 0 0 0 1.919.516 20 20 0 0 1 2 .5 19 19 0 0 0 2.363.505c.928.147 2.076.377 2.551.511s2.146.393 3.714.575 3.611.453 4.54.6a18.4 18.4 0 0 0 2.951.219c1.4-.056 1.243.094 1.685-1.6a2.8 2.8 0 0 1 .4-.928 6 6 0 0 0 .548-.759 6.3 6.3 0 0 1 1.346-1.266l1.009-.725h4.254l.813.633a6 6 0 0 0 .912.634c.311 0 1.562 2.247 1.685 3.024.186 1.177-.1 1.1 4.547 1.2 5.317.108 4.977.355 4.448-3.235a7.2 7.2 0 0 0-.56-2.279 2.5 2.5 0 0 1-.652-1.322 3.1 3.1 0 0 0-.591-1.048 3.9 3.9 0 0 1-.591-.936c0-.089-.19-.312-.422-.494a1.07 1.07 0 0 1-.422-.577c0-.134-.181-.327-.4-.428a1.37 1.37 0 0 1-.587-.587c-.1-.222-.3-.4-.436-.4s-.42-.228-.626-.506a1.2 1.2 0 0 0-.654-.506 1.05 1.05 0 0 1-.6-.355 2.7 2.7 0 0 0-1.521-.827 1.9 1.9 0 0 1-.81-.393 4.2 4.2 0 0 0-1.935-.59 6.8 6.8 0 0 1-1.941-.52 4.6 4.6 0 0 0-1.541-.433c-1.539-.165-2.6-.436-2.751-.7a3.1 3.1 0 0 0-1.532-.412c-1.289-.162-1.984-.384-2.229-.714a5.4 5.4 0 0 0-1.382-.354 6.1 6.1 0 0 1-1.761-.543 5.4 5.4 0 0 0-1.605-.515 5 5 0 0 1-1.622-.545 3.4 3.4 0 0 0-1.232-.461 5.8 5.8 0 0 1-1.586-.577 5.9 5.9 0 0 0-1.658-.582 2.4 2.4 0 0 1-1.114-.416 3.2 3.2 0 0 0-1.753-.688 2 2 0 0 1-.892-.422 2 2 0 0 0-.881-.422 3.3 3.3 0 0 1-1.7-.732 1.7 1.7 0 0 0-.825-.362c-.731-.137-1.562-.539-1.562-.755 0-.084-.422-.246-.938-.362a2.04 2.04 0 0 1-1.091-.495 1.9 1.9 0 0 0-.961-.5 3.6 3.6 0 0 1-1.231-.6 2.5 2.5 0 0 0-.975-.5 2.8 2.8 0 0 1-1.017-.507 3.7 3.7 0 0 0-1.181-.584 1.83 1.83 0 0 1-.924-.528 1.72 1.72 0 0 0-.883-.514 3.1 3.1 0 0 1-1.1-.566 3.4 3.4 0 0 0-1.055-.589 1.97 1.97 0 0 1-.844-.5 1.3 1.3 0 0 0-.663-.409 2.9 2.9 0 0 1-.93-.514 5 5 0 0 0-1.1-.661 1.86 1.86 0 0 1-.795-.588 1.1 1.1 0 0 0-.675-.43 2.9 2.9 0 0 1-1.061-.593 2.7 2.7 0 0 0-.9-.557.8.8 0 0 1-.5-.428.96.96 0 0 0-.637-.46 2.2 2.2 0 0 1-.92-.539 3 3 0 0 0-.936-.615 1.18 1.18 0 0 1-.646-.573.57.57 0 0 0-.487-.4 1.3 1.3 0 0 1-.722-.39 8 8 0 0 0-1.1-.846 2.25 2.25 0 0 1-.717-.592c0-.074-.266-.262-.591-.417s-.591-.4-.591-.542-.206-.3-.5-.36a.81.81 0 0 1-.6-.418 1.05 1.05 0 0 0-.455-.507 29 29 0 0 1-3.484-2.849 4.3 4.3 0 0 0-.781-.594 1.3 1.3 0 0 1-.5-.539.92.92 0 0 0-.538-.462.74.74 0 0 1-.482-.433 1.3 1.3 0 0 0-.59-.589 1.3 1.3 0 0 1-.585-.572.78.78 0 0 0-.516-.426.72.72 0 0 1-.515-.509.72.72 0 0 0-.515-.509.95.95 0 0 1-.578-.537.91.91 0 0 0-.507-.523 1.2 1.2 0 0 1-.587-.562 1.28 1.28 0 0 0-.584-.581.77.77 0 0 1-.438-.5.72.72 0 0 0-.5-.5.72.72 0 0 1-.5-.5 1.02 1.02 0 0 0-.512-.586 1.25 1.25 0 0 1-.568-.6.94.94 0 0 0-.495-.517.74.74 0 0 1-.437-.417 3 3 0 0 0-.577-.81 1.945 1.945 0 0 1 .014-2.366 3.8 3.8 0 0 0 .479-1.14 3.1 3.1 0 0 1 .617-1.216 1.23 1.23 0 0 0 .392-.7 1.9 1.9 0 0 1 .525-.89 4 4 0 0 0 .672-.949 1.1 1.1 0 0 1 .572-.549.58.58 0 0 0 .425-.5c0-.223.149-.376.434-.448a.94.94 0 0 0 .593-.525 1.26 1.26 0 0 1 .663-.606 1.07 1.07 0 0 0 .588-.451 1.7 1.7 0 0 1 .8-.568 4.6 4.6 0 0 0 1.056-.621 3.5 3.5 0 0 1 1.182-.533 3.5 3.5 0 0 0 1.169-.515c.811-.734 18.458-1.431 20.559-.812 1.211.357 1.147-.079 1.147 7.842v7.136l.452.206a5.53 5.53 0 0 0 3.6-.664 7 7 0 0 1 1.14-.578c.209-.063.38-.215.38-.339s.266-.382.591-.574.591-.467.591-.611.19-.349.422-.455a.65.65 0 0 0 .422-.549 2.1 2.1 0 0 1 .487-.948 3.3 3.3 0 0 0 .669-1.684c.1-.6.3-1.625.441-2.275a26 26 0 0 0 0-7.259 51 51 0 0 1-.447-3.118c-.141-1.287-.279-1.859-.5-2.1a3.5 3.5 0 0 1-.645-1.83 1.2 1.2 0 0 0-.423-.663 1.2 1.2 0 0 1-.422-.664.52.52 0 0 0-.169-.4.47.47 0 0 1-.169-.365 1 1 0 0 0-.4-.576 1.6 1.6 0 0 1-.5-.8.7.7 0 0 0-.444-.58.75.75 0 0 1-.461-.4 14.9 14.9 0 0 0-2.742-2.759c-.1 0-.3-.19-.451-.422s-.384-.422-.516-.422a1.56 1.56 0 0 1-.7-.467 3.5 3.5 0 0 0-1.188-.707 2.26 2.26 0 0 1-.934-.531 1.6 1.6 0 0 0-.874-.41 5.4 5.4 0 0 1-1.429-.555 6.2 6.2 0 0 0-2.532-.645 91 91 0 0 1-3.376-.469 31 31 0 0 0-5.923-.2"/><path fill="#f8d079" d="M85.445 71.386a12 12 0 0 0-1.6.376 15 15 0 0 1-1.89.427 2.5 2.5 0 0 0-1.277.489 3.7 3.7 0 0 1-1.148.611 2.2 2.2 0 0 0-.884.46 1.9 1.9 0 0 1-.615.466 16.3 16.3 0 0 0-2.88 2.632 2.2 2.2 0 0 1-.464.636 5.6 5.6 0 0 0-1.418 2.142 2.9 2.9 0 0 1-.558 1.016 2.4 2.4 0 0 0-.512 1.36 15 15 0 0 1-.461 2.064c-.621 2.037-.6 20.307.034 25.862.09.789.27 3.068.4 5.065a33 33 0 0 0 .437 4.136 16 16 0 0 1 .68 3.879 13.4 13.4 0 0 0 .489 2.59 13.6 13.6 0 0 1 .517 2.394 11 11 0 0 0 .529 2.314 9.5 9.5 0 0 1 .506 1.941 9.8 9.8 0 0 0 .586 2.107 7.5 7.5 0 0 1 .514 1.773 6 6 0 0 0 .511 1.659 7.3 7.3 0 0 1 .566 1.663 6.6 6.6 0 0 0 .5 1.517 5.8 5.8 0 0 1 .69 2.083 1.23 1.23 0 0 0 .328.672 3.2 3.2 0 0 1 .513 1.217 5.2 5.2 0 0 0 .589 1.476 4.1 4.1 0 0 1 .522 1.266 2.9 2.9 0 0 0 .247.823 5.4 5.4 0 0 1 .84 1.745 2.16 2.16 0 0 0 .427.879 4.9 4.9 0 0 1 .628 1.257 3.1 3.1 0 0 0 .5 1.008 2.7 2.7 0 0 1 .466.928 4.8 4.8 0 0 0 .563 1.189 6 6 0 0 1 .608 1.224c.114.348.273.633.355.633.151 0 .557.8.753 1.477.06.209.179.38.263.38a3.3 3.3 0 0 1 .836 1.579.41.41 0 0 0 .261.342 1.56 1.56 0 0 1 .522.735c.515 1.253 1.565 1.941 2.057 1.347a33.4 33.4 0 0 1 5.77-1.906c.7-.157 1.57-.36 1.941-.45s5.059-.213 10.416-.273c7.646-.086 9.788-.157 9.96-.328s.243-2.3.33-9.876c.061-5.311.185-9.961.276-10.332s.292-1.283.447-2.026.387-1.692.516-2.11a26.4 26.4 0 0 1 1.317-3.61c.925-1.451.869-2.352-.225-3.6a2.95 2.95 0 0 1-.612-1.073.8.8 0 0 0-.389-.58 1.33 1.33 0 0 1-.512-.759 2.95 2.95 0 0 0-.617-1.039 1.25 1.25 0 0 1-.4-.578 4.2 4.2 0 0 0-.591-1.064 5 5 0 0 1-.591-1 3.3 3.3 0 0 0-.5-.806 3.7 3.7 0 0 1-.61-1.216 1.42 1.42 0 0 0-.4-.76 2.7 2.7 0 0 1-.583-.957 7.4 7.4 0 0 0-.593-1.182 6.3 6.3 0 0 1-.531-1.023 3.6 3.6 0 0 0-.537-.92 2.5 2.5 0 0 1-.454-.876 4.1 4.1 0 0 0-.567-1.107 3.3 3.3 0 0 1-.525-1.142 2.2 2.2 0 0 0-.428-.928 4 4 0 0 1-.595-1.173 6.4 6.4 0 0 0-.577-1.266 5 5 0 0 1-.517-1.2 3.8 3.8 0 0 0-.425-1.013 5 5 0 0 1-.675-1.726 3.8 3.8 0 0 0-.5-1.049 4 4 0 0 1-.519-1.4 2.6 2.6 0 0 0-.435-1.149 3.9 3.9 0 0 1-.547-1.361 6 6 0 0 0-.535-1.476 6 6 0 0 1-.531-1.575 5.3 5.3 0 0 0-.4-1.326 9 9 0 0 1-.758-2.609 2.7 2.7 0 0 0-.33-1.013 5.4 5.4 0 0 1-.687-2.363 5.8 5.8 0 0 0-.441-1.57 8.1 8.1 0 0 1-.507-2.026 11.4 11.4 0 0 0-.523-2.229 15 15 0 0 1-.573-1.835 5.3 5.3 0 0 0-.541-1.435 5 5 0 0 1-.5-1.02 4.8 4.8 0 0 0-.617-1.129 2.4 2.4 0 0 1-.421-.708 22 22 0 0 0-3.636-3.845 3.3 3.3 0 0 1-.727-.619.76.76 0 0 0-.52-.3 3 3 0 0 1-1.045-.492 4.3 4.3 0 0 0-1.591-.606 18 18 0 0 1-1.941-.42 14.2 14.2 0 0 0-4.22-.387"/><path fill="#9b731b" d="M84.011 70.753a7.3 7.3 0 0 0-2.157.566 5.3 5.3 0 0 1-1.272.452 4 4 0 0 0-1.213.591 5.8 5.8 0 0 1-1.058.591c-.682 0-5.357 4.685-5.357 5.37a2.8 2.8 0 0 1-.4.75 9 9 0 0 0-.782 1.67c-.207.59-.475 1.267-.6 1.5-.583 1.151-.8 14.885-.4 25.989a44.5 44.5 0 0 0 .666 7.934c.093.511.247 1.8.343 2.87a29 29 0 0 0 .428 3.039 36 36 0 0 1 .728 3.985 7.7 7.7 0 0 0 .417 1.773 12 12 0 0 1 .528 2.232 10.6 10.6 0 0 0 .534 2.184 11 11 0 0 1 .577 1.971 11.3 11.3 0 0 0 .566 1.975 6.7 6.7 0 0 1 .436 1.429 7.8 7.8 0 0 0 .5 1.587 11 11 0 0 1 .586 1.678 6.2 6.2 0 0 0 .5 1.359 6.6 6.6 0 0 1 .51 1.427 6.2 6.2 0 0 0 .579 1.511 7 7 0 0 1 .617 1.5 2.8 2.8 0 0 0 .446 1.055c.074 0 .243.361.375.8a13.6 13.6 0 0 0 .766 1.835 5.8 5.8 0 0 1 .527 1.277 1.1 1.1 0 0 0 .3.57 4.6 4.6 0 0 1 .614 1.171 6.3 6.3 0 0 0 .461 1.032c.081.1.571 1.015 1.09 2.026s1.037 1.952 1.152 2.091a4 4 0 0 1 .436.844 4.7 4.7 0 0 0 .619 1.068 1.8 1.8 0 0 1 .391.674 4.3 4.3 0 0 0 .6 1.07c.85 1.234.73 1.846-.488 2.484a33.1 33.1 0 0 0-8.638 7.276 14.3 14.3 0 0 0-1.941 2.719.9.9 0 0 1-.307.466 4.7 4.7 0 0 0-.706 1.077 15 15 0 0 1-.79 1.376 2.3 2.3 0 0 0-.391.852 2.3 2.3 0 0 1-.4.863 4 4 0 0 0-.526 1.179 8.4 8.4 0 0 1-.52 1.435 8.6 8.6 0 0 0-.56 1.857 17 17 0 0 1-.516 2.09c-.9 2.784-.852 14.456.074 17.106a9 9 0 0 1 .421 1.472 7.2 7.2 0 0 0 .591 1.485 11 11 0 0 1 .591 1.35 2.2 2.2 0 0 0 .422.622 1.8 1.8 0 0 1 .422.7 19.1 19.1 0 0 0 3.179 4.019 18 18 0 0 0 2.139 1.888c.371.276.751.562.844.635a21.6 21.6 0 0 0 2.9 1.637 2.7 2.7 0 0 1 .786.348 7.8 7.8 0 0 0 1.656.613 10 10 0 0 1 1.5.483c1.585.8 14.178.728 14.178-.084 0-.067.323-.224.717-.35 2.917-.929 6.2-5.33 6.2-8.3 0-1.749.574-1.628-7.974-1.685-5.073-.034-7.43-.107-7.557-.235-.342-.342-.152-17.888.2-18.722a17 17 0 0 0 .568-1.688 4.8 4.8 0 0 1 .508-1.272 6 6 0 0 0 .6-1.1 4.8 4.8 0 0 1 .482-.922 8 8 0 0 0 .635-.844c1.086-1.586 3.012-3.293 3.9-3.46.56-.105.631-.053 2.287 1.707 2.17 2.3 5.282 5.4 6.853 6.818l1.684 1.519c1.04.94 2.348 2.044 3.386 2.858.6.473 1.287 1.026 1.519 1.229a84 84 0 0 0 6.893 5.013 2.6 2.6 0 0 1 .535.344 20 20 0 0 0 2.743 1.774c.348.165.633.365.633.446s.337.3.75.487a3 3 0 0 1 .856.514 5 5 0 0 0 1.065.677c.527.277 1.49.8 2.14 1.169s1.941 1.052 2.87 1.527 1.8.931 1.941 1.015 1.013.506 1.941.937 2.064.966 2.523 1.188a4.5 4.5 0 0 0 1.072.4 4 4 0 0 1 1.022.406 33 33 0 0 0 4.163 1.713 10 10 0 0 1 1.348.492 14 14 0 0 0 1.688.6 5.4 5.4 0 0 1 1.013.343 11.7 11.7 0 0 0 2.448.743 4.4 4.4 0 0 1 1.088.358 11.5 11.5 0 0 0 1.96.585 19 19 0 0 1 1.951.522 23 23 0 0 0 2.261.579c.975.211 2.228.5 2.785.646s1.659.349 2.448.453a18 18 0 0 1 2.195.421 19 19 0 0 0 2.532.419c.975.1 2.646.3 3.714.446l3.123.416c3.66.487 29.738.342 30.366-.169a5 5 0 0 1 1.073-.415 17.4 17.4 0 0 0 7.623-5.758 18 18 0 0 0 1.885-3.554 13 13 0 0 1 .529-1.416c.68-1.5.763-6.941.127-8.375a14 14 0 0 1-.5-1.351 16.4 16.4 0 0 0-5.632-7.522 11.4 11.4 0 0 0-4.052-2.086 3.5 3.5 0 0 1-1.013-.352 9.3 9.3 0 0 0-2.044-.512 10.4 10.4 0 0 1-1.857-.418 9.6 9.6 0 0 0-2.539-.675 8 8 0 0 1-1.684-.506 8.6 8.6 0 0 0-1.831-.526 6.7 6.7 0 0 1-1.639-.475 8 8 0 0 0-1.6-.522 11 11 0 0 1-1.846-.593 11 11 0 0 0-1.773-.588 3.8 3.8 0 0 1-1.187-.431 4.5 4.5 0 0 0-1.256-.485 10.3 10.3 0 0 1-1.768-.659 6.1 6.1 0 0 0-1.386-.512 2.8 2.8 0 0 1-1.013-.414 4.3 4.3 0 0 0-1.157-.514 10 10 0 0 1-1.519-.6 12 12 0 0 0-1.435-.6 5 5 0 0 1-1.1-.52 4.1 4.1 0 0 0-1.113-.479 3.2 3.2 0 0 1-1.082-.517 3.1 3.1 0 0 0-1.018-.508 3.4 3.4 0 0 1-1.029-.485 5 5 0 0 0-1.211-.591 4 4 0 0 1-1.162-.6 2.1 2.1 0 0 0-.828-.433 2.6 2.6 0 0 1-.877-.42 9.4 9.4 0 0 0-1.316-.759 22 22 0 0 1-2.624-1.414 9 9 0 0 0-1.023-.584 4.6 4.6 0 0 1-1.056-.69.7.7 0 0 0-.42-.266 18.5 18.5 0 0 1-2.883-1.787 3.4 3.4 0 0 0-.7-.413 7 7 0 0 1-1.153-.745 3.6 3.6 0 0 0-.986-.6c-.11 0-.295-.152-.411-.338a.68.68 0 0 0-.436-.338 1.04 1.04 0 0 1-.547-.356 3.8 3.8 0 0 0-.912-.658 5.9 5.9 0 0 1-1.138-.826 2.3 2.3 0 0 0-.71-.524 1.54 1.54 0 0 1-.578-.38 24 24 0 0 0-1.232-1.009c-2.259-1.741-2.83-2.2-3.814-3.089a17 17 0 0 0-.97-.782 15 15 0 0 1-1.182-1.012 132 132 0 0 0-2.195-2.02c-3.329-3.009-8.394-8.27-8.548-8.877a4.87 4.87 0 0 1 .587-2.561 6 6 0 0 0 .535-1.036 4.7 4.7 0 0 1 .62-1.068 2.1 2.1 0 0 0 .391-.605c0-.59 3.9-3.982 5.315-4.624a5 5 0 0 0 .928-.531 6.2 6.2 0 0 1 1.522-.568c.7-.188 1.681-.462 2.189-.609 1.074-.311 17.422-.4 17.9-.1.217.138.26 1.2.306 7.55.061 8.658-.075 8.057 1.8 7.951a10.59 10.59 0 0 0 8.02-5.7 4.6 4.6 0 0 1 .42-1.042c.98-1.952 1.1-12.4.162-14.406a12 12 0 0 1-.51-1.6 8 8 0 0 0-.569-1.6 9 9 0 0 1-.52-1.1 4.6 4.6 0 0 0-.617-1.068 1.8 1.8 0 0 1-.391-.66c0-.64-3.807-4.8-5.329-5.82a5 5 0 0 1-.754-.579 2.4 2.4 0 0 0-.689-.383 2.6 2.6 0 0 1-.809-.5 3.1 3.1 0 0 0-1-.545 4.9 4.9 0 0 1-1.042-.5 7.2 7.2 0 0 0-1.6-.574 9.5 9.5 0 0 1-1.519-.494c-1.122-.866-14.47-.879-17.139-.017-.6.195-1.621.463-2.26.6a6.6 6.6 0 0 0-1.519.471 5.7 5.7 0 0 1-1.2.455 5.8 5.8 0 0 0-1.432.62 2.3 2.3 0 0 1-.85.393 4.2 4.2 0 0 0-1.179.591 5 5 0 0 1-1.1.591 2.4 2.4 0 0 0-.765.5 2.6 2.6 0 0 1-.757.506 16 16 0 0 0-2.706 1.948 45 45 0 0 0-3.959 3.905c-.139.2-.679.882-1.2 1.521a15 15 0 0 0-1.212 1.666 7 7 0 0 1-.782 1.1l-.516.591-.514-.591a8 8 0 0 1-.861-1.245 14 14 0 0 0-.839-1.334 2.9 2.9 0 0 1-.493-.887.7.7 0 0 0-.263-.425 2.5 2.5 0 0 1-.5-.8 5 5 0 0 0-.666-1.081 1.85 1.85 0 0 1-.424-.726 4 4 0 0 0-.591-1.08 3.9 3.9 0 0 1-.591-1.093 2.3 2.3 0 0 0-.386-.806 7.3 7.3 0 0 1-.618-1.163 4 4 0 0 0-.522-.928 3.3 3.3 0 0 1-.487-.953 3.8 3.8 0 0 0-.612-1.1 2.6 2.6 0 0 1-.516-1.02 1.7 1.7 0 0 0-.422-.828.97.97 0 0 1-.321-.456 11.5 11.5 0 0 0-.652-1.535c-.359-.753-.743-1.649-.853-1.989a2.2 2.2 0 0 0-.441-.819 1.67 1.67 0 0 1-.349-.815 6 6 0 0 0-.577-1.46 6.5 6.5 0 0 1-.585-1.4 8.3 8.3 0 0 0-.606-1.519 5 5 0 0 1-.492-1.269 3.4 3.4 0 0 0-.358-1.013 12.6 12.6 0 0 1-.675-1.878 7.8 7.8 0 0 0-.553-1.526 5.3 5.3 0 0 1-.436-1.364 8 8 0 0 0-.532-1.656 9 9 0 0 1-.567-1.887 8.7 8.7 0 0 0-.486-1.721 7.5 7.5 0 0 1-.452-1.573 27 27 0 0 0-.584-2.357 25 25 0 0 1-.593-2.562 5.7 5.7 0 0 0-.5-1.688 4.8 4.8 0 0 1-.5-1.306 4.1 4.1 0 0 0-.528-1.291 6.6 6.6 0 0 1-.653-1.184c-.183-.427-.4-.777-.487-.777s-.246-.22-.357-.489a20.3 20.3 0 0 0-4.705-4.621 5 5 0 0 1-.853-.5 3.9 3.9 0 0 0-1.1-.487 11 11 0 0 1-1.455-.536c-1.15-.529-4.628-.745-7.512-.466m6.033.781c.4.141 1.194.368 1.775.5a7.2 7.2 0 0 1 1.848.75 4.5 4.5 0 0 0 .94.5c1.03 0 4.514 4.025 5.936 6.857a10 10 0 0 1 .773 1.81 5 5 0 0 0 .4 1.175 11.4 11.4 0 0 1 .617 2.411 10.8 10.8 0 0 0 .522 2.18 8 8 0 0 1 .465 1.688 11 11 0 0 0 .441 1.783c.157.418.473 1.479.7 2.359a11 11 0 0 0 .563 1.776 8.5 8.5 0 0 1 .506 1.524 10 10 0 0 0 .567 1.684 6 6 0 0 1 .435 1.266 5.4 5.4 0 0 0 .51 1.351 6.7 6.7 0 0 1 .576 1.505 6.6 6.6 0 0 0 .591 1.519 5 5 0 0 1 .507 1.162 9.5 9.5 0 0 0 .621 1.5 4 4 0 0 1 .413.994 7 7 0 0 0 .593 1.37 6.4 6.4 0 0 1 .591 1.419.96.96 0 0 0 .321.559 2.44 2.44 0 0 1 .5 1.01 3.8 3.8 0 0 0 .49 1.129 25 25 0 0 1 1.229 2.225 33 33 0 0 0 2.129 4.034 5 5 0 0 1 .5.987 4.4 4.4 0 0 0 .606 1.087 1.1 1.1 0 0 1 .3.509 4.6 4.6 0 0 0 .591 1.059 7 7 0 0 1 .591.972 6 6 0 0 0 .549.913c.3.45.679 1.037.839 1.3s.36.6.444.739.242.443.35.675a8 8 0 0 0 .923 1.258l.727.836.723-.751a6.5 6.5 0 0 0 1.05-1.46 1.8 1.8 0 0 1 .447-.717c.069 0 .258-.225.42-.5a5 5 0 0 1 .5-.718c.113-.119.482-.559.82-.977a32.5 32.5 0 0 1 3.771-3.809 68 68 0 0 0 1.34-1.128 1.3 1.3 0 0 1 .442-.3 2.6 2.6 0 0 0 .642-.506 1.9 1.9 0 0 1 .752-.506 2.3 2.3 0 0 0 .8-.431 9.4 9.4 0 0 1 1.257-.755c.371-.178.789-.4.928-.485a24 24 0 0 1 3.546-1.534 9 9 0 0 0 1.351-.506 5.5 5.5 0 0 1 1.435-.41 38 38 0 0 0 3.8-.739 73 73 0 0 1 12.324-.063c.418.119 1.443.372 2.279.562a16.6 16.6 0 0 1 2.617.846c1.026.468 1.3.606 2.617 1.31a25.5 25.5 0 0 1 2.855 2.077 20.4 20.4 0 0 1 5.181 6.711c.191.418.531 1.147.756 1.621a4.3 4.3 0 0 1 .408 1.2 12 12 0 0 0 .461 1.84c.457 1.482.461 1.541.464 6.392v4.9l-.585 1.6a9.4 9.4 0 0 1-.886 1.931 1.1 1.1 0 0 0-.3.524 13.9 13.9 0 0 1-2.508 2.609 2 2 0 0 0-.625.376c-1.1.861-4.512 1.775-4.82 1.289-.08-.126-.147-3.5-.148-7.5 0-7.144-.008-7.276-.356-7.649l-.354-.379-9.4.052-9.4.052-1.242.549a8.7 8.7 0 0 1-1.519.561 2.2 2.2 0 0 0-.784.337 13 13 0 0 1-1.224.657c-.395.183-.717.413-.717.512s-.192.252-.427.341a12.2 12.2 0 0 0-3.551 3.486 5.3 5.3 0 0 1-.7.929c-.781.347-2.09 4.525-1.672 5.334.74 1.432 8.356 8.919 12.89 12.674.3.248.749.66 1 .915a1.6 1.6 0 0 0 .651.464 1.5 1.5 0 0 1 .632.464 11.6 11.6 0 0 0 1.386 1.14c.524.371 1.193.884 1.488 1.14a2 2 0 0 0 .746.464c.115 0 .291.151.39.336a1.9 1.9 0 0 0 .694.6 20 20 0 0 1 2.3 1.6 10 10 0 0 0 .828.536 7.4 7.4 0 0 1 1.04.755 1.45 1.45 0 0 0 .644.39 2.2 2.2 0 0 1 .8.506 2.6 2.6 0 0 0 .724.506 4.7 4.7 0 0 1 .978.591 4 4 0 0 0 1.034.591.62.62 0 0 1 .39.225 4.4 4.4 0 0 0 .991.628 8.7 8.7 0 0 1 1.282.787 1.8 1.8 0 0 0 .687.386 2.8 2.8 0 0 1 .874.5 2.6 2.6 0 0 0 .935.506 2.7 2.7 0 0 1 .928.451 11 11 0 0 0 1.332.752c.371.168.865.415 1.1.549a24 24 0 0 0 3.043 1.461 2.8 2.8 0 0 1 .807.426 5.2 5.2 0 0 0 1.3.608 4.3 4.3 0 0 1 1.152.523 5 5 0 0 0 1.191.555 6.7 6.7 0 0 1 1.3.57 2.5 2.5 0 0 0 .8.356 8.6 8.6 0 0 1 1.481.591 8 8 0 0 0 1.515.591 4.7 4.7 0 0 1 1.172.49 6.7 6.7 0 0 0 1.643.612 3.4 3.4 0 0 1 1.152.424 6 6 0 0 0 1.509.583 11 11 0 0 1 1.681.577 8.6 8.6 0 0 0 1.609.514 5.5 5.5 0 0 1 1.37.454 6.8 6.8 0 0 0 1.593.494 11.7 11.7 0 0 1 1.922.57 11.7 11.7 0 0 0 2.069.571 10 10 0 0 1 1.857.5 8 8 0 0 0 1.661.455c.65.116 1.751.386 2.448.6s1.514.43 1.817.482a13.6 13.6 0 0 1 3.416 1.6 1.94 1.94 0 0 0 .694.522 18 18 0 0 1 3.524 3.483 1.57 1.57 0 0 0 .406.635 3.3 3.3 0 0 1 .6 1.027 4 4 0 0 0 .514 1 5.6 5.6 0 0 1 .6 1.657 11 11 0 0 0 .492 1.671 6.9 6.9 0 0 1 .276 3.208c-.085.418-.308 1.367-.5 2.11s-.4 1.768-.461 2.279a2.8 2.8 0 0 1-.506 1.389 2.7 2.7 0 0 0-.494.948 2.1 2.1 0 0 1-.418.822 4.6 4.6 0 0 0-.569.825c-.444.845-3.627 3.951-4.049 3.951a1.25 1.25 0 0 0-.607.4 1.9 1.9 0 0 1-.85.5 2.65 2.65 0 0 0-.959.5 2.9 2.9 0 0 1-1.332.526c-.464.065-1.627.272-2.582.458-1.879.367-19.1.37-23.331 0-.975-.084-3.558-.242-5.74-.352a42 42 0 0 1-4.3-.344c-.186-.08-.49-.2-.675-.26a30 30 0 0 0-4.267-.586 6.5 6.5 0 0 1-1.688-.346 18.5 18.5 0 0 0-2.739-.6 10.3 10.3 0 0 1-2.363-.571 8 8 0 0 0-2.026-.5 8 8 0 0 1-2.239-.6 6.5 6.5 0 0 0-1.895-.525 2.9 2.9 0 0 1-1.284-.35 5.3 5.3 0 0 0-2.287-.741 2.3 2.3 0 0 1-.967-.4 5.7 5.7 0 0 0-1.653-.623 3.9 3.9 0 0 1-1.39-.526 2.5 2.5 0 0 0-1.1-.41 4.5 4.5 0 0 1-1.512-.59 4.5 4.5 0 0 0-1.472-.589 1.9 1.9 0 0 1-.94-.355 3.3 3.3 0 0 0-1.687-.731.98.98 0 0 1-.612-.344 3 3 0 0 0-1.159-.6 3.15 3.15 0 0 1-1.168-.587 1.9 1.9 0 0 0-.948-.438 2.4 2.4 0 0 1-1.071-.5 3.4 3.4 0 0 0-1.126-.6 3.1 3.1 0 0 1-1.081-.59 2.14 2.14 0 0 0-.859-.493 2.5 2.5 0 0 1-.9-.492 2.4 2.4 0 0 0-.858-.481 3.7 3.7 0 0 1-1.078-.613 2.4 2.4 0 0 0-.915-.51 1.57 1.57 0 0 1-.745-.5 2.3 2.3 0 0 0-1.049-.609.87.87 0 0 1-.672-.41 1.2 1.2 0 0 0-.639-.521 7.3 7.3 0 0 1-1.285-.778 3.2 3.2 0 0 0-.953-.559.38.38 0 0 1-.3-.244 1.46 1.46 0 0 0-.6-.506 5.4 5.4 0 0 1-.975-.7 2.4 2.4 0 0 0-.918-.524.97.97 0 0 1-.632-.49 1.03 1.03 0 0 0-.6-.505 1.36 1.36 0 0 1-.685-.511c-.146-.223-.365-.406-.486-.406a1.4 1.4 0 0 1-.629-.438 4 4 0 0 0-.914-.7 4.3 4.3 0 0 1-.954-.744 1.5 1.5 0 0 0-.693-.482c-.134 0-.327-.183-.428-.407a1.04 1.04 0 0 0-.519-.513 1.43 1.43 0 0 1-.6-.521c-.15-.228-.353-.415-.451-.415a3.3 3.3 0 0 1-.9-.718 16 16 0 0 0-1.272-1.14c-.573-.436-5.681-5.5-7.985-7.912-1.933-2.027-2.611-1.929-5.237.761a12.3 12.3 0 0 0-2.45 3.1 19 19 0 0 1-.676 1.182 2.6 2.6 0 0 0-.373.8 5.4 5.4 0 0 1-.405 1.1c-.695 1.529-.777 2.786-.777 11.886 0 8.563 0 8.567.367 8.957l.367.391h7.216c3.969 0 7.336.046 7.483.1.374.143.35 1.429-.04 2.225a11 11 0 0 0-.539 1.386 4.4 4.4 0 0 1-.621 1.237 2 2 0 0 0-.389.627 14.2 14.2 0 0 1-2.581 2.525 1.2 1.2 0 0 0-.531.31 9.5 9.5 0 0 1-1.952.886l-1.6.577H94.14c-3.917 0-4.886-.048-5.655-.28-.511-.154-1.5-.4-2.195-.556a14 14 0 0 1-3.63-1.4c-1.656-.826-2.11-1.083-2.11-1.193 0-.068-.247-.266-.549-.441a15.7 15.7 0 0 1-2.212-1.746 27 27 0 0 1-2.735-3.2c-.174-.3-.367-.549-.429-.549s-.209-.247-.328-.549a6 6 0 0 0-.612-1.086 2.1 2.1 0 0 1-.4-.76 5.7 5.7 0 0 0-.5-1.207 7.4 7.4 0 0 1-.606-1.6c-.059-.341-.306-1.379-.55-2.307a56.5 56.5 0 0 1-.237-12.408c.1-.511.368-1.97.593-3.242a14.5 14.5 0 0 1 .658-2.7 7.6 7.6 0 0 0 .551-1.485 7 7 0 0 1 .584-1.519 5.6 5.6 0 0 0 .507-1.1 3.6 3.6 0 0 1 .522-1.013 3.2 3.2 0 0 0 .493-.95 2.44 2.44 0 0 1 .512-.9 2.7 2.7 0 0 0 .536-.822 3.4 3.4 0 0 1 .606-.924 1.5 1.5 0 0 0 .385-.517 1.2 1.2 0 0 1 .3-.458c.162-.181.595-.7.96-1.154a32 32 0 0 1 5.5-5.158 3.5 3.5 0 0 0 .726-.631.47.47 0 0 1 .338-.22 2.5 2.5 0 0 0 .784-.38c.32-.209.928-.569 1.351-.8a2.137 2.137 0 0 0 .122-3.461 13 13 0 0 1-1.456-2.514 8 8 0 0 0-.724-1.162 2.1 2.1 0 0 1-.389-.79 3.4 3.4 0 0 0-.511-1.017 4.9 4.9 0 0 1-.6-1.161 3.3 3.3 0 0 0-.483-.943 3.8 3.8 0 0 1-.512-.928 32 32 0 0 0-.787-1.79 11 11 0 0 1-.565-1.324 2 2 0 0 0-.313-.573 3.4 3.4 0 0 1-.434-.955 9 9 0 0 0-.594-1.44 8 8 0 0 1-.595-1.519 4.7 4.7 0 0 0-.44-1.138 8.4 8.4 0 0 1-.592-1.519 7 7 0 0 0-.5-1.318 7.6 7.6 0 0 1-.509-1.519 8 8 0 0 0-.588-1.675 4.2 4.2 0 0 1-.413-1.266 8.2 8.2 0 0 0-.712-2.324 10.3 10.3 0 0 1-.457-1.773 9.6 9.6 0 0 0-.486-1.812 12.7 12.7 0 0 1-.55-2.271 21 21 0 0 0-.513-2.373 27 27 0 0 1-.577-3.046c-.187-1.295-.45-2.772-.584-3.282a28 28 0 0 1-.43-3.415c-.1-1.368-.261-3.077-.351-3.8s-.25-2.071-.357-3c-.281-2.433-.3-24.739-.021-25.66.112-.371.375-1.321.585-2.11a6.6 6.6 0 0 1 .646-1.723 3.3 3.3 0 0 0 .491-.928 3.6 3.6 0 0 1 .566-1.014 5 5 0 0 0 .529-.7c.788-1.351 4.151-4.418 4.846-4.418a3.3 3.3 0 0 0 .9-.484 5.9 5.9 0 0 1 1.628-.7 14 14 0 0 0 1.546-.463 14.5 14.5 0 0 1 6.919-.111m110.783 126.615a4.43 4.43 0 0 0-2.181 1.864 7 7 0 0 1-.542.918 4.9 4.9 0 0 0-.052 4.366c1.733 2.7 4.838 3.663 7.274 2.255.884-.511 1.849-1.4 1.849-1.7a2.7 2.7 0 0 1 .422-.709 4.95 4.95 0 0 0-.178-4.22 2.2 2.2 0 0 1-.313-.611c-.6-1.969-4.258-3.228-6.279-2.16"/><path fill="#d48d04" d="M84.687 71.255a15 15 0 0 0-1.857.48c-.557.188-1.165.382-1.351.431s.042.046.506-.005a13 13 0 0 0 1.941-.438 11.64 11.64 0 0 1 5.67.018 18 18 0 0 0 2.011.452 4.3 4.3 0 0 1 1.591.606 3.2 3.2 0 0 0 1 .492c.552 0-1.387-1.019-2.383-1.253a22 22 0 0 1-1.775-.5 18.6 18.6 0 0 0-5.358-.28m-4.727 1.538a3 3 0 0 1-.888.493c-.734.019-4.071 3.05-4.871 4.423a5 5 0 0 1-.529.7 3.6 3.6 0 0 0-.566 1.014 3.3 3.3 0 0 1-.527.964 1.1 1.1 0 0 0-.3.524c0 .379.828-.693.991-1.283a5.6 5.6 0 0 1 1.415-2.141 2.2 2.2 0 0 0 .464-.636 16.3 16.3 0 0 1 2.888-2.638 1.9 1.9 0 0 0 .615-.466 2.2 2.2 0 0 1 .884-.46 3.7 3.7 0 0 0 1.164-.626c.593-.55.086-.46-.732.13m14.812.838a1.15 1.15 0 0 0 .519.437 22 22 0 0 1 3.83 3.986 2.4 2.4 0 0 0 .421.708 4.8 4.8 0 0 1 .617 1.129 5 5 0 0 0 .5 1.02 5.3 5.3 0 0 1 .54 1.435c.285 1.222.921 2.674.942 2.151a4.6 4.6 0 0 0-.408-1.313 5.4 5.4 0 0 1-.422-1.224c0-1.052-2.352-4.767-4.149-6.551-1.631-1.62-2.871-2.54-2.394-1.777m-22.879 8.732a79 79 0 0 1-.506 1.814c-.271.9-.26 23.223.013 25.576.29 2.506.7 6.253.769 7.09.036.418.035-.266 0-1.519a69 69 0 0 0-.6-7.175c-.411-3.092-.287-22.363.154-23.972a11 11 0 0 0 .536-2.954 6.3 6.3 0 0 0-.364 1.14m30.289 3.007a8.7 8.7 0 0 0 .616 3.024 5.4 5.4 0 0 1 .4 1.1c.1.462.115.4.051-.276a5 5 0 0 0-.365-1.435 8 8 0 0 1-.482-1.75c-.11-.655-.208-.951-.219-.664m1.172 5.154a3.66 3.66 0 0 0 .585 1.84 2.7 2.7 0 0 1 .328 1.013 10.2 10.2 0 0 0 .818 2.765 4.7 4.7 0 0 1 .367 1.283c.112.813.914 2.386.924 1.812a1.5 1.5 0 0 0-.238-.675 9 9 0 0 1-.6-1.721 8.5 8.5 0 0 0-.506-1.524 11 11 0 0 1-.565-1.776c-.563-2.156-1.1-3.6-1.111-3.018m3.045 9.236a3.8 3.8 0 0 0 .675 1.99c.409.37.423.043.025-.558a5 5 0 0 1-.489-1.049c-.106-.331-.2-.5-.211-.382m1.1 3.071a4.7 4.7 0 0 0 .863 2.09 1.6 1.6 0 0 1 .211.633 3.66 3.66 0 0 0 .652 1.566 2.6 2.6 0 0 1 .368.9 5 5 0 0 0 .523 1.245 6.3 6.3 0 0 1 .581 1.266 4.3 4.3 0 0 0 .576 1.165 2.8 2.8 0 0 1 .406.591c.059.139.063.025.009-.253a2.04 2.04 0 0 0-.423-.855 1.2 1.2 0 0 1-.326-.591 6.8 6.8 0 0 0-.591-1.392 7 7 0 0 1-.59-1.368 4 4 0 0 0-.413-.994 9.5 9.5 0 0 1-.621-1.5 5 5 0 0 0-.5-1.151 6 6 0 0 1-.56-1.266l-.269-.842.1.76m4.283 10.045a2.1 2.1 0 0 0 .439.878 4 4 0 0 1 .59 1.122 2.5 2.5 0 0 0 .454.876 3.6 3.6 0 0 1 .537.92 6.3 6.3 0 0 0 .531 1.023 7.4 7.4 0 0 1 .593 1.182 2.7 2.7 0 0 0 .583.957 1.42 1.42 0 0 1 .4.76 3.7 3.7 0 0 0 .61 1.216 3.3 3.3 0 0 1 .5.806 5 5 0 0 0 .591 1 4.2 4.2 0 0 1 .591 1.064 1.25 1.25 0 0 0 .4.578 2.95 2.95 0 0 1 .617 1.039 1.33 1.33 0 0 0 .512.759.78.78 0 0 1 .386.566 3.6 3.6 0 0 0 .653 1.17c.307.383.677.863.822 1.067a.766.766 0 0 0 1.284-.16.85.85 0 0 1 .444-.457 1.7 1.7 0 0 0 .627-.873 4.1 4.1 0 0 1 .72-1.191 1.6 1.6 0 0 0 .46-.755.46.46 0 0 1 .329-.379.8.8 0 0 0 .443-.475 36.3 36.3 0 0 1 4.95-4.924.75.75 0 0 0 .439-.428.79.79 0 0 1 .473-.436 3.5 3.5 0 0 0 .934-.606 2.9 2.9 0 0 1 1.049-.588 1.3 1.3 0 0 0 .736-.479 1.4 1.4 0 0 1 .869-.5 2.2 2.2 0 0 0 .989-.485 3.2 3.2 0 0 1 1.2-.59 3.4 3.4 0 0 0 1.175-.54 2.4 2.4 0 0 1 1.1-.427 4.95 4.95 0 0 0 2.231-.712 8.3 8.3 0 0 1 2.785-.484c1.372-.127 2.988-.309 3.592-.4a31 31 0 0 1 7.681-.083c.928.153 2.486.371 3.461.485a6.2 6.2 0 0 1 2.532.645 5.4 5.4 0 0 0 1.429.555 1.6 1.6 0 0 1 .874.41 2.26 2.26 0 0 0 .934.531 3.5 3.5 0 0 1 1.188.706 1.56 1.56 0 0 0 .7.467c.132 0 .364.19.516.422s.355.422.451.422a14.9 14.9 0 0 1 2.742 2.759.75.75 0 0 0 .461.4.7.7 0 0 1 .444.58 1.6 1.6 0 0 0 .5.8 1 1 0 0 1 .4.576.47.47 0 0 0 .169.365.52.52 0 0 1 .169.4 1.2 1.2 0 0 0 .422.664 1.2 1.2 0 0 1 .423.663 3.5 3.5 0 0 0 .645 1.83c.226.242.363.814.5 2.1.106.972.308 2.376.447 3.118a26 26 0 0 1 0 7.259c-.143.65-.341 1.674-.441 2.275a3.3 3.3 0 0 1-.669 1.684 2.1 2.1 0 0 0-.487.948.65.65 0 0 1-.422.549c-.232.106-.422.311-.422.455s-.266.42-.591.611-.591.45-.591.574-.171.276-.38.339a7 7 0 0 0-1.14.578 5.53 5.53 0 0 1-3.6.664l-.452-.206v-7.127c0-6.209-.034-7.169-.261-7.4-1.045-1.045-20.248-.717-21.445.366a3.5 3.5 0 0 1-1.169.515 3.5 3.5 0 0 0-1.182.533 4.6 4.6 0 0 1-1.056.621 1.7 1.7 0 0 0-.8.568 1.07 1.07 0 0 1-.588.451 1.26 1.26 0 0 0-.663.606.94.94 0 0 1-.593.525c-.286.072-.434.225-.434.448a.58.58 0 0 1-.425.5 1.1 1.1 0 0 0-.572.549 4 4 0 0 1-.672.949 1.9 1.9 0 0 0-.525.89 1.23 1.23 0 0 1-.393.7 3.1 3.1 0 0 0-.617 1.216 3.8 3.8 0 0 1-.479 1.14 1.945 1.945 0 0 0-.014 2.366 3 3 0 0 1 .577.81.74.74 0 0 0 .437.417.94.94 0 0 1 .495.517 1.25 1.25 0 0 0 .568.6 1.02 1.02 0 0 1 .512.586.72.72 0 0 0 .5.5.72.72 0 0 1 .5.5.77.77 0 0 0 .439.5 1.28 1.28 0 0 1 .584.581 1.2 1.2 0 0 0 .595.569.91.91 0 0 1 .507.523.95.95 0 0 0 .578.537.72.72 0 0 1 .515.509.72.72 0 0 0 .515.509.77.77 0 0 1 .516.426 1.3 1.3 0 0 0 .585.572 1.3 1.3 0 0 1 .59.589.74.74 0 0 0 .482.433.92.92 0 0 1 .538.462 1.3 1.3 0 0 0 .5.539 4.3 4.3 0 0 1 .781.594 29 29 0 0 0 3.484 2.849 1.05 1.05 0 0 1 .455.507.81.81 0 0 0 .6.418c.3.06.5.207.5.36s.266.387.591.542.591.342.591.417a2.25 2.25 0 0 0 .717.592 8 8 0 0 1 1.1.846 1.3 1.3 0 0 0 .722.39.57.57 0 0 1 .487.4 1.18 1.18 0 0 0 .646.573 3 3 0 0 1 .936.615 2.2 2.2 0 0 0 .92.539.96.96 0 0 1 .637.46.8.8 0 0 0 .5.428 2.7 2.7 0 0 1 .9.557 2.9 2.9 0 0 0 1.061.593 1.1 1.1 0 0 1 .675.43 1.86 1.86 0 0 0 .795.588 5 5 0 0 1 1.1.661 2.9 2.9 0 0 0 .93.514 1.3 1.3 0 0 1 .663.409 1.97 1.97 0 0 0 .844.5 3.4 3.4 0 0 1 1.055.589 3.1 3.1 0 0 0 1.1.566 1.72 1.72 0 0 1 .883.514 1.83 1.83 0 0 0 .924.528 3.7 3.7 0 0 1 1.181.584 2.8 2.8 0 0 0 1.017.507 2.5 2.5 0 0 1 .975.5 3.6 3.6 0 0 0 1.231.6 1.9 1.9 0 0 1 .961.5 2.04 2.04 0 0 0 1.091.495c.516.116.938.279.938.362 0 .217.83.618 1.562.755a1.7 1.7 0 0 1 .825.362 3.3 3.3 0 0 0 1.7.732 2 2 0 0 1 .881.422 2 2 0 0 0 .892.422 3.2 3.2 0 0 1 1.753.688 2.4 2.4 0 0 0 1.114.416 5.9 5.9 0 0 1 1.658.582 5.8 5.8 0 0 0 1.586.577 3.4 3.4 0 0 1 1.232.461 5 5 0 0 0 1.622.545 5.4 5.4 0 0 1 1.605.515 6.1 6.1 0 0 0 1.761.543 5.4 5.4 0 0 1 1.382.354c.245.329.939.552 2.229.714a3.1 3.1 0 0 1 1.532.412c.147.263 1.212.533 2.751.7a4.6 4.6 0 0 1 1.541.433 6.8 6.8 0 0 0 1.941.52 4.2 4.2 0 0 1 1.936.59 1.9 1.9 0 0 0 .81.393 2.7 2.7 0 0 1 1.521.827 1.05 1.05 0 0 0 .6.355 1.2 1.2 0 0 1 .654.506c.206.279.487.506.626.506s.334.181.436.4a1.37 1.37 0 0 0 .587.587c.222.1.4.294.4.428a1.07 1.07 0 0 0 .422.577c.232.182.422.4.422.494a3.9 3.9 0 0 0 .591.936 3.1 3.1 0 0 1 .591 1.048 2.5 2.5 0 0 0 .652 1.322 7.2 7.2 0 0 1 .56 2.279c.529 3.59.869 3.343-4.448 3.235-4.649-.094-4.361-.019-4.547-1.2-.123-.777-1.374-3.022-1.685-3.024a6 6 0 0 1-.912-.634l-.813-.633h-4.254l-1.009.725a6.3 6.3 0 0 0-1.346 1.266 6 6 0 0 1-.548.759 2.8 2.8 0 0 0-.4.928c-.442 1.7-.284 1.548-1.685 1.6a18.4 18.4 0 0 1-2.951-.219c-.928-.148-2.971-.419-4.539-.6s-3.24-.441-3.714-.575-1.622-.364-2.551-.511a19 19 0 0 1-2.363-.505 20 20 0 0 0-2-.5 14 14 0 0 1-1.919-.516 17 17 0 0 0-1.885-.561 12 12 0 0 1-1.795-.565 8 8 0 0 0-1.347-.463 15 15 0 0 1-1.667-.546 33 33 0 0 0-1.773-.646 15 15 0 0 1-1.659-.662 4 4 0 0 0-.886-.351 7.5 7.5 0 0 1-1.248-.506 10 10 0 0 0-1.192-.506c-.409 0-7.754-3.7-10.567-5.318-.6-.348-1.439-.825-1.857-1.059a6 6 0 0 1-.844-.536 16 16 0 0 0-1.435-.9c-.743-.433-1.431-.855-1.528-.938s-.516-.371-.928-.639-1.207-.831-1.764-1.252-1.239-.91-1.515-1.086-.58-.383-.675-.46-.667-.5-1.27-.933a48 48 0 0 1-3.8-3.114 50 50 0 0 0-1.256-1.1l-.581-.483h-29.223l-1.839.633a19 19 0 0 0-2.026.779 4.1 4.1 0 0 1-1.213.248c-1.269.126-1.551.23-1.674.618a.75.75 0 0 1-.5.407 1.7 1.7 0 0 0-.765.608c-.2.278-.471.506-.607.506a.44.44 0 0 0-.353.3 3.9 3.9 0 0 1-.678.886 5.4 5.4 0 0 0-1.538 2.039 3.4 3.4 0 0 1-.577.963 2.6 2.6 0 0 0-.472 1.011 3 3 0 0 1-.52 1.093c-.77.75-1.467 18.9-.8 20.945.344 1.057.214 1.04 7.964 1.1l7.056.051.189.416a1.87 1.87 0 0 1-.008 1.27 8 8 0 0 0-.2 1.2 2.2 2.2 0 0 1-.482.958 3.7 3.7 0 0 0-.594 1.08c-.062.255-.227.464-.366.464s-.343.2-.452.435a1.7 1.7 0 0 1-.66.674 1.25 1.25 0 0 0-.563.558.81.81 0 0 1-.607.42 2.13 2.13 0 0 0-.914.509 2.85 2.85 0 0 1-1.726.607c-.725.109-1.7.264-2.162.343a47.6 47.6 0 0 1-7.344 0 70 70 0 0 0-2.779-.346 5.35 5.35 0 0 1-2.448-.591 5.2 5.2 0 0 0-1.431-.577 2.16 2.16 0 0 1-1.043-.484 2.1 2.1 0 0 0-.891-.524 3 3 0 0 1-1.055-.622 1.22 1.22 0 0 0-.669-.4 1.16 1.16 0 0 1-.658-.506c-.2-.279-.439-.506-.535-.506a13.9 13.9 0 0 1-2.673-2.77c0-.118-.19-.3-.422-.406s-.422-.305-.422-.444a2 2 0 0 0-.482-.805 4.1 4.1 0 0 1-.688-1.187 2 2 0 0 0-.51-.846 2.3 2.3 0 0 1-.5-1.159 4.6 4.6 0 0 0-.611-1.508 2.03 2.03 0 0 1-.415-1.225c0-.672-.345-3.346-.69-5.349a28.4 28.4 0 0 1 .239-6.889 59 59 0 0 0 .377-3.63 6.7 6.7 0 0 1 .524-2.618 9.3 9.3 0 0 0 .593-1.941 3.6 3.6 0 0 1 .486-1.381 3.5 3.5 0 0 0 .528-1.173 3.2 3.2 0 0 1 .59-1.2 2.2 2.2 0 0 0 .484-.983 1.5 1.5 0 0 1 .42-.828 2.5 2.5 0 0 0 .591-.928 2.9 2.9 0 0 1 .66-1.008 1.6 1.6 0 0 0 .487-.745.83.83 0 0 1 .441-.555.76.76 0 0 0 .436-.442 33.5 33.5 0 0 1 4.867-4.878c.156 0 .37-.19.476-.422s.318-.422.471-.422a1.6 1.6 0 0 0 .764-.506 2 2 0 0 1 .639-.506 2.3 2.3 0 0 0 1.392-.861.5.5 0 0 1 .49-.321c1.034 0 1.753-1.589 1-2.214a3.1 3.1 0 0 1-.577-.931c-.3-.709-.6-1.026-.791-.838-.057.057.018.2.166.312a2.128 2.128 0 0 1-.05 3.5 27 27 0 0 0-1.351.8 2.5 2.5 0 0 1-.784.38.47.47 0 0 0-.338.22 3.5 3.5 0 0 1-.726.631 32 32 0 0 0-5.5 5.158c-.365.454-.8.974-.96 1.154a1.2 1.2 0 0 0-.3.458 1.5 1.5 0 0 1-.385.517 3.4 3.4 0 0 0-.606.924 2.7 2.7 0 0 1-.536.822 2.44 2.44 0 0 0-.512.9 3.2 3.2 0 0 1-.493.95 3.6 3.6 0 0 0-.522 1.013 5.6 5.6 0 0 1-.507 1.1 7 7 0 0 0-.584 1.519 7.6 7.6 0 0 1-.551 1.485 14.5 14.5 0 0 0-.658 2.7 251 251 0 0 1-.593 3.242 56.5 56.5 0 0 0 .243 12.393c.244.928.491 1.967.55 2.307a7.4 7.4 0 0 0 .606 1.6 5.7 5.7 0 0 1 .5 1.207 2.1 2.1 0 0 0 .4.76 6 6 0 0 1 .612 1.086c.119.3.266.549.328.549s.254.247.429.549a27 27 0 0 0 2.735 3.2 15.7 15.7 0 0 0 2.212 1.746c.3.174.549.373.549.441 0 .111.455.368 2.11 1.193a14 14 0 0 0 3.63 1.4c.7.152 1.684.4 2.195.556.769.232 1.739.28 5.655.28h4.727l1.6-.577a9.5 9.5 0 0 0 1.952-.886 1.2 1.2 0 0 1 .531-.31 14.2 14.2 0 0 0 2.581-2.525 2 2 0 0 1 .389-.627 4.4 4.4 0 0 0 .621-1.237 11 11 0 0 1 .539-1.386c.39-.8.414-2.082.04-2.225-.147-.057-3.514-.1-7.483-.1h-7.214l-.367-.391c-.367-.39-.367-.394-.367-8.957 0-9.1.082-10.357.777-11.886a5.4 5.4 0 0 0 .405-1.1 2.6 2.6 0 0 1 .373-.8c.2-.325.509-.857.676-1.182a12.3 12.3 0 0 1 2.45-3.1c2.626-2.69 3.3-2.788 5.237-.761 2.3 2.416 7.412 7.477 7.985 7.912a16 16 0 0 1 1.272 1.14 3.3 3.3 0 0 0 .9.718c.1 0 .3.178.438.4a1.9 1.9 0 0 0 .665.581 1.05 1.05 0 0 1 .515.533.47.47 0 0 0 .369.348 1.5 1.5 0 0 1 .709.482 4.3 4.3 0 0 0 .954.744 4 4 0 0 1 .914.7 1.4 1.4 0 0 0 .629.438c.121 0 .339.183.486.406a1.36 1.36 0 0 0 .685.511 1.03 1.03 0 0 1 .6.505.97.97 0 0 0 .632.49 2.4 2.4 0 0 1 .918.524 5.4 5.4 0 0 0 .975.7 1.46 1.46 0 0 1 .6.506.38.38 0 0 0 .3.244 3.2 3.2 0 0 1 .953.559 7.3 7.3 0 0 0 1.285.778 1.2 1.2 0 0 1 .639.521.87.87 0 0 0 .672.41 2.3 2.3 0 0 1 1.049.609 1.57 1.57 0 0 0 .745.5 2.4 2.4 0 0 1 .915.51 3.7 3.7 0 0 0 1.078.613 2.4 2.4 0 0 1 .858.481 2.5 2.5 0 0 0 .9.492 2.15 2.15 0 0 1 .859.493 3.1 3.1 0 0 0 1.081.59 3.4 3.4 0 0 1 1.126.6 2.4 2.4 0 0 0 1.071.5 1.9 1.9 0 0 1 .948.438 3.15 3.15 0 0 0 1.168.587 3 3 0 0 1 1.159.6.98.98 0 0 0 .612.344 3.3 3.3 0 0 1 1.687.731 1.9 1.9 0 0 0 .94.355 4.5 4.5 0 0 1 1.472.589 4.5 4.5 0 0 0 1.512.59 2.5 2.5 0 0 1 1.1.41 3.9 3.9 0 0 0 1.39.526 5.7 5.7 0 0 1 1.653.622 2.3 2.3 0 0 0 .967.4 5.3 5.3 0 0 1 2.287.741 2.9 2.9 0 0 0 1.284.35 6.5 6.5 0 0 1 1.895.525 8 8 0 0 0 2.239.6 8 8 0 0 1 2.026.5 10.3 10.3 0 0 0 2.363.571 18.5 18.5 0 0 1 2.739.6 6.5 6.5 0 0 0 1.688.346 30 30 0 0 1 4.267.586c.186.063.49.18.675.26a42 42 0 0 0 4.3.344c2.182.109 4.765.268 5.74.352 4.236.366 21.452.364 23.331 0a66 66 0 0 1 2.582-.458 2.9 2.9 0 0 0 1.332-.526 2.65 2.65 0 0 1 .959-.5 1.9 1.9 0 0 0 .85-.5 1.25 1.25 0 0 1 .607-.4c.422 0 3.6-3.106 4.049-3.951a4.6 4.6 0 0 1 .569-.825 2.1 2.1 0 0 0 .418-.822 2.7 2.7 0 0 1 .494-.948 2.8 2.8 0 0 0 .506-1.389c.066-.511.273-1.536.461-2.279s.41-1.692.5-2.11a6.9 6.9 0 0 0-.276-3.208 11 11 0 0 1-.492-1.671 5.6 5.6 0 0 0-.6-1.657 4 4 0 0 1-.514-1 3.3 3.3 0 0 0-.6-1.027 1.57 1.57 0 0 1-.406-.635 18 18 0 0 0-3.527-3.478 1.94 1.94 0 0 1-.694-.522 13.6 13.6 0 0 0-3.416-1.6c-.3-.053-1.121-.27-1.817-.482s-1.8-.482-2.448-.6a8 8 0 0 1-1.661-.455 10 10 0 0 0-1.857-.5 11.7 11.7 0 0 1-2.069-.571 11.7 11.7 0 0 0-1.922-.57 6.8 6.8 0 0 1-1.593-.494 5.5 5.5 0 0 0-1.37-.454 8.6 8.6 0 0 1-1.609-.514 11 11 0 0 0-1.681-.577 6 6 0 0 1-1.509-.583 3.4 3.4 0 0 0-1.152-.424 6.7 6.7 0 0 1-1.643-.612 4.7 4.7 0 0 0-1.172-.49 8 8 0 0 1-1.515-.591 8.6 8.6 0 0 0-1.481-.591 2.5 2.5 0 0 1-.8-.356 6.7 6.7 0 0 0-1.3-.57 5 5 0 0 1-1.191-.555 4.3 4.3 0 0 0-1.152-.523 5.2 5.2 0 0 1-1.3-.608 2.8 2.8 0 0 0-.807-.426 24 24 0 0 1-3.043-1.461 15 15 0 0 0-1.1-.549 11 11 0 0 1-1.332-.752 2.7 2.7 0 0 0-.928-.451 2.6 2.6 0 0 1-.935-.506 2.8 2.8 0 0 0-.874-.5 1.8 1.8 0 0 1-.687-.386 8.7 8.7 0 0 0-1.282-.787 4.4 4.4 0 0 1-.991-.628.62.62 0 0 0-.39-.225 4 4 0 0 1-1.034-.591 4.7 4.7 0 0 0-.978-.591 2.6 2.6 0 0 1-.724-.506 2.2 2.2 0 0 0-.8-.506 1.45 1.45 0 0 1-.644-.39 7.4 7.4 0 0 0-1.04-.755 10 10 0 0 1-.828-.536 20 20 0 0 0-2.3-1.6 1.9 1.9 0 0 1-.694-.6c-.1-.185-.274-.336-.39-.336a2 2 0 0 1-.746-.464c-.3-.255-.964-.768-1.488-1.14a11.7 11.7 0 0 1-1.386-1.14 1.5 1.5 0 0 0-.632-.464 1.6 1.6 0 0 1-.651-.464 16 16 0 0 0-1-.915c-4.534-3.754-12.149-11.242-12.89-12.674-.419-.809.891-4.987 1.672-5.334a5.3 5.3 0 0 0 .7-.929 12.2 12.2 0 0 1 3.565-3.499c.235-.089.427-.243.427-.341s.323-.329.717-.512a13 13 0 0 0 1.224-.657 2.2 2.2 0 0 1 .784-.337 8.7 8.7 0 0 0 1.519-.561l1.242-.549 9.4-.052 9.4-.052.354.379c.348.373.354.5.356 7.649 0 4 .068 7.373.148 7.5.308.486 3.724-.428 4.82-1.289a2 2 0 0 1 .625-.376 13.9 13.9 0 0 0 2.508-2.609 1.1 1.1 0 0 1 .3-.524 9.4 9.4 0 0 0 .886-1.931l.585-1.6v-4.9c0-4.851-.007-4.91-.464-6.392a12 12 0 0 1-.461-1.84 4.3 4.3 0 0 0-.408-1.2c-.225-.474-.565-1.2-.756-1.621a20.4 20.4 0 0 0-5.181-6.711 25.5 25.5 0 0 0-2.855-2.077c-1.314-.7-1.591-.842-2.617-1.31a16.6 16.6 0 0 0-2.617-.846 58 58 0 0 1-2.279-.562 73 73 0 0 0-12.324.063 38 38 0 0 1-3.8.739 5.5 5.5 0 0 0-1.435.41 9 9 0 0 1-1.351.506 24 24 0 0 0-3.545 1.533c-.139.089-.557.307-.928.485a9.4 9.4 0 0 0-1.257.755 2.3 2.3 0 0 1-.8.431 1.9 1.9 0 0 0-.752.506 2.6 2.6 0 0 1-.642.506 1.3 1.3 0 0 0-.442.3c-.181.162-.785.67-1.34 1.128a32.5 32.5 0 0 0-3.771 3.809c-.338.418-.708.858-.82.977a5 5 0 0 0-.5.718c-.162.275-.352.5-.42.5a1.8 1.8 0 0 0-.447.717 6.5 6.5 0 0 1-1.046 1.469l-.737.748-.727-.836a8 8 0 0 1-.923-1.258c-.108-.232-.265-.536-.35-.675s-.285-.472-.444-.739-.538-.854-.839-1.3a6 6 0 0 1-.549-.913 7 7 0 0 0-.591-.972 4.6 4.6 0 0 1-.591-1.059 1.1 1.1 0 0 0-.3-.509 4.4 4.4 0 0 1-.606-1.087 5 5 0 0 0-.5-.987 10 10 0 0 1-.7-1.222l-1.432-2.812c-1.11-2.179-1.692-3.093-1.692-2.658m-39.498 5.609a11 11 0 0 0 .318 1.941c.181.763.4 1.843.485 2.4.135.886.158.928.176.338a21.7 21.7 0 0 0-.723-4.389c-.222-.769-.245-.795-.256-.29m1.1 6.283a8 8 0 0 0 .331 1.655 14 14 0 0 1 .443 1.99 3.2 3.2 0 0 0 .278 1.173 15 15 0 0 0-.643-3.975 14 14 0 0 1-.4-1.351c-.046-.232-.048 0-.006.506m1.088 5.376a2.7 2.7 0 0 0 .284.881 8.5 8.5 0 0 1 .5 1.8 10 10 0 0 0 .445 1.78 11.6 11.6 0 0 1 .676 1.9c.04.186.04-.028 0-.475a6.3 6.3 0 0 0-.469-1.688 9.6 9.6 0 0 1-.581-2.072c-.24-1.567-.864-3.1-.864-2.121m2.026 7.205a1.5 1.5 0 0 0 .264.72 5 5 0 0 1 .49 1.093c.134.425.232.571.241.36a4.6 4.6 0 0 0-.688-2.009c-.255-.42-.307-.448-.308-.164m1.013 2.874a2.3 2.3 0 0 0 .275.835 11 11 0 0 1 .574 1.435c.165.511.307.769.316.574a6.1 6.1 0 0 0-.764-2.338c-.224-.464-.4-.689-.4-.506m1.181 3.358a4 4 0 0 0 .321.633 4.7 4.7 0 0 1 .444 1.145 8 8 0 0 0 .587 1.519c.256.513.512 1.047.569 1.186s.062-.041.008-.4a3.8 3.8 0 0 0-.5-1.266 5.1 5.1 0 0 1-.581-1.419c-.214-.967-.85-2.012-.85-1.4m2.026 5.007a.68.68 0 0 0 .165.419 5 5 0 0 1 .5.836c.184.368.337.539.341.38a2.7 2.7 0 0 0-.347-.928c-.449-.811-.659-1.036-.659-.706m1.013 2.08a5 5 0 0 0 .4.919 15 15 0 0 1 .618 1.373 3.6 3.6 0 0 0 .5.928 3.3 3.3 0 0 1 .483.943 4.9 4.9 0 0 0 .6 1.161 3.4 3.4 0 0 1 .511 1.017 2 2 0 0 0 .389.781 6.3 6.3 0 0 1 .668 1.078c.737 1.47 1.119 2.084 1.18 1.9a2.9 2.9 0 0 0-.794-1.562c-.085 0-.2-.171-.263-.38-.2-.681-.6-1.477-.753-1.477-.081 0-.241-.285-.355-.633a6 6 0 0 0-.608-1.224 4.8 4.8 0 0 1-.563-1.189 2.7 2.7 0 0 0-.466-.928 3.1 3.1 0 0 1-.5-1.008c-.183-.617-1.055-2.022-1.055-1.7m123.033 47.493a5.45 5.45 0 0 1 2.33 2.133 2.2 2.2 0 0 0 .313.611 4.95 4.95 0 0 1 .178 4.22 2.7 2.7 0 0 0-.422.709c0 .3-.966 1.193-1.849 1.7-2.435 1.408-5.541.445-7.274-2.255a4.9 4.9 0 0 1 .052-4.366 7 7 0 0 0 .542-.918 4.835 4.835 0 0 1 6.13-1.837"/></g></g></svg>