<svg xmlns="http://www.w3.org/2000/svg" xml:space="preserve" id="BAZ" x="0" y="0" version="1.1" viewBox="0 0 490 490"><style>.st1{fill:#fff}</style><path id="Full" d="M0 245c0 135.1 109.9 245 245 245s245-109.9 245-245S380.1 0 245 0 0 109.9 0 245" style="fill:#ee8133"/><path d="M359 247c-.3-21.8-20-35.8-30-36 7-8.3 10-14.1 10-23v-30c-.2-26-26.6-38-60-38h-90c-4.6 0-10.4 2.9-14 6s-32 28-32 28-5 2.9-5 10v188c0 11.3 5 14 14 14h115c21.7 0 34.6-7.7 48-19s4-3.4 22-18 22-27.8 22-42 .3-18.2 0-40m-3 40c0 35.8-30.5 44.9-54 45H189c-9.3 0-11-5.4-11-12V134c0-10 5.8-10 13-10h88c57.4 0 57 33.5 57 33v31c0 16-13.5 23.2-16 25 25.6 0 36 25.7 36 34z" class="st1"/><path id="B_Line" d="M212 151v153h84c12.4 0 28-5.8 28-24v-29c0-25.7-43-25-43-25h-69 69s25-1.7 25-25v-24c-.1-16.8-13.2-26.4-34-26z" style="fill:none;stroke:#fff;stroke-width:2;stroke-linecap:round;stroke-linejoin:round"/><path id="Inside" d="M243 172v32h26s10-.6 10-10v-13c0-9.3-9-9-9-9zm0 76v35h40s9-.9 9-9v-16c0-10-10-10-10-10z" class="st1"/></svg>