<svg xmlns="http://www.w3.org/2000/svg" xml:space="preserve" viewBox="0 0 245 245"><path d="M0 122.5C0 190 55 245 122.5 245S245 190 245 122.5 190 0 122.5 0 0 55 0 122.5" style="fill:#4dae4a"/><path d="M80.5 61v72m15-101.5V133M111 48.5V133m15-72v72M65.3 89.6v65M137 190c25-9.4 27-27.5 27-27.5" style="fill:none;stroke:#fff;stroke-width:8.5;stroke-linecap:round;stroke-linejoin:round"/><path d="M136.5 88.5c0 3.7.2 5.5 0 9 16.8 1.8 45.1 19.4 46 56 0 21.8-18.2 56-55.5 56-37.8-1.7-56.7-28.6-57.5-57-2.8.1-5.7.1-8.5 0 0 23.5 16 63.4 64 65 44.3 0 64.5-37.4 64.5-64 .7-49-44.7-65-53-65" style="fill:#fff"/></svg>