<svg xmlns="http://www.w3.org/2000/svg" xml:space="preserve" viewBox="0 0 245 245"><path d="M0 122.5C0 190 55 245 122.5 245S245 190 245 122.5 190 0 122.5 0 0 55 0 122.5" style="fill:#4cca47"/><path d="M184.4 126.8c-5.6-25.1-26.6-21-26.6-21s11.3-10.2 5.2-25c-7.5-22.9-39.4-14.2-39.4-14.2l-6.2-21.8-13.4 3.7 6.4 21.1-10.8 3.3-6-21.4-13.4 3.7L86 77.3l-26.6 7.9 4.2 14.3 11.2-3.6s6.8-.4 7.9 4.7c1.3 4.6 17 59.5 17 59.5s1.3 3.8-4.1 5.8c-5 1.5-9 2.3-9 2.3l1.9 17.4 26.9-7.4 6.2 21.8 13.4-3.7-6.2-21.8 10.3-3.1 6.2 21.8 13.9-4-6.7-21.6c.1.1 41.4-12 31.9-40.8m-71.9-11.6-7.9-26.6s29.1-11.4 34.5 3.8c6.2 16.5-26.6 22.8-26.6 22.8m12 42.7-8-28.9s36.1-15.8 41 4c5.2 17-33 24.9-33 24.9" style="fill:#fff"/></svg>