<svg xmlns="http://www.w3.org/2000/svg" xml:space="preserve" viewBox="0 0 490 490"><path d="M0 245c0 135.1 109.9 245 245 245s245-109.9 245-245S380.1 0 245 0 0 109.9 0 245" style="fill:#f90"/><path d="M245 406c-88.9 0-161-72.1-161-161S156.1 84 245 84c33.6 0 66.3 10.5 93.7 30.1-24 32.7-44.5 61-59.1 80.7-27.7-19.1-65.7-12.1-84.8 15.6-7 10.2-10.8 22.2-10.8 34.6 0 32.1 24.5 58.6 56 61v4h5v4s12.7-.1 22.6-6.2c1 2.2 3.4 7.2 3.4 7.2l3-2 7 13c6.6-3.4 12.7-7.8 18-13 1.2 1.9 2 3 2 3l3-3 6 6c4-4.4 7.7-9.1 11-14 .6.5 1.3.8 2 1l2-3s48.4 31.2 48 32c-24 45.3-84.2 71-128 71m33-204c.7.6 1.4 1.3 2 2l73-75s-3.3-5.2-7-6c-1 1.1-66.5 77.2-68 79m4 13c.8.9 1.5 1.9 2 3 1.1-.6 98-55 98-55s-2.5-5.1-5-7c-1.3.7-95 59-95 59" style="fill:#fff"/></svg>