<svg xmlns="http://www.w3.org/2000/svg" width="256" height="256" viewBox="0 0 67.733 67.733"><g transform="translate(0 -229.267)"><g style="fill:#38ba3f;fill-opacity:1"><path d="M1.455 263.133c0 17.872 14.54 32.412 32.412 32.412 17.871 0 32.411-14.54 32.411-32.412 0-17.871-14.54-32.411-32.411-32.411s-32.412 14.54-32.412 32.411" class="cls-1" style="fill:#38ba3f;fill-opacity:1;stroke-width:.13229166"/></g><circle cx="33.867" cy="263.133" r="26.447" style="opacity:1;fill:none;fill-opacity:1;fill-rule:nonzero;stroke:#fff;stroke-width:1.47495508;stroke-linecap:square;stroke-linejoin:miter;stroke-miterlimit:4;stroke-dasharray:none;stroke-dashoffset:0;stroke-opacity:1;paint-order:fill markers stroke"/><g style="opacity:1" transform="matrix(1.05656 0 0 1.05656 -1.915 227.198)"><rect width="21.698" height="21.698" x="18.772" y="31.162" ry="3.509" style="opacity:1;fill:#fbfefb;fill-opacity:1;fill-rule:nonzero;stroke:none;stroke-width:6.191751;stroke-linecap:square;stroke-linejoin:miter;stroke-miterlimit:4;stroke-dasharray:none;stroke-dashoffset:0;stroke-opacity:1;paint-order:markers fill stroke"/><path d="M18.768 35.842V23.414l5.82 9.424z" style="fill:#fbfefb;fill-opacity:1;stroke:none;stroke-width:.26458332px;stroke-linecap:butt;stroke-linejoin:miter;stroke-opacity:1"/></g><rect width="12.789" height="12.881" x="22.987" y="265.374" rx="1.66" ry="1.66" style="opacity:1;fill:#38ba3f;fill-opacity:1;fill-rule:nonzero;stroke:none;stroke-width:7.3704567;stroke-linecap:square;stroke-linejoin:miter;stroke-miterlimit:4;stroke-dasharray:none;stroke-dashoffset:0;stroke-opacity:1;paint-order:markers fill stroke"/><path d="M26.352 259.377h6.122v6.541h-6.122z" style="opacity:1;fill:#38ba3f;fill-opacity:1;fill-rule:nonzero;stroke:none;stroke-width:29.19677734;stroke-linecap:square;stroke-linejoin:miter;stroke-miterlimit:4;stroke-dasharray:none;stroke-dashoffset:0;stroke-opacity:1;paint-order:markers fill stroke"/><g style="opacity:1"><path d="M116.682 85.93a13.234 13.234 0 0 0-13.264 13.261v55.485a13.234 13.234 0 0 0 13.264 13.262h55.482a13.23 13.23 0 0 0 13.262-13.262V99.19a13.23 13.23 0 0 0-13.262-13.261zm10.01 19.02h33.872a5.924 5.924 0 0 1 5.938 5.937v34.203c0 3.29-2.648 5.94-5.938 5.94h-33.873c-3.29 0-5.939-2.65-5.939-5.94v-34.203c0-3.29 2.65-5.938 5.94-5.938" style="opacity:1;fill:#fbfefb;fill-opacity:1;fill-rule:nonzero;stroke:none;stroke-width:23.40189362;stroke-linecap:square;stroke-linejoin:miter;stroke-miterlimit:4;stroke-dasharray:none;stroke-dashoffset:0;stroke-opacity:1;paint-order:markers fill stroke" transform="matrix(.27955 0 0 .27955 -1.915 227.351)"/><path d="M18.768 35.842V23.414l5.82 9.424z" style="fill:#fbfefb;fill-opacity:1;stroke:none;stroke-width:.26458332px;stroke-linecap:butt;stroke-linejoin:miter;stroke-opacity:1" transform="matrix(-1.05656 0 0 1.05656 69.754 218.448)"/></g><path d="M35.131 269.154h.643v5.633h-.643zM40.843 269.154h.643v5.633h-.643z" style="opacity:1;fill:#38ba3f;fill-opacity:1;fill-rule:nonzero;stroke:none;stroke-width:8.77874374;stroke-linecap:square;stroke-linejoin:miter;stroke-miterlimit:4;stroke-dasharray:none;stroke-dashoffset:0;stroke-opacity:1;paint-order:markers fill stroke"/></g></svg>