<svg xmlns="http://www.w3.org/2000/svg" xml:space="preserve" viewBox="0 0 490 490"><path d="M0 245c0 135.1 109.9 245 245 245s245-109.9 245-245S380.1 0 245 0 0 109.9 0 245" style="fill:#14c393"/><path d="M288 288.6c.1 23.5-18.8 42.6-42.3 42.8s-42.6-18.8-42.8-42.3v-45.2H288zm39.3-83.6v-35H288v73.8h-85.1V170h-39.3v118.6c0 45.4 36.7 82.3 81.9 82.3s81.9-36.9 81.9-82.3zm41.1-35c.1 19.2-15.4 34.9-34.7 35H156.2c-19.3-.1-34.8-15.7-34.8-35H82c0 42.4 32.5 73.8 74.7 73.8h177.5c42.2 0 73.9-31.3 73.9-73.8zM288 288.6c.1 23.5-18.8 42.6-42.3 42.8s-42.6-18.8-42.8-42.3v-45.2H288zm0-44.8h-85.1V170h-39.3v118.6c0 45.4 36.7 82.3 81.9 82.3s81.9-36.9 81.9-82.3v-44.8z" style="fill:#fff"/></svg>