<svg xmlns="http://www.w3.org/2000/svg" viewBox="0 0 490 490"><rect width="490" height="490" rx="60.06" ry="60.06" style="fill:#f3ba2f"/><path d="m157.28 161.06-32.89 19v38L91.48 199v-38l32.91-19ZM387.6 142l-32.88 19 32.88 19v38l32.92-19v-38Zm-65.8-38-32.89-19L256 66l-65.8 38.06-32.92 19 32.92 19 32.88-19 32.92-19 32.92 19 32.88 19 32.92-19ZM256 142l-32.91 19L256 180l32.92-19Zm65.81 38-32.89 19L256 218l-65.79-38-32.92 19v38l32.92 19 32.88 19v76L256 370l32.92-19v-76l32.88-19 32.92-19v-38Zm0 114v38l32.92-18.87v-38Zm65.8-38v76l-65.8 38v38l32.92-19 32.89-19 32.91-19V237Zm-263.22 76v-76l-32.91-19v114l32.91 19 32.89 19 32.92 19v-38Zm164.49 57L256 408l-32.91-19v38L256 446l32.92-19v-38Zm-131.6-114v38.14l32.88 19V294Z" style="fill:#fff" transform="translate(-10 -10)"/></svg>