<svg xmlns="http://www.w3.org/2000/svg" viewBox="0 0 490 490"><defs><style>.b{fill:#fff}</style></defs><rect width="490" height="490" rx="60.06" ry="60.06" style="fill:#14c393"/><path d="M292.7 285.54a46.17 46.17 0 0 1-92.33 0v-48.23h92.33Zm42.66-90.09v-37.67H292.7v79.53h-92.33v-79.53h-42.66v127.76a88.83 88.83 0 0 0 177.65 0z" class="b"/><path d="M379.88 157.78a37.65 37.65 0 0 1-37.71 37.67H149.62a37.74 37.74 0 0 1-37.73-37.67H69.1c0 45.7 35.3 79.53 81.05 79.53h192.56c45.77 0 80.19-33.69 80.19-79.53Z" class="b"/><path d="M292.7 285.54a46.17 46.17 0 0 1-92.33 0v-48.23h92.33Zm0-48.23h-92.33v-79.53h-42.66v127.76a88.83 88.83 0 0 0 177.65 0v-48.23Z" class="b"/></svg>