<svg xmlns="http://www.w3.org/2000/svg" width="400" height="400"><defs><linearGradient id="a" x1="59.544" x2="334.185" y1="336.846" y2="53.747" gradientTransform="matrix(.98231 0 0 .98231 3.537 3.537)" gradientUnits="userSpaceOnUse"><stop offset="0" stop-color="#d4287d"/><stop offset=".503" stop-color="#672c8d"/><stop offset="1" stop-color="#e28630"/></linearGradient></defs><circle cx="200" cy="200" r="186.248" fill="#fff" fill-opacity="0" stroke="url(#a)" stroke-width="20.799" style="fill:#1d1d1d;fill-opacity:1;stroke:url(#a);stroke-width:27.5048;stroke-miterlimit:4;stroke-dasharray:none"/><path fill="#fff" d="M90.353 193.248V85h31.57c3.622 0 6.725 1.43 9.317 4.281q3.898 4.284 3.898 10.513v23.37q0 5.135-1.77 8.725-1.175 2.64-3.663 4.515h5.433v42.05q0 6.235-3.898 10.513c-2.592 2.855-5.695 4.281-9.317 4.281Zm28.626-70.083v-21.817h-12.481v28.825zm0 19.31-12.481 6.846v27.58h12.481ZM146.88 193.248V99.794q-.001-6.23 3.884-10.513c2.599-2.851 5.709-4.281 9.33-4.281h18.356c3.622 0 6.725 1.43 9.317 4.281q3.898 4.284 3.898 10.513v93.454h-16.159v-45.95l-12.481 7.008v38.942Zm16.145-58.09 12.481-7.008v-26.802h-12.481ZM232.034 163.66l16.158-8.576v23.37q0 6.235-3.897 10.513c-2.592 2.855-5.695 4.281-9.317 4.281h-18.356q-5.431 0-9.33-4.354c-2.592-2.91-3.884-6.393-3.884-10.44v-78.66c0-4.153 1.292-7.657 3.884-10.513 2.599-2.851 5.709-4.281 9.33-4.281h18.356c3.622 0 6.725 1.43 9.317 4.281q3.897 4.284 3.897 10.513v9.354l-16.158 8.563v-16.363h-12.481V176.9h12.481ZM315 193.248h-17.181l-16.297-44.234-6.91 15.101v29.133h-16.145V85h16.144v40.965L291.944 85h17.624l-19.24 43.927zm0 0"/><path fill="#ff008a" d="M85 315v-86.065q-.001-5.745 3.58-9.691 3.592-3.943 8.597-3.944h16.905q5.002.001 8.584 3.944c2.384 2.631 3.58 5.86 3.58 9.691V315h-14.873v-42.314l-11.486 6.451V315Zm14.887-53.501 11.486-6.466v-24.676H99.887ZM137.065 315v-99.7h14.887v84.642h21.632V315ZM181.017 315v-99.7h14.887v84.642h21.632V315ZM260.81 230.357h-20.955v26.831l20.954-11.48v17.653l-20.954 11.466v25.115h20.954V315h-35.841v-86.065q-.001-5.745 3.58-9.691 3.592-3.943 8.598-3.944h23.663zM270.27 215.3h14.888v41.888l11.486-6.45V215.3h14.873v86.08c0 3.822-1.196 7.048-3.58 9.676-2.388 2.632-5.25 3.944-8.584 3.944h-16.905q-5.006 0-8.597-4.017c-2.388-2.676-3.58-5.88-3.58-9.604v-5.029l14.887-7.888v11.48h11.486v-31.567L270.27 282.73zm0 0"/></svg>