<svg xmlns="http://www.w3.org/2000/svg" xml:space="preserve" id="Bluzelle" x="0" y="0" version="1.1" viewBox="0 0 245 245"><style>.st1{fill:#fff}</style><path id="Main" d="M0 122.5C0 190 55 245 122.5 245S245 190 245 122.5 190 0 122.5 0 0 55 0 122.5" style="fill:#18578c"/><g id="Rectangle"><path id="Rectangle_SW" d="M93.5 134.5c5.2 9.7 7.2 11.8 17.5 17-3.8 3.8-15.3 15.4-15.3 15.4l-17.2-17.2c.1 0 10.6-10.8 15-15.2" class="st1"/><path id="Rectangle_SE" d="M152 134.5c-5.2 9.7-7.2 11.8-17.5 17.1 3.8 3.8 15.3 15.4 15.3 15.4l17.2-17.2s-10.5-10.9-15-15.3" class="st1"/><path id="Rectangle_NE" d="M152 110.5c-5.2-9.7-7.2-11.8-17.5-17.1 3.8-3.8 15.3-15.4 15.3-15.4L167 95.2s-10.5 10.9-15 15.3" class="st1"/><path id="Rectangle_NW" d="M93.5 110.5c5.2-9.7 7.2-11.8 17.5-17.1C107.2 89.6 95.7 78 95.7 78L78.5 95.2s10.5 10.9 15 15.3" class="st1"/><path id="Rectangle_W" d="M91.7 127c-.4-4.5-.5-4.5.3-9H72v8.9s13.9.1 19.7.1" class="st1"/><path id="Rectangle_N" d="M118 91.7c4.5-.4 4.5-.5 9 .3V72h-8.9s-.1 13.9-.1 19.7" class="st1"/><path id="Rectangle_E" d="M153.8 118c.4 4.5.5 4.5-.3 9h20v-8.9s-13.9-.1-19.7-.1" class="st1"/><path id="Rectangle_S" d="M127 153.8c-4.5.4-4.5.5-9-.3v20h8.9s.1-13.9.1-19.7" class="st1"/></g><g id="Rounds"><circle id="Middle" cx="122.5" cy="122.5" r="22" class="st1"/><circle id="Round_N" cx="122.5" cy="48" r="15" class="st1"/><circle id="Round_NW" cx="70" cy="70" r="15" class="st1"/><circle id="Round_W" cx="48.5" cy="122.5" r="15" class="st1"/><circle id="Round_SW" cx="70" cy="175" r="15" class="st1"/><circle id="Round_S" cx="122.5" cy="197" r="15" class="st1"/><circle id="Round_NE" cx="175.5" cy="70" r="15" class="st1"/><circle id="Round_E" cx="197" cy="122.5" r="15" class="st1"/><circle id="Round_SE" cx="175.5" cy="175" r="15" class="st1"/></g></svg>