<svg xmlns="http://www.w3.org/2000/svg" xml:space="preserve" viewBox="0 0 245 245"><path d="M0 122.5C0 190 55 245 122.5 245S245 190 245 122.5 190 0 122.5 0 0 55 0 122.5" style="fill:#302442"/><path d="M188.5 89.4c0-17.4-12-33.4-44-33.4H59.2c-3.6 0-6.6 2.9-6.7 6.5v120.3c0 3.6 2.9 6.6 6.5 6.7h86.8c33.3 0 46.7-17.6 46.7-36s-17.6-32-36-32c18.4-.1 32-14.8 32-32.1m-80 46.7h40c6.6 0 12 5.4 12 12s-5.4 12-12 12h-64V85.4h60c6.7 0 12 4 12 10.7s-5.3 10.7-12 10.7h-36c-3.6 0-6.6 2.9-6.7 6.5v16.1c0 3.6 2.9 6.6 6.5 6.7z" style="fill:#fff"/></svg>