<svg xmlns="http://www.w3.org/2000/svg" xml:space="preserve" id="Bitcoin_SV" x="0" y="0" version="1.1" viewBox="0 0 245 245"><style>.st1{fill:#fff}</style><path id="Full" d="M0 122.5C0 190 55 245 122.5 245S245 190 245 122.5 190 0 122.5 0 0 55 0 122.5" style="fill:#eab300"/><path d="M88 72.4c13.8.2 25.2 7.7 25.7 7.7 5.6-4.1 13.3-4.2 15.4-4.3 12.3.4 22.9 9.1 23.1 8.5 0-1.4 0-8.4 6-8.5 6.1-.1 6 10.2 6 10.2s.5 4 0 6-3.4 5.1-3.4 5.1c1 1.8 1.6 3.9 1.7 6 .8 3.5.8 3.8.9 6s-.7 6.1-.9 9.4c1.4 1 1.6-7.3 7.7-9.4.2-3.9-.2-6.4 0-6.8.2-.6.5-1.2.9-1.7 1.3-1.8 3-2.2 3.4-2.6.2-1.2-.2-8.4 0-9.4s1.5-3 2.6-4.3c.7-1.7.3-5.5.9-6s0-1.8.9-3.4 0-6.8 0-6.8-4.4-10.9-8.6-10.2c.4 1 2.1 3.4.9 4.3-.8.2-2.4-1.2-3.4-2.6-.3-.8-1.5-7.2-7.7-6.8.1.9 3.7 2.7 2.6 5.1-2.8-2.8-5.1-1.5-5.1-2.6s-1.8-7.9-9.4-7.7c-2.1.5 3.2.7 1.7 5.1-.4 1-2.8-2.1-6-2.6-.6-1-.6-5.7-6.9-6.8-.5 0-3.2-.2-3.4 1.7 3.4-.3 2.6 3.4 2.6 3.4-1.8-1.2-3.9-1.8-6-1.7-.7-1-2.6-3.4-4.3-4.3-.8-.4-3.6-1.1-6.9.9 1.3.1 4.2.7 3.4 3.4-2.2-1-4.7-1-6.9 0-.7-1.2-1.7-3.5-6-3.4-1.3-.1-4-.3-6 2.6 1-.2 4.3-.8 4.3 1.7-1.1-.1-4 0-6 1.7-1.1.1-2.6-2.3-6.9-2.6-.7.1-6.2.6-6 4.3.8-.5 3.8-1.4 3.4.9-.5.3-4 1.9-5.1 3.4-1 .3-3.1-.9-5.1-.9-.7 0-5.9.3-6.9 5.1 3.5-2.5 4.4.5 4.3.9-2.2.9-6.4 4.8-6.9 6 2.2 4.3 13.5 5.8 15.4 6" class="st1"/><path d="M89.7 82.6c-4.8-.7-16.9-1.3-21.4-3.4-3.1-1-7.4-3.3-15.4-10.2 1.9 9.6 12.2 14.9 15.4 16.2 3.2 1.4 13.7 4 18.9 5.1 2.1.4 12.7 3.6 12 6-1.3.5-3.6 1.7-4.3 1.7-.6 0-4.9.2-6 2.6 1.7-.1 14.6 1.4 13.7 7.7-2.9-3.6-8.1-4.1-9.4-4.3-.9-.1-5.8 1-7.7 4.3.5 1 2.2 3.3 4.3 4.3.7.2 2-.2 2.6.9-.2.4-4.7 1.2-4.3 5.1.3-.2.6-.4.9-.5 2-.8 4.3.2 5.1 2.2.1.9-2.1 3.5-1.7 5.1.1.3 2.6-1.4 2.6 0 .5.9.7 5.5 6 5.1 2.9.3 6.5-1.8 7.7-4.3.6-.4 5.1 0 5.1 0s1 3.1-3.4 6c2.3 0 7.9-.5 8.6-6 0-1.8-1-2.7-.9-4.3-.3-.8-.7-4.4-2.6-4.3-.6 0-.9 1.8-1.7 1.7-.8 0-6.7-3.7-6.9-6.8-.1-1.2.1-2.4.9-2.6s4.4.9 3.4 5.1c.5.2 2.2-2 3.4 0 .8.6 6 0 6 0-.2 1.4-.2 2.9 0 4.3.2 2.9 8.9 18.5 9.4 23.1 0 1.2-.4 7-5.1 6.8-4.2-.1-9.7-9.3-12.9-12 .2 3 6.8 17 14.6 16.2 1.5.4 7.6-1.2 7.7-9.4.2-4.2-8.6-19.8-8.6-26.5 0-2 1-5.8 3.4-5.1.5 1.3-.9 3.4-.9 3.4s4.2-1.1 4.3-5.1c1.4-.2 1.8 2.4 2.6 2.6s1.4-2.8 2.6-2.6 1 1.4 2.6 1.7c.7 0 2.5-3.1 3.4-2.6.8.3 2.2 2.2 3.4 1.7.3-.8-.4-4.1 0-4.3s2.3.8 3.4.9c1.2.1 1.4-.4 2.6-1.7-.6-.4-4.6-.7-5.1-.9s-1.9-4.9-2.6-5.1c-.6-.2-3.5-.5-3.4-2.6.3-2.3 2.6-3.4 2.6-3.4s11.2 1 12.9-1.7c1.6-1.3 3.2-11.8.9-12-1.3 1.2.4 12.6-6.9 11.1-1.8-.1-3.5-.7-7.7-.9-3.3-.9-8.7 9.9-13.7 8.5-1.1-.1-2.7-1.7-4.3-1.7-2-.1-3.5 1-4.3.9s-1.3-.6-1.7-2.6c0-1.1.8-4.1.9-5.1s-.4-5.4-3.4-6c-.9-.1-2.5 1-4.3.9-1.7-1.7-8.2-6.1-16.2-7.8-6.5-1.6-15.1-2.1-19.2-3.2-3.6-1.5-8.3-3-16.1-11.3-.5 4.5 7.8 14.6 20.1 15 8.8.7 13.3 1.8 18.2 3.3 2.2.7 5.8 2 8.8 4.2-.4.5-2.4 1.3-4.3 1.7-.6 0-6.6-3.9-14.6-5.1m48 20.5c.7 0 2.5.1 3.4.9 1.5.6 1.7 1.2 1.7 1.7 0 .6-2 1.7-3.4 1.7-2.4-2.6-5.8-1.9-6-3.4 1-.9 3.6-.9 4.3-.9m-32.6-2.5c1.1-.3 5.1 0 5.1 0s2.2-1.7 3.4-1.7c1.3 0 2.8 1.5 2.6 2.6-1.7 2.5-3.8 3.5-5.1 3.4-4.3-.6-6.2-3.5-6-4.3" class="st1"/><path d="M147.1 122.8c.6-.1 1.2-.3 2.6.9.7-.5-.8-3.8-2.6-5.1-.5-.8-4.3-4.2-5.1-4.3-.5.2 1.7 3.7-.9 4.3-1.5 1.3-3.5-3.4-5.1-2.6 0 1 1.6 3.5.9 5.1-.9.2-2.2 0-3.4.9-.9 0-2.4-1.4-3.4-2.6-.8.3 2.5 8.7 3.4 9.4.7.4 2.6-1.7 3.4-1.7s3.4 2.5 4.3 4.3c.5-.1 1-4.1.9-6 1.3-.2 3.2 1.7 4.3 1.7.5-.3-.5-4.7.7-4.3" class="st1"/><path d="M219.1 101.4c-2.2 0-3.8 1-4.3.9-1.3-1.6 3.6-2.1 2.6-5.1.8.4 1.8.4 2.6 0-.4-2.1-2.4-2.9-4.3-2.6-5.2-1.3-3.9 5.6-6 6-.9-.5.1-4.3.8-4.4 1.1-1.7-.7-2.7-.8-3.3.3-1.2.9-2.4.9-3.4-1.6.2-2.7.8-4.1 2.8-.6.2-.9-.3-1.6.5-.5 1.7 1.1 6-.2 7.8-2.2-4.5-12-10.6-14.6-11.1-1.1-8.1-6-6-6.9-14.5-1.2-.5-1.9 4.2-1.7 6 1.8 7.1.5 9.2 0 9.4-.9.8-1.1-1.7-1.7-1.7-.8-.7-1 2.3-1.2 4.8.2 3.8 2 6.2 2.1 7.2-.6 2.1-2.7 5.3-3.4 5.1-.7-.1-1-3.2-1.7-3.4-.8.4-1 3.9-.9 6 .3 2 1.1 4.9.9 6-.9 2.3-3.3 3.5-4.3 3.4s-1.1-2-.9-3.4c-2.2 0-2.6 7.7-2.6 7.7s.4 3.9 0 5.1c-1 2.3-3.5 3.5-4.3 4.3-1.8 0-.7-5.8-.9-6-4.7 1.1-5.1 13.2-5.1 15.4-4.2.6-4.3 3.3-6 3.4-.5 0-1.6-1.8-1.7-3.4-.1-1.3.6-1.8.9-3.4-10.5 1.9-11.4 21.2-24 21.4-13.2-1.3-20.6-18.9-19.7-23.9-4.2 1.9-5.2 1.7-6.9 1.7-6.6-.1-8.1-4.3-8.6-6-4.7-1.9-4.4-5.8-4.3-6.8-4.4.8-5-3-5.1-4.3-.2-3 .6-4.1 1.7-5.1-.6-1.9-5.2-4.8-5.1-6 1-2.3 4.7-5.8 6-6-1.1-.9-1.4-4.9 1.5-6.9-.2-1.1-8.5-3.4-11.8-3.3-.8.1-7.9 6.5-9.4 10.2 2.4-1.1 3.3-1.5 3.4-.9-5.8 5.1-9.4 16.8-8.6 18.8.9-1.8 2.4-2.9 2.6-2.6-3.7 8.4-4.9 22.1-.9 23.1-.5-4.8.9-5.1.9-5.1s1.3 6.8 2.6 9.4c.4 11.9 5.1 12.8 5.1 12.8s-1.6-4.8-.9-6c1.5.1 5 6.4 6.9 6.8 0 12.8 7.2 12.4 7.7 12-1.6-1.8-1.3-3.4-.9-3.4 3.7-.8 13.2 8.4 24 11.1-2.1 3.8-3.3 11.3-4.3 11.1-1.8 0-2.9-9.3-6-9.4-.9-.4-2.9.3-3.4 0-2.8-3.7-6.9 0-6.9 0s4.4-.6 5.1.9c.4.7-1.2 1.9 0 4.3 3 .4 4.1 1.9 4.3 2.6.3 1.9.9 5 0 5.1-3.3.3-6-7.5-9.4-7.7-3.5-1.2-3.2 1.9-4.3.9-4.6-.9-6 3.4-6 3.4s3-1.2 4.3-.9c1.5.4.7 2 .9 2.6 1 1.9 8.5 1 9.4 6-9.2-2.1-15.2 3.6-15.4 5.1-.3 1.4.9 1.9.9 2.6-.7 1.9.1 5.1 1.7 6-.7-2.6-.7-5.2 0-5.1.7.5 3 .9 3.4.9 1.4-.6 3.5-4.2 4.3-4.3 2.5-.3 6.7.9 7.7.9s2.4-.3 2.6 0c0 1.7-5.9 6.1-6 7.7-.4 1.4-.4 2.9 0 4.3-.1 4.7 1.6 6 1.7 6 .1-1-.4-3.2 0-3.4 1.1.4 2.3.4 3.4 0 1.4.1 3.8-8 5.1-9.4.8-2.5 6.7-3.8 7.7-6 .5 2.1 2.9 3.9 3.4 4.3 1 .5 2.8-.2 3.4 0s1.1 4.5.9 6c1.2.4 2.1-1.6 2.6-2.6.7-2.5.7-6.2 0-9.4-1.1-2.8-5.8-4.5-6.9-5.1-.3-1 5.5-3.4 6-3.4 1 .2 1.2 2.9 0 4.3 2.6-1 3.5-2.4 4.3-3.4 0-3.7 2.8-5.2 3.4-5.1 1.9.1 2.2 2.9.9 5.1 8.5-2.9 6.5-9.5 9.4-10.2 50.9-7.4 63.5-48.6 60.8-76.9 2.9 1 6 1 6 1.7-2.1 1.3-3.4 4-3.4 5.1 1.8 6.2 6 6 6 6s-1.9-2-1.7-3.4c2.4-.1 2.9-3.2 2.6-4.3 3.4-.3 8.5 6.2 8.6 6.8 1.4.6 2.8-.1 3.4 0 .7.1.1 1 0 1.7 1.9-.1 1.9-2.5.9-3.4-.7-5.3-6.3-6.1-6-6.8-.2-2.2 4.4-2.6 5.1-2.6 1.1.1 1 .9 1.7.9.7-.7 1.6-1 2.6-.9.4 0 1.6 1.1 1.7.9.8-4.1-3.4-6.6-4.3-6.6M40 109.1c1-.3 1.4-.9 2.6-.9 1.1 0 3.4.9 3.4.9s1.6-7.3-4.3-7.7c-1.8.3-2 1.5-2.6 4.3-.7.1-3.4-1.7-3.4-1.7s.1 4.6 4.3 5.1" class="st1"/><path d="M68.3 90.3c-2.8-1.9-5.1-3.3-7.7-4.3-9.6 9.3-5.7 26-19.7 26.5-1.9-.2-5.3-.2-7.7-6-1.6 1.6-2.6 3.7-2.6 6 0 3.1 2.4 8.7 9.4 8.5 5-.1 9.4-4.3 9.4-4.3s-3.6 7.3-12 7.7c-.9 0-12.1-1.8-10.3-15.4-1.1.7-4.4 2.4-5.1 9.4-.2 1.9 2.8 16 16.3 11.1.1 1.1-3.7 5.9-12 .9 2.3 6.6 8.2 6 10.3 6 18 .8 13.7-32.3 31.7-46.1" class="st1"/></svg>