<svg xmlns="http://www.w3.org/2000/svg" xml:space="preserve" viewBox="0 0 245 245"><path d="M0 122.5C0 190 55 245 122.5 245S245 190 245 122.5 190 0 122.5 0 0 55 0 122.5" style="fill:#f7931a"/><path d="M180.5 108c4.9-23.6-27-32-27-32l5.5-22-13.5-3.5-5 21.5-11-2.5L135 48l-13.5-3.5-6 22-27-6.5L85 74.5 96.5 77s6.1 3 4.5 8c-1.2 4.6-15 60-15 60s-.7 3.9-6.5 3c-5-1.2-9-2.5-9-2.5l-7 16 27 7-5.5 22 13.5 3.5 5.5-22 10.5 2.5-5.5 22 14 3.5 5-22s41.8 10.2 48-19.5c7.7-24.6-12.5-31.5-12.5-31.5s14.9-3.2 17-19m-31 42.5c-3.9 17.2-41 5-41 5l7.5-29s39.1 4.4 33.5 24M154 106c-2.9 17.5-34.5 6.5-34.5 6.5l6.5-27s30.8 4.7 28 20.5" style="fill:#fff"/></svg>