<svg xmlns="http://www.w3.org/2000/svg" xml:space="preserve" id="BTCP" x="0" y="0" version="1.1" viewBox="0 0 245 245"><style>.st1{fill:#fff}</style><path id="Main_copy_24" d="M0 122.5C0 190 55 245 122.5 245S245 190 245 122.5 190 0 122.5 0 0 55 0 122.5" style="fill:#272e64"/><path id="BTCP-2" d="M163 127.5s15.4-3.7 17.5-19.5c4.9-23.6-27-32-27-32l5.5-22-13.5-3.5-5 21.5-11-2.5L135 48l-13.5-3.5-6 22-27-6.5L85 74.5 96.5 77s6.1 3 4.5 8c-1.2 4.6-15 60-15 60s-.7 3.9-6.5 3c-5-1.2-9-2.5-9-2.5l-7 16 27 7-5.5 22 13.5 3.5 10-38.5s7.9-28.2 8-28.5c32.7 5.8 46.5.5 46.5.5m-37-42s30.8 4.7 28 20.5c-2.9 17.5-34.5 6.5-34.5 6.5z" class="st1"/><path id="Addon" d="M109.5 196.5 119 158s26.1 6.9 30.5-6c3-11.2-6-17-6-17s16.2.6 26.5-5c1.3 2 9.4 6.7 7.5 22.5-6 36-39.2 24.9-49 25.5-.3 1.1-5.5 22-5.5 22z" class="st1"/></svg>