<svg xmlns="http://www.w3.org/2000/svg" xml:space="preserve" id="BitcoinZ" x="0" y="0" version="1.1" viewBox="0 0 245 245"><style>.st2{fill:#fff}</style><path id="Main_copy_12" d="M0 122.5C0 190 55 245 122.5 245S245 190 245 122.5 190 0 122.5 0 0 55 0 122.5" style="fill:#42abcc"/><path id="Circle" d="M147.5 201.4c-7.8 2.5-16 3.8-24.2 3.9-45.8.5-83.4-36.2-84-82-.5-45.8 36.2-83.4 82-84 45.8-.5 83.4 36.2 84 82 .1 7.9-.9 15.7-3 23.3" style="fill:none;stroke:#fff;stroke-width:15;stroke-linecap:round"/><path d="M156 131c-2.8-11.6-17-13.5-17-13.5s10-5.8 6-21c-3.9-13.4-15.9-13.2-18.5-13-2.8.6-5.5 1-5.5 1s-3.6.5-3.5-1.5c-.4-1.9-1.5-6-1.5-6s-.9-2.1-3-1.5c-2.1.5-4.1 1.2-6 2-1.4.5-1 3-1 3l1 5s.4 2-1.5 2.5-16 3.5-16 3.5-5 2.1-4 7 12.8 57.5 14 62 7 4 7 4L121 161s2.7-.6 3 1.5l1.5 6s.4 2 2.5 1.7c2.1-.4 6.5-1.7 6.5-1.7s1.6-.6 1-3.5-1-5-1-5-.7-1.5 2-2.5c2-.5 24.8-3.8 19.5-26.5m-50-19.5c-1.7-7.8 4-9.5 4-9.5l10.5-2.5s7.2-1.7 9 5.5-4.5 9.5-4.5 9.5l-11.5 2.5s-5.8 2.3-7.5-5.5m28 31.5-14 3.5s-7.2.8-7.5-6.5c-2.6-7.4 3-9 3-9l13.5-3s6.5-2.8 9 5-4 10-4 10" class="st2"/><path id="Z" d="M167 159h20s1.8.7 2 2.5c.1.8.1 1.7 0 2.5-.1.5-.2 1-.5 1.5 0 0-11.1 13.8-12.5 15.5-1 2.6 1.5 3 1.5 3h9.5s2 .4 2 3-1.5 3.5-1.5 3.5H166s-1.8-1-2-2.5q-.15-1.5 0-3c1.1-1.5 13.5-16.5 13.5-16.5.5-1.1.1-2.4-1-3h-10s-1.9.6-2-3 2.5-3.5 2.5-3.5" class="st2"/></svg>