<svg xmlns="http://www.w3.org/2000/svg" xml:space="preserve" viewBox="0 0 245 245"><path d="M0 122.5C0 190 55 245 122.5 245S245 190 245 122.5 190 0 122.5 0 0 55 0 122.5" style="fill:#eba809"/><circle cx="122.5" cy="122.5" r="83" style="fill:none;stroke:#fff;stroke-width:13;stroke-linecap:round;stroke-linejoin:round"/><path d="M74.5 74.5h30v-15h14v15h8.5v-15h12.5v15h5c12.5 0 23.5 15 22.5 27.5 0 10-9 16.5-9 16.5s14 6 14 23.5c0 20-15 27.5-22.5 27.5h-10V182H127v-12.5h-9V182h-13.5v-12.5h-30l9-16.5H92V89.5h-7.5zm32.5 15V113h35s8.5-3.5 8.5-11c0-10-8.5-12.5-8.5-12.5zm0 40v24h40s10-1.5 10-11.5-10-12.5-10-12.5z" style="fill:#fff"/></svg>