<svg xmlns="http://www.w3.org/2000/svg" xml:space="preserve" id="Bithereum" x="0" y="0" version="1.1" viewBox="0 0 245 245"><style>.st0{fill:#f8c545}</style><path id="Full" d="M0 122.5C0 190 55 245 122.5 245S245 190 245 122.5 190 0 122.5 0 0 55 0 122.5" class="st0"/><path id="Eth" d="m122.5 38-52 86 52 30.5m0 0 52-30.5-52-86m0 169 52-73-52 30.5-52-30.5z" style="fill:#fff"/><path d="M134.5 112c1.9-2 3-4.7 3-7.5C137.5 94.6 127 94 127 94v-4h-6.5v4h-3v-4H111v4h-5v7h3.5v23.5H106v7h5v3h6.5v-3h3v3h6.5v-3s12-.7 12-11.5c0-5-4.5-8-4.5-8M116 101h11.1s3.4.5 3.4 4c0 3.4-3.4 4-3.4 4H116zm11.6 23.5H116v-9h11.6s4.4.1 4.4 4.5-4.4 4.5-4.4 4.5" class="st0"/></svg>