<svg xmlns="http://www.w3.org/2000/svg" xml:space="preserve" viewBox="0 0 490 490"><path d="M0 245c0 135.1 109.9 245 245 245s245-109.9 245-245S380.1 0 245 0 0 109.9 0 245" style="fill:#00a9e0"/><path d="M213.5 288.2 139 215v87.7h68.1c1.2-5.2 3.3-10.1 6.4-14.5m-5.9 29.7H139c1.6 23.3 10.8 45.4 26.2 62.9l48.3-48.1c-2.9-4.5-4.9-9.5-5.9-14.8m107.1-86.3c-17.6-15.3-39.7-24.5-63-26.1v68.2c5.2.9 10.2 3 14.4 6.1zm-38.2 99.6 47.7 47.7c14.5-17.2 23.3-38.5 24.9-61H282c-1.1 4.7-2.9 9.2-5.5 13.3m6.1-28.5H351c-1.6-23.3-10.8-45.4-26.2-62.9l-48.3 48.1c2.9 4.5 4.9 9.5 6.1 14.8m-107.3 88.2c17.6 15.3 39.7 24.5 63 26.1v-68.2c-5.2-.9-10.2-3-14.4-6.1zm78.3-42.1V417c23.3-1.5 45.5-10.7 63-26.1l-48.1-48.2c-4.5 3-9.6 5.1-14.9 6.1M139.3 192.6c18.3 18.2 75.9 75.6 85.5 85.2 4.2-2.5 8.8-4.3 13.5-5.4v-111L139 74c0 .1.3 115.9.3 118.6" style="fill:#fff"/></svg>