<svg xmlns="http://www.w3.org/2000/svg" width="245.2" height="245.2"><path d="M.2 122.7c0 67.5 55 122.5 122.5 122.5s122.5-55 122.5-122.5S190.2.2 122.7.2.2 55.2.2 122.7"/><g fill="#fcfcfc" data-name="download (1)"><path d="M122.672 33.252a89.4 89.4 0 0 0-63.13 152.581 89.347 89.347 0 1 0 63.13-152.581m0 169.83a80.459 80.459 0 1 1 80.377-80.459 80.46 80.46 0 0 1-80.377 80.459" data-name="Path 475052"/><path d="M74.638 163.391a60.18 60.18 0 0 1-1.337-47.657 57.41 57.41 0 0 1 52.614-35.563l.037-8.046v-1.528h-1.677a68.25 68.25 0 0 0-44.933 19.186A67.12 67.12 0 0 0 60.1 129.814a62.9 62.9 0 0 0 12.805 45.8l.161.2a49.8 49.8 0 0 0 14.854 13 70.85 70.85 0 0 0 31.658 8.714c-19.101-3.513-36.659-16.572-44.94-34.137" data-name="Path 475053"/><path d="M171.449 173.957c-1.857.173-3.757.309-5.632.415-15.813.891-33.285.514-47.242-7.959a41 41 0 0 1-10.194-8.714c-10.045-11.957-9.692-30.048 3.15-39.908 11.2-8.591 28.049-6.963 37.073 4.023.8.978 2.55 3.2 2.55 3.2s2.952-1.553 3.887-2.018l.3-.142.192-.1.508-.248.248-.124 2.228-1.1 1.238-.619-.037-.062a37.1 37.1 0 0 0-10.187-11.1 37.6 37.6 0 0 0-27.152-6.585c-15.361 2.327-28.074 14.155-30.605 29.547-2.612 15.906 5.354 31.162 18.444 40.031 13.616 9.209 30.711 10.491 46.852 9.828 3.782-.155 11.493-.8 11.475-.935a81 81 0 0 0 8.795-8.324s-5.099.826-5.891.894" data-name="Path 475054"/><path d="M144.718 188.309q-2.9-.068-5.787-.347c-15.9-1.523-32.128-7.538-42.619-20.053-9.729-11.6-13.82-28.049-9.067-42.594a41.92 41.92 0 0 1 55.034-25.994s1.857-4.1 2.067-4.487v-.068l.068-.142.136-.291c.619-1.281 1.182-2.581 1.813-3.843-13.35-4.772-27.74-5.013-40.811.935a51.853 51.853 0 0 0-20.016 78.249c5.713 7.644 13.616 13.542 22.052 17.949 13.4 6.919 32.685 7.8 34.04 7.5 6.653-1.584 16.2-6.14 18.153-7.644a79 79 0 0 1-10.744.842q-2.136.043-4.319-.012" data-name="Path 475055"/></g></svg>