<svg xmlns="http://www.w3.org/2000/svg" width="245" height="245"><path fill="#f4991a" d="M0 122.5C0 190 55 245 122.5 245S245 190 245 122.5 190 0 122.5 0 0 55 0 122.5"/><g fill="#fff" data-name="Group 9061"><path d="M171.866 120.189c7.387-3.166 13.06-7.387 17.149-12.928a32.33 32.33 0 0 0 6.2-19.656c0-9.894-3.958-17.413-11.741-22.69S164.474 57 149.703 57H88.757a6.354 6.354 0 0 0-6.2 5.013l-8.047 40.5a5.3 5.3 0 0 0 5.277 6.332h25.592a5.484 5.484 0 0 0 5.277-4.353l3.166-15.83a6.25 6.25 0 0 1 6.2-5.013h20.975c10.29 0 15.566 3.43 15.566 10.29q0 7.321-5.145 11.081c-3.43 2.506-8.443 3.826-15.039 3.826h-22.162a5.5 5.5 0 0 0-5.277 4.221l-3.562 17.545a3.044 3.044 0 0 0 3.034 3.694h28.89c4.749 0 8.443.923 11.213 2.77s4.089 4.617 4.089 8.311c0 5.145-1.847 8.97-5.541 11.609s-8.839 3.958-15.566 3.958h-27.042a4.158 4.158 0 0 1-4.089-5.013l3.43-17.281a3.552 3.552 0 0 0-3.43-4.221H72.527a5.484 5.484 0 0 0-5.277 4.353l-8.707 43.8a4.158 4.158 0 0 0 4.094 5.008h66.751c17.809 0 32.32-3.562 43.4-10.554s16.622-17.281 16.622-30.869a26.77 26.77 0 0 0-4.617-15.566 30.08 30.08 0 0 0-12.927-10.422" data-name="Path 472459"/><path d="M53.007 116.231h10.817a2.66 2.66 0 0 0 2.506-2.111l3.694-18.6a2.58 2.58 0 0 0-2.506-3.034H56.701a2.66 2.66 0 0 0-2.506 2.111l-3.694 18.6a2.452 2.452 0 0 0 2.506 3.034" data-name="Path 472460"/><path d="m59.867 143.539 3.694-18.6a2.58 2.58 0 0 0-2.507-3.035H50.237a2.66 2.66 0 0 0-2.509 2.111l-3.694 18.6a2.58 2.58 0 0 0 2.506 3.034h10.821a2.66 2.66 0 0 0 2.506-2.11" data-name="Path 472461"/><path d="M99.839 114.121H76.225a6.635 6.635 0 0 0-6.464 5.277l-.791 3.823a4.43 4.43 0 0 0 4.353 5.277h24.273a2.416 2.416 0 0 0 2.375-1.847l1.979-10.024a2.18 2.18 0 0 0-2.111-2.506" data-name="Path 472462"/></g></svg>