<svg xmlns="http://www.w3.org/2000/svg" xml:space="preserve" viewBox="0 0 490 490"><path d="M0 245c0 135.1 109.9 245 245 245s245-109.9 245-245S380.1 0 245 0 0 109.9 0 245" style="fill:#00acac"/><path d="M158.2 237.9c5.7 1.9 26.3 27.4 27.3 30.6-4.5-.4-19.7-2.7-22.7-4.5-6-3.6-7.4-21.1-4.6-26.1m4.1 56.3c7.6 15.2 16.6 39.9 14.9 58.1-.4 3.8-1.3 5.8-1.9 9.1 14.1-17 32.9-26.5 53.8-32.7-3.4-.1-15.5 3.3-20.7 4.1-8.5 1.4-5.1-5.9-2.7-17.4 5.5-27-1.2-45.3-9.2-71.3-6-19-10-41.7-4.7-62.3 4.2-16.2 15.6-32.9 27.3-44.2-4.7-.7-43.1 4.9-47.2 3.9-1.7-.4-6.4-3.3-9-4.3-20.8-8.1-42-7.3-60.2 6.1-13.1 9.6-22.6 26-21.7 42.5 1.4-6.7 2.7-9.6 9.5-20.1 10.5-14.5 33.4-28 48.5-15.7 1.8 1.5 5.2 5.1 6.1 8.2-2.8 1.5-6.6 4.2-9.4 6.1-10.3 7.1-19.6 15.7-27.6 25.3-6.5 7.9-17.2 26-18.5 34.8 5.8-1.2 7-2.2 13.3-.1 24.3 8.2 50.3 51.6 59.4 69.9m170.6-56.5c1.2 7.7 2.9 22-4.8 26.3-3.7 2-17.5 4-22.6 4.4.3-1.4 20.9-28.2 27.4-30.7m-49.1 48.6c-3 24.1 6.2 39.9 3.3 46.3-6 1.6-20.8-4.4-25.4-3.8 18.2 6.8 35 12.1 49 26.6 1.6 1.7 3.1 4.4 4.9 6.2-1.3-7.4-2.8-7.7-2.1-18.2.5-6 1.5-12 3.1-17.9 5.6-20.8 15.5-40.1 26.8-57.6 8.3-12.9 22.1-30.3 34.8-38.5 7.2-4.7 12.8-8.1 23-5 0-4-7.2-18.1-9.1-21.3-10.3-16.9-21.2-27.6-37.1-39-2.8-2-6.4-3.9-9.1-6.1.3-2.7 4.4-7.2 6.2-8.5 10.2-7.8 23.8-4 33.2 1.8 11.2 7.1 19.5 18.1 23.4 30.8l1.2 2.6c.6-6.9-2-16.1-4.7-21.4-15.5-31.5-51.9-38.7-82-24.1-1.2.6-3.2 1.9-4.3 2.2-4.3.9-38.2-4.3-47.1-4.1 1.1 1.9 2.8 2.9 4.4 4.8 10.2 11.2 19 24.7 22.9 40.1 9.6 38.1-10.7 68-15.3 104.1M245.5 399c11-1.5 35.3-17.2 46.2-23.1-2.3-8.3-9.5-17.1-16.3-21.8-8.7-6.1-19.2-9.2-29.8-8.7-15.3.2-31.3 7.2-40.4 18-2.1 2.5-6.3 8.4-7.2 12.7 3 1.1 18.7 10.7 22.5 13 6.4 3.9 15.3 10.1 25 9.9" style="fill:#fff"/></svg>