<svg xmlns="http://www.w3.org/2000/svg" xml:space="preserve" viewBox="0 0 245 245"><path d="M0 122.5C0 190 55 245 122.5 245S245 190 245 122.5 190 0 122.5 0 0 55 0 122.5" style="fill:#00c3e2"/><path d="M197.6 103.9C193.2 89.2 183 81.2 183 81.2l-20.9 20.2s15.8 19.6 3.1 42.6c-11.1 22.3-38.5 25.3-70.1 25.1.3-2.2 3.8-23 3.8-23l73.9-72.2h-61l5.9-34.9H88.2L77.7 99H115l-44.6 40.1-9.4 54.4h68c25-1 55.2-20.9 65.5-44.6 4.9-11.4 7.8-30.7 3.1-45m-87.5 87.5h-47l9.4-51.3 48.1-43.6H80.2l32.4-20.2h54L96.9 145l-4.5 26.5h24c15.3-.5 29.3-6.3 29.3-6.3z" style="fill:#fff"/></svg>