<svg xmlns="http://www.w3.org/2000/svg" xml:space="preserve" viewBox="0 0 490 490"><path d="M0 245c0 135.1 109.9 245 245 245s245-109.9 245-245S380.1 0 245 0 0 109.9 0 245"/><path d="M242.6 78 100 162v168.5L244.1 413 390 330.7V160.6zm-80 285.1c-2.6 0-4.7-2.2-4.6-4.8 0-.4.1-.8.2-1.2l-52.7-29.7-.1-46.1c-2.5-.9-3.7-3.7-2.8-6.2.5-1.3 1.5-2.3 2.8-2.8h.2c.4-.2.9-.2 1.4-.2s.9.1 1.3.2c2.5.9 3.9 3.6 3 6.1-.5 1.4-1.6 2.5-3 3l.1 44.3 51.4 28.9c.8-.7 1.8-1 2.8-1 2.6.1 4.7 2.3 4.6 5-.1 2.4-2.1 4.5-4.6 4.5M375.5 322l-131.3 72-129.7-74V170.4l128.1-75.1 133 75.7zm7.7-104.4c-2.4 0-4.4-1.9-4.4-4.3 0-1.9 1.3-3.5 3.1-4l.1-43-52.7-28.5c-.7.4-1.5.7-2.3.7-2.4 0-4.3-1.9-4.4-4.3.1-2.4 2.1-4.3 4.6-4.3 2.3.1 4.2 2 4.3 4.3q0 .75-.3 1.5l53.7 29.1-.1 44.6c1.8.6 3 2.2 3 4-.2 2.3-2.2 4.2-4.6 4.2m-24.3 92.6V179.5L244 246v127.1zM331 298.6l.1 1.3-.7.9-9.5 5-1.4.7-1.1-1.3-15.9-18.5-16.6 37.9-13.8 7.8-1.5.4-1.1-.8 24.3-55.5-21.9-25-.1-1.3 1.8-1.4 9.3-5.3 16.5 19.2 16.6-38.8 13.8-8 2.1.9-.1.7-23.2 55.1zM132.1 178.5v130.9l112 63.6V245.9zm83.5 80.3c0 1-.4 1.9-1.2 2.6l-44.1 34c-.6.5-.5 1.4.4 1.9l40.4 23.6c.9.6 1.5 1.5 1.6 2.6l.2 8.9c0 .9-1.7.7-2.6.1l-52.7-31.2c-.9-.6-1.4-1.5-1.5-2.6l-.1-8.8c.1-.9 1.4-2 2.1-2.5l43.5-33.8c.7-.5.5-1-.4-1.6l-38-22.7c-.9-.6-1.5-1.6-1.6-2.7l-.1-8.3c0-.9 1.2-1.2 2.1-.6l50.1 29.7c1 .7 1.7 1.8 2 3.1zm67.8-82c-9.2-6.4-21.3-3.9-29.6.2l-21.7 12.5c9.8 5.4 16.2 9.5 23.7 13.7 10.2-5.5 9.9-5.4 23.8-12.9 0 .1 13.7-6.1 3.8-13.5m-41.5-19.1c-4.9-3.2-13.3-2-19 1.3-3.4 2-13.7 8.1-20.9 12.3 6.2 3.5 10.9 6.8 19.3 11.6 6.3-3.2 6-3 22.3-12.7-.1.1 8.3-6-1.7-12.5m1.6-43.8L132 178.5 244 246l114.9-66.5zm61.4 86.9-6.7 4c-.8.4-1.7.4-2.5 0l-8.3-4.6c-3 1.8-6 3.5-8.9 5.2l8.1 4.8c.4.2.6.6.5 1-.1.2-.2.4-.5.5l-8.3 4.9c-.8.4-1.7.4-2.5 0l-8.2-5c-6.9 3.9-12.3 7.1-12.3 7.1L178.7 172l10.9-6.5-8.4-5c-.4-.1-.6-.6-.5-1 .1-.2.3-.4.5-.5l7.8-4.6c.8-.4 1.7-.4 2.5 0l8.4 5 8.7-5.2-8.4-5.2c-.4-.2-.6-.6-.4-1.1.1-.2.2-.4.5-.4l6.7-4c.8-.4 1.7-.4 2.5 0l8.6 5.1 1.2-.7c4.8-2.5 20-4.4 29.3 1 13.4 7.7 10.9 14.9 10.9 14.9s21.2-4.4 36.2 6.9c13.8 12 5.2 22 2.9 23.1-.5.3-1 .6-1.5 1l8 4.7c.4.2.6.6.5 1-.3 0-.4.2-.7.3" style="fill:#fff"/></svg>