<svg xmlns="http://www.w3.org/2000/svg" width="236" height="236"><defs><linearGradient id="a" x1="-40" x2="40" y1="-56.569" y2="-56.569" gradientUnits="userSpaceOnUse"><stop offset="0" stop-color="#f1d961"/><stop offset="1" stop-color="#cda146"/></linearGradient></defs><g transform="translate(-.001 -.001)scale(2.95)"><circle cy="-56.569" r="40" fill="url(#a)" paint-order="stroke fill markers" style="fill:url(#a)" transform="rotate(135)"/><path fill="#252525" d="M28.582 22.5a10.941 10.941 0 1 0 10.95 10.95 10.956 10.956 0 0 0-10.95-10.95m0 17.4a6.456 6.456 0 1 1 6.456-6.455 6.477 6.477 0 0 1-6.456 6.455m32.254-8.04a9.2 9.2 0 0 1-1.15 4.477 12.6 12.6 0 0 0-3.928-2.165 4.9 4.9 0 0 0 .584-2.312 4.871 4.871 0 0 0-9.742 0 4.7 4.7 0 0 0 .584 2.312 12.6 12.6 0 0 0-3.929 2.165A9.35 9.35 0 0 1 51.474 22.5a9.37 9.37 0 0 1 9.362 9.36m-9.362 3.788A10.941 10.941 0 1 0 62.406 46.6a10.963 10.963 0 0 0-10.932-10.952m0 17.388a6.447 6.447 0 1 1 6.455-6.436 6.455 6.455 0 0 1-6.455 6.436m-13.53-4.868a9.365 9.365 0 0 1-18.73 0h4.494a4.871 4.871 0 1 0 9.742 0z"/></g></svg>