<svg xmlns="http://www.w3.org/2000/svg" width="245" height="245"><g transform="translate(-874 -625)"><circle cx="122.5" cy="122.5" r="122.5" fill="#d1884f" transform="translate(874 625)"/><path fill="#fff" fill-rule="evenodd" d="M948.287 691.073a19.9 19.9 0 1 1 39.425-3.8v24.7c2.85 0 5.7-.475 8.55-.475a46 46 0 0 1 8.075.475v-24.7a20.07 20.07 0 0 1 19.95-19.95c12.35 0 21.85 11.4 19.95 23.75l-5.225 28.975c18.525 8.075 32.775 22.325 32.775 39.9v10.925c0 14.725-9.5 27.075-23.275 35.15-13.775 8.55-31.825 13.3-52.25 13.3s-38.475-4.75-52.25-13.3c-13.3-8.075-22.8-20.425-22.8-35.15v-10.925c0-17.575 13.775-31.825 32.3-39.9Zm83.6 32.775 6.175-34.2a14.04 14.04 0 0 0-13.775-16.625 13.785 13.785 0 0 0-13.775 13.775v31.35a27 27 0 0 0-6.175-.475c-2.85 0-5.225-.475-8.075-.475a51.6 51.6 0 0 0-8.55.475c-1.9 0-4.275.475-6.175.475v-30.875a13.7 13.7 0 1 0-27.075 2.85l6.175 34.2c-19.95 7.6-33.25 20.9-33.25 36.1v10.925c0 23.275 30.875 42.275 68.875 42.275s68.875-19 68.875-42.275v-10.925c.475-15.675-12.825-28.975-33.25-36.575" data-name="Path 33"/><path fill="#fff" d="M996.262 814.148a106.4 106.4 0 0 1-26.793-3.332 80.5 80.5 0 0 1-21.895-9.077 48.4 48.4 0 0 1-14.769-13.441 28.6 28.6 0 0 1-5.418-16.425v-10.125c.139 11.137 7.308 21.628 20.188 29.54 13.027 8 30.318 12.41 48.688 12.41s35.66-4.407 48.688-12.41 20.188-18.6 20.188-29.866v-.474h.479v10.925h-.474a28.6 28.6 0 0 1-5.418 16.425 48.4 48.4 0 0 1-14.77 13.441 80.5 80.5 0 0 1-21.895 9.077 106.4 106.4 0 0 1-26.799 3.332" data-name="Subtraction 3"/><path fill="#fff" d="M977.262 757.098c0 6.175-3.325 11.4-7.6 11.4s-7.6-5.225-7.6-11.4 3.325-11.4 7.6-11.4 7.6 5.225 7.6 11.4" data-name="Path 37"/><path fill="#fff" d="M1029.987 757.098c0 6.175-3.325 11.4-7.6 11.4s-7.6-5.225-7.6-11.4 3.325-11.4 7.6-11.4 7.6 5.225 7.6 11.4" data-name="Path 34"/></g></svg>