<svg xmlns="http://www.w3.org/2000/svg" xmlns:xlink="http://www.w3.org/1999/xlink" width="250" height="250"><defs><linearGradient xlink:href="#a" id="c" x1="17.337" x2="80" y1="74.339" y2="74.339"><stop offset="0" stop-color="#700000"/><stop offset=".327" stop-color="#730000"/><stop offset=".59" stop-color="#7d0000"/><stop offset=".83" stop-color="#8e0000"/><stop offset="1" stop-color="#9f0000"/></linearGradient><linearGradient xlink:href="#a" id="b" x1="17.586" x2="17.586" y1="68.427" y2="80.044"><stop offset=".35" stop-color="#dfdfdf"/><stop offset=".645" stop-color="#ddd"/><stop offset=".752" stop-color="#d6d6d6"/><stop offset=".828" stop-color="#cbcbcb"/><stop offset=".889" stop-color="#bababa"/><stop offset=".941" stop-color="#a4a4a4"/><stop offset=".987" stop-color="#898989"/><stop offset="1" stop-color="gray"/></linearGradient><linearGradient xlink:href="#a" id="e" x1="48.669" x2="48.669" y1="68.69" y2="80"><stop offset=".35" stop-color="#cf2000"/><stop offset=".645" stop-color="#cd1f00"/><stop offset=".752" stop-color="#c61d00"/><stop offset=".828" stop-color="#bb1900"/><stop offset=".889" stop-color="#aa1300"/><stop offset=".941" stop-color="#940c00"/><stop offset=".987" stop-color="#790300"/><stop offset="1" stop-color="#700000"/></linearGradient><linearGradient xlink:href="#b" id="f" x1="46.827" x2="46.827" y1="68.69" y2="80"/><linearGradient xlink:href="#a" id="g" x1="17.337" x2="80" y1="55.315" y2="55.315"><stop offset="0" stop-color="#cf2000"/><stop offset=".021" stop-color="#d12201"/><stop offset=".244" stop-color="#e23309"/><stop offset=".487" stop-color="#ec3d0e"/><stop offset=".791" stop-color="#ef4010"/><stop offset=".841" stop-color="#ec3d0f"/><stop offset=".882" stop-color="#e2330d"/><stop offset=".919" stop-color="#d12208"/><stop offset=".954" stop-color="#b90a03"/><stop offset=".966" stop-color="#af0000"/><stop offset="1" stop-color="#ef4010"/></linearGradient><linearGradient xlink:href="#a" id="h" x1="17.337" x2="80" y1="55.687" y2="55.687"><stop offset="0" stop-color="#dfdfdf"/><stop offset=".021" stop-color="#e1e1e1"/><stop offset=".244" stop-color="#f2f2f2"/><stop offset=".487" stop-color="#fcfcfc"/><stop offset=".791" stop-color="#fff"/><stop offset=".841" stop-color="#fcfcfc"/><stop offset=".882" stop-color="#f2f2f2"/><stop offset=".919" stop-color="#e1e1e1"/><stop offset=".954" stop-color="#c9c9c9"/><stop offset=".966" stop-color="#bfbfbf"/><stop offset="1" stop-color="#fff"/></linearGradient><linearGradient xlink:href="#b" id="d"/><linearGradient id="a" gradientUnits="userSpaceOnUse"/></defs><circle cx="125" cy="125" r="125" fill="#cdcdcd" fill-rule="evenodd"/><path fill="#0e3ca5" d="M105.685 164.864c4.822 17.889 22.123 31.532 30.86 30.969.306-.02 33.138-6.157 51.112-36.26 13.983-23.432 9.224-46.054-9.798-46.547-6.845.5-81.358 17.763-72.17 51.843m70.395-114.892-.019-.015.027-.017a83.486 83.708 0 0 0-88-12.73 49.224 49.355 0 0 0-5.275 2.597c-1.172.626-2.344 1.247-3.482 1.934l.278.084a38.045 38.146 0 0 0-8.812 8.364c-23.975 31.735 56.344 54.814 99.292 54.884 19.748 14.219 25.293-40.034 5.991-55.101"/><path fill="#5493f7" d="M92.943 50.617C81.908 67.25 45.153 78.966 39.109 77.143l-.041-.077q.373-.755.754-1.497A88.438 88.673 0 0 1 66.03 44.91q3.393-2.495 7.023-4.663a25.983 26.052 0 0 1 12.152-3.244c16.368.319 7.82 13.486 7.739 13.614m-9.056 117.518c.793 5.224-.019 25.866-1.085 27.599-.918.058-2.83.174-8.368-2.942a87.276 87.508 0 0 1-8.405-5.468 88.031 88.265 0 0 1-31.542-43.322 87.457 87.69 0 0 1-3.334-13.576 88.964 89.2 0 0 1 0-28.623 87.517 87.75 0 0 1 3.334-13.576q.442-1.329.923-2.64c6.344 8.46 13.685 16.112 19.924 24.657 5.943 8.137 14.119 21.398 15.782 24.232 10.329 17.593 11.976 28.447 12.764 33.664m122.11-52.027a87.759 87.992 0 0 1-6.126 32.407c-10.367 11.171-80.244-16.324-80.929-16.624-9.56-4.199-38.65-16.977-41.275-37.041-3.764-28.885 54.654-49.007 80.33-49.77 3.079.035 12.448.147 17.911 4.592a87.785 88.018 0 0 1 30.089 66.434m-47.305 78.26c-7.619 3.563-16.004.966-13.825-6.472 4.183-14.282 40.712-28.926 48.779-29.733.995-.097 1.417.582.976 1.358a88.892 89.128 0 0 1-35.923 34.834"/><path fill="url(#c)" d="M17.337 77.255a2.55 2.55 0 0 0 2.328 2.713c30.7.211 60.335-1.2 60.335-5.8 0-13.924-62.663 3.087-62.663 3.087" transform="matrix(2.41095 0 0 2.41736 27.124 21.61)"/><path fill="url(#d)" d="M17.588 78.389v-.007z" transform="matrix(2.41095 0 0 2.41736 27.124 21.61)"/><path fill="url(#e)" d="m61.521 68.919 5.5 5.5c7.72-1.257 12.5-1.8 12.5-.12 0 4.245-29.171 5.7-59.841 5.494a2 2 0 0 1-.244-.014 2.36 2.36 0 0 1-1.846-1.389v-.007a3 3 0 0 1-.138-.367 3 3 0 0 0 .138.367v.007a2.33 2.33 0 0 0 2.087 1.387c3.822-.024 7.622-.191 11.344-.459l-4.386-4.385-9.3 2.323a2.55 2.55 0 0 0 2.34 2.713c30.691.234 60.286-.73 60.323-5.8.002-5.006-8.098-6.014-18.477-5.25" transform="matrix(2.41095 0 0 2.41736 27.124 21.61)"/><path fill="url(#f)" d="m67.021 74.418-5.5-5.5c-11.475.844-25.726 3.852-34.888 6.013l4.386 4.385c14.059-1.008 27.021-3.435 36.002-4.898" transform="matrix(2.41095 0 0 2.41736 27.124 21.61)"/><path fill="url(#g)" d="M19.68 37.824a2.34 2.34 0 0 0-2.343 2.343v37.088a2.343 2.343 0 0 0 2.328 2.345C50.364 79.371 80.038 69.21 80 74.17V32.4c.038-4.966-29.626 5.194-60.32 5.424" transform="matrix(2.41095 0 0 2.41736 27.124 21.61)"/><path fill="url(#h)" d="M30.816 37.341v41.773c13.841-1.051 26.717-3.561 35.821-5.079V32.26c-9.104 1.518-21.98 4.029-35.821 5.081M61.15 58.089l-1.811 1.785-2.1 2.072a1.18 1.18 0 0 0-.355 1.128l.685 2.133c-.9.051-1.762.079-2.619.1l-2.566.031-2.633.071c-.239.011-.6.478-.6.755l.071 2.855.062 2.49.073 2.854-1.311.2.124-2.89.11-2.521.124-2.89c0-.275-.4-.611-.635-.549l-2.629.707-2.574.715c-.861.235-1.729.462-2.63.669l.688-2.332a.935.935 0 0 0-.358-1.025l-2.734-1.913-2.39-1.7-2.737-1.968 1.628-.907c.716-.323.516-.706.26-1.649l-.6-2.119-.6-2.12 2.284.267 2.287.249a.79.79 0 0 0 .811-.571l.587-2.112 1.8 1.808 1.8 1.793c.515.58 1.557.445 1.233-1l-.538-2.773-.47-2.421-.538-2.776 2.075.8a1.044 1.044 0 0 0 1.488-.4l1.426-2.861 1.415-2.871 2.86 4.874c.324.527.907.384 1.487-.032l2.064-1.4-.535 2.931-.468 2.556-.536 2.929c-.324 1.543.714 1.378 1.225.648l1.79-2.319 1.8-2.324.585 1.947a.588.588 0 0 0 .809.345l2.275-.871 2.27-.877-.6 2.279-.595 2.28c-.255 1.01-.456 1.448.256 1.578l1.618.476-2.1 2.082z" transform="matrix(2.41095 0 0 2.41736 27.124 21.61)"/></svg>