<svg xmlns="http://www.w3.org/2000/svg" xml:space="preserve" viewBox="0 0 490 490"><path d="M0 245c0 135.1 109.9 245 245 245s245-109.9 245-245S380.1 0 245 0 0 109.9 0 245" style="fill:#047fff"/><path d="m115 169.6 130 76.1V397h4l121-69.1s9-4.3 9-16v-44.1l-24 14v17c.1 7.1-.8 10.8-6 14-4.7 2.8-69.3 39.5-72 41.1s-8 3.3-8-5V231.7s-98.5-57.2-102-59.1c-5.5-4-3.6-8.4-1-10s67.9-38.9 72-41.1c5.7-2.7 11.1-1.8 14 0s17 11 17 11l23-15s-31-18.9-36-22c-7.3-3.7-16-3.3-23 1-5.2 2.9-97 55.7-115 67.1-4.1 3.4-3 6-3 6m-3 13 22 14v103.2c0 7.9 5 11 5 11l93 55.1v26l-112-65.1s-9-4.3-9-14 1-130.2 1-130.2m171-44 23-14s47.3 27.8 58 34.1c10.1 5.9 14 8.6 14 24s1 68.1 1 68.1l-24 14v-68.1c0-16.4-16-25-16-25z" style="fill:#fff"/></svg>