<svg xmlns="http://www.w3.org/2000/svg" width="256" height="256" viewBox="0 0 67.733 67.733"><g transform="translate(0 -229.267)"><circle cx="33.783" cy="263.105" r="23.156" style="opacity:1;fill:#f6f7ff;fill-opacity:1;fill-rule:nonzero;stroke:none;stroke-width:.73467046;stroke-linecap:round;stroke-linejoin:round;stroke-miterlimit:4;stroke-dasharray:none;stroke-dashoffset:0;stroke-opacity:1;paint-order:stroke fill markers"/><g style="fill:#262761"><g style="fill-rule:evenodd;stroke:none;stroke-width:1"><g style="fill-rule:nonzero" transform="translate(1.326 230.69)scale(1.44771)"><circle cx="33.672" cy="17.507" r="1.119"/><path d="M22.478.022C10.119.022.09 10.052.09 22.41S10.12 44.8 22.478 44.8s22.388-10.03 22.388-22.389S34.836.022 22.478.022M32.642 31.77c-2.642 2.91-6.403 4.59-10.299 4.59h-.022A13.95 13.95 0 0 1 11.933 31.7c-2.687-3-3.918-6.85-3.493-10.858C9.134 14.44 14.284 9.27 20.687 8.53c.537-.067 1.097-.09 1.634-.09 3.09 0 6.045 1.008 8.507 2.91a.6.6 0 0 1 .247.493c0 .202-.068.38-.224.515l-1.478 1.321a.9.9 0 0 1-.582.224.76.76 0 0 1-.492-.157 10.45 10.45 0 0 0-5.978-1.88c-3 0-5.866 1.298-7.858 3.537-2.015 2.261-2.956 5.194-2.597 8.216.537 4.814 4.433 8.71 9.268 9.247q.604.067 1.21.067c2.82 0 5.462-1.12 7.477-3.134a.9.9 0 0 1 .627-.27c.156 0 .336.046.47.135l1.634 1.075a.66.66 0 0 1 .291.47c0 .224-.067.425-.201.56m1.03-10.88a3.39 3.39 0 0 1-3.381-3.382 3.39 3.39 0 0 1 3.38-3.38 3.39 3.39 0 0 1 3.381 3.38 3.39 3.39 0 0 1-3.38 3.381"/></g></g></g></g></svg>