<svg xmlns="http://www.w3.org/2000/svg" xml:space="preserve" viewBox="0 0 490 490"><path d="M0 245c0 135.1 109.9 245 245 245s245-109.9 245-245S380.1 0 245 0 0 109.9 0 245"/><path d="M396.8 231.9c2.9-7.8 14.8-11.6 22-11.6h3.3v17.4c-4.1 0-8.3-.2-12.2 1.1-2.7.9-5.2 2.5-7 4.8-3.3 4.5-3.1 7.4-3.3 11.6-.2 4.1-.1 7-.1 11.1v30.8h-18.9V221H397zm-229.4 47.3C153.9 292.6 142.2 299 123 299c-32 0-54-22.5-54-54.1 0-32.5 25-53.9 54.3-53.9 17.1 0 33.4 7.6 44.5 20.6l-13.7 13.2c-9.2-9.9-19.3-15-31.3-15-19.2 0-34.8 14.9-34.8 35.1 0 21.2 15.1 35.4 35.3 35.4 12.6 0 21.2-5.2 30.9-14.9zm80.9 2.9c-8.1 11.6-18.8 16.8-34.7 16.8-24 0-39.5-17.8-39.5-40.1 0-20.8 14.9-40 39.2-40 23.9 0 40.1 17.2 40.1 41.3 0 1.7-.1 2.6-.1 4.3h-60.9c1.8 11.3 10.4 17.6 21.2 17.6 8.1 0 13.5-2.3 18.8-7.4zm-13.9-32.8c-2.6-8.9-10.7-14.3-20.8-14.3-9.4 0-16.6 4.7-20.3 14.3zm28.6-57.9h18.9v105.5H263zm102.7 90.7c-8.1 11.6-18.8 16.8-34.7 16.8-24 0-39.5-17.8-39.5-40.1 0-20.8 14.9-40 39.2-40 23.9 0 40.1 17.2 40.1 41.3 0 1.7-.1 2.6-.1 4.3h-60.9c1.8 11.3 10.4 17.6 21.2 17.6 8.1 0 13.5-2.3 18.8-7.4zm-13.9-32.8c-2.6-8.9-10.7-14.3-20.8-14.3-9.4 0-16.6 4.7-20.3 14.3z" style="fill:#fff"/></svg>