<svg xmlns="http://www.w3.org/2000/svg" xml:space="preserve" id="Chatcoin" x="0" y="0" version="1.1" viewBox="0 0 245 245"><style>.st2{fill:#fff}</style><path id="Main" d="M0 122.5C0 190 55 245 122.5 245S245 190 245 122.5 190 0 122.5 0 0 55 0 122.5" style="fill:#0a9dfb"/><g id="Chatcoin-2"><path id="Chat1" d="M86.5 168c10.7-5.8 24.5-14 24.5-14 3.8.4 7.7.4 11.5 0 7 .5 45.8-9.8 46.5-45.5-.1-19.4-16.7-43.4-46.5-46-33.2-2-60 18.7-60 44 0 27.7 23 39.5 23 39.5s.9 14 1 22" style="fill:none;stroke:#fff;stroke-width:7;stroke-linecap:round;stroke-linejoin:round"/><circle id="Round1" cx="92.5" cy="109.5" r="8.5" class="st2"/><circle id="Round2" cx="117" cy="109.5" r="8.5" class="st2"/><circle id="Round3" cx="141.5" cy="109.5" r="8.5" class="st2"/><path id="Chat2" d="M118 160s5.5.5 9-.5c3.3 3.5 14.5 5.5 14.5 5.5s2.5.4 13-1c3.1 1.2 9 3.5 9 3.5s-.4-5.3-.5-7c13-8.7 13-21 13-21s-.8-8.5-3.5-12c.9-2.2 1.6-4.6 2-7 0 0 7.5 5.8 7.5 19.5s-12.4 22.6-12.5 23.5c-.1 4.6 1.8 10.3 0 11-3.8 1.6-12.4-4.6-16-4.5-2.8.4-5.7.6-8.5.5-19.5-.4-27-10.5-27-10.5" class="st2"/></g></svg>