<svg xmlns="http://www.w3.org/2000/svg" width="256" height="256" viewBox="0 0 67.733 67.733"><g transform="translate(0 -229.267)"><circle cx="33.867" cy="263.133" r="32.411" style="opacity:1;fill:#01c38d;fill-opacity:1;fill-rule:nonzero;stroke:none;stroke-width:.8806985;stroke-linecap:round;stroke-linejoin:round;stroke-miterlimit:4;stroke-dasharray:none;stroke-dashoffset:0;stroke-opacity:1;paint-order:stroke fill markers"/><path d="m39.519 239.909-3.89 2.162v18.368l2.124 1.183v-13.989l7.292 4.055.007-.003 1.415.786 1.182-.653v-1.104l-9.896-5.496v-1.912l1.766-.981 10.248 5.7v5.072l-4.92 2.72-.166-.08c-.3-.144-.61-.218-.921-.218-1.17 0-2.124.946-2.124 2.107s.953 2.107 2.124 2.107c1.086 0 1.99-.813 2.1-1.892l.02-.182 4.965-2.745 4.605 2.561v11.332l-4.61 2.56-18.737-10.422v-18.872l-3.89-2.164-12.371 6.88v6.28l-5.683 3.156v13.802l5.683 3.16v6.29l12.372 6.881 3.89-2.163v-18.408l-2.125-1.18v14.028l-8.713-4.838-1.183.653v1.104l9.896 5.496v1.91l-1.765.983-10.248-5.7v-5.074l4.92-2.719.165.08c.3.144.61.218.921.218a2.12 2.12 0 0 0 2.124-2.107 2.117 2.117 0 0 0-2.124-2.106 2.106 2.106 0 0 0-2.1 1.892l-.018.18-4.966 2.747-4.605-2.562v-11.331l4.61-2.561 18.737 10.422v18.873l3.889 2.163 12.372-6.88v-6.28l5.683-3.155V256.24l-5.683-3.16v-6.291zm-21.554 8.115 10.248-5.7 1.766.982v1.911l-12.014 6.672zm1.102 5.67 10.912-6.062v12.13zm18.686 12.81 10.913 6.07-10.913 6.061zm0 16.456v-1.91l12.014-6.672v3.865l-10.248 5.7z" style="fill:#fff;fill-opacity:1;fill-rule:nonzero;stroke-width:1.35470462"/></g></svg>