<svg xmlns="http://www.w3.org/2000/svg" width="250" height="250"><defs><linearGradient id="a" x1="17.336" x2="80" y1="74.339" y2="74.339" gradientUnits="userSpaceOnUse"><stop offset="0" stop-color="#700000"/><stop offset=".327" stop-color="#730000"/><stop offset=".59" stop-color="#7d0000"/><stop offset=".83" stop-color="#8e0000"/><stop offset="1" stop-color="#9f0000"/></linearGradient><linearGradient id="b" x1="48.668" x2="48.668" y1="68.69" y2="80" gradientUnits="userSpaceOnUse"><stop offset=".35" stop-color="#cf2000"/><stop offset=".645" stop-color="#cd1f00"/><stop offset=".752" stop-color="#c61d00"/><stop offset=".828" stop-color="#bb1900"/><stop offset=".889" stop-color="#aa1300"/><stop offset=".941" stop-color="#940c00"/><stop offset=".987" stop-color="#790300"/><stop offset="1" stop-color="#700000"/></linearGradient><linearGradient id="c" x1="17.336" x2="80" y1="55.314" y2="55.314" gradientUnits="userSpaceOnUse"><stop offset="0" stop-color="#cf2000"/><stop offset=".021" stop-color="#d12201"/><stop offset=".244" stop-color="#e23309"/><stop offset=".487" stop-color="#ec3d0e"/><stop offset=".791" stop-color="#ef4010"/><stop offset=".841" stop-color="#ec3d0f"/><stop offset=".882" stop-color="#e2330d"/><stop offset=".919" stop-color="#d12208"/><stop offset=".954" stop-color="#b90a03"/><stop offset=".966" stop-color="#af0000"/><stop offset="1" stop-color="#ef4010"/></linearGradient><linearGradient id="d" x1="17.336" x2="80" y1="56.152" y2="56.152" gradientUnits="userSpaceOnUse"><stop offset="0" stop-color="#dfdfdf"/><stop offset=".021" stop-color="#e1e1e1"/><stop offset=".244" stop-color="#f2f2f2"/><stop offset=".487" stop-color="#fcfcfc"/><stop offset=".791" stop-color="#fff"/><stop offset=".841" stop-color="#fcfcfc"/><stop offset=".882" stop-color="#f2f2f2"/><stop offset=".919" stop-color="#e1e1e1"/><stop offset=".954" stop-color="#c9c9c9"/><stop offset=".966" stop-color="#bfbfbf"/><stop offset="1" stop-color="#fff"/></linearGradient></defs><circle cx="125" cy="125" r="125" fill="#cdcdcd" fill-rule="evenodd"/><path fill="#0e3ca5" d="M105.687 164.865c4.822 17.888 22.123 31.534 30.86 30.968.306-.019 33.137-6.157 51.11-36.26 13.984-23.432 9.225-46.05-9.797-46.546-6.845.502-81.356 17.765-72.168 51.842m70.393-114.89-.019-.017.027-.014a83.48 83.704 0 0 0-87.998-12.732 48.787 48.918 0 0 0-5.275 2.598c-1.172.624-2.344 1.248-3.482 1.934l.278.085a38.044 38.146 0 0 0-8.812 8.364c-23.974 31.735 56.343 54.814 99.29 54.881 19.748 14.222 25.293-40.034 5.991-55.099"/><path fill="#5493f7" d="M92.946 50.62C81.91 67.25 45.156 78.968 39.113 77.143l-.041-.077q.373-.752.754-1.496a88.437 88.674 0 0 1 26.207-30.66q3.392-2.49 7.023-4.66a26.038 26.108 0 0 1 12.15-3.247c16.368.314 7.822 13.489 7.732 13.622m-9.048 117.51c.793 5.224-.02 25.866-1.085 27.602-.918.055-2.83.174-8.368-2.942A88.097 88.333 0 0 1 34.491 88.229q.441-1.33.923-2.642c6.343 8.46 13.685 16.114 19.924 24.657 5.943 8.137 14.118 21.399 15.782 24.232 10.328 17.593 11.975 28.445 12.763 33.662m122.107-52.022a87.757 87.992 0 0 1-6.126 32.407c-10.367 11.168-80.242-16.324-80.927-16.624-9.559-4.199-38.649-16.977-41.274-37.041-3.764-28.888 54.653-49.008 80.329-49.771 3.078.036 12.447.145 17.91 4.593a87.793 88.028 0 0 1 30.088 66.436m-47.304 78.257c-7.619 3.564-16.004.967-13.824-6.471 4.183-14.284 40.71-28.929 48.777-29.734.996-.099 1.418.58.977 1.357a88.88 89.119 0 0 1-35.923 34.836"/><path fill="url(#a)" d="M17.336 77.254a2.55 2.55 0 0 0 2.328 2.713c30.7.211 60.336-1.2 60.336-5.8 0-13.923-62.664 3.087-62.664 3.087" transform="matrix(2.4109 0 0 2.41737 27.128 21.612)"/><path fill="url(#b)" d="M17.336 77.254a2.55 2.55 0 0 0 2.34 2.714c30.692.233 60.287-.731 60.324-5.8 0-13.924-62.664 3.086-62.664 3.086m2.342 2.537a2 2 0 0 1-.245-.014 2.4 2.4 0 0 1-1.987-1.763 2.37 2.37 0 0 0 2.229 1.761c30.67-.192 59.844-9.635 59.844-5.477 0 4.244-29.171 5.702-59.841 5.493" transform="matrix(2.4109 0 0 2.41737 27.128 21.612)"/><path fill="url(#c)" d="M19.68 37.823a2.343 2.343 0 0 0-2.344 2.343v37.088a2.344 2.344 0 0 0 2.328 2.346C50.363 79.37 80.038 69.209 80 74.169V32.394c.038-4.961-29.627 5.198-60.32 5.429" transform="matrix(2.4109 0 0 2.41737 27.128 21.612)"/><path fill="url(#d)" d="m55.86 51.133-3.179.518v-9.14l-2.737.426-2.372.362-2.73.383v9.138a292 292 0 0 1-5.976.732l-3.193.332v7.833a210 210 0 0 0 5.97-.657 265 265 0 0 0 3.194-.407v9.14l2.733-.382 2.376-.364 2.731-.424v-9.139l3.18-.517 2.769-.475 3.179-.549V50.11l-3.18.548z" transform="matrix(2.4109 0 0 2.41737 27.128 21.612)"/></svg>