<svg xmlns="http://www.w3.org/2000/svg" width="256" height="256" viewBox="0 0 67.733 67.733"><circle cx="33.867" cy="33.867" r="32.411" style="opacity:1;fill:#cc0124;fill-opacity:1;fill-rule:nonzero;stroke:none;stroke-width:3.90643501;stroke-linecap:round;stroke-linejoin:round;stroke-miterlimit:4;stroke-dasharray:none;stroke-dashoffset:0;stroke-opacity:1;paint-order:stroke fill markers"/><path d="M0 0a8.626 8.626 0 0 0-8.627-8.627A8.626 8.626 0 0 0-17.254 0a8.626 8.626 0 0 0 8.627 8.627A8.626 8.626 0 0 0 0 0" style="fill:#fff;fill-opacity:1;fill-rule:nonzero;stroke:none" transform="matrix(.18111 0 0 -.18111 50.708 19.883)"/><path d="M0 0a3.825 3.825 0 0 1-3.821-3.821A3.825 3.825 0 0 1 0-7.643a3.826 3.826 0 0 1 3.821 3.822A3.826 3.826 0 0 1 0 0m0-17.255c-7.407 0-13.434 6.026-13.434 13.434S-7.407 9.612 0 9.612 13.433 3.586 13.433-3.821c0-7.408-6.026-13.434-13.433-13.434" style="fill:#fff;fill-opacity:1;fill-rule:nonzero;stroke:none" transform="matrix(.18111 0 0 -.18111 49.145 19.191)"/><path d="m0 0-32.932 22.871 62.125 45.076zm-38.906-90.555L-77.942-9.789l36.77 26.681 37.3-25.906zM-49.535 22.699-82.192-.996l-33.742 69.809Zm-62.521 55.123 138.399-.067-67.637-49.076Zm156.775 1.912 3.275 7.622-183.609.09 97.223-201.153L44.393 78.976l.574.417z" style="fill:#fff;fill-opacity:1;fill-rule:nonzero;stroke:none" transform="matrix(.18111 0 0 -.18111 41.746 34.868)"/><path d="M0 0a8.626 8.626 0 0 0-8.627-8.627A8.626 8.626 0 0 0-17.254 0a8.626 8.626 0 0 0 8.627 8.627A8.626 8.626 0 0 0 0 0" style="fill:#fff;fill-opacity:1;fill-rule:nonzero;stroke:none" transform="matrix(.18111 0 0 -.18111 43.237 36.342)"/><path d="M0 0a3.826 3.826 0 0 1-3.821-3.821A3.826 3.826 0 0 1 0-7.643a3.825 3.825 0 0 1 3.821 3.822A3.826 3.826 0 0 1 0 0m0-17.255c-7.407 0-13.433 6.026-13.433 13.434S-7.407 9.611 0 9.611 13.434 3.586 13.434-3.821c0-7.408-6.027-13.434-13.434-13.434" style="fill:#fff;fill-opacity:1;fill-rule:nonzero;stroke:none" transform="matrix(.18111 0 0 -.18111 41.674 35.65)"/><path d="M0 0a8.626 8.626 0 0 0-8.627-8.627A8.626 8.626 0 0 0-17.254 0a8.626 8.626 0 0 0 8.627 8.627A8.626 8.626 0 0 0 0 0" style="fill:#fff;fill-opacity:1;fill-rule:nonzero;stroke:none" transform="matrix(.18111 0 0 -.18111 36.337 53.391)"/><path d="M0 0a3.825 3.825 0 0 1-3.821-3.821A3.826 3.826 0 0 1 0-7.643a3.827 3.827 0 0 1 3.821 3.822A3.826 3.826 0 0 1 0 0m0-17.254c-7.407 0-13.434 6.025-13.434 13.433S-7.407 9.612 0 9.612 13.433 3.586 13.433-3.821c0-7.408-6.026-13.433-13.433-13.433" style="fill:#fff;fill-opacity:1;fill-rule:nonzero;stroke:none" transform="matrix(.18111 0 0 -.18111 34.775 52.699)"/><path d="M0 0a8.626 8.626 0 0 0-8.627-8.627A8.626 8.626 0 0 0-17.254 0a8.626 8.626 0 0 0 8.627 8.627A8.626 8.626 0 0 0 0 0" style="fill:#fff;fill-opacity:1;fill-rule:nonzero;stroke:none" transform="matrix(.18111 0 0 -.18111 28.088 36.342)"/><path d="M0 0a3.826 3.826 0 0 1-3.82-3.821A3.825 3.825 0 0 1 0-7.643a3.825 3.825 0 0 1 3.821 3.822A3.826 3.826 0 0 1 0 0m0-17.255c-7.407 0-13.433 6.026-13.433 13.434S-7.407 9.611 0 9.611 13.434 3.586 13.434-3.821c0-7.408-6.027-13.434-13.434-13.434" style="fill:#fff;fill-opacity:1;fill-rule:nonzero;stroke:none" transform="matrix(.18111 0 0 -.18111 26.526 35.65)"/><path d="M0 0a8.626 8.626 0 0 0-8.627-8.627 8.627 8.627 0 1 0 0 17.254A8.626 8.626 0 0 0 0 0" style="fill:#fff;fill-opacity:1;fill-rule:nonzero;stroke:none" transform="matrix(.18111 0 0 -.18111 20.15 19.883)"/><path d="M0 0a3.825 3.825 0 0 1-3.821-3.821A3.825 3.825 0 0 1 0-7.643a3.825 3.825 0 0 1 3.82 3.822A3.825 3.825 0 0 1 0 0m0-17.255c-7.407 0-13.434 6.026-13.434 13.434S-7.407 9.612 0 9.612 13.433 3.586 13.433-3.821c0-7.408-6.026-13.434-13.433-13.434" style="fill:#fff;fill-opacity:1;fill-rule:nonzero;stroke:none" transform="matrix(.18111 0 0 -.18111 18.588 19.191)"/></svg>