<svg xmlns="http://www.w3.org/2000/svg" width="60" height="60" fill="none"><path d="M0 30c0 16.53 13.47 30 30 30s30-13.47 30-30S46.53 0 30 0 0 13.47 0 30" class="st0" style="fill:#2d2d2d;stroke-width:.244898"/><path fill="#f73737" d="M45.418 5.377C41.014 2.642 37.16 1.365 31.286 1c-5.506 5.107-5.322 15.503 0 20.245 2.203-8.754 7.342-13.497 14.132-15.868m6.424 4.925c-8.26-.365-14.683 7.113-14.683 14.409 6.791-4.56 14.683-4.742 21.29-1.095-1.1-5.836-3.184-8.913-6.607-13.314M59 31.094c-5.14-5.471-15.233-4.924-20.189.183 8.093 1.953 12.48 5.654 16.151 13.861C57.764 40.541 59 37.114 59 31.095Zm-9.177 20.428c-.55-8.755-6.524-13.905-14.499-14.409 4.128 7.174 4.956 13.862 1.285 21.157 5.48-1.49 8.626-2.918 13.214-6.748M28.717 59c5.322-5.29 5.69-13.862 0-20.245-2.203 8.937-6.975 13.496-14.132 16.05 4.929 2.989 8.13 3.663 14.132 4.195M8.528 49.698c8.574-.796 14.132-6.383 14.132-14.591-5.323 4.195-14.316 4.742-21.29 1.641 1.948 5.667 3.496 8.63 7.158 12.95M1.003 28.723c4.588 4.925 14.132 5.654 20.189 0-8.627-2.006-13.679-7.058-15.968-13.68-2.57 3.831-4.303 9.123-4.221 13.68M10.18 8.66c1.285 8.755 6.057 13.497 14.5 14.227-4.262-7.003-4.59-13.68-1.47-21.157-6.056 1.459-9.259 3.47-13.03 6.93"/></svg>