<svg xmlns="http://www.w3.org/2000/svg" xml:space="preserve" viewBox="0 0 245 245"><path d="M0 122.5C0 190 55 245 122.5 245S245 190 245 122.5 190 0 122.5 0 0 55 0 122.5" style="fill:#0097ff"/><path d="M124.1 33c-20.4-.7-40.5 5.6-56.8 17.9-5.9 4.4-7.1 12.8-2.7 18.7.5.7 1.2 1.4 1.8 2 4.7 4.4 11.9 4.8 17.1.8 26-20.2 63-17.2 85.4 6.9 4.5 4.6 4.6 11.9.3 16.6-4.5 4.8-12.1 5.1-17 .6l-.6-.6C137 79.7 112 78.5 95.8 93.2s-17.3 39.8-2.6 55.9 39.8 17.3 55.9 2.6c.9-.8 1.8-1.7 2.6-2.6 3.5-4 9.3-5.1 14.1-2.7 5.9 2.9 8.3 10.1 5.3 16q-.75 1.5-1.8 2.7c-22.3 24.4-59.5 27.6-85.8 7.5-5.2-3.9-12.4-3.6-17.2.8-5.5 5-5.9 13.6-.9 19.1.6.7 1.3 1.2 2 1.8 39.8 29.5 95.9 21.1 125.4-18.6S214 80 174.3 50.5A89.4 89.4 0 0 0 124.1 33m-1.6 111.7c-12.2-.1-22.1-10-22.1-22.3s10-22.1 22.3-22.1c12.2.1 22 9.9 22.1 22.1 0 12.2-9.9 22.2-22.2 22.2 0 .1-.1.1-.1.1" style="fill:#fff"/></svg>