<svg xmlns="http://www.w3.org/2000/svg" xml:space="preserve" viewBox="0 0 490 490"><path d="M0 245c0 135.1 109.9 245 245 245s245-109.9 245-245S380.1 0 245 0 0 109.9 0 245" style="fill:#0d0520"/><path d="M245.5 414C152.4 414 77 338.6 77 245.5S152.4 77 245.5 77 414 152.4 414 245.5 338.6 414 245.5 414m0-13.1c85.8 0 155.4-69.6 155.4-155.4S331.3 90.1 245.5 90.1 90.1 159.7 90.1 245.5s69.6 155.4 155.4 155.4m.3-169.6c8 0 14.5 6.5 14.5 14.5s-6.5 14.5-14.5 14.5-14.5-6.5-14.5-14.5 6.5-14.5 14.5-14.5" style="fill:#fff"/></svg>