<svg xmlns="http://www.w3.org/2000/svg" xmlns:xlink="http://www.w3.org/1999/xlink" width="250" height="250"><defs><linearGradient id="b" x1="17.336" x2="80" y1="74.339" y2="74.339" gradientUnits="userSpaceOnUse"><stop offset="0" stop-color="#700000"/><stop offset=".327" stop-color="#730000"/><stop offset=".59" stop-color="#7d0000"/><stop offset=".83" stop-color="#8e0000"/><stop offset="1" stop-color="#9f0000"/></linearGradient><linearGradient id="c" x1="48.668" x2="48.668" y1="68.69" y2="80" gradientUnits="userSpaceOnUse"><stop offset=".35" stop-color="#cf2000"/><stop offset=".645" stop-color="#cd1f00"/><stop offset=".752" stop-color="#c61d00"/><stop offset=".828" stop-color="#bb1900"/><stop offset=".889" stop-color="#aa1300"/><stop offset=".941" stop-color="#940c00"/><stop offset=".987" stop-color="#790300"/><stop offset="1" stop-color="#700000"/></linearGradient><linearGradient id="d" x1="17.336" x2="80" y1="55.314" y2="55.314" gradientUnits="userSpaceOnUse"><stop offset="0" stop-color="#cf2000"/><stop offset=".021" stop-color="#d12201"/><stop offset=".244" stop-color="#e23309"/><stop offset=".487" stop-color="#ec3d0e"/><stop offset=".791" stop-color="#ef4010"/><stop offset=".841" stop-color="#ec3d0f"/><stop offset=".882" stop-color="#e2330d"/><stop offset=".919" stop-color="#d12208"/><stop offset=".954" stop-color="#b90a03"/><stop offset=".966" stop-color="#af0000"/><stop offset="1" stop-color="#ef4010"/></linearGradient><linearGradient id="a" x1="17.337" x2="80" y1="48.207" y2="48.207" gradientUnits="userSpaceOnUse"><stop offset="0" stop-color="#fbbf00"/><stop offset=".021" stop-color="#fbc102"/><stop offset=".244" stop-color="#fdd213"/><stop offset=".487" stop-color="#ffdc1d"/><stop offset=".791" stop-color="#ffdf20"/><stop offset=".841" stop-color="#fddc1e"/><stop offset=".882" stop-color="#f8d219"/><stop offset=".919" stop-color="#eec111"/><stop offset=".954" stop-color="#e1a905"/><stop offset=".966" stop-color="#db9f00"/><stop offset="1" stop-color="#ffdf20"/></linearGradient><linearGradient xlink:href="#a" id="f" x1="17.336" x2="80.001" y1="56.125" y2="56.125"/><linearGradient xlink:href="#a" id="g" x1="17.336" x2="80.002" y1="41.503" y2="41.503"/><linearGradient xlink:href="#a" id="h" y1="51.392" y2="51.392"/><linearGradient xlink:href="#a" id="i" x1="17.333" x2="80.005" y1="45.329" y2="45.329"/><linearGradient xlink:href="#a" id="e"/></defs><circle cx="125" cy="125" r="125" fill="#cdcdcd" fill-rule="evenodd"/><path fill="#0e3ca5" d="M105.685 164.866c4.822 17.889 22.123 31.533 30.86 30.97.306-.02 33.138-6.158 51.112-36.261 13.983-23.432 9.224-46.054-9.798-46.547-6.845.5-81.358 17.763-72.17 51.843m70.395-114.894-.019-.017.027-.014a83.486 83.71 0 0 0-88-12.73 48.778 48.909 0 0 0-5.275 2.596c-1.172.626-2.344 1.247-3.482 1.934l.278.085a38.045 38.147 0 0 0-8.812 8.364c-23.975 31.735 56.344 54.814 99.292 54.882 19.748 14.221 25.293-40.032 5.991-55.1"/><path fill="#5493f7" d="M92.943 50.618c-11.035 16.631-47.79 28.349-53.834 26.526l-.041-.08q.373-.752.754-1.494A88.438 88.675 0 0 1 66.03 44.91q3.393-2.494 7.023-4.663a25.983 26.052 0 0 1 12.152-3.244c16.368.32 7.82 13.487 7.739 13.615m-9.056 117.517c.793 5.226-.019 25.866-1.085 27.601-.918.058-2.83.174-8.368-2.942a87.85 88.085 0 0 1-43.281-62.368 88.964 89.202 0 0 1 0-28.625 87.457 87.691 0 0 1 3.334-13.576 90 90 0 0 1 .923-2.64c6.344 8.461 13.685 16.112 19.924 24.658 5.943 8.137 14.119 21.399 15.782 24.232 10.329 17.594 11.976 28.448 12.764 33.662m122.11-52.022a87.759 87.993 0 0 1-6.126 32.407c-10.367 11.171-80.244-16.324-80.929-16.624-9.56-4.2-38.65-16.978-41.275-37.042-3.764-28.885 54.654-49.008 80.33-49.772 3.079.037 12.448.145 17.911 4.593a87.785 88.02 0 0 1 30.089 66.435m-47.305 78.261c-7.619 3.563-16.004.967-13.825-6.471 4.183-14.282 40.712-28.927 48.779-29.734.995-.097 1.417.582.976 1.356a88.882 89.12 0 0 1-35.923 34.837"/><path fill="url(#b)" d="M17.336 77.256a2.55 2.55 0 0 0 2.329 2.712c30.7.21 60.335-1.2 60.335-5.8 0-13.924-62.664 3.088-62.664 3.088" transform="matrix(2.41095 0 0 2.4174 27.124 21.609)"/><path fill="url(#c)" d="M17.336 77.256a2.55 2.55 0 0 0 2.341 2.712c30.691.233 60.286-.731 60.323-5.8 0-13.924-62.664 3.088-62.664 3.088m2.342 2.535a2 2 0 0 1-.245-.014 2.4 2.4 0 0 1-1.987-1.763 2.37 2.37 0 0 0 2.229 1.762c30.67-.193 59.844-9.636 59.844-5.478 0 4.244-29.172 5.702-59.841 5.493" transform="matrix(2.41095 0 0 2.4174 27.124 21.609)"/><path fill="url(#d)" d="M19.68 37.823a2.343 2.343 0 0 0-2.344 2.343v37.09a2.343 2.343 0 0 0 2.329 2.344C50.363 79.37 80.037 69.209 80 74.169V32.4c.037-4.966-29.626 5.193-60.32 5.423" transform="matrix(2.41095 0 0 2.4174 27.124 21.609)"/><path fill="url(#e)" d="m29.232 46.693-.708-2.12-.706-2.122-.706 2.2-.706 2.2-2.282.1-2.282.076 1.847 1.278 1.844 1.265-.705 2.2-.7 2.192 1.845-1.415 1.849-1.436 1.848 1.22 1.85 1.2-.706-2.11-.706-2.113 1.846-1.48 1.846-1.5-2.281.2z" transform="matrix(2.41095 0 0 2.4174 27.124 21.609)"/><path fill="url(#f)" d="m38.921 54.159-.885 1.311-1.436-.316.888 1.125-.888 1.306 1.436-.613.885 1.119v-1.5l1.43-.627-1.43-.3z" transform="matrix(2.41095 0 0 2.4174 27.124 21.609)"/><path fill="url(#g)" d="m38.923 39.536-.886 1.312-1.435-.316.888 1.125-.888 1.306 1.436-.614.884 1.12v-1.5l1.43-.628-1.43-.3z" transform="matrix(2.41095 0 0 2.4174 27.124 21.609)"/><path fill="url(#h)" d="m42.941 50.793-.5-1.373-.446 1.507-1.519.211 1.244.719-.445 1.507L42.5 52.3l1.249.712-.5-1.372 1.218-1.071z" transform="matrix(2.41095 0 0 2.4174 27.124 21.609)"/><path fill="url(#i)" d="m41.842 45.8.027 1.514.873-1.351 1.46.257-.919-1.094.877-1.356-1.445.678-.916-1.1.026 1.514-1.436.668z" transform="matrix(2.41095 0 0 2.4174 27.124 21.609)"/></svg>