<svg xmlns="http://www.w3.org/2000/svg" xml:space="preserve" viewBox="0 0 245 245"><path d="M0 122.5C0 190 55 245 122.5 245S245 190 245 122.5 190 0 122.5 0 0 55 0 122.5" style="fill:#23adf0"/><path d="M66 106c-2.7-1.7-5.8-2.6-9-2.5-4.7 0-17.5 3.8-17.5 18.5 0 15 12.3 18.5 17.5 18.5 5 0 9.5-3 9.5-3m28.5-34c9.8 0 17.5 9 17.5 18.5s-7.4 18.5-17.5 18.5c-9.2 0-18.5-7.9-18.5-18.5 0-10.2 8.3-18.5 18.5-18.5q0 0 0 0zm26.5.5v36.5m23.5-8h-10v-28h1.5c4.8 6.2 20.9 30.4 25 36h1.5V104m-28.5 36.5H150m23 .5v-36.5h23m-6.5 18H173m32-18.5v37.5" style="fill:none;stroke:#fff;stroke-width:5;stroke-linecap:square"/></svg>