<svg xmlns="http://www.w3.org/2000/svg" width="256" height="256" viewBox="0 0 67.733 67.733"><path d="M1.455 263.133c0 17.872 14.54 32.412 32.412 32.412 17.871 0 32.411-14.54 32.411-32.412 0-17.871-14.54-32.411-32.411-32.411s-32.412 14.54-32.412 32.411" class="cls-1" style="fill:#dc12fc;fill-opacity:.94117647;stroke-width:.13229166" transform="translate(0 -229.267)"/><path d="M30.925 287.167c-2.576-.3-5.467-1.168-7.82-2.349-1.317-.66-3.161-1.851-3.161-1.97 0-.031 4.124.036 9.038.02l8.928-.028-.13.458c-.046.207-.371 1.158-.723 2.111l-.639 1.734-.614.085c-.816.111-3.7.075-4.879-.062m11.164-1.442c0-.043.165-.691.366-1.441l.384-1.444 2.292.007c1.27.004 2.452-.02 2.452.011 0 .14-2.144 1.418-3.64 2.144-1.622.786-1.854.877-1.854.723m-25.15-5.308c-.93-.925-1.832-1.883-2.003-2.128l-.311-.446h15.594l.395.494a2.3 2.3 0 0 0 1.72.833c.564 0 1.49-.477 1.756-.927l.246-.427 2.31.027h2.319l-.091.726c-.05.399-.227 1.34-.393 2.092l-.321 1.485H18.694zm26.042 1.371c.141-.594.479-3.057.48-3.499v-.446h9.351l-.311.446c-.171.245-.981 1.236-1.911 2.16l-1.82 1.697h-5.888zm-11.27-3.457c-21.14 12.446-10.57 6.223 0 0m-18.249-2.144c-.607-.938-1.847-3.43-2.3-4.622l-.221-.583H23.16l.819.413c.85.43.968.408.606-.108l-.214-.305h5.78v.528c0 .983.899 1.922 1.954 2.041a2.114 2.114 0 0 0 2.335-2.003L34.4 271l2.348-.017h2.284l.088.843c.114 1.086.114 3.872 0 4.698l-.087.64h-4.617l-.098-.74c-.206-.705-.765-1.342-1.448-1.47-.824-.156-1.426.018-2.052.51a2.26 2.26 0 0 0-.6.948c-.102.38-.064.658-.093.752-.137.007-1.815-.006-8.069-.006H14.09zm30.127.867c-.006-.057-.004-.535.005-1.064.016-1.045-.217-4.133-.352-4.673l-.085-.335h13.34l-.222.583c-.453 1.192-1.693 3.684-2.3 4.622l-.627.97h-4.875c-2.68 0-4.879-.046-4.884-.103m-27.24-6.851-5.645-.036-.234-.925c-.623-2.47-.9-5.964-.667-8.165l.127-1.15h3.369l-.23.569c-.333.798-.241.865.22.159l.461-.728 4.785.002c2.633.001 4.777-.002 4.822.003.046.004-.533.897-1.11 1.73-.576.834-1.297 2.047-1.602 2.696-.49 1.042-.554 1.292-.545 2.145.012 1.198.38 2.08 1.303 3.037.36.374.617.634.6.64-.019.004-2.539-.012-5.655.023zm7.763-.85c0-.98.547-2.16 1.722-3.712 1.71-2.261 2.37-3.412 2.757-4.802l.261-.912h5.288l.748.904c1.613 2.096 2.908 4.853 3.639 7.749l.4 1.574h-2.395l-2.427.01-.363-.43c-.49-.524-1.599-.652-2.363-.313-.326.145-.6.357-.88.727-.263.007-.355.01-3.179.01h-3.208zm8.79-1.39c1.152-.28 1.783-1.596 1.498-2.63-.68-2.46-4.25-1.951-4.25.604 0 .798.434 1.451 1.231 1.854.687.347 1.215.208 1.52.172m10.008 1.612c-.889-3.433-2.015-5.897-3.888-8.508l-.845-1.14 9.686.006c9.018.005 9.584-.02 9.713-.006.166.404.325 3.123-.091 6.938-.093.49-.208 1.32-.386 1.975l-.357 1.318H43.061Zm-32.795-10.606c0-.12.16-.848.354-1.616 2.144-8.46 8.881-15.201 17.281-17.293 2.385-.594 3.32-.705 5.968-.705s3.584.11 5.969.705c8.4 2.092 15.136 8.833 17.28 17.293.196.768.374 1.63.399 1.749.03.14-1.047-.011-9.986.02l-9.942.033-.378-.47c-.915-1.2-4.282-3.816-6.47-5.027l-.864-.478 1.511-.986c3.784-2.467 7.154-3.73 10.5-3.934 1.371-.084 5.225.293 6.382.625 1.032.296.486-.127-1.664-1.29-2.183-1.18-4.214-1.78-6.59-1.947-3.357-.235-7.901 1.121-9.635 2.877-.384.388-.972 1.22-1.307 1.847-.937 1.758-.907 1.744-1.084.494-.085-.597-.223-2.065-.308-3.26-.178-2.538-.071-3.029.84-3.853.704-.635 1.24-.847 3-1.185 1.953-.375 2.305-.553.906-.459-3.284.221-7.13.994-8.743 1.757-.832.394-1.536 1.09-1.84 1.817-.597 1.429.37 3.997 2.223 5.905.537.553.908 1.004.826 1.002s-.86-.12-1.728-.262a41 41 0 0 0-2.834-.357c-1.164-.09-1.31-.072-2.017.251-.886.406-1.702 1.182-2.54 2.415-.679.996-1.593 2.771-1.952 3.788l-.259.73-1.64-.006c-1.444.034-1.278.006-1.716.006zm4.796-.645c1.44-1.794 2.988-2.742 5.312-3.254 1.522-.335 5.715-.971 5.806-.88.195.194-.509 2.069-1.281 3.412l-.869 1.51-4.829.035-4.829.008zm14.138-.414c-.002-.698-.066-1.54-.142-1.87s-.108-.632-.07-.67c.129-.129 2.327 1.55 3.5 2.672l1.176 1.127-2.23.005-2.23.005z" style="fill:#fff;fill-opacity:1;stroke-width:.13722898" transform="translate(.132 -229.458)"/><path d="M30.807 277.15a1.483 1.427 0 0 1 .705-1.337 1.483 1.427 0 0 1 1.557.007 1.483 1.427 0 0 1 .691 1.343" style="opacity:1;fill:#fff;fill-opacity:1;fill-rule:nonzero;stroke:none;stroke-width:.12274022;stroke-linecap:round;stroke-linejoin:miter;stroke-miterlimit:4;stroke-dasharray:none;stroke-dashoffset:65.67904663;stroke-opacity:1;paint-order:normal" transform="translate(.132 -229.458)"/><path d="M31.135 277.802c.045-.013 2.345-.006 2.345-.006s-.433.685-1.06.685c-.626 0-1.04-.252-1.285-.678z" style="fill:#fff;fill-opacity:1;stroke:none;stroke-width:.26458332px;stroke-linecap:butt;stroke-linejoin:miter;stroke-opacity:1" transform="translate(.132 -229.458)"/></svg>