<svg xmlns="http://www.w3.org/2000/svg" xml:space="preserve" style="fill-rule:evenodd;clip-rule:evenodd;stroke-linejoin:round;stroke-miterlimit:2" viewBox="0 0 1250 1863"><path d="M168.091 223.745h-36.774c-11.031 0-18.386 7.355-18.386 18.386v18.388c0 11.03 7.355 18.385 18.386 18.385h36.774c11.031 0 18.386-7.355 18.386-18.385v-18.388c0-11.031-7.355-18.386-18.386-18.386M112.931 113.426h73.546c11.032 0 18.386-7.355 18.386-18.386V76.653c0-22.063-31.257-36.772-55.159-36.772s-55.16 12.87-55.16 36.772V95.04c0 11.031 7.355 18.386 18.387 18.386" style="fill:#455a64;fill-rule:nonzero" transform="scale(4.16667)"/><path d="M278.41 260.52h-18.391v-36.78c.151-10.15-7.969-18.5-18.119-18.64-10.16-.15-18.51 7.97-18.65 18.12V349c-.03.58-.03 1.15 0 1.73v1.72c-.15 1.34-.15 2.69 0 4.02v38.5c-8.02-3.4-17.35-5.75-27.58-5.75s-19.56 2.35-27.58 5.75v-60.91c.36-10.15-7.57-18.67-17.72-19.03-.8-.03-1.6 0-2.39.07-.78.14-1.55.34-2.3.58-8.56 1.91-14.57 9.61-14.36 18.38v60.91c-8.02-3.4-17.35-5.75-27.58-5.75s-19.571 2.35-27.581 5.75V355.9c.51-2.47.51-5.01 0-7.47V223.74c.241-10.15-7.79-18.58-17.939-18.82-1.5-.04-3 .11-4.471.44-8.559 1.92-14.58 9.61-14.359 18.38v36.78H20.999v-55.16c0-21.89 14.891-36.77 36.771-36.77h20.109c.381.01.771.01 1.151 0 20.129 13.47 44.82 18.38 70.67 18.38 26.11 0 51.39-4.56 71.83-18.38h20.11c21.88 0 36.77 14.88 36.77 36.77zm0 36.77h-18.391V278.9h18.391zm0 36.77h-18.391v-18.38h18.391zM223.25 426h-55.16v-10.35c7.66-4.02 17.99-8.04 27.58-8.04s19.92 4.02 27.58 8.04zm-91.93 0H76.159v-10.35c7.651-4.02 17.981-8.04 27.581-8.04 9.59 0 19.92 4.02 27.58 8.04zM39.39 297.29H20.999V278.9H39.39zm0 36.77H20.999v-18.38H39.39zM76.159 85.85c0-26.259 7.51-40.479 19.531-49.99 12.02-9.519 30.9-14.369 54.01-14.369 23.34 0 42.14 4.56 54.01 13.789 11.88 9.24 19.54 23.271 19.54 50.57 0 12.811-1.69 22.71-4.72 30.55-3.4 8.86-8.52 15.11-14.82 20.01-11.87 9.24-30.67 13.79-54.01 13.79-23.11 0-41.99-4.85-54.01-14.37-6.191-4.9-11.18-11.04-14.561-19.43-3.199-7.91-4.97-17.82-4.97-30.55M299.41 205.36c0-26.97-15.76-47.97-39.391-55.12v-15.86c0-9.93-8.049-17.98-17.979-17.98h-1.43c2.45-8.96 3.64-19.09 3.64-30.55 0-31.14-8.78-52.47-27.64-67.14C201.07 6.621 178.56.491 149.7.491c-28.24 0-51.42 6.539-67.041 18.9C63.9 34.25 55.159 55.36 55.159 85.85c0 11.451 1.241 21.58 3.781 30.55h-1.571c-9.929 0-17.99 8.05-17.99 17.98v15.86C15.76 157.39 0 178.4 0 205.36v55.16c0 3.3.78 6.41 2.14 9.19A20.84 20.84 0 0 0 0 278.9v18.39c0 3.3.78 6.41 2.14 9.19-1.36 2.78-2.14 5.9-2.14 9.2v18.38c0 11.6 9.4 21 20.999 21H39.39c6.29 0 11.92-2.78 15.769-7.16v.53c0 1.25.111 2.5.331 3.73-.22 1.23-.331 2.48-.331 3.74v39.07c0 3.68.97 7.23 2.731 10.34a21.03 21.03 0 0 0-2.731 10.34V426c0 11.59 9.401 21 21 21h55.161c7.92 0 14.81-4.39 18.38-10.87 3.58 6.48 10.47 10.87 18.39 10.87h55.16c11.6 0 21-9.41 21-21v-10.35c0-3.69-.98-7.24-2.74-10.34 1.77-3.11 2.74-6.66 2.74-10.34v-38.5c0-.67-.03-1.34-.1-2.01.07-.67.1-1.34.1-2.01v-1.72c0-.29-.01-.58-.02-.87.01-.28.02-.57.02-.86v-1.1c3.85 4.38 9.48 7.16 15.769 7.16h18.391c11.6 0 21-9.4 21-21v-18.38c0-3.3-.78-6.42-2.14-9.2a20.84 20.84 0 0 0 2.14-9.19V278.9c0-3.3-.78-6.41-2.14-9.19a20.84 20.84 0 0 0 2.14-9.19z" style="fill:#455a64;fill-rule:nonzero" transform="scale(4.16667)"/></svg>