<svg xmlns="http://www.w3.org/2000/svg" width="256" height="256" viewBox="0 0 67.733 67.733"><path d="M1.532 263.19c0 17.872 14.54 32.412 32.411 32.412s32.412-14.54 32.412-32.412c0-17.871-14.54-32.411-32.412-32.411S1.532 245.319 1.532 263.19" class="cls-1" style="display:inline;opacity:1;fill:#00d395;fill-opacity:1;fill-rule:evenodd;stroke:none;stroke-width:0;stroke-miterlimit:4;stroke-dasharray:none;stroke-opacity:1" transform="translate(0 -229.267)"/><path d="m30.67 252.59 12.7 7.587s2.009.955 1.982 2.953-.018 14.026-.018 14.026l2.86-1.687s.898-.449.826-1.39c-.027-1.014-.009-20.09-.009-20.09s.135-1.247-1.085-1.974-14.73-8.684-14.73-8.684-.63-.43-1.454-.272c-.447.085-1.08.42-1.084 1.5.027.45.012 8.03.012 8.03" style="display:inline;opacity:1;fill:#fff;fill-opacity:1;stroke:none;stroke-width:.02645833;stroke-linecap:butt;stroke-linejoin:miter;stroke-miterlimit:4;stroke-dasharray:none;stroke-opacity:1" transform="translate(0 -229.267)"/><path d="m24.208 263.165 12.709 7.624s1.758.883 1.731 2.881-.084 7.516-.084 7.516l3.187-1.8s.843-.416.793-1.433c-.027-1.013.014-13.352.014-13.352s.1-1.65-1.12-2.377c-1.219-.727-14.773-8.69-14.773-8.69s-.7-.543-1.508-.271c-.875.295-.956.873-.96 1.873.026.449.011 8.03.011 8.03" style="display:inline;opacity:1;fill:#fff;fill-opacity:1;stroke:none;stroke-width:.02645833;stroke-linecap:butt;stroke-linejoin:miter;stroke-miterlimit:4;stroke-dasharray:none;stroke-opacity:1" transform="translate(0 -229.267)"/><path d="m17.412 271.385.026-6.292s-.064-.608.52-1.147c.583-.54 1.357-.286 1.655-.09.298.197 14.891 8.69 14.891 8.69s1.313.735 1.281 2.473 0 6.697 0 6.697.057.678-.679 1.287c-.735.609-1.452.374-1.953.083-.5-.292-14.193-8.695-14.193-8.695s-1.558-.983-1.548-3.006" style="display:inline;opacity:1;fill:#fff;fill-opacity:1;stroke:none;stroke-width:.02645833;stroke-linecap:butt;stroke-linejoin:miter;stroke-miterlimit:4;stroke-dasharray:none;stroke-opacity:1" transform="translate(0 -229.267)"/></svg>