<svg xmlns="http://www.w3.org/2000/svg" xml:space="preserve" id="Lager_1" x="0" y="0" version="1.1" viewBox="0 0 256 256"><style>.st0{fill:#465ff0}</style><g id="Page-1"><g id="CoinBene"><path id="Full" d="M0 128c0 70.6 57.4 128 128 128s128-57.4 128-128S198.6 0 128 0 0 57.4 0 128" class="st0"/><path id="Rounded_Rectangle_867" d="M217 116.9c3 3 4.6 7 4.6 11.1 0 4.2-1.7 8.2-4.6 11.1L139.1 217c-3 3-7 4.6-11.1 4.6-4.2 0-8.2-1.7-11.1-4.6L39 139.1c-3-3-4.6-7-4.6-11.1 0-4.2 1.7-8.2 4.6-11.1L116.9 39c3-3 7-4.6 11.1-4.6 4.2 0 8.2 1.7 11.1 4.6z" style="fill:#fff"/><path id="Rounded_Rectangle_868" d="M163 104.9v-7.2c0-2.8-1.1-5.4-3.1-7.4s-4.6-3.1-7.4-3.1h-49.1c-5.8 0-10.4 4.7-10.4 10.4v60.6c0 5.8 4.7 10.4 10.4 10.4h49.1c5.8 0 10.4-4.7 10.4-10.4v-44.3l-15.7 9.3v24.5c0 2.9-2.3 5.2-5.2 5.2h-28.7c-2.9 0-5.2-2.3-5.2-5.2v-40.8c0-2.9 2.3-5.2 5.2-5.2H142c2.9 0 5.2 2.3 5.2 5.2v7.2z" class="st0"/></g></g></svg>