<svg xmlns="http://www.w3.org/2000/svg" width="256" height="256" viewBox="0 0 67.733 67.733"><path d="M125.07 56.014 86.59 78.46v44.38l38.48 22.253 38.478-22.254V78.3Zm0 0L86.59 78.46v44.38l38.48 22.253 38.478-22.254V78.3Z" style="fill:#fff;fill-rule:nonzero;stroke-width:3.20658565" transform="translate(0 -229.267)"/><g transform="translate(0 -229.267)"><circle cx="33.867" cy="263.133" r="32.777" style="opacity:1;fill:#002559;fill-opacity:1;fill-rule:nonzero;stroke:none;stroke-width:3.35015416;stroke-linecap:round;stroke-linejoin:round;stroke-miterlimit:4;stroke-dasharray:none;stroke-dashoffset:0;stroke-opacity:1;paint-order:stroke fill markers"/><path d="m55.321 275.52-21.454 12.387-21.455-12.387v-24.774l21.455-12.386 21.454 12.386z" style="opacity:1;fill:#fff;fill-opacity:1;fill-rule:nonzero;stroke:none;stroke-width:2.78777933;stroke-linecap:round;stroke-linejoin:round;stroke-miterlimit:4;stroke-dasharray:none;stroke-dashoffset:0;stroke-opacity:1;paint-order:stroke fill markers"/><path d="m33.867 240.61-19.46 11.35v22.443l19.46 11.254 19.459-11.254V251.88zm-7.703 9.729h15.34l1.849 7.816H24.429Zm6.21 23.416-3.372 3.13h-2.74l-6.99-12.211 5.14-3.81 4.59 2.886v5.14l3.438 3.243zm-2.253-5.125.519-4.864-1.622-4.379h9.876l-1.622 4.379.486 4.864zm11.464 8.206H38.83l-3.34-3.081v-1.54l3.42-3.244v-5.221l4.541-2.968 5.124 3.86z" style="fill:#002559;fill-opacity:1;fill-rule:nonzero;stroke-width:1.62158442"/></g></svg>