<svg xmlns="http://www.w3.org/2000/svg" xml:space="preserve" viewBox="0 0 500 500"><circle cx="250" cy="250" r="250" style="fill:#fff"/><path d="M93.2 234c-4.5-2.7-9.7-4.1-14.9-4-15.3 0-24 9.2-24 24.2 0 9.8 6.8 16.1 17.9 16.1 5.2-.1 10.4-1.4 15-3.9l-1.6 14.5c-5.6 1.5-11.4 2.3-17.2 2.4-20 0-31.4-11.2-31.4-29.5 0-9.7 3.7-19 9.8-25.2 7.6-7.8 16.7-10.9 29.2-10.9 7.3.1 14.4 1.3 21.3 3.7zM128.3 219.1c14.9 0 22.5 5.2 22.5 15.5 0 9.1-6.1 15-17.2 15.9 4.1 2.5 5.3 5.7 6.2 9.9l4.6 21.3H128l-4.4-20.1c-.8-3.6-2.8-4.8-7.5-4.8h-3l-5.2 24.9H91.3l13.3-62.7zm-12.8 26.1h6c8 0 12.2-3.2 12.2-8.1 0-4.2-2.9-6.5-8.7-6.5h-6.5zM179.6 219.1 172 254c-.6 2.9-1 5.9-1 8.9.1 4.7 4 8.5 8.7 8.4h.2c7.5 0 10.6-6 13.2-17.9l7.6-34.3h16.2l-8 39c-3.6 17.5-12.6 25.3-29.9 25.3-16 0-24.6-7.6-24.6-21 0-2.9.3-5.7.9-8.5l7.6-34.8zM335.5 219.3c17.3 0 25.7 5.1 25.7 17 0 14.2-9.9 23.1-27 23.1-2.1 0-5.1-.1-8.9-.3l-5 22.9h-16.6l13.3-62.7zm-7.8 28.1h4.4c8.2 0 12.7-3.6 12.7-9.4 0-4.8-3.4-7.4-9.8-7.4h-3.9zM400.4 270.2c-.9 3.9-1.5 7.8-1.9 11.7H385l.9-7c-3.6 5.3-9.1 8-16.1 8-9.6 0-15.5-5.6-15.5-13.8 0-10.4 9.6-16.9 27.4-16.9 2.5 0 5 .2 7.5.4.1-.5.1-1 .1-1.5 0-4.7-3.1-7.2-8.9-7.2-5.3 0-10.5 1.2-15.2 3.5l1.9-10.8c5-1.8 10.2-2.7 15.4-2.7 14 0 21.6 5.9 21.6 14.8-.1 2.8-.4 5.6-1 8.3zm-17.7-9.7c-8.7 0-13.2 2.5-13.2 7.2 0 3.1 2.4 5.2 6 5.2 5.6 0 10.6-4.5 11.8-12.3-1.5 0-3-.1-4.6-.1M424.8 235.5l2.8 18.7c.5 3.1 1.1 7.3 1.5 12.6 1.9-4.5 3.4-7.8 4.5-9.8l11.6-21.4H462l-29.8 51.1c-6 10.2-11.1 15.1-21.8 15.1-4.2-.1-8.4-.9-12.4-2.4l3.8-11.3c2.1 1 4.4 1.6 6.8 1.6 5 0 8.4-2.5 10.4-7.4l-10.4-46.8zM236.5 247.2l14 16.2-11.4 18h-27.3zM254.7 263.7l14.1-16.5 24.7 34.6h-26.8zM221.4 219h23.7l8.6 10.3 34.5-44.9h27.5l-63.3 75.3z"/></svg>