<svg xmlns="http://www.w3.org/2000/svg" xml:space="preserve" id="CSO" x="0" y="0" version="1.1" viewBox="0 0 490 490"><style>.st1{fill:#fff}</style><path id="Full" d="M0 245c0 135.1 109.9 245 245 245s245-109.9 245-245S380.1 0 245 0 0 109.9 0 245" style="fill:#40acfe"/><path id="Nose" d="m227 326.9 18 3.1 18-3.1-3 10.2-15 13.1-15-13.1z" class="st1"/><g id="L1"><path d="M173.3 323.1c1-4 2.1-7.9 3.4-11.7.6-1.9 1.2-3.9 1.9-5.8.6-1.9 1.3-3.8 2-5.7l2.1-5.9 3.7 5.8c2.5 3.9 4.9 7.8 7.3 11.8q3.6 6 6.9 12c2.2 4 4.4 8.1 6.5 12.2l3.1 6.1 3.1 6.2-1-1.3 4.3 4.3 4.3 4.4 4.2 4.4c1.4 1.5 2.8 3 4.1 4.5 2.7 3 5.4 6.1 8.1 9.2 2.6 3.1 5.2 6.4 7.6 9.7-3.5-2.1-7-4.4-10.3-6.8s-6.6-4.8-9.9-7.3c-1.6-1.2-3.2-2.5-4.8-3.8l-4.8-3.8-4.7-3.9-4.6-4-.5-.4-.5-.8-3.3-6-3.3-6.1-6.3-12.3c-2-4.1-4-8.3-5.9-12.5s-3.8-8.4-5.5-12.7l5.9-.1c-1 1.7-2 3.5-3.1 5.2-1 1.7-2.1 3.4-3.2 5.1-2.1 3.4-4.3 6.7-6.8 10M204 257.7c-1.2.6-2.4 1.1-3.7 1.7-1.2.6-2.5 1.1-3.7 1.6-2.5 1.1-4.9 2.1-7.4 3.1l-1.1.4-1.1-1.1c-1.9-1.9-3.8-3.9-5.7-5.8s-3.7-3.9-5.6-5.9c-1.8-2-3.7-4-5.5-6l-5.4-6-9.4-10.7 14.1 3.9c4.8 1.3 9.5 2.7 14.2 4.1l7.1 2.1 7.1 2.2c2.4.7 4.7 1.5 7 2.3s4.7 1.5 7 2.4c4.7 1.6 9.3 3.2 14 4.9l3.1 1.1v15.700000000000001c0 4.3-.1 8.6-.3 12.8-.2 4.3-.3 8.6-.6 12.9s-.6 8.6-1.1 12.9c-.9-4.2-1.6-8.5-2.4-12.7-.7-4.2-1.3-8.5-1.9-12.7-.5-4.2-1.1-8.5-1.5-12.8l-.7-6.4-.6-6.4 3.1 4c-4.7-1.3-9.5-2.7-14.2-4.2-2.4-.7-4.7-1.4-7.1-2.2-2.3-.8-4.7-1.5-7-2.2l-7-2.3-7-2.4c-4.7-1.6-9.3-3.3-13.9-5l4.7-6.9c1.6 2.2 3.2 4.3 4.8 6.5s3.2 4.4 4.7 6.6c1.6 2.2 3.1 4.4 4.6 6.7 1.5 2.2 3 4.5 4.5 6.8l-2.2-.7c2.6-.5 5.3-.9 7.9-1.4 1.3-.2 2.6-.4 4-.6 1.6.1 2.9-.1 4.2-.3" class="st1"/></g><g id="L1_Mirror"><path d="M317.9 322.9c-2.4-3.3-4.7-6.7-6.9-10.1-1.1-1.7-2.2-3.4-3.2-5.1-1.1-1.7-2.1-3.5-3.1-5.2l5.9.1c-1.8 4.3-3.6 8.5-5.5 12.7s-3.9 8.4-5.9 12.5q-3 6.15-6.3 12.3l-3.3 6.1-3.3 6-.5.8-.5.4-4.6 4-4.7 3.9-4.8 3.8c-1.6 1.2-3.2 2.5-4.8 3.7-3.2 2.5-6.5 4.9-9.9 7.3s-6.8 4.6-10.3 6.8c2.4-3.4 5-6.6 7.6-9.7s5.3-6.2 8.1-9.2c1.4-1.5 2.8-3 4.1-4.5l4.2-4.4 4.3-4.4 4.3-4.3-1 1.3 3.1-6.2 3.2-6.1c2.1-4.1 4.3-8.1 6.6-12.2q3.3-6 6.9-12c2.4-4 4.8-7.9 7.3-11.8l3.7-5.8 2.1 5.9c.7 1.9 1.4 3.8 2 5.7.7 1.9 1.3 3.8 1.9 5.8 1.1 4.1 2.3 8 3.3 11.9M287.1 257.6c1.3.2 2.7.4 4 .5 1.3.2 2.7.4 4 .6 2.7.4 5.3.9 8 1.4l-2.2.7c1.5-2.3 3-4.5 4.5-6.8 1.5-2.2 3.1-4.5 4.6-6.7 1.6-2.2 3.1-4.4 4.7-6.6s3.2-4.4 4.8-6.5l4.7 6.9c-4.6 1.7-9.3 3.4-14 5l-7 2.4-7 2.3c-4.7 1.5-9.4 3-14.1 4.4s-9.5 2.8-14.2 4.1l3.1-4-.6 6.4-.7 6.4c-.5 4.3-1 8.5-1.5 12.7-.6 4.2-1.2 8.5-1.9 12.7s-1.4 8.5-2.4 12.7c-.5-4.3-.8-8.6-1.1-12.9s-.4-8.6-.6-12.8c-.1-4.3-.2-8.6-.3-12.8V252l3.1-1.1c4.7-1.7 9.3-3.3 14-4.9s9.4-3.1 14.1-4.6l7.1-2.2 7.1-2.1c4.7-1.4 9.5-2.8 14.3-4.1l14.2-3.9-9.5 10.7-5.4 6c-1.8 2-3.7 4-5.5 6-1.9 2-3.7 3.9-5.6 5.9-1.9 1.9-3.8 3.9-5.7 5.8l-1.1 1.1-1.1-.4c-2.5-1-5-2.1-7.4-3.1-1.2-.5-2.5-1.1-3.7-1.6-1.3-.8-2.5-1.3-3.7-1.9" class="st1"/></g><path id="L2" d="M173.3 321.8c-5.3-4.5-10.6-9.1-15.8-13.6l-15.7-13.7-7.8-6.9-7.8-6.9-15.5-13.9-3.1-2.8 1.7-4.8 3.1-8.7q1.65-4.35 3.6-8.4c2.7-5.5 5-11.2 7.5-16.8l14.8-33.6 3.1-7 6.9 3.2 7.7 3.5-9.9 10.1-33-68.9-8.2-17.1 17.7 6.9 68.9 26.7-3.8-.4 56.3-8 1.1-.1 1.1.1 56.3 8-3.8.5 66.6-26.7 17.2-6.9-7.5 16.9-31 68.8-10.3-9.7 6.9-3.5 7-3.6 3.2 7.2 15.2 33.6 3.8 8.4c1.3 2.8 2.5 5.6 3.9 8.4 2.8 5.5 4.7 11.4 6.9 17.2l1.8 4.8-3.1 2.8-15.6 13.9-7.8 6.9-7.8 6.9-15.7 13.8c-5.3 4.5-10.5 9.1-15.8 13.6 4.3-5.5 8.7-10.9 13.1-16.3l13.2-16.2 6.6-8.1 6.7-8 13.3-16-1.3 7.5c-2.9-5.4-6.1-10.7-8.3-16.5-1.2-2.8-2.4-5.7-3.7-8.5l-3.8-8.4-15.2-33.6 10.2 3.6-6.9 3.5-18.9 9.6 8.6-19.4 30.7-68.9 9.6 10-66.4 26.7-1.9.7-2-.3-56.3-8h2.1l-56.3 8-1.9.3-1.8-.7-68.9-26.7 9.5-10.2 33 68.9 9 18.7-18.9-8.7-7.7-3.5 10-3.8-14.8 33.6c-2.4 5.6-5 11.2-7.3 16.9-1.1 2.8-2.4 5.7-3.8 8.4l-4.3 8.2-1.4-7.6 13.3 16 6.6 8 6.6 8.1 13.2 16.2c4.6 5.4 8.9 10.8 13.2 16.3" class="st1"/></svg>