<svg xmlns="http://www.w3.org/2000/svg" width="236.001" height="236.001"><path d="M107.627 235.406c-12.872-1.088-28.673-5.347-40.41-10.893-16.095-7.605-32.543-21.008-43.286-35.272-42.166-55.99-26.99-135.724 32.773-172.193C103.32-11.397 164.514-3.604 202.606 35.63c44.526 45.859 44.526 118.678 0 164.537-19.92 20.517-46.358 32.88-75.436 35.28-9.048.746-10.262.744-19.543-.041m13.526-26.285 15.438-17.576 18.796-21.363 11.48-13.087h19.038c19.882 0 20.503-.083 20.503-2.74 0-1.445-21.09-60.782-22.34-62.853l-.859-1.422h-37.658l-.605-1.74c-5.627-16.17-20.56-57.101-21.22-58.163-.5-.807-1.499-1.422-2.307-1.422-1.336 0-3.225 1.99-17.146 18.06L84.77 69.154 66.484 90.08h-18.94c-19.789 0-20.404.083-20.404 2.747 0 1.447 21.736 62.289 22.67 63.455.48.599 5.207.836 19.228.962l18.592.167 10.58 29.613 11.294 30.505c1.777 2.22 3.384 1.06 11.652-8.408zm-8.96.317-19.2-54.33c0-.59 21.692-25.391 22.448-25.666.23-.083 2.456 5.606 4.948 12.644s4.931 13.29 5.421 13.892c.797.98 2.586 1.114 17.011 1.264l16.12.168-13.872 15.805c-29.71 33.85-32.589 37.023-32.877 36.22zm-68.286-85.293-9.959-27.817c-.116-.317 14.89-.557 34.847-.557h35.05l4.663 13.05c2.565 7.179 4.582 13.405 4.483 13.837s-5.668 7.06-12.376 14.73L88.42 151.333l-17.378.036-17.378.036-9.756-27.261zm82.31 17.303-4.955-13.67-1.415-3.713 8.628-9.88 12.477-14.147 3.85-4.267h35.111l1.63 4.584 17.876 49.945c.391 1.046-1.504 1.106-34.625 1.106h-35.038zm-13.42-37.263-4.89-13.788-16.936-.168-16.935-.168 8.67-9.947L96.682 64.16l14.287-16.28c4.938-5.65 9.173-10.274 9.412-10.274s1.145 2.063 2.016 4.584l9.564 26.8 7.981 22.979c0 .42-1.724 2.656-3.83 4.969-3.803 4.176-13.089 14.738-16.597 18.876l-1.829 2.159z"/></svg>