<svg xmlns="http://www.w3.org/2000/svg" xml:space="preserve" id="Civic" x="0" y="0" version="1.1" viewBox="0 0 245 245"><style>.st1{fill:#fff}</style><path id="Main_copy_18" d="M0 122.5C0 190 55 245 122.5 245S245 190 245 122.5 190 0 122.5 0 0 55 0 122.5" style="fill:#3ab03e"/><path id="C" d="M182 140.5h21.5c-1.5 31.5-41.5 65.2-81 65-35.5 0-82-28.5-82-83 1.5-53 44-83 82-83 52 0 79.5 45 82 65H182c0-12.5-25-46.1-59.5-44C77 60.5 61 102 61 122.5c1 27 18.5 60.8 61.5 62 44.5 0 57-35 59.5-44" class="st1"/><path id="Key" d="M122.5 92c-10.5 0-19 8.9-19 20 0 11.3 12.5 17.5 12.5 17.5V153h15v-23.5s12.5-6.1 12.5-17.5c.1-6.6-4-20-21-20" class="st1"/></svg>