<svg xmlns="http://www.w3.org/2000/svg" width="256" height="256" viewBox="0 0 67.733 67.733"><g transform="translate(0 -229.267)"><circle cx="33.867" cy="263.133" r="32.411" style="opacity:1;fill:#062ef5;fill-opacity:1;fill-rule:nonzero;stroke:none;stroke-width:.41085702;stroke-linecap:round;stroke-linejoin:round;stroke-miterlimit:4;stroke-dasharray:none;stroke-dashoffset:0;stroke-opacity:1;paint-order:stroke fill markers"/><path d="M25.428 243.004a5.12 5.12 0 0 1 5.11 5.117 5.12 5.12 0 0 1-5.381 5.11c-1.124.699-2.173 1.759-2.968 3.112-.8 1.357-1.217 2.795-1.28 4.122.477.778.753 1.692.753 2.67 0 .975-.274 1.887-.748 2.663.083 1.29.501 2.68 1.275 3.994.846 1.438 1.977 2.55 3.181 3.243l.058-.002c1.017 0 1.963.301 2.76.815l.055.002.032.054a5.12 5.12 0 0 1 2.262 4.246 5.12 5.12 0 0 1-5.109 5.116 5.12 5.12 0 0 1-5.11-5.116c0-1.086.34-2.093.919-2.922-.064-1.325-.483-2.762-1.28-4.12-.724-1.228-1.655-2.215-2.661-2.91q-.365.054-.743.055a5.12 5.12 0 0 1-5.11-5.117 5.12 5.12 0 0 1 5.11-5.116q.291-.002.575.036c1.071-.7 2.066-1.73 2.828-3.027.773-1.313 1.19-2.701 1.275-3.991a5.1 5.1 0 0 1-.913-2.913 5.12 5.12 0 0 1 5.11-5.117zm25.754 15.014a5.12 5.12 0 0 1 5.109 5.116 5.12 5.12 0 0 1-5.11 5.116q-.146 0-.291-.01c-1.128.699-2.181 1.762-2.98 3.12-.724 1.23-1.135 2.527-1.253 3.747a5.1 5.1 0 0 1 1.003 3.04 5.12 5.12 0 0 1-5.11 5.115 5.12 5.12 0 0 1-5.109-5.115c0-1.134.37-2.182.996-3.03-.082-1.295-.5-2.691-1.276-4.011-.719-1.223-1.644-2.205-2.644-2.9q-.32.039-.651.04a5.12 5.12 0 0 1-5.11-5.115 5.12 5.12 0 0 1 5.11-5.116 5.118 5.118 0 0 1 4.264 7.931c.106 1.247.521 2.579 1.264 3.84.846 1.439 1.976 2.55 3.18 3.244q.158.001.316.01c1.055-.698 2.034-1.72 2.788-3 .782-1.33 1.2-2.736 1.277-4.038a5.1 5.1 0 0 1-.884-2.873 5.12 5.12 0 0 1 5.11-5.115zm-8.632-15.017a5.12 5.12 0 0 1 5.11 5.116 5.12 5.12 0 0 1-5.11 5.116 5.12 5.12 0 0 1-5.109-5.116 5.12 5.12 0 0 1 5.109-5.116" style="fill:#f6f7ff;fill-opacity:1;fill-rule:evenodd;stroke:none;stroke-width:1.34200013"/></g></svg>