<svg xmlns="http://www.w3.org/2000/svg" width="310" height="310"><linearGradient id="a" x1="169.269" x2="293.709" y1="244.135" y2="244.135" gradientUnits="userSpaceOnUse"><stop offset="0" stop-color="#92ffc0"/><stop offset="1" stop-color="#4ca0a2"/></linearGradient><circle cx="155" cy="155" r="155" style="fill:#fff;stroke-width:62.079"/><linearGradient id="b" x1="107.509" x2="270.327" y1="43.7" y2="43.7" gradientUnits="userSpaceOnUse"><stop offset="0" stop-color="#4ca0a2"/><stop offset="1" stop-color="#92ffc0"/></linearGradient><linearGradient id="c" x1="31.879" x2="206.609" y1="253.964" y2="253.964" gradientUnits="userSpaceOnUse"><stop offset="0" stop-color="#00becf"/><stop offset="1" stop-color="#92ffc0"/></linearGradient><linearGradient id="d" x1="-8.672" x2="130.772" y1="149.378" y2="9.933" gradientUnits="userSpaceOnUse"><stop offset="0" stop-color="#f252ed"/><stop offset="1" stop-color="#4ca0a2"/></linearGradient><linearGradient id="e" x1=".239" x2="147.559" y1="182.648" y2="182.648" gradientUnits="userSpaceOnUse"><stop offset="0" stop-color="#511280"/><stop offset="1" stop-color="#81ffef"/></linearGradient><path fill="url(#a)" d="M276.1 190.5c21.1 18.1 23.6 49.9 5.5 71.1-1.7 2-3.6 3.9-5.5 5.5l-2.8 2.4c-13.6 11.5-28.9 20.8-45.1 27.5s-33.3 10.9-50.5 12.3l-8.3.5c22.9-20.9 37.3-51 37.3-84.4 0-9.5-1.1-18.7-3.3-27.4.6-.6 1.2-1.3 1.7-1.9 18-21.2 49.8-23.7 71-5.6" style="fill:url(#a)" transform="matrix(1.05533 0 0 .99998 .047 .1)"/><path fill="url(#b)" d="M269.2 72.5c2.6 4.9.7 11.1-4.2 13.7-4.5 2.4-10.1 1-13-3.1l-.1-.1c-13.5-19-32.6-33.2-53.7-40.5-13.1-4.6-26.9-6.4-40.4-5.7-13.9-14.1-31-25-50.2-31.3 6-1.7 12.1-3 18.2-4 14.5-2.2 29.3-2.1 43.6.1 7.1 1.2 14.2 2.8 21 5s13.5 5 19.8 8.2c25.5 12.8 46.2 33.5 59 57.7" style="fill:url(#b)" transform="matrix(1.05533 0 0 .99998 .047 .1)"/><path fill="url(#c)" d="M203.3 198c2.2 8.8 3.3 18 3.3 27.4 0 33.5-14.4 63.6-37.3 84.4-14.4.5-28.8-.8-42.8-3.9-16.6-3.7-32.6-10.1-47.1-18.5-3.7-2.1-7.1-4.4-10.6-6.8-3.4-2.5-6.8-4.9-10-7.6-3.3-2.6-6.3-5.4-9.4-8.2-3-2.9-5.9-5.9-8.6-9-3.1-3.5-6.1-7.1-8.9-10.8 11.5 3.5 23.6 5.3 36.2 5.3 30.1 0 57.8-10.6 79.4-28.3 6.1 0 12.1-.8 17.9-2.2 15-3.5 28.2-11.3 37.9-21.8" style="fill:url(#c)" transform="matrix(1.05533 0 0 .99998 .047 .1)"/><path fill="url(#d)" d="M107.5 5.6c19.2 6.3 36.4 17.2 50.2 31.3A99 99 0 0 0 134 41c-20.5 6-38.6 18.1-51.1 34-9.4 11.8-15.8 25.6-18.7 39.9-26.1 6.7-48.6 22.3-64 43.4-.7-12.4.1-24.9 2.4-37.1 5.8-31.1 21.5-59.6 43.6-80.6C63.8 23.9 85 12 107.5 5.6" style="fill:url(#d)" transform="matrix(1.05533 0 0 .99998 .047 .1)"/><path fill="url(#e)" d="M116.4 216.3c10.1 4 20.7 5.9 31.1 5.8-21.6 17.7-49.3 28.3-79.4 28.3-12.6 0-24.8-1.9-36.2-5.3-7.1-9.4-13-19.6-17.8-30.2C6 196.9 1.3 177.6.3 158.3c15.4-21.1 37.9-36.8 64-43.4a88.6 88.6 0 0 0-1.8 14.4c-.9 19.1 4.3 38.1 14.1 53.6 9.8 15.4 23.9 27 39.8 33.4" style="fill:url(#e)" transform="matrix(1.05533 0 0 .99998 .047 .1)"/></svg>