<svg xmlns="http://www.w3.org/2000/svg" width="256" height="256"><linearGradient id="a" x1="300" x2="300" y1="685" y2="-63" gradientTransform="matrix(1 0 0 -1 0 256)" gradientUnits="userSpaceOnUse"><stop offset="0" stop-color="#f9a606"/><stop offset="1" stop-color="#fbcc5f"/></linearGradient><g transform="matrix(.40833 0 0 .40833 5.5 145.967)"><circle cx="300" cy="-44" r="300" style="fill:url(#a)"/><path d="M477.9-93.5h-35.6c-19.6-54.4-72.3-91.7-141.8-91.7H186.2v91.7h-39.7v32.9h39.7v34.5h-39.7V6.8h39.7v90.6h114.3c68.7 0 121-37 141.1-90.6h36.3v-32.9h-28.3c.7-5.8 1.1-11.8 1.1-17.8v-.8c0-5.4-.3-10.7-.8-15.9H478v-32.9zm-259.7-62.4h82.3c51 0 88.9 25.1 106.4 62.3H218.2Zm82.3 223.7h-82.3V6.7h188.5c-17.6 36.6-55.4 61.1-106.2 61.1m117.1-111c0 5.8-.4 11.5-1.2 17H218.2v-34.5h198.3c.7 5.4 1.1 11 1.1 16.7z" style="fill:#fff"/></g></svg>