<svg xmlns="http://www.w3.org/2000/svg" xml:space="preserve" viewBox="0 0 490 490"><path d="M0 245c0 135.1 109.9 245 245 245s245-109.9 245-245S380.1 0 245 0 0 109.9 0 245" style="fill:#ff5c00"/><path d="M286.9 93.3v-9.6c0-3.2-2.6-5.8-5.8-5.8h-.3c-64.9 3.1-116.6 55.3-119.3 120.2 0 2.8 2.3 5.1 5.1 5.1h10.1c3.1 0 5.6-2.4 5.8-5.5 2.8-53.5 45.6-96.1 99-98.9 4.1-.5 5.4-2.8 5.4-5.5m-88.1 109.9h9.4c3 0 5.5-2.4 5.7-5.4 2.7-36.3 31.7-65.2 68.1-67.6 2.9-.2 5.1-2.7 4.9-5.5v-9.5c0-3.2-2.6-5.8-5.8-5.8h-.4c-47.1 3.1-84.6 40.6-87.7 87.7-.2 3.2 2.2 6 5.4 6.2.1-.1.2-.1.4-.1m88.1-56.6v9.6c0 2.9-2.2 5.2-5.1 5.5-19 2.3-34.1 17.3-36.4 36.3-.3 2.9-2.8 5.2-5.8 5.2h-9.4c-3.2 0-5.8-2.6-5.8-5.8v-.6c3-29.6 26.5-53.1 56.1-56.1 3.2-.3 6 2 6.3 5.2 0 .3.1.5.1.7m109.8 140c-2.7 0-4.9-1.3-5.5-5.4-2.8-53.5-45.4-96.2-98.9-99-3.1-.2-5.5-2.7-5.5-5.8v-9.8c-.1-2.8 2-5.2 4.8-5.4h.3c64.9 2.7 117.1 54.4 120.2 119.3.1 3.2-2.3 5.9-5.5 6h-.3zm-109.9-88.1c0-3.2 2.6-5.8 5.8-5.8h.4c47.1 3.1 84.6 40.6 87.7 87.7.2 3.2-2.2 6-5.4 6.2h-9.9c-2.9.2-5.4-2-5.5-4.9-2.5-36.4-31.3-65.4-67.6-68.1-3-.2-5.4-2.7-5.4-5.7zm56.6 88.1h-9.6c-2.9 0-5.2-2.2-5.5-5.1-2.3-19-17.3-34.1-36.3-36.4-2.9-.3-5.2-2.8-5.2-5.8v-9.4c0-3.2 2.6-5.8 5.8-5.8h.6c29.6 3 53.1 26.4 56.1 56.1.3 3.2-2.1 6-5.2 6.3-.3.1-.5.1-.7.1M93.3 203.2c2.7 0 4.9 1.3 5.5 5.4 2.8 53.5 45.4 96.2 98.9 99 3.1.2 5.5 2.7 5.5 5.8v9.8c.1 2.8-2 5.2-4.8 5.4h-.3C133.2 325.9 81 274.1 77.9 209.2c-.1-3.2 2.3-5.9 5.5-6h9.9m109.9 88.1c0 3.2-2.6 5.8-5.8 5.8h-.4c-47.1-3.1-84.6-40.6-87.7-87.7-.2-3.2 2.2-6 5.4-6.2h9.9c2.9-.2 5.4 2 5.5 4.9 2.5 36.4 31.3 65.4 67.6 68.1 3 .2 5.4 2.7 5.4 5.7zm-56.6-88.1h9.6c2.9 0 5.2 2.2 5.5 5.1 2.3 19 17.3 34.1 36.3 36.4 2.9.3 5.2 2.8 5.2 5.8v9.4c0 3.2-2.6 5.8-5.8 5.8h-.6c-29.6-3-53.1-26.4-56.1-56.1-.3-3.2 2-6 5.2-6.3.3-.1.5-.1.7-.1m56.6 193.5c0-2.7 1.3-4.9 5.4-5.5 53.5-2.8 96.2-45.4 99-98.9.2-3.1 2.7-5.5 5.8-5.5h9.8c2.8-.1 5.2 2 5.4 4.8v.3c-2.7 64.9-54.4 117-119.3 120.2-3.2.1-5.9-2.3-6-5.5v-.3zm88.1-109.9c3.2 0 5.8 2.6 5.8 5.8v.4c-3.1 47.1-40.6 84.5-87.7 87.7-3.2.2-6-2.2-6.2-5.4v-9.9c-.2-2.9 2-5.4 4.9-5.5 36.4-2.4 65.4-31.3 68.1-67.6.2-3 2.7-5.4 5.7-5.4zm-88.1 56.6v-9.6c0-2.9 2.2-5.2 5.1-5.5 19-2.3 34.1-17.3 36.4-36.3.3-2.9 2.8-5.2 5.8-5.2h9.4c3.2 0 5.8 2.6 5.8 5.8v.6c-3 29.6-26.5 53.1-56.1 56.1-3.2.3-6-2-6.3-5.2-.1-.3-.1-.5-.1-.7" style="fill:#fff"/></svg>