<svg xmlns="http://www.w3.org/2000/svg" xml:space="preserve" id="Dent" x="0" y="0" version="1.1" viewBox="0 0 245 245"><style>.st1{fill:none;stroke:#fff;stroke-width:5}</style><path id="Main" d="M0 122.5C0 190 55 245 122.5 245S245 190 245 122.5 190 0 122.5 0 0 55 0 122.5" style="fill:#fa2922"/><path id="Straight" d="M122.5 42c7.5 0 13.6 6.1 13.6 13.6v133.7c0 7.5-6.1 13.6-13.6 13.7-7.5 0-13.6-6.1-13.7-13.6V55.6c.1-7.5 6.2-13.6 13.7-13.6z" class="st1"/><path id="Right" d="M192.2 82.2c3.8 6.5 1.5 14.9-5 18.6L71.4 167.7c-6.5 3.7-14.9 1.5-18.6-5.1-3.7-6.5-1.5-14.8 5-18.6l115.8-66.9c6.5-3.6 14.8-1.4 18.6 5.1z" class="st1"/><path id="Left" d="M52.8 82.2c3.8-6.5 12.1-8.8 18.6-5l115.8 66.9c6.5 3.7 8.8 12.1 5.1 18.6s-12.1 8.8-18.6 5.1c0 0-.1 0-.1-.1L57.8 100.9c-6.5-3.8-8.8-12.1-5-18.7z" class="st1"/></svg>