<svg xmlns="http://www.w3.org/2000/svg" xmlns:xlink="http://www.w3.org/1999/xlink" width="250" height="250"><defs><linearGradient xlink:href="#a" id="d" x1="871.626" x2="884.872" y1="610.018" y2="610.018"><stop offset=".112" stop-color="#945300" stop-opacity="0"/><stop offset=".18" stop-color="#8b4c01" stop-opacity=".094"/><stop offset=".717" stop-color="#4f200f" stop-opacity=".749"/><stop offset="1" stop-color="#391015"/></linearGradient><linearGradient xlink:href="#a" id="b"><stop offset=".278" stop-color="#945300" stop-opacity="0"/><stop offset=".315" stop-color="#8b4c01" stop-opacity=".094"/><stop offset=".606" stop-color="#4f200f" stop-opacity=".749"/><stop offset=".76" stop-color="#391015"/></linearGradient><linearGradient xlink:href="#a" id="g" x1="854.594" x2="848.084" y1="580.64" y2="535.831"><stop offset=".507" stop-color="#945300" stop-opacity="0"/><stop offset=".525" stop-color="#8b4c01" stop-opacity=".094"/><stop offset=".669" stop-color="#4f200f" stop-opacity=".749"/><stop offset=".745" stop-color="#391015"/></linearGradient><linearGradient xlink:href="#a" id="h" x1="644.518" x2="663.78" y1="714.661" y2="686.113" gradientTransform="scale(1.25508 .79676)"><stop offset=".362" stop-color="#945300" stop-opacity="0"/><stop offset=".389" stop-color="#8b4c01" stop-opacity=".094"/><stop offset=".602" stop-color="#4f200f" stop-opacity=".749"/><stop offset=".714" stop-color="#391015"/></linearGradient><linearGradient xlink:href="#b" id="i" x1="1044.412" x2="1083.844" y1="483.603" y2="466.216" gradientTransform="scale(.81956 1.22016)"/><linearGradient xlink:href="#a" id="c"><stop offset=".371" stop-color="#945300" stop-opacity="0"/><stop offset=".397" stop-color="#8b4c01" stop-opacity=".094"/><stop offset=".596" stop-color="#4f200f" stop-opacity=".749"/><stop offset=".702" stop-color="#391015"/></linearGradient><linearGradient xlink:href="#c" id="k" x1="877.54" x2="878.219" y1="556.97" y2="556.97"/><linearGradient xlink:href="#c" id="l" x1="878.688" x2="879.376" y1="557.983" y2="557.983"/><linearGradient xlink:href="#c" id="m" x1="863.1" x2="863.122" y1="572.18" y2="572.18"/><linearGradient xlink:href="#a" id="n" x1="892.034" x2="881.62" y1="605.848" y2="593.568"><stop offset=".183" stop-color="#945300" stop-opacity="0"/><stop offset=".235" stop-color="#8b4c01" stop-opacity=".094"/><stop offset=".64" stop-color="#4f200f" stop-opacity=".749"/><stop offset=".853" stop-color="#391015"/></linearGradient><linearGradient xlink:href="#b" id="f" x1="1055.064" x2="1078.266" y1="456.395" y2="484.672" gradientTransform="scale(.81956 1.22016)"/><linearGradient xlink:href="#c" id="j" x1="876.3" x2="876.967" y1="556.066" y2="556.066"/><linearGradient id="a" gradientUnits="userSpaceOnUse"/><path id="e" d="m888.316 584.337-3.988-3.666a5.4 5.4 0 0 1-1.463-2.24c-.674-1.971-2.061-5.889-3.778-9.949a159 159 0 0 0-3.327-7.3 10.3 10.3 0 0 0-1.687-2.46l-9.867 9.2.005.018a10.3 10.3 0 0 1 1.76 2.54 159 159 0 0 1 3.327 7.3c1.717 4.06 3.1 7.978 3.778 9.949a5.4 5.4 0 0 0 1.463 2.24l3.988 3.667a.633.633 0 0 1 .037.9l-.358.389 2.263-2.16.022.009v-.033l7.295-6.962a.6.6 0 0 0 .205-.148l.358-.389a.636.636 0 0 0-.033-.905"/></defs><g transform="translate(-776.727 -430.661)"><circle cx="901.727" cy="555.661" r="125" fill="#fbdf62"/><g transform="matrix(2.07893 0 0 2.07893 -803.697 -572.562)"><path fill="#666062" d="m785.211 548.057 22.438-15.811-17.492 9.8z"/><g fill="#d9d3c4"><path d="m825.032 504.476 16.152 7.306s8.28 20.524 8.935 20.97l-3.457 27.264h-21.63z"/><path d="m841.521 552.695 1.2-9.746c.692-5.883 1.153-11.809 1.479-17.727l.148.553c-.244 5.736-.536 11.458-1.2 17.17l-1.2 9.746c-.29 2.4-.463 4.795-.653 7.2l-.5-.021c.114-2.406.442-4.813.726-7.175m-2.045-41.346c-.17 4.709-.818 9.393-1.1 14.1-.352 5.83-.5 11.686-1.074 17.5-.02.191-.3.2-.3 0-.01-2.879.312-5.77.52-8.641.214-2.952.307-5.909.485-8.863.294-4.9 1-9.767 1.249-14.667.062.17.137.357.22.571m-7.334 10.627q-.173 5.944-.35 11.886c-.1 3.581-.048 7.216-.363 10.785a.179.179 0 1 1-.358 0c-.116-3.58.156-7.2.27-10.784q.188-5.945.413-11.888.294-7.63.644-15.26l.229.1zm-7.109-17.5-16.153 7.306s-8.28 20.524-8.935 20.97l3.457 27.264h21.63z"/><path d="m808.543 552.694-1.2-9.746c-.692-5.883-1.153-11.809-1.479-17.727l-.147.553c.243 5.736.535 11.458 1.2 17.17l1.2 9.746c.29 2.4.464 4.795.653 7.2l.5-.021c-.114-2.406-.443-4.813-.727-7.175m2.042-41.345c.17 4.709.818 9.393 1.1 14.1.352 5.83.5 11.686 1.073 17.5.02.191.3.2.3 0 .01-2.879-.312-5.77-.52-8.641-.214-2.952-.308-5.909-.485-8.863-.294-4.9-1-9.767-1.249-14.667a11 11 0 0 1-.219.571m7.336 10.626q.174 5.944.35 11.886c.1 3.581.048 7.216.363 10.785a.179.179 0 1 0 .358 0c.116-3.58-.156-7.2-.27-10.784q-.188-5.945-.413-11.888-.293-7.63-.643-15.26l-.23.1zm7.176.139q.017 5.026-.01 10.053l.01 9.784c0 .072.059.131.131.131s.131-.059.131-.131c.208-3.147.064-6.345.055-9.5q-.015-5.024-.037-10.049l-.3-18.12-.179.061z"/><path d="m819.899 514.11.083 14.692h10.485v-14.577zm-7.773 42.045-1.752-19.916h13.965v19.916z"/><path d="m814.175 551.439-.73-5.1a36 36 0 0 0-2.266-9.591.35.35 0 0 0-.649.169l1.194 9.582.671 4.83a48 48 0 0 0 .79 5.113.8.8 0 0 0 1.573-.195 35 35 0 0 0-.583-4.808" opacity=".3" style="mix-blend-mode:multiply"/><path d="M809.951 536.416a1.15 1.15 0 0 1 1.29-.707l.035-.015.243-.075.023.028 1.467-.245 1.887-.217 2.9.039 6.278-.018.266-.008c-.015.416 0 .832.02 1.247l-1.194.041-7.507.333c-.93.028-1.9.195-2.857.279 2.307 2.663 4.572 5.351 6.7 8.169 1.266 1.675 2.441 3.409 3.615 5.148.574.849.765 1.033 1.278 1.92.319.555.136 2.722-.364 2.778a18 18 0 0 1-1.008-1.751c-.545-.871-1.131-1.715-1.7-2.574a106 106 0 0 0-3.464-4.918l-6.625-8.75a5 5 0 0 1-1.405-.311 5 5 0 0 1 .122-.393" opacity=".3" style="mix-blend-mode:multiply"/><path d="m811.497 556.676-1.833-20.843a.633.633 0 0 1 .631-.69h14.181a.634.634 0 0 1 .634.634v20.847a.634.634 0 0 1-.634.634h-12.347a.634.634 0 0 1-.632-.582"/><path d="m824.277 556.068-13.692-19.527m45.378 2.185a.633.633 0 0 1-.9.037l-3.988-3.667a7.24 7.24 0 0 1-1.949-2.986c-.666-1.95-2.037-5.82-3.73-9.825a157 157 0 0 0-3.289-7.216 8.65 8.65 0 0 0-4.062-4.013 94 94 0 0 0-4.92-2.18c-3.465-1.406-7.128-2.507-8.095-2.79-.966.283-4.629 1.384-8.094 2.79a94 94 0 0 0-4.92 2.18 8.65 8.65 0 0 0-4.062 4.013 158 158 0 0 0-3.289 7.216c-1.7 4.01-3.066 7.877-3.73 9.825a7.26 7.26 0 0 1-1.949 2.986l-3.989 3.667a.63.63 0 0 1-.455.167.63.63 0 0 1-.44-.204l-.358-.389a.64.64 0 0 1-.17-.458.63.63 0 0 1 .207-.442l3.988-3.667a5.4 5.4 0 0 0 1.464-2.24c.672-1.97 2.058-5.884 3.777-9.948a159 159 0 0 1 3.327-7.3 10.46 10.46 0 0 1 4.907-4.851 96 96 0 0 1 5.015-2.221c4.109-1.668 8.481-2.913 8.525-2.925l.245-.07.245.07c.044.012 4.416 1.257 8.526 2.925a96 96 0 0 1 5.015 2.221 10.46 10.46 0 0 1 4.907 4.851 159 159 0 0 1 3.327 7.3c1.717 4.059 3.1 7.978 3.778 9.949a5.4 5.4 0 0 0 1.464 2.24l3.988 3.667a.633.633 0 0 1 .037.9z"/><path d="m829.315 525.132-.009 2.7a5 5 0 0 1-.818.847c.14-1.225.134-4.661.11-6.8l-.094-6.007c-4.133-.057-8.259.5-8.261.293a1.693 1.693 0 0 1 2.069-2.055l1.955-.029a.75.75 0 0 1 .529.688h.022c1.287-.063 2.7-.588 3.968-.236.2.053.746.264.861.48q.012.038.023.081l-.335 6.482z" opacity=".3" style="mix-blend-mode:multiply"/><path d="m819.903 514.755.076 13.417c.002.349.285.63.634.63h9.221a.634.634 0 0 0 .634-.634v-13.316c0-.347-.28-.63-.627-.634l-9.3-.1a.64.64 0 0 0-.452.185.63.63 0 0 0-.186.452m18.15 41.616 1.79-20.349h-14.266v20.349z"/><path d="m835.889 551.439.73-5.1a36 36 0 0 1 2.266-9.591.35.35 0 0 1 .649.169c-.238 3.195-.759 6.4-1.194 9.582l-.671 4.83a47 47 0 0 1-.79 5.113.8.8 0 0 1-1.573-.195c.084-1.614.279-3.221.583-4.808" opacity=".3" style="mix-blend-mode:multiply"/><path d="M840.112 536.416a1.15 1.15 0 0 0-1.29-.707l-.035-.015-.243-.075-.022.028-1.468-.245-1.887-.217c-.976-.013-1.955.03-2.9.039-2.093.016-4.186.023-6.278-.018-.089 0-.177-.006-.266-.008.015.416 0 .832-.02 1.247l1.195.041 7.507.333c.929.028 1.9.195 2.857.279-2.307 2.663-4.572 5.351-6.7 8.169-1.266 1.675-2.441 3.409-3.615 5.148-.574.849-.764 1.033-1.278 1.92-.319.555-.136 2.722.364 2.778a18 18 0 0 0 1.008-1.751c.545-.871 1.131-1.715 1.7-2.574 1.1-1.674 2.268-3.306 3.463-4.918l6.625-8.75c.481-.035.955-.14 1.406-.311a4 4 0 0 0-.123-.393" opacity=".3" style="mix-blend-mode:multiply"/><path d="m838.568 556.676 1.834-20.847a.63.63 0 0 0-.631-.69h-14.182a.634.634 0 0 0-.634.634v20.847a.634.634 0 0 0 .634.634h12.346a.634.634 0 0 0 .633-.578M825.787 556.068l13.692-19.527"/></g><path fill="#d8662e" d="m836.873 569.312 9.789-9.3 3.457-27.264-9.788 9.294z"/><path fill="url(#d)" d="m871.626 628.3 9.789-9.3 3.457-27.264-9.788 9.294z" opacity=".56" transform="translate(-34.753 -58.988)"/><path fill="#e07032" d="m815.245 513.77 16.152 7.305s8.28 20.524 8.935 20.97l-3.457 27.264h-21.63z"/><path fill="#9b3724" d="m831.736 561.988 1.2-9.746c.692-5.883 1.153-11.81 1.479-17.727l.148.553c-.244 5.736-.536 11.458-1.2 17.17l-1.2 9.746c-.29 2.4-.473 4.924-.662 7.325h-.493c.112-2.399.441-4.96.728-7.321m-2.046-41.347c-.17 4.709-.818 9.393-1.1 14.1l-1.879 34.568h-.3c-.01-2.879 1.117-22.831 1.325-25.7.214-2.952.307-5.909.485-8.862.294-4.9 1-9.767 1.25-14.667q.088.24.219.561m-7.335 10.627q-.173 5.945-.351 11.886l-.9 26.15h-.358c-.116-3.58.7-22.569.809-26.148q.188-5.945.413-11.887.294-7.631.644-15.26l.229.1z"/><path fill="#e07032" d="m815.241 513.77-16.149 7.31s-8.28 20.524-8.935 20.97l3.457 27.264h21.627z"/><path fill="#9b3724" d="m798.754 561.989-1.2-9.746c-.692-5.883-1.153-11.81-1.479-17.727l-.147.553c.243 5.736.535 11.458 1.2 17.17l1.2 9.746c.29 2.4.464 4.924.653 7.325l.5-.021c-.114-2.395-.443-4.939-.727-7.3m2.043-41.347c.17 4.709.818 9.393 1.1 14.1l2.265 34.565h.3c.01-2.879-1.5-22.831-1.712-25.7-.214-2.952-.308-5.909-.485-8.862-.294-4.9-1-9.767-1.249-14.667q-.09.245-.219.564m7.336 10.626q.173 5.945.35 11.886l.364 26.15h.357c.116-3.58-.156-22.569-.27-26.148q-.188-5.945-.413-11.887-.293-7.631-.643-15.26l-.229.1zm7.175.14c.011 3.351-.26 6.7-.279 10.053l.1 27.845h.262c.209-3.147.064-24.407.055-27.559-.01-3.35.162-6.7.143-10.049l-.3-18.119-.179.061z"/><path fill="#d8662e" d="m810.761 524.306.075 12.886h9.2v-12.785zm-8.423 41.142-1.752-19.916h13.965v19.916z"/><g fill="#9b8a8e"><path d="M821.498 545.498c-2.765-.122-5.562-.039-8.343.023l-.192-.706a.35.35 0 0 0-.664.091l-.016.634-.442.01-4.875.094a47 47 0 0 0-5.171.179.8.8 0 0 0 .007 1.584c1.612.108 3.229.105 4.84-.009l5.153-.121.444-.01.11 7.295.094 4.875a48 48 0 0 0 .179 5.171.8.8 0 0 0 1.585-.008 35 35 0 0 0-.01-4.839l-.12-5.153a48.5 48.5 0 0 0-.538-7.375c2.72.005 5.429-.355 8.054-1.07a.35.35 0 0 0-.095-.665" opacity=".3" style="mix-blend-mode:multiply"/><path d="m810.794 560.688-2.979-4.207a35.9 35.9 0 0 0-6.393-7.5c-.267-.215-.678.157-.5.446l5.435 7.981 2.8 3.992a48 48 0 0 0 3.036 4.189.8.8 0 0 0 1.311-.891 35 35 0 0 0-2.71-4.01m8.732-25.903-.1 2.7c-.168.219-.679-.2-.908-.051.14-1.225.134-3.763.109-5.9l-.094-6.007c-4.133-.057-8.259.5-8.261.293a1.694 1.694 0 0 1 2.07-2.055l1.955-.029a.75.75 0 0 1 .529.688h.021c1.287-.063 2.695-.588 3.967-.236.2.053.746.264.861.48l.022.081-.155 6.482z" opacity=".3" style="mix-blend-mode:multiply"/></g><path fill="#f2ede2" d="m811.467 524.766 7.865.086v11.9h-7.8l-.068-11.982m-.715-1.361a.633.633 0 0 0-.634.638l.076 13.417c.002.349.285.63.634.63h9.221a.634.634 0 0 0 .634-.634v-13.315c0-.347-.28-.63-.627-.634l-9.3-.1z"/><path fill="#d8662e" d="m828.264 565.664 1.79-20.349h-14.269v20.349z"/><g fill="#9b8a8e"><path d="m826.1 560.736.731-5.1a35.9 35.9 0 0 1 2.266-9.592.35.35 0 0 1 .649.169c-.238 3.2-.759 6.4-1.194 9.582l-.671 4.83a48 48 0 0 1-.79 5.113.8.8 0 0 1-1.573-.2 35 35 0 0 1 .582-4.802" opacity=".3" style="mix-blend-mode:multiply"/><path d="M829.8 546.271a1.11 1.11 0 0 0-1.255-.66l-.034-.013-.235-.069-.021.027-1.418-.213-1.822-.179-2.792.084-6.048.084h-.256c.02.4-.8 1.481-.811 1.881l1.151.02 7.238.2h2.851c-2.179 2.6-3.6 4.771-5.6 7.52l-3.4 5.018c-.539.826-.72 1.007-1.2 1.87-.3.54-.087 2.625.4 2.67a17 17 0 0 0 .942-1.7l1.593-2.507 3.256-4.793 6.241-8.538a4.8 4.8 0 0 0 1.349-.321z" opacity=".3" style="mix-blend-mode:multiply"/></g><path fill="#f2ede2" d="M829.98 544.433h-14.181a.62.62 0 0 1-1.112 0h-14.181a.633.633 0 0 0-.631.689l1.834 20.847a.633.633 0 0 0 .631.579h12.347a.62.62 0 0 1 1.112 0h12.348a.634.634 0 0 0 .631-.579l1.833-20.847a.635.635 0 0 0-.631-.689m-1.665 1.8-11.353 16.192v-16.196zm-14.789 16.188-11.353-16.192h11.353zm-11.492-13.259 10.93 15.588h-9.559zm25.047 15.588h-9.555l10.93-15.588z"/><path fill="#9b3724" d="M830.049 521.084c.208.24.605.636 1.158 1.161 1.086 2.692 7.091 10.3 8.463 17.27a12 12 0 0 1 .538.172l.769-2.832 9.142-4.1-1.92 10.477-8.753 6.074-2.09-3.079a10.7 10.7 0 0 1-.971-2.143c-1.4-4.279-5.919-18.542-7.834-19.982-2.612-1.966-13.317-6.91-13.317-6.91l-16.15 4.447 15.925-6.96a80.5 80.5 0 0 1 14.535 5.925q.274.217.505.48" opacity=".51"/><g fill="#bdb0b3"><path d="m815.245 513.512 9.786-9.294-.245.07c-.044.012-4.416 1.257-8.525 2.925l-5.015 2.221a10.5 10.5 0 0 0-3.277 2.451l-9.98 9.5 17.118-7.742.137-.13.243.069z"/><path d="m856.281 537.441-3.988-3.667a5.4 5.4 0 0 1-1.463-2.24c-.674-1.971-2.061-5.889-3.778-9.949a159 159 0 0 0-3.327-7.3 10.46 10.46 0 0 0-4.907-4.851 96 96 0 0 0-5.015-2.221c-4.109-1.668-8.482-2.913-8.526-2.925l-.245-.07-9.786 9.294.243.069c.044.013 4.417 1.257 8.526 2.925a96 96 0 0 1 5.015 2.221 10.45 10.45 0 0 1 4.907 4.851 159 159 0 0 1 3.327 7.3c1.717 4.06 3.1 7.978 3.778 9.949a5.4 5.4 0 0 0 1.463 2.24l3.988 3.667a.633.633 0 0 1 .037.9l-.358.389 2.263-2.16.022.009v-.033l7.295-6.962a.6.6 0 0 0 .205-.148l.358-.389a.636.636 0 0 0-.034-.899"/></g><use xlink:href="#e" fill="url(#f)" opacity=".3" transform="translate(-32.035 -46.896)"/><path fill="url(#g)" d="m854.426 563.521 9.867-9.2a10.5 10.5 0 0 0-3.22-2.391l-5.015-2.221c-4.109-1.668-8.482-2.913-8.526-2.925l-.245-.07-9.786 9.294.243.069c.044.013 4.417 1.257 8.526 2.925l5.015 2.221a10.5 10.5 0 0 1 3.147 2.311z" opacity=".3" transform="translate(-22.256 -42.501)"/><path fill="url(#h)" d="m827.531 556.013 9.786-9.294-.245.07c-.044.012-4.416 1.257-8.525 2.925l-5.015 2.221a10.5 10.5 0 0 0-3.277 2.451l-9.98 9.5 17.118-7.742.137-.13.243.069z" opacity=".3" transform="translate(-12.286 -42.501)"/><path fill="#f2ede2" d="M846.172 548.02a.633.633 0 0 1-.9.037l-3.988-3.667a7.25 7.25 0 0 1-1.949-2.986c-.666-1.951-2.037-5.82-3.731-9.825a156 156 0 0 0-3.289-7.216 8.65 8.65 0 0 0-4.062-4.013 94 94 0 0 0-4.919-2.18c-3.466-1.406-7.129-2.507-8.095-2.789-.967.283-4.63 1.383-8.095 2.789a94 94 0 0 0-4.92 2.18 8.65 8.65 0 0 0-4.062 4.013 158 158 0 0 0-3.289 7.216c-1.7 4.01-3.066 7.877-3.731 9.825a7.26 7.26 0 0 1-1.949 2.986l-3.989 3.667a.63.63 0 0 1-.895-.037l-.358-.389c-.115-.124-.176-.289-.17-.458s.081-.328.207-.442l3.988-3.667a5.4 5.4 0 0 0 1.464-2.241c.672-1.969 2.059-5.884 3.777-9.948a159 159 0 0 1 3.327-7.3 10.46 10.46 0 0 1 4.908-4.851 96 96 0 0 1 5.015-2.221c4.109-1.668 8.481-2.912 8.525-2.925l.245-.069.245.069c.044.013 4.417 1.257 8.526 2.925a96 96 0 0 1 5.015 2.221 10.45 10.45 0 0 1 4.907 4.851 160 160 0 0 1 3.328 7.3c1.717 4.06 3.1 7.978 3.778 9.949a5.4 5.4 0 0 0 1.464 2.24l3.988 3.667a.633.633 0 0 1 .037.9z"/><use xlink:href="#e" fill="url(#i)" opacity=".3" transform="translate(-32.035 -46.896)"/><g opacity=".3"><path fill="url(#j)" d="m876.3 555.842.667.448z" transform="translate(-36.465 -45.842)"/><path fill="url(#k)" d="m877.54 556.691.679.558q-.328-.293-.679-.558" transform="translate(-36.918 -46.153)"/><path fill="url(#l)" d="M879.376 558.324q-.328-.357-.688-.683.359.327.688.683" transform="translate(-37.339 -46.501)"/><path fill="url(#m)" d="m863.1 572.17.022.02z" transform="translate(-31.629 -51.821)"/></g><path fill="url(#n)" d="m893.618 596.471-3.988-3.671c-.31-.285-1.477-.6-1.711-.949l-9.235 8.711a5.4 5.4 0 0 0 1.158 1.531l3.988 3.667a.633.633 0 0 1 .037.9l-.358.389 2.263-2.16.022.009v-.033l7.295-6.962a.6.6 0 0 0 .205-.148l.358-.389a.634.634 0 0 0-.034-.895" opacity=".21" transform="translate(-37.337 -59.031)"/></g></g></svg>