<svg xmlns="http://www.w3.org/2000/svg" xml:space="preserve" viewBox="0 0 490 490"><path d="M0 245c0 135.1 109.9 245 245 245s245-109.9 245-245S380.1 0 245 0 0 109.9 0 245" style="fill:#002352"/><path d="m314.9 125.5 8.4-21.8c.7-1.8-.2-3.7-2-4.4-.4-.1-.8-.2-1.2-.2h-31.2l-9.8 25.8h-13.8l8-21.2c.7-1.8-.2-3.7-2-4.4-.4-.1-.8-.2-1.2-.2h-31.2l-9.8 25.8h-97.8c-4.5.1-8.6 2.5-10.9 6.3l-24.4 43h182.4c6 0 12 1.1 17.6 3.4 10.9 4.4 23.7 14.5 20.3 37.2-5.2 38-44 105.2-127.8 106.3l43.4-113c1.3-3.6-.5-7.7-4.2-9-.8-.3-1.7-.4-2.5-.4h-58L97 371.3c12 1.2 24.1 1.8 36.2 1.7l-7.1 18.1h32.3c2.6 0 4.8-1.6 5.7-4l6.1-15.5c4.8-.4 9.4-1 14.5-1.5l-8 21h32c2.6 0 4.8-1.6 5.7-4l9.2-23.7c52.6-12 108.7-38.2 142.4-93.3 67.7-111-2.5-139.6-51.1-144.6" style="fill:#fff"/></svg>