<svg xmlns="http://www.w3.org/2000/svg" xml:space="preserve" id="DGD" x="0" y="0" version="1.1" viewBox="0 0 490 490"><style>.st1{fill:#fff}</style><path id="Full" d="M0 245c0 135.1 109.9 245 245 245s245-109.9 245-245S380.1 0 245 0 0 109.9 0 245" style="fill:#c09f57"/><path d="M113 105h77v30h-77zM378 153h-77v25h50v22h-70v-71h94v-26H253v122h125zM314 250H114l-1 147h200.8c51.7 0 75.2-44.4 75.2-73s-21.9-74-75-74m-2 115H147v-83h167c19.2 0 40 17 40 42s-23.6 41-42 41" class="st1"/><path d="M235 103h-27v50h-97v72h124zm-29 97h-70v-22h70z" class="st1"/></svg>