<svg xmlns="http://www.w3.org/2000/svg" xml:space="preserve" id="DIBI" x="0" y="0" version="1.1" viewBox="0 0 490 490"><style>.st1{fill:#fff}</style><path id="Full" d="M0 245c0 135.1 109.9 245 245 245s245-109.9 245-245S380.1 0 245 0 0 109.9 0 245" style="fill:#183c87"/><path id="dibi-2" d="M100.9 272.3c0 27.3 19.5 48.8 46 48.8 12.2.2 23.8-5.2 31.6-14.6V319h19.7V170.5h-20.4v67c-7.8-9-19.1-14.1-31-14-26.4 0-45.9 21.5-45.9 48.8m21 0c0-18.2 11.7-30.7 27.8-30.7 15.7 0 28.2 12.5 28.2 30.7 0 18-12.5 30.7-28.2 30.7-16.2 0-27.8-12.7-27.8-30.7m106.6-46.6h-20.4V319h20.4zm9.4-55.8-28.6 32 9.3 9.3 33.7-26.5zm55.5 151.4c34.6 0 58.5-16.3 58.5-42.4 0-17.8-11-31.2-28.6-36 15.5-4.9 24.2-18 24.2-33.3 0-24-21-41.3-54.1-41.3s-53.8 17.4-53.8 41.3c0 15.3 8.7 28.4 24 33.3-17.6 4.9-28.4 18.2-28.4 36-.1 26.1 23.6 42.4 58.2 42.4m0-68.3c22.3 0 36 10.2 36 24.8 0 15.3-13.8 24.4-36 24.4s-36-9.1-36-24.4c-.1-14.6 13.7-24.8 36-24.8m0-18.2c-20.1 0-31.8-10.4-31.8-23.7 0-15.5 13.6-24 31.8-24s31.8 8.5 31.8 24c0 13.3-11.5 23.7-31.8 23.7m85.2-9.1h-20.4V319h20.4zm-43.9-41 33.7 26.5 9.3-9.3-28.6-32z" class="st1"/><path id="Left" d="M251 306c-8.1-3.5-20.6 5.1-12 13h17c7.3 0 4-8 4-8s-5.5-4.6-9-5" class="st1"/><path id="Right" d="M341 306c-8.1-3.5-20.6 5.1-12 13h17c7.3 0 4-8 4-8s-5.5-4.6-9-5" class="st1"/><path id="Nose" d="M252 306c-8.1-3.5-20.6 5.1-12 13h17c7.3 0 4-8 4-8s-5.5-4.6-9-5m41-94c3.3 0 6 2 6 4.5s-2.7 4.5-6 4.5-6-2-6-4.5 2.7-4.5 6-4.5m49 94c-8.1-3.5-20.6 5.1-12 13h17c7.3 0 4-8 4-8s-5.5-4.6-9-5" class="st1"/></svg>