<svg xmlns="http://www.w3.org/2000/svg" xml:space="preserve" viewBox="0 0 457 457"><circle cx="228.5" cy="228.5" r="228.5" style="fill:#fff"/><path d="M305.9 157.5c-14.2-6.5-29.5-11.3-45.4-14.1-.3-.1-.6.1-.7.3-2 3.5-4.1 8-5.7 11.6q-25.8-3.9-51 0c-1.5-3.7-3.8-8.1-5.8-11.6-.2-.3-.4-.4-.7-.3-15.9 2.8-31.2 7.6-45.4 14.1-.1.1-.2.1-.3.3-28.9 43.2-36.9 85.4-33 127.1 0 .2.1.4.3.5 19.1 14 37.6 22.5 55.8 28.2.3.1.6 0 .8-.3 4.3-5.9 8.1-12 11.4-18.6.2-.4 0-.8-.4-1-6.1-2.3-11.9-5.1-17.4-8.3-.4-.3-.5-.9-.1-1.2 1.2-.9 2.3-1.8 3.5-2.7.2-.2.5-.2.7-.1 36.5 16.7 76.1 16.7 112.2 0 .2-.1.5-.1.7.1 1.1.9 2.3 1.8 3.5 2.7.4.3.4.9-.1 1.2-5.6 3.2-11.3 6-17.4 8.3-.4.2-.6.6-.4 1 3.4 6.5 7.2 12.7 11.4 18.5.2.2.5.4.8.3 18.2-5.6 36.7-14.2 55.8-28.2.2-.1.3-.3.3-.5 4.7-48.2-7.8-90-33-127.1-.2 0-.3-.1-.4-.2m-114.4 102c-11 0-20.1-10.1-20.1-22.5s8.9-22.5 20.1-22.5 20.2 10.2 20.1 22.5c-.1 12.4-9 22.5-20.1 22.5m74.2 0c-11 0-20.1-10.1-20.1-22.5s8.9-22.5 20.1-22.5 20.2 10.2 20.1 22.5c-.1 12.4-8.9 22.5-20.1 22.5" style="fill:#232220"/></svg>