<svg xmlns="http://www.w3.org/2000/svg" xmlns:xlink="http://www.w3.org/1999/xlink" width="250" height="250"><defs><linearGradient xlink:href="#a" id="c" x1="17.334" x2="80" y1="74.339" y2="74.339"><stop offset="0" stop-color="#700000"/><stop offset=".327" stop-color="#730000"/><stop offset=".59" stop-color="#7d0000"/><stop offset=".83" stop-color="#8e0000"/><stop offset="1" stop-color="#9f0000"/></linearGradient><linearGradient xlink:href="#a" id="b" x1="17.584" x2="17.584" y1="68.073" y2="80.102"><stop offset=".35" stop-color="#dfdfdf"/><stop offset=".645" stop-color="#ddd"/><stop offset=".752" stop-color="#d6d6d6"/><stop offset=".828" stop-color="#cbcbcb"/><stop offset=".889" stop-color="#bababa"/><stop offset=".941" stop-color="#a4a4a4"/><stop offset=".987" stop-color="#898989"/><stop offset="1" stop-color="gray"/></linearGradient><linearGradient xlink:href="#b" id="e" x1="38.772" x2="38.772" y1="68.689" y2="80"/><linearGradient xlink:href="#a" id="f" x1="48.667" x2="48.667" y1="68.69" y2="80"><stop offset=".35" stop-color="#cf2000"/><stop offset=".645" stop-color="#cd1f00"/><stop offset=".752" stop-color="#c61d00"/><stop offset=".828" stop-color="#bb1900"/><stop offset=".889" stop-color="#aa1300"/><stop offset=".941" stop-color="#940c00"/><stop offset=".987" stop-color="#790300"/><stop offset="1" stop-color="#700000"/></linearGradient><linearGradient xlink:href="#a" id="g" x1="17.334" x2="80" y1="55.313" y2="55.313"><stop offset="0" stop-color="#cf2000"/><stop offset=".021" stop-color="#d12201"/><stop offset=".244" stop-color="#e23309"/><stop offset=".487" stop-color="#ec3d0e"/><stop offset=".791" stop-color="#ef4010"/><stop offset=".841" stop-color="#ec3d0f"/><stop offset=".882" stop-color="#e2330d"/><stop offset=".919" stop-color="#d12208"/><stop offset=".954" stop-color="#b90a03"/><stop offset=".966" stop-color="#af0000"/><stop offset="1" stop-color="#ef4010"/></linearGradient><linearGradient xlink:href="#a" id="h" x1="17.334" x2="80" y1="57.165" y2="57.165"><stop offset="0" stop-color="#dfdfdf"/><stop offset=".021" stop-color="#e1e1e1"/><stop offset=".244" stop-color="#f2f2f2"/><stop offset=".487" stop-color="#fcfcfc"/><stop offset=".791" stop-color="#fff"/><stop offset=".841" stop-color="#fcfcfc"/><stop offset=".882" stop-color="#f2f2f2"/><stop offset=".919" stop-color="#e1e1e1"/><stop offset=".954" stop-color="#c9c9c9"/><stop offset=".966" stop-color="#bfbfbf"/><stop offset="1" stop-color="#fff"/></linearGradient><linearGradient xlink:href="#b" id="d"/><linearGradient id="a" gradientUnits="userSpaceOnUse"/></defs><circle cx="125" cy="125" r="125" fill="#cdcdcd" fill-rule="evenodd"/><path fill="#0e3ca5" d="M105.685 164.866c4.822 17.889 22.123 31.533 30.86 30.97.306-.02 33.138-6.158 51.112-36.261 13.983-23.432 9.224-46.054-9.798-46.547-6.845.5-81.358 17.763-72.17 51.843m70.395-114.894-.019-.014.027-.017a83.486 83.71 0 0 0-88-12.73 49.224 49.356 0 0 0-5.304 2.596c-1.172.626-2.344 1.247-3.482 1.934l.278.085a38.045 38.147 0 0 0-8.812 8.364c-23.946 31.735 56.373 54.807 99.321 54.884 19.748 14.22 25.293-40.034 5.991-55.102"/><path fill="#5493f7" d="M92.943 50.623c-11.035 16.626-47.79 28.344-53.834 26.52l-.041-.077q.373-.754.754-1.496A88.438 88.675 0 0 1 66.03 44.91q3.393-2.494 7.023-4.663a25.983 26.052 0 0 1 12.152-3.244c16.368.324 7.82 13.487 7.739 13.62m-9.056 117.514c.793 5.224-.019 25.866-1.085 27.602-.918.055-2.83.171-8.368-2.942a87.855 88.09 0 0 1-43.281-62.369 88.964 89.202 0 0 1 0-28.624 87.517 87.751 0 0 1 3.334-13.576 90 90 0 0 1 .923-2.64c6.344 8.46 13.685 16.114 19.924 24.657 5.943 8.137 14.119 21.399 15.782 24.232 10.329 17.594 11.976 28.448 12.764 33.665m122.11-52.027a87.759 87.993 0 0 1-6.126 32.412c-10.367 11.17-80.244-16.325-80.929-16.624-9.56-4.204-38.65-16.978-41.275-37.057-3.764-28.875 54.654-48.998 80.33-49.762 3.079.037 12.448.148 17.911 4.593a87.785 88.02 0 0 1 30.089 66.435m-47.305 78.261c-7.617 3.566-16.004.967-13.825-6.471 4.183-14.282 40.712-28.927 48.779-29.722.995-.097 1.417.582.976 1.358a88.892 89.13 0 0 1-35.923 34.835"/><path fill="url(#c)" d="M17.334 77.254a2.553 2.553 0 0 0 2.329 2.714c30.7.21 60.337-1.2 60.337-5.8 0-13.925-62.666 3.086-62.666 3.086" transform="matrix(2.41095 0 0 2.4174 27.124 21.614)"/><path fill="url(#d)" d="M17.586 78.389v-.007z" transform="matrix(2.41095 0 0 2.4174 27.124 21.614)"/><path fill="url(#e)" d="m44.384 77.951-5.661-5.66-5.563 1.161 5.208 5.208q3.067-.326 6.016-.709" transform="matrix(2.41095 0 0 2.4174 27.124 21.614)"/><path fill="url(#f)" d="m38.723 72.291 5.661 5.66C64.347 75.374 79.519 71.3 79.519 74.3c0 4.245-29.173 5.7-59.843 5.494a2 2 0 0 1-.245-.014 2.35 2.35 0 0 1-1.845-1.388v-.007a2.6 2.6 0 0 1-.138-.368 3 3 0 0 0 .138.368v.007a2.33 2.33 0 0 0 2.087 1.386c6.38-.039 12.694-.481 18.7-1.115l-5.213-5.211c-9.072 1.969-15.826 3.8-15.826 3.8a2.55 2.55 0 0 0 2.341 2.714c30.692.233 60.288-.731 60.325-5.8 0-8.456-23.122-5.5-41.277-1.875" transform="matrix(2.41095 0 0 2.4174 27.124 21.614)"/><path fill="url(#g)" d="M19.678 37.821a2.344 2.344 0 0 0-2.344 2.344v37.089a2.344 2.344 0 0 0 2.329 2.346C50.362 79.37 80.038 69.209 80 74.169V32.393c.038-4.961-29.627 5.199-60.322 5.428" transform="matrix(2.41095 0 0 2.4174 27.124 21.614)"/><path fill="url(#h)" d="M77.64 48.965a23 23 0 0 0-4.11.2l-3.141.433-2.847.449-2.746.47-2.7.475-2.7.465-2.753.473-2.846.475-3.015.471-3.2.492-3.462.479V35.906q-2.931.4-5.982.742v17.914a283 283 0 0 1-6.305.601 151 151 0 0 1-5.434.358 214 214 0 0 1-5.723.202l-3.338.036v5.967l3.337-.035 2.973-.087 2.752-.115 2.681-.154 2.752-.2 2.969-.266 3.335-.333v17.893q3.048-.339 5.982-.742V59.812q1.806-.235 3.462-.478l3.2-.49 3.014-.473 2.848-.474 2.752-.473 2.7-.466 2.7-.473 2.746-.473 2.847-.448 3.14-.432a23 23 0 0 1 4.111-.2c1.3.095 2.36.424 2.36 1.366v-5.966c.001-.943-1.06-1.272-2.359-1.367" transform="matrix(2.41095 0 0 2.4174 27.124 21.614)"/></svg>