<svg xmlns="http://www.w3.org/2000/svg" xml:space="preserve" viewBox="0 0 490 490"><path d="M0 245c0 135.1 109.9 245 245 245s245-109.9 245-245S380.1 0 245 0 0 109.9 0 245" style="fill:#4c82ed"/><path d="M153.7 338.2c34.6 2.1 69.2 4.5 103.8 7.1l8.2.7c2.2.1 4 1.6 4.7 3.7 1.9 6.5 3.7 13.1 5.5 19.6.2.5.3 1 .3 1.6-.1 2.8-2.4 5.1-5.3 5H109.8c-1.6.1-3.2 0-4.8-.5-2.5-1-3.7-3.8-2.7-6.3 0-.1.1-.2.1-.3 24.1-49.4 49.7-98 74.9-146.8 26.1-50.5 51.4-101 78.8-150.9.4-.9 1.1-1.6 1.9-2.1q1.35-.9 3-.9h31c1.2-.1 2.3.1 3.4.5 1.3.6 2.3 1.7 2.8 3 14.5 43.3 28.5 86.7 41.9 130.4 17 55.6 33.3 111.3 48.6 167.2.2.5.3 1.1.3 1.7-.1 2.8-2.4 5.1-5.3 5h-24.1q-1.8.15-3.6-.3c-1.7-.5-2.9-1.8-3.4-3.5-22.4-80.6-46.4-160.7-72.2-240.4l-4.4-13.5c-1.7-5.7-5.3-6.1-8.4-.5-2.3 3.9-4.3 7.5-6.4 11.5-36.8 69.1-72.7 138.8-107.5 209" style="fill:#fff"/></svg>