<svg xmlns="http://www.w3.org/2000/svg" xml:space="preserve" id="DMME" x="0" y="0" version="1.1" viewBox="0 0 490 490"><style>.st0{fill:#7cc71a}</style><path id="Full" d="M0 245c0 135.1 109.9 245 245 245s245-109.9 245-245S380.1 0 245 0 0 109.9 0 245" class="st0"/><path id="Lock" d="M141.2 220.8v71.9c-.2 24.6 8.4 48.4 24.1 67.3l-8.1 37.7 36.7-13.7c10.5 6 22 10.1 34 12.2 56.7 9.8 110.7-28.2 120.5-84.9v-.1c1.1-6.1 1.6-12.2 1.5-18.4v-71.9zm45.5-6.3v-36.9c0-32.5 26.4-58.8 58.8-58.8h.1c32.5 0 58.9 26.2 58.9 58.7v37h26.9v-36.9c0-47.3-38.4-85.6-85.7-85.6h-.1c-47.3-.1-85.7 38.2-85.8 85.5v37z" style="fill:#fff"/><path id="Lines" d="m243.2 322.2 69.1-68.9 4.5 4.5-69.1 68.9zm34.9-64.5-4.5-4.4-64.6 64.4-30.1-30.1-4.5 4.5 34.6 34.5zm-54 64.5 69.1-68.9 4.5 4.5-69.1 68.9z" class="st0"/></svg>