<svg xmlns="http://www.w3.org/2000/svg" xml:space="preserve" viewBox="0 0 490 490"><path d="M0 245c0 135.1 109.9 245 245 245s245-109.9 245-245S380.1 0 245 0 0 109.9 0 245" style="fill:#2c2b3f"/><path d="M348.9 78.9c-6.2-.1-12.2 2.1-16.7 6.3-4.5 4.5-6.8 9.8-6.8 17v160.7h-.5c-.1.5.1 1 .5 1.3v12.1c0 30.4-.9 50.1-27.6 75.2-3.3 2.6-6.7 5-10.4 7.2-12.7 7.6-26.2 11.2-41.6 11.2s-29.4-3.6-41.6-11.2c-12.7-7.6-22.1-17.9-29.4-30.9s-10.9-27.8-10.9-43.9 3.6-30.9 10.9-43.9c6.9-12.6 17-23.1 29.4-30.4 11.1-6.6 23.7-10.4 36.6-11.2l-16.3 16.1c-8.6 8.5-8.6 22.8 0 31.8 8.6 8.5 23.1 8.5 32.1 0l53.3-52.8c8.6-8.5 8.6-22.8 0-31.8l-53.8-52.8c-8.6-8.5-23-8.5-32.1 0-8.6 8.5-8.6 22.8 0 31.8l17.2 17h-5c-22.1 0-42 5.4-60.1 16.6-18.1 11-32.8 26.8-42.5 45.6-10.8 18.8-15.8 40.3-15.8 64s5.4 45.2 16.7 64.9c11.3 19.2 26.2 34.5 46.1 45.7 19.4 11.2 41.1 16.5 64.6 16.5s45.2-5.4 64.2-16.5c19-10.9 34.7-26.7 45.6-45.7 11.3-19.2 16.7-40.7 16.7-64.9V102.2c.2-6.3-2.1-12.4-6.3-17-3.9-4-9.8-6.3-16.5-6.3" style="fill:#fff"/></svg>