<svg xmlns="http://www.w3.org/2000/svg" xml:space="preserve" viewBox="0 0 490 490"><path d="M0 245c0 135.1 109.9 245 245 245s245-109.9 245-245S380.1 0 245 0 0 109.9 0 245" style="fill:#ba9f33"/><path d="M239.3 346.2c36 0 63.5-9 82.6-27.1s28.7-43.7 28.7-77c.1-13.3-2.4-26.5-7.4-38.9-4.8-11.8-12.1-22.5-21.5-31.2-9.4-8.8-20.9-15.8-34.5-20.9s-29.2-7.7-46.8-7.7H152v38.3h18v125.9h-18v38.6zm42.2-78.6c-1.4 7.3-4 14.3-7.7 20.7-3.3 5.7-7.9 10.5-13.5 14.1-5.5 3.5-12.1 5.2-19.9 5.2h-11V181.8h11c7.7 0 14.4 1.7 19.9 5.1s10.1 8 13.5 13.5c3.6 6 6.2 12.5 7.7 19.3 1.7 7.4 2.5 14.9 2.5 22.5 0 8.5-.9 17-2.5 25.4" style="fill:#f7f7f7"/><circle cx="245" cy="245" r="173" style="fill:none;stroke:#f7f7f7;stroke-width:10;stroke-linecap:round;stroke-linejoin:round"/></svg>