<svg xmlns="http://www.w3.org/2000/svg" width="256" height="256" viewBox="0 0 67.733 67.733"><g transform="translate(0 -229.267)"><circle cx="33.867" cy="263.133" r="32.411" style="opacity:1;fill:#e6007a;fill-opacity:1;fill-rule:nonzero;stroke:none;stroke-width:3.59302354;stroke-linecap:round;stroke-linejoin:round;stroke-miterlimit:4;stroke-dasharray:none;stroke-dashoffset:0;stroke-opacity:1;paint-order:stroke fill markers"/><path d="M85 34.7c-20.8 0-37.8 16.9-37.8 37.8 0 4.2.7 8.3 2 12.3.9 2.7 3.9 4.2 6.7 3.3 2.7-.9 4.2-3.9 3.3-6.7-1.1-3.1-1.6-6.4-1.5-9.7.4-14.1 11.8-25.7 25.9-26.4 15.7-.8 28.7 11.7 28.7 27.2 0 14.5-11.4 26.4-25.7 27.2 0 0-5.3.3-7.9.7-1.3.2-2.3.4-3 .5-.3.1-.6-.2-.5-.5l.9-4.4L81 73.4c.6-2.8-1.2-5.6-4-6.2s-5.6 1.2-6.2 4c0 0-11.8 55-11.9 55.6-.6 2.8 1.2 5.6 4 6.2s5.6-1.2 6.2-4c.1-.6 1.7-7.9 1.7-7.9 1.2-5.6 5.8-9.7 11.2-10.4 1.2-.2 5.9-.5 5.9-.5 19.5-1.5 34.9-17.8 34.9-37.7 0-20.9-17-37.8-37.8-37.8m2.7 87c-3.4-.7-6.8 1.4-7.5 4.9-.7 3.4 1.4 6.8 4.9 7.5 3.4.7 6.8-1.4 7.5-4.9s-1.4-6.8-4.9-7.5" style="fill:#fff" transform="matrix(.38288 0 0 .38288 1.322 230.792)"/></g></svg>