<svg xmlns="http://www.w3.org/2000/svg" width="500" height="500" viewBox="0 0 132.292 132.292"><defs><clipPath id="a"><path d="M375.83 790.65c-8.7 4.57-18.75 5.7-35.62 1.5a54.3 54.3 0 0 1-25.42-14.48 41.2 41.2 0 0 0-3.53-12.3c-6.15-13-16.28-17-16.28-17a32 32 0 0 1 8.78 11.7 29.7 29.7 0 0 1 2.32 12.07 30.6 30.6 0 0 1-1.72 10s-16.13 3.6-32.4-2a50.24 50.24 0 0 1-22-14.4 30 30 0 0 1-1.73-2.1 21.5 21.5 0 0 1-1.64-2.48c-.08 0-.16.08-.23.08-1.35.37-2.85.82-4.5 1.2a50.1 50.1 0 0 1-22.35.07c-7.8-1.65-12.6-7.35-15.3-11.92-.6-1-1-2-1.5-2.78a20.7 20.7 0 0 1-1.35-3.45 28 28 0 0 1-4.27-.45 2 2 0 0 1-.68-.15c-5.32-1-14.1-3.45-21.38-10a29.7 29.7 0 0 1-7.27-10.13c-.15-.37-.38-.75-.53-1.2a41.4 41.4 0 0 1-2.85-15.6s10.5-2.85 12.53-13a40.8 40.8 0 0 0-.45-18.83c-.53-1.72-.9-2.7-.9-2.7a11.5 11.5 0 0 1-.08 1.58c-.07 1.5-.14 3.45-.37 5.4a19 19 0 0 1-.3 1.95 23.5 23.5 0 0 1-2 6.67c-2.62 5.25-9.6 13.73-23.1 8.63s-11.25-23.4-11.25-23.4c-8.09-2.63-19.12-5.4-28.27-18.15a48.5 48.5 0 0 1-7.2-16c-.23-1-.45-2.1-.68-3.08a49.6 49.6 0 0 1-1-9.37c14.25-2.25 15.22-13.35 15.22-13.35a10.8 10.8 0 0 1-2.85 2.7 19 19 0 0 1-2.09 1.2 22.58 22.58 0 0 1-14.33 1.35 27.61 27.61 0 0 1-19.35-17.18c-3.38-8.85-1.35-18.37.68-24.3.75-2.1 1.5-3.82 1.94-4.87a10 10 0 0 1 .68-1.28c-.37-.22-.68-.45-1.12-.67a11 11 0 0 1-1.21-.75c-6.07-3.75-16.87-11.55-19.95-25.2a41.75 41.75 0 0 1 .3-19.43c.08-.3.15-.67.23-1a44 44 0 0 1 1.54-4.68 26 26 0 0 1 1.35-2.92 23 23 0 0 1-2.25-1.8 36.82 36.82 0 0 1-11.55-19.5c-2.25-11 1-21.53 3.38-27 .67-1.5 1.2-2.7 1.57-3.38a7 7 0 0 1 .38-.67c7.27 4.27 23 3.67 28.05-10.05a59.7 59.7 0 0 0 2.7-10.05 71.7 71.7 0 0 0 1-17.48 77.5 77.5 0 0 1-4.35 17.33c-1.94 4.95-4.72 9.45-8.47 11.77-8.7 5.33-21.68 1.05-23.78-19.05-1-9 .3-15.37 1.88-19.65a25.5 25.5 0 0 1 1.8-3.75 13.9 13.9 0 0 1 2.92-3.75c5 1.5 13.8 2 19.8-11.92a62.6 62.6 0 0 0 4.2-14.63 57 57 0 0 0 .75-12.75c-.37 1.88-.9 3.75-1.42 5.55a72 72 0 0 1-3.53 9.3c-.82 1.73-1.65 3.38-2.55 4.95-3.75 6.53-7.87 10.8-10.72 10.65-5.33-.37-13.58-10.72-10.58-33.9 1.88-14.47 8.1-23.25 12.6-27.82.53-.6 1.13-1.05 1.58-1.5a20.5 20.5 0 0 1 3.15-2.48s5.4 13.2 18 11.4a37.2 37.2 0 0 0 14.7-5.62 30 30 0 0 0 5.55-4.5 32 32 0 0 1-6.38 2.32c-6.37 1.73-14.55 2.48-17.92-1.05-5.63-5.7-5.1-10.72-2.63-22.95a71.2 71.2 0 0 1 4.43-13.87 55.6 55.6 0 0 1 3.68-7.2 9.75 9.75 0 0 0 4.42 3.82c7.5 3.38 18.67-1.65 18.67-1.65s-2.62 13.35.38 20.63a10.46 10.46 0 0 0 5.25 5.62c5.7 2.63 13 .45 13 .45-6.6.15-15.6-2.1-14.18-15.6 1.43-13.27 16.2-37.42 16.73-38.17a94 94 0 0 1-12.53 10.72 65.7 65.7 0 0 1-18.37 9.38 3.4 3.4 0 0 1-4.28-4.13c2.55-10.35 7.73-26.47 27-49.05 22.88-26.85 48.15-38.12 48.15-38.12a58 58 0 0 1 6.46-.08c7.42.38 19 2.55 22.42 11.78 3.52 9.67 1.5 20.47-.08 26.1a34 34 0 0 1-1.27 3.9c40-21.6 65.47-20.85 81.6-11.63 15.15 8.63 17.62 25.5 17.62 25.5 1.88-4 12.23-15.6 29.63-29.1s33.08-12.15 37.87-11a14.77 14.77 0 0 1 9.3 7.65c.83 2.1 1.88 5.7 7.58 8.62a94.9 94.9 0 0 0-26.4 15.08c-28.58 1.72-39.3 15-39.3 15-9.83.07-19 3.6-27.38 9.15a61 61 0 0 0-15.22 14.55 48.4 48.4 0 0 0-5.33 9.45c-1.35 3.3-1.12 4.5-1 5.47s.3 2.1.3 2.1a29.2 29.2 0 0 0-5.78 9.75s-20.47-1.5-29.47 2.85-15.37 9.75-19.8 18-9.15 21.75-11.48 28.43-4.85 14.18-4.85 14.18c-7.95-.23-10.43 1.27-11.4 7.72s-1.13 14.48-1.35 18.68 1.65 4.5 1.65 4.5c-1.65.67-2.55 3.37-2.55 5.25s.45 8.25.9 14.32 2.62 37.35 3.22 46.13 2.48 33.22 2.7 38.47 1.88 8.4 4.5 10.73 5.55 4.35 12.75 9.22c.23.15.53.38.75.53 7.8 5.25 14.33 5.32 14.33 5.32 1.57 17.85 12.67 33.68 12.67 33.68 0 9.9-2.92 34.87 9.53 54.6s28.12 26.77 28.12 26.77-.22 2.4-.15 6.38c.08 7.35 1.05 19.87 5.63 31.72 7 18.08 16.8 36 29 48.9s26.33 23.85 33.68 27.9c4.28 2.33 13.12 7.2 24.15 12.15a37.5 37.5 0 0 0-11.48-.67c13.08 3.15 18.78 10.35 21.18 15.6" class="cls-2"/></clipPath></defs><path d="M.85 230.854c0 36.004 29.292 65.296 65.296 65.296s65.295-29.292 65.295-65.296-29.291-65.295-65.295-65.295S.85 194.85.85 230.854" class="cls-1" style="display:inline;opacity:1;fill:#2282c2;fill-opacity:1;fill-rule:evenodd;stroke:none;stroke-width:0;stroke-miterlimit:4;stroke-dasharray:none;stroke-opacity:1" transform="translate(.177 -164.719)"/><path d="M70.097 272.977a6.4 6.4 0 0 0 3.505.348c1.895-.374 2.808-1.566 2.808-1.566s1.113.305 2.722 0c1.61-.305 2.13-1.391 2.13-1.391s.8.722 2.931.33 3.653-.811 5.218-.434c1.565.376 1.608 1.652 1.374 2.392a2.7 2.7 0 0 1-1.218 1.52c-.521.323-1.2.74-1.261 1.653-.062.913.609 2.114 2.203 2.33s5-.434 6.739-3.155c1.739-2.722 1.913-4.505 2.07-5.766s.069-3.2-.913-4.826-2.22-2.452-3.163-3.044l1.507-1.687a12 12 0 0 0 1.765-.983l1.895 3.913c.174.357.505 1 .845 1.662a1.006 1.006 0 0 0 1.855-.149c.27-.834.556-1.695.73-2.226.418-1.275 1.305-3.817 2.81-6 1.095-1.59 2.243-2.365 3.416-2.739a1.136 1.136 0 0 0 .598-1.73c-.358-.513-.8-1.14-1.287-1.844-1.332-1.913-2.505-4.679-2.957-7.452-.313-1.896.156-3.861.956-5.705.4-.927-.678-1.774-1.478-1.165l-2.114 1.6s1.01-3.93.418-5.93c0 0 .464-1.749-.209-3.384 0 0-.07-2.756-.878-5.496s-2.183-4.182-2.183-4.182.852-3.791.757-7.426-.713-6.852-1.957-9.635-3.956-6.418-7.496-7.061c0 0-1.034-.757-1.843-.531 0 0-2.113-2.043-4.557-2.279s-3.217.783-3.33 1.384 0 1.034.365 1.704c.366.67 1.035 2 1.035 2s-.713.922-.756 2.026.713 2 .713 2l-1.017 1.435h-1.061s-1.078-1.748-2.6-2.253c-1.52-.504-2.878.044-3.565.505a2.27 2.27 0 0 0-1.722-.812s-.861-2.156-3.594-2.574a12.9 12.9 0 0 0-5.113.304s-.321-2.408.609-3.87c.93-1.46 2.695-2.826 2.243-4.13a2.47 2.47 0 0 0 1.201-1.305c.408-.974.087-1.67.087-1.67s3.054-1.204 3.263-2.491c.2-1.244-1.932-4.375-7-3.218a1.31 1.31 0 0 0-1.323-.496s-1.16-.72-2.677.279c0 0-4.34-.383-8.174.19-4.079.61-6.392 1.193-9.584 2.567-3.504 1.507-5.713 3.078-8.478 5.434-2.365 2.018-4.688 5.975-6.044 8.348-1.409 2.462-3.29 6.174-3.566 8.522a.817.817 0 0 0 1.087.862c1.374-.497 3.782-1.322 5.252-1.644a.5.5 0 0 1 .105-.018s-3.618 3-4.973 7.618c0 0-6.975 2.618-7.722 6.765-.514 2.852 2.174 3.6 2.174 3.6s.07 2.418.782 3.913a3.4 3.4 0 0 0-.713 1.6s-3.538 3.366-3.601 7.819 3.4 3.2 3.74 3.095l.887 1.322s-.548 2.551.339 4.182c0 0-2.105 4.29-1.19 7.618.913 3.328 3.468 3.435 5.642.983 0 0 .678 2.852 1.67 4.078 0 0-.374 2.957 1.16 5.409 1.532 2.452 3.669 1.391 4.216.232l.375.104s.338 2.348 1.635 3.574 3.469 1.8 3.469 1.8.782 2.617 3.026 3.844 3.06-.852 3.026-1.296c0 0 2.14 2.55 7.279 2.078 0 0 1.73 1.566 4.696 2.009s4.487-.548 4.487-.548 3.806 1.413 7.502-.84" class="cls-12" style="isolation:isolate;fill:#fff;fill-opacity:1;stroke-width:.11594561" transform="translate(.177 -164.719)"/><path d="M43.453 204.826s.203-6.957-14.667-2.058l-.017-.028s6.334-22.341 32.693-20.948c0 0-.41.656-.164 1.025 0 0 .492-1.23 2.254-1.476 0 0-.04 2.5.861 3.075 0 0-.86-2.665.041-3.567 0 0 .123 4.223 3.116 5.493 0 0-.492.656-2.296-.86 0 0 .41 1.393 2.255 1.516 0 0-1.107 1.886-3.034.492 0 0 .328 1.148 1.804 1.353 0 0-5.534 6.313-1.23 14.225l.656-.697s.328.164.45 1.967c0 0 2.214-3.279-.573-3.074l-.697-2.05s5.534-2.09 7.05.451c0 0-1.27.82-1.27 1.68.492.083 2.828-4.057 5.739 2.379 0 0-2.09.368-2.378 1.27l-.533-.41s1.394 3.28 2.706 3.977c0 0-.287-1.722-1.27-2.665 0 0 2.213-4.181 5.656 2.132 0 0-.164-2.706-2.828-4.059l-1.189-2.541s2.542-2.173 4.55 2.132c0 0 3.444-1.107 5.206 2.295 0 0-3.238.082-1.434 3.567 0 0-4.592.614-2.091 3.32.533-.328-1.804-3.156 3.853-2.296 0 0-4.796-7.01 4.51-1.516 0 0-1.35.606-.698 2.664 0 0-4.74-1.812-1.377 4.725 0 0-2.493-8.72 2.898-2.102 0 0-3.536-9.227 4.116-1.304 0 0-2.753.686-1.942 3.536.087-.232.435-2.782 2.348-2.666.319.203.957.376 2.609 3.275 0 0-4.29-.754-3.218 5.305 0 0 1.754-11.729 6.74 3.025l-.044.018s-1.913-2.667-3.391 2.232c0 0 2.435-5.304 3.478.232 0 0 .087 1.072-.058 1.826 0 0-2.203.058-3.652 4.32.174-.088 1.942-2.87 3.652-2.987 0 .493 0 7.762-2.898 9.218 0 0-.986-1.304-1.073-2.377 0 0-.754-2.377-1.942-2.464 0 0-.725-.985-1.072-.956 0 0 1.217-4.087.608-4.464-.145.029-2.435-2.261-7.565 2.957 0 0-.754-.32-1.623.724l-1.246-.51s-.144-1.558-1.62-1.989c0 0 1.23-5.083.616-5.165 0 0-3.67-1.496-7.728 3.874 0 0-1.414-.348-1.537 1.189 0 0-.922.061-1.291 1.332 0 0-1.722-.205-3.608 1.107 0 0 .718-4.26.246-4.26 0 0 .574.489.472-3.426m0 0s.02-.882-.41-1.046.164-1.104-.082-2.52c.061-.206-.308-4.325-.8-4.715 0 0 1.19-9.872-10.115-10.103 0 0 2.435-1.74 2.957-1.624l1.507.232s-1.101-.985-2.029-2.435c0 0-2.609-3.13-8.406 2.551 0 0-3.826-4.58-10.551-1.333M49.456 225.517l.412 4.776 4.554.135.122-4.818z" style="fill:#2282c2;fill-opacity:1;stroke:none;stroke-width:.11594561px;stroke-linecap:butt;stroke-linejoin:miter;stroke-opacity:1" transform="translate(.177 -164.719)"/><path d="M91.086 240.36a2 2 0 0 0 .217.077 9 9 0 0 1-.686-.174s-1.218-.539-1.722-.539-2.131.6-3.105 1.322c-.974.721-1.913 1.704-3.618 2.591s-3.443.984-4 1.026a5 5 0 0 0-.477.062c-.21.035-.418.07-.58.104a2 2 0 0 1 .116-.191c.243-.392.738-.896 1.121-1.262.288-.269.514-.47.522-.477-.043.017-1.566.695-2.277 1.623s-.58 1.748-.28 2.148c.313.426 1.87.505 1.87.505a4.9 4.9 0 0 0 .626 2.443 2.7 2.7 0 0 0 .287.41c-2.008.425-2.913 1.46-3.166 1.572-.252.113-1.33-.999-2.939-1.19a5.2 5.2 0 0 0-2.898.539c2.825-.723 3.54 1.712 3.495 2.435-.044.722-.521 1.756-1.46 2.06-.94.304-2.331.087-3.235-.017-.905-.105-1.174-.27-1.609-.226-.434.042-.608.322-.548.643s.591.957 1.044 1.331c.452.375 1.547 1.33 1.956 1.939.408.608.679 1.374.218 1.609s-1.245-.035-2.027-.383c-.783-.347-2.157-.93-2.698-1.172-.542-.241-1.174-.373-1.835.444-.66.818-1.383 2.261-.817 4.53.435 1.749 2.183 3.618 2.957 4.392-.044-.009-.087-.017-.116-.026-3.061-.704-6.366-2.13-8.348-3.792s-3.566-3.99-4.375-5.878-.991-3.539-.87-4.957c.122-1.418.87-3.165 2.792-4.6 1.923-1.434 5.774-2.07 7.375-2.287s4.765-.304 7.252.548c2.4.826 4.895 2.73 4.974 2.791a9.6 9.6 0 0 0-2.688-2.373s.592-.653.435-2.027c0 0 1.13.288 1.592-1.113.278-.852.182-1.844.07-2.478a5 5 0 0 0-.157-.653s-.07.58-.191 1.2a6.7 6.7 0 0 1-.305 1.105c-.33.812-.73.895-1.183.739s-1.356-.504-2.025-.644c-.67-.139-2.062-.442-2.61-.53-.546-.086-1.564-.304-1.781-.608s-.07-1.507-.019-1.93.174-1.027.323-1.16c.148-.133 1.087-.296 1.565-.39.478-.096 1.507-.157 1.59-.55.084-.391.027-1.33.966-2.747.739-1.104 1.896-1.93 3.47-2.261a7 7 0 0 1 .87-.13q.274-.026.573-.027s.131 1.287 1.01 1.879a2.64 2.64 0 0 1-.464-1.748c.116-.983.957-1.721.957-1.721a5.7 5.7 0 0 0 1.704 1.469 3.8 3.8 0 0 0 1.322.452 6.4 6.4 0 0 1-1.13-.574 4 4 0 0 1-1.27-1.218 2.5 2.5 0 0 1-.365-.982.116.116 0 0 1 .182-.116c.121.08.295.201.478.34l.026.026c.33.252 1.331.983 2.174 1.391.104.052.209.096.313.14.896.347 2.949.312 4.044.051 0 0-.232 1.175-3.043 1.175 0 0 1.938.66 3.304-.636a3.15 3.15 0 0 1-.061 1.653c-.226.74-1.209 1.313-2.4 1.217 0 0 1.46.496 2.382-.156a3.32 3.32 0 0 0 1.2-1.624l1.624.644s-1.13 2.765.811 3.782c0 0-.756-.87-.66-1.86.078-.896.478-1.444.81-1.723a.085.085 0 0 1 .117.01 5.4 5.4 0 0 0 1.304 1.06 7.4 7.4 0 0 0 1.409.644.4.4 0 0 1-.07-.035 6.6 6.6 0 0 1-1.694-1.242c-.765-.812-.87-1.46-.87-1.46l.28-.2s.625.922 1.495 1.374a7.3 7.3 0 0 0 2.061.643 12 12 0 0 0 1.174.147 14 14 0 0 0 2.27-.077 1.59 1.59 0 0 1-1.076.887 9.6 9.6 0 0 1-1.774.286s1.983.392 3.246-.609c-.042-.034.419 4.184-4.45 3.314z" class="cls-13" style="isolation:isolate;fill:#2282c2;fill-opacity:1;stroke:none;stroke-width:.11594561;stroke-opacity:1" transform="translate(.177 -164.719)"/><g class="cls-14" clip-path="url(#a)" style="isolation:isolate;fill:#2282c2;fill-opacity:1;stroke:none;stroke-opacity:1" transform="matrix(.11595 0 0 .11595 18.569 14.474)"><path d="M46.29 196.72h337.42v599.62H46.29z" class="cls-15" style="fill:#2282c2;fill-opacity:1;stroke:none;stroke-opacity:1"/></g><path d="M53.865 268.707a3.6 3.6 0 0 1-.2 1.16s-1.87.417-3.756-.232a5.83 5.83 0 0 1-2.555-1.666 4 4 0 0 1-.2-.244 2.4 2.4 0 0 1-.19-.288c-.009 0-.018.01-.028.01-.155.042-.329.095-.521.139a5.8 5.8 0 0 1-2.59.008c-.906-.192-1.463-.853-1.776-1.382-.07-.116-.116-.232-.174-.323a2.5 2.5 0 0 1-.156-.4 3 3 0 0 1-.495-.052.2.2 0 0 1-.079-.017c-.617-.116-1.635-.4-2.478-1.16a3.4 3.4 0 0 1-.843-1.174c-.018-.043-.044-.087-.061-.14a4.8 4.8 0 0 1-.33-1.808s1.217-.33 1.451-1.508a4.7 4.7 0 0 0-.052-2.183c2.427 2.705 4.986 5.018 6.84 6.122 2.436 1.444 6.897 3.296 7.923 3.722a3.6 3.6 0 0 1 .27 1.416z" class="cls-18" style="isolation:isolate;fill:#2282c2;fill-opacity:1;stroke:none;stroke-width:.11594561;stroke-opacity:1" transform="translate(.177 -164.719)"/><path d="M49.143 236.976a2 2 0 0 1-.296.052 3 3 0 0 1-1.538-.22 2.4 2.4 0 0 1-.535-.301s.464-1.07 1.096-1.618c.927-.792 1.573-.835 1.756-.826a.03.03 0 0 1 .027.044c-.588 1.243-.51 2.87-.51 2.87M54.17 235.307a1.5 1.5 0 0 1-.232.116 2.8 2.8 0 0 1-1.495.2 3.2 3.2 0 0 1-.723-.183s.28-1.148.87-1.913c.783-1.009 1.513-1.113 1.687-1.121.017 0 .035.017.027.034-.413 1.083-.134 2.867-.134 2.867M58.683 236.028a2 2 0 0 1-.357.148 3.2 3.2 0 0 1-1.252.122 4 4 0 0 1-.774-.148s-.035-.696.704-1.844c.645-.991 1.314-1.235 1.53-1.287a.043.043 0 0 1 .053.052c-.334 1.287.096 2.957.096 2.957" class="cls-19" style="isolation:isolate;fill:#2282c2;fill-opacity:1;stroke:none;stroke-width:.11594561;stroke-opacity:1" transform="translate(.177 -164.719)"/><path d="M70.796 182.696c-.687.58-1.618.94-2.383 1.34s-1.26 1.176-1.26 1.176a4 4 0 0 1-.514-.338 7.8 7.8 0 0 1 1.855-1.34c1.13-.58 1.548-.539 2.043-1.159a1.5 1.5 0 0 1 .259.321" class="cls-36" style="isolation:isolate;fill:#2282c2;fill-opacity:1;stroke:none;stroke-width:.11594561;stroke-opacity:1" transform="translate(.177 -164.719)"/><path d="M86.5 200.036a1.5 1.5 0 0 1-.477-.27c-.626-.557-.514-1.496-.514-1.496a4 4 0 0 0 .464.14 1.46 1.46 0 0 0 .232 1.165 2.5 2.5 0 0 1 .296.461M86.344 197.557a2.2 2.2 0 0 0-.26.47.9.9 0 0 1-.314-.232.116.116 0 0 1 .07-.183c.104-.01.26-.038.504-.055" class="cls-44" style="isolation:isolate;fill:#2282c2;fill-opacity:1;stroke:none;stroke-width:.11594561;stroke-opacity:1" transform="translate(.177 -164.719)"/><path d="M98.615 214.81a12 12 0 0 0-.818-1.096l.018-.556c.025-.13.616-3.191-.279-7.462-.826-3.982-3.435-6.251-3.548-6.348l-.183-.156a.35.35 0 0 0-.487.027l-.166.182a2.4 2.4 0 0 1-.487.382 2.4 2.4 0 0 1-.643.253l-.479.104a.286.286 0 0 0-.165.418l.21.356a12.2 12.2 0 0 1 1.381 3.565c.392 1.94.244 3.731.08 4.574a3.6 3.6 0 0 0-.915-.348l.044-.313a14.6 14.6 0 0 0-.115-4.209c-.409-2.147-1.027-2.947-1.096-3.034l-.116-.148a.423.423 0 0 0-.617-.043l-.14.13a.73.73 0 0 1-.356.165h-.087a2.4 2.4 0 0 1-.591-.07l-.261-.095a.264.264 0 0 0-.356.232c-.01.077-.018.173-.035.269-.052.287-.087.409-.116.722a6 6 0 0 1-.365 1.507 5.6 5.6 0 0 1-.897 1.53 4.6 4.6 0 0 0-.895-1.33c.895-1.417 1.452-3.408 1.583-3.739 0-.009.008-.026.008-.034a1 1 0 0 0 .14-.116s-.053.009-.14.017c-.052-.156-.464-.052-.811-.556-.304-.418-.148-.887-.026-1.122a3.2 3.2 0 0 0 1.322-.347 5.6 5.6 0 0 1-1.296.087 1.04 1.04 0 0 1-.07-.713c.574-.07 1.331-.232 1.905-.54.748-.4 1.026-.608 1.486-1.087.418-.443.922-1.33 1.026-1.313.105.018.018.721-.231 1.276a3.92 3.92 0 0 1-1.508 1.756s.775-.338 1.148-.695a3.3 3.3 0 0 0 .67-.87c.174-.304.261-.495.435-.557.174-.061.591.253.765.67s.339.905.322 2.018c0 0 .218-.287.33-1.113.765.478 4.244 2.87 5.2 7.643 1.082 5.458.44 9.127.222 10.127" class="cls-13" style="isolation:isolate;fill:#2282c2;fill-opacity:1;stroke:none;stroke-width:.11594561;stroke-opacity:1" transform="translate(.177 -164.719)"/><path d="M92.97 200.349c-.008.008-.017.008-.025.017a1.47 1.47 0 0 1-.73.232.057.057 0 0 0-.045.087 12.8 12.8 0 0 1 1.418 3.687c.418 2.087.252 4.113.035 5.044a14 14 0 0 1 1.66 1.295c.053-1.17.174-6.562-2.313-10.362M89.084 201.818a.128.128 0 0 0-.149.122 6.6 6.6 0 0 1-.434 2.113c-.464 1.183-1.096 1.81-1.096 1.81a11 11 0 0 1 1.348.521c.818-1.826.983-3.835 1.017-4.522a3 3 0 0 1-.686-.044" class="cls-47" style="isolation:isolate;fill:#2282c2;fill-opacity:1;stroke:none;stroke-width:.11594561;stroke-opacity:1" transform="translate(.177 -164.719)"/><path d="M86.188 205.793a.06.06 0 0 0-.035.008.4.4 0 0 0-.018-.095c.018.025.027.052.035.06a.01.01 0 0 0 .01.009z" class="cls-44" style="isolation:isolate;fill:#2282c2;fill-opacity:1;stroke:none;stroke-width:.11594561;stroke-opacity:1" transform="translate(.177 -164.719)"/><path d="M67.57 271.012a28 28 0 0 1-3.752-.765 23 23 0 0 1-1.887-.644 4.2 4.2 0 0 1 1.165 1.16c.517.24 2.352.945 4.474.25" class="cls-52" style="isolation:isolate;fill:#2282c2;fill-opacity:1;stroke:none;stroke-width:.11594561;stroke-opacity:1" transform="translate(.177 -164.719)"/><path d="M72.135 271.281a1.7 1.7 0 0 0 .966.218.99.99 0 0 0 .695-.357 6 6 0 0 1-1.661.14" class="cls-44" style="isolation:isolate;fill:#2282c2;fill-opacity:1;stroke:none;stroke-width:.11594561;stroke-opacity:1" transform="translate(.177 -164.719)"/><path d="M50.091 255.133c-2.174-.834-4.566-2.382-5.644-5.122-1.19-3.034-.164-5.426-.164-5.426-1.591-1.67-1.774-3.435-1.765-4.21.025.018.06.045.087.062.903.609 1.66.617 1.66.617.182 2.07 1.466 3.905 1.466 3.905 0 1.148-.34 4.043 1.103 6.33s3.26 3.105 3.26 3.105-.01.287-.003.74" class="cls-69" style="isolation:isolate;fill:#2282c2;fill-opacity:1;stroke:none;stroke-width:.11594561;stroke-opacity:1" transform="translate(.177 -164.719)"/><path d="M97.857 254.394c-.895 1.418-3.043 4.365-5.652 6.713-2.912 2.626-5.896 4.653-8.696 5.783s-5.939 2.157-9.026 2.304c-3.088.147-6 .01-9.061-.686s-6.366-2.131-8.348-3.792c-1.983-1.66-3.566-3.992-4.374-5.878s-.991-3.54-.87-4.957c.122-1.417.87-3.165 2.791-4.6 1.922-1.436 5.774-2.07 7.376-2.287 1.6-.217 4.764-.305 7.25.547 2.436.835 4.888 2.73 4.975 2.792-.095-.052-3.313-1.878-5.765-2.427-2.487-.547-5.652-.39-8.54.201-2.886.591-5.243 1.826-6 2.899-.755 1.072-1.244 2.026-1.07 4.374s1.245 4.174 2.551 5.896a17.3 17.3 0 0 0 5.087 4.54c2.174 1.275 5.435 2.086 7.768 2.46 2.333.373 6.13.374 8.244.026 2.114-.347 4.852-.939 7.374-2.087 2.522-1.147 4.522-2.374 6.03-3.54 1.506-1.165 2.417-2 4.086-3.677a50 50 0 0 0 3.87-4.604" class="cls-44" style="isolation:isolate;fill:#2282c2;fill-opacity:1;stroke:none;stroke-width:.11594561;stroke-opacity:1" transform="translate(.177 -164.719)"/><path d="M83.877 247.95s-.464 1.16.166 2.06a2.7 2.7 0 0 0 1.623 1.071s-2.313.464-4.46-.548c-2.148-1.013-2-3.044-1.993-3.209zM68.709 246.602a13.5 13.5 0 0 0-1.756-.464 14 14 0 0 0-1.253-.2 3.1 3.1 0 0 1-.157-1.276s1.6.07 2.34.244l-.096.356-.165.626z" class="cls-82" style="isolation:isolate;fill:#2282c2;fill-opacity:1;stroke:none;stroke-width:.11594561;stroke-opacity:1" transform="translate(.177 -164.719)"/><path d="M95.188 230.547a3.2 3.2 0 0 0-.67.052c-.251.713-1.182 3.363-1.356 4.13a12 12 0 0 0-.217 1.287 7 7 0 0 0 1.052-.13 6.4 6.4 0 0 1 .231-2.55c.421-1.398.96-2.789.96-2.789M83.181 227.376h-.025c-.157.348-.453 1-.775 1.747-.435 1-.825 2.723-.825 3.583a6 6 0 0 0 .921-.095s-.208-1.105.13-2.131c.339-1.026.58-1.565.792-2.279.212-.713.13-.842-.218-.825M51.926 216.193s-.174-.044-.843.39c-.67.436-1.244.928-1.496 1.253 0 0-.452-2.234.773-3.774a2.2 2.2 0 0 1 .68.522 3.9 3.9 0 0 1 .721 1.16c.061.136.115.292.165.449M56.335 215.766a8.2 8.2 0 0 0-2.278 1.94 4.22 4.22 0 0 1 .87-3.71 2 2 0 0 1 .668.548 4.2 4.2 0 0 1 .522.774 3 3 0 0 1 .218.448M61.615 215.627c-1.094.392-2.399 1.94-2.399 1.94s-.305-1.244-.14-2.044.626-1.623.783-1.765c.156-.141.409.052.765.373.035.035.079.07.122.116.232.217.478.627.644.94.136.249.225.44.225.44" class="cls-19" style="isolation:isolate;fill:#2282c2;fill-opacity:1;stroke:none;stroke-width:.11594561;stroke-opacity:1" transform="translate(.177 -164.719)"/><path d="M33.047 259.455c-.07.382-.243 1.217-.417 1.46a1.02 1.02 0 0 0 .557.358 7.5 7.5 0 0 0 .564-.783 6.6 6.6 0 0 1-.704-1.035" class="cls-52" style="isolation:isolate;fill:#2282c2;fill-opacity:1;stroke:none;stroke-width:.11594561;stroke-opacity:1" transform="translate(.177 -164.719)"/><path d="M32.629 260.916a2.8 2.8 0 0 1-.531-1.061 7.3 7.3 0 0 1-.2-1.574c-.463-.313-.548-.58-.548-.58a5.3 5.3 0 0 0 .289 2.18 3.55 3.55 0 0 0 1.2 1.678.94.94 0 0 0 .356-.286 1.04 1.04 0 0 1-.566-.357M26.804 250.985s-1.088 1.07-1.8 1.252c-.714.182-.87-.669-1.027-1.426s-.035-2.157.079-2.957c.113-.8.704-2.55.704-2.55l.409.347.043.183a9 9 0 0 0-.192.644 13 13 0 0 0-.295 1.434 6 6 0 0 0-.052.549 14 14 0 0 0 .174 2.765c.009.025.009.052.017.078v.017l.027.079c0 .008 0 .008.008.017s.009.035.017.043.01.01.01.018a.1.1 0 0 1 .017.034c0 .01.008.01.017.018l.026.026c.009 0 .009.008.017.008a.04.04 0 0 0 .035.018c.01 0 .01.009.017.009a.1.1 0 0 0 .044.008h.018c.017 0 .043.009.07.009.156 0 .904-.58 1.304-.905.087-.07.156-.13.2-.165.06.255.113.446.113.446zM21.047 235.846c-.096-.174-.096-.757.383-2.4.382-1.314 1.234-2.514 1.556-2.931-.165-.513-.287-1.027-.287-1.027-2.087 2.818-2.504 4.688-2.444 5.74.06 1.051.383 1.409 1.009 1.47s1.366-.696 1.366-.696c-.01-.218 0-.426.008-.626-.582.513-1.504.626-1.591.47" class="cls-44" style="isolation:isolate;fill:#2282c2;fill-opacity:1;stroke:none;stroke-width:.11594561;stroke-opacity:1" transform="translate(.177 -164.719)"/><path d="M22.386 219.306a6.7 6.7 0 0 0 1.276.191 11.1 11.1 0 0 1 2.434-3.174l.61-1.53a10.8 10.8 0 0 0-3.077 1.957c-1.583 1.443-1.312 2.382-1.243 2.556" class="cls-13" style="isolation:isolate;fill:#2282c2;fill-opacity:1;stroke:none;stroke-width:.11594561;stroke-opacity:1" transform="translate(.177 -164.719)"/><path d="M23.542 219.732c.035-.078.079-.157.116-.232a6.6 6.6 0 0 1-1.275-.192c.108.267.655.406 1.16.424" class="cls-52" style="isolation:isolate;fill:#2282c2;fill-opacity:1;stroke:none;stroke-width:.11594561;stroke-opacity:1" transform="translate(.177 -164.719)"/><path d="M92.962 268.461c-1.623-1.652-4.235-1.46-5.548-1.252-.504.079-.896.131-1.182.166-1.018.539-1.653.79-1.653.79s.783.227 2.61-.231c1.825-.458 5.816-.087 6.156 3.014s-2.027 4.887-2.027 4.887a6 6 0 0 0 .678-.025c2.966-2.65 2.618-5.667.966-7.349" class="cls-44" style="isolation:isolate;fill:#2282c2;fill-opacity:1;stroke:none;stroke-width:.11594561;stroke-opacity:1" transform="translate(.177 -164.719)"/><path d="M97.11 266.707c-.739-3.565-4.46-4.017-4.46-4.017-.657.635-1.305 1.2-1.94 1.713.86.232 2.55.826 3.661 2.06 1.548 1.722 1.139 3.444 1.139 4.21 0 .765-.148 1.962-.843 3.006a18 18 0 0 1-1.488 1.826c3.148-1.223 4.549-5.763 3.93-8.798" class="cls-94" style="isolation:isolate;fill:#2282c2;fill-opacity:1;stroke:none;stroke-width:.11594561;stroke-opacity:1" transform="translate(.177 -164.719)"/><path d="M86.118 226.025s-.017-1.104.904-1.747c.922-.644 1.714-.232 1.879-.104.164.127.417.338.713 1.356 0 0-.147-1.252.374-2 .522-.748 1.295-.74 1.792-.748 0 0-1.923-.695-2.358 1.444 0 0-.47-.67-1.312-.609a2.24 2.24 0 0 0-1.679.904c-.313.428-.487 1.09-.313 1.504" class="cls-12" style="isolation:isolate;fill:#fff;fill-opacity:1;stroke:none;stroke-width:.11594561;stroke-opacity:1" transform="translate(.177 -164.719)"/><path d="M64.787 186.47a.064.064 0 0 1-.07.105 4.35 4.35 0 0 1-1.512-1.21c-.54-.669-.496-1.507-.392-2.025a.088.088 0 0 1 .174 0 4.2 4.2 0 0 0 .566 1.573 9.8 9.8 0 0 0 1.234 1.557M62.518 192.244c.017-.052-.061-.078-.078-.034a7.05 7.05 0 0 0-.653 3.46c.139 2.262.811 4.026 1.791 5.462.01.017.035 0 .027-.018-.244-.504-.94-2.122-1.305-4.461a10.5 10.5 0 0 1 .218-4.409" class="cls-37" style="isolation:isolate;fill:#2282c2;fill-opacity:1;stroke:none;stroke-width:.11594561;stroke-opacity:1" transform="translate(.177 -164.719)"/><path d="M90.006 195.192a2.4 2.4 0 0 1-.383.47c-.253-.444-.974-1.557-2.174-2.175a4.7 4.7 0 0 0-2.73-.506 3 3 0 0 1-.116-.183c.921-.304 1.97-.2 3.113.417 1.142.617 2.29 1.977 2.29 1.977" class="cls-36" style="isolation:isolate;fill:#2282c2;fill-opacity:1;stroke:none;stroke-width:.11594561;stroke-opacity:1" transform="translate(.177 -164.719)"/><path d="M50.474 213.01a1.8 1.8 0 0 1 .643.157c-.115.174-.217.321-.278.425a4 4 0 0 0-.513-.338zM67.404 210.775c-1.808-1.33-4.582-2.252-6.634-2.13-2.313.147-3.662.904-4.236 1.312s-.634.348-1.165.392c-.53.044-1.678.47-2.825 1.33a6.5 6.5 0 0 0-1.27 1.276 1.03 1.03 0 0 0-.618-.21c1.757-2.535 5.162-2.996 5.162-2.996.464-.356.895-.696 1.391-.913 3.982-1.766 8.504.232 10.121 1.87z" class="cls-44" style="isolation:isolate;fill:#2282c2;fill-opacity:1;stroke:none;stroke-width:.11594561;stroke-opacity:1" transform="translate(.177 -164.719)"/><path d="M52.47 212.566a.218.218 0 1 1-.288.062.21.21 0 0 1 .289-.062M55.16 213.018a5 5 0 0 0-.199.383.9.9 0 0 0-.653.174 4.4 4.4 0 0 1 .174-.547.91.91 0 0 1 .679-.01zM60.283 210.08a3.6 3.6 0 0 1-.966.33c-.651.13-2.06.635-3.026 1.339a4.4 4.4 0 0 0-.99 1.053 1.14 1.14 0 0 0-.618-.08c.147-.25.782-1.207 2.522-1.964 1.173-.513 2.39-.644 3.078-.679M60.291 212.662a3.6 3.6 0 0 0-.217.513 1.2 1.2 0 0 0-.382.009 1.2 1.2 0 0 1 .06-.487 1.3 1.3 0 0 1 .54-.035zM63.257 210.81c-.826.208-2.017.643-2.514 1.2a3.4 3.4 0 0 0-.348.47 1.5 1.5 0 0 0-.477-.061c.756-1.2 2.408-1.522 3.339-1.61" class="cls-44" style="isolation:isolate;fill:#2282c2;fill-opacity:1;stroke:none;stroke-width:.11594561;stroke-opacity:1" transform="translate(.177 -164.719)"/><path d="M37.778 221.393s-.232.835-.887 1.365-2.01.827-2.55-.634c0 0 .025.463-.592 1.13s-1.34.435-1.461-.035a.7.7 0 0 0 .33.157.7.7 0 0 0 .383-.052c.426-.174.721-.531.914-1.001.192-.47.425-1.16.425-1.16s.165.86.73 1.392c.566.53 1.479.06 1.775-.14.19-.13.512-.513.722-.774.132-.138.211-.248.211-.248" class="cls-12" style="isolation:isolate;fill:#fff;fill-opacity:1;stroke:none;stroke-width:.11594561;stroke-opacity:1" transform="translate(.177 -164.719)"/><path d="m83.557 247.977 4.74.556s-.403 2.081-3.044 2.555l-3.163-.776z" style="fill:#2282c2;fill-opacity:1;stroke:#2282c2;stroke-width:.1144324px;stroke-linecap:butt;stroke-linejoin:miter;stroke-opacity:1" transform="translate(.177 -164.719)"/><path d="M68.804 246.185a1 1 0 0 1-.096.417 16 16 0 0 0-1.748-.464.93.93 0 0 1 .843-.879h.08a.917.917 0 0 1 .92.926" class="cls-36" style="isolation:isolate;fill:#2282c2;fill-opacity:1;stroke:none;stroke-width:.11594561;stroke-opacity:1" transform="translate(.177 -164.719)"/><path d="M90.657 248.133c-1.52-.478-5.333-1.174-7.536-1.435a599 599 0 0 0-5.757-.67c-.556-.052-.574-.58-.26-1.2.034-.06.069-.13.115-.191.244-.391.739-.895 1.121-1.26a22 22 0 0 0-.643 1.339 4 4 0 0 0-.182.504s3.374.383 5.217.634a39 39 0 0 1 4.043.723c.928.234 3.144.939 3.882 1.556M107.023 252.229a7 7 0 0 0-.773.765 17 17 0 0 0-1.844 2.513 25 25 0 0 0-1.252 2.33 29 29 0 0 0-1.026 2.458c-.812-1.538-1.923-4.008-2.636-4.156-.651-.13-1.739.365-1.739.365.191-.339.375-.687.531-1.034.339-.14.878-.313 1.357-.218a1.15 1.15 0 0 1 .463.2c.766.6 1.749 2.957 1.749 2.957a14 14 0 0 1 .547-1.392c.514-1.14 1.383-2.8 2.679-4.218a10 10 0 0 1 .811-.811c.68.162 1.133.24 1.133.24M77.848 235.245a.239.239 0 0 1 .243-.382 11.7 11.7 0 0 0 2.191.33 7.8 7.8 0 0 0 2.667-.356.198.198 0 0 1 .217.313c-.383.495-1.086 1.165-2.147 1.243-1.588.131-2.579-.452-3.171-1.148M88.893 238.055a.138.138 0 0 1 .139-.218c.669.139 2.164.434 3 .504.774.061 1.817.061 2.356.052a.195.195 0 0 1 .157.313c-.322.427-1.088 1.113-2.618 1.044-1.652-.07-2.644-1.156-3.034-1.695" class="cls-44" style="isolation:isolate;fill:#2282c2;fill-opacity:1;stroke:none;stroke-width:.11594561;stroke-opacity:1" transform="translate(.177 -164.719)"/><path d="M69.997 241.82c.773.243 2.59.826 3.043.965a3 3 0 0 1-.115.252c-.392.765-.279 1.043-.862.921s-5.895-1.687-5.895-1.687-.096-1.026.217-1.608 2.296-.811 2.635-1.026.357-1.122.417-1.687c.06-.564.548-1.652 1.374-2.513.662-.687 1.6-1.2 2.47-1.508a7 7 0 0 1 .87-.13c-.722.208-1.783.635-2.627 1.495-1.417 1.435-1.652 2.591-1.73 3.261s-.017 1.26-.122 1.508c-.104.247-1.043.373-1.47.417s-1.496.018-1.53.157 2.446.904 3.325 1.182" class="cls-52" style="isolation:isolate;fill:#2282c2;fill-opacity:1;stroke:none;stroke-width:.11594561;stroke-opacity:1" transform="translate(.177 -164.719)"/><path d="m65.622 224.228-.009.2-.017.295-.034.58-.019.321-.017.305-.025.4s-5.827-.157-6.532-.157c-.251 0-1.443-.017-2.93-.044l.018-.356.008-.231a.3.3 0 0 0-.008-.08.24.24 0 0 0-.122-.156l-.348-.174-.218-.116a1 1 0 0 0-.464-.116h-.313l-1.16-.017-3.912-.06-.427-.01a.33.33 0 0 0-.304.192.4.4 0 0 0-.026.148l.009.174.017.304.008.174.01.183h-.01c-1.416-.009-7.913-.156-7.913-.156l.018-.33.017-.306.017-.32.044-.662.018-.322.017-.252v-.048a.4.4 0 0 1 .035-.14.35.35 0 0 1 .313-.19c1.07.025 4.417.104 5.548.115 1.348.017 5.948.14 6.725.14s5.565.077 7.026.115c1.113.035 3.434.06 4.47.07a.49.49 0 0 1 .382.191.5.5 0 0 1 .087.174 1 1 0 0 1 .021.162z" class="cls-98" style="isolation:isolate;fill:#2282c2;fill-opacity:1;stroke:none;stroke-width:.11594561;stroke-opacity:1" transform="translate(.177 -164.719)"/><path d="m318.91 402.3-1.58 38.32-2.77 1.43h-.07l1.2-41.1z" class="cls-100" style="isolation:isolate;fill:#2282c2;fill-opacity:1;stroke:none;stroke-opacity:1" transform="matrix(.11595 0 0 .11595 18.544 14.464)"/><path d="m70.231 226.054-.01.095-.026.34-.025.339-.054.643-.025.33-.035.392-.017.2a.146.146 0 0 1-.232.116 79 79 0 0 1-1.836-1.148 16 16 0 0 0-1.677-.957s-.027-.322-.018-.513v-.043c0-.044.018-.157.026-.296.009-.096.017-.209.026-.322.01-.14.026-.278.035-.408s.018-.244.026-.33c.008-.088.017-.175.017-.21 0-.034.01-.069.01-.104s.017-.096.025-.139a.14.14 0 0 1 .035-.061.12.12 0 0 1 .156-.026l3.418 1.8a.35.35 0 0 1 .157.19.2.2 0 0 1 .024.112" class="cls-98" style="isolation:isolate;fill:#2282c2;fill-opacity:1;stroke:none;stroke-width:.11594561;stroke-opacity:1" transform="translate(.177 -164.719)"/><path d="m60.848 217.488.034-.4zM60.92 217.07l.2.01zl-.018.018a.02.02 0 0 1 .018-.017M60.882 217.088c.01 0 .01-.008.018-.008l.017-.017h-.025z" class="cls-97" style="isolation:isolate;fill:#2282c2;fill-opacity:1;stroke:none;stroke-width:.11594561;stroke-opacity:1" transform="translate(.177 -164.719)"/><path d="M60.882 217.088c.01 0 .01-.008.018-.008s-.008.008-.018.008M46.482 234.167c0 .096 0 .2-.008.296z" class="cls-97" style="isolation:isolate;fill:#2282c2;fill-opacity:1;stroke:none;stroke-width:.11594561;stroke-opacity:1" transform="translate(.177 -164.719)"/><path d="M46.482 234.167" class="cls-75" style="isolation:isolate;fill:#2282c2;fill-opacity:1;stroke:none;stroke-width:.06492954px;stroke-miterlimit:10;stroke-opacity:1" transform="translate(.177 -164.719)"/><path d="m49.1 230.785.017.232zM46.456 230.106v-.061a.14.14 0 0 0 0 .061M45.309 235.968c.008 0 .008-.01.017-.01-.01-.007-.01-.017-.017-.034z" class="cls-97" style="isolation:isolate;fill:#2282c2;fill-opacity:1;stroke:none;stroke-width:.11594561;stroke-opacity:1" transform="translate(.177 -164.719)"/><path d="M42.42 222.777s1.442-4.66 1.743-4.87c.3-.211.932-1.294 2.255-1.504s2.135-.114 2.135-.114l.019.759s-.862.708-1.192 2.271c-.331 1.564-.844 3.503-.844 3.503zM47.363 222.914s.603-2.648.708-3.039c.105-.39.612-1.851.768-1.978 0 0 .204.673.45.76.246.09.323.271.721-.127a6.8 6.8 0 0 1 1.838-1.31s.69.473 1.009.4c0 0-.915 1.519-.877 3.187 0 0-.117 1.863-.28 2.194z" style="fill:#2282c2;fill-opacity:1;stroke:none;stroke-width:.11594561px;stroke-linecap:butt;stroke-linejoin:miter;stroke-opacity:1" transform="translate(.177 -164.719)"/><path d="M69.004 259.698s-.016-.008-.06-.025c-.496-.232-3.905-1.844-6.427-2.445-2.73-.643-4.713-.286-6.696 1.262.027-.07.775-2.218 3.943-2.626 3.215-.418 7.596 2.104 9.24 3.834M64.709 251.437s-.59-.94-1.653-1.086c-1.062-.148-1.913.66-1.913.66s.019-.087.062-.218a2.3 2.3 0 0 1 .435-.755 2.2 2.2 0 0 1 .365-.323c.811-.539 1.486-.464 2.104.018.348.27.487.747.547 1.13a3 3 0 0 1 .053.574M72.353 254.133s-.504-1.035-1.652-1.26a2.44 2.44 0 0 0-1.957.463 2.6 2.6 0 0 1 .505-.765 2.8 2.8 0 0 1 .756-.574c.852-.435 2.234-.174 2.348 1.521a2.8 2.8 0 0 1 0 .615" class="cls-12" style="isolation:isolate;fill:#fbfcfe;fill-opacity:1;stroke:none;stroke-width:.11594561;stroke-opacity:1" transform="translate(.177 -164.719)"/><path d="M52.482 222.993s.19-1.412.204-1.693c0 0-.16-1.52.702-3.188 0 0 .456 1.142 1.26.038 0 0 .89-.912 1.478-1.218 0 0 .866.534 2.035-.217l.038.387s-.703.184-.733 3.732c0 0-.19 2.099-.336 2.237zM57.839 223.077s.289-.214.349-2.724.33-2.413.33-2.413.437 1.406 1.369.068c0 0 1.196-1.173 1.474-1.293 0 0 .89.438 1.655.234 0 0-.544-.053-.77 3.359 0 0-.191 2.453-.606 2.85zM62.425 223.185s.47-1.345.47-2.695.398-3.267 1.108-3.775l3.175.246s.23-.013.827.206c0 0-.954.57-1.263 3.387 0 0-.117 2.763-1.03 2.63zM68.382 224.23s-.958-.483-1.134-.724c0 0 .264-4.229 1.383-5.461zM68.718 224.39s.217-5.851.417-5.992c0 0 .754 2.07.637 3.729l.032 2.103s.15.8-.468.48zM67.18 238.072l-1.766.417.882-10.101s.097-.31.378-.326c.281-.014 1.383.775 1.383.775s.195.125.067 1.188c-.127 1.063-.943 8.047-.943 8.047M67.876 236.828l.716-6.74.248-.782.617.409s.183.002.113.714-.523 4.312-.523 4.312-.887 1.067-1.17 2.087M60.996 227.44s3.747-.115 4.574.324l-.922 10.957s-.388-.007-.539.549l-2.253-.056s-.638-2.645-1.113-2.995c0 0-.044-8.54.253-8.78M48.882 227.22l.235 3.797 5.887.135.827-.434.139-3.351 3.554.058s.672-.076.759.605.017 2.877.017 2.877.055.37-.408.384c-.464.014-13.334-.058-13.334-.058s-.492.076-.467-.458c.026-.533.105-3.266.105-3.266s.043-.392.521-.363 2.165.073 2.165.073" style="fill:#2282c2;fill-opacity:1;stroke:none;stroke-width:.11594561px;stroke-linecap:butt;stroke-linejoin:miter;stroke-opacity:1" transform="translate(.177 -164.719)"/><g transform="matrix(.11595 0 0 .11595 122.611 19.833)"><path d="m-609.968 372.689-2.507 15.501s-.512 2.183 1.13 2.18 8.006-.003 9.155.085c1.15.088 1.768-.707 1.238-2.74s-3.083-14.775-3.083-14.775z" style="fill:#fff;fill-opacity:1;stroke:none;stroke-width:1px;stroke-linecap:butt;stroke-linejoin:miter;stroke-opacity:1"/><ellipse cx="-606.878" cy="367.89" rx="5.918" ry="5.948" style="opacity:1;fill:#fff;fill-opacity:1;fill-rule:nonzero;stroke:none;stroke-width:1.08236957;stroke-linecap:round;stroke-linejoin:round;stroke-miterlimit:4;stroke-dasharray:none;stroke-dashoffset:65.67904663;stroke-opacity:1;paint-order:markers fill stroke"/></g><path d="m40.966 227.054 4.052.078s.493.047.534.97.225 7.688.225 7.688-1.376.063-1.528 2.777l-1.97-.022s-.56.07-.56-.473-.753-11.018-.753-11.018M46.288 235.411s-.121-1.164-.165-2.888c0 0-.029-.71.696-.725.724-.014 6.743-.083 6.743-.083s-1.59.432-2.471 2.852c0 0-.4-.155-.756.27 0 0 .716-1.691-.328-1.72 0 0-1.988-.31-3.719 2.294M60.184 235.463s-.318-.497-.805-.487c0 0 .353-2.772-.386-2.874 0 0-2.175-.485-3.537 3.439l-.313-.182s-.241-.934 0-2.305c.241-1.372-.087-1.4-.087-1.4l4.72.173s.6-.032.408 3.636M99.45 244.95l.434-.365s2.813-1.613 4.453-4.252c0 0-.126 5.356 3.718 10.93 0 0-4.047.82-8.433-2.501.02-.103-.123-.84-.123-.84s3.34 2.951 7.543 2.746c0 0-3.515-4.631-3.766-8.126 0 0-2.031 1.793-3.827 2.408" style="fill:#2282c2;fill-opacity:1;stroke:none;stroke-width:.11594561px;stroke-linecap:butt;stroke-linejoin:miter;stroke-opacity:1" transform="translate(.177 -164.719)"/><path d="M31.184 200.964s4.877-19.104 29.474-18.304c0 0-.559 1.327.377 3.339 0 0-8.78 2.34-17.553 16.769 0 0 .082-6.067-12.298-1.804" style="fill:#fdfefd;fill-opacity:1;stroke:none;stroke-width:.11594561px;stroke-linecap:butt;stroke-linejoin:miter;stroke-opacity:1" transform="translate(.177 -164.719)"/><path d="m61.15 186.494 1.64 1.762s-5.657 4.264-9.716 15.742c0 0-1.598-2.829-8.321-.656.04-.574 6.032-12.702 16.397-16.848" style="fill:#fdfefd;fill-opacity:1;stroke:none;stroke-width:.11594561px;stroke-linecap:butt;stroke-linejoin:miter;stroke-opacity:1" transform="translate(.177 -164.719)"/><path d="m63.051 188.811.522.348s-4.667 5.797-.348 12.754c0 0 .954 1.796-1.043.855-1.998-.942-2.29-2.42-7.653 1.29.058-.145 1.623-9.073 8.522-15.247" style="fill:#fdfefd;fill-opacity:1;stroke:none;stroke-width:.11594561px;stroke-linecap:butt;stroke-linejoin:miter;stroke-opacity:1" transform="translate(.177 -164.719)"/><path d="M50.465 252.403s1.198-6.63 13.361-6.652c0 0-.322-1.412.08-2.234 0 0-.268-1.546-2.619-2.209 0 0-.14-2.217-.705-3.478 0 0-.275.545-1.739.574 0 0 1.813-.244 1.174-1.836 0 0 .104.505-1.739.775 0 0 .64.122 1.273-.879 0 0-2.79 1.19-4.086.016 0 0-.065.847 1.683 1.01 0 0-.506.138-1.183-.116 0 0-.727 2.606.261 5.07 0 0-2.164-2.428-1.715-5.864l-.966.07s.904-.147 1.251-.719c0 0-2.473.791-3.696-.137 0 0 1.038.906 1.742.88 0 0-.406.087-1.392-.225 0 0-1.45 3.212.476 5.754-.082-.205-1.68-1.107-2.131-4.14-.287.082-1.063.713-1.505.121 0 0 1.025-.033 1.6-.651 0 0-1.938.833-3.538-.618l-.417.166s.775.872 1.565.987c0 0-.452-.019-1.374-.504 0 0-.676 4.106.676 5.95 0 0 .697.165.41 2.296 0 0-.259 4.372 3.253 6.593" style="fill:#2282c2;fill-opacity:1;stroke:none;stroke-width:.11594561px;stroke-linecap:butt;stroke-linejoin:miter;stroke-opacity:1" transform="translate(.177 -164.719)"/><path d="M83.56 248.238s-.366.914.13 1.625a2.13 2.13 0 0 0 1.281.844s-1.824.366-3.518-.432c-1.694-.799-1.578-2.401-1.572-2.531z" class="cls-82" style="isolation:isolate;fill:#fff;fill-opacity:1;stroke-width:.09146233" transform="translate(.177 -164.719)"/><path d="M85.218 249.876a.94.94 0 1 1-.939-.94.94.94 0 0 1 .94.94" class="cls-36" style="isolation:isolate;fill:#fff;fill-opacity:1;stroke:#2282c2;stroke-width:.31600001;stroke-miterlimit:4;stroke-dasharray:none;stroke-opacity:1" transform="translate(.177 -164.719)"/></svg>