<svg xmlns="http://www.w3.org/2000/svg" xml:space="preserve" viewBox="0 0 245 245"><path d="M0 122.5C0 190 55 245 122.5 245S245 190 245 122.5 190 0 122.5 0 0 55 0 122.5" style="fill:#70d463"/><path d="M106.7 42.5c-.3 0-.7.1-1 .3L83.4 55.5c.3 0 .7.1 1 .3l3.2 1.8 19.1-10.8L193 96.3l-11.7 6.6-7.5 4.3-67-38.5.6.4.2.2.2.1.2.3.1.1.1.3.1.1c0 .2.1.3.1.5v3.5l63.4 36.3.1 22-63.4-36.3-.1 3.7v.8l64.5 37c.3.2.6.3 1 .3.3 0 .7-.1 1-.3l23.1-13.1 1-1.7-.1-26.5c0-.7-.4-1.3-1-1.7l-90.2-51.9c-.3-.2-.6-.3-1-.3M87.6 57.6l19.2 11.1zm-6.1 126.9-19.1-11.1V74.2l9.1 5.3 10 5.8zm1.9-129c-.3 0-.7.1-.9.3l-23 13.4-.2.2-.2.1-.2.2-.1.2-.1.3-.1.2c0 .2-.1.3-.1.5v103.7c0 .7.4 1.3 1 1.7l23 13.4q.45.3.9.3h.1c1.1 0 1.9-.9 1.9-2V85.3l8.7-5.1 10.4-6v74.4h3.9V74.3l-3.9-2.4-21.9-12.6c-.6-.3-1-1-1-1.7v-.1c0-.7.4-1.3 1-1.7zm25 44.5v.8zM83.5 55.5l-.9.5c-.6.3-1 1-1 1.7v.1c0 .7.4 1.3 1 1.7l21.8 12.6 3.9 2.4V71c0-.2 0-.3-.1-.5l-.1-.1-.1-.3-.1-.1-.2-.3-.2-.1-.2-.2-.6-.4-19.2-11.4.1-.1-3.2-1.8c-.2-.2-.6-.2-.9-.2m115.4 67.6-.1 26.1c0 .7-.4 1.3-1 1.7l-90.2 51.9c-.3.2-.6.3-1 .3-.2 0-.3 0-.5-.1l-.2-.1-.3-.1-23.1-13.2c-.6-.3-1-1-1-1.7l.1-26.5v-.5l.1-.3.1-.2.2-.3.1-.1c.1-.1.3-.2.4-.3l64.2-36.9.1.1 3.8 2.2-63.1 36.3 14.4 8.2 4.8 2.7 63.1-36.3 3.1 1.8c.4.2.9.3 1.4.2l-65.6 37.7-.1 22 86.3-49.6.1-21.7 3.1-1.8z" style="fill:#fff"/></svg>