<svg xmlns="http://www.w3.org/2000/svg" width="250" height="250"><defs><linearGradient id="a" x1="951.78" x2="952.52" y1="1014.87" y2="1014.08" gradientTransform="matrix(946 0 0 -946 -900261.57 960166.82)" gradientUnits="userSpaceOnUse"><stop offset="0" stop-color="#4d2fe5"/><stop offset=".53" stop-color="#d51fd5"/><stop offset="1" stop-color="#fb767c"/></linearGradient></defs><circle cx="125" cy="125" r="125" fill="#3d3d3d"/><path fill="url(#a)" d="M0 473C0 211.77 211.77 0 473 0s473 211.77 473 473-211.77 473-473 473S0 734.23 0 473m44 0c0 236.55 192.45 429 429 429s429-192.45 429-429S709.55 44 473 44 44 236.45 44 473m214 281.79c-31.37-.59-53-21.59-61.23-38.34s-8.4-38.5-.52-55S355.6 339.17 360.59 328.66s4.47-9.94 4.54-21.65 0-135.8 0-135.8h-19.3c-17.5 0-25.28-12.71-25.37-23-.09-10 6.85-23.5 24.48-23.54h66.71l-.2 71.19H465v23.28h-53.54V243H465v23.17h-53.54V326c0 6-.83 6.19-3.82 12.51S244.85 668.24 239.81 679s5.11 28.89 20.16 29.17S667 708 686.12 708s24.36-22.75 20.6-30.13S539.68 341 536.84 334.71s-2.48-5.75-2.34-16 0-194 0-194h68.26a22.821 22.821 0 0 1 .43 45.64h-.43c-6.25.13-21.91 0-21.91 0v143.29c0 7.65 2.15 9.36 7.15 19.46s149.11 300.54 158.91 320.2 13.23 47.92-4.3 71.41-38.24 29.11-54.72 29.29c-13.42.11-269 1-380.59 1-25.51-.06-43.47-.1-49.3-.21M456 639a16 16 0 1 1 16 16 16 16 0 0 1-16-16m47.59-3.35A4.76 4.76 0 1 1 507 637a4.7 4.7 0 0 1-3.41-1.35m-69.65 0a4.76 4.76 0 1 1 3.35 1.38 4.74 4.74 0 0 1-3.35-1.38m90.64-12.6a16 16 0 1 1 22.63-.71l-.35.36a16.2 16.2 0 0 1-11.46 4.79 15.22 15.22 0 0 1-10.82-4.44m-126.44-.35a15.51 15.51 0 1 1 22.28.35 15.17 15.17 0 0 1-10.82 4.44 16.18 16.18 0 0 1-11.46-4.79m69.45-9.38a4.75 4.75 0 1 1 4.74 4.75 4.74 4.74 0 0 1-4.74-4.75m0-13.37a4.75 4.75 0 1 1 4.74 4.74 4.74 4.74 0 0 1-4.74-4.74m47.24-2.57a4.73 4.73 0 1 1 3.35 1.39 4.73 4.73 0 0 1-3.35-1.39m-91.37 0a4.74 4.74 0 1 1 3.36 1.39 4.74 4.74 0 0 1-3.36-1.39m44.13-10.85a4.75 4.75 0 1 1 4.74 4.75 4.74 4.74 0 0 1-4.74-4.75m37.78 1.39a4.74 4.74 0 1 1 3.35 1.39 4.75 4.75 0 0 1-3.35-1.39m-72.45 0a4.74 4.74 0 1 1 3.35 1.39 4.75 4.75 0 0 1-3.35-1.39m120-1.81a4.74 4.74 0 1 1 3.35 1.39 4.74 4.74 0 0 1-3.35-1.39m-169.22 0a4.74 4.74 0 1 1 3.35 1.39 4.73 4.73 0 0 1-3.35-1.39m112.16-7.68a4.74 4.74 0 1 1 3.35 1.39 4.74 4.74 0 0 1-3.35-1.39m-53.47 0a4.74 4.74 0 1 1 3.35 1.39 4.74 4.74 0 0 1-3.35-1.39M444 548.5a28.5 28.5 0 1 1 28.5 28.5 28.5 28.5 0 0 1-28.5-28.5m103-.5a16 16 0 1 1 16 16 16 16 0 0 1-16-16m-181 0a16 16 0 1 1 16 16 16 16 0 0 1-16-16m166.36.34a4.75 4.75 0 1 1 4.74 4.75 4.74 4.74 0 0 1-4.74-4.75m-13.37 0a4.74 4.74 0 1 1 4.74 4.75 4.74 4.74 0 0 1-4.74-4.75m-13.42 0a4.74 4.74 0 1 1 4.74 4.75 4.74 4.74 0 0 1-4.74-4.75m-75.63 0a4.75 4.75 0 1 1 4.75 4.75 4.75 4.75 0 0 1-4.75-4.75m-13.41 0a4.74 4.74 0 1 1 4.74 4.75 4.74 4.74 0 0 1-4.74-4.75m-13.38 0a4.75 4.75 0 1 1 4.75 4.75 4.75 4.75 0 0 1-4.75-4.75M495.88 525a4.74 4.74 0 1 1 3.36 1.39 4.75 4.75 0 0 1-3.36-1.39m-53.47 0a4.74 4.74 0 1 1 3.35 1.39 4.75 4.75 0 0 1-3.35-1.39m110.53-8.31a4.76 4.76 0 1 1 3.35 1.38 4.73 4.73 0 0 1-3.35-1.42zm-168.22 0a4.76 4.76 0 1 1 3.35 1.38 4.7 4.7 0 0 1-3.35-1.42zm120.65-1.18a4.74 4.74 0 1 1 3.36 1.39 4.75 4.75 0 0 1-3.36-1.39m-72.45 0a4.74 4.74 0 1 1 3.36 1.39 4.75 4.75 0 0 1-3.36-1.39m34.84-5.32a4.74 4.74 0 1 1 4.74 4.75 4.74 4.74 0 0 1-4.74-4.75m47.07-4.19a4.73 4.73 0 1 1 3.35 1.39 4.73 4.73 0 0 1-3.35-1.39m-91.37 0a4.74 4.74 0 1 1 3.36 1.39 4.75 4.75 0 0 1-3.36-1.39m44.3-9.29a4.74 4.74 0 1 1 4.74 4.75 4.74 4.74 0 0 1-4.74-4.74zm-70-.47a16 16 0 1 1 22.63-.72c-.12.12-.24.25-.36.36a16.18 16.18 0 0 1-11.46 4.8 15.2 15.2 0 0 1-10.81-4.44m127.15-.36a15.5 15.5 0 1 1 22.27.36 15.2 15.2 0 0 1-10.81 4.44 16.18 16.18 0 0 1-11.46-4.8m-57.19-12.54a4.75 4.75 0 1 1 4.75 4.75 4.75 4.75 0 0 1-4.74-4.75zM456 457a16 16 0 1 1 16 16 16 16 0 0 1-16-16m47.56 10.43a4.74 4.74 0 1 1 3.36 1.39 4.75 4.75 0 0 1-3.36-1.39m-69.62-.37a4.73 4.73 0 1 1 3.35 1.39 4.75 4.75 0 0 1-3.35-1.39" transform="scale(.26427)"/></svg>