<svg xmlns="http://www.w3.org/2000/svg" xml:space="preserve" viewBox="0 0 245 245"><path d="M0 122.5C0 190 55 245 122.5 245S245 190 245 122.5 190 0 122.5 0 0 55 0 122.5" style="fill:#234858"/><path d="m98.5 120.5 22-22c1.1-1.1 2.9-1.1 4 0l22 22c1.1 1.1 1.1 2.9 0 4l-22 22c-1.1 1.1-2.9 1.1-4 0l-22-22c-1.1-1.1-1.1-2.9 0-4m0-64 22-22c1.1-1.1 2.9-1.1 4 0l22 22c1.1 1.1 1.1 2.9 0 4l-22 22c-1.1 1.1-2.9 1.1-4 0l-22-22c-1.1-1.1-1.1-2.9 0-4m0 128.5 22-22c1.1-1.1 2.9-1.1 4 0l22 22c1.1 1.1 1.1 2.9 0 4l-22 22c-1.1 1.1-2.9 1.1-4 0l-22-22c-1.1-1.1-1.1-2.9 0-4" style="fill:#fff"/><path d="m67 152.5 22-22c1.1-1.1 2.9-1.1 4 0l22 22c1.1 1.1 1.1 2.9 0 4l-22 22c-1.1 1.1-2.9 1.1-4 0l-22-22c-1.1-1.1-1.1-2.9 0-4m63-64 22-22c1.1-1.1 2.9-1.1 4 0l22 22c1.1 1.1 1.1 2.9 0 4l-22 22c-1.1 1.1-2.9 1.1-4 0l-22-22c-1.1-1.1-1.1-2.9 0-4m0 65L184 99c1.1-1.1 2.9-1.1 4 0l22 22c1.1 1.1 1.1 2.9 0 4l-54 54.5c-1.1 1.1-2.9 1.1-4 0l-22-22c-1.1-1.1-1.1-2.9 0-4M35.5 121l54-54.5c1.1-1.1 2.9-1.1 4 0l22 22c1.1 1.1 1.1 2.9 0 4l-54 54.5c-1.1 1.1-2.9 1.1-4 0l-22-22c-1.1-1.1-1.1-2.9 0-4" style="opacity:.5;fill:#fff"/></svg>