<svg xmlns="http://www.w3.org/2000/svg" xml:space="preserve" id="Electrify" x="0" y="0" version="1.1" viewBox="0 0 245 245"><style>.st1{fill:none;stroke:#fff;stroke-linecap:round;stroke-linejoin:round}</style><path id="Full" d="M0 122.5C0 190 55 245 122.5 245S245 190 245 122.5 190 0 122.5 0 0 55 0 122.5" style="fill:#f90"/><g id="Cloud"><path id="Outer" d="m42 130.5 29.5-8 5.5-26L97 87l9 2.5L128.5 68l22 5.5 10 19.5 16.5 3 10.5 18 18 11 .5 28-26 13.5-41.5.5-31.5 9-40.5-5.5L39 158z" class="st1"/><path id="Line" d="m42 130.5 25.5 24L103 132l2-42.5 55.5 3.5-15 17.5 42 4-25.5 18 18.5 33.5-42.5-36-5 16.5 6 20" class="st1"/><path id="Line2" d="m39 158 28.5-3.5 71.5 12-36-34.5 35-2-32.5-40.5 40 21-24 18L162 132l43.5 21-18-39L128 68" class="st1"/><path id="Line3" d="M66.5 170.5 67 154l4.5-31.5L103 132l-1.5-18.5-24.5-17 28.5-6.5 25.5 32.5-26.5 11 76 33" class="st1"/><path id="Line4" d="m107 176-40.5-21.5 5-32 30.5-8 46 16 14 1.5-16.5-21.5" class="st1"/></g><path id="Lightning" d="M147 56.5 83.5 136H118l-20 52 71-74h-37.5z" style="fill:#fff"/></svg>