<svg xmlns="http://www.w3.org/2000/svg" xml:space="preserve" id="Aelf" x="0" y="0" version="1.1" viewBox="0 0 245 245"><style>.st1{fill:#fff}</style><path id="Main" d="M0 122.5C0 190 55 245 122.5 245S245 190 245 122.5 190 0 122.5 0 0 55 0 122.5" style="fill:#2b60bf"/><g id="Aelf-2"><circle id="Big_Round" cx="175.8" cy="122.2" r="34.8" class="st1"/><circle id="Round_Up" cx="130.8" cy="57.8" r="16.8" class="st1"/><circle id="Round_Down" cx="130.8" cy="190.2" r="16.8" class="st1"/><path id="Drop_Up" d="M43.5 83.5c0-20.7 18.1-25.5 25-25.5 20.2 0 24.8 21.6 28 25.5 1 3.1 6.6 10.7 11 13 11.9 2.9 13.7-.7 20.5-.5 4.2 0 9 4.2 9 10 0 4.5-4.4 9.6-9 9.5-12.3.3-9.7-10.4-22.9-16-13.8-2.3-23.7 9.5-36.5 9.5-7.8 0-25.1-4.8-25.1-25.5" class="st1"/><path id="Drop_Down" d="M43.5 161.5c0 20.7 18.1 25.5 25 25.5 20.2 0 24.8-21.6 28-25.5 1-3.1 6.6-10.7 11-13 11.9-2.9 13.7.7 20.5.5 4.2 0 9-4.2 9-10 0-4.5-4.4-9.6-9-9.5-12.3-.3-9.7 10.4-22.9 16-13.8 2.3-23.7-9.5-36.5-9.5-7.8 0-25.1 4.8-25.1 25.5" class="st1"/></g></svg>