<svg xmlns="http://www.w3.org/2000/svg" xml:space="preserve" id="Enigma" x="0" y="0" version="1.1" viewBox="0 0 245 245"><style>.st3{fill:#fff}.st4,.st5{stroke:#fff}.st4{fill:none;stroke-width:8;stroke-linecap:round;stroke-linejoin:round}.st5{fill:#fff}</style><path id="Full" d="M0 122.5C0 190 55 245 122.5 245S245 190 245 122.5 190 0 122.5 0 0 55 0 122.5" style="fill:#cd2667"/><g id="Enigma_copy"><path id="InsideB1" d="m84.5 101.5 38-22.5 38.5 23-38.5 20.5z" style="fill:#f6f6f6"/><path id="InsideB2" d="m82.9 101.1 38.5 21.7-.7 44.8-37-23.1z" style="fill:#efefef"/><path id="InsideB3" d="M161.5 101.5 123 123.2l.7 44.8 37-23.1z" class="st3"/><path id="Box1" d="m122.5 34 77 45v87.5l-77 44.5-77-43.5V80z" class="st4"/><path id="Box2" d="m122.5 78 39 22.7V145l-39 22.5-39-22v-44.2z" class="st4"/><path id="Line" d="m44 81.2 2-3.5 79.5 45-2 3.5z" class="st5"/><path id="Line_2" d="m200.5 81.5-2-3.5-79.5 45 2 3.5z" class="st5"/><path id="Line_3" d="M120.5 122.5h4V211h-4z" class="st5"/><g id="Dots"><g id="Top"><circle id="Top-2" cx="122.5" cy="65.5" r="3" class="st3"/><circle id="Top_2" cx="122.5" cy="50" r="3" class="st3"/></g><g id="Left"><circle id="Left-2" cx="72.8" cy="151.3" r="3" class="st3"/><circle id="Left_2" cx="59.4" cy="159.1" r="3" class="st3"/></g><g id="Right"><circle id="Right-2" cx="172.5" cy="151.6" r="3" class="st3"/><circle id="Right_2" cx="186" cy="159.4" r="3" class="st3"/></g></g></g></svg>