<svg xmlns="http://www.w3.org/2000/svg" xml:space="preserve" viewBox="0 0 245 245"><path d="M0 122.5C0 190 55 245 122.5 245S245 190 245 122.5 190 0 122.5 0 0 55 0 122.5" style="fill:#63c0e3"/><path d="M202.2 80.5c-4.2 3.4-24 19.7-24 19.7l-111 .5s5.9-15.8 14.4-21c7-.1 119.6-3 120.6.8m0 53.2c-2.9 2.1-27.3 19.8-27.3 19.8l-93.8.5s-8.5-8.7-13.4-20.6c17.4 0 134.5-1.9 134.5.3m-7.8 52c0 .5-35.6 19.9-35.6 19.9h-50.5c-24.8 0-42.8 2.3-71.9-52.7 14.2 22.5 37.8 32.8 37.8 32.8s120.2-.5 120.2 0" style="opacity:.5;fill:#e6e6e6"/><path d="M74.1 186.1C19 175.6 11.9 71.7 74.1 49.4h118.4c9.8 14.5 9.8 31.1 9.8 31.1S99.6 80 81.6 80c-6 5.5-10.6 12.4-13.4 20.1l134-.5s1.6 18.3 0 34.2H68.7c4.9 11.2 12.9 19.7 12.9 19.7l118.6-.5s0 17.7-5.9 33.1z" style="fill:#f3f3f3"/></svg>