<svg xmlns="http://www.w3.org/2000/svg" xml:space="preserve" viewBox="0 0 490 490"><path d="M0 245c0 135.1 109.9 245 245 245s245-109.9 245-245S380.1 0 245 0 0 109.9 0 245" style="fill:#0072ff"/><path d="M388 341.4c-2.4 0-4.8-.6-6.9-1.9-6.6-3.8-8.9-12.3-5.1-18.9 41.8-72.4 17.1-164.9-55.3-206.8-46.8-27.1-104.6-27.1-151.4-.1-6.6 3.8-15.1 1.6-18.9-5.1-3.8-6.6-1.6-15.1 5.1-18.9 85.7-49.4 195.2-19.9 244.6 65.8 31.9 55.5 31.9 123.7 0 179-2.5 4.3-7.1 6.9-12.1 6.9m-83.7-82.6H185.7c-7.7-.1-13.8-6.3-13.8-14 .1-7.6 6.2-13.7 13.8-13.8h118.6c7.7.1 13.8 6.3 13.8 14-.1 7.6-6.2 13.8-13.8 13.8m23.3-46.8H218c-7.7 0-13.9-6.2-13.9-13.9s6.2-13.9 13.9-13.9h109.6c7.7 0 13.9 6.2 13.9 13.9-.1 7.7-6.3 13.9-13.9 13.9M218 212c-5 0-9.5-2.6-12-6.9l-55.5-96.3c-3.8-6.6-1.6-15.1 5.1-18.9 6.6-3.8 15.1-1.6 18.9 5.1l55.5 96.3c3.8 6.6 1.6 15.1-5.1 18.9-2.1 1.1-4.5 1.8-6.9 1.8m54 93.6H162.4c-7.7-.1-13.8-6.3-13.8-14 .1-7.6 6.2-13.7 13.8-13.8H272c7.7.1 13.8 6.3 13.8 14-.1 7.7-6.2 13.8-13.8 13.8m55.6 96.4c-5 0-9.5-2.6-12-6.9L260 298.7c-3.8-6.6-1.6-15.1 5.1-18.9 6.6-3.8 15.1-1.6 18.9 5.1l55.5 96.3c3.8 6.6 1.6 15.1-5.1 18.9-2 1.2-4.4 1.9-6.8 1.9M245 424c-98.9 0-179.1-80.2-179-179.1 0-31.4 8.3-62.3 24-89.5 3.8-6.6 12.3-8.9 18.9-5.1s8.9 12.3 5.1 18.9c-41.8 72.4-17 165 55.4 206.8 46.8 27.1 104.5 27.1 151.4 0 6.6-3.8 15.1-1.6 18.9 5.1s1.6 15.1-5.1 18.9c-27.3 15.8-58.2 24-89.6 24" style="fill:#fff"/></svg>