<svg xmlns="http://www.w3.org/2000/svg" width="256" height="256" viewBox="0 0 67.733 67.733"><path d="M1.488 263.204c0 17.871 14.54 32.411 32.412 32.411s32.411-14.54 32.411-32.411-14.54-32.412-32.411-32.412-32.412 14.54-32.412 32.412" class="cls-1" style="fill:#454a75;fill-opacity:1;stroke-width:.13229166" transform="translate(0 -229.267)"/><path d="M14.071 267.643v1.776H5.918v-12.43h8.102v1.784H8.13v3.372h5.079v1.742h-5.08v3.756zM25.238 269.308v.11h-2.373l-2.467-4.763h-2.365v4.764H15.82v-12.43h4.406q2.151 0 3.321.964 1.178.965 1.178 2.783 0 1.23-.589 2.083t-1.673 1.315zm-7.205-6.429h2.202q1.11 0 1.69-.555.59-.555.59-1.477 0-.982-.564-1.528-.563-.546-1.724-.546h-2.194zM36.303 265.355q-.11 1.247-.7 2.203-.58.956-1.64 1.494-1.058.538-2.543.538-1.529 0-2.664-.717-1.136-.726-1.75-2.058t-.615-3.116v-.982q0-1.784.623-3.116.632-1.332 1.785-2.058 1.16-.726 2.706-.726 1.46 0 2.493.547 1.033.538 1.605 1.511.58.965.709 2.237h-2.203q-.145-1.247-.743-1.87-.589-.632-1.861-.632-1.426 0-2.16 1.059-.726 1.05-.726 3.03v1q0 1.946.675 3.022.683 1.076 2.126 1.076.887 0 1.442-.273.564-.282.846-.811.29-.538.392-1.358zM37.635 264.98v-1.708h4.516v1.707zM43.773 269.419v-1.469l4.047-4.388q.666-.743 1.042-1.272.375-.538.53-.965.161-.427.161-.853 0-.871-.486-1.41-.478-.537-1.332-.537-1.008 0-1.545.623-.53.615-.53 1.64h-2.126q0-1.102.504-2.007t1.46-1.434 2.262-.53q1.238 0 2.118.419.88.418 1.34 1.195.461.768.461 1.819 0 1.092-.649 2.185-.649 1.084-1.895 2.39l-2.698 2.886h5.72v1.708zM61.882 264.194q0 5.396-4.073 5.396-1.938 0-3.022-1.29-1.076-1.289-1.076-4.106v-2.032q0-2.809 1.067-4.072 1.067-1.272 3.014-1.272t3.014 1.272q1.076 1.263 1.076 4.072zm-2.126-2.348q0-1.793-.487-2.553-.487-.768-1.477-.768-.973 0-1.468.768-.487.76-.487 2.553v2.647q0 1.793.495 2.595.504.794 1.477.794.982 0 1.46-.785.487-.794.487-2.604z" style="font-style:normal;font-variant:normal;font-weight:500;font-stretch:normal;font-size:331.23999023px;line-height:1.25;font-family:Heebo;-inkscape-font-specification:&quot;Heebo, Medium&quot;;font-variant-ligatures:normal;font-variant-caps:normal;font-variant-numeric:normal;font-feature-settings:normal;text-align:center;letter-spacing:0;word-spacing:0;writing-mode:lr-tb;text-anchor:middle;fill:#fff;fill-opacity:1;stroke:none;stroke-width:.05278614" transform="translate(0 -229.267)"/></svg>