<svg xmlns="http://www.w3.org/2000/svg" width="377.953" height="377.953"><circle cx="188.976" cy="188.976" r="188.976" style="fill:#a4dfd2;fill-opacity:1;stroke-width:1.13662"/><path fill="#221d22" fill-rule="evenodd" d="M182.93 49.283c-1.352.474-3.223 1.213-4.158 1.645s-3.062 1.325-4.725 1.985-3.704 1.511-4.535 1.89c-.832.379-2.873 1.228-4.536 1.887s-3.576 1.44-4.252 1.734c-.675.296-1.78.778-2.456 1.072s-3.44 1.416-6.142 2.491-5.594 2.265-6.425 2.643c-.832.378-3.28 1.392-5.443 2.253-2.16.861-4.415 1.817-5.009 2.123-1.07.553-1.093.541-3.04-1.626-21.176-23.564-34.963-23.86-39.999-.86-1.305 5.96-2.14 11.625-2.67 18.1-.361 4.434-.52 5.179-1.281 5.999-1.106 1.193-2.748 4.496-4.742 9.538-.863 2.183-1.88 4.65-2.258 5.48-.378.832-1.227 2.873-1.886 4.536a190 190 0 0 1-1.734 4.252l-1.073 2.457c-.295.675-1.076 2.589-1.734 4.252-.66 1.663-1.508 3.704-1.887 4.535-.379.832-1.228 2.873-1.887 4.536a196 196 0 0 1-1.773 4.346 92 92 0 0 0-.876 2.079 99 99 0 0 1-.873 2.079c-.314.727-1.334 3.193-2.266 5.48-2.862 7.019-4.461 10.901-5.06 12.283-.313.728-.706 1.663-.871 2.08a92 92 0 0 1-.876 2.078c-.317.727-1.114 2.683-1.773 4.346-.66 1.663-1.508 3.704-1.887 4.536s-1.227 2.872-1.887 4.535c-1.14 2.88-1.51 3.759-2.856 6.805-2.855 6.459-2.307 11.413 2.41 21.776.413.91 1.634 3.866 2.711 6.569s2.268 5.594 2.647 6.425c.378.832 1.228 2.872 1.889 4.535.66 1.663 1.51 3.704 1.886 4.536.638 1.407 1.54 3.593 5.931 14.362.933 2.287 2.548 6.199 3.59 8.693 1.041 2.495 2.49 5.981 3.22 7.748.728 1.767 1.549 3.723 1.823 4.347.274.623.86 2.055 1.304 3.182a90 90 0 0 0 1.507 3.59c.386.848 1.242 2.903 1.901 4.566a196 196 0 0 0 1.773 4.347c.316.727.727 1.705.914 2.173 3.788 9.491 6.087 12.26 12.317 14.829 3.257 1.343 4.566 1.896 6.542 2.764.728.32 2.684 1.121 4.347 1.78 1.663.66 3.704 1.508 4.535 1.886.832.379 3.298 1.4 5.48 2.268 2.183.87 4.65 1.89 5.48 2.269.832.378 2.873 1.226 4.536 1.886a190 190 0 0 1 4.252 1.734l2.457 1.072c.675.295 3.014 1.246 5.197 2.113 2.182.867 4.648 1.887 5.48 2.266.831.378 2.872 1.226 4.535 1.886 1.663.658 3.62 1.459 4.347 1.78 3.126 1.373 2.687 1.19 16.252 6.722 2.39.975 4.9 2.012 5.575 2.306l2.456 1.066c9.517 4.126 13.597 4.275 21.25.78 1.045-.477 3.686-1.578 5.868-2.448 2.183-.868 4.65-1.888 5.48-2.266.832-.378 3.298-1.398 5.481-2.265 4.067-1.616 4.923-1.974 8.028-3.36.984-.44 1.88-.8 1.988-.8s.918-.32 1.799-.71 2.538-1.089 3.681-1.554c7.7-3.135 8.72-3.559 12.19-5.077.675-.296 2.163-.905 3.306-1.352a112 112 0 0 0 3.402-1.398c2.837-1.248 3.693-1.605 6.614-2.76a184 184 0 0 0 4.252-1.73c.675-.297 1.781-.779 2.457-1.074s2.589-1.075 4.252-1.731 3.533-1.42 4.157-1.693c1.118-.49 4.767-2.007 10.47-4.348 5.237-2.151 8.348-5.254 10.5-10.472a287 287 0 0 1 2.812-6.637 116 116 0 0 0 1.352-3.307 116 116 0 0 1 1.352-3.307c1.322-3.022 1.707-3.936 3.377-8.032 5.47-13.415 5.127-12.585 6.767-16.346.295-.676 1.222-2.93 2.061-5.008a853 853 0 0 1 3.829-9.26 939 939 0 0 0 4.21-10.205c1.048-2.598 2.215-5.404 2.594-6.236.378-.831 1.228-2.872 1.889-4.535.66-1.663 1.51-3.704 1.888-4.536 1.147-2.516 3.828-9.338 4.385-11.15.948-3.09.669-8.046-.635-11.243-.191-.468-.5-1.233-.686-1.701a99 99 0 0 0-.915-2.173 196 196 0 0 1-1.772-4.347c-.66-1.663-1.508-3.704-1.886-4.535-.38-.832-1.4-3.298-2.27-5.48-.868-2.183-1.889-4.65-2.268-5.48-.378-.832-1.226-2.873-1.886-4.536-.658-1.663-1.459-3.62-1.779-4.347a145 145 0 0 1-2.759-6.614 178 178 0 0 0-1.692-4.157 296 296 0 0 1-1.82-4.347 1164 1164 0 0 0-2.91-6.978 419 419 0 0 1-2.649-6.438 359 359 0 0 0-2.799-6.74l-1.736-4.067-.001-5.936c-.003-17.893-3.614-33.679-9.147-39.98-5.943-6.77-17.009-3.369-30.061 9.24-1.445 1.395-2.145 1.454-4.543.382-3.088-1.378-3.975-1.751-7.083-2.976-2.69-1.06-5.057-2.044-8.693-3.612-.623-.27-2.055-.852-3.182-1.295a90 90 0 0 1-3.59-1.507c-.848-.385-3.329-1.412-5.511-2.279s-4.522-1.818-5.197-2.113l-2.457-1.072a184 184 0 0 0-4.252-1.731c-2.742-1.084-4.233-1.706-6.425-2.682-2.684-1.194-11.39-4.712-13.548-5.474-3.522-1.246-8.427-1.25-11.964-.01m-73.617 8.31c7.983 3.597 21.203 17.766 33.204 35.587 3.3 4.9 3.31 4.963.917 5.896-1.04.405-2.425.984-3.08 1.288-.656.302-1.279.55-1.385.55s-1.16-1.829-2.34-4.064c-8.961-16.96-21.915-25.121-28.053-17.674-2.161 2.622-2.228 4.97-.199 7.092 1.529 1.599 4.707 1.128 5.768-.854.748-1.399 1.97-.91 5.675 2.271 3.4 2.92 8.865 10.428 8.426 11.573-.16.418-.101.556.167.39.41-.254 2.74 3.817 2.735 4.773-.002.253-.645.828-1.429 1.274-4.202 2.399-9.096 7.059-9.403 8.953-.81 4.982 3.633 5.973 8.437 1.884 29.777-25.343 91.537-22.99 121.04 4.61 3.052 2.855 3.582 3.205 4.858 3.205 3.508 0 5.28-3.028 3.49-5.963-1.004-1.646-1.011-1.601.982-5.538 5.934-11.722 14.527-19.67 17.234-15.94.87 1.195 2.195 5.226 2.195 6.673 0 1.108 2.09 3.76 2.963 3.76 4.489 0 5.877-3.461 3.885-9.69-5.447-17.034-22.359-11.146-33.532 11.674-1.212 2.475-1.229 2.484-2.672 1.29-.588-.486-2.387-1.766-3.998-2.846-3.587-2.404-3.616-1.972.5-7.232 17.061-21.8 32.097-34.58 37.368-31.76 3.133 1.677 6.073 11.327 7.603 24.957.387 3.443.546 22.232.205 24.19-.09.519-.274 2.305-.408 3.968-.602 7.452-2.489 16.276-4.627 21.638-1.112 2.788-1.47 2.906-2.296.756-.34-.884-1.686-3.725-2.992-6.315s-2.377-4.864-2.377-5.054c0-2.545-4.786-6.19-7.254-5.525-3.283.883-3.679 3.47-1.112 7.275 5.739 8.504 9.615 18.942 12.17 32.768.212 1.143.629 3.184.927 4.536.299 1.35.713 4.157.919 6.236s.547 5.48.756 7.559c1.914 19.068.034 55.806-4.142 80.882-1.792 10.769-2.102 11.893-3.45 12.537-2.469 1.18-4.526 2.014-4.97 2.014-.273 0-.657.143-.855.317s-.954.545-1.682.822c-.727.278-2.39.986-3.694 1.573-1.305.587-2.506 1.067-2.67 1.067-.163 0-1.001.34-1.862.756-.86.416-1.716.756-1.902.756s-.832.236-1.436.526c-.603.289-1.692.78-2.42 1.09-.727.31-2.129.924-3.114 1.363-.985.44-1.937.8-2.115.8s-.818.237-1.422.526c-.603.29-1.692.78-2.42 1.09-.727.31-2.129.925-3.114 1.364s-2.014.8-2.287.8c-.272 0-.656.145-.854.322-.197.176-1.124.616-2.06.976s-2.296.912-3.023 1.229c-.728.315-1.663.71-2.08.876-.415.166-1.561.658-2.547 1.095-.984.436-1.937.794-2.114.794-.179 0-.818.236-1.422.525-.603.29-1.692.78-2.42 1.09s-2.129.924-3.114 1.364-2.014.8-2.287.8c-.272 0-.657.145-.854.321-.198.177-1.125.616-2.06.976s-2.296.913-3.024 1.23c-.727.315-1.663.71-2.078.876-.416.166-1.562.658-2.548 1.095-.984.436-1.937.793-2.114.793-.179 0-.819.237-1.422.526s-1.693.78-2.42 1.09c-.728.31-2.13.924-3.115 1.364-.984.44-2.013.8-2.286.8-.272 0-.657.144-.854.32-.198.174-1.38.71-2.627 1.192-1.247.48-2.43 1.017-2.627 1.192-.48.427-3.452.408-4.276-.026-.36-.191-1.337-.635-2.168-.987a75 75 0 0 1-2.609-1.166c-.604-.289-1.243-.525-1.422-.525s-1.13-.36-2.115-.8c-3.03-1.352-3.983-1.757-6.138-2.602a125 125 0 0 1-3.401-1.39 99 99 0 0 0-3.969-1.645c-1.149-.439-3.647-1.519-4.876-2.109-.604-.289-1.244-.525-1.422-.525s-1.13-.357-2.115-.794a72 72 0 0 0-2.547-1.08c-.416-.157-1.495-.65-2.398-1.096-.904-.445-1.804-.81-2.003-.81-.198 0-1.064-.34-1.924-.755-.861-.416-1.7-.756-1.863-.756s-1.364-.48-2.669-1.068c-1.304-.587-2.967-1.294-3.694-1.572-.728-.278-1.485-.647-1.682-.822a1.5 1.5 0 0 0-.855-.318c-.273 0-1.302-.357-2.286-.793a72 72 0 0 0-2.548-1.08c-.415-.158-1.494-.651-2.398-1.097-.903-.445-1.803-.81-2.002-.81s-1.065-.34-1.925-.755c-.86-.416-1.698-.756-1.862-.756-.163 0-1.364-.48-2.67-1.068-1.303-.587-2.966-1.294-3.694-1.572s-1.484-.647-1.682-.822a1.47 1.47 0 0 0-.84-.318c-.265 0-1.596-.51-2.958-1.133-1.362-.624-2.636-1.134-2.833-1.134-.196 0-.963-.34-1.702-.756-.74-.416-1.52-.756-1.73-.756-.212 0-1.09-.34-1.95-.756s-1.745-.76-1.966-.764c-1.523-.033-2.451-1.99-3.668-7.74-.22-1.04-.562-2.57-.76-3.402-.45-1.886-.878-3.883-1.454-6.803-.247-1.247-.602-3.033-.789-3.968-1.007-5.018-1.859-10.188-3.002-18.236-.798-5.619-1.178-10.46-2.021-25.796-.173-3.142.652-18.68 1.255-23.622.706-5.795 2.02-12.452 3.21-16.252 5.312-16.964 7.681-22.076 17.916-38.639 2.623-4.244 1.766-7.483-1.975-7.462-2.15.01-3.793 1.617-5.882 5.755-1 1.983-1.79 1.204-3.35-3.307-6.607-19.106-6.081-57.178.965-69.733 2.212-3.942 3.474-4.462 6.985-2.88m84.655 6.671c4.84 2.098 4.521 1.964 9.372 3.958 5.014 2.063 5.8 2.391 8.881 3.703a262 262 0 0 0 5.292 2.158c1.663.655 3.619 1.453 4.346 1.773 2.874 1.262 3.7 1.608 6.614 2.762 1.663.66 3.704 1.508 4.536 1.886.831.379 3.298 1.398 5.48 2.266 7.564 3.005 8.315 3.383 8.315 4.192 0 .364-.154.717-.342.787-.342.126-3.664 4.244-7.595 9.414-1.143 1.504-2.504 3.213-3.023 3.797l-.945 1.062-1.323-.664c-1.177-.59-3.547-1.547-9.071-3.668-.936-.359-2.254-.8-2.93-.981-.675-.182-1.865-.511-2.645-.734-13.697-3.894-29.844-5.332-44.258-3.94-5.617.542-7.545.811-12.34 1.717-4.128.78-5.278 1.034-6.612 1.454-2.248.71-2.386.601-5.883-4.59-1.855-2.755-4.011-5.86-4.792-6.898-1.927-2.567-1.853-2.642 5.381-5.48a128 128 0 0 0 3.402-1.392 98 98 0 0 1 2.079-.877 107 107 0 0 0 2.547-1.096c.984-.436 1.88-.793 1.988-.793s.918-.319 1.799-.707c2.896-1.278 6.068-2.607 10.862-4.549 2.599-1.052 6.936-2.84 9.638-3.97 6-2.51 6.712-2.547 11.227-.59M91.465 121.695c0 1.11 1.605 7.451 2.728 10.777.8 2.366 2.329 5.625 4.098 8.739l.886 1.557-2.766 5.624c-1.521 3.093-2.91 5.964-3.083 6.38-4.485 10.685-7.537 22.198-9.015 34.015-1.025 8.19-1.162 10.754-1.152 21.586.01 10.89.357 17.304 1.518 28.053.232 2.148.33 3.998.219 4.11-.212.21-2.504-4.545-2.504-5.196 0-.206-.174-.669-.387-1.03-.213-.36-1.252-2.782-2.308-5.38-4.12-10.138-5.342-13.096-6.001-14.552-.377-.832-1.395-3.298-2.262-5.48s-1.808-4.48-2.09-5.103c-.28-.623-.961-2.24-1.511-3.59-1.827-4.491-3.653-8.863-4.378-10.485-1.118-2.499-1.027-3.19 1.059-8.035.312-.728.704-1.663.87-2.079.165-.415.56-1.35.876-2.078s1.113-2.684 1.77-4.347a190 190 0 0 1 1.77-4.346c.316-.728.71-1.663.875-2.08.166-.415.56-1.35.877-2.078s.943-2.258 1.39-3.401c.449-1.144 1.04-2.59 1.314-3.213 1.098-2.495 3.6-8.538 3.6-8.696 0-.091.51-1.281 1.134-2.643s1.134-2.693 1.134-2.957c0-.266.144-.644.32-.841.174-.198.715-1.38 1.198-2.627a108 108 0 0 1 1.728-4.157 152 152 0 0 0 2.042-4.914c1.171-2.956 1.403-3.508 2.928-6.992a86 86 0 0 0 1.418-3.496c.678-1.808 1.705-2.437 1.705-1.045m205.236 21.44c.62 1.365 1.126 2.623 1.126 2.797s.51 1.43 1.134 2.792 1.133 2.644 1.133 2.85.169.668.374 1.03c.521.918 2.066 4.521 3.846 8.97a324 324 0 0 0 2.57 6.237c.58 1.351 1.689 3.987 2.464 5.858s1.63 3.912 1.9 4.536c4.81 11.025 4.798 10.335.365 20.41-.274.623-.861 2.054-1.304 3.182a90 90 0 0 1-1.507 3.59c-.387.848-1.244 2.903-1.903 4.566-.66 1.663-1.611 3.921-2.113 5.019-.502 1.097-.912 2.211-.912 2.476 0 .263-.145.641-.321.839-.178.197-.785 1.55-1.351 3.004-1.2 3.083-4.321 10.656-6.037 14.646a576 576 0 0 0-4.087 9.894c-1.111 2.798-2.044 3.342-1.665.972.271-1.695.792-7.703 1.41-16.252 1.415-19.578.512-48.152-1.936-61.228-.175-.936-.512-2.806-.75-4.158-.442-2.514-.76-4.036-1.548-7.388l-.449-1.908 1.541-2.036c1.924-2.542 3.85-6.443 5.18-10.493 1.17-3.567 1.312-3.578 2.84-.205m-166.685 1.126c-15.167 2.539-23.933 19.832-17.189 33.91 8.403 17.539 33.692 18.216 42.576 1.14 9.344-17.96-5.452-38.387-25.387-35.05m108.462.426c-15.402 4.311-22.498 22.74-13.887 36.062 13.008 20.127 43.946 11.018 43.942-12.938-.004-15.767-15.032-27.329-30.055-23.124m-100.238 5.551c7.484 1.765 13.228 8.062 13.974 15.321.511 4.97.221 5.58-1.909 4.011-3.452-2.542-11.7-4.349-17.833-3.906-5.936.43-13.581 2.396-14.39 3.702-1.135 1.839-1.72-1.665-.88-5.262 1.11-4.743 6.391-11.789 8.837-11.789.117 0 .876-.42 1.687-.932 2.582-1.629 6.602-2.067 10.514-1.145m110.362 0c7.391 1.742 12.879 7.625 14.07 15.083.384 2.404.199 5.302-.324 5.056-.131-.061-1.683-.819-3.45-1.683-8.811-4.308-23.415-3.994-30.52.655l-1.228.804v-2.226c0-6.283 4.048-13.052 9.314-15.576a103 103 0 0 0 2.943-1.464c2.435-1.287 5.556-1.507 9.195-.649m-62.271 20.389c-6.126 1.02-11.242 3.87-13.98 7.784-.502.718-1.006 1.39-1.12 1.495-.398.361-1.127 2.093-1.893 4.503-1.143 3.595-1.04 5.407.627 11.076 1.234 4.193 7.818 9.737 13.145 11.066 2.359.59 2.005 1.875-1.221 4.422-3.972 3.136-10.673 3.883-16.157 1.8-3.708-1.408-8.405-4.45-11.241-7.282-1.95-1.945-3.393-2.394-4.893-1.518-3.198 1.868-1.353 5.851 4.607 9.947.727.5 1.408 1.003 1.512 1.117.333.366 2.434 1.57 3.118 1.786.363.115.661.36.661.544s.223.334.496.334 1.2.34 2.06.756c.86.415 1.796.756 2.078.756 1.937 0 2.014 1.152.308 4.535-.158.312-.635 2.013-1.061 3.78-2.509 10.397-2.267 19.332.745 27.59 1.226 3.36 1.589 4.158 1.892 4.158.157 0 .285.182.285.404 0 1.211 4.194 6.08 6.803 7.897.728.508 1.408 1.016 1.512 1.131.384.426 5.037 2.662 5.54 2.662.284 0 .813.152 1.174.337 3.296 1.696 15.226 1.68 20.31-.027 3.79-1.274 6.819-3.157 9.634-5.992 3.53-3.558 4.905-6.243 6.859-13.405.689-2.528.697-14.644.012-17.763-.97-4.413-1.836-7.398-2.768-9.54-.384-.88-.698-1.754-.698-1.94 0-.187-.254-.826-.565-1.422-.802-1.54-.71-1.98.47-2.257 2.027-.475 8.805-3.935 9.922-5.064.104-.105.864-.694 1.688-1.31 5.544-4.138 6.635-7.701 2.84-9.273-1.334-.553-1.798-.298-6.555 3.604-9.595 7.872-19.378 8.803-26.378 2.51-2.598-2.335-2.546-2.456 1.665-3.882 3.193-1.081 4.697-2.078 7.653-5.073 6.917-7.005 6.764-17.039-.37-24.198-2.585-2.596-6.572-5.084-8.144-5.084-.386 0-.79-.147-.901-.325-.111-.18-1.354-.442-2.763-.585-1.41-.144-2.902-.32-3.318-.393s-2.031.08-3.59.339m-41.074 2.65c2.461 1.126 4.412 2.869 4.412 3.941 0 2.24-4.738 6.057-10.317 8.308-4.906 1.98-13.457-.352-17.955-4.898-2.987-3.02-2.92-4.044.416-6.339 2.85-1.96 4.178-1.957 4.8.012 3.123 9.908 10.168 11.43 14.339 3.102.637-1.274 1.158-2.728 1.158-3.232 0-.755.592-1.825 1.01-1.825.056 0 1.017.42 2.137.931m91.724.87c3.1 10.006 10.151 11.607 14.333 3.256.637-1.274 1.158-2.644 1.158-3.047 0-2.43 3.268-1.936 6.37.963 2.82 2.634-1.03 6.938-9.128 10.207-4.171 1.684-12.872-.21-16.706-3.637-4.568-4.082-4.42-5.927.675-8.372 2.66-1.277 2.71-1.268 3.298.63M186.405 223.4c.145 3.414.45 10.677.676 16.142.228 5.465.59 10.326.809 10.804.864 1.897 3.552 2.656 5.254 1.482 2.111-1.454 2.178-2.206 1.515-17.071-.875-19.642-1.087-17.737 1.811-16.313 2.383 1.172 5.939 2.28 7.316 2.28 5.195 0 10.114 20.763 7.341 30.993-3.094 11.415-13.247 16.766-26.138 13.777-11.505-2.668-17.861-14.286-16.1-29.428.922-7.945 4.285-16.655 5.832-15.11.113.115.519.042.9-.16.382-.203 1.29-.459 2.017-.57 2.441-.37 5.207-1.44 6.773-2.615 1.574-1.183 1.716-.772 1.994 5.79" style="stroke-width:.944882"/><path fill="#8124a3" fill-rule="evenodd" d="M187.56 48.275c.779.082 2.054.082 2.834 0 .78-.081.141-.148-1.418-.148s-2.196.067-1.417.148m-88.742 3.977-1.494 1.606 1.606-1.494c1.494-1.39 1.78-1.718 1.494-1.718-.061 0-.784.723-1.606 1.606m19.104 1.535c0 .094.625.647 1.387 1.229.764.582 1.27.865 1.123.629-.299-.484-2.51-2.12-2.51-1.858m3.024 2.268c0 .065.553.618 1.228 1.228l1.229 1.11-1.11-1.228c-1.035-1.145-1.347-1.402-1.347-1.11m5.291 4.984c1.13 1.144 2.138 2.08 2.242 2.08s-.735-.936-1.864-2.08c-1.129-1.143-2.138-2.078-2.242-2.078s.735.935 1.864 2.078m154.682-.295c.576.087 1.426.085 1.89-.005.465-.09-.005-.162-1.044-.159s-1.42.077-.846.164m-98.178 4.109c-2.702 1.131-7.04 2.918-9.638 3.97-4.794 1.942-7.966 3.27-10.862 4.549-.88.388-1.69.707-1.8.707-.108 0-1.003.357-1.987.793-.986.437-2.132.93-2.547 1.096a98 98 0 0 0-2.08.877c-.727.317-2.257.943-3.4 1.392-7.235 2.838-7.309 2.913-5.382 5.48.78 1.039 2.937 4.143 4.792 6.897 3.497 5.192 3.636 5.301 5.883 4.591 1.334-.42 2.484-.673 6.612-1.454 11.755-2.222 23.77-2.82 34.582-1.72 9.571.975 14.988 1.945 22.016 3.944.78.222 1.97.551 2.646.733.675.18 1.994.622 2.929.981 5.524 2.12 7.894 3.079 9.07 3.669l1.324.663.945-1.062c.52-.584 1.88-2.293 3.023-3.797 3.93-5.17 7.253-9.288 7.595-9.414.188-.07.342-.423.342-.787 0-.809-.751-1.187-8.315-4.192-2.182-.868-4.649-1.887-5.48-2.266-.832-.378-2.873-1.226-4.536-1.886-2.914-1.154-3.74-1.5-6.614-2.762-.727-.32-2.683-1.118-4.346-1.773a262 262 0 0 1-5.292-2.158c-3.08-1.312-3.867-1.64-8.881-3.703-4.85-1.994-4.532-1.86-9.372-3.958-4.515-1.957-5.228-1.92-11.227.59M288 62.858c0 .065.553.618 1.228 1.229l1.229 1.11-1.11-1.228c-1.035-1.146-1.347-1.403-1.347-1.11m-156.661 3.66c.811.832 1.56 1.512 1.664 1.512s-.475-.68-1.286-1.511c-.812-.832-1.561-1.512-1.665-1.512s.475.68 1.287 1.512m-39.638.803c-.315 1.575-.01 1.88.33.33.144-.652.183-1.267.086-1.362-.096-.096-.283.368-.416 1.032m172.667 1.683-1.88 1.729 1.984-1.6c1.78-1.435 2.21-1.86 1.88-1.86-.058 0-.95.78-1.984 1.73m-3.793 3.278-1.11 1.229 1.228-1.11c.676-.61 1.228-1.164 1.228-1.229 0-.292-.312-.035-1.346 1.11M90.419 74.835c0 .727.077 1.025.172.661s.095-.959 0-1.323-.172-.066-.172.662m-.736 5.858c.002 1.04.076 1.42.163.846.087-.576.085-1.426-.005-1.89-.09-.465-.161.005-.158 1.044m206.658.598c.016.503.18 1.254.37 1.67.238.527.272.297.112-.756-.267-1.755-.52-2.234-.482-.914m-207.03 3.748c0 1.144.07 1.611.157 1.04a8.4 8.4 0 0 0 0-2.079c-.087-.572-.158-.104-.158 1.04m208.62 6.425c0 .935.073 1.318.163.85a5.4 5.4 0 0 0 0-1.7c-.09-.469-.163-.086-.163.85m.378 3.78c0 .935.073 1.317.163.85a5.4 5.4 0 0 0 0-1.701c-.09-.468-.163-.085-.163.85m.429 9.449c0 3.43.056 4.833.127 3.118.07-1.715.07-4.521 0-6.236s-.127-.312-.127 3.118M89.76 122.74c-.37.988-1.01 2.56-1.418 3.496-1.525 3.484-1.757 4.036-2.928 6.992a152 152 0 0 1-2.042 4.914c-.466 1.04-1.243 2.91-1.728 4.157-.483 1.247-1.024 2.43-1.199 2.627s-.319.575-.319.84-.51 1.597-1.134 2.958-1.134 2.552-1.134 2.643c0 .158-2.502 6.201-3.6 8.696-.274.624-.865 2.07-1.313 3.213a125 125 0 0 1-1.391 3.401 92 92 0 0 0-.877 2.079 92 92 0 0 1-.876 2.079c-.316.727-1.113 2.683-1.77 4.346a190 190 0 0 1-1.77 4.347 92 92 0 0 0-.875 2.078c-.166.416-.558 1.351-.87 2.079-2.086 4.845-2.177 5.536-1.059 8.035.725 1.622 2.55 5.994 4.378 10.485.55 1.35 1.23 2.967 1.512 3.59.281.624 1.222 2.92 2.089 5.103s1.885 4.648 2.262 5.48c.66 1.456 1.88 4.414 6 14.551 1.057 2.599 2.096 5.02 2.31 5.381.212.361.386.824.386 1.03 0 .651 2.292 5.407 2.504 5.195.111-.111.013-1.96-.219-4.11-1.525-14.122-2.074-34.948-1.137-43.17 1.99-17.486 4.512-27.92 9.786-40.483.174-.416 1.562-3.287 3.083-6.38l2.766-5.624-.886-1.557c-1.77-3.114-3.298-6.373-4.098-8.739-1.123-3.326-2.728-9.667-2.728-10.777 0-1.392-1.027-.763-1.705 1.045m204.1 20.6c-1.33 4.05-3.255 7.95-5.179 10.493l-1.54 2.036.448 1.908c.787 3.352 1.106 4.874 1.549 7.388.237 1.352.574 3.222.749 4.158 2.448 13.076 3.351 41.65 1.936 61.228-.618 8.549-1.139 14.557-1.41 16.252-.379 2.37.554 1.826 1.665-.972a576 576 0 0 1 4.087-9.894c1.716-3.99 4.837-11.563 6.037-14.646.566-1.455 1.173-2.807 1.35-3.004s.322-.576.322-.84.41-1.378.912-2.475 1.452-3.356 2.113-5.02c.66-1.662 1.516-3.717 1.903-4.565a90 90 0 0 0 1.507-3.59c.443-1.128 1.03-2.56 1.304-3.183 4.433-10.074 4.445-9.384-.364-20.41a416 416 0 0 1-1.901-4.535 584 584 0 0 0-2.465-5.858 324 324 0 0 1-2.569-6.236c-1.78-4.45-3.325-8.053-3.846-8.972-.205-.36-.374-.824-.374-1.03 0-.205-.51-1.487-1.133-2.849-.624-1.361-1.134-2.618-1.134-2.792 0-.545-2.233-5.267-2.598-5.492-.19-.118-.807 1.187-1.369 2.9m-106.679 27c.364.094.96.094 1.323 0 .364-.096.066-.173-.661-.173s-1.026.077-.662.173m3.402 0c.363.094.959.094 1.323 0 .363-.096.066-.173-.662-.173-.727 0-1.025.077-.661.173m92.383 2.951c.12 1.04.28 1.961.358 2.048.265.298.065-2.049-.256-2.993-.217-.636-.25-.33-.102.945m-140.402-.491c-.25.25-.437.802-.416 1.228.031.653.08.627.31-.17.208-.716.496-.921 1.191-.85.72.076.796.016.351-.277-.735-.484-.891-.476-1.436.069m35.735.14c-1.412.767-1.326 1.086.095.351.623-.322 1.134-.667 1.134-.765 0-.244-.041-.23-1.229.415m74.565.137c-.216.401-.378.954-.361 1.228.016.273.202.023.414-.556.305-.837.551-1.007 1.198-.826.645.18.697.145.247-.17-.803-.56-1.054-.507-1.498.324m-78.462 2.765-1.11 1.228 1.228-1.11c.675-.61 1.228-1.163 1.228-1.229 0-.292-.312-.035-1.346 1.11m30.637.662c1.024 1.04 1.947 1.89 2.05 1.89.105 0-.648-.85-1.672-1.89-1.023-1.04-1.946-1.89-2.05-1.89s.65.85 1.672 1.89m-64.63 1.89c-.322.623-.501 1.134-.397 1.134s.453-.51.775-1.134c.323-.624.502-1.134.398-1.134s-.453.51-.776 1.134m110.363 0c-.323.623-.502 1.134-.398 1.134s.453-.51.776-1.134c.322-.624.501-1.134.397-1.134s-.453.51-.775 1.134m-157.56.58c-.13.34-.221.9-.203 1.246.017.347.182.129.365-.485.356-1.192.23-1.783-.162-.76m190.718 1.686c0 .728.078 1.026.173.662a3.1 3.1 0 0 0 0-1.323c-.095-.364-.173-.066-.173.661m.378 5.292c0 .727.078 1.025.173.661a3.1 3.1 0 0 0 0-1.323c-.095-.363-.173-.066-.173.662m-154.67-.395c.312.21.893.386 1.291.39.967.007.666-.21-.724-.52-.828-.186-.981-.15-.567.13m8.315.017c-.779.25-.812.308-.19.334.417.018 1.012-.133 1.324-.334.662-.428.202-.428-1.134 0M240 185.558c.312.21.893.386 1.292.39.966.007.665-.21-.725-.52-.828-.186-.98-.15-.567.13m8.315.017c-.779.25-.812.308-.189.334.416.018 1.011-.133 1.323-.334.662-.428.202-.428-1.134 0m-200.186 3.212c.002 1.663.068 2.296.148 1.407s.08-2.248-.002-3.023c-.081-.774-.147-.047-.146 1.616m281.575 0c.002 1.663.068 2.296.148 1.407s.079-2.248-.002-3.023c-.082-.774-.147-.047-.146 1.616m-44.989 1.134c.002 1.247.073 1.712.157 1.033.084-.68.083-1.7-.004-2.268-.086-.568-.155-.012-.153 1.235m-116.095 1.701c0 .312.146.907.325 1.323.205.476.325.546.325.189 0-.312-.147-.907-.325-1.323-.205-.476-.325-.546-.325-.189m160.415 1.728c-.14.554-.18 1.08-.092 1.17.09.088.276-.292.415-.847.14-.553.18-1.08.092-1.168-.09-.09-.276.29-.415.845m-238.219 2.24c.003 1.04.077 1.42.164.846.086-.575.085-1.426-.005-1.89s-.162.005-.159 1.045m194.323 11.338c0 4.781.054 6.685.12 4.23.066-2.453.065-6.365-.001-8.693-.066-2.326-.12-.318-.12 4.463m-80.122-5.386-1.11 1.229 1.228-1.11c.675-.611 1.228-1.164 1.228-1.229 0-.292-.312-.035-1.346 1.11m-114.568 1.985c.002 1.247.073 1.712.157 1.032s.082-1.7-.004-2.267c-.086-.568-.155-.013-.153 1.235m-37.717.452c.567 1.356.938 1.968.938 1.547 0-.408-1.148-2.944-1.333-2.944-.104 0 .074.629.395 1.397m171.938 1.343-1.11 1.228 1.228-1.11c.676-.61 1.229-1.163 1.229-1.228 0-.292-.312-.035-1.347 1.11m-42.118 1.166c0 .097.55.368 1.22.603.67.233 1.054.269.85.079-.43-.403-2.07-.943-2.07-.682m11.747 1.043c-.017.332.352.927.82 1.323.843.714.845.713.238-.036-.336-.416-.706-1.011-.82-1.323-.177-.48-.214-.476-.238.036M90.06 210.331c.003 1.04.077 1.42.164.845s.085-1.425-.005-1.89-.161.006-.159 1.045m59.798.189c1.024 1.04 1.947 1.89 2.05 1.89.105 0-.648-.85-1.672-1.89-1.023-1.04-1.946-1.89-2.05-1.89s.649.85 1.672 1.89m18.331 3.018c.312.205.978.375 1.48.378 1.214.008.906-.207-.724-.507-.93-.17-1.155-.132-.756.129m41.386.006c-1.046.266-1.061.292-.19.328.52.02 1.2-.127 1.513-.328.643-.416.31-.416-1.323 0m-119.127 4.724c.002 1.247.073 1.712.157 1.033.084-.68.082-1.7-.004-2.268s-.155-.012-.153 1.235m74.15 1.397c.416.235.881.613 1.034.839.191.282.28.267.284-.05.003-.252-.324-.634-.726-.85-.994-.532-1.54-.477-.592.06m49.371-.11c-.285.18-.455.482-.378.67s.439.039.803-.334c.693-.71.459-.897-.425-.337m-37.012.79c-.686.162-1.354.4-1.484.531-.364.364 2.305-.204 2.713-.577.197-.18.282-.311.189-.29-.094.021-.732.173-1.418.335m107.768 4.918c0 1.56.067 2.197.148 1.418.083-.78.083-2.056 0-2.835-.08-.78-.148-.142-.148 1.417m-193.909 1.323c.003 1.04.077 1.42.164.846.087-.576.085-1.426-.005-1.89-.09-.465-.161.005-.159 1.044m103.56 3.024c.002 1.04.076 1.42.163.845s.085-1.425-.005-1.89-.162.006-.159 1.045m89.94.378c.005.831.082 1.127.173.656.09-.47.087-1.15-.008-1.511s-.17.023-.165.855m-122.325 2.494c-.139.867-.178 1.649-.088 1.739s.282-.539.428-1.399c.145-.86.185-1.642.088-1.738-.097-.098-.29.532-.428 1.398m-70.43 2.04c.004.832.081 1.128.172.657s.087-1.15-.008-1.511c-.094-.361-.169.023-.164.855m-26.148 0c0 .208.244.803.54 1.323s.541.774.541.566c0-.207-.244-.803-.54-1.322-.297-.52-.54-.775-.54-.567m246.46.772c-.634 1.39-.513 1.686.171.423.32-.59.512-1.144.425-1.23-.086-.087-.355.277-.597.807m-27.922 1.117c.003 1.04.077 1.42.164.846.087-.575.085-1.426-.005-1.89-.09-.465-.162.005-.16 1.044m-122.427 3.969c0 1.975.064 2.783.141 1.795.078-.987.078-2.603 0-3.59-.077-.988-.141-.18-.141 1.795m57.03-2.079c.004.832.081 1.127.172.657s.087-1.15-.008-1.512c-.095-.36-.17.024-.165.855m.419 5.48c0 1.975.064 2.783.142 1.796.077-.988.077-2.603 0-3.59-.078-.988-.142-.18-.142 1.795m64.211.944c.004.832.082 1.128.172.657s.087-1.15-.008-1.512c-.094-.36-.169.024-.164.855m-.764 6.615c0 .727.078 1.025.173.661s.095-.96 0-1.323c-.095-.364-.173-.066-.173.662m-1.548 10.96c-.033.52-.15 1.37-.256 1.89l-.195.945.406-.93c.223-.512.339-1.362.256-1.89l-.149-.96zM96.76 265.921c.003.399.179.98.39 1.292.28.413.315.26.13-.567-.31-1.39-.527-1.692-.52-.725m76.152 1.825c.624.536 1.29.976 1.48.977.41.002.406-.002-1.29-1.097l-1.324-.854zm14.646 5.407a8.4 8.4 0 0 0 2.079 0c.571-.087.103-.158-1.04-.158s-1.61.071-1.04.158m4.717.002c.67.083 1.861.085 2.645.003.785-.082.236-.15-1.22-.152s-2.096.065-1.425.15m101.583 5.642c-.317.76-.49 1.468-.383 1.575s.194.101.194-.011c0-.114.257-.822.572-1.575s.487-1.37.383-1.37-.449.622-.766 1.381m-204.85 9.531c.623.689 1.644 1.605 2.267 2.034 1.34.925 1.038.599-1.511-1.631-1.397-1.222-1.594-1.327-.756-.403m52.397 23.281c.318.318 2.973 1.35 2.973 1.157 0-.104-.616-.447-1.37-.762-1.394-.582-1.92-.712-1.603-.395m46.35 18.24c.679.083 1.7.081 2.267-.005.568-.086.012-.155-1.235-.153s-1.712.073-1.033.157" style="fill:#4800d0;fill-opacity:1;stroke-width:.944882"/><path fill="#f89e05" fill-rule="evenodd" d="M104.247 57.732c-8.616 9.276-10.281 51.088-2.886 72.473 1.065 3.078 1.745 4.346 2.333 4.346.271 0 .73-.468 1.018-1.04 2.089-4.137 3.731-5.743 5.882-5.754 3.741-.021 4.598 3.218 1.975 7.462-7.098 11.488-10.38 17.626-13.08 24.472-3.284 8.326-5.156 14.622-4.644 15.615.179.347.535 1.396.791 2.332 1.809 6.6 4.565 11.38 9.186 15.93 8.14 8.012 25.705 12.826 34.454 9.443 5.838-2.259 10.9-6.76 16.42-14.602 13.701-19.464 19.92-23.895 33.28-23.711 11.85.162 18.418 4.749 29.859 20.853 9.045 12.732 13.75 16.62 22.03 18.199 11.097 2.116 27.05-4.457 34.547-14.238 4.334-5.653 7.631-16.725 6.582-22.103-2.839-14.55-6.442-24.231-12.187-32.744-4.453-6.6 2.049-10.95 6.675-4.466.93 1.303 1.691 2.525 1.691 2.716 0 .19 1.07 2.465 2.377 5.054s2.653 5.431 2.992 6.314c.827 2.151 1.184 2.033 2.296-.755 2.138-5.362 4.025-14.186 4.627-21.638.134-1.663.319-3.45.408-3.969.341-1.957.182-20.746-.205-24.189-1.53-13.63-4.47-23.28-7.603-24.957-5.27-2.82-20.307 9.96-37.368 31.76-4.116 5.26-4.087 4.828-.5 7.232 1.61 1.08 3.41 2.36 3.998 2.846 1.443 1.194 1.46 1.185 2.672-1.29 11.173-22.82 28.085-28.709 33.532-11.674 1.992 6.228.604 9.69-3.885 9.69-.873 0-2.963-2.652-2.963-3.76 0-1.447-1.325-5.478-2.195-6.674-2.707-3.728-11.3 4.22-17.234 15.941-1.993 3.937-1.986 3.892-.981 5.538 1.788 2.935.017 5.962-3.49 5.962-1.277 0-1.807-.35-4.858-3.204-29.504-27.6-91.264-29.953-121.04-4.61-4.805 4.089-9.247 3.098-8.438-1.884.307-1.894 5.201-6.554 9.403-8.953.784-.446 1.427-1.021 1.429-1.274.006-.956-2.326-5.027-2.735-4.774-.268.167-.328.029-.167-.389.44-1.145-5.027-8.652-8.426-11.573-3.705-3.181-4.927-3.67-5.675-2.271-1.061 1.982-4.24 2.452-5.768.854-2.029-2.122-1.962-4.47.2-7.092 6.137-7.447 19.09.714 28.052 17.674 1.18 2.235 2.233 4.063 2.34 4.063s.729-.247 1.385-.55c.655-.303 2.04-.882 3.08-1.287 2.393-.933 2.383-.995-.917-5.896-16.179-24.024-33.756-40.306-38.27-35.448m50.685 59.836c10.614 3.73 10.463 15.64-.243 19.216-8.576 2.864-18-2.164-17.997-9.603.002-7.725 9.448-12.704 18.24-9.613m75.589-.731c15.31 2.627 13.276 20.738-2.33 20.738-15.391 0-18.218-17.363-3.357-20.621 2.794-.614 2.799-.614 5.687-.117m-90.324 27.773c22.512 5.542 24.38 37.473 2.67 45.632-18.877 7.095-37.47-10.822-31.132-30 3.879-11.736 16.384-18.604 28.462-15.632m112.17.492c18.882 6.414 22.145 31.84 5.49 42.77-13.27 8.709-30.867 2.444-35.852-12.765-5.997-18.297 12.12-36.202 30.363-30.005m-121.341 5.001c-1.004.193-2.488.768-3.3 1.28s-1.57.932-1.687.932c-2.446 0-7.727 7.046-8.837 11.79-.84 3.596-.255 7.1.88 5.261.809-1.306 8.454-3.273 14.39-3.702 6.133-.443 14.38 1.364 17.833 3.906 2.13 1.569 2.42.96 1.909-4.01-1.03-10.018-11.126-17.384-21.188-15.457m110.648-.078c-.637.152-1.658.54-2.267.862a103 103 0 0 1-2.943 1.464c-5.266 2.524-9.314 9.293-9.314 15.576v2.226l1.228-.804c7.105-4.65 21.709-4.963 30.52-.654 1.767.863 3.319 1.62 3.45 1.682.523.246.708-2.652.324-5.056-1.59-9.958-11.905-17.472-20.998-15.296m-57.8 68.109c-2.224 1.249-5.737 2.468-8.126 2.821-3.522.52-5.939 6.208-6.84 16.105-1.632 17.865 7.086 29.019 22.681 29.019 10.487 0 16.614-4.504 19.381-14.245 2.896-10.196-1.59-30.086-6.973-30.912-2.129-.327-6.116-1.586-7.892-2.492-2.178-1.11-2.289-1.023-2.048 1.633.229 2.512.946 21.426 1.01 26.625.058 4.697-2.017 6.78-5.37 5.391-2.373-.982-2.337-.73-3.027-21.339-.5-14.96-.291-14.012-2.796-12.606" style="stroke-width:.944882"/><path fill="#fbfafa" fill-rule="evenodd" d="M146.268 117.116c-10.657 2.35-12.887 14.322-3.497 18.777 12.933 6.137 26.56-6.852 16.477-15.706-2.99-2.625-8.785-3.996-12.98-3.07m78.236-.007c-10.78 2.313-12.779 14.319-3.136 18.828 12.359 5.779 25.753-6.285 16.856-15.182-3.03-3.03-9.087-4.64-13.72-3.646m-43.353 48.445c-7.725 1.997-13.615 6.767-21.093 17.084-8.928 12.316-11.952 15.748-16.088 18.261-11.512 6.993-31.959 2.003-42.081-10.27-2.984-3.618-6.615-11.408-6.656-14.283-.025-1.684-.76.508-1.662 4.953-5.01 24.691-2.939 57.046 5.98 93.459l.876 3.58 5.63 2.327 16.589 6.866c6.028 2.495 15.382 6.363 20.787 8.594s10.507 4.357 11.339 4.723c.831.367 5.763 2.407 10.96 4.533s10.13 4.17 10.96 4.544c2.509 1.124 12.046 4.908 12.375 4.908.168 0 3.746-1.426 7.95-3.168s15.128-6.27 24.274-10.058c9.147-3.79 22.158-9.182 28.914-11.984 6.756-2.803 15.6-6.47 19.653-8.148 4.054-1.679 7.484-3.223 7.622-3.432 1.331-2.008 4.854-27.906 6.434-47.304 1.206-14.8.498-45.73-1.285-56.126l-.42-2.457-.639 3.213c-1.756 8.832-6.599 16.62-13.224 21.262-6.633 4.65-13.642 6.976-22.11 7.337-11.944.51-16.306-2.607-29.48-21.068-10.922-15.304-22.215-20.806-35.605-17.346m12.814 4.553c20.834 4.236 23.268 30.058 3.456 36.652-2.835.943-2.85.995-.836 2.814 6.677 6.033 16.792 4.786 26.03-3.207 1.35-1.17 2.876-2.415 3.39-2.767 3.115-2.133 7.28 1.571 5.543 4.928-1.423 2.753-9.5 8.687-14.358 10.55-1.486.57-2.768 1.083-2.847 1.14-.08.058.24 1.003.714 2.101 6.15 14.267 5.895 30.897-.62 40.465-10.436 15.323-37.179 14.768-47.654-.989-6.438-9.683-7.616-26.21-2.76-38.716.969-2.493 1.015-2.804.45-3.002-9.595-3.37-18.277-10.628-17.074-14.274 1.157-3.506 4.743-3.77 7.75-.57 8.038 8.549 20.505 10.528 27.353 4.34 1.981-1.79 1.965-1.885-.423-2.66-11.462-3.713-17.262-15.891-12.257-25.732 4.187-8.236 14.605-13.013 24.143-11.073m-51.117 3.987c-.198.52-.36 1.11-.36 1.312 0 .79-2.033 4.377-3.158 5.57-4.441 4.71-10.582 2.107-12.981-5.505-.705-2.234-.975-2.333-3.246-1.194-3.764 1.89-4.05 2.958-1.52 5.665 7.423 7.934 20.777 7.124 27.016-1.638l.835-1.173-1.554-1.38c-2.453-2.177-4.57-2.874-5.032-1.657m90.538.201c-3.69 1.91-3.956 2.957-1.44 5.647 6.491 6.94 17.23 7.429 24.393 1.11 3.929-3.466 3.962-4.157.312-6.497-2.29-1.467-3.288-1.425-3.622.152-2.284 10.825-12.977 11.366-16.3.824-.728-2.31-1.043-2.427-3.343-1.236" style="stroke-width:.944882"/><path d="M185.003 264.988c-11.664-3.308-17-13.405-15.513-29.359.82-8.793 3.698-14.578 7.274-14.617.73-.008 2.946-.68 4.924-1.493s3.731-1.344 3.896-1.18c.164.165.517 6.075.784 13.134.768 20.254.947 21 5.057 21 1.544 0 2.314-.39 3.078-1.556.93-1.42.965-2.894.394-17.083-.343-8.54-.577-15.588-.52-15.66.058-.074 1.724.532 3.702 1.345 1.978.814 4.18 1.486 4.895 1.493 3.339.037 6.65 6.952 8.11 16.94 1.794 12.269-2.1 22.216-10.192 26.036-3.518 1.661-11.736 2.178-15.89 1" style="fill:#d40000;fill-opacity:1;stroke-width:.604724"/><path d="M182.842 263.95c-9.72-3.857-14.62-14.64-12.94-28.473.719-5.905 2.477-11.354 4.12-12.765.885-.76 11.1-4.281 11.38-3.923.052.067.397 6.55.767 14.407.373 7.929 1.012 15.328 1.437 16.63.694 2.124.984 2.362 3.093 2.535 1.6.132 2.712-.151 3.56-.907 1.204-1.07 1.225-1.502.846-17.038-.368-15.047-.33-15.915.672-15.496.583.244 2.684.965 4.668 1.601 1.983.637 4.132 1.623 4.774 2.192 3.325 2.948 6.111 14.02 5.719 22.724-.388 8.601-3.851 14.945-9.867 18.076-3.644 1.896-13.931 2.143-18.229.437" style="fill:#d40000;fill-opacity:1;stroke-width:.604724"/><path d="M182.842 263.95c-9.756-3.87-14.771-15.016-12.942-28.761.77-5.787 2.528-11.107 4.122-12.477.886-.76 11.097-4.28 11.383-3.923.053.067.416 6.604.806 14.528.39 7.923 1.036 15.407 1.435 16.63.65 1.99.969 2.243 3.053 2.414 1.601.132 2.711-.151 3.56-.907 1.203-1.07 1.224-1.498.835-17.042-.379-15.113-.344-15.92.672-15.496.59.246 2.7.97 4.69 1.609 1.99.638 4.213 1.72 4.94 2.403 3.317 3.116 5.937 13.755 5.542 22.51-.388 8.6-3.851 14.944-9.867 18.075-3.644 1.896-13.931 2.143-18.229.437" style="fill:#f55;fill-opacity:1;stroke-width:.604724"/><path d="M189.693 265.986c-8.394-.553-14.664-4.467-18.081-11.285-2.453-4.896-3.334-11.126-2.593-18.34.74-7.205 2.246-11.974 4.462-14.133.792-.772 1.366-1.043 2.852-1.343 2.81-.57 5.819-1.691 8.095-3.02.94-.548 1.187-.55 1.403-.011.376.94.442 2.028.829 13.672.254 7.66.428 12.035.542 13.692.09 1.304.086 1.96-.007 1.16-.225-1.936-.442-5.96-.769-14.31-.341-8.71-.641-13.554-.852-13.765-.159-.158-1.916.381-4.134 1.27-1.996.799-3.517 1.234-5.122 1.466-1.68.243-3.06 1.567-4.32 4.144-2.65 5.425-3.564 15.806-2.042 23.233 1.406 6.867 5.02 11.946 10.554 14.836.51.267 1.403.675 1.983.908 2.859 1.147 4.684 1.47 8.344 1.472 4.51.003 8.076-.621 10.492-1.835 4.644-2.334 7.935-6.835 9.39-12.84.57-2.35.795-4.399.8-7.248.002-2.326-.074-3.391-.42-5.82-.843-5.933-2.52-11.241-4.49-14.215-1.093-1.65-2.287-2.544-3.604-2.703-1.15-.138-2.8-.645-5.051-1.55-1.368-.55-3.104-1.193-3.433-1.271l-.221-.053.051 1.57a2741 2741 0 0 0 .547 15.092c.48 12.156.45 14.38-.206 15.743-.182.38-.754 1.13-.814 1.07-.022-.021.05-.157.16-.301.308-.404.662-1.25.832-1.984.228-.992.258-2.983.113-7.589-.31-9.795-.716-19.624-.9-21.698-.1-1.147-.092-1.74.027-1.973.159-.307.513-.242 1.687.309 2.297 1.077 5.418 2.099 7.8 2.553 1.008.192 1.577.492 2.302 1.211 2.799 2.783 5.174 10.442 5.823 18.78.107 1.377.107 4.979 0 6.233-.302 3.539-1.108 6.427-2.634 9.438-1.766 3.483-4.152 5.897-7.383 7.468-2.66 1.293-5.581 1.91-9.473 2-.831.02-1.974.005-2.539-.033z" style="fill:#f55;fill-opacity:1;stroke-width:.0773558"/></svg>