<svg xmlns="http://www.w3.org/2000/svg" xml:space="preserve" id="Layer_1" width="60.472" height="60.472" x="0" y="0" version="1.1"><style id="style914" type="text/css">.st0{fill-rule:evenodd;clip-rule:evenodd}</style><path id="Full" fill="#fff" d="M0 30.236c0 16.661 13.575 30.236 30.236 30.236s30.236-13.575 30.236-30.236C60.472 13.576 46.897 0 30.236 0 13.576 0 0 13.575 0 30.236" style="stroke-width:.246827"/><g id="main" transform="matrix(.77529 0 0 .77595 7.598 7.574)"><g id="Group-16" transform="translate(-70 -35)"><g id="g923" transform="translate(70 34)"><g id="Group-15" transform="translate(0 .83)"><path id="Fill-9" d="m11.2 47.8 18.3 7.4 18.2-7.8L55 29.1l-7.8-18.2-18.3-7.3-18.2 7.8-7.3 18.3Zm18.3 10.8c-.2 0-.4 0-.6-.1L9.3 50.6q-.6-.3-.9-.9L.1 30.3c-.2-.4-.2-.8 0-1.3L8 9.5q.3-.6.9-.9L28.3.3c.4-.2.8-.2 1.3 0l19.6 7.9c.3.1.6.4.8.8l8.3 19.4c.2.4.2.8 0 1.3l-7.9 19.6q-.3.6-.9.9l-19.4 8.3c-.1.1-.4.1-.6.1" class="st0"/><path id="Fill-10" d="m25.8 21 7.6 8.1-7.8 8.6H38v3.8H20.5v-3.8l7.8-8.6-7.8-8.1v-3.7H38V21z" class="st0"/></g></g></g></g></svg>