<svg xmlns="http://www.w3.org/2000/svg" xml:space="preserve" viewBox="0 0 490 490"><path d="M0 245c0 135.1 109.9 245 245 245s245-109.9 245-245S380.1 0 245 0 0 109.9 0 245" style="fill:#0fc"/><path d="M392.6 268.8c-14.7-35-49-57.7-87-57.7-18.8 0-34 15.2-34 33.9 0 18.8 15.2 34 34 34 3.5 0 7.1.7 10.3 2.1 13.5 5.7 19.8 21.2 14.2 34.7-1.3 3.1-3.1 5.8-5.4 8.2-10.2 10.5-27 10.8-37.5.6-1.3-1.3-2.5-2.7-3.6-4.3-3-4.4-4.5-9.5-4.5-14.8 0-18.7-15.2-33.9-33.9-33.9s-33.9 15.2-33.9 33.9c0 52.1 42.2 94.4 94.3 94.5 25.6 0 50-10.3 67.8-28.7 26.3-27.2 33.9-67.6 19.2-102.5M97.4 221.3c14.8 35 49.1 57.7 87.1 57.7 18.8 0 34-15.2 34-34s-15.2-34-34-34c-3.5 0-7.1-.7-10.3-2.1-13.5-5.7-19.9-21.2-14.2-34.7 1.3-3.1 3.1-5.9 5.5-8.2 10.2-10.5 27-10.8 37.5-.6 1.3 1.3 2.5 2.7 3.6 4.3 3 4.4 4.5 9.5 4.5 14.8-.1 18.8 15 34.1 33.8 34.2s34.1-15 34.2-33.8v-.4c0-52.2-42.2-94.5-94.4-94.5-25.6 0-50 10.3-67.8 28.7-26.6 27.2-34.2 67.6-19.5 102.6" style="fill:#fff"/><path d="M244.9 271.6c-18.7 0-33.9 15.2-33.9 33.9 0 3.5-.7 7-2.1 10.3-2 4.7-5.4 8.8-9.6 11.7-2.1 1.4-4.5 2.6-6.9 3.3-9.6 3-20 .3-27-6.9-10.2-10.5-9.9-27.3.7-37.5 4.9-4.8 11.6-7.4 18.4-7.4 18.8 0 33.9-15.2 33.9-33.9s-15.2-34-33.9-34c-52.2 0-94.5 42.2-94.5 94.4s42.2 94.5 94.4 94.5 94.5-42.2 94.5-94.4v-.1c0-18.7-15.2-33.9-34-33.9m144.7-130.2c-6.6-12.8-16-24-27.6-32.6l-.1-.1c-41.8-31.1-101-22.4-132.1 19.4-12.1 16.3-18.7 36.1-18.7 56.4-.1 18.7 15 34 33.8 34.1 18.7.1 34-15 34.1-33.8v-.4c0-3.5.7-7.1 2.1-10.3 2-4.7 5.4-8.8 9.6-11.7 2.1-1.4 4.4-2.6 6.9-3.3 8.1-2.5 16.9-1 23.7 4 11.8 8.7 14.3 25.3 5.5 37.1-1.8 2.4-4 4.5-6.5 6.2-2.1 1.4-4.5 2.6-6.9 3.3-2.6.8-5.2 1.2-7.9 1.2-18.8 0-34 15.2-34 33.9 0 18.8 15.2 34 34 34 52.2 0 94.4-42.3 94.4-94.5.1-14.9-3.5-29.6-10.3-42.9" style="opacity:.9;fill:#fff"/></svg>