<svg xmlns="http://www.w3.org/2000/svg" xmlns:xlink="http://www.w3.org/1999/xlink" width="250" height="250"><defs><linearGradient id="b" x1="17.336" x2="80" y1="74.339" y2="74.339" gradientUnits="userSpaceOnUse"><stop offset="0" stop-color="#000040"/><stop offset=".325" stop-color="#000043"/><stop offset=".585" stop-color="#00004d"/><stop offset=".823" stop-color="#00005e"/><stop offset="1" stop-color="#000070"/></linearGradient><linearGradient id="c" x1="48.668" x2="48.668" y1="68.69" y2="80" gradientUnits="userSpaceOnUse"><stop offset=".35" stop-color="#00209f"/><stop offset=".645" stop-color="#001f9d"/><stop offset=".752" stop-color="#001d96"/><stop offset=".828" stop-color="#00198b"/><stop offset=".889" stop-color="#00137a"/><stop offset=".941" stop-color="#000c64"/><stop offset=".987" stop-color="#000349"/><stop offset="1" stop-color="#000040"/></linearGradient><linearGradient id="d" x1="17.336" x2="80" y1="55.314" y2="55.314" gradientUnits="userSpaceOnUse"><stop offset="0" stop-color="#00209f"/><stop offset=".021" stop-color="#0222a1"/><stop offset=".244" stop-color="#1333b2"/><stop offset=".487" stop-color="#1d3dbc"/><stop offset=".791" stop-color="#2040bf"/><stop offset=".841" stop-color="#1e3dbc"/><stop offset=".882" stop-color="#1933b2"/><stop offset=".919" stop-color="#1122a1"/><stop offset=".954" stop-color="#050a89"/><stop offset=".966" stop-color="#00007f"/><stop offset="1" stop-color="#2040bf"/></linearGradient><linearGradient id="a" x1="17.34" x2="79.999" y1="61.035" y2="61.035" gradientUnits="userSpaceOnUse"><stop offset="0" stop-color="#fbbf00"/><stop offset=".021" stop-color="#fbc102"/><stop offset=".244" stop-color="#fdd213"/><stop offset=".487" stop-color="#ffdc1d"/><stop offset=".791" stop-color="#ffdf20"/><stop offset=".841" stop-color="#fddc1e"/><stop offset=".882" stop-color="#f8d219"/><stop offset=".919" stop-color="#eec111"/><stop offset=".954" stop-color="#e1a905"/><stop offset=".966" stop-color="#db9f00"/><stop offset="1" stop-color="#ffdf20"/></linearGradient><linearGradient xlink:href="#a" id="f" x1="17.336" x2="80" y1="66.982" y2="66.982"/><linearGradient xlink:href="#a" id="g" x1="17.335" x2="80.002" y1="69.929" y2="69.929"/><linearGradient xlink:href="#a" id="h" x1="17.339" x2="79.997" y1="68.998" y2="68.998"/><linearGradient xlink:href="#a" id="i" x1="17.337" x2="79.998" y1="64.477" y2="64.477"/><linearGradient xlink:href="#a" id="j" x1="17.335" x2="80.005" y1="57.716" y2="57.716"/><linearGradient xlink:href="#a" id="k" x1="17.337" y1="50.599" y2="50.599"/><linearGradient xlink:href="#a" id="l" x1="17.334" x2="80.005" y1="44.961" y2="44.961"/><linearGradient xlink:href="#a" id="m" x1="17.334" x2="80.003" y1="42.173" y2="42.173"/><linearGradient xlink:href="#a" id="n" x1="17.337" x2="80" y1="42.944" y2="42.944"/><linearGradient xlink:href="#a" id="o" y1="47.158" y2="47.158"/><linearGradient xlink:href="#a" id="p" x1="17.339" y1="53.776" y2="53.776"/><linearGradient xlink:href="#a" id="e"/></defs><circle cx="125" cy="125" r="125" fill="#cdcdcd" fill-rule="evenodd"/><path fill="#0e3ca5" d="M105.685 164.866c4.822 17.889 22.123 31.533 30.86 30.97.306-.02 33.138-6.158 51.112-36.261 13.983-23.432 9.224-46.054-9.8-46.547-6.843.5-81.358 17.763-72.17 51.843m70.397-114.894-.019-.017.027-.014a83.496 83.72 0 0 0-88-12.733 48.788 48.918 0 0 0-5.275 2.599c-1.172.626-2.344 1.247-3.482 1.934l.278.084a38.045 38.147 0 0 0-8.812 8.365c-23.975 31.735 56.344 54.814 99.292 54.882 19.748 14.221 25.293-40.032 5.991-55.1"/><path fill="#5493f7" d="M92.943 50.618C81.908 67.249 45.153 78.967 39.109 77.14l-.041-.077q.373-.752.754-1.494A88.494 88.73 0 0 1 66.03 44.908q3.393-2.49 7.026-4.66a25.97 26.04 0 0 1 12.149-3.245c16.368.319 7.82 13.487 7.739 13.615m-9.056 117.517c.793 5.226-.019 25.866-1.085 27.601-.918.058-2.83.175-8.368-2.942a87.276 87.51 0 0 1-8.405-5.468 88.031 88.266 0 0 1-31.542-43.322 87.457 87.691 0 0 1-3.334-13.576 88.964 89.202 0 0 1 0-28.624 87.457 87.691 0 0 1 3.334-13.576q.441-1.33.923-2.64c6.344 8.46 13.685 16.112 19.924 24.657 5.943 8.137 14.119 21.399 15.782 24.232 10.329 17.594 11.976 28.448 12.764 33.662m122.11-52.024a87.802 88.037 0 0 1-6.124 32.407c-10.367 11.171-80.246-16.324-80.93-16.624-9.56-4.2-38.65-16.978-41.276-37.042-3.764-28.885 54.654-49.008 80.33-49.772 3.079.037 12.45.145 17.911 4.593a87.785 88.02 0 0 1 30.089 66.435m-47.305 78.261c-7.617 3.563-16.004.967-13.825-6.471 4.183-14.282 40.712-28.927 48.779-29.734.995-.097 1.417.582.976 1.356a88.868 89.105 0 0 1-35.923 34.837"/><path fill="url(#b)" d="M17.336 77.255a2.55 2.55 0 0 0 2.329 2.713c30.7.21 60.335-1.2 60.335-5.8 0-13.924-62.664 3.087-62.664 3.087" transform="matrix(2.41095 0 0 2.4174 27.124 21.609)"/><path fill="url(#c)" d="M17.336 77.255a2.55 2.55 0 0 0 2.341 2.713c30.691.233 60.286-.731 60.323-5.8 0-13.924-62.664 3.087-62.664 3.087m2.342 2.537a2 2 0 0 1-.245-.015 2.4 2.4 0 0 1-1.987-1.763 2.37 2.37 0 0 0 2.229 1.762c30.671-.193 59.844-9.636 59.844-5.478 0 4.244-29.172 5.702-59.841 5.494" transform="matrix(2.41095 0 0 2.4174 27.124 21.609)"/><path fill="url(#d)" d="M19.68 37.823a2.343 2.343 0 0 0-2.344 2.343v37.089a2.343 2.343 0 0 0 2.329 2.345C50.363 79.37 80.038 69.209 80 74.169V32.394c.038-4.961-29.626 5.199-60.32 5.429" transform="matrix(2.41095 0 0 2.4174 27.124 21.609)"/><path fill="url(#e)" d="m61.288 60.338-.518-1.508-.517 1.685-1.677.288 1.355.752-.516 1.684 1.355-1.219 1.356.753-.518-1.506 1.354-1.221z" transform="matrix(2.41095 0 0 2.4174 27.124 21.609)"/><path fill="url(#f)" d="m56.215 66.29-.515-1.506-.516 1.679-1.677.274 1.357.765-.518 1.679 1.354-1.209 1.353.753-.518-1.5L57.888 66z" transform="matrix(2.41095 0 0 2.4174 27.124 21.609)"/><path fill="url(#g)" d="m49.273 69.254-.519-1.515-.516 1.675-1.676.246 1.357.787-.52 1.673 1.355-1.192 1.358.777-.52-1.516L50.951 69z" transform="matrix(2.41095 0 0 2.4174 27.124 21.609)"/><path fill="url(#h)" d="m42.325 68.36-.519-1.533-.519 1.66-1.678.2 1.357.825-.518 1.658 1.358-1.151 1.359.815-.518-1.529 1.361-1.158z" transform="matrix(2.41095 0 0 2.4174 27.124 21.609)"/><path fill="url(#i)" d="m37.236 63.864-.519-1.541-.52 1.647-1.684.162 1.362.853-.52 1.647 1.362-1.12 1.361.844-.52-1.541 1.36-1.132z" transform="matrix(2.41095 0 0 2.4174 27.124 21.609)"/><path fill="url(#j)" d="m34.85 58.755 1.362.853-.52-1.543 1.363-1.122-1.684.168-.521-1.545-.52 1.644-1.681.151 1.36.863-.519 1.642z" transform="matrix(2.41095 0 0 2.4174 27.124 21.609)"/><path fill="url(#k)" d="m36.718 48.444-.52 1.648-1.685.162 1.363.854-.52 1.645 1.361-1.12 1.362.843-.52-1.54 1.361-1.129-1.682.181z" transform="matrix(2.41095 0 0 2.4174 27.124 21.609)"/><path fill="url(#l)" d="m41.806 42.79-.519 1.659-1.676.2 1.354.824-.516 1.658 1.357-1.151 1.363.816-.521-1.528 1.364-1.161-1.686.214z" transform="matrix(2.41095 0 0 2.4174 27.124 21.609)"/><path fill="url(#m)" d="m48.754 39.985-.512 1.673-1.671.243 1.353.79-.517 1.671 1.347-1.188 1.359.774-.52-1.514 1.361-1.2-1.681.259z" transform="matrix(2.41095 0 0 2.4174 27.124 21.609)"/><path fill="url(#n)" d="m55.7 40.744-.515 1.682-1.676.271 1.356.767-.518 1.679 1.353-1.209 1.347.755-.518-1.5 1.355-1.221-1.67.287z" transform="matrix(2.41095 0 0 2.4174 27.124 21.609)"/><path fill="url(#o)" d="m59.415 49.361 1.355-1.217 1.356.752-.517-1.507 1.354-1.22-1.674.291-.519-1.505-.517 1.683-1.677.289 1.356.75z" transform="matrix(2.41095 0 0 2.4174 27.124 21.609)"/><path fill="url(#p)" d="m63.145 53.075-.517-1.5-.518 1.686-1.675.287 1.356.752-.517 1.684 1.354-1.22 1.353.748-.518-1.5 1.352-1.225z" transform="matrix(2.41095 0 0 2.4174 27.124 21.609)"/></svg>