<svg xmlns="http://www.w3.org/2000/svg" xml:space="preserve" viewBox="0 0 490 490"><path d="M0 245c0 135.1 109.9 245 245 245s245-109.9 245-245S380.1 0 245 0 0 109.9 0 245" style="fill:#3f54b7"/><path d="m154.1 263.6-40.2 40.3L95 322.7c-12.5-24-19-50.7-19-77.7 0-93.2 75.8-169 169-169s169 75.8 169 169-75.8 169-169 169c-34.7 0-68.6-10.7-96.9-30.6-6.9-4.9-13.5-10.2-19.6-16.1l17.9-17.9 129.3-129.3c1.1-13.7 13.1-23.9 26.8-22.8 12 1 21.5 10.3 22.8 22.3l59.5 59.5c2.7-11.2 4.1-22.6 4.1-34.1 0-79.3-64.5-143.7-143.7-143.7S101.3 165.7 101.3 245c0 10.8 1.2 21.6 3.6 32.1l38.2-38.2c2.1-13.6 14.9-22.8 28.4-20.7 10.5 1.7 18.7 9.8 20.6 20.2l24.3 24.3-17.9 17.9-17.1-17.1c-8.2 5.5-19 5.6-27.3.1m133.8-20.1L166.3 365.2c66.3 43.5 155.3 25.1 198.9-41.2 3.9-5.9 7.3-12.1 10.3-18.5l-62.1-62.2c-7.9 4.8-17.7 4.8-25.5.2m13-32.5c-6.2-.2-11.3 4.7-11.5 10.9-.2 6.1 4.6 11.2 10.7 11.5h.8c6.2-.2 11-5.4 10.8-11.6-.3-5.9-5-10.6-10.8-10.8m-133.1 20.4c-6.2 0-11.2 5-11.2 11.2s5 11.2 11.2 11.2 11.2-5 11.2-11.2-5-11.2-11.2-11.2" style="fill:#fff"/></svg>