<svg xmlns="http://www.w3.org/2000/svg" width="400" height="400"><circle cx="200" cy="200" r="200" style="fill:#4a82df;fill-opacity:1;stroke-width:1.79451"/><path d="M347.53 229.107c-3.584-3.29-8.395-3.102-11.98 0a151 151 0 0 1-5.511 4.533c-9.72 7.371-20.33 13.507-31.526 18.334-12.13 5-24.855 8.455-37.836 10.308-12.664 1.588-25.487 1.634-38.151.037-15.737-2.289-30.811-7.37-45.591-13.138 12.002-5.377 23.68-11.468 35.02-18.147a440 440 0 0 0 18.943-11.843c10.677 1.664 21.565 2.146 32.31 1.34a156.4 156.4 0 0 0 23.62-3.584c6.73-1.566 13.311-3.547 19.576-6.49 8.019-3.773 15.94-10.007 19.614-18.29 1.74-3.915 2.9-8.019 2.734-12.356-.159-4.096-1.198-7.98-3.14-11.595-3.532-6.543-10.436-11.46-17.732-12.793-9.487-1.731-18.922.76-27.046 5.813-3.923 2.447-7.454 5.49-11.06 8.373a1400 1400 0 0 1-9.044 7.176 760 760 0 0 1-3.87 3.011c-9.668 7.455-19.524 14.66-29.636 21.505-9.645-2.101-18.99-5.248-28.153-9.036-7.77-3.313-15.382-6.987-22.882-10.865 10.752-4.179 21.256-9.043 31.511-14.283 14.758-7.53 29.086-15.88 43.227-24.509 3.69-2.251 7.371-4.525 11.038-6.814 3.757-2.342 5.564-7.665 3.042-11.588-2.432-3.765-7.567-5.549-11.588-3.042-19.75 12.311-39.763 24.313-60.688 34.53-5.12 2.5-10.3 4.88-15.54 7.116-6.897 2.876-13.907 5.481-21.038 7.71q-.235-.135-.482-.271c-7.228-4.073-14.403-8.222-21.61-12.348-6.874-3.93-13.71-8.004-20.765-11.596-4.767-2.424-9.857-4.532-15.112-5.61-5.113-1.046-9.954-1.227-15.09-.451-7.25 1.1-14.343 5.481-17.934 11.987-3.9 7.07-3.524 15.307.128 22.385 4.17 8.094 12.416 13.154 20.675 16.241 5.361 2.003 11.046 2.937 16.723 3.531 6.423.67 12.944.558 19.374.06 10.857-.835 21.58-2.808 32.06-5.676 7.108 3.922 14.269 7.732 21.557 11.301 10.436 5.113 21.188 9.954 32.287 13.591-6.8 4.119-13.704 8.057-20.744 11.754a321 321 0 0 1-23.229 11.045 277 277 0 0 1-9.344 3.697c-9.923-4.073-19.855-8.132-29.944-11.79-9.352-3.397-18.824-6.469-28.432-9.044-4.307-1.152-8.546-2.16-12.996-2.582-3.335-.317-6.565-.03-9.87.474-10.391 1.581-20.428 9.329-22.8 19.878-1.272 5.662-.52 11.256 2.086 16.43 2.477 4.923 7.077 8.982 11.926 11.466 6.754 3.464 14.231 4.872 21.768 5.166 9.194.361 18.44-.595 27.535-1.86 13.794-1.92 27.317-5.451 40.456-10.067 10.572 4.36 21.15 8.689 31.963 12.416 16.858 5.805 34.304 9.435 52.172 9.773 18.311.347 36.88-2.492 54.257-8.282a162.9 162.9 0 0 0 49.702-26.865 143 143 0 0 0 5.068-4.202c3.358-2.914 3.207-9.035 0-11.98zm-66.139-47.233c1.551-1.242 3.095-2.492 4.653-3.72 2.432-1.799 5.007-3.402 7.756-4.682a31 31 0 0 1 5.85-1.657c1.31-.105 2.62-.113 3.938 0 .986.196 1.958.46 2.906.798q1.096.545 2.101 1.235c.542.482 1.062.994 1.536 1.536a19 19 0 0 1 1.07 1.822c.24.693.428 1.4.579 2.124.053.775.053 1.558 0 2.334a20 20 0 0 1-.753 2.74 24 24 0 0 1-1.882 3.2 31.3 31.3 0 0 1-4.149 4.081c-2.47 1.77-5.128 3.246-7.898 4.503-8.471 3.441-17.687 5.391-26.73 6.679a138 138 0 0 1-17.627 1.099c9.728-7.138 19.238-14.555 28.665-22.084zm-180.067-4.593c-3.893-.61-7.726-1.55-11.4-2.974-2.1-.948-4.111-2.078-5.978-3.418a24.5 24.5 0 0 1-2.801-2.786 19 19 0 0 1-1.34-2.274 17 17 0 0 1-.52-1.875c-.03-.512-.03-1.016 0-1.528.098-.452.218-.904.369-1.348.218-.414.452-.813.708-1.205.369-.406.76-.798 1.174-1.16.595-.398 1.22-.752 1.867-1.076a22 22 0 0 1 3.253-.88 30.2 30.2 0 0 1 5.836.06c3.11.534 6.136 1.453 9.073 2.612 5.315 2.35 10.353 5.384 15.412 8.237a2315 2315 0 0 1 15.165 8.66c-1.04.172-2.07.33-3.11.481-9.14 1.16-18.507 1.604-27.678.49zm8.418 74.64a169 169 0 0 1-14.585 1.243c-4.405.173-8.825.218-13.207-.279-2.635-.43-5.233-1.07-7.74-2.01a27 27 0 0 1-4.036-2.312 19 19 0 0 1-1.845-1.845q-.543-.811-.986-1.679a15 15 0 0 1-.444-1.626q-.045-.813 0-1.626c.128-.61.294-1.205.497-1.793q.476-.924 1.054-1.792c.55-.624 1.13-1.204 1.754-1.754a22 22 0 0 1 2.741-1.604c1.37-.504 2.77-.888 4.209-1.144 2.191-.211 4.397-.173 6.588.06 3.69.625 7.319 1.702 10.918 2.71a326 326 0 0 1 14.6 4.458c6.708 2.214 13.35 4.638 19.945 7.176-2.635.655-5.27 1.272-7.928 1.822-3.825.79-7.68 1.453-11.55 2.003z" style="clip-rule:evenodd;fill:#fff;fill-rule:nonzero;stroke-width:.752947;stroke-linejoin:round;stroke-miterlimit:2;fill-opacity:1"/></svg>