<svg xmlns="http://www.w3.org/2000/svg" viewBox="0 0 400 400"><linearGradient id="a" x1="131.96" x2="304.415" y1="266.399" y2="266.399" gradientUnits="userSpaceOnUse"><stop offset="0" stop-color="#524b99"/><stop offset=".246" stop-color="#554d9a"/><stop offset=".43" stop-color="#5f529d"/><stop offset=".593" stop-color="#6f5ba2"/><stop offset=".743" stop-color="#8567a9"/><stop offset=".826" stop-color="#9570ae"/></linearGradient><circle cx="200" cy="200" r="200" stroke="url(#J)" stroke-width="67.623"/><linearGradient id="b" x1="136.114" x2="288.047" y1="165.375" y2="83.289" gradientUnits="userSpaceOnUse"><stop offset=".609" stop-color="#009bba"/><stop offset=".73" stop-color="#08a1bf"/><stop offset=".92" stop-color="#1fb1cd"/><stop offset="1" stop-color="#2ab9d4"/></linearGradient><path fill="url(#a)" d="M273.5 175H162.8c-17 0-30.8 13.8-30.8 30.8V327c0 28.1 34.6 41.5 53.6 20.8l110.8-121.2c18-19.8 3.9-51.6-22.9-51.6" transform="translate(21.288 20.473)scale(.9025)"/><path fill="url(#b)" stroke="url(#C)" d="M275.2 62.1H161.4c-16.2 0-29.4 13.2-29.4 29.4v120.4c0 26.6 32.5 39.5 50.8 20.2l113.8-120.4c17.7-18.7 4.4-49.6-21.4-49.6z" transform="translate(21.288 20.473)scale(.9025)"/></svg>