<svg xmlns="http://www.w3.org/2000/svg" width="236.008" height="236.01"><path fill="#21986d" d="M36.658 36.664C15.628 57.694.237 88.27.003 118.01c-.238 30.2 14.494 61.891 35.917 83.178 21.083 20.95 52.362 34.705 82.083 34.822 28.694.114 57.889-12.607 79.512-32.99s38.823-53.906 38.488-85.01c-.343-31.818-18.151-64.195-41.237-86.094C174.662 12.845 145.71-.399 118.003.01 88.266.447 57.688 15.634 36.658 36.664m81.39 1.515c2.032.01 4.032.83 5.404 2.461.767.911 4.564 6.812 8.439 13.111 6.036 9.812 7.046 11.807 7.05 13.918.007 2.946-1.565 5.35-4.462 6.826-1.766.901-3.894 1.031-16.771 1.031-16.498 0-17.63-.228-20.195-4.068-1.57-2.349-1.706-4.722-.414-7.22 1.758-3.4 13.863-22.049 15.35-23.649a7.6 7.6 0 0 1 5.6-2.41zm-.045 53.87c30.847 0 31.353.058 35.336 4.095 2.877 2.916 40.12 60.818 40.873 63.545 1.382 5.005-1.237 10.837-6.041 13.451l-2.773 1.51-67.475-.023-69.244-.803c-5.436-2.396-8.573-9.38-6.648-14.809 1.232-3.475 38.51-61.038 40.957-63.242 4.07-3.668 4.597-3.725 35.016-3.725z"/></svg>