<svg xmlns="http://www.w3.org/2000/svg" xml:space="preserve" id="FET" x="0" y="0" version="1.1" viewBox="0 0 490 490"><style>.st1{fill:#fff}</style><path id="Full" d="M0 245c0 135.1 109.9 245 245 245s245-109.9 245-245S380.1 0 245 0 0 109.9 0 245" style="fill:#025098"/><path id="FETCH" d="M167.1 129.8v-11.7h-46.3v56.6h13.5v-22h25.9v-11.3h-25.9v-11.7zm94.9 45v-11.7h-32.3v-11.8h24.5v-11h-24.5v-10.7h30.9v-11.5h-44.1v56.6zm-.3 49v-11.7H216v11.7h16v45h13.7v-45zm97.7 37.2-9.5-9c-1.3 1.8-2.9 3.2-4.9 4.2-2.2 1.1-4.7 1.7-7.1 1.6-2.2 0-4.4-.4-6.5-1.3-1.9-.8-3.7-2-5.1-3.6-1.5-1.6-2.6-3.5-3.3-5.5-.8-2.3-1.2-4.6-1.2-7q0-3.6 1.2-6.9c.8-2 1.9-3.9 3.4-5.5s3.2-2.8 5.2-3.6c2.1-.9 4.3-1.3 6.6-1.3 2.2 0 4.4.4 6.4 1.3 2 .8 3.8 2.2 5 3.9l9.3-9.3c-2.6-2.8-5.8-5-9.4-6.2-7.7-2.8-16.2-2.8-23.9 0-3.6 1.3-6.9 3.3-9.8 6-2.8 2.6-5 5.8-6.5 9.4-3.1 7.9-3.1 16.6 0 24.5 2.9 7.2 8.8 12.9 16 15.6 3.9 1.5 8 2.2 12.1 2.2 4.4.1 8.7-.8 12.7-2.5 3.6-1.8 6.8-4.1 9.3-7m0 101.8v-56.6h-13.7v21.4h-22.1v-21.4H310v56.6h13.7v-23.7h22.1v23.7z" class="st1"/><path id="Shape" d="M296 174v-65h64zm10 10h65v-64z" class="st1"/></svg>