<svg xmlns="http://www.w3.org/2000/svg" width="242.5" height="242.5"><defs><clipPath id="a"><path fill="none" d="M0 0h121.345v121.345H0Z" data-name="Path 472534"/></clipPath></defs><path fill="#4949ff" d="M0 121.252C0 188.064 54.44 242.5 121.252 242.5S242.5 188.064 242.5 121.252 188.064 0 121.252 0 0 54.44 0 121.252"/><g clip-path="url(#a)" transform="translate(60.479 60.479)"><path fill="#fff" d="M63.858-.038 35.944 27.875-.212 64.025l.083 57.021 57.021.083 27.925-27.925 36.146-36.146.171-57.279Zm2.018 4.846 46.945-.14L86.239 31.25h-46.8zm-34.8 34.8v46.8l-26.358 26.36-.074-46.73Zm23.8 76.667-46.729-.064 26.368-26.366h46.8l-26.429 26.43zM35.937 84.987V36.104h48.88V84.98h-48.88zm53.733-3.5V34.682L116.253 8.1l-.144 46.945z" data-name="Path 472533"/></g></svg>