<svg xmlns="http://www.w3.org/2000/svg" width="290" height="290"><defs><mask id="a" fill="#fff"><path d="M0 117.91V.639h101.368V117.91z"/></mask></defs><g transform="translate(.299 .299)"><circle cx="145" cy="145" r="145" fill="#fff" transform="translate(-.299 -.299)"/><path fill="#425cc7" d="M150.103 172.187v63.438c0 3.368-2.116 4.98-4.728 3.558l-35.883-19.676a10.81 10.81 0 0 1-4.756-8.716v-61.988c.524.422 1.082.789 1.667 1.116z" style="stroke-width:.789232"/><path fill="#005cb9" d="m5.084 117.425 91.275-46.802a10.76 10.76 0 0 0 5.01-8.853V4.882c0-3.526-2.26-5.147-5.01-3.741L12.247 44.278C3.567 48.934-.45 51.123.041 60.96v52.725c0 3.353 2.293 5.155 5.043 3.741" mask="url(#a)" transform="translate(104.7 49.198)scale(.78923)"/><path fill="#3cb4e5" d="m108.713 90.49 72.038 36.937a8.53 8.53 0 0 1 3.953 7.014v44.871c0 2.783-1.783 4.089-3.953 2.98l-72.038-36.944a8.52 8.52 0 0 1-3.98-7.008V93.463c0-2.75 1.81-4.09 3.98-2.974" style="stroke-width:.789232"/><path fill="#00a0df" d="m109.84 141.873 50.102-25.69L109.84 90.49a2.52 2.52 0 0 0-2.783 0 9.9 9.9 0 0 0-1.197 4.341v43.503c.027.96.224 1.898.585 2.79a2.367 2.367 0 0 0 3.238.85q.073-.051.157-.102" style="stroke-width:.789232"/></g></svg>