<svg xmlns="http://www.w3.org/2000/svg" width="256" height="256" viewBox="0 0 67.733 67.733"><g style="fill:#9b1c2e;fill-opacity:1"><path d="M1.455 263.133c0 17.872 14.54 32.412 32.412 32.412 17.871 0 32.411-14.54 32.411-32.412 0-17.871-14.54-32.411-32.411-32.411s-32.412 14.54-32.412 32.411" class="cls-1" style="fill:#9b1c2e;fill-opacity:1;stroke-width:.13229166" transform="translate(0 -229.267)"/></g><path d="M206.4 316.9c3 0 5.8-1.7 7.2-4.3l19.1-36.3h-29.5c-4.5 0-8.1-3.7-8.1-8.1v-16.3c0-4.5 3.7-8.1 8.1-8.1h46.7l36.3-68.8c1.4-2.7 4.2-4.3 7.2-4.3h61.1c-23.7-25-57.2-40.6-94.4-40.6-71.8 0-130 58.2-130 130 0 20.4 4.7 39.7 13.1 56.9h63.2z" class="st0" style="fill:#fefefe" transform="translate(-15.462 -15.453)scale(.18969)"/><path d="M313.7 203.1c-3 0-5.8 1.7-7.2 4.3l-19.1 36.3h29.5c4.5 0 8.1 3.7 8.1 8.1v16.3c0 4.5-3.7 8.1-8.1 8.1h-46.7L233.9 345c-1.4 2.7-4.2 4.3-7.2 4.3h-61.1c23.7 25 57.2 40.6 94.4 40.6 71.8 0 130-58.2 130-130 0-20.4-4.7-39.7-13.1-56.9h-63.2z" class="st0" style="fill:#fefefe" transform="translate(-15.462 -15.453)scale(.18969)"/></svg>