<svg xmlns="http://www.w3.org/2000/svg" xml:space="preserve" viewBox="0 0 490 490"><path d="M0 245c0 135.1 109.9 245 245 245s245-109.9 245-245S380.1 0 245 0 0 109.9 0 245" style="fill:#416ed5"/><path d="M244.3 74.1c-4.3.2-8.6 1.2-12.5 3-1.3.6-82.1 43.4-84.2 44.6a19.2 19.2 0 0 0-6.1 5.2l-.5.7h-3v234.8h2.8l.5.7c1.7 2.2 3.8 4 6.2 5.3 1.3.7 82.7 43.9 83.9 44.5 3.5 1.7 7.2 2.7 11 3 2.3.2 4.7.2 7 0 3.6-.3 7.2-1.1 10.5-2.6 1-.4 84.4-44.6 85.6-45.4 1.3-.8 2.5-1.7 3.5-2.7.8-.8 1.6-1.7 2.3-2.6l.2-.3h2.9V127.6h-3l-.4-.6c-1.2-1.4-2.5-2.7-3.9-3.8-.5-.3-1.2-.8-1.7-1.1-1.7-1-84.7-45-85.8-45.4-4.6-2.1-10-3-15.3-2.6m4.8 17.6c1.2.2 2.4.5 3.5.9 1 .4 80.4 42.5 80.3 42.6-.2.2-79.9 42.4-80.5 42.6-1 .4-2.1.6-3.2.8-2.1.2-4.2.2-6.4 0-1.2-.2-2.4-.5-3.5-1-.8-.4-79.8-42.3-79.9-42.4 0 0 16.5-8.8 36.7-19.6 46.9-24.8 43.4-23 44.3-23.3q4.5-1.2 8.7-.6m-59.4 79.4c33.1 17.6 33.6 17.8 33.3 17.9-.1.1-15.4 8.1-33.8 17.9s-33.6 17.8-33.6 17.8c-.1 0-.1-7.2-.1-35.9v-36l.3.2c.2.2 15.5 8.3 33.9 18.1m147.4 35.8v17.9l-33.9-18c-18.6-9.9-33.9-18-33.8-18s15.3-8.1 33.9-18l33.8-17.9v18c.1 9.9.1 26.1 0 36m-99.5 56.4V284l-39-20.7c-21.4-11.4-39-20.7-39-20.7s17.5-9.4 39-20.7l39-20.7v62.1m56.5-41.4c28.9 15.3 38.9 20.7 38.8 20.8S255.1 284 255.1 284v-41.3c0-22.7 0-41.3.1-41.3s17.5 9.1 38.9 20.5m43.1 85.9v47.6h-5.1l-39.5 20.9c-21.7 11.5-39.8 21-40.1 21.2-3.3 1.1-6.9 1.3-10.3.6-1.9-.4-.2.5-42.1-21.7l-39.6-21h-5v-47.5c0-43 0-47.5.1-47.5s17.2 9.1 38 20.1 38.4 20.3 39 20.6c2.9 1.2 6 2.1 9.1 2.4 2.5.2 4.9.3 7.4.1 3.7-.3 7.3-1.1 10.8-2.6.5-.2 18.1-9.5 39.1-20.6s38.1-20.2 38.1-20.2.1 21.4.1 47.6M355.1 97c-2.5 4.1-4.5 7.5-4.5 7.5 1 .7 2 1.4 3.1 2 6.5 4 8.9 5.6 11 7.7 2.3 2.2 3.9 5 4.6 8.2.9 3.7 1.3 7.5 1.3 11.3v1.7H388v-1.8c0-4.2-.4-8.4-1.1-12.5-.6-3.4-1.6-6.7-3.1-9.9-3.2-6.6-7.7-11.3-16.1-16.6-1.3-.8-7.4-4.6-7.9-4.8-.2-.2-.8.7-4.7 7.2m-252 256.5c.2 10.2 1.8 17.3 5 23.2 3.3 6.1 7.8 10.4 16.4 15.8 2.3 1.4 7.1 4.3 7.1 4.3.2-.2 9-14.9 9-15 0 0-1.3-.9-2.9-1.8-6-3.6-8.7-5.5-10.9-7.5-4.2-3.9-5.9-9.1-6.2-19.3l-.1-2.2H103z" style="fill:#fff"/></svg>