<svg xmlns="http://www.w3.org/2000/svg" xml:space="preserve" viewBox="0 0 490 490"><path d="M0 245c0 135.1 109.9 245 245 245s245-109.9 245-245S380.1 0 245 0 0 109.9 0 245" style="fill:#3d4c7c"/><path d="M378.9 223.6h-58.5l18.5-43.8h39.5c2.6.5 4.1 2.1 4.1 4.1V220c.5 2-1 3.6-3.6 3.6m-115.9.5H158.8v-45.4h105.7l15.9-42.8H119.8c-4.6.5-6.7 2.6-6.7 7.2V224H86.4L71 266.9h42.1v79.9s0 8.8 8.7 8.2h74.9l16.4-42.3h-53.9v-46.4h88.3L212.7 355h51.8l35.4-88.1s102.1 1.5 110.9 0c5-.8 8.8-4.8 9.2-9.8V144.2c0-5.7-2.6-8.2-7.7-7.7H297.9z" style="fill:#fff"/></svg>