<svg xmlns="http://www.w3.org/2000/svg" xml:space="preserve" id="FunFair" x="0" y="0" version="1.1" viewBox="0 0 245 245"><style>.st1{fill:#fff}</style><path id="Main" d="M0 122.5C0 190 55 245 122.5 245S245 190 245 122.5 190 0 122.5 0 0 55 0 122.5" style="fill:#e42c84"/><path id="Left" d="M122.5 71.5c-50.5 2.1-54.7 52.3-49.5 65 5.4-3.9 34.5-26.5 34.5-26.5l24 30L97 167s27.3 34.8 34.9 44.5c-3.1.3-6.2.5-9.4.5-49.4 0-89.5-40.1-89.5-89.5C33 83.3 58.5 48.6 96 37c5.8 7.6 18.7 24.4 26.5 34.5" class="st1"/><path id="Right" d="M122.4 173.5c50.5-2.1 54.8-52.3 49.6-65-5.4 3.9-34.5 26.5-34.5 26.5l-24-30L148 78s-27.3-34.8-34.9-44.5c3.1-.3 6.2-.5 9.4-.5 49.5 0 89.6 40.1 89.6 89.5 0 40.2-26.5 74.2-63.1 85.5-5.9-7.6-18.8-24.4-26.6-34.5" class="st1"/></svg>