<svg xmlns="http://www.w3.org/2000/svg" xmlns:xlink="http://www.w3.org/1999/xlink" width="250" height="250"><defs><linearGradient xlink:href="#a" id="f" x1="17.336" x2="80" y1="74.339" y2="74.339"><stop offset="0" stop-color="#000040"/><stop offset=".325" stop-color="#000043"/><stop offset=".585" stop-color="#00004d"/><stop offset=".823" stop-color="#00005e"/><stop offset="1" stop-color="#000070"/></linearGradient><linearGradient xlink:href="#a" id="b" x1="32.471" x2="32.471" y1="68.707" y2="79.968"><stop offset=".35" stop-color="#00209f"/><stop offset=".645" stop-color="#001f9d"/><stop offset=".752" stop-color="#001d96"/><stop offset=".828" stop-color="#00198b"/><stop offset=".889" stop-color="#00137a"/><stop offset=".941" stop-color="#000c64"/><stop offset=".987" stop-color="#000349"/><stop offset="1" stop-color="#000040"/></linearGradient><linearGradient xlink:href="#b" id="h" x1="60.911" x2="60.911"/><linearGradient xlink:href="#a" id="c" x1="17.394" x2="17.394" y1="68.684" y2="80.001"><stop offset=".35" stop-color="#dfdfdf"/><stop offset=".645" stop-color="#ddd"/><stop offset=".752" stop-color="#d6d6d6"/><stop offset=".828" stop-color="#cbcbcb"/><stop offset=".889" stop-color="#bababa"/><stop offset=".941" stop-color="#a4a4a4"/><stop offset=".987" stop-color="#898989"/><stop offset="1" stop-color="gray"/></linearGradient><linearGradient xlink:href="#b" id="j" x1="48.723" x2="48.723"/><linearGradient xlink:href="#c" id="k" x1="46.239" x2="46.239" y1="68.69" y2="80"/><linearGradient xlink:href="#c" id="l" x1="20.944" x2="20.944" y1="68.691" y2="80"/><linearGradient xlink:href="#a" id="d" x1="46.182" x2="46.182" y1="68.69" y2="80"><stop offset=".35" stop-color="#bf1010"/><stop offset=".645" stop-color="#bd1010"/><stop offset=".752" stop-color="#b60f0f"/><stop offset=".828" stop-color="#ab0d0d"/><stop offset=".889" stop-color="#9a0a0a"/><stop offset=".941" stop-color="#840606"/><stop offset=".987" stop-color="#690202"/><stop offset="1" stop-color="#600000"/></linearGradient><linearGradient xlink:href="#d" id="n" x1="19.775" x2="19.775"/><linearGradient xlink:href="#c" id="o" x1="74.36" x2="74.36" y1="68.69"/><linearGradient xlink:href="#a" id="p" x1="17.336" x2="80" y1="55.314" y2="55.314"><stop offset="0" stop-color="#00209f"/><stop offset=".021" stop-color="#0222a1"/><stop offset=".244" stop-color="#1333b2"/><stop offset=".487" stop-color="#1d3dbc"/><stop offset=".791" stop-color="#2040bf"/><stop offset=".841" stop-color="#1e3dbc"/><stop offset=".882" stop-color="#1933b2"/><stop offset=".919" stop-color="#1122a1"/><stop offset=".954" stop-color="#050a89"/><stop offset=".966" stop-color="#00007f"/><stop offset="1" stop-color="#2040bf"/></linearGradient><linearGradient xlink:href="#a" id="q" x1="17.336" x2="80" y1="55.314" y2="55.314"><stop offset="0" stop-color="#dfdfdf"/><stop offset=".021" stop-color="#e1e1e1"/><stop offset=".244" stop-color="#f2f2f2"/><stop offset=".487" stop-color="#fcfcfc"/><stop offset=".791" stop-color="#fff"/><stop offset=".841" stop-color="#fcfcfc"/><stop offset=".882" stop-color="#f2f2f2"/><stop offset=".919" stop-color="#e1e1e1"/><stop offset=".954" stop-color="#c9c9c9"/><stop offset=".966" stop-color="#bfbfbf"/><stop offset="1" stop-color="#fff"/></linearGradient><linearGradient xlink:href="#a" id="e" x1="17.336" x2="80" y1="56.115" y2="56.115"><stop offset="0" stop-color="#bf1010"/><stop offset=".021" stop-color="#c11212"/><stop offset=".244" stop-color="#d22323"/><stop offset=".487" stop-color="#dc2d2d"/><stop offset=".791" stop-color="#df3030"/><stop offset=".841" stop-color="#dc2e2e"/><stop offset=".882" stop-color="#d22626"/><stop offset=".919" stop-color="#c11919"/><stop offset=".954" stop-color="#a90808"/><stop offset=".966" stop-color="#9f0000"/><stop offset="1" stop-color="#df3030"/></linearGradient><linearGradient xlink:href="#e" id="s" x1="17.338" y1="39.67" y2="39.67"/><linearGradient xlink:href="#e" id="t" x2="80.001" y1="44.717" y2="44.717"/><linearGradient xlink:href="#e" id="u" x1="17.337" y1="67.399" y2="67.399"/><linearGradient xlink:href="#e" id="v" x1="17.337" y1="71.77" y2="71.77"/><linearGradient xlink:href="#b" id="g"/><linearGradient xlink:href="#c" id="i"/><linearGradient xlink:href="#d" id="m"/><linearGradient xlink:href="#e" id="r"/><linearGradient id="a" gradientUnits="userSpaceOnUse"/></defs><circle cx="125" cy="125" r="125" fill="#cdcdcd" fill-rule="evenodd"/><path fill="#0e3ca5" d="M105.68 164.86c4.823 17.889 22.123 31.534 30.86 30.971.306-.022 33.136-6.157 51.11-36.26 13.982-23.431 9.223-46.05-9.799-46.543-6.844.5-81.353 17.762-72.165 51.84m70.391-114.891-.02-.017.027-.015A83.492 83.717 0 0 0 88.09 37.213a48.786 48.917 0 0 0-5.275 2.599c-1.171.623-2.343 1.247-3.481 1.934l.277.084a38.043 38.146 0 0 0-8.811 8.364c-23.974 31.735 56.34 54.813 99.287 54.88 19.747 14.222 25.292-40.03 5.991-55.097"/><path fill="#5493f7" d="M92.94 50.617C81.905 67.248 45.152 78.965 39.108 77.14l-.04-.077q.373-.752.754-1.494a88.42 88.658 0 0 1 26.206-30.662q3.392-2.49 7.022-4.66A26.037 26.107 0 0 1 85.2 37c16.368.315 7.822 13.489 7.732 13.622m-9.047 117.509c.793 5.226-.02 25.865-1.085 27.601-.919.058-2.83.174-8.368-2.942a87.846 88.083 0 0 1-43.28-62.367 88.96 89.2 0 0 1 0-28.624 87.453 87.689 0 0 1 3.335-13.575q.44-1.33.923-2.643c6.343 8.461 13.684 16.112 19.923 24.657 5.943 8.137 14.118 21.399 15.781 24.232 10.328 17.593 11.975 28.447 12.763 33.661m122.104-52.019a87.754 87.991 0 0 1-6.126 32.407c-10.366 11.168-80.24-16.324-80.924-16.624-9.56-4.199-38.648-16.977-41.274-37.04-3.763-28.885 54.651-49.007 80.327-49.771 3.078.036 12.447.145 17.91 4.593a87.78 88.018 0 0 1 30.087 66.433m-47.303 78.259c-7.618 3.563-16.003.967-13.824-6.471 4.183-14.282 40.71-28.929 48.776-29.734.996-.096 1.418.583.977 1.356a88.878 89.117 0 0 1-35.922 34.837"/><path fill="url(#f)" d="M17.336 77.255a2.55 2.55 0 0 0 2.329 2.713c30.7.21 60.335-1.2 60.335-5.8 0-13.924-62.664 3.087-62.664 3.087" transform="matrix(2.41083 0 0 2.41733 27.124 21.61)"/><path fill="url(#g)" d="M43.793 78.027 38.169 72.4a375 375 0 0 0-17.019 3.864l3.4 3.4c6.65-.238 13.163-.864 19.243-1.637" transform="matrix(2.41083 0 0 2.41733 27.124 21.61)"/><path fill="url(#h)" d="m73.485 73.478-4.765-4.765a116 116 0 0 0-20.383 1.831l5.973 5.972z" transform="matrix(2.41083 0 0 2.41733 27.124 21.61)"/><path fill="url(#i)" d="m17.446 78.014-.111-.759a3 3 0 0 0 .116.8l-.005-.037z" transform="matrix(2.41083 0 0 2.41733 27.124 21.61)"/><path fill="url(#j)" d="M79.519 74.3c0 4.244-29.172 5.7-59.841 5.493a2 2 0 0 1-.245-.014 2.35 2.35 0 0 1-1.845-1.388v-.007a2.5 2.5 0 0 1-.137-.367l.005.037a2.41 2.41 0 0 0 2.225 1.916c30.691.233 60.286-.731 60.323-5.8z" transform="matrix(2.41083 0 0 2.41733 27.124 21.61)"/><path fill="url(#k)" d="m54.31 76.516-5.973-5.972c-3.451.559-6.9 1.2-10.168 1.859l5.624 5.624c3.685-.468 7.212-.989 10.517-1.511" transform="matrix(2.41083 0 0 2.41733 27.124 21.61)"/><path fill="url(#l)" d="M17.584 78.382v.007a2.33 2.33 0 0 0 2.087 1.387 161 161 0 0 0 4.876-.108l-3.4-3.4-3.814.988.111.759a2.5 2.5 0 0 0 .14.367" transform="matrix(2.41083 0 0 2.41733 27.124 21.61)"/><path fill="url(#m)" d="m46.256 70.894-6.1 1.116 5.744 5.739q3.252-.436 6.306-.906z" transform="matrix(2.41083 0 0 2.41733 27.124 21.61)"/><path fill="url(#n)" d="m17.336 77.255.111.759a2.5 2.5 0 0 0 .137.367v.007q.033.063.069.125l1.012 1.012a2.2 2.2 0 0 0 1.006.25q1.272-.007 2.539-.038l-2.981-2.982z" transform="matrix(2.41083 0 0 2.41733 27.124 21.61)"/><path fill="url(#o)" d="m68.72 68.713 4.765 4.765c3.829-.437 6.034-.322 6.034.82l.481-.129c0-3.769-4.59-5.269-11.28-5.456" transform="matrix(2.41083 0 0 2.41733 27.124 21.61)"/><path fill="url(#p)" d="M19.68 37.823a2.343 2.343 0 0 0-2.344 2.343v37.089a2.344 2.344 0 0 0 2.329 2.345C50.363 79.37 80.037 69.209 80 74.169V32.394c.037-4.961-29.626 5.199-60.32 5.429" transform="matrix(2.41083 0 0 2.41733 27.124 21.61)"/><path fill="url(#q)" d="M80 74.169v-4.63a3.8 3.8 0 0 0-1.4-2.948 10.6 10.6 0 0 0-2.7-1.65l-2.693-1.16-2.207-1.1a260 260 0 0 0-4.816-2.454l3.033-.5 2.633-.392 2.921-.351a16.2 16.2 0 0 1 3.334-.021c1.02.135 1.891.45 1.891 1.321V46.359c0-.872-.871-1.185-1.891-1.319a16 16 0 0 0-3.334.021l-2.922.35-2.633.392-3.032.5 3.032-2.527 2.634-2.153a30 30 0 0 1 2.925-2.023A19.6 19.6 0 0 1 80 37.1v-4.71c.011-1.45-2.518-1.607-6.865-1.1l-.02.02c-1.119.777-1.921 1.5-2.768 2.19l-2.424 2-2.246 1.881-2.155 1.822-2.161 1.819-2.252 1.89-2.43 2.041-2.688 2.249V34.415L43.53 35.987v12.771a346 346 0 0 1-5.805-3.176l-2.539-1.431a320 320 0 0 1-5.005-2.897l-2.74-1.644-3.069-1.9q-2.339.09-4.692.111a2.343 2.343 0 0 0-2.344 2.343v2.366a271 271 0 0 0 5.711 3.691 262 262 0 0 0 8.221 5.014 164 164 0 0 1-5.707.352l-2.515.1a162 162 0 0 1-5.71.103v13.921l3.054-.031 2.655-.072 2.515-.1 2.654-.139 3.053-.215a289 289 0 0 1-4.85 3.536L24.3 70.191l-2.115 1.477-2.271 1.561-2.581 1.736v2.29a2.344 2.344 0 0 0 2.332 2.345q2.358-.018 4.7-.11l2.709-1.925a302 302 0 0 0 6.871-5.077l2.173-1.649 2.265-1.739 2.437-1.9 2.707-2.138v12.7c3.655-.487 7.16-1.029 10.457-1.571V63.514l3.055 1.53 2.727 1.356 2.528 1.249 2.453 1.209a287 287 0 0 1 5.241 2.638c.955.493 1.834 1.023 3.095 1.584 4.379-.519 6.928-.366 6.917 1.089" transform="matrix(2.41083 0 0 2.41733 27.124 21.61)"/><path fill="url(#r)" d="M80 49.143c0-.885-.934-1.225-2.095-1.344a19.3 19.3 0 0 0-3.774.107l-3.012.393-2.607.4-2.541.423-2.539.446-2.614.454-2.75.473-2.944.5-3.23.516V34.752l-6.267.944v16.758a292 292 0 0 1-6.827.847l-3.021.313-2.879.268-2.832.228-2.881.182-3.017.136-3.254.1-3.581.041v8.356l3.581-.042 3.253-.1 3.018-.136 2.882-.183 2.831-.228 2.879-.267 3.02-.313 3.245-.382 3.58-.464v16.663l6.268-.944V59.87l3.23-.516 2.946-.5 2.75-.472 2.613-.453 2.54-.447 2.542-.424 2.606-.4 3.012-.392a19.4 19.4 0 0 1 3.775-.108c1.161.12 2.094.458 2.094 1.344z" transform="matrix(2.41083 0 0 2.41733 27.124 21.61)"/><path fill="url(#s)" d="m72.428 33.374-2.656 2.159-2.455 2.036-2.358 1.982-2.359 1.992-2.463 2.069-2.658 2.231-2.94 2.466 2.323-.391 2.333-.4 2.952-2.477L64.8 42.8l2.456-2.063 2.358-1.956 2.357-1.926C77.343 32.809 80 32.3 80 32.433v-.039c.008-1.076-1.382-1.44-3.876-1.349h-.008a21 21 0 0 0-3.688 2.329" transform="matrix(2.41083 0 0 2.41733 27.124 21.61)"/><path fill="url(#t)" d="M23.007 44.637a328 328 0 0 0 2.466 1.547 253 253 0 0 0 5.124 3.1l3.012 1.75 2.344-.221 2.345-.241a438 438 0 0 1-5.635-3.197 297 297 0 0 1-4.845-2.866 257 257 0 0 1-4.843-3.006l-2.671-1.7-2.149-1.4a2.33 2.33 0 0 0-.819 1.766v.809l3.016 1.971z" transform="matrix(2.41083 0 0 2.41733 27.124 21.61)"/><path fill="url(#u)" d="M78.571 68.121a11 11 0 0 0-2.778-1.674l-2.726-1.174-2.167-1.092-2.139-1.1-2.309-1.164-2.591-1.281-2.331.407-2.333.4 2.64 1.307 2.395 1.182 2.221 1.1 2.12 1.068 2.083 1.072 2.154 1.115 2.817 1.2a11.5 11.5 0 0 1 2.9 1.712 3.86 3.86 0 0 1 1.463 2.884c0 .028.008.054.008.083V71.1a3.82 3.82 0 0 0-1.427-2.979" transform="matrix(2.41083 0 0 2.41733 27.124 21.61)"/><path fill="url(#v)" d="M27.657 75.588a287 287 0 0 0 4.846-3.566 578 578 0 0 0 4.846-3.681 516 516 0 0 0 5.626-4.398l-2.34.288-2.339.265-2.966 2.272-2.667 2.017-2.471 1.841-2.374 1.733-2.376 1.7-2.471 1.736a331 331 0 0 1-4.771 3.263 2.32 2.32 0 0 0 1.464.539q1.187-.009 2.37-.039a356 356 0 0 0 5.623-3.97" transform="matrix(2.41083 0 0 2.41733 27.124 21.61)"/></svg>