<svg xmlns="http://www.w3.org/2000/svg" xml:space="preserve" id="Best_Buy" x="0" y="0" version="1.1" viewBox="0 0 472 350"><style>.st0{fill:#0046be}</style><path id="Card" d="M20 43h432c11 0 20 9 20 20v224c0 11-9 20-20 20H20c-11 0-20-9-20-20V63c0-11 9-20 20-20" class="st0"/><circle id="Round" cx="236" cy="175" r="175" class="st0"/><path id="Tag" d="M342.8 220.7 328.5 235v19.3l14.3 14.3h60.5v-47.9z" style="fill:#ffed31"/><path id="Best_Buy-2" d="M106 96.2V172h39.7c15.6 0 30.1-5.5 30.1-21.6 0-10.9-7.8-15.9-16.5-18.5 5.3-2.1 11.2-6.5 11.2-15.8 0-11.9-11.8-19.9-27.7-19.9zm24.3 17.6h8.9c3.6 0 6.4 2.8 6.4 5.7 0 2.7-2.9 5.6-6.4 5.6h-8.9zm0 27.1h11.8c4.1 0 7.6 3.1 7.6 6.7 0 3.8-3.2 6.9-8.3 6.9h-11.1zm-4.6 39.3V256h39.7c15.6 0 30.1-5.5 30.1-21.6 0-10.9-7.8-15.9-16.5-18.5 5.3-2.1 11.2-6.5 11.2-15.8 0-11.9-11.8-19.9-27.7-19.9zm24.3 17.7h8.9c3.6 0 6.4 2.8 6.4 5.7 0 2.7-2.9 5.6-6.4 5.6H150zm0 27h11.8c4.1 0 7.6 3.1 7.6 6.7 0 3.8-3.2 6.9-8.3 6.9H150zm27.7-53V96.2h61.2v18.3H202v9.9h30v17.2h-30v12.2h36.9V172zm94.3 2.2c17.2 0 31-9.8 31-25.7 0-25.7-33.4-21.7-33.4-29.7 0-3.1 3.2-4.7 6.6-4.7 3.6.1 7.1 1.4 9.9 3.8l14.4-13.7c-5.7-5.5-14.8-10.1-27.1-10.1-18.4 0-30.4 10.9-30.4 24 0 26 32.9 22.2 32.9 30.4 0 2.9-2.8 5.7-7.7 5.7-5.7 0-10.2-3.4-13.6-6.3L240 161.6c5.8 5.7 15.2 12.5 32 12.5m49.7-2.2v-57.5h-20V96.2H366v18.2h-20v57.5zm-125.4 8.3h24.2v45.4c0 4.6 4.6 8.9 9.4 8.9 5-.1 9-4.1 9.1-9.1v-45.2h24.2V225c0 17.8-14.8 32-33.9 32-18.1.1-32.9-14.5-33-32.5v-44.3m96.7 75.7v-27.1l-28.5-48.7H289l16.1 26.1 16.2-26.1H346l-28.6 49v26.8z" style="fill:#fff"/><path id="Dot" d="M342.6 244.6c0 1.8-1.4 3.2-3.2 3.2s-3.2-1.4-3.2-3.2 1.4-3.2 3.2-3.2 3.2 1.4 3.2 3.2" class="st0"/></svg>