<svg xmlns="http://www.w3.org/2000/svg" xml:space="preserve" id="Home_Depot" x="0" y="0" version="1.1" viewBox="0 0 472 350"><style>.st0{fill:#f96302}.st1{fill:#fff}</style><path id="Card" d="M20 43h432c11 0 20 9 20 20v224c0 11-9 20-20 20H20c-11 0-20-9-20-20V63c0-11 9-20 20-20" class="st0"/><circle id="Round" cx="236" cy="175" r="175" class="st0"/><path id="Home_Depot-2" d="M187 176.3c-2.2 4.7-.3 7.2 1.6 9l38.1 38.1c1.8 1.8 4.3 3.7 9 1.5l4.3 4.3c-16.9 14.2-36.8 8.8-51.4-5.8s-19.9-34.5-5.8-51.4zm52 45.4c2.2-4.7.3-7.2-1.6-9l-38.1-38.1c-1.8-1.8-4.3-3.7-9-1.5l-4.3-4.3c16.9-14.2 36.8-8.9 51.4 5.8s19.9 34.5 5.8 51.4zm81-79.3c-1-1-2.5-1.1-3.6-.4-3.4 1.8-3.7 1.2-6.5-1.5L271.4 102c-2.7-2.7-3.2-3.1-1.5-6.5.7-1.1.6-2.6-.4-3.6-2.1-2.1-4.7.1-5 .4l-19.4 19.4 15.8 29.3-.1.1-30.4-14.7-18.6 18.6c-.9.9-3.1 3.1-.8 5.4 1.8 1.8 3.9-.1 4.8-.9 1.3-1.2 2.5-.6 4.3-.1 1.6.4 3.1 1.1 4.5 1.8l60.8 30.2 2.1-2.1-29.8-55 34.1 34.1c2.7 2.7 3.2 3.1 1.5 6.5-.7 1.1-.6 2.6.4 3.6 2.1 2.1 4.7-.1 5-.4l20.8-20.8c.4-.2 2.6-2.8.5-4.9m-57.4 38.8L250 168.6l-16.2-8-.1.1 24.8 24.8c8 10.4.5 12.2 3.6 15.3 2.3 2.3 5.1-.9 5.9-1.7l8.4-8.4c.8-.8 4-3.7 1.7-5.9-3.4-3.2-5.2 4.4-15.5-3.6m-40 76.9c6.9-7.1 17.7-8.1 28.8 2.1 10.2 9.2 8.9 22 2.1 28.8l-2.4-2.4c2.2-2.9 0-5.3-1.6-6.9l-17.6-17.6c-1.6-1.6-4-3.8-6.9-1.6zm15.5-15.4 10.9-10.9 30.9 30.9-10.9 10.9c-.2.2-1.6 1.5-2.8.3-.5-.5-.6-1.4-.2-2 1-1.9.7-2.1-.8-3.6l-21.7-21.7c-1.5-1.5-1.7-1.8-3.6-.8-.6.4-1.5.3-2-.2-1.3-1.3 0-2.7.2-2.9m12.7-12.7 9.2-9.2 8.4 8.4c.2.2 1 1-.3 2.3-.7.7-1.3.5-2.1.1-4.4-2.3-8.6-2.2-12.8.9zm28.5 28.5c2.9-3.8 3.3-8.9 1-13-.3-.9-.7-1.8 0-2.6.6-.7 1.7-.7 2.3-.1l.3.3 8.3 8.3-9.5 9.5zm-14.7-14.8c1.3-2.2.5-4.6-.7-6.5-.5-.9-.9-1.8 0-2.7 1.3-1.3 2.6.4 2.9.8l8.9 8.9c.3.3 2 1.6.7 2.9-.9.9-1.8.5-2.7 0-1.9-1.2-4.3-2-6.5-.7zm11.4-38.9c3.9-3.9 6.7-5.8 9.7-6.7 4.9-1.2 8.8.3 12.3 3.7 3.5 3.5 5 7.4 3.8 12.3-.8 3.1-2.7 5.8-6.7 9.7l-2.4-2.4c2-2.9.4-4.7-1.6-6.8l-6.2-6.2c-1.9-1.9-3.9-3.2-6.5-1.3zm-7.4 16.6c-1.5-1.5-1.7-1.8-3.6-.8-.6.4-1.5.3-2-.2-1.2-1.2.1-2.6.2-2.8l10.9-10.9 26.3 26.3c1.5 1.5 1.7 1.8 3.6.8.6-.4 1.5-.3 2 .2 1.2 1.2-.1 2.6-.3 2.8L294 248.5c-.6.7-1.7.7-2.4.1l-.1-.1c-.6-.5-.7-1.3-.3-1.9 1-1.9.5-1.9-1-3.4zm-126.8-76.1 9.5-9.5 24.7 24.7c1.4 1.4 1.6 1.7 3.4.8.6-.4 1.4-.3 1.9.2 1.1 1.1-.1 2.5-.2 2.6l-11 11c-.2.2-1.5 1.4-2.6.2-.5-.5-.6-1.3-.2-1.9.9-1.8.7-2-.8-3.4zm25.9-7.8c.6.7.6 1.7-.1 2.3l-.1.1c-1.1 1.1-2.3.3-3.3-.5-2.4-1.7-5.5-3.7-9-3.1l-2.3-2.3 5.6-5.6zm-33.2 15.1 5.6-5.6 2.3 2.3c-.6 3.5 1.4 6.6 3.1 9 .7 1 1.6 2.2.5 3.3-.6.7-1.6.8-2.3.2 0 0-.1 0-.1-.1zm61.8-12.3c1.4 1.4 1.6 1.7 3.4.8.6-.4 1.4-.3 1.9.2 1.1 1.1-.1 2.5-.2 2.6l-11 11c-.2.2-1.5 1.4-2.6.2-.5-.5-.6-1.3-.2-1.9.9-1.8.7-2-.8-3.4l-20.4-20.4c-1.4-1.4-1.6-1.7-3.4-.8-.6.4-1.4.3-1.9-.2-1.1-1.1.1-2.5.2-2.6l11-11c.2-.2 1.5-1.4 2.6-.2.5.5.6 1.3.2 1.9-.9 1.8-.7 2 .8 3.4zm-4.1-14.5-3.4 3.4-2.3-2.3 3.4-3.4-8.8-8.8c-1.4-1.4-1.6-1.7-3.4-.8-.6.4-1.4.3-1.9-.2-1.1-1.1.1-2.5.2-2.6l11-11c.2-.2 1.5-1.4 2.6-.2.5.5.6 1.3.2 1.9-.9 1.8-.7 2 .8 3.4l20.4 20.4c1.4 1.4 1.6 1.7 3.4.8.6-.4 1.4-.3 1.9.2 1.1 1.1-.1 2.5-.2 2.6l-11 11c-.2.2-1.5 1.4-2.6.2-.5-.5-.6-1.3-.2-1.9.9-1.8.7-2-.8-3.4zm-1.6-29.3 10.3-10.3 29.1 29.1-10.3 10.3c-.2.2-1.5 1.4-2.6.2-.5-.5-.6-1.3-.2-1.9.9-1.8.7-2-.8-3.4l-20.4-20.4c-1.4-1.4-1.6-1.7-3.4-.8-.6.4-1.4.3-1.9-.2-1.1-1.1.1-2.5.2-2.6m12-12 8.7-8.7 7.9 7.9c.2.2.9 1-.3 2.1-.7.7-1.2.5-2 .1-4.2-2.1-8-2.1-12 .8zm26.8 26.8c2.7-3.5 3.1-8.3 1-12.2-.3-.9-.7-1.7 0-2.4.6-.6 1.6-.7 2.2-.1l.3.3 7.8 7.8-8.9 8.9zm-13.8-13.8c1.2-2.1.4-4.3-.7-6.1-.5-.9-.9-1.7 0-2.5 1.2-1.2 2.4.4 2.7.7L226 98c.3.3 1.9 1.5.7 2.7-.8.8-1.7.4-2.5 0-1.8-1.1-4.1-1.9-6.1-.7zm-2.8 152c-1-1-2.5-1.1-3.6-.4-3.4 1.8-3.8 1.3-6.5-1.5l-38.5-38.5c-2.7-2.7-3.2-3.1-1.5-6.5.7-1.1.6-2.6-.4-3.6-2.1-2.1-4.7.1-5 .4l-20.8 20.8c-.3.3-2.6 2.9-.4 5 1 1 2.5 1.1 3.6.4 3.4-1.8 3.7-1.2 6.5 1.5l16.7 16.7-6.4 6.5 4.2 4.3 6.5-6.5 17.6 17.6c2.7 2.7 3.2 3.1 1.5 6.5-.7 1.1-.6 2.6.4 3.6 2.1 2.1 4.7-.1 5-.4l20.8-20.8c.2-.4 2.5-2.9.3-5.1m-27.7 27.8c-1-1-2.5-1.1-3.6-.4-3.4 1.8-3.7 1.2-6.5-1.5l-38.5-38.5c-2.7-2.7-3.2-3.1-1.5-6.5.7-1.1.6-2.6-.4-3.6-2.1-2.1-4.7.2-5 .4L112 245v8.5h.1c3.4-1.8 3.7-1.2 6.5 1.5l38.5 38.5c2.7 2.7 3.2 3.1 1.5 6.5 0 .1 0 .1-.1.2h8.5l17.7-17.7c.3-.5 2.5-3.1.4-5.2m53.1 21.8c-.1.3-.3.6-.4.9h4.8l9.1-9.1-30.9-30.9-10.6 10.6c-.8.8-1.7 2-.7 3.1 1 1 1.9.4 3.1-.2 1-.5 2.1.7 2.7 1.3l21.7 21.7c.6.5 1.8 1.6 1.2 2.6m83.3-135-2.4-2.4-5.9 5.9 9.6 9.6c.7.7 1.8.6 2.5-.1l.1-.1c1.2-1.2.3-2.4-.5-3.5-1.9-2.4-4-5.7-3.4-9.4m23.4-10.5c1 .8 2.3 1.7 3.5.5.8-.6.9-1.7.2-2.5 0 0 0-.1-.1-.1l-9.6-9.6-6 6 2.4 2.4c3.7-.7 7 1.5 9.6 3.3m16.1 23.2c-1.9 1-2.1.7-3.6-.8l-26.3-26.3-10.1 10.1 26.3 26.3c1.5 1.5 1.8 1.7.8 3.6-.4.6-.3 1.5.2 2 1.2 1.2 2.6-.1 2.8-.2l9.9-9.9zm-42.5-107c-1.5 1.5-.8 3.2.1 4.8 2.1 3.5 3.6 7.7 1.3 11.6l4.6 4.6c3.9-2.3 8.1-.8 11.6 1.3 1.6.9 3.2 1.6 4.8.1 2.3-2.3-.7-4.6-1.3-5.1l-15.9-15.9c-.6-.7-2.9-3.7-5.2-1.4m-45.8 14.5c-.3.3-2.6 2.9-.4 5 1 1 2.5 1.1 3.6.4 3.4-1.8 3.7-1.2 6.5 1.5l38.5 38.5c2.7 2.7 3.2 3.1 1.5 6.5-.7 1.1-.6 2.6.4 3.6 2.1 2.1 4.7-.1 5-.4l19.4-19.4-55-55zm88.3 9.2-8.5-8.5c-.3-.3-2.3-2.7-4.6-.4-1.3 1.3-.6 2.9 0 4.6 3.9 7.9 3.4 16.4-1.8 23.1l4.3 4.3L361 106zm-34.3-33.3-9.2-9.2H306l-10.6 10.6 4.3 4.3c7.5-5.4 14.8-5.6 22.7-1.5 1.5.7 2.6 1.1 3.8-.2 2.2-2.2.8-3.7.5-4" class="st1"/><path id="O" d="M302.2 182.2c-1.2 2.6-.2 4 .9 5.1l21.4 21.4c1 1 2.4 2.1 5.1.9l2.4 2.4c-9.5 8-20.7 5-28.9-3.2s-11.2-19.4-3.2-28.9zm29.2 25.5c1.2-2.6.2-4-.9-5.1l-21.4-21.4c-1-1-2.4-2.1-5.1-.9l-2.4-2.4c9.5-8 20.7-5 28.9 3.2s11.2 19.4 3.2 28.9z" class="st1"/></svg>