<svg xmlns="http://www.w3.org/2000/svg" xml:space="preserve" id="Lowes" x="0" y="0" version="1.1" viewBox="0 0 472 350"><style>.st0{fill:#004990}</style><path id="Card" d="M20 43h432c11 0 20 9 20 20v224c0 11-9 20-20 20H20c-11 0-20-9-20-20V63c0-11 9-20 20-20" class="st0"/><circle id="Round" cx="236" cy="175" r="175" class="st0"/><path id="House" d="m236 93-92.5 39.8H85.9V149H57v109h358V149h-28.9v-16.2h-57.7z" style="fill:#fff"/><path id="Lowes-2" d="M321.4 161.8v17.6h11.4l2.4-17.6zm61.4 15.2c.7 0 1.4-.1 1.4-1 0-.7-.7-.8-1.3-.8h-1.2v1.8zm-1 3.3h-.9v-5.8h2.2c1.3 0 2 .5 2 1.6.1.8-.6 1.5-1.4 1.6h-.1l1.6 2.5h-1l-1.5-2.5h-1zm1 1.2c2.3.1 4.2-1.8 4.3-4.1s-1.8-4.2-4.1-4.3-4.2 1.8-4.3 4.1v.1c-.1 2.2 1.6 4.1 3.9 4.2zm-5-4.1c0-2.8 2.2-5.1 5-5.1s5.1 2.2 5.1 5-2.2 5.1-5 5.1c-2.7 0-5-2.1-5.1-4.9zm-263.7 44.4v-60.1H97.7v74.4h41.7v-14.3zm164.7 14.3h38.9v-14.3h-22.5v-9.3h22.5v-13.8h-22.5v-9.4h22.5v-14.4h-38.9zm-102-46.8h-14.4v32.4h14.4zm16.4 39c0 4.3-3.5 7.8-7.8 7.8h-31.6c-4.3 0-7.8-3.5-7.8-7.8v-45.6c0-4.3 3.5-7.8 7.8-7.8h31.6c4.3 0 7.8 3.5 7.8 7.8zm59.9-53.4v46.9h-9.9v-46.9h-14.4v46.9h-9.9v-46.9h-16.4v53.4c0 4.3 3.5 7.8 7.8 7.8h19.4c3.3 0 6.3-2.3 6.3-5.5 0 3.3 3 5.5 6.3 5.5h19.4c4.3 0 7.8-3.5 7.8-7.8v-53.4zM375.2 213l-.1-.2c-.1-.1-.1-.3-.2-.4l-.1-.2c-2.6-5.2-8.4-9.6-17.7-13.3l-.3-.1c-1.9-.7-7.5-2.9-8.1-6.5-.1-1.3.4-2.7 1.4-3.6 1.5-1.3 3.4-2 5.4-1.8 3.8 0 8.1 1.6 10.4 2.5 4.7 2 8.9 3.7 8.9 3.8l.4.2V180l-.1-.1c-.1-.1-9-5.7-18.1-7-1-.1-2.1-.1-3.1-.1-8.3 0-14.6 3-18.7 9-3.4 4.9-3.8 12.7-.9 18.5 3.8 6.6 9.8 9.3 15.6 12q3.75 1.65 7.2 3.6c2.6 1.6 4 4 3.4 6.2s-3.1 3.7-6.4 3.7c-.4 0-.9 0-1.3-.1h-.2c-6.2-.9-18.8-5.6-18.9-5.6l-.4-.2v14.6l.2.1c.1 0 12.3 4.1 23.1 4.1 5.9 0 10.4-1.2 13.2-3.5 4.2-3.7 6.7-8.9 7-14.4.2-2.8-.4-5.4-1.6-7.8" class="st0"/></svg>