<svg xmlns="http://www.w3.org/2000/svg" xml:space="preserve" id="Starbucks" x="0" y="0" version="1.1" viewBox="0 0 472 350"><style>.st0{fill:#05714b}</style><path id="Card" d="M20 43h432c11 0 20 9 20 20v224c0 11-9 20-20 20H20c-11 0-20-9-20-20V63c0-11 9-20 20-20" class="st0"/><circle id="Round" cx="236.7" cy="175.2" r="175" style="fill:#fff"/><path id="Starbucks-2" d="M253.5 75.9c-5.8-1-11.7-1.5-17.6-1.5s-11.8.5-17.6 1.5c-.9.1-1.2-.7-.6-1.2.7-.4 18.2-13.8 18.2-13.8s17.6 13.3 18.1 13.8c.3.1.5.5.3.8s-.5.6-.8.4m-30.3 86.9c-.5.2-1 .6-1.2 1.2 3.7 2.8 6.2 9.3 13.8 9.3s10.2-6.4 13.9-9.3c-.2-.5-.6-1-1.2-1.2-4.2.9-8.5 1.2-12.7 1.2q-6.3.15-12.6-1.2m12.7-10.9c-2.1 0-2.6-.8-4-.8s-4.1 1.1-4.7 2.1c.1.5.3 1 .6 1.4 3.1.5 4.5 2.2 8.1 2.2s5-1.7 8.1-2.2c.4-.4.6-.9.6-1.4-.6-1-3.3-2.1-4.6-2.1-1.5 0-2 .8-4.1.8m175.4 33.3c-.2 4.2-.6 8.4-1.1 12.5-19.8 3.3-27-14.4-47.4-13.5 1.2 4.3 2.2 8.8 2.9 13.2 16.7-.1 23.6 15.6 42.4 13.3-1 4.8-2.1 9.5-3.5 14.2-14.7 1.4-19.9-13.2-37.2-12.8.1 2.4.2 4.8.2 7.3 0 1.4 0 2.8-.1 4.1 14.5-.1 19.2 13.3 33.2 12.6q-2.55 7.05-5.7 13.8c-10-.5-13.4-13.3-28.6-12.2-.5 3.2-1 6.5-1.7 9.7 13.1-.9 16 11.2 25.5 12.2-2.4 4.4-5 8.6-7.7 12.7-5.5-3-10.4-12-21-12.5 1-3.3 2-6.8 2.8-10.2-9.4 0-20.1-3.7-29.2-11.9 2.9-16.6-22.9-33.7-22.9-45.8 0-13.2 6.7-20.5 6.7-38.5 0-13.1-6.4-27.6-16.1-37.5q-2.7-2.85-6-4.8c8.9 11 15.7 24.2 15.7 39.3 0 16.7-7.7 25.7-7.7 41.3 0 15.4 22.7 28.9 22.7 44.9 0 6.3-2 12.5-8.6 24.6 10.2 10.2 23.5 15.7 32.1 15.7 2.8 0 4.2-.9 5.3-3 .8-1.9 1.7-3.8 2.4-5.7 9.2.3 13.4 8.7 18.5 12-2.8 3.7-5.7 7.3-8.8 10.9-3.4-3.8-8-10.1-14.7-11.9-1.2 2.4-2.4 4.6-3.8 6.9 5.8 1.5 9.8 7.4 12.8 11.2-3.3 3.4-6.7 6.7-10.3 9.8-2.2-3.5-5.7-7.9-9.6-10.2-1.4 1.9-2.9 3.9-4.4 5.7 3.3 2.2 6.2 6.2 8.1 9.5-4.1 3.3-8.4 6.4-12.8 9.4-2.2-17.8-26.5-30-19.9-50.7-2.1 3.6-4.7 8.2-4.7 13.6 0 14.9 15.9 26.9 17.2 41.8-3.3 1.9-6.6 3.8-10.1 5.5-.6-16.2-17.4-34.3-17.4-47.7 0-14.9 19.6-30 19.6-47.8 0-17.6-22.7-29.9-22.7-45.5s9.6-24.5 9.6-44.4c-.2-14.8-6.6-28.9-17.6-38.9-1.8-1.6-3.8-3-6-4.1 10 12 15.8 23.1 15.8 39.8 0 18.7-11 29.1-11 47.4s22.2 28.5 22.2 45.6-20.6 31.5-20.6 49.1c0 15.9 18.2 31.9 18.5 50.9-3.9 1.7-8 3.3-12.2 4.8 2.4-19.1-18.1-39-18.1-54.5 0-17 21.4-31.7 21.4-50.2 0-18.3-21.7-26.9-21.7-45.9 0-18.8 13.4-29.3 13.4-50.2-.1-15.6-7.4-30.4-19.7-40-.3-.2-.5-.4-.8-.6-1.1-.8-2 .2-1.2 1.2 8.2 10.3 12.7 20.8 12.7 36.4 0 19.1-15.3 34.7-15.3 53.2 0 21.7 20.6 28 20.6 46s-22.2 32.3-22.2 51.3c0 17.6 20.9 37.3 17.3 57.6-4.2 1-8.4 2-12.7 2.8 3.9-25.3-16.5-43.6-16.5-60.1 0-17.9 22.9-34.1 22.9-51.6 0-16.5-16.4-21.8-18.6-38.9-.2-2.2-2.1-3.8-4.3-3.7-.1 0-.3 0-.4.1-3.3.6-7.6 2.8-14.3 2.8s-10.9-2.2-14.3-2.8c-2.2-.4-4.3 1.1-4.7 3.3v.3c-2.1 16.9-18.5 22.4-18.5 38.9 0 17.5 23 33.7 23 51.6 0 16.5-20.6 34.8-16.6 60.1-4.3-.8-8.6-1.7-12.7-2.8-3.6-20.3 17.3-40 17.3-57.6 0-18.9-22.2-33.4-22.2-51.3 0-17.8 20.6-24.2 20.6-46 0-18.5-15.4-34.1-15.4-53.2 0-15.4 4.4-26 12.7-36.4.8-1-.1-1.9-1.2-1.2-.3.2-.5.4-.8.6-12.4 9.5-19.6 24.3-19.7 40 0 20.7 13.4 31.3 13.4 50.2s-21.7 27.5-21.7 45.9 21.4 33.1 21.4 50.2c0 15.6-20.5 35.5-18.1 54.5-4.2-1.5-8.2-3-12.2-4.8.3-18.9 18.5-35 18.5-50.9 0-17.5-20.6-31.9-20.6-49.1 0-17 22.3-27.3 22.3-45.6s-11-28.7-11-47.4c0-16.6 5.8-27.7 15.9-39.8-2.2 1.1-4.2 2.5-6 4.1-11 9.9-17.4 24-17.6 38.9 0 19.8 9.6 28.8 9.6 44.4s-22.7 27.8-22.7 45.5 19.6 32.7 19.6 47.8c0 13.4-16.9 31.3-17.4 47.7-3.5-1.7-6.8-3.6-10.1-5.5 1.2-14.9 17.2-26.8 17.2-41.8 0-5.5-2.6-10-4.7-13.6 6.6 20.6-17.7 32.9-19.9 50.7-4.4-3-8.7-6.1-12.8-9.4 1.9-3.3 4.8-7.3 8.2-9.5-1.6-1.9-3-3.8-4.5-5.7-3.9 2.4-7.4 6.8-9.6 10.2-3.5-3.1-7-6.4-10.3-9.8 3-3.8 7.1-9.7 12.8-11.2-1.3-2.3-2.6-4.6-3.8-6.9-6.7 1.8-11.3 8.1-14.7 11.9-3-3.5-6-7.1-8.8-10.9 5.1-3.3 9.3-11.7 18.5-12 .8 1.9 1.5 3.8 2.4 5.7 1 2.1 2.4 3 5.3 3 8.5 0 21.7-5.5 32-15.7-6.6-12-8.6-18.2-8.6-24.6 0-15.9 22.7-29.4 22.7-44.9s-7.8-24.4-7.8-41.3c0-15.1 6.9-28.2 15.7-39.3q-3.3 2.1-6 4.8c-9.6 9.7-16.1 24.2-16.1 37.5 0 17.8 6.6 25.2 6.6 38.5 0 12.2-25.8 29.1-22.9 45.8-9 8.2-19.7 11.9-29.2 11.9.8 3.4 1.8 6.8 2.8 10.2-10.5.6-15.4 9.5-21 12.5-2.8-4.1-5.3-8.4-7.8-12.7 9.4-1 12.2-13.1 25.5-12.2-.7-3.2-1.2-6.4-1.7-9.7-15.1-1-18.5 11.8-28.6 12.2q-3.15-6.75-5.7-13.8c13.8.6 18.5-12.8 33.2-12.6-.1-1.3-.1-2.7-.1-4.1 0-2.5.1-4.9.2-7.3-17-.4-22.3 14.2-37.2 12.8-1.3-4.6-2.5-9.4-3.5-14.2 18.6 2.4 25.5-13.3 42.3-13.3q1.05-6.75 3-13.2c-20.6-.9-27.8 16.8-47.7 13.5-.6-4.1-.9-8.2-1.1-12.5 23.1 2.6 31.7-16.3 52.8-14 2-5 4.3-9.8 6.9-14.5-26.4-4.6-35.4 17.4-59.9 14C62.8 75.9 140.4 0 235.9 0s173 75.9 175.7 170.6c-24.6 3.4-33.6-18.6-59.9-14 2.6 4.7 4.9 9.5 6.9 14.5 20.9-2.3 29.5 16.7 52.7 14.1m-251-73.5c-12.9-5.3-28.6-4.1-42 4.5-2.1-12.4-8.8-23.5-18.4-30.2-.7-.6-1.7-.5-2.2.2-.3.4-.4.9-.3 1.3 2 26.3-13.3 49.1-32.2 69.2 19.4 5.8 36.1-19.2 61.3-10.4 9-13.7 20.4-25.4 33.8-34.6m75.6-16.1c-16.3 0-29.9 9.1-33.6 21-.3.9.1 1.5 1.2 1 3.1-1.3 6.5-2 9.8-1.9 6.6 0 12.5 2.4 15.9 6.6 1.5 5.1 1.7 12.3-.1 16.5-2.7-.6-3.7-2.8-6.4-2.8-2.6 0-4.7 1.9-9.2 1.9-4.6 0-5.1-2.1-8-2.1-3.5 0-4.2 3.6-4.2 7.6 0 18.1 16.6 43.2 34.5 43.2s34.5-25 34.5-43.2c0-4-.8-7.5-4.4-8-2.2 1.8-4.9 2.7-7.7 2.5-4.6 0-5.8-1.9-8.4-1.9-3.2 0-2.9 6.8-6.7 7.2-2.6-6.1-2.7-14-.6-20.9 3.5-4.2 9.3-6.6 15.9-6.6 3.4-.1 6.8.6 9.9 1.9 1 .5 1.4-.1 1.1-1-3.5-11.7-17.3-21-33.5-21m25.9 26.2c-3.9 0-8.4 1.2-11.3 4.4-.3 1-.3 2 .1 3 7.1-2.4 13.3-2.5 16.3.9 1.3-1 2.1-2.6 2.1-4.3 0-2.4-2.3-4-7.2-4m-57.1 8.3c3.4-3.5 10.6-3.3 18.1-.6.3-3.7-6.4-7.7-13-7.7-4.8 0-7.2 1.7-7.2 4 0 1.7.8 3.2 2.1 4.3m112.5-61.5c-12 .7-23.7 5.1-33.1 12.7 3.7-10.4 8.7-20.3 14.9-29.6-16.3 1.7-30.1 7.7-40.2 17.9L251 49.1l17.3-15.3-23.3-1.7-9.2-21.6-9.3 21.6-23.2 1.6L220.8 49l-7.9 20.4c-10-10.2-23.7-16.2-40.1-17.9 6.2 9.2 11.1 19.1 14.8 29.6-9.4-7.6-21-12-33.1-12.7 7.8 9.7 14.4 20.4 19.6 31.8.4 1.1 1.6 1.7 2.6 1.3.2-.1.3-.1.5-.2 37-18.2 80.2-18.2 117.2 0 1 .6 2.2.4 2.9-.6.1-.1.2-.3.2-.5 5.4-11.2 11.9-21.8 19.7-31.6m28 77.4c25.2-8.7 41.9 16.2 61.3 10.4-18.8-20-34.4-42.9-32.2-69.2.1-.9-.5-1.7-1.3-1.9-.5-.1-.9 0-1.3.3-9.6 6.6-16.3 17.7-18.3 30.2-13.4-8.6-29-9.8-42-4.5 13.3 9.7 24.8 21.3 33.8 34.7" class="st0"/></svg>