<svg xmlns="http://www.w3.org/2000/svg" xml:space="preserve" viewBox="0 0 472 350"><path d="M20 43h432c11 0 20 9 20 20v224c0 11-9 20-20 20H20c-11 0-20-9-20-20V63c0-11 9-20 20-20" style="fill:#c00"/><path d="M235.9 291.7c-64.5 0-116.7-52.3-116.7-116.7 0-64.5 52.3-116.7 116.7-116.7S352.6 110.5 352.6 175s-52.2 116.7-116.7 116.7m0-291.7C139.3 0 61 78.4 61 175s78.3 175 174.9 175S411 271.7 411 175C411 78.4 332.5 0 235.9 0m0 115.1c-33.1 0-59.9 26.9-59.9 60s26.9 59.9 60 59.9 59.9-26.9 59.9-60-26.7-59.9-59.8-60c0 .1-.1.1-.2.1" style="fill:#fff"/></svg>