<svg xmlns="http://www.w3.org/2000/svg" xml:space="preserve" id="Walmart" x="0" y="0" version="1.1" viewBox="0 0 472 350"><style>.st0{fill:#007dc6}</style><path id="Card" d="M20 43h432c11 0 20 9 20 20v224c0 11-9 20-20 20H20c-11 0-20-9-20-20V63c0-11 9-20 20-20" class="st0"/><circle id="Round" cx="236" cy="175" r="175" class="st0"/><path id="Icon" d="M382.3 130c-3.4 0-6.1 1.9-6.1 4.2l2.1 23.5c.2 1.4 2 2.5 4.1 2.5s3.8-1.1 4.1-2.5l2.1-23.5c-.1-2.3-2.8-4.2-6.3-4.2m-33.8 18.9c-1.8 0-3.8 1.4-5.1 3.6-1.7 3-1.4 6.3.6 7.4l21.4 10c1.3.5 3.2-.5 4.2-2.3 1.1-1.8 1-3.9-.1-4.8l-19.3-13.6c-.6-.2-1.1-.3-1.7-.3m67.7 0c-.6 0-1.2.1-1.7.4l-19.3 13.6c-1.1.9-1.2 3-.1 4.8s2.9 2.8 4.2 2.3l21.4-10c2-1.2 2.3-4.5.6-7.4-1.3-2.3-3.3-3.7-5.1-3.7m-50 31.1c-.3 0-.5 0-.8.1l-21.4 10c-2 1.2-2.3 4.5-.6 7.5s4.7 4.4 6.7 3.2l19.3-13.6c1.1-.9 1.2-3 .1-4.8-.5-1.4-1.8-2.3-3.3-2.4m32.3 0c-1.5.2-2.8 1.1-3.4 2.4-1.1 1.8-1 3.9.1 4.8l19.3 13.6c2 1.2 5-.2 6.7-3.2s1.4-6.3-.6-7.5l-21.4-10c-.2-.1-.4-.2-.7-.1m-16.2 9.7c-2.1 0-3.8 1.1-4.1 2.5l-2.1 23.5c0 2.3 2.7 4.2 6.1 4.2s6.2-1.9 6.2-4.2l-2.1-23.5c-.1-1.4-1.8-2.5-4-2.5" style="fill:#ffc220"/><path id="Walmart-2" d="M50 148.9s9.3 38 10.7 44.2c1.7 7.2 4.8 9.8 13.8 8.1l5.8-23.6c1.5-5.9 2.4-10 3.4-16h.2c.7 5.4 1.6 10.7 2.8 16 0 0 2.4 10.7 3.6 16.3s4.6 9.2 13.4 7.2l13.8-52.2h-11.1l-4.7 22.6c-1.3 6.6-2.4 11.7-3.3 17.7h-.2c-.8-6-1.8-10.9-3.1-17.3l-4.9-23H78.5l-5.2 22.4c-1.5 6.8-2.9 12.3-3.8 18.1h-.2c-.9-5.5-2.1-12.4-3.4-19 0 0-3.1-16-4.2-21.6zm106.1 0v52.2h10.6v-52.2zm149.3 0v38.5c0 5.3 1 9 3.1 11.3 2.3 2.2 5.4 3.4 8.6 3.3 2.6 0 5.2-.4 7.7-1.1l-.1-8.3c-1.3.3-2.7.5-4 .5-3.6 0-4.8-2.3-4.8-7.1v-14.7h9.2v-10h-9.2v-12.4zm-173 12.1c-5.1-.1-10.1 1.1-14.7 3.5l2.1 7.1c3.2-1.9 6.9-3 10.7-3 6.5 0 7.6 3.7 7.6 6.1v.6c-14.2 0-23.1 4.9-23.1 14.9 0 6.1 4.6 11.8 12.5 11.8 4.4.2 8.6-1.7 11.4-5.1h.2s1.6 6.8 10.5 4.2c-.5-3.1-.7-6.3-.6-9.5v-14c0-8.8-3.8-16.6-16.6-16.6m63.4 0c-6.6 0-9.6 3.4-11.4 6.2h-.2v-5.3h-10.1v39.2h10.7v-23c0-1.1.1-2.2.5-3.2.9-2.3 3-5 6.5-5 4.3 0 6.3 3.6 6.3 8.9v22.4h10.6v-23.3c0-1.1.1-2.1.4-3.2.9-2.8 3.4-4.8 6.4-4.8 4.4 0 6.4 3.6 6.4 9.8v21.5h10.6V178c0-12.2-6.2-17-13.2-17-2.7 0-5.4.7-7.7 2.1-2 1.3-3.7 2.9-5 4.9h-.2c-1.5-4.4-5.9-7.2-10.6-7m58.5 0c-5.1-.1-10.1 1.1-14.7 3.5l2.1 7.1c3.2-1.9 6.9-3 10.7-3 6.5 0 7.6 3.7 7.6 6.1v.6c-14.2 0-23.1 4.9-23.1 14.9 0 6.1 4.6 11.8 12.5 11.8 4.4.2 8.6-1.7 11.4-5.1h.2s1.6 6.8 10.5 4.2c-.5-3.1-.7-6.3-.6-9.5v-14c0-8.8-3.8-16.6-16.6-16.6m44.3 0c-4.1 0-8.7 2.6-10.7 8.3h-.3v-7.4H278v39.2h10.9V181c0-1 .1-1.9.2-2.9.8-4.2 4-6.9 8.6-6.9 1.1 0 2.1.1 3.2.3v-10.3c-.7-.1-1.5-.2-2.3-.2m-160.1 21.2v4.9c.1 3.8-2.9 7-6.7 7.2h-.7c-2.9 0-5.3-1.7-5.3-5.2 0-5.4 5.9-6.9 12.7-6.9m121.9 0v4.9c.1 3.8-2.9 7-6.7 7.2h-.7c-2.9 0-5.3-1.7-5.3-5.2 0-5.4 5.9-6.9 12.7-6.9" style="fill:#fff"/></svg>