<svg xmlns="http://www.w3.org/2000/svg" xml:space="preserve" viewBox="0 0 100 100"><path d="M0 0h100v100H0z" style="fill:#101627"/><linearGradient id="a" x1="22.793" x2="77.207" y1="22.793" y2="77.207" gradientUnits="userSpaceOnUse"><stop offset=".022" style="stop-color:#c98724"/><stop offset=".543" style="stop-color:#e5bc31"/><stop offset="1" style="stop-color:#f3d34d"/></linearGradient><path d="M22.8 22.8v8.9l8.9-8.9z" style="fill:url(#a)"/><linearGradient id="b" x1="-2.185" x2="52.228" y1="47.772" y2="102.185" gradientUnits="userSpaceOnUse"><stop offset=".022" style="stop-color:#c98724"/><stop offset=".543" style="stop-color:#e5bc31"/><stop offset="1" style="stop-color:#f3d34d"/></linearGradient><path d="M22.8 77.2h8.9l-8.9-8.9z" style="fill:url(#b)"/><linearGradient id="c" x1="47.772" x2="102.185" y1="-2.185" y2="52.228" gradientUnits="userSpaceOnUse"><stop offset=".022" style="stop-color:#c98724"/><stop offset=".543" style="stop-color:#e5bc31"/><stop offset="1" style="stop-color:#f3d34d"/></linearGradient><path d="M77.2 22.8h-8.9l8.9 8.9z" style="fill:url(#c)"/><linearGradient id="d" x1="22.794" x2="77.207" y1="22.794" y2="77.207" gradientUnits="userSpaceOnUse"><stop offset=".022" style="stop-color:#c98724"/><stop offset=".543" style="stop-color:#e5bc31"/><stop offset="1" style="stop-color:#f3d34d"/></linearGradient><path d="m77.2 68.3-8.9 8.9h8.9z" style="fill:url(#d)"/><linearGradient id="e" x1="50" x2="50" y1="4.5" y2="22.793" gradientUnits="userSpaceOnUse"><stop offset=".022" style="stop-color:#c98724"/><stop offset=".543" style="stop-color:#e5bc31"/><stop offset="1" style="stop-color:#f3d34d"/></linearGradient><path d="m50 8.8 11 11H39zm0-4.3L31.7 22.8h36.6z" style="fill:url(#e)"/><linearGradient id="f" x1="86.353" x2="86.353" y1="31.706" y2="68.293" gradientUnits="userSpaceOnUse"><stop offset=".022" style="stop-color:#c98724"/><stop offset=".543" style="stop-color:#e5bc31"/><stop offset="1" style="stop-color:#f3d34d"/></linearGradient><path d="m80.2 39 11 11-11 11zm-3-7.3v36.6L95.5 50z" style="fill:url(#f)"/><linearGradient id="g" x1="50" x2="50" y1="77.207" y2="95.5" gradientUnits="userSpaceOnUse"><stop offset=".022" style="stop-color:#c98724"/><stop offset=".543" style="stop-color:#e5bc31"/><stop offset="1" style="stop-color:#f3d34d"/></linearGradient><path d="m61 80.2-11 11-11-11zm7.3-3H31.7L50 95.5z" style="fill:url(#g)"/><linearGradient id="h" x1="13.647" x2="13.647" y1="31.706" y2="68.293" gradientUnits="userSpaceOnUse"><stop offset=".022" style="stop-color:#c98724"/><stop offset=".543" style="stop-color:#e5bc31"/><stop offset="1" style="stop-color:#f3d34d"/></linearGradient><path d="M19.8 39v22l-11-11zm3-7.3L4.5 50l18.3 18.3z" style="fill:url(#h)"/><linearGradient id="i" x1="-13.904" x2="9.383" y1="168.315" y2="168.315" gradientTransform="translate(47.216 -114.202)" gradientUnits="userSpaceOnUse"><stop offset=".022" style="stop-color:#c98724"/><stop offset=".543" style="stop-color:#e5bc31"/><stop offset="1" style="stop-color:#f3d34d"/></linearGradient><path d="M33.3 57.1c.1-.5.2-.9.3-1.4.4-1.4 1.1-2.7 2.1-3.7 2.6-2.6 5.2-5.3 7.9-7.9 3.3-3.2 8.7-3.1 11.9.3.3.3.6.7.9 1.1.1.1.1.2 0 .4L53 49.3h-.1c-.2-.7-.6-1.2-1.1-1.7-1.2-1.1-2.9-1.3-4.3-.5-.2.1-.4.3-.6.4-2.6 2.6-5.3 5.2-7.9 7.8-1 1-1.4 2.3-1 3.7s1.3 2.3 2.7 2.6c1.2.3 2.4 0 3.3-.8.5-.4.9-.9 1.4-1.4.1-.1.2-.2.4-.1 1.7.7 3.5 1 5.4.7h.3l-.2.2-3.7 3.7c-1.8 1.8-4.1 2.7-6.7 2.5-3.8-.3-6.9-3-7.7-6.6-.1-.3-.1-.7-.2-1 .3-.6.3-1.1.3-1.7" style="fill:url(#i)"/><linearGradient id="j" x1="-4.175" x2="19.06" y1="160.004" y2="160.004" gradientTransform="translate(47.216 -114.202)" gradientUnits="userSpaceOnUse"><stop offset=".022" style="stop-color:#c98724"/><stop offset=".543" style="stop-color:#e5bc31"/><stop offset="1" style="stop-color:#f3d34d"/></linearGradient><path d="m58.6 33.5 1.5.3c3.4 1.1 5.5 3.4 6.1 6.9.4 2.8-.4 5.3-2.4 7.3-2.6 2.6-5.1 5.2-7.7 7.7-1.4 1.4-3.1 2.1-5.1 2.3-3.3.3-5.9-1-7.8-3.6 0 0 0-.1-.1-.1 1.2-1.1 2.3-2.3 3.5-3.5 0 0 0 .1.1.1 1 2.6 4.2 3.2 6.2 1.3l3.7-3.7 3.9-3.9c1-1 1.4-2.3 1-3.7s-1.3-2.3-2.8-2.6c-1.2-.3-2.4 0-3.3.9-.5.4-1 .9-1.4 1.4-.1.1-.2.2-.4.1-1.8-.7-3.6-1-5.5-.7h-.2c0-.1.1-.1.1-.1 1.3-1.3 2.6-2.7 4-4s3-2.1 4.9-2.3c0 0 .1 0 .1-.1z" style="fill:url(#j)"/></svg>