<svg xmlns="http://www.w3.org/2000/svg" xml:space="preserve" id="Genesis" x="0" y="0" version="1.1" viewBox="0 0 245 245"><style>.st1{fill:#fff}</style><g id="New"><path id="Full" d="M0 122.5C0 190 55 245 122.5 245S245 190 245 122.5 190 0 122.5 0 0 55 0 122.5" style="fill:#1ea1ef"/><path id="G_Down" d="m139 131.5-5.5 27.5s-30.8-.2-40.5-.4c-3.5.1-3-3.6-3-3.6s9.9-47.8 13.4-64c.9-5.1 5.1-5 5.1-5H191c6 11.2 9.1 23.8 9 36.5.1 42.7-34.5 77.4-77.3 77.5-18.2 0-35.8-6.3-49.7-18h80.5l15-70h-49l-4 19.5z" class="st1"/><path id="G_Small" d="M60.8 169.4a77.1 77.1 0 0 1-15.3-37.9h23s-4.6 22.4-7.7 37.9" class="st1"/><path id="G_Top" d="M122.5 45c17.6 0 34.7 6 48.5 17h-69.5C82.9 62 80 78.5 80 78.5l-8 34H45.5c5-37.9 37.7-67.5 77-67.5" class="st1"/><circle id="Outer" cx="122.5" cy="122.5" r="89.5" style="fill:none;stroke:#fff;stroke-width:5;stroke-linecap:round;stroke-linejoin:round"/></g></svg>