<svg xmlns="http://www.w3.org/2000/svg" width="236" height="236"><circle cx="118" cy="118" r="118" fill="#002d64"/><path fill="#fff" d="M140.042 100.3c5.829-5.829 8.992-13.499 8.992-21.759a30.8 30.8 0 0 0-7.151-19.73l17.889-17.889-3.988-3.87-17.889 17.889c-5.522-4.602-12.366-7.151-19.612-7.151a30.772 30.772 0 0 0-21.759 52.51c5.098 5.098 11.753 8.284 18.904 8.897v22.68a29.88 29.88 0 0 0-18.904 8.897 30.824 30.824 0 0 0 0 43.518c5.829 5.829 13.499 8.992 21.759 8.992a30.6 30.6 0 0 0 21.759-8.992c5.829-5.829 8.992-13.499 8.992-21.759s-3.162-15.93-8.992-21.759c-5.098-5.098-11.753-8.284-18.904-8.897v-22.68a29.83 29.83 0 0 0 18.904-8.897m-3.988 44.439c4.696 4.791 7.363 11.045 7.363 17.771a25.03 25.03 0 0 1-7.363 17.771c-4.696 4.791-11.045 7.363-17.771 7.363a25.03 25.03 0 0 1-17.771-7.363c-4.696-4.791-7.363-11.045-7.363-17.771a25.03 25.03 0 0 1 7.363-17.771c4.696-4.791 11.045-7.363 17.771-7.363 6.75.024 13.074 2.572 17.771 7.363m-17.771-40.97a25.03 25.03 0 0 1-17.771-7.363c-4.696-4.791-7.363-11.045-7.363-17.771a25.07 25.07 0 0 1 7.363-17.771c4.696-4.791 11.045-7.363 17.771-7.363a25.03 25.03 0 0 1 17.771 7.363c4.791 4.696 7.363 11.045 7.363 17.771a25.03 25.03 0 0 1-7.363 17.771c-4.696 4.814-11.021 7.363-17.771 7.363"/></svg>