<svg xmlns="http://www.w3.org/2000/svg" xml:space="preserve" viewBox="0 0 490 490"><path d="M0 245c0 135.1 109.9 245 245 245s245-109.9 245-245S380.1 0 245 0 0 109.9 0 245" style="fill:#e3ae08"/><path d="M165.1 176c4.1.1.1-41.1 28.9-41.2 20.8-.1 30.9 35 30.9 35s20.7 95.4 20.6 109.2-22.7 51.7-22.7 72.1 4.5 28.9 14.4 28.9 18.1-13.3 18.6-26.8-2.2-63.3-2.1-78.3S330 116.2 330 116.2h-35s-40.2 131.9-43.3 131.9-8.4-53.1-12.4-82.4c-7.8-48.9-17.4-55.6-39.2-55.6-47.8-.1-40.7 65.7-35 65.9" style="fill:#fff"/></svg>