<svg xmlns="http://www.w3.org/2000/svg" width="245" height="245"><g data-name="Gnosis 1"><path fill="#00a6c4" d="M0 122.5C0 190 55 245 122.5 245S245 190 245 122.5 190 0 122.5 0 0 55 0 122.5"/><g fill="#fff"><path d="m180.224 86.97-5.206 5.206a25.43 25.43 0 0 1 2.6 22.472 25.69 25.69 0 0 1-32.764 15.5 23.6 23.6 0 0 1-5.206-2.6l-16.679 16.679-14.55-14.67a26.58 26.58 0 0 1-23.54 2.957 26.2 26.2 0 0 1-15.847-33.597 24.2 24.2 0 0 1 2.957-5.793l-6.267-6.267-1.181 2.009a68.487 68.487 0 0 0 58.312 104.2h.12a68.449 68.449 0 0 0 58.546-103.97l-1.294-2.129" data-name="Path 4879"/><path d="M79.684 100.813a14.16 14.16 0 0 0-2.836 8.516 13.98 13.98 0 0 0 13.956 13.956 13.55 13.55 0 0 0 8.516-2.957z" data-name="Path 4880"/><path d="M148.168 119.138a13.56 13.56 0 0 0 7.809 2.362 13.98 13.98 0 0 0 13.956-13.956 13.84 13.84 0 0 0-2.363-7.809l-19.4 19.4" data-name="Path 4881"/><path d="M123.207 133.81 66.67 77.032l2.249-2.362a73 73 0 0 1 53.46-23.066h.12a73.4 73.4 0 0 1 54.408 24.247l2.129 2.362-55.83 55.6M75.901 77.032l47.313 47.434 46.719-46.486a67.12 67.12 0 0 0-47.313-19.755h-.12a66.24 66.24 0 0 0-46.6 18.808" data-name="Path 4882"/></g></g></svg>