<svg xmlns="http://www.w3.org/2000/svg" width="256" height="256" viewBox="0 0 67.733 67.733"><g transform="translate(0 -229.267)"><circle cx="33.867" cy="263.133" r="32.411" style="opacity:1;fill:#402f9f;fill-opacity:1;fill-rule:nonzero;stroke:none;stroke-width:.78902775;stroke-linecap:round;stroke-linejoin:round;stroke-miterlimit:4;stroke-dasharray:none;stroke-dashoffset:0;stroke-opacity:1;paint-order:stroke fill markers"/><g style="fill:none;fill-rule:evenodd;stroke:none;stroke-width:1"><path d="M97.333 67.556a6.222 6.222 0 1 1 0-12.445 6.222 6.222 0 0 1 0 12.445m0-15.556a9.333 9.333 0 1 1 0 18.667 9.333 9.333 0 0 1 0-18.667m8.878 19.122a1.555 1.555 0 0 1 0 2.2l-6.222 6.222a1.555 1.555 0 1 1-2.2-2.2l6.222-6.222a1.555 1.555 0 0 1 2.2 0m3.567-17.566a1.555 1.555 0 1 1-3.111 0 1.555 1.555 0 0 1 3.11 0" style="fill:#fff" transform="translate(-118.289 162.832)scale(1.53865)"/></g></g></svg>