<svg xmlns="http://www.w3.org/2000/svg" xml:space="preserve" viewBox="0 0 245 245"><path d="M0 122.5C0 190 55 245 122.5 245S245 190 245 122.5 190 0 122.5 0 0 55 0 122.5" style="fill:#0e98be"/><circle cx="122.5" cy="122.5" r="87.1" style="fill:none;stroke:#fff;stroke-width:10"/><path d="m174.4 89.5.6.7-1.1 6.3-1.2 5h-18.2c1.1 2.7 2.1 5.2 2.9 7.6 1.1 3.8 1.7 7.7 1.7 11.6 0 8-3.3 15.3-9.9 22s-15.6 10.1-26.8 10.1c-1.4 0-4.6-.4-9.5-1.1-2 0-4.6 1.7-8 5.2s-5 6.3-5 8.5 2.4 3.9 7.3 4.9c3.6.6 7.2 1 10.9.9 17.9 0 30.1 1 36.6 3.1 10.7 3.2 16 10.3 16 21.3l-.2 1.6c-2.4 1.4-4.4 2.6-6.1 3.4l.2-1.6c0-4.7-2.9-7.8-8.8-9.3-3.7-.9-10.7-1.4-20.8-1.6l-8.2-.3-7.9-.3c-1.2-.1-3.7-.4-7.4-.8-3.4-.5-5.9-1-7.6-1.4-.8 0-2.9 2.2-6.2 6.7-3.1 4.2-4.8 8.2-5 11.8-3.3-1.3-6.5-2.9-9.6-4.7 2.4-2.5 4.8-4.9 7.3-7.1l7-6.2 1.2-1.2c-3.3-1.2-5.7-2.5-7.3-3.7-2.8-2.2-4.2-4.6-4.2-7.3s1.2-5.6 3.7-8.8 7.7-8.2 15.5-15.1c-6.4-2.1-11.4-5.8-14.9-11.2s-5.4-11.7-5.3-18.2c0-8.3 3.3-16.1 9.8-23.4s15.7-11 27.6-11c5.1 0 10.7 1.2 16.9 3.6 2.5 1.1 5 1.9 7.6 2.5 5.4-5.8 9.2-10.2 11.3-13.3 3.3-4.4 5-8.8 5-13 0-3.7-1-6.6-3-8.5-1.9-1.9-4.5-3-7.2-3-3.2-.1-6.3 1.3-8.4 3.7-1.1 1.3-2.3 3.5-3.4 6.4l-1.7-.3c1.2-5.8 3.4-9.8 6.4-12.1 2.8-2.2 6.2-3.4 9.7-3.4 4.2 0 7.7 1.3 10.3 4 2.6 2.6 4 6.2 4 9.9 0 4-1.4 8-4.3 11.8-2.6 3.5-8 9.6-16.3 18.2 2.1.5 4.2.7 6.4.7h7.1c3-.1 2.7 0 4 0 0 0 3.1-.5 4-1s2.5-2.6 2.5-2.6M142.3 127c0-6.7-1.7-14.3-5.1-22.6S128 92 120.1 92c-6.8 0-11.5 3.3-14.1 9.8-1.3 3.4-2 7.7-2 12.7 0 8.6 2.1 16.3 6.2 23 4.1 6.8 9.5 10.2 16 10.2 3.8 0 7-1 9.6-3.1 4.2-3.4 6.4-9.3 6.5-17.6" style="fill:#fff"/></svg>