<svg xmlns="http://www.w3.org/2000/svg" width="245" height="245"><path fill="#d35756" d="M0 122.5C0 190 55 245 122.5 245S245 190 245 122.5 190 0 122.5 0 0 55 0 122.5"/><path fill="#fff" d="m198.632 87.706-47.2 24.8v28.77l16.235-8.643v16.68l-45.749 26.416-36.768-21.232a17.97 17.97 0 0 1-8.984-15.566v-42.45l37.944-21.909a15.6 15.6 0 0 1 15.606 0l37.941 21.909 23.228-13.413-59.109-34.131a19.76 19.76 0 0 0-19.736 0L52.938 83.073v69.244a18.03 18.03 0 0 0 9.014 15.615l59.966 34.619 59.878-34.571a18.19 18.19 0 0 0 9.1-15.757V120.28l7.734-4.111V87.706Z"/></svg>