<svg xmlns="http://www.w3.org/2000/svg" xml:space="preserve" id="GTO" x="0" y="0" version="1.1" viewBox="0 0 490 490"><style>.st1{fill:#fff}</style><path id="Full" d="M0 245c0 135.1 109.9 245 245 245s245-109.9 245-245S380.1 0 245 0 0 109.9 0 245" style="fill:#5f318f"/><path id="GTO-2" d="M234.7 215.5H112.9v121.7c-.2 25.6 20.3 46.6 45.9 46.8h75.9zm18.7 0h121.8v121.7c.2 25.6-20.3 46.6-45.9 46.8h-75.9zm0-18.7h118.1c13.1 0 22.5-11.2 22.5-22.5 0-13.1-11.2-22.5-22.5-22.5h-253c-13.1 0-22.5 11.2-22.5 22.5 0 13.1 11.2 22.5 22.5 22.5h116.2v-29.9h18.7" class="st1"/><path id="Top" d="M257.1 157.4c26.2-46.8 46.8-61.8 61.8-46.8s5.6 29.9-26.2 46.8m-61.7 0c-26.2-46.8-46.8-61.8-61.8-46.8s-5.6 29.9 26.2 46.8" class="st1"/></svg>