<svg xmlns="http://www.w3.org/2000/svg" xml:space="preserve" id="Gemini_Dollar" x="0" y="0" version="1.1" viewBox="0 0 245 245"><style>.st1{fill:none;stroke:#fff;stroke-width:14}.st2{fill:#fff}</style><path id="Main-F" d="M0 122.5C0 190 55 245 122.5 245S245 190 245 122.5 190 0 122.5 0 0 55 0 122.5" style="fill:#20bcd4"/><path id="Bottom" d="M94.5 205c30.5 0 55-24.1 55-54.5v-55h-54C63.2 95.5 40 118.7 40 151c0 31.7 23.5 54 54.5 54z" class="st1"/><path id="Top" d="M151 40c-30.5 0-55 24.2-55 54.5v55h54c32.3 0 55.5-23.2 55.5-55.5 0-31.7-23.5-54-54.5-54z" class="st1"/><path id="Line_Bottom" d="M95 142.5v14H42.5v-14z" class="st2"/><path id="Line_Top" d="M203 88.5v14h-52.5v-14z" class="st2"/></svg>