<svg xmlns="http://www.w3.org/2000/svg" xml:space="preserve" viewBox="0 0 490 490"><path d="M0 245c0 135.1 109.9 245 245 245s245-109.9 245-245S380.1 0 245 0 0 109.9 0 245" style="fill:#16b9ad"/><path d="M106.9 182H76.3zm307.8 0H139.4zm0 0H139.4c-1.3 6.9-2 13.9-2 20.9 0 60.1 48.5 109.1 108.1 109.1 47.5 0 87.9-31 102.4-74.1H315c-13 26.5-40 43.4-69.6 43.5-39.3 0-71.8-29.6-77-67.8h216.8c-5.4 73-66 130.8-139.8 130.8-77.3 0-140.1-63.4-140.1-141.4 0-7 .5-14 1.5-20.9H76.3C75.5 189 75 196 75 203c0 94.8 76.5 172 170.5 172 93.9 0 170.3-77 170.5-171.8v-.3c0-7-.4-13.9-1.3-20.9" style="fill:#fff"/></svg>