<svg xmlns="http://www.w3.org/2000/svg" width="238.501" height="236.921"><path fill="#00aee9" d="M119.25 0C185.111 0 238.5 53.037 238.5 118.461s-53.39 118.461-119.25 118.461S0 183.885 0 118.461 53.39 0 119.25 0" data-name="Path 473869"/><path fill="#fff" d="M157.848 51.097a29.1 29.1 0 0 0-29.121 29.023v32.18c-3 .2-6.066.33-9.245.33s-6.231.127-9.245.307V80.121a29.119 29.119 0 1 0-58.238 0l.006 76.909a29.119 29.119 0 1 0 58.238 0v-32.18c3-.2 6.066-.33 9.245-.33s6.231-.127 9.245-.307v32.817a29.119 29.119 0 1 0 58.238 0V80.119a29.1 29.1 0 0 0-29.123-29.022M81.117 62.989a17.177 17.177 0 0 1 17.188 17.132v34.077a98 98 0 0 0-24.742 7 45 45 0 0 0-9.6 5.728v-46.8a17.177 17.177 0 0 1 17.154-17.137m17.188 94.041a17.185 17.185 0 1 1-34.369 0v-7.715c0-6.815 5.4-13.271 14.448-17.29a84.7 84.7 0 0 1 19.921-5.826zm59.546 17.132a17.177 17.177 0 0 1-17.188-17.132v-34.075a98 98 0 0 0 24.742-7 45 45 0 0 0 9.6-5.725v46.8a17.177 17.177 0 0 1-17.157 17.134Zm2.737-69.083a84.7 84.7 0 0 1-19.921 5.826V80.121a17.185 17.185 0 0 1 34.369 0v7.715c-.004 6.785-5.402 13.241-14.452 17.244Z"/></svg>