<svg xmlns="http://www.w3.org/2000/svg" width="512" height="512"><path d="M11 256c0 135.094 109.906 245 245 245s245-109.906 245-245S391.094 11 256 11 11 120.906 11 256" style="fill-rule:evenodd;fill:#ff2674;fill-opacity:1"/><path d="m427.179 242.77-86.605 157.036-179.3 3.516-92.694-153.52 86.605-157.036 179.3-3.516Z" style="opacity:1;fill:#fff;fill-opacity:1;fill-rule:nonzero;stroke:#fff;stroke-width:42.70084763;stroke-linecap:round;stroke-linejoin:round;stroke-miterlimit:4;stroke-dasharray:none;stroke-dashoffset:0;stroke-opacity:.99476438;paint-order:fill markers stroke" transform="matrix(.89406 .01763 -.01778 .88636 38.45 34.222)"/><path d="m427.179 242.77-86.605 157.036-179.3 3.516-92.694-153.52 86.605-157.036 179.3-3.516Z" style="opacity:1;fill:#ff2674;fill-opacity:1;fill-rule:nonzero;stroke:#ff2674;stroke-width:42.70084763;stroke-linecap:round;stroke-linejoin:round;stroke-miterlimit:4;stroke-dasharray:none;stroke-dashoffset:0;stroke-opacity:1;paint-order:fill markers stroke" transform="matrix(.66606 .01313 -.01324 .66033 60.878 148.225)"/><path d="m427.179 242.77-86.605 157.036-179.3 3.516-92.694-153.52 86.605-157.036 179.3-3.516Z" style="opacity:1;fill:#fff;fill-opacity:1;fill-rule:nonzero;stroke:#fefefe;stroke-width:42.70084763;stroke-linecap:round;stroke-linejoin:round;stroke-miterlimit:4;stroke-dasharray:none;stroke-dashoffset:0;stroke-opacity:.99476438;paint-order:fill markers stroke" transform="matrix(.56758 .01119 -.01129 .5627 84.715 172.558)"/><path d="m427.179 242.77-86.605 157.036-179.3 3.516-92.694-153.52 86.605-157.036 179.3-3.516Z" style="opacity:1;fill:#ff2674;fill-opacity:1;fill-rule:nonzero;stroke:#ff2674;stroke-width:42.70084763;stroke-linecap:round;stroke-linejoin:round;stroke-miterlimit:4;stroke-dasharray:none;stroke-dashoffset:0;stroke-opacity:1;paint-order:fill markers stroke" transform="matrix(.38952 .00768 -.00775 .38617 100.035 264.803)"/><path d="m427.179 242.77-86.605 157.036-179.3 3.516-92.694-153.52 86.605-157.036 179.3-3.516Z" style="opacity:1;fill:#fff;fill-opacity:1;fill-rule:nonzero;stroke:#fefefe;stroke-width:42.70084763;stroke-linecap:round;stroke-linejoin:round;stroke-miterlimit:4;stroke-dasharray:none;stroke-dashoffset:0;stroke-opacity:.99476438;paint-order:fill markers stroke" transform="matrix(.29449 .0058 -.00586 .29195 123.41 288.92)"/></svg>