<svg xmlns="http://www.w3.org/2000/svg" width="250" height="250"><defs><linearGradient id="a" x1="17.336" x2="80" y1="74.339" y2="74.339" gradientUnits="userSpaceOnUse"><stop offset="0" stop-color="#700000"/><stop offset=".327" stop-color="#730000"/><stop offset=".59" stop-color="#7d0000"/><stop offset=".83" stop-color="#8e0000"/><stop offset="1" stop-color="#9f0000"/></linearGradient><linearGradient id="b" x1="48.668" x2="48.668" y1="68.69" y2="80" gradientUnits="userSpaceOnUse"><stop offset=".35" stop-color="#cf2000"/><stop offset=".645" stop-color="#cd1f00"/><stop offset=".752" stop-color="#c61d00"/><stop offset=".828" stop-color="#bb1900"/><stop offset=".889" stop-color="#aa1300"/><stop offset=".941" stop-color="#940c00"/><stop offset=".987" stop-color="#790300"/><stop offset="1" stop-color="#700000"/></linearGradient><linearGradient id="c" x1="17.336" x2="80" y1="55.314" y2="55.314" gradientUnits="userSpaceOnUse"><stop offset="0" stop-color="#cf2000"/><stop offset=".021" stop-color="#d12201"/><stop offset=".244" stop-color="#e23309"/><stop offset=".487" stop-color="#ec3d0e"/><stop offset=".791" stop-color="#ef4010"/><stop offset=".841" stop-color="#ec3d0f"/><stop offset=".882" stop-color="#e2330d"/><stop offset=".919" stop-color="#d12208"/><stop offset=".954" stop-color="#b90a03"/><stop offset=".966" stop-color="#af0000"/><stop offset="1" stop-color="#ef4010"/></linearGradient></defs><circle cx="125" cy="125" r="125" fill="#cdcdcd" fill-rule="evenodd"/><path fill="#0e3ca5" d="M105.685 164.864c4.822 17.888 22.12 31.535 30.86 30.97.306-.02 33.138-6.158 51.112-36.262 13.983-23.432 9.224-46.052-9.8-46.545-6.843.5-81.356 17.763-72.167 51.842m70.392-114.893-.02-.014.03-.017a83.491 83.715 0 0 0-88-12.73 49.408 49.54 0 0 0-5.275 2.596c-1.172.626-2.346 1.248-3.482 1.934l.278.085a38.045 38.147 0 0 0-8.812 8.364c-23.975 31.736 56.344 54.815 99.292 54.882 19.746 14.222 25.291-40.032 5.989-55.1"/><path fill="#5493f7" d="M92.943 50.617c-11.035 16.632-47.79 28.349-53.834 26.526l-.041-.077q.373-.754.754-1.497A88.438 88.675 0 0 1 66.03 44.91q3.393-2.494 7.023-4.663a25.983 26.052 0 0 1 12.152-3.244c16.368.32 7.82 13.487 7.739 13.615m-9.056 117.517c.793 5.224-.019 25.867-1.085 27.602-.918.056-2.83.174-8.37-2.942a88.089 88.325 0 0 1-39.945-48.79 87.457 87.691 0 0 1-3.334-13.576 88.964 89.202 0 0 1 0-28.625 87.457 87.691 0 0 1 3.334-13.576 90 90 0 0 1 .923-2.64c6.344 8.461 13.685 16.112 19.924 24.658 5.943 8.137 14.119 21.399 15.782 24.232 10.329 17.594 11.973 28.445 12.764 33.662m122.107-52.025a87.802 88.037 0 0 1-6.123 32.408c-10.367 11.168-80.244-16.325-80.929-16.625-9.56-4.199-38.65-16.977-41.275-37.041-3.764-28.886 54.654-49.009 80.33-49.772 3.079.036 12.448.147 17.911 4.593a87.792 88.027 0 0 1 30.086 66.437m-47.302 78.257c-7.619 3.565-16.004.967-13.827-6.47 4.183-14.284 40.714-28.929 48.778-29.734.996-.099 1.42.583.979 1.357a88.892 89.13 0 0 1-35.923 34.834"/><path fill="url(#a)" d="M17.336 77.255a2.55 2.55 0 0 0 2.328 2.713c30.7.21 60.336-1.2 60.336-5.8 0-13.924-62.664 3.087-62.664 3.087" transform="matrix(2.41095 0 0 2.4174 27.124 21.608)"/><path fill="url(#b)" d="M17.336 77.255a2.55 2.55 0 0 0 2.34 2.713c30.692.233 60.287-.731 60.324-5.8 0-13.924-62.664 3.087-62.664 3.087m2.341 2.536a2 2 0 0 1-.244-.014 2.4 2.4 0 0 1-1.988-1.763 2.37 2.37 0 0 0 2.229 1.762c30.671-.193 59.845-9.636 59.845-5.478 0 4.244-29.172 5.702-59.842 5.493" transform="matrix(2.41095 0 0 2.4174 27.124 21.608)"/><path fill="url(#c)" d="M19.679 37.822a2.343 2.343 0 0 0-2.343 2.344v37.089a2.34 2.34 0 0 0 2.328 2.345C50.363 79.37 80.037 69.209 80 74.169V32.394c.037-4.961-29.626 5.199-60.321 5.428" transform="matrix(2.41095 0 0 2.4174 27.124 21.608)"/><path fill="#fff" d="m133 177.18-.37-1.755-1.688.058 1.466-1.138-.37-1.758 1.283 1.045 1.469-1.139-.685 1.78 1.283 1.056-1.688.058-.685 1.793m10.076-18.64c1.786 6.203-2.763 12.92-6.816 14.988l-.152-.397c4.323-2.306 8.216-8.806 6.543-14.482a7.443 7.463 0 0 1-6.326 7.921 5.492 5.507 0 0 1-1.116.046 6.196 6.213 0 0 0-1.305.049 9.253 9.278 0 0 0-7.348 8.262 5.434 5.449 0 0 1-4.622 5.454 5.01 5.023 0 0 1-.928.044 12.096 12.128 0 0 0 9.347 2.468 15.469 15.51 0 0 0 7.575-3.428 17.528 17.575 0 0 0 5.143-20.935m-17.492-.725-.369-1.74-1.687.057 1.48-1.155-.369-1.743 1.27 1.047 1.481-1.156-.685 1.794 1.283 1.044-1.71.058-.684 1.794m-7.122-12.812a14.948 14.988 0 0 0 3.93 17.308 12.07 12.102 0 0 0 9.147 2.32 16.214 16.257 0 0 0 10.189-6.043 10.451 10.48 0 0 1-5.546 2.63 9.803 9.83 0 0 1-8.877-3.241l.321-.339a9.369 9.394 0 0 0 8.513 3.121 10.206 10.233 0 0 0 5.405-2.562 6.613 6.63 0 0 1-2.391.872 5.545 5.56 0 0 1-5.955-5.192 6.51 6.527 0 0 0-7.317-5.899 5.885 5.9 0 0 0-1.58.45 5.454 5.468 0 0 1-1.446.43A3.959 3.97 0 0 1 118.48 145m22.785-3.368-.368-1.743-1.688.058 1.468-1.15-.357-1.746 1.271 1.045 1.48-1.153-.684 1.793 1.27 1.045-1.688.058-.684 1.793m6.654-14.598a17.24 17.287 0 0 0-13.26 11.536c-2.816 7.921.24 15.99 6.816 18.614-4.955-3.363-4.567-11.22-2.09-15.365l.332.188c-2.565 4.492-2.49 11.756 2.069 14.828-3.135-3.592-.692-8.702 2.28-10.636a9.116 9.14 0 0 0 3.135-11.681 5.487 5.502 0 0 1 1.943-7.617 13.374 13.41 0 0 0-1.24.116m10.43 23.988-.369-1.74-1.687.057 1.468-1.138-.369-1.758 1.283 1.044 1.466-1.153-.683 1.794 1.283 1.056-1.688.058-.684 1.78m-1.58-9.83a17.626 17.674 0 0 0-14.135 15.16 13.13 13.165 0 0 1 10.459-8.927 8.255 8.277 0 0 1 2.666.026l-.103.445a8.648 8.671 0 0 0-2.607 0 12.645 12.68 0 0 0-10.063 8.62 6.678 6.696 0 0 1 4.945-3.785 5.755 5.77 0 0 1 4.822 1.532 6.102 6.118 0 0 0 5.304 1.673 8.118 8.14 0 0 0 5.52-3.435 5.193 5.207 0 0 1 3.535-2.492 4.214 4.226 0 0 1 3.525 1.208 12.255 12.288 0 0 0-12.898-10.116 13.718 13.755 0 0 0-.994.101m-3.532 31.794-.357-1.758-1.709.06 1.48-1.14-.37-1.755 1.284 1.042 1.466-1.139-.685 1.794 1.285 1.044-1.709.058zm-7.254-16.368a13.885 13.922 0 0 0-2.36.546c6.22-.752 10.154 5.243 10.21 9.868l-.398.084c-.157-4.943-4.183-10.203-9.885-9.498 4.742.585 5.35 5.923 3.761 9.235-2.17 4.562 0 9.653 3.542 10.586 3.223.853 3.616 4.192 2.43 6.822a18.082 18.13 0 0 0 6.51-17.89 12.233 12.266 0 0 0-13.815-9.753"/></svg>