<svg xmlns="http://www.w3.org/2000/svg" xml:space="preserve" id="HOT" x="0" y="0" version="1.1" viewBox="0 0 490 490"><style>.st1{fill:#fff}</style><path id="Full" d="M0 245c0 135.1 109.9 245 245 245s245-109.9 245-245S380.1 0 245 0 0 109.9 0 245" style="fill:#00a6ae"/><path id="HOT-2" d="M88.9 357.2c5.1.6 10.3.8 15.5.8 70.2 0 127-50.4 127-112.5S174.5 133 104.4 133c-5.5 0-10.9.3-16.4.9 4.7 10.7 10.3 23.5 13.9 31.5 1.1 0 2.3-.1 3.4-.1 47.1 0 85.3 35.9 85.3 80.1s-38.2 80.1-85.3 80.1h-2c-5.6 12.3-8.9 19.4-14.4 31.7m312.2 0c-5.1.6-10.3.8-15.5.8-70.3 0-127.3-50.4-127.3-112.5S315.3 133 385.6 133c5.5 0 11 .3 16.4.9-4.7 10.7-10.4 23.5-13.9 31.5-1.1 0-2.3-.1-3.5-.1-47.2 0-88.3 35.9-88.3 80.1s41.1 80.1 88.3 80.1h2c5.7 12.3 9 19.4 14.5 31.7" class="st1"/><path id="Middle" d="m149.8 261.7 14.8-32.4h158.6c4.2 0 8.3 1 12.1 2.8l-13 31.5H163.7c-4.7-.2-9.3-.8-13.9-1.9" class="st1"/></svg>