<svg xmlns="http://www.w3.org/2000/svg" xml:space="preserve" viewBox="0 0 490 490"><path d="M0 245c0 135.1 109.9 245 245 245s245-109.9 245-245S380.1 0 245 0 0 109.9 0 245" style="fill:#357ce1"/><path d="M279.5 186.2c0-43.9-21.5-81.7-37.8-94-.1 0-1.2-.7-1.1 1.1v.1c-1.4 84.8-44.8 107.8-68.8 138.8-55.2 71.5-3.9 149.8 48.4 164.3 29.2 8.1-6.8-14.3-11.4-61.7-5.6-57.5 70.7-101.2 70.7-148.6m25.1 28.9c-.3-.3-.7-.3-1 0 0 0-.1.1-.1.2-.9 10.7-11.8 33.5-25.7 54.5-47.1 71.2-20.2 105.5-5.2 123.9 8.8 10.7 0 0 21.9-10.9 1.7-.9 42.7-23.8 47.1-76 4.3-50.6-26.2-82.5-37-91.7" style="fill:#fff"/></svg>