<svg xmlns="http://www.w3.org/2000/svg" width="400" height="400"><circle cx="200" cy="200" r="200" style="fill:#732483;fill-opacity:1;stroke:none;stroke-width:2"/><path fill="#f9f7fa" fill-rule="evenodd" d="M83.203 76.047c0 .073 2.498 7.6 5.55 16.73 3.052 9.128 5.428 16.672 5.28 16.763-.149.092-2.773.19-5.832.221-3.058.03-5.618.113-5.689.183-.267.267 4.009 13.781 5.729 18.105 4.082 10.267 8.12 15.945 15.77 22.179l1.465 1.195-.581 2.697c-.32 1.483-1.12 6.952-1.777 12.153-1.616 12.774-2.396 17.484-7.409 44.72-.498 2.703-2.109 11.952-4.132 23.71-.691 4.019-1.617 10.793-2.804 20.52-2.31 18.928-.144 41.261 4.988 51.402 2.655 5.25 9.303 12.75 11.299 12.75.252 0 .457.138.457.306 0 .835 8.021 3.598 11.954 4.116 1.913.253 32.463.35 84.873.273l81.884-.12 2.696-.866c24.847-7.978 31.086-38.808 19.82-97.945-.209-1.096-.752-4.144-1.207-6.774a485 485 0 0 0-2.153-11.754 471 471 0 0 1-1.234-6.774c-.361-2.082-1.074-6.117-1.584-8.966-1.616-9.033-2.161-12.554-3.177-20.52-.546-4.274-1.395-10.35-1.887-13.505l-.896-5.732 1.386-1.018c6.829-5.01 13.527-14.855 16.854-24.772 1.154-3.44 4.654-14.947 4.654-15.302 0-.132-2.57-.238-5.711-.238s-5.814-.103-5.94-.227c-.125-.126 2.276-7.678 5.334-16.783 3.059-9.104 5.48-16.635 5.38-16.734s-1.006.19-2.013.644-2.683 1.205-3.724 1.67-4.113 1.899-6.827 3.188c-2.713 1.288-4.99 2.342-5.06 2.342s-1.796.788-3.833 1.751c-7.597 3.59-15.623 7.157-19.905 8.846-7.345 2.896-10.649 3.776-15.877 4.232-6.795.59-111.38.592-118.543.002-7.197-.594-15.175-3.357-30.54-10.58a384 384 0 0 0-4.923-2.27 420 420 0 0 1-5.578-2.583 551 551 0 0 0-10.759-4.94c-1.534-.687-3.265-1.515-3.847-1.839-.978-.545-1.93-.77-1.93-.456m22.435 19.152c4.05 1.841 7.785 3.477 8.302 3.635.517.159 1.12.428 1.339.599.7.546 9.849 4.253 13.149 5.33 1.753.571 3.757 1.225 4.454 1.45.696.228 2.175.522 3.287.653 2.57.305 2.537.56-.27 2.137-10.959 6.156-20.436 17.108-25.448 29.405-2.03 4.984-1.846 4.916-4.988 1.858-4.032-3.923-7.392-9.604-10.09-17.058-1.992-5.503-2.375-5.056 4.342-5.056 3.164 0 5.856-.165 5.98-.366s-1.658-5.966-3.961-12.812-4.187-12.598-4.187-12.783c0-.614.666-.366 8.09 3.008m196.83-3.104c.133.134.07.537-.142.897-.564.962-8.007 23.23-8.076 24.163-.057.757.247.807 5.917.997 5.032.167 5.958.294 5.855.797-1.266 6.22-6.743 16.417-11.294 21.03-3.402 3.447-3.327 3.453-4.718-.363-4.404-12.08-14.8-24.318-26.004-30.613-2.807-1.577-2.839-1.832-.27-2.137 1.112-.131 2.591-.425 3.288-.652.696-.226 2.7-.88 4.453-1.454 3.763-1.228 14.555-5.772 23.51-9.898 6.479-2.984 7.052-3.196 7.48-2.767m-196.153 9.496c0 .316.165.677.366.8.31.193 1.513 2.16 4.8 7.853 2.983 5.165 4.279 7.107 4.743 7.109.451.002 2.495-1.678 7.61-6.25.88-.787.38-1.119-8.832-5.85-8.987-4.615-8.687-4.488-8.687-3.662m182.098 1.87c-2.52 1.325-6.327 3.304-8.461 4.395-4.481 2.293-4.756 2.58-3.457 3.628 1.243 1.003 5.526 4.728 6.177 5.373 1.05 1.037 1.688.294 6.144-7.148 6.1-10.187 6.132-9.686-.403-6.249m-96.958 6.924c.073.22-.427.648-1.112.95-16.31 7.221-30.568 34.495-34.806 66.587-.13.986-.405 2.87-.611 4.184-3.393 21.637-5.433 64.222-3.401 70.976 1.946 6.467 16.355 12.448 36.378 15.104 24.86 3.298 58.359-5.249 60.68-15.482 1.578-6.953-.061-44.907-2.833-65.617-5.299-39.59-15.278-62.048-32.772-73.756-1.933-1.293-3.785-2.35-4.118-2.35-.332 0-.54-.196-.46-.434.287-.86 31.073-.467 36.305.462 18.148 3.224 31.537 14.094 38.156 30.976 2.878 7.345 3.984 12.607 5.96 28.366.636 5.084 2.66 17.706 3.991 24.904.649 3.507 1.356 7.362 1.572 8.567l1.21 6.774c.45 2.52.99 5.39 1.2 6.376.413 1.931 1.852 10.574 3.154 18.927 8.032 51.564 2.98 75.067-17.044 79.28-4.303.905-160.91.93-165.634.026-18.817-3.6-24.557-24.767-18.752-69.145.953-7.276 3.738-24.682 4.59-28.69.21-.986.938-5.02 1.616-8.965s1.399-7.907 1.601-8.803c.61-2.7 3.855-22.332 4.54-27.457.35-2.63 1.01-7.553 1.464-10.941 3.807-28.394 17.518-44.602 42.4-50.123 2.14-.475 6.59-.68 19.126-.878 19.124-.303 17.433-.32 17.6.182m-59.562 28.1c-2.395 1.46-3.148 5.102-1.688 8.158 3.563 7.456 13.384 8.2 14.228 1.077.75-6.323-7.434-12.349-12.54-9.236m129.546-.082c-3.532 1.434-6.374 5.719-5.999 9.044.577 5.119 6.027 6.881 10.685 3.453 8-5.886 4.172-16.098-4.686-12.497m-86.987 37.026c4.625 1.701 9.316 5.04 10.36 7.373.608 1.36 3.589 3.887 4.584 3.887.304 0 6.946 4.522 8.72 5.938 1.86 1.482 2.101 1.503 3.41.296 1.327-1.223 5.358-3.956 9.505-6.443 2.722-1.631 3.437-2.274 4.042-3.63 2.761-6.193 16.017-10.511 20.009-6.519 5.328 5.329-8.66 16.108-16.993 13.095-4.656-1.684-11.775 7.86-14.008 18.773-5.109 24.982 9.534 44.533 28.653 38.256 4.192-1.376 3.143.092-1.814 2.537-9.674 4.773-20.308 3.017-27.958-4.617-2.923-2.916-3.21-3.105-3.69-2.432-6.572 9.246-20.028 12.287-30.551 6.905-4.847-2.479-5.69-3.748-1.607-2.419 11.823 3.846 20.868-.653 26.674-13.27 3.813-8.286 3.946-22.39.298-31.726-2.63-6.73-9.382-13.339-12.28-12.018-3.62 1.649-11.21-.718-15.283-4.766-6.337-6.296-.996-12.505 7.93-9.22" style="fill:#fff;stroke-width:.996159"/></svg>