<svg xmlns="http://www.w3.org/2000/svg" width="256" height="256" viewBox="0 0 67.733 67.733"><g style="fill:none"><path d="M21.236 42.472c11.728 0 21.236-9.508 21.236-21.236S32.964 0 21.236 0 0 9.508 0 21.236s9.508 21.236 21.236 21.236" style="clip-rule:evenodd;fill:#1a61f0;fill-rule:evenodd" transform="translate(1.455 1.455)scale(1.52626)"/><path d="M27.466 19.375a4.5 4.5 0 0 0-1.87-.404h-6.527A2.27 2.27 0 0 1 16.8 16.7V8.885h-4.539v10.087a4.54 4.54 0 0 0 4.54 4.538h6.524a2.27 2.27 0 0 1 2.269 2.27v7.817h4.538V23.509c0-1.782-1.043-3.4-2.666-4.134M12.417 26.283v7.624h4.539v-3.086a4.54 4.54 0 0 0-4.539-4.538M26.385 9.196h-.947v3.086a4.54 4.54 0 0 0 4.538 4.538V9.196Z" style="clip-rule:evenodd;fill:#fff;fill-rule:evenodd" transform="translate(1.455 1.455)scale(1.52626)"/></g></svg>