<svg xmlns="http://www.w3.org/2000/svg" xml:space="preserve" id="Hush" x="0" y="0" version="1.1" viewBox="0 0 245 245"><style>.st1{fill:#fff}</style><path id="Main_copy_15" d="M0 122.5C0 190 55 245 122.5 245S245 190 245 122.5 190 0 122.5 0 0 55 0 122.5" style="fill:#2d2d2d"/><g id="Hush-2"><path id="Round1" d="M66.2 63c4 0 7.2 3.2 7.2 7.2v98.5c0 4-3.2 7.2-7.2 7.2s-7.2-3.2-7.2-7.2V70.2c0-4 3.2-7.2 7.2-7.2" class="st1"/><path id="Round2" d="M93 47.5c3.9 0 7 3.1 7 7v59c0 3.9-3.1 7-7 7s-7-3.1-7-7v-59c0-3.9 3.1-7 7-7" class="st1"/><path id="Round3" d="M92.8 133c4 0 7.2 3.2 7.2 7.2v43c0 4-3.2 7.2-7.2 7.2s-7.2-3.2-7.2-7.2v-43c-.1-4 3.1-7.2 7.2-7.2" class="st1"/><path id="Round4" d="M121 39.5c3.9 0 7 3.1 7 7V70c-1.5-2.5-4.1-4-7-4-4.4.1-7 4-7 4V46.5c0-3.9 3.1-7 7-7" class="st1"/><path id="Round5" d="M121 80c3.9 0 7 3.1 7 7v28c-.1 3.1-1.9 3.1-2.5 3-2 0-11.5-12-11.5-12V87c0-3.9 3.1-7 7-7" class="st1"/><path id="Round6" d="M120.8 130.5c4 0 7.2 3.2 7.2 7.2v18c0 4-3.2 7.2-7.2 7.2s-7.2-3.2-7.2-7.2v-18c-.1-4 3.1-7.2 7.2-7.2" class="st1"/><path id="Round7" d="M121 178.5c4 0 5.7-2.4 7-5.2v25c0 4-3.2 7.2-7.2 7.2s-7.2-3.2-7.2-7.2v-25c1.8 3.4 3.4 5.2 7.4 5.2" class="st1"/><path id="Round8" d="M149.5 47.5c4.1 0 7.5 3.4 7.5 7.5v36.5c0 4.1-3.4 7.5-7.5 7.5s-7.5-3.4-7.5-7.5V55c0-4.1 3.4-7.5 7.5-7.5" class="st1"/><path id="Round9" d="M149.5 113c3.9 0 7 3.1 7 7v63.5c0 3.9-3.1 7-7 7s-7-3.1-7-7V120c0-3.9 3.1-7 7-7" class="st1"/><path id="Round10" d="M178.2 63c4 0 7.2 3.2 7.2 7.2v98.5c0 4-3.2 7.2-7.2 7.2s-7.2-3.2-7.2-7.2V70.2c0-4 3.2-7.2 7.2-7.2" class="st1"/></g></svg>