<svg xmlns="http://www.w3.org/2000/svg" xml:space="preserve" viewBox="0 0 490 490"><path d="M0 245c0 135.1 109.9 245 245 245s245-109.9 245-245S380.1 0 245 0 0 109.9 0 245" style="fill:#1aaaba"/><path d="m333.7 180-29.8 29.8c19.8 32.5 9.6 74.8-22.9 94.6-22 13.4-49.7 13.4-71.8 0l-29.8 29.8c48.7 36.3 117.5 26.2 153.8-22.5 14.2-19 21.8-42.1 21.8-65.8.5-23.7-7-47-21.3-65.9m-156.9 65.5c.1-38 30.9-68.8 69-68.7 12.6 0 25 3.5 35.8 10.1l29.8-29.8c-48.7-36.3-117.5-26.2-153.8 22.5-14.2 19-21.8 42.1-21.8 65.8-.1 23.6 7.6 46.6 21.8 65.5l29.8-29.8c-7.1-10.6-10.8-23-10.6-35.6M355.5 108c15.2 0 27.5 12.3 27.5 27.5S370.7 163 355.5 163 328 150.7 328 135.5s12.3-27.5 27.5-27.5M108 355.5c0-15.2 12.3-27.5 27.5-27.5s27.5 12.3 27.5 27.5-12.3 27.5-27.5 27.5-27.5-12.3-27.5-27.5" style="fill:#fff"/></svg>