<svg xmlns="http://www.w3.org/2000/svg" width="250" height="250"><defs><linearGradient id="a" x1="17.337" x2="80" y1="74.339" y2="74.339" gradientUnits="userSpaceOnUse"><stop offset="0" stop-color="gray"/><stop offset=".327" stop-color="#838383"/><stop offset=".59" stop-color="#8d8d8d"/><stop offset=".83" stop-color="#9e9e9e"/><stop offset="1" stop-color="#afafaf"/></linearGradient><linearGradient id="b" x1="48.669" x2="48.669" y1="68.69" y2="80" gradientUnits="userSpaceOnUse"><stop offset=".35" stop-color="#dfdfdf"/><stop offset=".645" stop-color="#ddd"/><stop offset=".752" stop-color="#d6d6d6"/><stop offset=".828" stop-color="#cbcbcb"/><stop offset=".889" stop-color="#bababa"/><stop offset=".941" stop-color="#a4a4a4"/><stop offset=".987" stop-color="#898989"/><stop offset="1" stop-color="gray"/></linearGradient><linearGradient id="c" x1="17.337" x2="80" y1="55.314" y2="55.314" gradientUnits="userSpaceOnUse"><stop offset="0" stop-color="#dfdfdf"/><stop offset=".021" stop-color="#e1e1e1"/><stop offset=".244" stop-color="#f2f2f2"/><stop offset=".487" stop-color="#fcfcfc"/><stop offset=".791" stop-color="#fff"/><stop offset=".841" stop-color="#fcfcfc"/><stop offset=".882" stop-color="#f2f2f2"/><stop offset=".919" stop-color="#e1e1e1"/><stop offset=".954" stop-color="#c9c9c9"/><stop offset=".966" stop-color="#bfbfbf"/><stop offset="1" stop-color="#fff"/></linearGradient><linearGradient id="d" x1="17.337" x2="80" y1="44.88" y2="44.88" gradientUnits="userSpaceOnUse"><stop offset="0" stop-color="#cf2000"/><stop offset=".021" stop-color="#d12201"/><stop offset=".244" stop-color="#e23309"/><stop offset=".487" stop-color="#ec3d0e"/><stop offset=".791" stop-color="#ef4010"/><stop offset=".841" stop-color="#ec3d0f"/><stop offset=".882" stop-color="#e2330d"/><stop offset=".919" stop-color="#d12208"/><stop offset=".954" stop-color="#b90a03"/><stop offset=".966" stop-color="#af0000"/><stop offset="1" stop-color="#ef4010"/></linearGradient></defs><circle cx="125" cy="125" r="125" fill="#cdcdcd" fill-rule="evenodd"/><path fill="#0e3ca5" d="M105.687 164.866c4.822 17.889 22.123 31.535 30.86 30.97.306-.02 33.137-6.158 51.11-36.261 13.984-23.432 9.225-46.054-9.797-46.547-6.845.5-81.356 17.765-72.168 51.843M176.085 49.98l-.019-.017.027-.017a83.485 83.71 0 0 0-87.998-12.73 49.223 49.356 0 0 0-5.275 2.596c-1.172.626-2.344 1.25-3.482 1.934l.278.087a38.034 38.137 0 0 0-8.812 8.362c-23.974 31.738 56.343 54.814 99.29 54.884 19.748 14.22 25.293-40.034 5.991-55.1"/><path fill="#5493f7" d="M92.946 50.618C81.91 67.252 45.156 78.969 39.113 77.144l-.041-.078c.24-.5.499-1 .754-1.496a88.437 88.675 0 0 1 26.207-30.66q3.392-2.494 7.023-4.663a26.014 26.084 0 0 1 12.15-3.244c16.368.314 7.822 13.489 7.732 13.622M83.89 168.137c.793 5.224-.02 25.866-1.085 27.602-.918.055-2.83.174-8.368-2.942A88.097 88.334 0 0 1 34.491 88.23q.441-1.332.923-2.642c6.343 8.46 13.685 16.114 19.924 24.657 5.943 8.135 14.118 21.399 15.782 24.232 10.328 17.592 11.975 28.446 12.763 33.662m122.107-52.01a87.757 87.993 0 0 1-6.126 32.393c-10.367 11.169-80.242-16.324-80.927-16.627-9.559-4.196-38.649-16.975-41.274-37.039-3.764-28.885 54.653-49.008 80.329-49.77 3.078.037 12.447.146 17.91 4.594a87.793 88.03 0 0 1 30.088 66.45m-47.304 78.243c-7.616 3.566-16.004.967-13.824-6.469 4.183-14.284 40.71-28.929 48.777-29.712.996-.1 1.418.58.977 1.356a88.875 89.115 0 0 1-35.923 34.835"/><path fill="url(#a)" d="M17.337 77.254a2.55 2.55 0 0 0 2.329 2.714c30.7.21 60.334-1.2 60.334-5.8 0-13.924-62.663 3.086-62.663 3.086" transform="matrix(2.4109 0 0 2.4174 27.128 21.609)"/><path fill="url(#b)" d="M17.337 77.254a2.55 2.55 0 0 0 2.341 2.714c30.69.233 60.285-.731 60.322-5.8 0-13.924-62.663 3.086-62.663 3.086m2.342 2.537a2 2 0 0 1-.245-.014 2.4 2.4 0 0 1-1.987-1.762 2.37 2.37 0 0 0 2.229 1.76c30.67-.192 59.843-9.635 59.843-5.477 0 4.244-29.171 5.702-59.84 5.493" transform="matrix(2.4109 0 0 2.4174 27.128 21.609)"/><path fill="url(#c)" d="M19.681 37.823a2.344 2.344 0 0 0-2.344 2.344v37.087a2.343 2.343 0 0 0 2.329 2.346C50.364 79.37 80.037 69.208 80 74.168V32.4c.037-4.966-29.626 5.194-60.319 5.423" transform="matrix(2.4109 0 0 2.4174 27.128 21.609)"/><path fill="url(#d)" d="M19.681 37.823a2.344 2.344 0 0 0-2.344 2.344v18.56q1.8 0 3.513-.041t3.356-.1q1.64-.06 3.216-.148t3.095-.2l2.986-.248 2.9-.276 2.826-.3 2.762-.328 2.73-.348 2.7-.377 2.681-.409 2.7-.42 2.718-.44 2.75-.471 2.814-.485 2.884-.5 2.967-.516 3.073-.493 3.3-.464a24.3 24.3 0 0 1 4.279-.228C78.933 52.02 80 52.361 80 53.3V32.4c.037-4.966-29.626 5.194-60.319 5.423" transform="matrix(2.4109 0 0 2.4174 27.128 21.609)"/></svg>