<svg xmlns="http://www.w3.org/2000/svg" width="512" height="512"><path d="M11 256c0 135.094 109.906 245 245 245s245-109.906 245-245S391.094 11 256 11 11 120.906 11 256" style="fill-rule:evenodd;fill:#074ad4;fill-opacity:1"/><g style="fill:#fff"><path d="M192.7 152.5c-1.1-1.1-2.8-1.4-4.7-1.3-1.9.2-3.8.8-5.5 2.2-9.7 8.1-14.4 12.4-23.4 21.2-1.6 1.6-2.5 3.4-2.6 5.1-.2 1.7.3 3.1 1.5 4.1 11.8 10 23.6 20 35.5 30 1.3 1.1 2.8 1.5 4.6 1.3s3.4-1.1 4.8-2.5c8-7.8 12.2-11.6 20.9-18.9 1.5-1.2 2.3-2.7 2.6-4.2.3-1.7 0-3.1-1.2-4.3-10.8-10.9-21.6-21.8-32.5-32.7" class="st2" style="fill:#fff" transform="translate(82.587 85.3)scale(.34646)"/><path d="M907.7 313.7c1.5.6 3 .7 4.5 0 4.2-2 6.3-2.9 10.6-4.9 1.4-.7 2.3-1.9 2.8-3.5.5-1.5.6-3.2-.1-4.8-5.1-11.6-7.9-17.2-14-28.3-8.2 4.5-12.2 6.8-20.4 11.3 5.8 10.6 8.5 16 13.4 27.1.7 1.5 1.8 2.5 3.2 3.1" class="st3" style="fill:#fff" transform="translate(82.587 85.3)scale(.34646)"/><path d="M933.7 257.2S842.8 61.2 609.1 11v30.9l-58.6-13.1V94l58.6 12.1V138s43.7 11.8 95.1 46.4l-62.7 69.7c-41.5-24.5-89.9-38.7-141.5-38.7-52.1 0-100.8 14.4-142.6 39.3l-63.3-69.2c52.1-35.5 96.8-47.5 96.8-47.5v-31.9L449.5 94V28.8l-58.6 13.1V11C157.2 61.2 66.3 257.2 66.3 257.2c-106.2 193-35.4 389-35.4 389L58.1 631l12.6 34.7 56-28.1-11.9-37.9 25.1-14.5c-23.8-167.2 26.5-274.9 88.3-342.7l56.5 62.3c-.1 1.5-.2 3-.2 4.5 0 2.4.2 4.8.5 7.2-40.2 48.5-64.4 110.5-64.4 178.2 0 132 92.2 242.9 215.5 271.8 4.4 11.8 12.1 22 21.9 29.5l-.1 60.6c-66.7-8.8-139.8-39-214.3-106l-35.5 17.9-31.7-36.6-55.9 30 31.7 38.9-26.5 16.9s149 170.3 369.4 170.6c0 0 215.6 15.1 372.4-165.1l-27.1-14.9 39.8-44.9-57.1-31.5-38.9 45.4-27.9-15.4s-87.1 79.6-213.2 95l.1-64.2c8-7.2 14.2-16.3 18-26.6-.1.4-.2.7-.4 1.1 124.8-27.9 218.4-139.4 218.4-272.5 0-68.5-24.8-131.2-65.9-179.9 0 .3-.1.7-.2 1 .3-2.1.4-4.2.4-6.4 0-.5-.1-1-.1-1.5l58.8-64.8c61.5 67.8 111.5 175.5 87.8 342.2l25.1 14.5-11.9 37.9 56 28.1 12.6-34.7 27.2 15.2c.1-.1 70.9-196.1-35.3-389.1M213.1 833.8c-11.3 0-20.5-9.2-20.5-20.5s9.2-20.5 20.5-20.5 20.5 9.2 20.5 20.5-9.2 20.5-20.5 20.5M779.3 807c11.3 0 20.5 9.2 20.5 20.5s-9.2 20.5-20.5 20.5-20.5-9.2-20.5-20.5S768 807 779.3 807M635.5 99.4c-11.3 0-20.5-9.2-20.5-20.5s9.2-20.5 20.5-20.5S656 67.6 656 78.9s-9.2 20.5-20.5 20.5m61.5 60.9c-1.6-.8-2.5-1.9-3-3.2-.5-1.4.6-4.1.6-4.1s-2.2 2.2-3.8 2.6-3.1.2-4.6-.4c-8.7-4-13.2-5.9-22.3-9.5-3.2-1.3-5.6-3.2-6.7-5.8-1.2-2.6-.9-5.4.6-8.1 10.7-19.3 21.5-38.6 32.2-57.9 5.5 1.9 8.2 3 13.5 5-10.4 17.5-20.7 35-31.1 52.5-.8 1.4-.9 2.8-.4 4.1.6 1.3 1.7 2.3 3.4 3 4.6 1.9 6.9 2.9 11.4 4.9 1.5.7 3.1.8 4.7.4 1.7-.4 3.1-1.2 4-2.5 11.4-17.1 22.7-34.1 34.1-51.2 5.1 2.4 7.6 3.6 12.6 6.1-11.8 16.8-23.7 33.7-35.5 50.5-.9 1.3-1.2 2.7-.8 4.1q.6 2.1 3 3.3c4.3 2.2 6.5 3.4 10.7 5.7 1.4.8 3 1 4.6.8 1.7-.2 3.1-1 4.1-2.3 12.8-16.3 25.5-32.7 38.3-49 4.8 2.8 7.1 4.2 11.7 7-14.4 17.5-28.8 35.1-43.3 52.6-2 2.5-4.8 4-8.2 4.5-3.3.5-6.3-.1-9.1-1.7-8-4.9-12.2-7.1-20.7-11.4m16.7 30.7c7.8 5.6 15.8 11.8 23.7 18.5l-49.3 55.1c-7.8-4.7-17-7.4-26.8-7.4-2.8 0-5.6.3-8.3.7zm-52.3 86.2c17.8 0 32.3 14.5 32.3 32.3s-14.5 32.3-32.3 32.3-32.3-14.5-32.3-32.3c0-17.9 14.4-32.3 32.3-32.3m-161.5-44.4c47.2 0 91.4 12.6 129.6 34.5l-2.5 2.8c-11 9.6-18 23.7-18 39.4 0 21.9 13.4 40.6 32.5 48.4v82.4l-126.8 97v-77.4c29.1-7.2 50.7-33.4 50.7-64.8 0-36.9-29.9-66.8-66.8-66.8s-66.8 29.9-66.8 66.8c0 31.3 21.6 57.6 50.7 64.8v77.3l-126.7-96.9v-82.1c19.5-7.6 33.3-26.5 33.3-48.7 0-15.2-6.6-28.9-16.9-38.5h.1l-2.9-3.2c38.4-22.2 83-35 130.5-35M369 309.4c0 17.8-14.5 32.3-32.3 32.3s-32.3-14.5-32.3-32.3 14.5-32.3 32.3-32.3c17.9 0 32.3 14.5 32.3 32.3m-25.1-51.8c-2.3-.3-4.7-.5-7.2-.5-9.1 0-17.6 2.3-25 6.3L263.1 209c7.2-6 14.4-11.7 21.5-16.8zm18.6-199.1c11.3 0 20.5 9.2 20.5 20.5s-9.2 20.5-20.5 20.5S342 90.3 342 79c.1-11.4 9.2-20.5 20.5-20.5M241 103.3c1.4-3.4 4.4-6.3 8.6-8.5 15.4-7.8 30.8-14.9 46.8-21.5 4.4-1.7 8.8-2.2 13.1-1.5q6.45 1.05 8.7 5.1c10.7 19.4 21.5 38.8 32.2 58.2-5.7 2-8.5 3.1-14.1 5.3-10.5-17.6-20.9-35.1-31.4-52.7-.8-1.3-2.4-2-4.4-2.3s-4.2-.2-6.3.7c-12.6 5.2-18.7 8-30.6 14.1-2.2 1.1-3.6 2.6-4.3 4.2s-.7 3 .2 4.2c12.3 16.7 24.5 33.5 36.8 50.2-5.1 2.7-7.6 4.1-12.6 7-14-17.9-28-35.8-41.9-53.8-1.8-2.5-2.1-5.4-.8-8.7m-20.4 8.3 51 61.5c-4.8 3-7.2 4.6-11.8 7.8-17.7-20-35.4-40.1-53-60.1 5.4-3.8 8.2-5.6 13.8-9.2m-191 333.8c.1-4.5 1.4-8.2 3.9-11 2.4-2.8 5.2-3.9 8.2-3.3 22.5 4.4 45 8.7 67.5 13.1-.4 5.6-.5 8.4-.7 14.1-20.7-3.4-41.3-6.7-62-10.1-1.5-.2-2.8.5-3.9 1.9-1.1 1.3-1.8 3.1-1.9 5.3-.2 13.1 0 19.7.8 32.9.2 2.4.9 4.5 2.2 6.1 1.2 1.6 2.5 2.5 4 2.6 20.6 1.4 41.2 2.9 61.8 4.3.5 5.8.8 8.7 1.5 14.6-22.4-.9-44.8-1.7-67.2-2.6-3-.1-5.9-1.8-8.4-5.1-2.6-3.4-4.1-7.6-4.5-12.4-1-16.9-1.5-33.5-1.3-50.4m50 160.4c-11.3 0-20.5-9.2-20.5-20.5s9.2-20.5 20.5-20.5 20.5 9.2 20.5 20.5c-.1 11.4-9.2 20.5-20.5 20.5M38 547.4c-1.3-6.9-2-10.4-3-17.3 26 .2 52 .3 78.1.5.9 5.9 1.4 8.8 2.6 14.8-25.9.6-51.8 1.3-77.7 2m76.5-144.7c-25.9-7.4-51.9-14.9-77.8-22.3 1.2-6.3 1.8-9.5 3.3-15.8l77.4 24.6c-1.4 5.4-1.9 8.1-2.9 13.5m6.1-26.7c-25.6-9-51.2-17.9-76.8-26.9 1.7-6.2 2.6-9.2 4.4-15.3 21.8 8.3 43.5 16.6 65.3 24.9 5.5-17.6 12.4-34.8 20.6-51.3 4.2 2.1 6.2 3.2 10.4 5.4-9.7 20.7-17.4 41.3-23.9 63.2m36.7-86.8c-1.9 3.2-4.5 5.6-7.7 6.7-3.1 1.1-6.3.9-9.2-.7-17.1-9.4-34.1-18.9-51.2-28.3-2.8-1.5-4.5-4.2-5.1-7.8-.5-3.8.4-7.7 2.6-11.5 10.8-18.1 23.1-35.2 36.6-51.4 3.7 2.8 5.6 4.2 9.3 7-11.6 13.8-22.2 28.4-31.8 43.7-1.2 1.9-1.6 3.8-1.3 5.7.2 1.7 1 3.1 2.3 3.9 13.4 7.9 26.9 15.9 40.3 23.8 1.5.9 3 1 4.6.5s2.9-1.7 4-3.4c8.6-13.7 18.1-26.7 28.4-39.1 3.7 2.8 5.6 4.2 9.3 7-11.4 13.8-21.8 28.5-31.1 43.9m49.5-64c-2.7 2.7-5.8 4.5-9.3 5-3.4.5-6.6-.3-9.1-2.4-15.2-12.1-30.3-24.2-45.5-36.3-2.5-2-3.7-4.8-3.4-8.4.3-3.7 2.1-7.3 5.2-10.5 11.3-11.5 23.2-22.3 35.8-32.4 3.4-2.8 7.2-4.3 11.4-4.6 4.1-.3 7.2.7 9.4 3l39.3 42c2.2 2.4 3 5.3 2.3 8.5s-2.5 6-5.5 8.4c-13 10.5-19.1 16-30.6 27.7m29.3 9c6-6.2 12.1-12.1 18.3-17.5l47.9 53.5a51.36 51.36 0 0 0-14.4 21zM431.8 743c0 1.8.2 3.6.3 5.4 0-.3-.1-.6-.1-.9-111.6-30-194.1-132-194.1-252.9 0-59.6 20.1-114.6 53.7-158.7 6.3 10.6 16.3 18.8 28.2 22.9v98.8l162.7 124.9v95.7c-29.1 7.3-50.7 33.5-50.7 64.8M259.3 893c13.8-22.6 27.6-45.3 41.4-67.9 5.4 3.3 8.2 4.9 13.7 8-12.9 23.2-25.7 46.4-38.6 69.6-6.7-3.7-10-5.7-16.5-9.7m121.2 51.9c-30.5-8.9-59.2-19.8-87.9-33.4l35.7-71.1c5.6 2.8 8.5 4.2 14.2 6.7-9.3 20.7-18.7 41.4-28 62.1 22.7 9.6 45.3 17.7 69 24.6-1.2 4.5-1.8 6.7-3 11.1M492 892.3c-18.6-.8-36.6-2.4-55.1-5-2.3-.4-4.3 0-5.9.8s-2.6 1.9-2.9 3.5c-3.3 17.9-4.9 26.8-8.2 44.7q-.45 2.4 1.8 4.5c1.5 1.3 3.5 2.2 6.1 2.7 20.8 3.4 41.9 5.3 63 5.7-.1 4.5-.1 6.8-.2 11.4-24.9-1-49.1-3.5-73.8-7.4-5.1-.9-9.5-2.9-12.5-5.7-2.9-2.8-4-6-3.3-9.1 4.1-18.5 8.3-37 12.4-55.4q1.05-4.5 6-6.9c3.4-1.6 7.3-1.9 11.6-1.2 20.2 3.7 40.6 5.7 61.1 6.1.1 4.5 0 6.8-.1 11.3m2.4-33c-8.2-.2-16.5-.6-24.9-1.4l.1-54.7c7.6 3.7 16 5.9 24.9 6.5zm11.2 0 .1-50c9.4-1 18.2-3.9 26-8.3l-.1 57c-8.5.8-17.2 1.2-26 1.3m128.1 1.3q3.15-4.8 9.3-7.2c14.6-5.9 28.8-12.6 42.5-20.3 3.7-2.1 7.5-3 11.4-2.6 3.9.3 6.6 1.7 8.2 4.4 11.8 19.4 23.7 38.8 35.5 58.2-6.6 4-9.9 5.9-16.6 9.6-10.1-18.2-20.2-36.4-30.3-54.7-.7-1.3-2.2-2-4.1-2.2-1.8-.2-3.8.1-5.8 1.1-11.5 6.1-17.4 8.8-29.2 13.9-2.2.9-3.7 2.3-4.7 3.9-.9 1.5-1.2 3.1-.6 4.5 7.8 19.3 15.6 38.6 23.4 58-7 2.8-10.5 4.2-17.6 6.7-7.6-21.4-15.2-42.8-22.9-64.2-1-3-.5-6.1 1.5-9.1m-20 3.2c7.9 25.3 15.7 50.6 23.6 75.9-7.2 2.2-10.7 3.3-18 5.2-6.8-25.6-13.7-51.2-20.5-76.8 6-1.6 9-2.5 14.9-4.3m-45 11c4.1-.7 7.8-.4 11.3 1.2s5.6 3.8 6.3 6.8c4.1 18.5 8.3 37 12.4 55.4.7 3.1-.5 6.3-3.6 9.1s-7.2 4.7-12.2 5.7c-18.5 3-36.6 5.2-55.3 6.7-5.2.3-9.8-.5-13.4-2.6-3.5-2-5.3-4.8-5.3-8-.4-18.9-.8-37.9-1.1-56.8-.1-3.1 1.4-5.8 4.2-8.1 2.9-2.3 6.6-3.6 10.9-3.9 18.4-1 27.6-2.1 45.8-5.5m-70-84.5c-26.1 0-47.3-21.1-47.3-47.2s21.2-47.2 47.3-47.2S546 717 546 743.1c-.1 26-21.2 47.2-47.3 47.2m263.2-295.6c0 121.9-83.7 224.6-196.7 253.7v.3c.2-1.9.3-3.7.3-5.6 0-31.3-21.6-57.6-50.7-64.8v-95.6l162.8-125v-98.6c12.8-4.2 23.4-13.1 29.7-24.8-.1.1-.1.2-.2.4 34.3 44.3 54.8 99.8 54.8 160m-50.8-201.3c-2.7-8.4-7.5-15.8-13.7-21.7l48.8-54.5c6.1 5.5 12.2 11.4 18.2 17.6zm96.9-97.6c-12-11.1-24.7-21-37.8-30.7-6.1 6.8-9.2 10.1-15.4 16.9 12.6 9 24.7 18.8 36.1 29.3-3.4 3.1-5.1 4.7-8.5 7.8-13.9-12.9-28.9-24.7-44.8-35.2l52.2-60.3c18.4 12.8 35.6 26.3 52.4 41.2-3.4 3.1-5.1 4.7-8.5 7.8-13.1-11.6-26.4-22.4-40.4-32.8-6.1 6.8-9.2 10.1-15.4 16.9 13.4 10 26.1 20.3 38.7 31.4-3.5 3-5.2 4.6-8.6 7.7m12.1 64.2c18.9-13.5 37.8-27 56.8-40.5-6.2-8-9.5-11.9-16.3-19.5 3.6-2.9 5.5-4.3 9.1-7.2 14.1 16.6 26.9 33.5 39 51.6-4 2.4-6 3.7-9.9 6.1-5.4-8.5-8.3-12.7-14.2-20.9-19.2 13.1-38.5 26.2-57.7 39.2-2.8-3.6-4.1-5.3-6.8-8.8m43.6 73.2c6.5-14.4 12.3-29.1 17.3-44.1-12.2 6.8-18.4 10.1-30.6 16.9-2.1-3.9-3.2-5.8-5.4-9.6l70.5-41.1c8.5 15.1 16.1 30.2 23.3 46 1.4 3.2 1.5 6.5.3 9.8s-3.2 5.6-6.1 6.8c-8.5 3.7-12.8 5.6-21.3 9.3q-4.5 1.95-9 0c-2.8-1.2-4.9-3.4-6.2-6.4-5.3-12.4-8.7-18.8-8.7-18.8-5.5 14.9-11.8 29.5-18.8 43.8-2.1-5-3.1-7.5-5.3-12.6m21.1 66.2c-2.8-13.2-4.5-19.7-8.5-32.4-.9-3-.8-6 .5-8.8s3.7-4.9 6.7-6.1l64.5-26.4c1.7 4.9 2.5 7.4 4.1 12.3-19.9 7.6-39.7 15.2-59.6 22.8-1.6.6-2.7 1.6-3.4 3q-1.05 2.1-.3 4.5c2.6 8.8 3.8 13.2 5.8 22.2.3 1.5 1.2 2.6 2.4 3.4 1.3.8 2.7 1 4.3.6 20.2-6.2 40.5-12.3 60.7-18.5 1.1 5.2 1.6 7.7 2.5 13-22.2 6.2-44.4 12.4-66.5 18.5-3.1.9-6 .5-8.6-1.1-2.4-1.7-4-4.1-4.6-7m15.1 19.4c2.3 16.1 3.1 24.3 3.7 41 .1 1.6.7 2.9 1.7 3.8 1.1 1 2.4 1.5 4.1 1.3 4.5-.7 6.7-1 11.2-1.7 1.5-.2 2.8-1.2 3.8-2.5s1.7-2.9 1.6-4.6c-.4-12.4-.9-18.6-2.3-30.8-.4-3.4.3-6.7 2-9.5 1.8-2.8 4.4-4.7 7.5-5.4 8.9-2.3 13.4-3.4 22.3-5.6 3-.8 5.9-.2 8.3 1.7 2.5 2 4.1 5 4.5 8.7 2 17.9 2.9 36 2.7 54.1-4.5.6-6.7.9-11.2 1.4.2-15.5-.4-31-1.9-46.4-.2-1.9-1-3.3-2.2-4.3-1.2-.9-2.5-1.3-4-.9-4.5 1-6.7 1.5-11.2 2.5-1.6.4-2.9 1.3-3.8 2.7s-1.3 3-1.1 4.8c1.2 12.5 1.6 18.8 1.8 31.6.1 3.5-1 6.6-3.3 9.5-2.2 2.8-4.9 4.4-7.9 4.8-9 1.1-13.5 1.7-22.5 2.8-3.2.4-5.9-.4-8-2.5-2.1-2-3.2-4.6-3.2-7.8-.3-15.3-1.5-30.6-3.7-45.8 4.4-1.2 6.6-1.8 11.1-2.9m24.2 187c-11.3 0-20.5-9.2-20.5-20.5s9.2-20.5 20.5-20.5 20.5 9.2 20.5 20.5c-.1 11.4-9.2 20.5-20.5 20.5m38.1-52.7c-4.4-.1-6.6-.2-11-.3 2.2-11.1 3.1-16.7 4.6-27.7-22.3.5-44.6 1-66.8 1.5.7-4.8.9-7.2 1.4-12 22.4-1.1 44.7-2.2 67.1-3.3 1.2-11 1.6-16.4 2-27.2 4.5-.5 6.7-.7 11.2-1.1-1.5 23.7-4.3 46.7-8.5 70.1" class="st4" style="fill:#fff" transform="translate(82.587 85.3)scale(.34646)"/><path d="M529.5 946.6c1.8 1 4 1.3 6.6 1.1 14.4-1.2 21.6-2 35.9-4.3 2.4-.4 4.4-1.3 5.9-2.6 1.6-1.4 2.4-2.9 2.1-4.5-3.3-17.9-4.9-26.8-8.2-44.7-.3-1.5-1.5-2.6-3.2-3.4-1.6-.8-3.6-1.2-5.7-.8-12.5 2-18.8 2.8-31.4 3.8-2.3.2-4.1 1-5.5 2.2s-2.1 2.5-2 4c1.1 18.1 1.6 27.2 2.7 45.4.1 1.6 1 2.9 2.8 3.8" class="st5" style="fill:#fff" transform="translate(82.587 85.3)scale(.34646)"/></g></svg>