<svg xmlns="http://www.w3.org/2000/svg" width="216" height="216"><linearGradient id="a" x1="7.665" x2="22.644" y1="36.23" y2="10.283" gradientUnits="userSpaceOnUse"><stop offset="0" stop-color="#174e5b"/><stop offset=".07" stop-color="#195a6c"/><stop offset=".21" stop-color="#1e779a"/><stop offset=".4" stop-color="#27a7e3"/><stop offset=".47" stop-color="#2abaff"/><stop offset=".7" stop-color="#1ddaf0"/><stop offset="1" stop-color="#0effe0"/></linearGradient><linearGradient id="b" x1="33.338" x2="18.357" y1="3.771" y2="29.715" gradientUnits="userSpaceOnUse"><stop offset="0" stop-color="#174e5b"/><stop offset=".07" stop-color="#195a6c"/><stop offset=".21" stop-color="#1e779a"/><stop offset=".4" stop-color="#27a7e3"/><stop offset=".47" stop-color="#2abaff"/><stop offset=".7" stop-color="#1ddaf0"/><stop offset="1" stop-color="#0effe0"/></linearGradient><path fill="url(#a)" d="M25.9 38.9c-.1-.1-.2-.2-.3-.2-2.3-.5-4.6-1.3-6.6-2.5-4.2-2.5-7-6.2-7.1-10.5 0-1.6.3-3.2 1-4.7.4-1 2.8-4.4 3.1-5 1.6-2.5 1.1-2.3-1.2-5.4l-3.2-4.7-2.1-3.2C8.3 3.5 7.1 4.5 6 5.5c-2.2 2.2-3.9 5-4.9 8s-1.3 6.2-.9 9.3 1.6 6.1 3.4 8.7 4.2 4.8 6.9 6.3C3.4 32.6.1 24.7 2.8 16.8c.7-2.1 1.8-4.1 3.2-5.9l2.3 3.4c.1.2.2.4.2.7 0 .2-.1.5-.2.7-1.1 1.4-2 2.9-2.6 4.6-3 8.7 5.1 17.7 13.6 19.2 1.6.3 4.6.6 6.2.2.1 0 .2-.1.2-.1.1-.1.1-.1.1-.2v-.3c.2 0 .2-.1.1-.2" style="fill:url(#a)" transform="matrix(5.2628 0 0 5.4291 -.15 -.582)"/><path fill="url(#b)" d="M15.1 1.1c.1.1.2.2.3.2 2.3.5 4.6 1.3 6.6 2.5 4.2 2.5 7 6.2 7.1 10.5 0 1.6-.3 3.2-1 4.7-.4 1-2.8 4.4-3.1 5-1.6 2.5-1.1 2.3 1.2 5.4l3.2 4.7 2.2 3.2c1.2-.8 2.4-1.8 3.5-2.8 2.2-2.2 3.9-5 4.9-8s1.3-6.2.9-9.3-1.6-6.1-3.4-8.7-4.2-4.8-6.9-6.3c7.1 5.2 10.4 13.1 7.6 21-.7 2.1-1.8 4.1-3.2 5.9l-2.3-3.4c-.1-.2-.2-.4-.2-.7 0-.2.1-.5.2-.7 1.1-1.4 2-2.9 2.6-4.6C38.3 11 30.2 2 21.7.5c-1.6-.3-4.6-.6-6.2-.2-.1 0-.2.1-.2.1-.2 0-.3.1-.3.2v.3s0 .1.1.2" style="fill:url(#b)" transform="matrix(5.2628 0 0 5.4291 -.15 -.582)"/></svg>