<svg xmlns="http://www.w3.org/2000/svg" xml:space="preserve" viewBox="0 0 490 490"><path d="M0 245c0 135.1 109.9 245 245 245s245-109.9 245-245S380.1 0 245 0 0 109.9 0 245" style="fill:#263238"/><path d="M145.4 260h5.4v6.4l-38.4 10.1H107v-6.4zm23.4 56.2v5.6h5.6l18.1-19.5v-5.6h-5.6zM107 377.4v5.6h5.6l38.1-39v-5.6h-5.6zm114.6-55.6 8.9-19.7v-5.4h-5.8l-8.9 19.7v5.4zm-29.1-170.2V146l-26.9-39H160v5.5l26.9 39zm-32.6 225.9v5.5h5.8l26.9-39v-5.5h-5.8zm-52.8-163.9v6.4l38.4 10.1h5.4v-6.4l-38.4-10.1zm0-106.6v5.6l38.1 38.9h5.6V146l-38.1-39zm0 217.5v5.8h5.5l38.1-27.9v-5.7h-5.5zm214.8-48.4v-5.7l-19-10.2h-5.5v5.7l19 10.2zm0-56.3v-5.7h-5.5l-19 10.2v5.7h5.5zm-106.1-51.5v5.4l8.9 19.6h5.8v-5.4l-8.9-19.6zm105.4 5.5v-5.6h-5.6l-18.1 19.5v5.6h5.6zm-53.7 47.6H259v8.5h8.5zm-36.6-69.8v-5.3l-9.4-39.2h-6.4v5.3l9.4 39.2zm28.6 145.1v5.4l8.9 19.7h5.8v-5.4l-8.9-19.7zm14.7-128.4h-5.8l-8.9 19.7v5.4h5.8l8.9-19.7zM107 159.9v5.7l38.2 27.7h5.5v-5.7l-38.2-27.7zm232.2 136.8v5.7l38.2 27.8h5.6v-5.7l-38.2-27.8zM297.5 146v5.5h5.8l26.9-39V107h-5.8zm41.7 192.4v5.6l38.1 39h5.7v-5.6l-38.2-39zm-41.7 0v5.5l26.9 39h5.8v-5.5l-27-39zm23.7-16.6v-5.6l-18.1-19.5h-5.6v5.6l18.1 19.5zM377.3 107l-38.1 39v5.6h5.6l38.2-39V107zm-38.1 80.6v5.8h5.5l38.2-27.8v-5.7h-5.5zm0 36v6.4h5.4l38.4-10v-6.4h-5.4zm0 36.4v6.4l38.4 10.1h5.4V270l-38.4-10zM215.1 377.7v5.3h6.4l9.4-39.2v-5.3h-6.4zm-47-107.5v5.7h5.5l19-10.2V260h-5.5zm.7-102v5.6l18.1 19.6h5.6v-5.6l-18.1-19.5zm53.6 100.3h8.5V260h-8.5zM168.1 214v5.8l19 10.2h5.5v-5.7l-19-10.2zm91 124.4v5.3l9.4 39.2h6.4v-5.3l-9.4-39.2zm0-192.2v5.3h6.4l9.4-39.2V107h-6.4zm-36.7 83.7h8.5v-8.5h-8.5zm45.1 30.1H259v8.5h8.5z" style="fill:#fff"/></svg>