<svg xmlns="http://www.w3.org/2000/svg" viewBox="0 0 490 490"><defs><style>.b{fill:#fff}</style></defs><rect width="490" height="490" rx="60.06" ry="60.06" style="fill:#79d694"/><path d="M251.65 298.54A36.77 36.77 0 0 0 270.1 296l-4.69 14.41 8.9 12.79a31.1 31.1 0 0 1-14.89 3.8c-8.58 0-12.47-4.85-12.47-4.85 2.91-7.13 0-17 0-17a26.2 26.2 0 0 0 4.7-6.61M135.78 302.26s3.4-5.06 5.61-9.27c0 0 18.73-6.54 24.34-9.56 0 0-9.93 7.55-9.93 13.6a72 72 0 0 0 .86 11l4.1 8.85s-1.48 5.57-16.62 3.89c-10.73-1.2-9.84-7.17-9.84-7.17Z" class="b"/><path d="M53 261.62c3.47 3.21 10.16 1.81 13.44 1.14 7.62-1.58 10.88-5.87 18.46-5.67a20.5 20.5 0 0 1 5.66 1 22.9 22.9 0 0 0-3.88 8.26c-2.13 8.87 1.93 16.2 3.07 18.13 1.59-1.42 9.59-8.88 9.07-19.59-.09-1.88-.46-9.54-5.67-12.79-3.36-2.1-7.2-1.37-14.73.16-10.73 2.19-14.65 5.34-16.84 3.4-2.77-2.46.53-10.18 1.3-12 .68-1.61 5-11.69 14.41-14.25 4.54-1.23 6.87.21 14.57 1.46a92.5 92.5 0 0 0 22.5.81A37.53 37.53 0 0 1 131.19 220c-13.12 7.46-17.86 15.43-19.75 21.37-2.84 8.93 0 15.58-4.54 25.58a37.7 37.7 0 0 1-11 13.77 82.74 82.74 0 0 1-12.3 45.81q-1.6 9.89-3.09 19.77a30 30 0 0 0 31.57 1.62l-11.49-17.16c1.08-6.81 3.66-16.25 10.68-24.45 7.78-9.08 12.14-13 32.71-19.75 19.11-6.31 24.55-14.87 30-25.91 4.8-9.8 4.45-19.72 3.56-26.07a44.06 44.06 0 0 1-.65 27.85 43 43 0 0 1-11 16.52 106.13 106.13 0 0 0 85.33 11l18.78-22 10 4.37 15.22-8.42A164 164 0 0 0 251 251.75c-.89-2.65-7.47-23.38 4.85-40.8a72.37 72.37 0 0 0-2.91 36.91s13.76.16 33.67 7.94 24 13.11 24 13.11l-8.26-3.56-23.48 13.11-8.58-6-14.89 21.21 19.1-1s8.26 7.29 13.44 6.8c0 0 7.77-11 15.22-13.28s21.86 0 21.86 0l1.45-22.5-26.55-27.36s13.44-20.89 4.7-36.6c0 0 11 10-.33 34.33l23.64 24.77 2.75-6.48s-6.8-18.45 6-29.62c0 0-4.86 7.28-3.88 18.77s2.59 20.57 2.59 20.57l3.39-2.59a79 79 0 0 0-4.89 10.52c-1.3 4-.65 9.07 3.4 11.17s18.94 2.59 18.94 2.59-1.13-8.41 4-14.57 15.54-12.63 15.54-12.63S381 240.41 386 238l-7.61-.81s4.7-4 12.79-1.78 20.73 11.34 30.76 12.79 19.7-7.54 19.7-7.54c-2.08.8-8.86 3.84-12.9 3.34-8.16-1-10.51-7.19-23.31-16-9.82-6.79-15-7.68-16.84-7.94-5.34-.72-12.79 1.14-12.79 1.14s5.34-3.4 10.52-3.4a206.06 206.06 0 0 0-114.46-77.39 241.3 241.3 0 0 1-43.56 37.56 242.5 242.5 0 0 1-73.5 33.19l22.66-10.85a148.2 148.2 0 0 0-30.92 4.86c-17.73 4.74-18.39 8.47-31.57 10.52-17.9 2.79-23.3-3-37.56 2.43a41.1 41.1 0 0 0-16.82 11.28C51.78 239.54 47 256.12 53 261.62m312-18.45s3.4 3.56 3.24 6.63-3.24 4.54-3.24 4.54a12 12 0 0 1-2.27-4.7c-.34-2.26 2.27-6.47 2.27-6.47" class="b"/></svg>