<svg xmlns="http://www.w3.org/2000/svg" xmlns:xlink="http://www.w3.org/1999/xlink" width="250" height="250"><defs><linearGradient xlink:href="#a" id="b" x1="17.336" x2="80" y1="74.339" y2="74.339"><stop offset="0" stop-color="#030"/><stop offset=".325" stop-color="#003600"/><stop offset=".585" stop-color="#004000"/><stop offset=".823" stop-color="#005100"/><stop offset="1" stop-color="#006300"/></linearGradient><linearGradient xlink:href="#a" id="c" x1="48.668" x2="48.668" y1="68.69" y2="80"><stop offset=".35" stop-color="#209300"/><stop offset=".645" stop-color="#1f9100"/><stop offset=".752" stop-color="#1d8a00"/><stop offset=".828" stop-color="#197f00"/><stop offset=".889" stop-color="#136e00"/><stop offset=".941" stop-color="#0c5800"/><stop offset=".987" stop-color="#033d00"/><stop offset="1" stop-color="#003400"/></linearGradient><linearGradient xlink:href="#a" id="d" x1="17.336" x2="80" y1="44.879" y2="44.879"><stop offset="0" stop-color="#f87f00"/><stop offset=".021" stop-color="#f88102"/><stop offset=".244" stop-color="#fc9213"/><stop offset=".487" stop-color="#fe9c1d"/><stop offset=".791" stop-color="#ff9f20"/><stop offset=".841" stop-color="#fd9c1e"/><stop offset=".882" stop-color="#f79219"/><stop offset=".919" stop-color="#ed8111"/><stop offset=".954" stop-color="#de6905"/><stop offset=".966" stop-color="#d85f00"/><stop offset="1" stop-color="#ff9f20"/></linearGradient><linearGradient xlink:href="#a" id="e" x1="17.336" x2="80" y1="65.749" y2="65.749"><stop offset="0" stop-color="#209200"/><stop offset=".03" stop-color="#239503"/><stop offset=".25" stop-color="#33a613"/><stop offset=".491" stop-color="#3db01d"/><stop offset=".791" stop-color="#40b320"/><stop offset=".841" stop-color="#3db01e"/><stop offset=".881" stop-color="#33a619"/><stop offset=".918" stop-color="#229511"/><stop offset=".953" stop-color="#0b7d06"/><stop offset=".966" stop-color="#007200"/><stop offset="1" stop-color="#40b320"/></linearGradient><linearGradient xlink:href="#a" id="f" x1="17.336" x2="80" y1="55.314" y2="55.314"><stop offset="0" stop-color="#dfdfdf"/><stop offset=".021" stop-color="#e1e1e1"/><stop offset=".244" stop-color="#f2f2f2"/><stop offset=".487" stop-color="#fcfcfc"/><stop offset=".791" stop-color="#fff"/><stop offset=".841" stop-color="#fcfcfc"/><stop offset=".882" stop-color="#f2f2f2"/><stop offset=".919" stop-color="#e1e1e1"/><stop offset=".954" stop-color="#c9c9c9"/><stop offset=".966" stop-color="#bfbfbf"/><stop offset="1" stop-color="#fff"/></linearGradient><linearGradient xlink:href="#a" id="g" x1="17.335" x2="80.001" y1="56.155" y2="56.155"><stop offset="0" stop-color="#0050cf"/><stop offset=".021" stop-color="#0252d1"/><stop offset=".244" stop-color="#1363e2"/><stop offset=".487" stop-color="#1d6dec"/><stop offset=".791" stop-color="#2070ef"/><stop offset=".841" stop-color="#1e6dec"/><stop offset=".882" stop-color="#1963e2"/><stop offset=".919" stop-color="#1152d1"/><stop offset=".954" stop-color="#053ab9"/><stop offset=".966" stop-color="#0030af"/><stop offset="1" stop-color="#2070ef"/></linearGradient><linearGradient id="a" gradientUnits="userSpaceOnUse"/></defs><circle cx="125" cy="125" r="125" fill="#cdcdcd" fill-rule="evenodd"/><path fill="#0e3ca5" d="M105.687 164.864c4.822 17.889 22.123 31.535 30.86 30.972.306-.022 33.137-6.16 51.11-36.261 13.984-23.432 9.225-46.052-9.797-46.547-6.845.502-81.356 17.765-72.168 51.843m70.393-114.894-.019-.017.027-.014a83.494 83.72 0 0 0-87.998-12.733 48.787 48.918 0 0 0-5.275 2.599c-1.172.624-2.344 1.247-3.482 1.934l.278.084a38.044 38.147 0 0 0-8.812 8.365c-23.974 31.735 56.343 54.814 99.29 54.882 19.748 14.221 25.293-40.032 5.991-55.1"/><path fill="#5493f7" d="M92.946 50.618C81.91 67.249 45.156 78.967 39.113 77.14l-.041-.077q.373-.752.754-1.496a88.437 88.675 0 0 1 26.207-30.66q3.392-2.49 7.023-4.66A26.038 26.108 0 0 1 85.206 37c16.368.314 7.822 13.489 7.732 13.622M83.89 168.135c.793 5.224-.02 25.866-1.085 27.601-.918.056-2.83.175-8.368-2.942A88.097 88.334 0 0 1 34.491 88.228q.441-1.33.923-2.643c6.343 8.461 13.685 16.112 19.924 24.658 5.943 8.137 14.118 21.399 15.782 24.232 10.328 17.594 11.975 28.445 12.763 33.662m122.107-52.022a87.757 87.993 0 0 1-6.126 32.407c-10.367 11.169-80.242-16.324-80.927-16.624-9.559-4.2-38.649-16.978-41.274-37.042-3.764-28.888 54.653-49.008 80.329-49.772 3.078.037 12.447.145 17.91 4.593a87.793 88.03 0 0 1 30.088 66.438m-47.304 78.258c-7.619 3.563-16.004.967-13.824-6.471 4.183-14.285 40.71-28.93 48.777-29.734.996-.1 1.418.582.977 1.356a88.88 89.12 0 0 1-35.923 34.837"/><path fill="url(#b)" d="M17.336 77.254a2.55 2.55 0 0 0 2.328 2.714c30.7.21 60.336-1.2 60.336-5.8 0-13.924-62.664 3.086-62.664 3.086" transform="matrix(2.4109 0 0 2.4174 27.128 21.609)"/><path fill="url(#c)" d="M17.336 77.254a2.55 2.55 0 0 0 2.34 2.714c30.692.233 60.287-.731 60.324-5.8 0-13.924-62.664 3.086-62.664 3.086m2.342 2.537a2 2 0 0 1-.245-.014 2.4 2.4 0 0 1-1.987-1.763 2.37 2.37 0 0 0 2.229 1.761c30.67-.192 59.844-9.635 59.844-5.477 0 4.244-29.172 5.702-59.841 5.493" transform="matrix(2.4109 0 0 2.4174 27.128 21.609)"/><path fill="url(#d)" d="m24.206 58.581 3.216-.147 3.094-.2 2.986-.248 2.9-.276 2.826-.3 2.762-.328 2.73-.349 2.7-.375 2.68-.409 2.7-.42 2.717-.441 2.75-.47 2.815-.484q1.425-.246 2.884-.5l2.968-.518 3.073-.492 3.3-.464a24.4 24.4 0 0 1 4.279-.229c1.348.089 2.414.43 2.414 1.369V32.4c.037-4.961-29.627 5.2-60.32 5.429a2.343 2.343 0 0 0-2.344 2.343v18.56l3.514-.04z" transform="matrix(2.4109 0 0 2.4174 27.128 21.609)"/><path fill="url(#e)" d="M19.664 79.6C50.363 79.37 80.037 69.209 80 74.169V53.3c0-.936-1.066-1.277-2.41-1.369a24.4 24.4 0 0 0-4.279.229 102 102 0 0 0-3.3.464l-3.073.492-2.968.518-2.884.5-2.815.484-2.75.47-2.717.441-2.7.42-2.68.409-2.7.375-2.73.349-2.762.328-2.826.3-2.9.276-2.986.248-3.094.2-3.216.147-3.356.1-3.514.04v18.533a2.343 2.343 0 0 0 2.324 2.346" transform="matrix(2.4109 0 0 2.4174 27.128 21.609)"/><path fill="url(#f)" d="M77.591 44.965a24.4 24.4 0 0 0-4.28.227l-3.3.464-3.073.5-2.968.516-2.883.5-2.816.483-2.748.471-2.717.441-2.705.419-2.679.41-2.7.375-2.731.349-2.762.33-2.824.3-2.9.275-2.986.249-3.094.2a193 193 0 0 1-10.086.294V65.69q1.8 0 3.512-.04t3.356-.1q1.639-.063 3.218-.15t3.094-.2q1.52-.113 2.986-.25t2.9-.273q1.431-.142 2.825-.3l2.763-.328 2.726-.349 2.7-.375 2.682-.411 2.7-.419 2.718-.439 2.751-.471 2.815-.485 2.884-.5 2.968-.516 3.073-.493 3.3-.465a24.5 24.5 0 0 1 4.279-.229c1.344.091 2.409.434 2.41 1.37V46.336c.001-.936-1.064-1.28-2.408-1.371" transform="matrix(2.4109 0 0 2.4174 27.128 21.609)"/><path fill="url(#g)" d="M51.775 50.536a5.5 5.5 0 0 0-3.02-.35 7 7 0 0 0-3.005 1.253 7.4 7.4 0 0 0-2.15 2.427 6.5 6.5 0 0 0-.819 3.117 5.37 5.37 0 0 0 .819 2.909 4.9 4.9 0 0 0 2.149 1.857 5.33 5.33 0 0 0 3.009.377 6.86 6.86 0 0 0 3.017-1.281 7.5 7.5 0 0 0 2.147-2.481 6.7 6.7 0 0 0 .816-3.147 5.25 5.25 0 0 0-.814-2.879 4.77 4.77 0 0 0-2.149-1.802m-6.394 2.129a.26.26 0 0 0 .36-.008.27.27 0 0 0 .052-.365 7 7 0 0 1 .736-.522.237.237 0 0 0 .336.084.3.3 0 0 0 .143-.353l.4-.184.411-.156a.22.22 0 0 0 .289.174.31.31 0 0 0 .223-.316l.42-.087c.142-.022.284-.033.424-.044a.217.217 0 0 0 .224.248.31.31 0 0 0 .289-.26c.141 0 .278.012.415.028l.405.065a.23.23 0 0 0 .144.31.3.3 0 0 0 .336-.185l.378.137a4 4 0 0 1 .36.17.25.25 0 0 0 .051.351.284.284 0 0 0 .361-.1l.315.237a4 4 0 0 1 .287.27.27.27 0 0 0-.043.364.255.255 0 0 0 .359 0 4 4 0 0 1 .225.321c.072.11.136.228.2.345a.3.3 0 0 0-.133.356.23.23 0 0 0 .332.09l.125.385-3.077 1.121-.984.544a1 1 0 0 0-.064-.144l.974-.565 2.626-2.128-2.8 1.846-.847.764a1 1 0 0 0-.1-.115l.832-.782 2.1-2.668-2.35 2.453-.654.933a1 1 0 0 0-.131-.083l.633-.942 1.415-3.02-1.726 2.888-.415 1.036a1 1 0 0 0-.154-.038l.394-1.044.638-3.169-.984 3.131-.149 1.064a1 1 0 0 0-.166.009l.125-1.069-.178-3.107-.178 3.162.125 1.03a1 1 0 0 0-.164.044l-.148-1.02-.978-2.831.634 2.976.391.921a1 1 0 0 0-.152.087l-.414-.91-1.718-2.373 1.409 2.6.629.749a1 1 0 0 0-.129.124l-.651-.735-2.33-1.75zm-.919 1.135a.277.277 0 0 0 .358-.1.25.25 0 0 0-.041-.354c.092-.12.2-.225.3-.339l2.079 2.039.827.531a1 1 0 0 0-.1.146l-.843-.509-2.806-1.025a5 5 0 0 1 .226-.389m-.623 1.292a.3.3 0 0 0 .332-.185.23.23 0 0 0-.134-.317l.2-.4 2.628 1.362.971.272a1 1 0 0 0-.063.163l-.981-.25-3.078-.221a4 4 0 0 1 .125-.425zm-.289 2.218-.021-.421.021-.427a.3.3 0 0 0 .283-.259.223.223 0 0 0-.217-.261 4 4 0 0 1 .1-.425l2.985.578h1.042a1 1 0 0 0-.017.166l-1.05.028a205 205 0 0 1-3.143.6 231 231 0 0 0 3.143-.244l1.05-.278a1 1 0 0 0 .017.161 89 89 0 0 1-1.042.3l-2.985 1.386a4 4 0 0 1-.094-.4.3.3 0 0 0 .215-.316.226.226 0 0 0-.287-.189zm.486 1.748a.29.29 0 0 0 .134-.352.236.236 0 0 0-.332-.1 5 5 0 0 1-.126-.387l3.078-1.054.98-.537a1 1 0 0 0 .064.144l-.971.557a319 319 0 0 1-2.63 2.079 8 8 0 0 1-.197-.351zm.742 1.049a.27.27 0 0 0 .041-.365.256.256 0 0 0-.359-.007 4 4 0 0 1-.225-.328 302 302 0 0 0 2.807-1.794l.842-.757a1 1 0 0 0 .1.116l-.83.776a497 497 0 0 1-2.079 2.617zm.961.426a.28.28 0 0 0-.361.091c-.108-.077-.2-.172-.3-.258l2.332-2.4.651-.927a1 1 0 0 0 .13.083l-.63.939-1.411 3a4 4 0 0 1-.36-.172.25.25 0 0 0-.051-.357zm3.953.614a.22.22 0 0 0-.289-.172.31.31 0 0 0-.224.317l-.424.087-.422.045a.22.22 0 0 0-.223-.25.31.31 0 0 0-.288.26l-.412-.033-.406-.066a.23.23 0 0 0-.143-.312.3.3 0 0 0-.334.179 4 4 0 0 1-.377-.143l1.72-2.868.415-1.036a1 1 0 0 0 .153.04l-.393 1.043-.635 3.163.98-3.123.148-1.066a1 1 0 0 0 .162-.012l-.126 1.069.179 3.1.178-3.16-.125-1.031a1 1 0 0 0 .166-.043l.149 1.018.984 2.827a3 3 0 0 1-.413.166zm2.448-1.534a.256.256 0 0 0-.36.014.274.274 0 0 0-.052.366c-.115.1-.237.189-.361.279l-.375.255a.235.235 0 0 0-.337-.079.3.3 0 0 0-.143.353 7 7 0 0 1-.4.189l-.64-2.972-.393-.92a1 1 0 0 0 .154-.089l.415.91 1.723 2.353-1.412-2.581-.634-.747a1 1 0 0 0 .132-.124l.654.732 2.333 1.714-.304.346zm1.539-2.466a.3.3 0 0 0-.33.2.23.23 0 0 0 .131.314l-.2.405-.226.394a.284.284 0 0 0-.358.111.25.25 0 0 0 .041.353c-.092.121-.2.229-.3.345l-2.082-2-.832-.524a1 1 0 0 0 .1-.145l.847.5 2.807.969a917 917 0 0 1-2.629-1.308l-.974-.267a1 1 0 0 0 .064-.162l.983.242 3.077.156a4 4 0 0 1-.119.416zm.31-1.807c0 .144-.01.285-.022.427a.32.32 0 0 0-.282.27.215.215 0 0 0 .215.254 6 6 0 0 1-.094.429l-2.984-.514-1.046.011a1 1 0 0 0 .019-.169l1.053-.036zl-3.141.314-1.053.289a1 1 0 0 0-.019-.161l1.047-.312 2.984-1.452.094.4a.315.315 0 0 0-.216.324.218.218 0 0 0 .282.179z" transform="matrix(2.4109 0 0 2.4174 27.128 21.609)"/></svg>