<svg xmlns="http://www.w3.org/2000/svg" width="236" height="236"><circle cx="118" cy="118" r="118" fill="#fff" paint-order="stroke fill markers"/><path d="M157.726 37.359c6.41 0 11.62-5.467 11.62-12.184S164.137 13 157.726 13c-6.41.035-11.62 5.493-11.62 12.21s5.209 12.149 11.62 12.149m3.428 31.657c5.475-.043 9.88-4.662 9.838-10.317 0-5.675-4.402-10.318-9.838-10.318s-9.838 4.608-9.838 10.318 4.394 10.317 9.838 10.317m27.011 4.035c5.411 0 9.813-4.608 9.813-10.292s-4.402-10.292-9.813-10.292-9.813 4.608-9.813 10.292 4.411 10.292 9.813 10.292m-3.243 27.084c4.638 0 8.393-3.94 8.393-8.791s-3.756-8.791-8.393-8.791-8.393 3.94-8.393 8.791 3.756 8.791 8.393 8.791m21.626 8.782c4.671 0 8.452-3.966 8.452-8.852s-3.781-8.852-8.452-8.852a8.38 8.38 0 0 0-6.001 2.618 8.94 8.94 0 0 0-2.451 6.234c0 4.886 3.789 8.852 8.452 8.852m-48.805-12.444a8.52 8.52 0 0 0 6.104-2.655 9.1 9.1 0 0 0 2.499-6.336v-.017c0-4.972-3.84-9.008-8.603-9.008s-8.603 4.027-8.603 9.008c0 4.946 3.848 9.008 8.603 9.008m-7.797 21.547c3.991 0 7.209-3.384 7.209-7.541.033-4.131-3.183-7.507-7.183-7.541h-.026c-3.991 0-7.209 3.384-7.209 7.541s3.218 7.541 7.209 7.541m27.053 3.81a7.1 7.1 0 0 0 5.076-2.214 7.57 7.57 0 0 0 2.074-5.273v-.018c0-4.148-3.193-7.506-7.15-7.506s-7.15 3.358-7.15 7.506a7.55 7.55 0 0 0 2.035 5.268 7.06 7.06 0 0 0 5.045 2.238zm21.567 8.747c3.991 0 7.209-3.384 7.209-7.567s-3.218-7.567-7.209-7.567-7.209 3.384-7.209 7.567c-.042 4.136 3.17 7.524 7.174 7.567zm-10.653 16.349c3.369 0 6.091-2.872 6.091-6.378s-2.722-6.378-6.091-6.378-6.091 2.872-6.091 6.378 2.722 6.378 6.091 6.378m-21.668-8.609c3.428 0 6.234-2.933 6.234-6.535s-2.781-6.535-6.234-6.535-6.234 2.933-6.234 6.535 2.806 6.535 6.234 6.535m-27.02-3.992c3.422-.055 6.168-2.935 6.17-6.47s-2.74-6.418-6.162-6.478h-.008c-3.422.055-6.168 2.935-6.17 6.47s2.74 6.418 6.162 6.478zm15.022 15.36c2.983 0 5.377-2.534 5.377-5.615.028-3.072-2.36-5.586-5.334-5.615h-.043c-2.983 0-5.377 2.534-5.377 5.615-.033 3.067 2.348 5.581 5.317 5.615zm21.66 8.756c2.983 0 5.436-2.534 5.436-5.675s-2.42-5.675-5.436-5.675c-3.035 0-5.495 2.541-5.495 5.675s2.46 5.675 5.495 5.675m-12.199 6.569c2.361 0 4.285-2.013 4.285-4.487.014-2.46-1.903-4.467-4.285-4.487-2.361 0-4.285 2.013-4.285 4.487-.005 2.456 1.907 4.458 4.285 4.487m-11.561 3.523a3.84 3.84 0 0 0 2.749-1.197 4.1 4.1 0 0 0 1.124-2.854v-.01c0-2.256-1.748-4.061-3.873-4.061a3.84 3.84 0 0 0-2.749 1.197 4.1 4.1 0 0 0-1.124 2.854v.01c-.037 2.204 1.663 4.022 3.797 4.06zm-10.124-11.681c2.546 0 4.613-2.169 4.613-4.825s-2.067-4.825-4.613-4.825-4.613 2.169-4.613 4.825c-.005 2.643 2.053 4.797 4.613 4.825m-14.854-11.064c2.957 0 5.377-2.499 5.377-5.615s-2.394-5.615-5.377-5.615c-2.957 0-5.377 2.499-5.377 5.615-.005 3.079 2.396 5.586 5.377 5.615m44.05 70.344c6.385 0 11.561-5.432 11.561-12.123s-5.175-12.123-11.561-12.123-11.561 5.432-11.561 12.123 5.175 12.123 11.561 12.123m-29.364-15.343c5.318 0 9.637-4.521 9.637-10.101s-4.318-10.101-9.637-10.101-9.637 4.521-9.637 10.101 4.31 10.101 9.637 10.101m-16.778 22.207c5.377 0 9.721-4.547 9.721-10.197 0-5.615-4.344-10.197-9.721-10.197s-9.721 4.547-9.721 10.197c-.042 5.588 4.31 10.153 9.72 10.197zm-5.049-40.917a8.35 8.35 0 0 0 5.983-2.61 8.92 8.92 0 0 0 2.444-6.215 8.9 8.9 0 0 0-2.444-6.215c-1.581-1.655-3.733-2.594-5.983-2.61a8.35 8.35 0 0 0-5.983 2.61 8.92 8.92 0 0 0-2.444 6.215c.008 4.86 3.789 8.826 8.427 8.826zm-16.736 22.511c4.638 0 8.393-3.94 8.393-8.791s-3.756-8.791-8.393-8.791-8.393 3.94-8.393 8.791c-.046 4.807 3.688 8.742 8.342 8.791zm-18.038 15.273c4.638 0 8.368-3.94 8.368-8.765 0-4.851-3.756-8.765-8.368-8.765-4.638 0-8.368 3.94-8.368 8.765s3.756 8.765 8.368 8.765M70.24 199.982c3.97-.038 7.164-3.38 7.15-7.48 0-4.122-3.193-7.48-7.15-7.48-3.957.062-7.133 3.393-7.133 7.48s3.176 7.418 7.133 7.48m18.072-15.343c3.973-.029 7.173-3.376 7.15-7.48 0-4.148-3.193-7.48-7.15-7.48-3.957.055-7.139 3.38-7.146 7.468s3.164 7.424 7.121 7.493zm16.862-22.502a7.1 7.1 0 0 0 5.076-2.214 7.57 7.57 0 0 0 2.074-5.273v-.018c0-4.148-3.193-7.506-7.15-7.506a7.1 7.1 0 0 0-5.076 2.214 7.57 7.57 0 0 0-2.074 5.273v.018c0 4.148 3.193 7.506 7.15 7.506m-25.793 3.098c3.428 0 6.209-2.898 6.209-6.5s-2.781-6.5-6.209-6.5-6.209 2.898-6.209 6.5 2.781 6.5 6.209 6.5m-17.98 15.282a6.1 6.1 0 0 0 4.363-1.895 6.5 6.5 0 0 0 1.787-4.526v-.017c.033-3.522-2.705-6.405-6.116-6.439h-.034a6.1 6.1 0 0 0-4.363 1.895 6.5 6.5 0 0 0-1.787 4.526v.017a6.5 6.5 0 0 0 1.784 4.535 6.1 6.1 0 0 0 4.366 1.904m-4.134-17.911c2.951-.024 5.328-2.506 5.318-5.554 0-3.081-2.394-5.554-5.318-5.554s-5.318 2.499-5.318 5.554c0 3.081 2.394 5.554 5.318 5.554m-.151-15.716a4.52 4.52 0 0 0 3.237-1.421 4.83 4.83 0 0 0 1.316-3.369c0-2.629-2.042-4.79-4.554-4.79s-4.554 2.135-4.554 4.79 2.042 4.79 4.554 4.79zm2.504-13.069c2.159 0 3.873-1.831 3.873-4.061s-1.748-4.061-3.873-4.061c-2.159 0-3.873 1.831-3.873 4.061s1.714 4.061 3.873 4.061m15.501-2.187c2.546 0 4.613-2.169 4.613-4.825s-2.067-4.825-4.613-4.825-4.613 2.169-4.613 4.825c-.009 2.645 2.052 4.801 4.613 4.825m17.013-6.847c2.957 0 5.377-2.534 5.377-5.615.028-3.072-2.36-5.586-5.334-5.615h-.043c-2.957 0-5.377 2.534-5.377 5.615a5.67 5.67 0 0 0 1.55 3.952 5.3 5.3 0 0 0 3.802 1.662zm4.05 17.825c3.369-.007 6.096-2.832 6.092-6.312s-2.736-6.299-6.105-6.299-6.101 2.819-6.105 6.299 2.723 6.305 6.092 6.312zm-20.845 4.747c2.957 0 5.318-2.499 5.318-5.589s-2.394-5.589-5.318-5.589a5.27 5.27 0 0 0-3.774 1.643 5.63 5.63 0 0 0-1.544 3.919v.027a5.6 5.6 0 0 0 1.508 3.919 5.26 5.26 0 0 0 3.749 1.669h.06zm-58.812-8.287c6.352 0 11.527-5.406 11.527-12.062s-5.175-12.062-11.527-12.062S5 120.364 5 127.02s5.175 12.054 11.527 12.054zm26.163-21.539c5.47 0 9.872-4.643 9.872-10.353s-4.436-10.353-9.872-10.353c-5.489.038-9.909 4.665-9.872 10.335v.018c0 5.745 4.436 10.353 9.872 10.353M32.482 90.978c5.436 0 9.813-4.608 9.813-10.292s-4.402-10.292-9.813-10.292c-2.62.018-5.126 1.111-6.967 3.038s-2.864 4.53-2.846 7.236v.018c-.056 5.626 4.315 10.234 9.762 10.292zm25.222-12.583c4.638 0 8.427-3.94 8.427-8.826s-3.781-8.826-8.427-8.826-8.427 3.94-8.427 8.826 3.789 8.826 8.427 8.826m10.309 26.494c4.671 0 8.452-3.966 8.452-8.852s-3.781-8.852-8.452-8.852-8.452 3.966-8.452 8.852 3.781 8.852 8.452 8.852m22.953-5.502c3.999-.034 7.215-3.409 7.183-7.54.039-2.651-1.294-5.122-3.496-6.482a6.99 6.99 0 0 0-7.183-.114c-2.242 1.29-3.648 3.718-3.687 6.369v.227c-.046 4.117 3.147 7.493 7.132 7.541zm19.828.069c3.428 0 6.209-2.898 6.209-6.474s-2.781-6.474-6.209-6.474c-3.462 0-6.268 2.898-6.268 6.474s2.806 6.474 6.268 6.474m16.383 3.896c2.865 0 5.234-2.439 5.234-5.467s-2.336-5.467-5.234-5.467c-2.904.023-5.244 2.467-5.234 5.467.034 2.994 2.361 5.467 5.234 5.467m2.134-19.942c2.53-.019 4.568-2.151 4.554-4.764 0-2.629-2.042-4.764-4.554-4.764s-4.554 2.135-4.554 4.764c-.014 2.614 2.023 4.746 4.554 4.764m-12.603-6.526c2.896-.007 5.238-2.436 5.235-5.427s-2.352-5.414-5.248-5.414-5.244 2.423-5.248 5.414 2.339 5.42 5.235 5.427zm-16.19-3.957c3.418-.029 6.169-2.909 6.15-6.439 0-3.575-2.747-6.439-6.15-6.439s-6.15 2.898-6.15 6.439a6.5 6.5 0 0 0 1.775 4.532 6.08 6.08 0 0 0 4.358 1.907zm-19.794.026c3.991 0 7.209-3.384 7.209-7.541s-3.218-7.541-7.209-7.541-7.209 3.384-7.209 7.541c-.014 4.134 3.207 7.503 7.209 7.541M54.066 54.099c4.52 0 8.158-3.818 8.158-8.548s-3.663-8.548-8.158-8.548c-4.52 0-8.158 3.818-8.158 8.548s3.663 8.548 8.158 8.548m22.945-5.181c3.991 0 7.209-3.384 7.209-7.541s-3.218-7.541-7.209-7.541-7.209 3.384-7.209 7.541 3.218 7.541 7.209 7.541m19.82.095c3.428 0 6.209-2.898 6.209-6.5s-2.781-6.5-6.209-6.5a6.14 6.14 0 0 0-4.404 1.913 6.56 6.56 0 0 0-1.805 4.569v.017c-.014 3.562 2.76 6.467 6.209 6.5zm16.266 3.87c2.899 0 5.234-2.439 5.234-5.467s-2.336-5.467-5.234-5.467c-2.923 0-5.293 2.448-5.293 5.467s2.37 5.467 5.293 5.467m12.493 6.699c2.595-.019 4.685-2.205 4.671-4.886 0-2.716-2.1-4.886-4.671-4.886s-4.671 2.196-4.671 4.886 2.1 4.886 4.671 4.886m9.166 7.689a3.8 3.8 0 0 0 2.725-1.188 4.06 4.06 0 0 0 1.114-2.83v-.009a4.06 4.06 0 0 0-1.108-2.833 3.8 3.8 0 0 0-2.723-1.194h-.008a3.8 3.8 0 0 0-2.725 1.188 4.06 4.06 0 0 0-1.114 2.83v.009A4.04 4.04 0 0 0 132 66.066a3.78 3.78 0 0 0 2.698 1.204h.06z"/></svg>