<svg xmlns="http://www.w3.org/2000/svg" xml:space="preserve" viewBox="0 0 490 490"><path d="M0 245c0 135.1 109.9 245 245 245s245-109.9 245-245S380.1 0 245 0 0 109.9 0 245" style="fill:#00b4a0"/><path d="M119.4 167.1v70.5l61.2-35.3zm77.2 26.5v70.2l61.1-35.2-25.1-14.5-25.8 14.9v-29.6zm-45.4 44.3v70.5l61.2-35.3zm55.6-38.7V229l25.8-14.9zm0-70.2-61.2 35.2 50.7 29.2h.1v.1l.3.2v-.3l10.2 5.9zm-10.2 64.3v.3l10.2 5.9v-.2zm71.3-29.4L242 178.8l25.9 15-35.1 20.2 35.2 20.3V164zm-26 14.9L206.7 199l26 15 35.1-20.2zm26.1-14.9-.1.1.1.1zm-116.8 92.5L90 291.6l61.2 35.3zM264 304.7l-24.5 14.1 13.1 7.5-36.6 21.2 48.1 27.6zm-24.4 14.1L202.8 340l13.1 7.6 36.7-21.2z" style="opacity:.85;fill:#fff"/><path d="M206.8 199.2V229l25.8-14.9zm0-70.2-61.2 35.2 50.7 29.2h.1v.1l.3.2v-.3l10.2 5.9zm-10.2 64.3v.3l10.2 5.9v-.2zm45.4-14.5L206.8 199l26 15 35.1-20.2zm26-14.9-.1.1.1.1zm-116.8 92.5L90 291.6l61.2 35.3zm88.4 62.4L202.8 340l13.1 7.6 36.7-21.2z" style="opacity:.8;fill:#fff"/><path d="M277.6 99v70.5l61.2-35.2zm61.2 35.3v70.5l61.2-35.3zm-61.2 35.2V240l61.2-35.2zm61.2 35.3v70.5L400 240zM277.6 240v70.5l61.2-35.2zm61.2 35.3v70.5l61.2-35.3zm-147.2 15.8v70.5l24.4-14.1-13.1-7.6 36.7-21.2zm85.5 30.4V392l61.1-35.3zm-70.3-163v40.7l25.8 14.9.1-.1-26-15 35.2-20.2zm0 40.7V229l25.8-14.9zM277.6 99l-61.2 35.3 51.5 29.6.1-.1v.1l9.6 5.5zm-35.7 79.8L206.7 199l26 15 35.1-20.2zm26.1-14.9-.1.1.1.1zm-71.8 29.5-61.1 35.3 61.2 35.2zm81.4 46.6-61.1 35.3 61.1 35.2zM400 169.5l-61.2 35.3L400 240zm-61.2 35.3L277.6 240l61.2 35.3zM400 240l-61.2 35.3 61.2 35.2zm-61.2 35.3-61.2 35.2 61.2 35.3zm-99.2 43.5L202.8 340l13.1 7.6 36.7-21.2zm99.2-184.5v70.5l-61.2-35.3z" style="fill:#fff"/></svg>