<svg xmlns="http://www.w3.org/2000/svg" width="250" height="250"><circle cx="125" cy="125" r="125" style="fill:#fff;stroke-width:120.225"/><g transform="matrix(1.26262 0 0 1.26262 -12.322 -11.363)"><linearGradient id="a" x1="79.768" x2="125.754" y1="48.418" y2="49.347" gradientUnits="userSpaceOnUse"><stop offset="0" stop-color="#32a5d3"/><stop offset=".411" stop-color="#53bd9f"/><stop offset=".618" stop-color="#72ccb0"/><stop offset="1" stop-color="#74e0c1" stop-opacity="0"/></linearGradient><path fill="url(#a)" d="M108.94 9c-12.69-.03-25.6 2.39-38.06 7.56l29.95 72.31c2.65-1.1 5.41-1.61 8.11-1.58a20.7 20.7 0 0 1 8.05 1.72l29.95-72.31a98.8 98.8 0 0 0-38-7.7"/><linearGradient id="b" x1="48.708" x2="79.366" y1="89.176" y2="51.086" gradientUnits="userSpaceOnUse"><stop offset="0" stop-color="#32a5d3"/><stop offset=".411" stop-color="#53bd9f"/><stop offset=".618" stop-color="#72ccb0"/><stop offset="1" stop-color="#74e0c1" stop-opacity="0"/></linearGradient><path fill="url(#b)" d="M38.63 38.13a99.2 99.2 0 0 0-21.44 32.31l72.31 29.95a20.648 20.648 0 0 1 11.33-11.53l-29.95-72.3c-12.46 5.16-23.3 12.57-32.25 21.57"/><linearGradient id="c" x1="127.757" x2="165.382" y1="47.201" y2="79.252" gradientUnits="userSpaceOnUse"><stop offset="0" stop-color="#32a5d3"/><stop offset=".411" stop-color="#53bd9f"/><stop offset=".618" stop-color="#72ccb0"/><stop offset="1" stop-color="#74e0c1" stop-opacity="0"/></linearGradient><path fill="url(#c)" d="M179.07 38.31a99 99 0 0 0-32.13-21.62L116.99 89c2.5 1.09 4.8 2.66 6.72 4.67 1.73 1.81 3.17 3.95 4.18 6.4l.17.44 72.31-29.95-.18-.44a98.4 98.4 0 0 0-21.12-31.81"/><linearGradient id="d" x1="168.079" x2="167.615" y1="79.632" y2="127.012" gradientUnits="userSpaceOnUse"><stop offset="0" stop-color="#32a5d3"/><stop offset=".411" stop-color="#53bd9f"/><stop offset=".618" stop-color="#72ccb0"/><stop offset="1" stop-color="#74e0c1" stop-opacity="0"/></linearGradient><path fill="url(#d)" d="M128.07 100.52c1.01 2.6 1.46 5.29 1.4 7.92a20.7 20.7 0 0 1-1.71 7.79l72.31 29.95c4.96-11.87 7.63-24.69 7.69-37.75.06-12.63-2.31-25.47-7.38-37.88z"/><linearGradient id="e" x1="50.888" x2="49.03" y1="138.78" y2="89.077" gradientUnits="userSpaceOnUse"><stop offset="0" stop-color="#32a5d3"/><stop offset=".411" stop-color="#53bd9f"/><stop offset=".618" stop-color="#72ccb0"/><stop offset="1" stop-color="#74e0c1" stop-opacity="0"/></linearGradient><path fill="url(#e)" d="M89.5 100.39 17.19 70.44a99.1 99.1 0 0 0-7.43 38.01c.05 12.49 2.48 25.18 7.55 37.44.06.15.13.29.19.44l72.31-29.95c-.06-.15-.13-.29-.19-.44a20.5 20.5 0 0 1-1.57-7.49 20.8 20.8 0 0 1 1.45-8.06"/><linearGradient id="f" x1="168.626" x2="137.969" y1="126.273" y2="165.756" gradientUnits="userSpaceOnUse"><stop offset="0" stop-color="#32a5d3"/><stop offset=".411" stop-color="#53bd9f"/><stop offset=".618" stop-color="#72ccb0"/><stop offset="1" stop-color="#74e0c1" stop-opacity="0"/></linearGradient><path fill="url(#f)" d="M127.76 116.24a20.8 20.8 0 0 1-4.48 6.54 20.6 20.6 0 0 1-6.59 4.36l29.95 72.31c12.34-5.11 23.09-12.43 32-21.31 9.24-9.21 16.48-20.1 21.44-31.94z"/><linearGradient id="g" x1="87.422" x2="53.513" y1="170.838" y2="135.536" gradientUnits="userSpaceOnUse"><stop offset="0" stop-color="#32a5d3"/><stop offset=".411" stop-color="#53bd9f"/><stop offset=".618" stop-color="#72ccb0"/><stop offset="1" stop-color="#74e0c1" stop-opacity="0"/></linearGradient><path fill="url(#g)" d="M94.43 122.96a20.6 20.6 0 0 1-4.61-6.59L17.5 146.32c5.19 12.36 12.59 23.12 21.56 32a99.1 99.1 0 0 0 32.13 21.25l29.95-72.31c-2.47-.98-4.76-2.44-6.71-4.3"/><linearGradient id="h" x1="137.818" x2="91.367" y1="167.843" y2="166.449" gradientUnits="userSpaceOnUse"><stop offset="0" stop-color="#32a5d3"/><stop offset=".411" stop-color="#53bd9f"/><stop offset=".618" stop-color="#72ccb0"/><stop offset="1" stop-color="#74e0c1" stop-opacity="0"/></linearGradient><path fill="url(#h)" d="M108.94 128.71a20.8 20.8 0 0 1-7.79-1.45L71.2 199.57a99.2 99.2 0 0 0 37.75 7.43c12.58-.02 25.36-2.44 37.7-7.55l-29.95-72.31a20.7 20.7 0 0 1-7.76 1.57"/></g></svg>