<svg xmlns="http://www.w3.org/2000/svg" width="256" height="256" viewBox="0 0 67.733 67.733"><path d="M1.488 263.204c0 17.871 14.54 32.411 32.412 32.411s32.411-14.54 32.411-32.411-14.54-32.412-32.411-32.412-32.412 14.54-32.412 32.412" class="cls-1" style="stroke-width:.13229166;fill:#242424;fill-opacity:1" transform="translate(0 -229.267)"/><path d="m23.82 252.254 20.056-.103c5.98-.031 10.795 4.814 10.795 10.794s-4.814 10.764-10.795 10.795l-20.056.103c-5.98.031-10.795-4.814-10.795-10.794s4.815-10.764 10.795-10.795z" style="opacity:1;fill:none;fill-opacity:1;fill-rule:nonzero;stroke:#fff;stroke-width:2.30132866;stroke-linecap:round;stroke-linejoin:miter;stroke-miterlimit:4;stroke-dasharray:none;stroke-dashoffset:65.67904663;stroke-opacity:1;paint-order:stroke fill markers" transform="translate(.052 -229.06)"/><path d="M20.646 259.253s1.205-.11 2.557.987c1.462 1.023 2.814.767 2.814.767s1.267-.097 2.631-.877c1.972-1.128 3.289-.767 4.348-.182 1.425.694 2.12 1.132 3.252 1.206 1.718-.074 2.339-.914 3.033-1.243 1.206-.73 2.339-.877 3.8-.073 1.791 1.242 2.778 1.206 3.837 1.17M20.59 264.916s1.207-.11 2.559.986c1.461 1.023 2.813.768 2.813.768s1.268-.097 2.631-.877c1.972-1.129 3.289-.768 4.348-.183 1.426.694 2.12 1.133 3.253 1.206 1.717-.073 2.338-.914 3.032-1.243 1.206-.73 2.34-.877 3.8-.073 1.791 1.243 2.778 1.206 3.837 1.17" style="opacity:1;fill:none;stroke:#fcfcfc;stroke-width:2.46499991;stroke-linecap:round;stroke-linejoin:miter;stroke-miterlimit:4;stroke-dasharray:none;stroke-opacity:1" transform="translate(.052 -229.06)"/></svg>