<svg xmlns="http://www.w3.org/2000/svg" xml:space="preserve" id="svg134" x="0" y="0" version="1.1" viewBox="0 0 1400 1400"><style>.st1{fill:#db5b54}.st2{fill:#c4524c}.st3{fill:#a24741}.st4{fill:#3c1a26}.st5{fill:#29121a}.st6{fill:#421d2a}.st7{fill:#bd967f}.st8{fill:#886b59}.st10{fill:#fff}.st11{fill:#493239}.st13{fill:#f2716a}.st14{fill:#898989}.st15{fill:#888}.st16{fill:#d6d6d6}.st17{fill:#fdfdfd}</style><circle cx="700.4" cy="699.6" r="699.6" style="fill:#ffbdbb"/><path d="M348.8 870.8 461.9 805 644 910.2 530.9 976z" class="st1"/><path d="M530.9 976 644 910.2l-.1 52.4-113.1 65.7z" class="st2"/><path d="m530.9 976-.1 52.4-34.2-19.7L382.7 943l-34.2-19.7.2-52.4zM702.5 1075.2 363.2 877.9l-.4-130.8 339.3 197.2z" class="st3"/><path d="m1043.7 747.1.4 130.8-341.6 197.2-.4-130.9z" class="st1"/><path d="m1048.3 905.6.3 91.7-140.8 81.3-.3-91.7z" class="st4"/><path d="M907.7 1078.6 658.9 933.9l-.3-91.7 248.9 144.6z" class="st5"/><path d="M907.5 986.8 658.6 842.2l140.8-81.3 248.9 144.6z" class="st6"/><path d="m886.9 998 .3 91.7-140.8 81.3-.3-91.7z" class="st4"/><path d="m746.4 1171-248.9-144.6-.3-91.7 248.9 144.6z" class="st5"/><path d="M746.2 1079.3 497.3 934.7l140.8-81.3L886.9 998z" class="st6"/><path d="m1043.7 747.1.4 130.8-341.6 197.2-.4-130.9z" class="st1"/><path d="M702.5 1075.2 363.2 877.9l-.4-130.8 339.3 197.2z" class="st3"/><path d="M702.2 944.3 362.8 747.1l341.6-197.2 339.3 197.2z" class="st1"/><path d="m1042 485.3.8 261.7-341.7 197.2-.7-261.7z" class="st7"/><path d="M701.1 944.2 361.8 747l-.7-261.6 339.3 197.2z" class="st8"/><path d="M700.4 682.5 361.1 485.3l341.6-197.2L1042 485.3z" style="fill:#b88d73"/><path d="m871.6 651.3.2 52.3-45.5 26.3.1 52.3 45.6-26.3-91.1 52.6-.3-104.7z" class="st10"/><path d="m871.8 703.6.2 52.4-45.6 26.3-.1-52.3z" class="st11"/><path d="m1005.6 573.9.2 52.4-45.5 26.3.1 52.3 45.5-26.3-91.1 52.6-.3-104.7z" class="st10"/><path d="m1005.7 626.3.1 52.3-45.5 26.3-.1-52.3z" class="st11"/><path d="m496.6 1008.6-.2 78.5-113.9-65.7.2-78.5z" class="st8"/><path d="m496.6 1008.6 113.1-65.7-.2 78.5-113.1 65.7z" class="st7"/><path d="m382.8 942.8 113.1-65.7 113.9 65.7-113.1 65.7z" style="fill:#caa390"/><path d="m530.9 976-.1 52.4-34.2-19.7L382.7 943l-34.2-19.7.2-52.4z" class="st3"/><path d="M530.9 976 644 910.2l-.1 52.4-113.1 65.7z" class="st2"/><path d="M348.8 870.8 461.9 805 644 910.2 530.9 976zM1042.2 368.2l.4 130.8L701 696.3l-.4-130.8z" class="st1"/><path d="M701 696.3 361.6 499.1l-.4-130.8 339.3 197.2z" class="st3"/><path d="M700.6 565.5 361.3 368.2 702.8 171l339.3 197.2z" class="st13"/><path d="M980 598.4c28.4-16.8 59.1-29.3 91.1-37.2v52.3c-32 7.9-62.7 20.4-91.1 37.2-32.8 19.2-63.3 42-91 67.9v-52.3c27.7-25.9 58.2-48.7 91-67.9" class="st1"/><path d="M889.1 718.7 776 653l-.2-52.4L889 666.3z" class="st3"/><path d="m889 666.3-113.1-65.7c27.7-25.9 58.3-48.7 91-67.9 32.8-19.2 90.4-38.5 90.4-38.5l114 67.4s-58.5 17.6-91.2 36.8c-32.9 19.2-63.4 42-91.1 67.9" class="st13"/><path d="m996.2 851.9-22.6-13.2-6-4.3 22.6 13.1zM952.5 900.2 929.9 887l-11.8-10.5 22.6 13.1z" class="st14"/><path d="m723.5 957.7-22.6-13.1v-8.4l22.6 13.2z" class="st15"/><path d="m1067.3 713.3.1 23.1v22.7l-71.2 92.8-6-4.3-37.7 52.6-11.8-10.5-44.9 69.5-45.2-17.5-11.7 24.2-37.9-9-6 11.2-71.5-10.4v-8.4l-.1-37.4z" class="st16"/><path d="m723.5 949.3-22.6-13.2-.1-37.4 22.6 13.2z" class="st15"/><path d="m723.4 911.9-22.6-13.2 343.9-198.6 22.6 13.1zM531.8 731.8l22.6-13.2 146.5 180-22.6 13.1z" class="st17"/><path d="m678.4 911.7 22.6-13.1 22.8 13.1-22.6 13.1z" class="st17"/><path d="m701.1 924.9 22.6-13.1-.1 45.9-22.6 13.1z" class="st16"/><path d="m532.1 624.4-.3 107.4 146.5 179.9 22.8 13.1-.1 45.9-169.6-103.2-40.3-23.3-20.1-11.6.1-46.4 20.4-77.7.3-107.4z" class="st14"/><path d="m532.2 624.4 22.6-13.2-.3 107.4-22.6 13.2z" class="st17"/><path d="m491.8 601.1 22.6-13.1 40.3 23.3-22.6 13.2z" style="fill:#dcdcdc"/></svg>