<svg xmlns="http://www.w3.org/2000/svg" width="250" height="250"><defs><linearGradient id="a" x1="17.337" x2="80" y1="74.339" y2="74.339" gradientUnits="userSpaceOnUse"><stop offset="0" stop-color="gray"/><stop offset=".327" stop-color="#838383"/><stop offset=".59" stop-color="#8d8d8d"/><stop offset=".83" stop-color="#9e9e9e"/><stop offset="1" stop-color="#afafaf"/></linearGradient><linearGradient id="b" x1="48.669" x2="48.669" y1="68.69" y2="80" gradientUnits="userSpaceOnUse"><stop offset=".35" stop-color="#dfdfdf"/><stop offset=".645" stop-color="#ddd"/><stop offset=".752" stop-color="#d6d6d6"/><stop offset=".828" stop-color="#cbcbcb"/><stop offset=".889" stop-color="#bababa"/><stop offset=".941" stop-color="#a4a4a4"/><stop offset=".987" stop-color="#898989"/><stop offset="1" stop-color="gray"/></linearGradient><linearGradient id="c" x1="17.337" x2="80" y1="55.314" y2="55.314" gradientUnits="userSpaceOnUse"><stop offset="0" stop-color="#dfdfdf"/><stop offset=".021" stop-color="#e1e1e1"/><stop offset=".244" stop-color="#f2f2f2"/><stop offset=".487" stop-color="#fcfcfc"/><stop offset=".791" stop-color="#fff"/><stop offset=".841" stop-color="#fcfcfc"/><stop offset=".882" stop-color="#f2f2f2"/><stop offset=".919" stop-color="#e1e1e1"/><stop offset=".954" stop-color="#c9c9c9"/><stop offset=".966" stop-color="#bfbfbf"/><stop offset="1" stop-color="#fff"/></linearGradient><linearGradient id="d" x1="17.337" x2="80" y1="56.15" y2="56.15" gradientUnits="userSpaceOnUse"><stop offset="0" stop-color="#cf2000"/><stop offset=".021" stop-color="#d12201"/><stop offset=".244" stop-color="#e23309"/><stop offset=".487" stop-color="#ec3d0e"/><stop offset=".791" stop-color="#ef4010"/><stop offset=".841" stop-color="#ec3d0f"/><stop offset=".882" stop-color="#e2330d"/><stop offset=".919" stop-color="#d12208"/><stop offset=".954" stop-color="#b90a03"/><stop offset=".966" stop-color="#af0000"/><stop offset="1" stop-color="#ef4010"/></linearGradient></defs><circle cx="125" cy="125" r="125" fill="#cdcdcd" fill-rule="evenodd"/><path fill="#0e3ca5" d="M105.685 164.866c4.822 17.889 22.123 31.533 30.86 30.97.306-.02 33.138-6.158 51.112-36.261 13.983-23.432 9.224-46.054-9.798-46.547-6.845.5-81.358 17.763-72.17 51.843m70.395-114.894-.019-.014.027-.017a83.486 83.71 0 0 0-88-12.73 49.224 49.356 0 0 0-5.275 2.596c-1.172.626-2.344 1.247-3.482 1.934l.278.085a38.045 38.147 0 0 0-8.812 8.364c-23.975 31.735 56.344 54.814 99.292 54.884 19.748 14.22 25.293-40.034 5.991-55.102"/><path fill="#5493f7" d="M92.943 50.618c-11.035 16.631-47.79 28.349-53.834 26.526l-.041-.078q.373-.754.754-1.496A88.438 88.675 0 0 1 66.03 44.91q3.393-2.494 7.023-4.663a25.983 26.052 0 0 1 12.152-3.244c16.368.32 7.82 13.487 7.739 13.615m-9.056 117.519c.793 5.224-.019 25.866-1.085 27.6-.918.057-2.83.173-8.368-2.943a87.276 87.51 0 0 1-8.405-5.468 88.031 88.266 0 0 1-31.542-43.322 87.457 87.691 0 0 1-3.334-13.576 88.964 89.202 0 0 1 0-28.624 87.517 87.751 0 0 1 3.334-13.576 90 90 0 0 1 .923-2.64c6.344 8.46 13.685 16.114 19.924 24.657 5.943 8.137 14.119 21.399 15.782 24.232 10.329 17.594 11.976 28.448 12.764 33.665m122.11-52.027a87.759 87.993 0 0 1-6.126 32.407c-10.367 11.171-80.244-16.324-80.929-16.624-9.56-4.2-38.65-16.978-41.275-37.042-3.764-28.885 54.654-49.008 80.33-49.772 3.079.037 12.448.148 17.911 4.593a87.785 88.02 0 0 1 30.089 66.435m-47.305 78.261c-7.619 3.563-16.004.967-13.825-6.471 4.183-14.282 40.712-28.927 48.779-29.734.995-.097 1.417.582.976 1.358a88.892 89.13 0 0 1-35.923 34.835"/><path fill="url(#a)" d="M17.337 77.255a2.55 2.55 0 0 0 2.329 2.713c30.7.21 60.334-1.2 60.334-5.8 0-13.924-62.663 3.087-62.663 3.087" transform="matrix(2.41095 0 0 2.4174 27.124 21.609)"/><path fill="url(#b)" d="M17.337 77.255a2.55 2.55 0 0 0 2.34 2.713c30.691.233 60.286-.731 60.323-5.8 0-13.924-62.663 3.087-62.663 3.087m2.342 2.536a2 2 0 0 1-.245-.014 2.4 2.4 0 0 1-1.987-1.763 2.37 2.37 0 0 0 2.228 1.762c30.671-.193 59.844-9.636 59.844-5.478 0 4.244-29.171 5.702-59.84 5.493" transform="matrix(2.41095 0 0 2.4174 27.124 21.609)"/><path fill="url(#c)" d="M19.681 37.823a2.343 2.343 0 0 0-2.344 2.344v37.088a2.343 2.343 0 0 0 2.329 2.345C50.364 79.37 80.037 69.209 80 74.169V32.4c.037-4.966-29.626 5.194-60.319 5.423" transform="matrix(2.41095 0 0 2.4174 27.124 21.609)"/><path fill="url(#d)" d="M59.575 48.068a9.8 9.8 0 0 0-1.959-2.2 10.1 10.1 0 0 0-2.523-1.53 11 11 0 0 0-3-.783 12.3 12.3 0 0 0-3.341.069 14.7 14.7 0 0 0-2.864.749 15.2 15.2 0 0 0-4.986 3.062 15.6 15.6 0 0 0-1.938 2.165 14.7 14.7 0 0 0-1.484 2.486 13.6 13.6 0 0 0-.946 2.735 13 13 0 0 0-.332 2.906 12 12 0 0 0 .448 3.288 11 11 0 0 0 1.267 2.863 10.6 10.6 0 0 0 1.964 2.322 10.4 10.4 0 0 0 2.539 1.65 10.7 10.7 0 0 0 3 .874 11.5 11.5 0 0 0 3.33-.035 13.7 13.7 0 0 0 2.877-.775 14.4 14.4 0 0 0 2.642-1.361 15.3 15.3 0 0 0 2.331-1.867 16.4 16.4 0 0 0 1.936-2.276 15.7 15.7 0 0 0 1.479-2.58 14.6 14.6 0 0 0 .943-2.8 13.4 13.4 0 0 0 .331-2.931 11.7 11.7 0 0 0-.447-3.254 10.3 10.3 0 0 0-1.267-2.777" transform="matrix(2.41095 0 0 2.4174 27.124 21.609)"/></svg>