<svg xmlns="http://www.w3.org/2000/svg" width="256" height="256" viewBox="0 0 67.733 67.733"><g transform="translate(0 -229.267)"><path d="M1.455 263.133c0 17.872 14.54 32.412 32.412 32.412 17.871 0 32.411-14.54 32.411-32.412 0-17.871-14.54-32.411-32.411-32.411s-32.412 14.54-32.412 32.411" class="cls-1" style="fill:#b0170d;fill-opacity:1;stroke-width:.13229166"/><rect width="34.886" height="5.699" x="16.436" y="267.013" ry=".101" style="opacity:1;fill:#fff;fill-opacity:1;fill-rule:nonzero;stroke:none;stroke-width:.34745982;stroke-linecap:round;stroke-linejoin:miter;stroke-miterlimit:4;stroke-dasharray:none;stroke-dashoffset:65.67904663;stroke-opacity:1;paint-order:normal"/><path d="M51.322 246.242A17.449 18.263 0 0 1 33.9 263.529a17.449 18.263 0 0 1-17.424-17.286" style="opacity:1;fill:#fff;fill-opacity:1;fill-rule:nonzero;stroke:none;stroke-width:.26477569;stroke-linecap:round;stroke-linejoin:miter;stroke-miterlimit:4;stroke-dasharray:none;stroke-dashoffset:65.67904663;stroke-opacity:1;paint-order:normal"/><circle cx="33.899" cy="279.956" r="4.205" style="opacity:1;fill:#fff;fill-opacity:1;fill-rule:nonzero;stroke:#fefefe;stroke-width:.02977657;stroke-linecap:round;stroke-linejoin:miter;stroke-miterlimit:4;stroke-dasharray:none;stroke-dashoffset:65.67904663;stroke-opacity:1;paint-order:normal"/><path d="M46.064 246.124a12.243 12.814 0 0 1-12.227 12.247 12.243 12.814 0 0 1-12.234-12.24" style="opacity:1;fill:#b0170d;fill-opacity:1;fill-rule:nonzero;stroke:none;stroke-width:.18577556;stroke-linecap:round;stroke-linejoin:miter;stroke-miterlimit:4;stroke-dasharray:none;stroke-dashoffset:65.67904663;stroke-opacity:1;paint-order:normal"/><circle cx="33.884" cy="250.462" r="4.205" style="opacity:1;fill:#fff;fill-opacity:1;fill-rule:nonzero;stroke:#fefefe;stroke-width:.02977657;stroke-linecap:round;stroke-linejoin:miter;stroke-miterlimit:4;stroke-dasharray:none;stroke-dashoffset:65.67904663;stroke-opacity:1;paint-order:normal"/></g></svg>