<svg xmlns="http://www.w3.org/2000/svg" viewBox="0 0 490 490"><path d="M0 245c0 135.1 109.9 245 245 245s245-109.9 245-245S380.1 0 245 0 0 109.9 0 245" style="fill:#0aa4b4"/><g fill="#fff"><path d="M239.976 122.654v8.5h33v31h49v-18h-31v-30h-51zM209.976 144.154v25h30v32h18v-50h-31v-32h-17z"/><path d="M337.976 159.654v16.5h-31v49h18v-31h30v-51h-17zM142.976 153.654v8.5h33v37h49.1l-.3-8.8-.3-8.7-15.7-.3-15.8-.3v-35.9h-50z"/><path d="M144.976 193.654v15.5h-32v51h18v-33h32v-49h-18zM271.976 195.154v16h-29.700000000000003l-.7 9.2c-.3 5-.6 13.8-.6 19.5v10.3h2.9c1.5 0 5.396-.282 8.796.018l6.304-.11v-20.908h31v-50h-18zM177.976 219.154v9h33v22h18v-40h-51zM336.976 225.154v15h-38v18h56v-30h26v-18h-44z"/><path d="M368.976 256.654v16.5h-31v49h18v-31h30v-51h-17zM144.976 257.154v15h-26v18h44v-30h38v-18h-56zM270.976 269.654v19.5h50v-18h-32v-21h-18zM209.976 293.154v28h17v-38h32v-18h-49z"/><path d="M174.976 290.654v15.5h-31v51h18v-33h31v-49h-18zM241.976 324.154v25h30v32h18v-50h-31v-32h-17z"/><path d="M274.976 309.154v9h31v37h51v-17h-33v-38h-49zM177.976 347.154v9h31v30h50v-17h-32v-31h-49z"/></g></svg>