<svg xmlns="http://www.w3.org/2000/svg" width="534" height="534" version="1.0" viewBox="0 0 400.5 400.5"><circle cx="200.25" cy="200.25" r="200.25" style="opacity:.999;fill:#000;fill-opacity:1;stroke-width:.780889"/><g style="opacity:.999;fill:#56bcf7;fill-opacity:1"><path d="M1710 3520v-90h-180v180h180zm752-97 3-188 185-3 185-2-2-88-1-87-276-2-276-2v379h-370v180h550zm-374-280-3-88h-302c-167 0-303-3-303-6s42-47 93-97l92-92h1170v-550h-186l1 183 2 182-534 3-533 2-122 122-123 123v-615h-180v920h931zM965 2585v-275H590v-375H410v555h381l-3 185-3 185h180zm2245 185v-90h-180v180h180zm370-370v-90h-370l-2-185-3-186h-550l-3 85-3 86 188 2 188 3 3 188 2 187h550zm-2240-377v-88H965v-375H410v180l188 2 187 3v365h555zm2240-188v-275h-370v-370h-180v550h370v370h180zm-2240-280v-185h1065l120-120c66-66 122-120 125-120s4 137 2 305l-3 305h181V810h-920v180h305c168 0 305 4 305 9 0 4-44 49-97 100l-98 91H1160v550h180zm-377-278 2-87H785l2 87c1 49 2 89 3 91 0 1 39 1 86 0l86-3zm747-472V620h380V440h-560l-2 186-3 186-182-2-183-1v181h550zm750-275v-90h-180v180h180z" style="fill:#56bcf7;fill-opacity:1" transform="matrix(.1 0 0 -.1 0 400)"/></g></svg>