<svg xmlns="http://www.w3.org/2000/svg" width="620.842" height="620.706"><defs><linearGradient id="a" x1=".307" x2="1" y1="-.024" y2="1" gradientUnits="objectBoundingBox"><stop offset="0" stop-color="#ed1cb5"/><stop offset=".517" stop-color="#00e7d4"/><stop offset="1" stop-color="#07fded"/></linearGradient><linearGradient id="b" x1=".5" x2="1" y2="1" gradientUnits="objectBoundingBox"><stop offset="0" stop-color="#ed1cb5"/><stop offset="1" stop-color="#f8ac07"/></linearGradient><linearGradient id="c" x1="1" x2="0" y2="1" gradientUnits="objectBoundingBox"><stop offset="0" stop-color="#00fff4"/><stop offset=".468" stop-color="#ccbf05"/><stop offset="1" stop-color="#ffa900"/></linearGradient><linearGradient id="e" x1=".275" x2=".5" y1="-.013" y2="1" gradientUnits="objectBoundingBox"><stop offset="0" stop-color="#0f0d27"/><stop offset=".182" stop-color="#1d2050"/><stop offset=".409" stop-color="#2a3767"/><stop offset=".665" stop-color="#1b1f4d"/><stop offset="1" stop-color="#101230"/></linearGradient><linearGradient id="f" x1=".551" x2="1.089" y1=".499" y2=".485" gradientUnits="objectBoundingBox"><stop offset="0" stop-color="orange"/><stop offset="1" stop-color="#076c95"/></linearGradient><linearGradient id="g" x1=".1" x2="1.087" y1="-.1" y2=".869" gradientUnits="objectBoundingBox"><stop offset=".14" stop-color="#bc0050"/><stop offset=".19" stop-color="#a12569"/><stop offset=".28" stop-color="#7b588b"/><stop offset=".36" stop-color="#5a84aa"/><stop offset=".45" stop-color="#3faac3"/><stop offset=".55" stop-color="#28c9d8"/><stop offset=".64" stop-color="#16e1e9"/><stop offset=".75" stop-color="#0af2f4"/><stop offset=".86" stop-color="#02fcfb"/><stop offset="1" stop-color="#00fffd"/></linearGradient><clipPath id="d"><ellipse cx="295.218" cy="295.083" fill="#606060" rx="295.218" ry="295.083"/></clipPath></defs><path fill="url(#a)" d="M278.766 71.629a275.607 275.607 0 0 1 413.586 238.712h34.683a310.368 310.368 0 0 0-465.553-268.76Z" transform="translate(-106.194 -.001)"/><path fill="url(#b)" d="M41.449 494.2a308.43 308.43 0 0 0 113.789 113.376l17.322-30.009A275.45 275.45 0 0 1 34.652 338.914c0-98.485 54.8-188.942 140.129-238.12L155.34 70.221C7 155.967-44.009 345.691 41.449 494.2" transform="translate(-.024 -28.652)"/><path fill="url(#c)" d="M554.567 762.051a276 276 0 0 1-275.859-.175l-17.322 30.009A310.174 310.174 0 0 0 726.938 523.26h-34.664a275.82 275.82 0 0 1-137.726 238.849Z" transform="translate(-106.29 -212.903)"/><g clip-path="url(#d)" transform="translate(15.275 15.237)"><path fill="url(#e)" d="M0 0h591.62v591.368H0z" transform="translate(-.601 -.718)"/></g><path fill="url(#f)" d="M589.234 677.278a5.82 5.82 0 0 0-5.18-3.278H428.619a5.82 5.82 0 0 0-5.819 5.819v27.72a2.58 2.58 0 0 0 2.579 2.58h180.4Z" transform="translate(-171.606 -274.197)"/><path fill="#00fffd" d="m331.348 141.751 143.426 290.446a2.58 2.58 0 0 1-2.251 3.647h-38.622L320.868 208.538"/><path fill="url(#g)" d="m543.557 239 42.676 86.263-21.726 43.7-41.376-83.412a5.93 5.93 0 0 1 0-5.179Z" transform="translate(-212.209 -97.249)"/><path fill="#ff00b9" d="M287.061 145.049a5.82 5.82 0 0 1 5.18-3.259h39.028l-.33.679-21.338 42.812-124.009 248.798a2.58 2.58 0 0 1-2.25 1.4h-31.621a5.82 5.82 0 0 1-5.179-8.515Z"/></svg>