<svg xmlns="http://www.w3.org/2000/svg" xml:space="preserve" id="KEY" x="0" y="0" version="1.1" viewBox="0 0 490 490"><style>.st1{fill:#fff}</style><path id="Full" d="M0 245c0 135.1 109.9 245 245 245s245-109.9 245-245S380.1 0 245 0 0 109.9 0 245" style="fill:#23e6fe"/><path id="Line" d="M237 138c5.5 0 10 4.5 10 10v131c0 5.5-4.5 10-10 10s-10-4.5-10-10V148c0-5.5 4.5-10 10-10" class="st1"/><path d="M237.5 273c-20.7 0-37.5 17.7-37.5 39.5s16.8 39.5 37.5 39.5 37.5-17.7 37.5-39.5-16.8-39.5-37.5-39.5m0 62c-11.3 0-20.5-9.9-20.5-22 0-12.2 9.2-22 20.5-22s20.5 9.8 20.5 22c0 12.1-9.2 22-20.5 22M272 178h-32c-5.5 0-10 4.5-10 10s4.5 10 10 10h32c5.5 0 10-4.5 10-10s-4.5-10-10-10M282 138h-44c-5.5 0-10 4.5-10 10s4.5 10 10 10h44c5.5 0 10-4.5 10-10s-4.5-10-10-10" class="st1"/><path d="M245 74 97 159.5v171L245 416l148-85.5v-171zm140 252-140 81-140-81V164l140-81 140 81z" class="st1"/></svg>