<svg xmlns="http://www.w3.org/2000/svg" xml:space="preserve" id="KIN" x="0" y="0" version="1.1" viewBox="0 0 245 245"><style>.st1{fill:#fff}</style><path id="Main" d="M0 122.5C0 190 55 245 122.5 245S245 190 245 122.5 190 0 122.5 0 0 55 0 122.5" style="fill:#003ec5"/><g id="KIN-2"><path id="TopLeft" d="M96 85.5h3.5c2.8 0 5 2.2 5 5V99H96c-2.8 0-5-2.2-5-5v-3.5c0-2.8 2.2-5 5-5" class="st1"/><path id="TopRight" d="M148 85.5h3.5c2.8 0 5 2.2 5 5V94c0 2.8-2.2 5-5 5H143v-8.5c0-2.8 2.2-5 5-5" class="st1"/><path id="BottomLeft" d="M96 139h8.5v8.5c0 2.8-2.2 5-5 5H96c-2.8 0-5-2.2-5-5V144c0-2.8 2.2-5 5-5" class="st1"/><path id="BottomRight" d="M143 139h8.5c2.8 0 5 2.2 5 5v3.5c0 2.8-2.2 5-5 5H148c-2.8 0-5-2.2-5-5z" class="st1"/><path id="Top" d="M122 73.5h3.5c2.8 0 5 2.2 5 5V82c0 2.8-2.2 5-5 5H122c-2.8 0-5-2.2-5-5v-3.5c0-2.8 2.2-5 5-5" class="st1"/><path id="Bottom" d="M122 153.5h3.5c2.8 0 5 2.2 5 5v3.5c0 2.8-2.2 5-5 5H122c-2.8 0-5-2.2-5-5v-3.5c0-2.8 2.2-5 5-5" class="st1"/><path id="Left" d="M82 113h3.5c2.8 0 5 2.2 5 5v3.5c0 2.8-2.2 5-5 5H82c-2.8 0-5-2.2-5-5V118c0-2.8 2.2-5 5-5" class="st1"/><path id="Right" d="M161 113h3.5c2.8 0 5 2.2 5 5v3.5c0 2.8-2.2 5-5 5H161c-2.8 0-5-2.2-5-5V118c0-2.8 2.2-5 5-5" class="st1"/><path id="K" d="M104.5 100v40h9.5c1.7 0 3-1.1 3-2.5V132s.6-5.5 6-5.5 6.5 5.5 6.5 5.5v5c0 1.6 1.4 3 3 3H143v-10c0-1.6-.6-3.5-3-3.5h-4.5s-6-1.3-6-6.5 5.5-6.5 5.5-6.5h5.5c1.2 0 3-1.4 3-3V100H133c-2 0-3.5 1.4-3.5 3v5s-.6 5.5-6 5.5-7-5.5-7-5.5v-5.5c0-1.1-1.1-2.5-2.5-2.5zm-3.5 67.5c2.5 0 4.5 2 4.5 4.5s-2 4.5-4.5 4.5-4.5-2-4.5-4.5 2-4.5 4.5-4.5m44-1.5c2.5 0 4.5 2 4.5 4.5s-2 4.5-4.5 4.5-4.5-2-4.5-4.5 2-4.5 4.5-4.5m28.5-29.5c2.5 0 4.5 2 4.5 4.5s-2 4.5-4.5 4.5-4.5-2-4.5-4.5 2-4.5 4.5-4.5m.5-42c2.5 0 4.5 2 4.5 4.5s-2 4.5-4.5 4.5-4.5-2-4.5-4.5 2-4.5 4.5-4.5M144 65c2.5 0 4.5 2 4.5 4.5s-2 4.5-4.5 4.5-4.5-2-4.5-4.5 2-4.5 4.5-4.5m-40.5 0c2.5 0 4.5 2 4.5 4.5s-2 4.5-4.5 4.5-4.5-2-4.5-4.5 2-4.5 4.5-4.5M74 95c2.5 0 4.5 2 4.5 4.5s-2 4.5-4.5 4.5-4.5-2-4.5-4.5 2-4.5 4.5-4.5m0 41.5c2.5 0 4.5 2 4.5 4.5s-2 4.5-4.5 4.5-4.5-2-4.5-4.5 2-4.5 4.5-4.5" class="st1"/><g id="Rounds"><circle id="Round" cx="42.5" cy="152.5" r="3.5" class="st1"/><path id="Round2" d="M61 176.5c1.1 0 2 .9 2 2s-.9 2-2 2-2-.9-2-2 .9-2 2-2m18.5-14c1.4 0 2.5 1.1 2.5 2.5s-1.1 2.5-2.5 2.5-2.5-1.1-2.5-2.5 1.1-2.5 2.5-2.5" class="st1"/><circle id="Round3" cx="88" cy="196.5" r="2" class="st1"/><circle id="Round4" cx="122.5" cy="208.5" r="3.5" class="st1"/><circle id="Round5" cx="153.5" cy="195" r="2.5" class="st1"/><circle id="Round6" cx="124" cy="183" r="2.5" class="st1"/><circle id="Round7" cx="178.5" cy="179" r="2.5" class="st1"/><circle id="Round8" cx="200.5" cy="152" r="4" class="st1"/><circle id="Round9" cx="168" cy="165" r="2.5" class="st1"/><path id="Round10" d="M207 117c1.4 0 2.5 1.1 2.5 2.5s-1.1 2.5-2.5 2.5-2.5-1.1-2.5-2.5 1.1-2.5 2.5-2.5m-19.5 0c1.4 0 2.5 1.1 2.5 2.5s-1.1 2.5-2.5 2.5-2.5-1.1-2.5-2.5 1.1-2.5 2.5-2.5" class="st1"/><circle id="Round11" cx="202.5" cy="85" r="2" class="st1"/><circle id="Round12" cx="168" cy="75" r="2.5" class="st1"/><circle id="Round13" cx="183" cy="60.5" r="2" class="st1"/><circle id="Round14" cx="154.5" cy="40.5" r="3.5" class="st1"/><circle id="Round15" cx="123.5" cy="57" r="2.5" class="st1"/><circle id="Round16" cx="122.5" cy="36" r="3" class="st1"/><circle id="Round17" cx="89.5" cy="42" r="2" class="st1"/><circle id="Round18" cx="79.5" cy="75.5" r="2.5" class="st1"/><circle id="Round19" cx="61.5" cy="61" r="4" class="st1"/><circle id="Round20" cx="46" cy="87" r="2.5" class="st1"/><circle id="Round21" cx="61.5" cy="119.5" r="2.5" class="st1"/><circle id="Round22" cx="37.5" cy="120" r="2" class="st1"/></g></g></svg>