<svg xmlns="http://www.w3.org/2000/svg" xml:space="preserve" viewBox="0 0 490 490"><path d="M0 245c0 135.1 109.9 245 245 245s245-109.9 245-245S380.1 0 245 0 0 109.9 0 245" style="fill:#00edd3"/><path d="M66 245c0 98.7 80.3 179 179 179 98.5 0 178.6-79.9 179-178.3v-1.4c-.1-13.8-1.7-27.5-4.9-40.9-2.6-10.3-13-16.5-23.3-14-10.1 2.5-16.4 12.7-14.1 22.9 2.6 10.7 3.9 21.7 3.9 32.7 0 77.5-63.1 140.6-140.6 140.6S104.4 322.5 104.4 245 167.5 104.4 245 104.4c11 0 21.9 1.3 32.6 3.8 10.4 2.2 20.6-4.4 22.8-14.8 2.1-10-4-20-13.9-22.6C272.9 67.6 259 66 245 66c-98.7 0-179 80.3-179 179m269.5-130.9c-.2.2-.4.5-.7.8-4.4 4.6-7 10.6-7.6 16.9 0 1 0 2-.1 3 0 .7-.1 1.4-.2 2.1-2.8 28.1-27.8 48.6-55.9 45.8-2.2-.2-4.4-.6-6.6-1.1-1.3-.3-2.6-.6-3.8-1.1-21.5-5.2-44.2.7-60.4 15.8-.7.6-1.4 1.1-2 1.8-25.8 25.9-25.8 67.8.1 93.6s67.8 25.8 93.6-.1c16.2-16.2 22.8-39.7 17.5-62.1-.4-1.2-.7-2.4-1-3.6 0-.2-.1-.4-.1-.5-6.4-27.5 10.8-55 38.3-61.3 2.4-.5 4.8-.9 7.2-1.1.4 0 .8-.1 1.1-.1 1.1-.1 2.2-.1 3.2-.1h.3c6.6-.6 12.8-3.5 17.5-8.2 11.3-11 11.6-29.1.6-40.4s-29.1-11.6-40.4-.6c-.2.1-.4.3-.6.5" style="fill:#fff"/></svg>