<svg xmlns="http://www.w3.org/2000/svg" xml:space="preserve" id="Kyber" x="0" y="0" version="1.1" viewBox="0 0 245 245"><style>.st1{fill:#fff}</style><path id="Full" d="M0 122.5C0 190 55 245 122.5 245S245 190 245 122.5 190 0 122.5 0 0 55 0 122.5" style="fill:#6c8275"/><g id="Kyber-2"><path id="Left" d="M58.5 77.5c0-5.1 4-8.5 4-8.5s42.9-32.9 45-34.5c2.3-1.3 5.7-.5 5.5 2.5-.4 2.3-18 84.5-18 84.5s17.5 80.6 18 82.5c.2 1.2.1 5.6-5 4.5-1.1-.9-46-35.5-46-35.5s-3.5-3.2-3.5-6.5z" class="st1"/><path id="Bottom" d="M110 135s67.7 37.5 69.5 38.5c2.7 1.9 1.3 5.1 0 6s-44.5 32.2-47 34c-1.8 1-4.1.3-5.1-1.5-.3-.5-.4-1-.4-1.5-.5-2-17-75.5-17-75.5" class="st1"/><path id="Right" d="M113 123s67.3-38.8 68.5-39.5c3.4-1.1 5 1.2 5 2.5v73c0 2.9-3.4 3.9-5.5 3-1-.6-68-39-68-39" class="st1"/><path id="Top" d="M110 110.5S177.7 73 179.5 72c2.7-1.9 1.3-5.1 0-6s-44.5-32.2-47-34c-1.8-1-4.1-.3-5.1 1.5-.3.5-.4 1-.4 1.5-.5 2-17 75.5-17 75.5" class="st1"/></g></svg>