<svg xmlns="http://www.w3.org/2000/svg" xmlns:xlink="http://www.w3.org/1999/xlink" width="250" height="250"><defs><linearGradient xlink:href="#a" id="c" x1="17.336" x2="80" y1="74.339" y2="74.339"><stop offset="0" stop-color="gray"/><stop offset=".327" stop-color="#838383"/><stop offset=".59" stop-color="#8d8d8d"/><stop offset=".83" stop-color="#9e9e9e"/><stop offset="1" stop-color="#afafaf"/></linearGradient><linearGradient xlink:href="#a" id="d" x1="48.668" x2="48.668" y1="68.69" y2="80"><stop offset=".35" stop-color="#dfdfdf"/><stop offset=".645" stop-color="#ddd"/><stop offset=".752" stop-color="#d6d6d6"/><stop offset=".828" stop-color="#cbcbcb"/><stop offset=".889" stop-color="#bababa"/><stop offset=".941" stop-color="#a4a4a4"/><stop offset=".987" stop-color="#898989"/><stop offset="1" stop-color="gray"/></linearGradient><linearGradient xlink:href="#a" id="e" x1="17.336" x2="80" y1="55.314" y2="55.314"><stop offset="0" stop-color="#dfdfdf"/><stop offset=".021" stop-color="#e1e1e1"/><stop offset=".244" stop-color="#f2f2f2"/><stop offset=".487" stop-color="#fcfcfc"/><stop offset=".791" stop-color="#fff"/><stop offset=".844" stop-color="#fcfcfc"/><stop offset=".887" stop-color="#f2f2f2"/><stop offset=".926" stop-color="#e1e1e1"/><stop offset=".963" stop-color="#c9c9c9"/><stop offset=".966" stop-color="#c7c7c7"/><stop offset="1" stop-color="#fff"/></linearGradient><linearGradient xlink:href="#a" id="b" x1="17.338" x2="79.999" y1="42.63" y2="42.63"><stop offset="0" stop-color="#242424"/><stop offset=".335" stop-color="#2d2d2d"/><stop offset=".791" stop-color="#303030"/><stop offset=".867" stop-color="#2d2d2d"/><stop offset=".928" stop-color="#232323"/><stop offset=".966" stop-color="#181818"/><stop offset="1" stop-color="#303030"/></linearGradient><linearGradient xlink:href="#b" id="g" x1="17.332" x2="80.001" y1="46.79" y2="46.79"/><linearGradient xlink:href="#b" id="h" x1="17.339" y1="42.886" y2="42.886"/><linearGradient xlink:href="#b" id="i" x1="17.339" x2="79.998" y1="38.975" y2="38.975"/><linearGradient xlink:href="#b" id="j" x1="17.339" y1="43.156" y2="43.156"/><linearGradient xlink:href="#b" id="k" x1="17.337" y1="67.012" y2="67.012"/><linearGradient xlink:href="#b" id="l" x1="17.335" x2="80.004" y1="66.444" y2="66.444"/><linearGradient xlink:href="#b" id="m" x1="17.339" x2="79.993" y1="70.879" y2="70.879"/><linearGradient xlink:href="#b" id="n" x1="17.336" x2="80" y1="70.28" y2="70.28"/><linearGradient xlink:href="#b" id="o" x1="17.337" x2="79.998" y1="48.667" y2="48.667"/><linearGradient xlink:href="#b" id="p" x1="17.336" x2="80" y1="47.415" y2="47.415"/><linearGradient xlink:href="#b" id="q" x1="17.336" x2="80" y1="46.141" y2="46.141"/><linearGradient xlink:href="#b" id="r" y1="65.683" y2="65.683"/><linearGradient xlink:href="#b" id="s" x1="17.332" x2="80.001" y1="60.429" y2="60.429"/><linearGradient xlink:href="#b" id="t" x2="80" y1="66.754" y2="66.754"/><linearGradient xlink:href="#b" id="u" x1="17.339" y1="61.5" y2="61.5"/><linearGradient xlink:href="#b" id="v" x1="17.339" y1="67.822" y2="67.822"/><linearGradient xlink:href="#b" id="w" x1="17.339" y1="62.588" y2="62.588"/><linearGradient xlink:href="#a" id="x" x1="17.336" x2="80" y1="54.261" y2="54.261"><stop offset="0" stop-color="#b41b00"/><stop offset=".021" stop-color="#b61d01"/><stop offset=".244" stop-color="#c72e0b"/><stop offset=".487" stop-color="#d13811"/><stop offset=".791" stop-color="#d43b13"/><stop offset=".841" stop-color="#d13812"/><stop offset=".882" stop-color="#c72f0f"/><stop offset=".919" stop-color="#b61f0a"/><stop offset=".954" stop-color="#9e0903"/><stop offset=".966" stop-color="#940000"/><stop offset="1" stop-color="#d43b13"/></linearGradient><linearGradient xlink:href="#a" id="y" x1="17.336" x2="79.999" y1="59.12" y2="59.12"><stop offset="0" stop-color="#00209f"/><stop offset=".021" stop-color="#0222a1"/><stop offset=".244" stop-color="#1333b2"/><stop offset=".487" stop-color="#1d3dbc"/><stop offset=".791" stop-color="#2040bf"/><stop offset=".841" stop-color="#1e3dbc"/><stop offset=".882" stop-color="#1933b2"/><stop offset=".919" stop-color="#1122a1"/><stop offset=".954" stop-color="#050a89"/><stop offset=".966" stop-color="#00007f"/><stop offset="1" stop-color="#2040bf"/></linearGradient><linearGradient xlink:href="#b" id="f"/><linearGradient id="a" gradientUnits="userSpaceOnUse"/></defs><circle cx="125" cy="125" r="125" fill="#cdcdcd" fill-rule="evenodd"/><path fill="#0e3ca5" d="M105.687 164.865c4.822 17.888 22.123 31.534 30.86 30.968.306-.019 33.137-6.157 51.11-36.26 13.984-23.432 9.225-46.05-9.797-46.546-6.845.502-81.356 17.765-72.168 51.842m70.393-114.89-.019-.017.027-.014a83.48 83.704 0 0 0-87.998-12.732 48.787 48.918 0 0 0-5.275 2.598c-1.172.624-2.344 1.248-3.482 1.934l.278.085a37.993 38.095 0 0 0-8.812 8.364c-23.974 31.735 56.343 54.814 99.29 54.881 19.748 14.222 25.293-40.034 5.991-55.099"/><path fill="#5493f7" d="M92.946 50.62C81.91 67.25 45.156 78.968 39.113 77.143l-.041-.077c.24-.5.499-1 .754-1.496a88.437 88.674 0 0 1 26.207-30.66q3.392-2.49 7.023-4.66a26.038 26.108 0 0 1 12.15-3.247c16.368.314 7.822 13.489 7.732 13.622m-9.048 117.51c.793 5.224-.02 25.866-1.085 27.602-.918.055-2.83.174-8.368-2.942A88.097 88.333 0 0 1 34.491 88.229q.441-1.33.923-2.642c6.343 8.46 13.685 16.114 19.924 24.657 5.943 8.135 14.118 21.399 15.782 24.232 10.328 17.591 11.975 28.445 12.763 33.662m122.107-52.022a87.757 87.992 0 0 1-6.126 32.407c-10.367 11.168-80.242-16.324-80.927-16.624-9.559-4.199-38.649-16.977-41.274-37.041-3.764-28.888 54.653-49.01 80.329-49.771 3.078.036 12.447.145 17.91 4.593a87.793 88.028 0 0 1 30.088 66.436m-47.304 78.257c-7.619 3.564-16.004.967-13.824-6.471 4.183-14.284 40.71-28.929 48.777-29.734.996-.099 1.418.58.977 1.357a88.897 89.135 0 0 1-35.923 34.836"/><path fill="url(#c)" d="M17.336 77.254a2.55 2.55 0 0 0 2.328 2.714c30.7.21 60.336-1.2 60.336-5.8 0-13.924-62.664 3.086-62.664 3.086" transform="matrix(2.4109 0 0 2.41737 27.128 21.612)"/><path fill="url(#d)" d="M17.336 77.254a2.55 2.55 0 0 0 2.34 2.714c30.692.233 60.287-.731 60.324-5.8 0-13.924-62.664 3.086-62.664 3.086m2.342 2.537a2 2 0 0 1-.245-.014 2.4 2.4 0 0 1-1.987-1.763 2.37 2.37 0 0 0 2.229 1.761c30.67-.192 59.844-9.635 59.844-5.477 0 4.244-29.171 5.702-59.841 5.493" transform="matrix(2.4109 0 0 2.41737 27.128 21.612)"/><path fill="url(#e)" d="M19.68 37.823a2.343 2.343 0 0 0-2.344 2.343v37.088a2.343 2.343 0 0 0 2.328 2.346C50.363 79.37 80.038 69.209 80 74.169V32.394c.038-4.961-29.627 5.199-60.32 5.429" transform="matrix(2.4109 0 0 2.41737 27.128 21.612)"/><path fill="url(#f)" d="m61.545 45 1.447-1.218-1.325-1.76-1.328-1.762-1.448 1.215 1.328 1.763z" transform="matrix(2.4109 0 0 2.41737 27.128 21.612)"/><path fill="url(#g)" d="m64.676 49.158 1.442-1.217L64.8 46.18l-1.322-1.757-1.445 1.219 1.324 1.759z" transform="matrix(2.4109 0 0 2.41737 27.128 21.612)"/><path fill="url(#h)" d="m63.954 43.494 1.335 1.773 1.551 2.07 1.443-1.205-1.552-2.077-1.331-1.781-1.335-1.775-1.553-2.063-1.445 1.217 1.554 2.065z" transform="matrix(2.4109 0 0 2.41737 27.128 21.612)"/><path fill="url(#i)" d="m65.877 41.344 1.443-1.21L66 38.366l-1.322-1.76-1.444 1.222 1.323 1.757z" transform="matrix(2.4109 0 0 2.41737 27.128 21.612)"/><path fill="url(#j)" d="m67.8 40.778-1.443 1.207 1.322 1.77 1.323 1.779 1.444-1.188-1.323-1.788z" transform="matrix(2.4109 0 0 2.41737 27.128 21.612)"/><path fill="url(#k)" d="m35.694 66.468-1.344-1.882-1.56-2.2-1.451 1.089 1.559 2.2 1.344 1.889 1.344 1.882 1.563 2.178 1.452-1.119-1.561-2.171z" transform="matrix(2.4109 0 0 2.41737 27.128 21.612)"/><path fill="url(#l)" d="m30.49 66.984 1.332 1.887 1.452-1.09-1.331-1.876-1.331-1.887-1.453 1.069z" transform="matrix(2.4109 0 0 2.41737 27.128 21.612)"/><path fill="url(#m)" d="m33.757 68.461-1.451 1.094 1.33 1.874 1.332 1.868 1.453-1.108-1.331-1.862z" transform="matrix(2.4109 0 0 2.41737 27.128 21.612)"/><path fill="url(#n)" d="m31.337 69.756-1.342-1.908-1.564-2.232-1.454 1.05 1.562 2.244a763 763 0 0 0 2.689 3.828l1.561 2.206 1.453-1.1-1.561-2.194z" transform="matrix(2.4109 0 0 2.41737 27.128 21.612)"/><path fill="url(#o)" d="m35.588 46.123-1.346 2.138-1.344 2.131-1.559 2.467 1.451.843 1.561-2.476 1.345-2.139 1.346-2.144 1.563-2.5-1.454-.811z" transform="matrix(2.4109 0 0 2.41737 27.128 21.612)"/><path fill="url(#p)" d="M32.064 47.007a1185 1185 0 0 1-2.905 4.562l1.453.863 1.561-2.46 1.343-2.128 1.345-2.134 1.563-2.487-1.455-.824-1.563 2.479z" transform="matrix(2.4109 0 0 2.41737 27.128 21.612)"/><path fill="url(#q)" d="m30 48.693 1.343-2.111 1.343-2.122 1.561-2.475-1.452-.835a1085 1085 0 0 1-2.905 4.576l-1.346 2.1-1.562 2.426 1.454.881z" transform="matrix(2.4109 0 0 2.41737 27.128 21.612)"/><path fill="url(#r)" d="m62.991 63.818-1.446-.713-1.327 2.221-1.327 2.218 1.448.717 1.327-2.22z" transform="matrix(2.4109 0 0 2.41737 27.128 21.612)"/><path fill="url(#s)" d="m63.473 63.009 1.323-2.225 1.323-2.221-1.443-.715-1.323 2.226-1.326 2.223z" transform="matrix(2.4109 0 0 2.41737 27.128 21.612)"/><path fill="url(#t)" d="m65.156 64.884-1.443-.71-1.325 2.224-1.326 2.221 1.447.715 1.324-2.224z" transform="matrix(2.4109 0 0 2.41737 27.128 21.612)"/><path fill="url(#u)" d="m66.96 61.859 1.323-2.209-1.444-.728-1.322 2.219-1.322 2.225 1.442.711z" transform="matrix(2.4109 0 0 2.41737 27.128 21.612)"/><path fill="url(#v)" d="m64.555 67.465-1.323 2.225 1.444.711 1.322-2.222 1.323-2.216-1.443-.721z" transform="matrix(2.4109 0 0 2.41737 27.128 21.612)"/><path fill="url(#w)" d="m67.682 62.222-1.323 2.214 1.443.723 1.324-2.2 1.322-2.2-1.443-.743z" transform="matrix(2.4109 0 0 2.41737 27.128 21.612)"/><path fill="url(#x)" d="M58.561 50.975A8.4 8.4 0 0 0 57 48.418a8.2 8.2 0 0 0-2.438-1.862 9 9 0 0 0-2.522-.828 10 10 0 0 0-2.669-.1 11.7 11.7 0 0 0-2.655.585 12.7 12.7 0 0 0-4.81 2.979 12.6 12.6 0 0 0-1.851 2.326 8.8 8.8 0 0 0-1.182 3.013 7.8 7.8 0 0 0 .016 3 7 7 0 0 0 1.141 2.648 6.45 6.45 0 0 0 2.2 1.938 6.85 6.85 0 0 0 2.89.807 7.8 7.8 0 0 0 3-.444 9.4 9.4 0 0 0 2.78-1.564 9.8 9.8 0 0 0 2.21-2.54l2.172 1.1 2.164 1.079a12.6 12.6 0 0 0 1.387-3.281A11 11 0 0 0 59.187 54a9.6 9.6 0 0 0-.626-3.025" transform="matrix(2.4109 0 0 2.41737 27.128 21.612)"/><path fill="url(#y)" d="M56 53.557a4.67 4.67 0 0 0-2.583-.444 6 6 0 0 0-2.6.926 6.5 6.5 0 0 0-2.059 2.116 6.3 6.3 0 0 1-2.049 2.1 5.7 5.7 0 0 1-2.606.875 4.7 4.7 0 0 1-2.6-.541 4.34 4.34 0 0 1-1.8-1.842 4.9 4.9 0 0 1-.52-2.54 5.74 5.74 0 0 1 .871-2.687 11.9 11.9 0 0 0-1.392 3.2 10.8 10.8 0 0 0-.357 3.247 9.8 9.8 0 0 0 .628 3.067 9 9 0 0 0 1.567 2.644 8.6 8.6 0 0 0 2.455 1.972 8.8 8.8 0 0 0 2.526.9 9.4 9.4 0 0 0 2.661.128 11 11 0 0 0 2.664-.6 12.2 12.2 0 0 0 2.535-1.25 12.6 12.6 0 0 0 2.26-1.86 13.3 13.3 0 0 0 1.844-2.419 6 6 0 0 0 .868-2.737 4.76 4.76 0 0 0-.518-2.509A4.07 4.07 0 0 0 56 53.557" transform="matrix(2.4109 0 0 2.41737 27.128 21.612)"/></svg>