<svg xmlns="http://www.w3.org/2000/svg" width="256" height="256" viewBox="0 0 67.733 67.733"><g transform="translate(0 -229.267)"><circle cx="33.867" cy="263.133" r="32.411" style="opacity:1;fill:#000;fill-opacity:1;fill-rule:nonzero;stroke:none;stroke-width:.50681674;stroke-linecap:round;stroke-linejoin:round;stroke-miterlimit:4;stroke-dasharray:none;stroke-dashoffset:0;stroke-opacity:1;paint-order:stroke fill markers"/><path d="M373.1 126.9c-5.2-4.1-11.4-9.7-22.7-11.1-10.6-1.4-21.4 5.7-28.7 10.4s-21.1 18.5-26.8 22.7-20.3 8.1-43.8 22.2-115.7 73.3-115.7 73.3l24 .3-107 55.1h10.7l-15.4 11.7s13.6 3.6 25-3.6v3.3s127.4-50.2 152-37.2l-15 4.4c1.3 0 25.5 1.6 25.5 1.6s.8 15.1 15.4 24.8c14.6 9.6 14.9 14.9 14.9 14.9s-7.6 3.1-7.6 7c0 0 11.2-3.4 21.6-3.1s19.5 3.1 19.5 3.1-.8-4.2-10.9-7c-10.2-2.9-20.1-13.8-25-19.8s-8.3-16.7-4.1-27.4c3.5-9.1 15.7-14.1 40.9-27.1 29.7-15.4 36.5-26.8 40.7-35.7s10.4-26.6 13.9-34.9c4.4-10.7 9.8-16.4 14.3-19.8 4.4-3.4 24.5-10.9 24.5-10.9s-15.3-13.3-20.2-17.2" style="fill:#fff;fill-opacity:1" transform="matrix(.122 0 0 .122 5.234 235.612)"/></g></svg>