<svg xmlns="http://www.w3.org/2000/svg" viewBox="0 0 490 490"><defs><style>.b{fill:#fff}</style></defs><rect width="490" height="490" rx="60.06" ry="60.06" style="fill:#f80"/><path d="M226.82 246.05 364 324.49a7.23 7.23 0 0 0 10.8-6.22V173.74a7.2 7.2 0 0 0-10.8-6.22ZM360.9 132.78l-93.66-68.84a7.45 7.45 0 0 0-11.69 4.19l-34.2 153.22 138.7-76.74a7 7 0 0 0 .85-11.83M267.15 428.1l93.75-68.86a7 7 0 0 0-.77-11.84l-138.78-76.75 34.2 153.26c1 5.09 7.34 7.31 11.6 4.19" class="b"/><path d="m191.2 243.3 35.45-166.63a7.1 7.1 0 0 0-11.24-7.22l-90.77 70a19 19 0 0 0-7.39 15.09V332a19 19 0 0 0 7.39 15.09l90.77 70a7.1 7.1 0 0 0 11.24-7.21Z" class="b"/></svg>