<svg xmlns="http://www.w3.org/2000/svg" xml:space="preserve" id="ETHLend" x="0" y="0" version="1.1" viewBox="0 0 245 245"><style>.st1{fill:#fff}</style><path id="Main" d="M0 122.5C0 190 55 245 122.5 245S245 190 245 122.5 190 0 122.5 0 0 55 0 122.5" style="fill:#00acc7"/><g id="LEND"><path id="Down" d="m70 126 14-14 49 49-48.5 48.5L70 195l34.5-34.5zm34.5 34.5L70 126" class="st1"/><path id="Middle" d="m91 105.5 14-14 48.5 48.5-14 14z" class="st1"/><path id="Top" d="m174.5 49.5-14-14-49 49L160 133l14.5-14.5L140 84zM140 84l34.5-34.5" class="st1"/></g></svg>