<svg xmlns="http://www.w3.org/2000/svg" xml:space="preserve" viewBox="0 0 490 490"><path d="M0 245c0 135.1 109.9 245 245 245s245-109.9 245-245S380.1 0 245 0 0 109.9 0 245" style="fill:#0b171f"/><path d="m242.8 96.2-33.4 17.9 13.5 8.6 19.9-10.2 60.2 35.1v61.2h-37.1V244l50.6-21.4v-83zm91.8 66.3 9.2-11 33.5 26.2V255l-63.4 39.6-7.8-12 55.1-35V185zm13.4 120h13.6l-.5 36.1-76.5 54.2-50.6-38.5v-37.6l-40.9-44h97.1l-41.7 44v30.8l36.1 28.2L348 311zm-85.4 86.2 5.2 12.2-26.2 11.9-73.4-37.1v-71.1h14.1v61.5l59.2 31.3zm-41.8-159.8-.2 35.2-45.6-21.3-47.6 24.7v60.3l27.3 19.7-8.7 11-32.7-23.4v-76.6l58-29.6zm-107.6 5.4v-47.7l76.9-46.3 58.3 33.2-8 12.1-50.3-28.4-62.7 37.9v39.2z" style="fill:#fff"/></svg>