<svg xmlns="http://www.w3.org/2000/svg" xml:space="preserve" id="LMY" x="0" y="0" version="1.1" viewBox="0 0 490 490"><style>.st1{fill:#fff}</style><path id="Full" d="M0 245c0 135.1 109.9 245 245 245s245-109.9 245-245S380.1 0 245 0 0 109.9 0 245" style="fill:#094e9c"/><path d="M382.4 218.8c-13.4-18.9-38.2-53.9-40.4-57.1-4.6-4.6-11.3-10.5-29.3-10.5-34.7 0-40.6 29.4-42.4 35.1-2.2-3.6-11.1-10-25.5-10s-22.4 6.1-25.6 10c-6.7-26.6-21.6-34-41.4-35-19.9-1-30.6 11.1-30.6 11.1L106 219.8c-24.5 13.5-41.2 39.6-41.2 69.6 0 43.8 35.5 79.3 79.3 79.3s79.3-35.5 79.3-79.3v-.2c6.2 3.8 13.5 6 21.5 6 8.1 0 15.6-2.3 21.9-6.2v.5c0 43.8 35.5 79.3 79.3 79.3s79.3-35.5 79.3-79.3c-.1-30.9-17.5-57.5-43-70.7m-235 131.4c-.3-6.1-.9-22.4-.5-30 .6-9.5 17.6-7 17.6-29.9s-12.5-36-21.4-36.4-19.1 17.8-19.9 36.4c-.9 20.6 18.6 22.7 18.2 29.9-.3 5.4-.7 23.5-.9 30-31.9-1.8-57.1-28.2-57.1-60.5 0-20.8 10.5-39.2 26.5-50.1 9.7-6.6 21.5-10.5 34.1-10.5 19.8 0 37.3 9.5 48.4 24.1 7.7 10.2 12.2 22.8 12.2 36.5 0 32.3-25.3 58.8-57.2 60.5m97.4-65.4c-5 0-9.2-4.1-9.2-9.2s4.1-9.2 9.2-9.2 9.2 4.1 9.2 9.2c-.1 5.1-4.2 9.2-9.2 9.2m104.5 65.4c0-5.8-.1-26.6-.1-31.3 0-5.5 10.3-6.9 10.5-14.7 0-5.5-3.4-49.3-3.5-50.6s-2.3-1.1-2.3 0-.7 43.2-.7 44.9c0 1.5-1.9 1.6-1.9 0 0-1.5-1-43.6-1-44.9 0-1.2-2.2-1.1-2.2 0s-1.1 43.7-1.2 44.9c0 1.3-1.9 1.4-2 0 0-2-.9-43.6-.9-44.9s-2.3-1.3-2.3 0c-.1 1.2-.9 43.7-.9 45s-2.2 1.3-2.2 0c-.1-1.6-.4-43.5-.5-45-.1-1.2-2-1.2-2.2 0-.2 2.1-3.4 44-3.4 50.9s9.7 8.5 10.1 14.2c.3 5 .1 25.7 0 31.5-31.8-1.9-57-28.2-57-60.5 0-16.5 6.6-31.5 17.3-42.4 11-11.2 26.3-18.2 43.3-18.2 8.9 0 17.4 1.9 25 5.4 21 9.5 35.6 30.7 35.6 55.2-.2 32.4-25.6 58.8-57.5 60.5" class="st1"/><path d="M193.9 306.9s.2-24.6-11.5-42.1S154 238 154 238s22.7 3.2 35 23.9c12.3 20.6 4.9 45 4.9 45M395.6 306.9s.2-24.6-11.5-42.1-28.4-26.8-28.4-26.8 22.7 3.2 35 23.9c12.3 20.6 4.9 45 4.9 45M309.6 144c-6.6-.1-14.6 2.2-19.4 5.4-14.2-7.1-29-9.9-45.9-9.9-16.7 0-31.2 2.6-45.2 9.5-5.5-3.5-13.1-5.1-20.1-5 18.8-12.2 41.3-19.3 65.3-19.3 24.1 0 46.5 7.1 65.3 19.3M340 374.8c-27.3 20.8-60.1 31.5-95.6 31.5-35.4 0-67.8-10-96.6-31.7 3.7.4 7.4-.1 10.1-.8 24.7 16.7 54.5 26.4 86.4 26.4 32.1 0 62-9.8 86.8-26.6 2.7.6 5.5 1.2 8.9 1.2" class="st1"/><path d="M404.2 224.6c-2.3-2.7-4.6-4.5-7-5.9-12.5-73-76.3-128.8-152.9-128.8-76.9 0-140.9 56.3-153.1 129.8-2.4 1.5-5 3.4-7 6.2 10.3-82.3 78-142.1 160-142.1 81.7-.1 149.6 59.6 160 140.8M293.1 355.1c-15.6 7.4-30.5 10.2-48.8 10.2-17.9 0-32.5-2.7-47.9-9.8 4.7-3.3 8.6-7.4 11.8-11.5 12.3 5 22 6.6 36.1 6.6 14.5 0 24.5-1.7 37.1-7 3.2 5 7.3 8.5 11.7 11.5" class="st1"/></svg>