<svg xmlns="http://www.w3.org/2000/svg" xml:space="preserve" viewBox="0 0 245 245"><path d="M0 122.5C0 190 55 245 122.5 245S245 190 245 122.5 190 0 122.5 0 0 55 0 122.5" style="fill:#5756e6"/><path d="M78 53.5s93.7 67.4 109 78.5c22.2 14.5 16.4 34.8 2.5 45l-22 16s-110.1-78.9-116-83c-9.9-8.5-13.7-25 .5-36.5 7.1-5.8 26-20 26-20" style="fill:none;stroke:#fff;stroke-width:10;stroke-linecap:round;stroke-linejoin:round"/><path d="M106.5 95.5C85.1 111 64.3 127.3 57.8 132c-22.2 14.5-16.4 34.8-2.5 45l22 16s13.3-9.2 29.7-21m30.5-22.2c26.7-19.3 52.9-37.9 55.7-39.8 9.9-8.5 13.6-25-.5-36.5-7.1-5.8-26-20-26-20s-13 9.3-29.2 21" style="fill:none;stroke:#fff;stroke-width:10;stroke-linejoin:round"/></svg>