<svg xmlns="http://www.w3.org/2000/svg" xml:space="preserve" viewBox="0 0 490 490"><path d="M0 245c0 135.1 109.9 245 245 245s245-109.9 245-245S380.1 0 245 0 0 109.9 0 245" style="fill:#001a3e"/><path d="m219.3 384.4 36.9-41.2c.4-.4.4-1 0-1.4-.2-.2-.5-.3-.8-.3h-40.6c-.3-.1-.6-.2-.8-.4l-34.4-38.3c-.3-.4-.3-.8-.2-1.2l57.6-98.3c.2-.3.2-.7 0-1l-23.8-40.8c-.4-.5-1.1-.6-1.6-.2-.1.1-.2.1-.2.2l-85.1 145.4q-.3.6 0 1.2l68.3 76.4c.2.3.5.4.8.4h23.2c.1-.1.5-.3.7-.5m25.3-279.8-24 40.8c-.2.3-.2.7 0 1l24.8 42.4 65.9 112.5c.2.4.2.9-.2 1.2l-34.8 38.7-37.1 41.6c-.4.4-.4 1 0 1.4.2.2.5.3.8.3h55.5c.3-.1.6-.2.8-.4l68.3-76.4c.3-.4.3-.8.2-1.2L246.2 104.6c-.1-.5-.6-.7-1.1-.6-.2.1-.4.3-.5.6" style="fill:#fff"/></svg>