<svg xmlns="http://www.w3.org/2000/svg" xml:space="preserve" viewBox="0 0 490 490"><path d="M0 245c0 135.1 109.9 245 245 245s245-109.9 245-245S380.1 0 245 0 0 109.9 0 245" style="fill:#f14e10"/><path d="M242.7 90.8c1.7-1 3.9-1 5.6 0L373 162.4c2.7 1.5 3.6 5 2.1 7.6q-.75 1.35-2.1 2.1l-108.5 62.5c-3.8-4.4-9-7.4-14.8-8.4v-34c13.6-2.3 22.7-15.2 20.4-28.8s-15.2-22.7-28.8-20.4-22.7 15.2-20.4 28.8c1.8 10.3 9.8 18.5 20.2 20.3v34.1c-5.7 1-10.8 4-14.6 8.3L118 172.2c-2.7-1.5-3.6-5-2.1-7.6q.75-1.35 2.1-2.1zm130.7 90.1c2.7-1.6 6.1-.7 7.7 2 .5.9.8 1.8.8 2.8l.1 139c0 2-1.1 3.9-2.8 4.9l-120.8 69.6c-2.7 1.6-6.1.6-7.7-2.1-.5-.9-.8-1.8-.8-2.8l-.1-119.3c5.9-1 11.2-4 15-8.6l30.2 17.3c-3.6 13.4 4.4 27.1 17.7 30.7 13.4 3.6 27.1-4.4 30.7-17.7 3.6-13.4-4.4-27.1-17.7-30.7-10.2-2.7-21 1.2-27.1 9.9L269 259c2.1-5.8 2-12.1-.4-17.8zm-264.3 4.9c0-3.1 2.5-5.6 5.6-5.6 1 0 2 .3 2.8.8l104.9 60.4c-2.3 5.6-2.4 11.9-.4 17.7L192.6 276c-7.8-11.1-23.1-13.8-34.2-6s-13.8 23.1-6 34.2 23.1 13.8 34.2 6c8.4-5.9 12.3-16.4 9.6-26.3l30.2-17.3c3.8 4.5 9 7.6 14.8 8.6l-.1 119.3c0 3.1-2.5 5.6-5.7 5.6-1 0-1.9-.3-2.8-.8l-120.8-69.6c-1.7-1-2.8-2.9-2.8-4.9z" style="fill:#fff"/></svg>