<svg xmlns="http://www.w3.org/2000/svg" width="250" height="250"><circle cx="125" cy="125" r="125" style="fill:#fff;stroke-width:4.98844"/><path d="M195.94 173.649c-2.644 6.107-5.773 11.73-9.4 16.899-4.942 7.046-8.988 11.924-12.107 14.633-4.835 4.446-10.014 6.723-15.561 6.852-3.982 0-8.784-1.133-14.374-3.431-5.608-2.288-10.762-3.421-15.475-3.421-4.942 0-10.243 1.133-15.913 3.42-5.678 2.3-10.253 3.497-13.75 3.616-5.319.226-10.62-2.115-15.913-7.036-3.378-2.946-7.602-7.997-12.664-15.151-5.43-7.64-9.894-16.5-13.392-26.6-3.745-10.91-5.623-21.476-5.623-31.704 0-11.716 2.532-21.82 7.603-30.289 3.985-6.801 9.287-12.167 15.922-16.106 6.636-3.939 13.806-5.946 21.527-6.074 4.224 0 9.765 1.307 16.65 3.875 6.865 2.577 11.273 3.884 13.206 3.884 1.445 0 6.342-1.528 14.644-4.575 7.85-2.825 14.476-3.995 19.904-3.534 14.709 1.187 25.76 6.985 33.108 17.431-13.154 7.97-19.662 19.135-19.532 33.456.119 11.155 4.165 20.437 12.119 27.808 3.604 3.42 7.629 6.065 12.107 7.942a131 131 0 0 1-3.086 8.105M162.206 40.905c0 8.743-3.194 16.906-9.56 24.462-7.684 8.983-16.978 14.174-27.056 13.355a27 27 0 0 1-.202-3.313c0-8.394 3.653-17.376 10.142-24.721q4.861-5.578 12.356-9.277c4.986-2.43 9.702-3.774 14.137-4.004.13 1.169.183 2.338.183 3.497z" style="fill:#b3b3b3;fill-opacity:1;stroke-width:.147259"/></svg>