<svg xmlns="http://www.w3.org/2000/svg" width="250" height="250"><circle cx="125" cy="125" r="125" style="fill:#fff;fill-opacity:1;stroke-width:69.0338"/><path fill-rule="evenodd" d="M125.01 113.381c-5.861 0-11.144 2.602-14.132 6.96-1.322 1.929-2.19 4.185-2.577 6.707-.448 2.914-.262 6.205.554 9.783 1.946 8.545 7.5 18.737 16.156 29.706 8.654-10.966 14.207-21.155 16.155-29.698.816-3.58 1.003-6.873.556-9.787-.387-2.523-1.254-4.78-2.577-6.71-2.988-4.36-8.272-6.961-14.135-6.96m-56.383 34.775-.211.458a534 534 0 0 0-3.54 7.79c-.711 1.61-1.452 3.333-2.055 5.031-1.545 4.349-1.994 8.266-1.412 12.328 1.19 8.313 6.76 15.438 14.539 18.594 3.842 1.559 7.955 2.098 12.225 1.602 4.054-.471 8.042-1.836 12.192-4.171 5.758-3.24 11.583-8.217 18.14-15.524-10.417-12.851-16.907-24.69-19.309-35.234-1.093-4.799-1.324-9.337-.686-13.489.616-4.003 2.028-7.638 4.198-10.803 4.836-7.053 13.172-11.264 22.301-11.264 9.131 0 17.47 4.21 22.306 11.265 2.17 3.167 3.583 6.804 4.198 10.807.637 4.153.405 8.693-.69 13.493-2.403 10.542-8.893 22.378-19.306 35.224 6.558 7.308 12.383 12.285 18.14 15.525 4.15 2.336 8.139 3.7 12.192 4.171 4.27.496 8.383-.043 12.226-1.602 7.777-3.156 13.348-10.28 14.538-18.594.582-4.062.134-7.979-1.411-12.328-.569-1.6-1.233-3.169-2.055-5.032-1.14-2.581-2.35-5.205-3.519-7.742l-.232-.505-.001-.002a1824 1824 0 0 0-34.851-71.408l-.498-.966a470 470 0 0 0-3.815-7.307c-1.347-2.505-2.704-4.928-4.491-7.022-3.346-3.92-7.747-5.991-12.728-5.991-4.982 0-9.384 2.073-12.73 5.994-1.788 2.095-3.144 4.517-4.49 7.023a470 470 0 0 0-3.825 7.324l-.486.945-.001.003a1824 1824 0 0 0-34.851 71.406m16.479 55.89c-4.45 0-8.768-.839-12.883-2.509a33.63 33.63 0 0 1-13.83-10.433 33.65 33.65 0 0 1-6.79-15.936c-.807-5.633-.19-11.209 1.883-17.047.712-2.003 1.54-3.932 2.327-5.716 1.18-2.67 2.413-5.347 3.606-7.936l.21-.457h.003a1834 1834 0 0 1 35.04-71.798l.485-.943a474 474 0 0 1 3.907-7.48c1.546-2.878 3.259-5.926 5.68-8.764 5.21-6.107 12.408-9.47 20.266-9.47 7.856 0 15.051 3.362 20.261 9.466 2.422 2.837 4.135 5.885 5.682 8.764a477 477 0 0 1 3.898 7.462l.496.964a1834 1834 0 0 1 35.044 71.805l.23.496c1.185 2.573 2.412 5.234 3.584 7.889.789 1.788 1.617 3.717 2.327 5.716 2.074 5.84 2.69 11.415 1.883 17.048a33.65 33.65 0 0 1-6.79 15.936 33.63 33.63 0 0 1-13.83 10.433c-5.402 2.191-11.153 2.953-17.093 2.262-5.31-.617-10.662-2.427-15.907-5.379-6.45-3.629-12.82-8.958-19.788-16.583-6.966 7.625-13.338 12.954-19.787 16.584-5.245 2.952-10.597 4.761-15.908 5.378a36 36 0 0 1-4.21.247" style="fill:#ff5a5f;fill-opacity:1;stroke-width:9.90595"/></svg>