<svg xmlns="http://www.w3.org/2000/svg" width="256" height="256" viewBox="0 0 67.733 67.733"><g transform="translate(0 -229.267)"><circle cx="33.867" cy="263.133" r="32.126" style="opacity:1;fill:#333;fill-opacity:1;fill-rule:nonzero;stroke:none;stroke-width:.57101721;stroke-linecap:round;stroke-linejoin:round;stroke-miterlimit:4;stroke-dasharray:none;stroke-dashoffset:0;stroke-opacity:1;paint-order:stroke fill markers"/><path d="M50.146 265.877a2.742 2.742 0 1 0-1.557-4.997l-3.853-2.225q.01-.11.01-.22t-.01-.22l3.853-2.225a2.742 2.742 0 1 0 0-4.51l-3.853-2.226q.01-.108.01-.22a2.745 2.745 0 1 0-1.184 2.256l3.853 2.225q-.009.11-.01.22 0 .11.01.22l-3.853 2.225a2.735 2.735 0 0 0-3.114 0l-3.854-2.226q.01-.108.012-.22a2.74 2.74 0 0 0-1.567-2.472v-4.453a2.742 2.742 0 1 0-2.35 0v4.452a2.74 2.74 0 1 0 2.732 4.73l3.853 2.224q-.01.11-.011.22.001.11.01.22l-3.852 2.224a2.74 2.74 0 0 0-3.114 0l-3.853-2.224q.01-.11.01-.22a2.74 2.74 0 0 0-1.566-2.474v-4.452a2.742 2.742 0 1 0-2.35 0v4.452a3 3 0 0 0-.38.219l-3.855-2.225q.01-.11.01-.22a2.742 2.742 0 1 0-3.915 2.473v4.454a2.742 2.742 0 1 0 2.35 0v-4.453a3 3 0 0 0 .38-.219l3.853 2.226a3 3 0 0 0-.01.22 2.74 2.74 0 0 0 1.566 2.472v4.453a2.74 2.74 0 0 0-1.567 2.473q.002.111.011.22l-3.852 2.226a2.741 2.741 0 1 0 1.186 2.256q-.001-.112-.01-.22l3.853-2.225a2.74 2.74 0 1 0 2.73-4.73v-4.451a3 3 0 0 0 .38-.22l3.854 2.226a3 3 0 0 0-.012.22 2.74 2.74 0 0 0 1.57 2.472v4.454a2.74 2.74 0 0 0-1.566 2.473q.001.11.01.22l-3.852 2.224a2.741 2.741 0 1 0 1.184 2.256q-.001-.11-.01-.22l3.853-2.225a3 3 0 0 0 .38.22v4.45a2.74 2.74 0 1 0 3.917 2.477q-.001-.11-.011-.22l3.853-2.224a2.741 2.741 0 1 0-1.184-2.256q.001.11.01.22l-3.852 2.225a3 3 0 0 0-.38-.22v-4.451a2.74 2.74 0 0 0 1.566-2.475q-.001-.11-.011-.22l3.853-2.224a2.74 2.74 0 0 0 3.114 0l3.853 2.224q-.009.11-.01.22a2.744 2.744 0 1 0 1.184-2.256l-3.855-2.224q.01-.11.01-.22a2.742 2.742 0 0 0-5.482 0q.001.11.01.22l-3.853 2.224a3 3 0 0 0-.38-.219v-4.453a2.74 2.74 0 0 0 1.566-2.473q-.001-.11-.01-.22l3.851-2.224a2.74 2.74 0 0 0 3.114 0l3.853 2.224q-.01.11-.01.22a2.74 2.74 0 0 0 2.74 2.742" style="fill:#fff;stroke-width:.03170618"/></g></svg>