<svg xmlns="http://www.w3.org/2000/svg" width="250" height="250" viewBox="2.167 0.438 25.104 25.997"><circle cx="14.719" cy="13.436" r="12.998" style="fill:#fff;stroke-width:.49709;fill-opacity:1"/><g fill="none" fill-rule="evenodd"><path fill="#f90" fill-rule="nonzero" d="M21.223 19.732c-7.692 3.66-12.466.598-15.522-1.263-.19-.117-.51.028-.232.348 1.018 1.234 4.355 4.21 8.71 4.21 4.358 0 6.95-2.378 7.275-2.793.322-.411.095-.638-.23-.502m2.16-1.193c-.206-.27-1.255-.32-1.916-.238-.661.078-1.654.483-1.568.725.044.091.135.05.589.01.456-.046 1.732-.207 1.998.14.268.351-.407 2.019-.53 2.288-.119.269.045.338.269.16.22-.18.62-.644.887-1.3.266-.66.429-1.58.272-1.785"/><path fill="#000" d="M16.05 12.262c0 .96.025 1.761-.46 2.614-.392.694-1.013 1.12-1.706 1.12-.947 0-1.499-.72-1.499-1.786 0-2.101 1.883-2.482 3.666-2.482zm2.487 6.01a.515.515 0 0 1-.582.058c-.819-.68-.964-.995-1.415-1.643-1.353 1.38-2.31 1.792-4.064 1.792-2.074 0-3.69-1.28-3.69-3.842 0-2 1.085-3.364 2.628-4.03 1.339-.59 3.208-.693 4.637-.856v-.32c0-.585.045-1.279-.298-1.785-.302-.454-.878-.642-1.384-.642-.94 0-1.779.482-1.984 1.481-.041.222-.204.44-.426.45L9.566 8.68c-.201-.045-.423-.208-.368-.516.552-2.9 3.17-3.773 5.514-3.773 1.2 0 2.768.319 3.714 1.227 1.2 1.12 1.086 2.615 1.086 4.241v3.843c0 1.155.478 1.66.93 2.285.159.222.193.49-.008.655-.503.42-1.397 1.2-1.89 1.637z"/><path fill="#f90" fill-rule="nonzero" d="M21.223 19.732c-7.692 3.66-12.466.598-15.522-1.263-.19-.117-.51.028-.232.348 1.018 1.234 4.355 4.21 8.71 4.21 4.358 0 6.95-2.378 7.275-2.793.322-.411.095-.638-.23-.502m2.16-1.193c-.206-.27-1.255-.32-1.916-.238-.661.078-1.654.483-1.568.725.044.091.135.05.589.01.456-.046 1.732-.207 1.998.14.268.351-.407 2.019-.53 2.288-.119.269.045.338.269.16.22-.18.62-.644.887-1.3.266-.66.429-1.58.272-1.785"/><path fill="#000" d="M16.05 12.262c0 .96.025 1.761-.46 2.614-.392.694-1.013 1.12-1.706 1.12-.947 0-1.499-.72-1.499-1.786 0-2.101 1.883-2.482 3.666-2.482zm2.487 6.01a.515.515 0 0 1-.582.058c-.819-.68-.964-.995-1.415-1.643-1.353 1.38-2.31 1.792-4.064 1.792-2.074 0-3.69-1.28-3.69-3.842 0-2 1.085-3.364 2.628-4.03 1.339-.59 3.208-.693 4.637-.856v-.32c0-.585.045-1.279-.298-1.785-.302-.454-.878-.642-1.384-.642-.94 0-1.779.482-1.984 1.481-.041.222-.204.44-.426.45L9.566 8.68c-.201-.045-.423-.208-.368-.516.552-2.9 3.17-3.773 5.514-3.773 1.2 0 2.768.319 3.714 1.227 1.2 1.12 1.086 2.615 1.086 4.241v3.843c0 1.155.478 1.66.93 2.285.159.222.193.49-.008.655-.503.42-1.397 1.2-1.89 1.637z"/></g></svg>