<svg xmlns="http://www.w3.org/2000/svg" xml:space="preserve" id="Decentraland" x="0" y="0" version="1.1" viewBox="0 0 245 245"><style>.st1{stroke-linecap:round;stroke-linejoin:round}.st1,.st2,.st3,.st4{fill:none;stroke:#fff;stroke-width:7}.st3,.st4{stroke-linecap:square}.st4{stroke-linecap:round}</style><path id="Main" d="M0 122.5C0 190 55 245 122.5 245S245 190 245 122.5 190 0 122.5 0 0 55 0 122.5" style="fill:#bfb5af"/><g id="Decentraland-2"><circle id="Main-2" cx="122.5" cy="122.5" r="86" class="st1"/><circle id="Round1" cx="89" cy="76" r="17" class="st1"/><path id="Mountain1" d="M36.5 124.5h10l13-23.5h15l8 25.5 17-4 9 5" class="st2"/><path id="Mountain2" d="m97 142.5 21.5-27.5 13.5 6 10.5-6.5 16.5-18 7 9 4.5-3h2.5l12 16 8-1.5 13 15" class="st2"/><path id="Round2" d="M145 112c-14.9 0-27-12.1-27-27s12.1-27 27-27 27 12.1 27 27c0 6.9-2.6 13.5-7.4 18.5" class="st2"/><path id="Ground" d="M40.5 148s3.8 0 9.6.1m12.3.5c1.3.1 2.7.1 4 .2m12.9.9c17.4 1.6 34.1 4.6 34.2 10.3-2.3 11.4-16.6 11.1-18 21 4.9 8 38.6 6.4 66 18" class="st1"/><path id="Tree" d="M49.5 147c4.4 3.7 10.9 3.5 14.5 0-1.3-4.4-7-21-7-21s-5.9 16.6-7.5 21z" class="st3"/><path id="Tree2" d="M64.5 153.5c4.4 3.7 10.9 3.5 14.5 0-1.3-4.4-7-21-7-21s-5.9 16.6-7.5 21z" class="st3"/><path id="Bush" d="M122.5 167.5c0-12 15.6-12.5 17-14.5 1.3 2 17 2.8 17 14.5-1.8 6.9-31.4 7.5-34 0z" class="st4"/><path id="Bush2" d="M157.5 147c0-12 15.6-12.5 17-14.5 1.3 2 17 2.8 17 14.5-1.8 6.9-31.4 7.5-34 0z" class="st4"/><path id="Bush3" d="M139.5 129c0-12 15.6-12.5 17-14.5 1.3 2 17 2.8 17 14.5-1.8 6.9-31.4 7.5-34 0z" class="st4"/><path id="Stick" d="M174 169.5v-10s-.5-4.6-6-7.5c-3.2 0 14.8.1 11.5 0-5.2 2.8-5.5 7.5-5.5 7.5" class="st1"/><path id="Stick2" d="M156.5 164.5v-23s-.5-4.6-6-7.5c-3.2 0 14.8.1 11.5 0-5.2 2.8-5.5 7.5-5.5 7.5" class="st1"/></g></svg>