<svg xmlns="http://www.w3.org/2000/svg" width="242.5" height="242.5"><path fill="#77d563" d="M0 121.252C0 188.064 54.44 242.5 121.252 242.5S242.5 188.064 242.5 121.252 188.064 0 121.252 0 0 54.44 0 121.252"/><g fill="#fff" data-name="Group 9263"><path d="M77.561 148.133a1.14 1.14 0 0 0-1.619-.008L57.149 166.91l1.215 5.765c1.907 9.925 11.589 16.789 21.515 14.883l28.8-5.533a1 1 0 0 0 .523-1.676z" data-name="Path 472536"/><path d="M71.942 143.831a1.21 1.21 0 0 0 .009-1.707l-21.38-21.773a1.212 1.212 0 0 0-2.054 1.079l6.946 36.151a1.212 1.212 0 0 0 2.045.63z" data-name="Path 472537"/><path d="M105.731 108.106a1.45 1.45 0 0 0 2.06.01l33.646-33.521a1.137 1.137 0 0 0-1.017-1.922L84.025 83.509a1.137 1.137 0 0 0-.6 1.914z" data-name="Path 472538"/><path d="m170.72 114.564 21.635 21.769a1.021 1.021 0 0 0 1.727-.908l-6.909-36.727a1.021 1.021 0 0 0-1.721-.537l-14.724 14.543a1.313 1.313 0 0 0-.008 1.86" data-name="Path 472539"/><path d="m141.544 84.77 23.148 23.676a1.426 1.426 0 0 0 2.023.016l18.729-18.534-1.181-7.029a18.11 18.11 0 0 0-21.19-14.579l-8.411 1.519-13.1 12.917a1.427 1.427 0 0 0-.018 2.014" data-name="Path 472540"/><path d="m77.821 137.498 23.593-23.053a1.57 1.57 0 0 0 .023-2.224L75.128 85.464l-14.326 2.5a17.93 17.93 0 0 0-14.818 19.35l29.619 30.162a1.57 1.57 0 0 0 2.218.022" data-name="Path 472541"/><path d="m136.925 138.352 24.034-23.831a1.03 1.03 0 0 0 .008-1.458l-23.95-24.3a1.03 1.03 0 0 0-1.465 0l-23.9 23.9a1.03 1.03 0 0 0-.006 1.453l23.819 24.23a1.03 1.03 0 0 0 1.46.006" data-name="Path 472542"/><path d="M136.901 148.252a1.153 1.153 0 0 0-1.639-.011l-23.956 23.894a1.153 1.153 0 0 0 0 1.63l6.34 6.361 40.262-7.75a1.171 1.171 0 0 0 .616-1.969z" data-name="Path 472543"/><path d="m196.601 149.256-29.947-30.388a1.323 1.323 0 0 0-1.88 0l-23.446 23.568a1.324 1.324 0 0 0-.006 1.861l25.761 26.207 15.066-2.9a17.93 17.93 0 0 0 14.452-18.348" data-name="Path 472544"/><path d="M106.421 136.458a6.694 6.694 0 1 0 6.694 6.694 6.694 6.694 0 0 0-6.694-6.694" data-name="Path 472545"/><path d="m87.205 79.423 5.566-1.216a1.44 1.44 0 0 0 1.128-1.3l-.08-2.536a10.26 10.26 0 0 1 2.471-5.6 10.02 10.02 0 0 1 5.576-3.668l13.455-2.756a11.59 11.59 0 0 1 9.738 3.362 14.9 14.9 0 0 1 2.774 4.525 1.18 1.18 0 0 0 1.312.739l5.456-1a1.17 1.17 0 0 0 .937-1.4c-.323-1.437-1.309-4.139-4.31-7.985-3.215-4.334-11.289-7.071-17.147-5.889l-13.251 2.672c-6.591 1.332-12.458 6.168-14.034 12.928a26.2 26.2 0 0 0-.852 8.144 1.038 1.038 0 0 0 1.261.98" data-name="Path 472546"/></g></svg>