<svg xmlns="http://www.w3.org/2000/svg" width="245" height="245"><g transform="translate(-771 -289)"><circle cx="122.5" cy="122.5" r="122.5" fill="#8247e5" transform="translate(771 289)"/><path fill="#fff" d="M933.561 385.11a10.42 10.42 0 0 0-9.812 0l-22.894 13.49-15.536 8.587-22.486 13.491a10.42 10.42 0 0 1-9.812 0l-17.58-10.63a9.97 9.97 0 0 1-4.906-8.585v-20.442a10.08 10.08 0 0 1 4.906-8.585l17.58-10.221a10.42 10.42 0 0 1 9.812 0l17.58 10.63a9.97 9.97 0 0 1 4.906 8.585v13.492l15.536-8.994v-13.9a10.08 10.08 0 0 0-4.906-8.585l-32.707-19.217a10.42 10.42 0 0 0-9.812 0l-33.524 19.624a8.99 8.99 0 0 0-4.906 8.177v38.43a10.08 10.08 0 0 0 4.906 8.585l33.115 19.216a10.42 10.42 0 0 0 9.812 0l22.486-13.083 15.536-8.994 22.486-13.081a10.42 10.42 0 0 1 9.812 0l17.58 10.221a9.97 9.97 0 0 1 4.906 8.585v20.44a10.08 10.08 0 0 1-4.906 8.585l-17.171 10.221a10.42 10.42 0 0 1-9.812 0l-17.58-10.22a9.97 9.97 0 0 1-4.906-8.585v-13.084l-15.536 8.995v13.491a10.08 10.08 0 0 0 4.906 8.585l33.115 19.215a10.42 10.42 0 0 0 9.812 0l33.115-19.215a9.97 9.97 0 0 0 4.906-8.585V412.91a10.08 10.08 0 0 0-4.906-8.585Z" data-name="Path 27"/></g></svg>