<svg xmlns="http://www.w3.org/2000/svg" xml:space="preserve" width="132" height="132"><g data-name="Layer 2"><g data-name="Сгруппировать 185896"><g data-name="Сгруппировать 185877"><path fill="#5741d9" d="M-25.133-10.78a66 66 0 0 1 66 66 66 66 0 0 1-66 66 66 66 0 0 1-66-66 66 66 0 0 1 66-66" data-name="Прямоугольник 193242" style="fill:#0251ff;fill-opacity:1" transform="translate(91.133 10.78)"/></g></g></g><path d="M211.594 63.858c-1.796 9.495-10.145 16.674-20.181 16.674-11.348 0-20.545-9.177-20.545-20.5s9.197-20.5 20.545-20.5c10.036 0 18.385 7.184 20.18 16.675h20.73c-1.932-20.85-19.51-37.175-40.91-37.175-22.696 0-41.09 18.358-41.09 41 0 22.646 18.398 41 41.09 41 21.4 0 38.978-16.324 40.91-37.174z" style="fill:#fff;stroke-width:.403108" transform="translate(-125.324 5.968)"/></svg>