<svg xmlns="http://www.w3.org/2000/svg" xml:space="preserve" viewBox="0 0 490 490"><path d="M0 245c0 135.1 109.9 245 245 245s245-109.9 245-245S380.1 0 245 0 0 109.9 0 245" style="fill:#00a147"/><path d="M318.8 120.1C299.1 98.9 274.7 89 245.2 89c-30 0-54.4 9.9-74.1 30.2-19.7 19.9-29.1 45.3-29.1 75.9 0 30.2 9.8 55.7 29.5 75.9 14.6 15.4 33.8 25.6 54.8 28.9V318h-43.2v19.4h43.7v10.4h-43.7V366h43.2v35h37.2v-35h43.7v-18.1h-44.1v-10.4h44.1v-19.4h-43.7v-17.7c21.1-3.2 40.5-13.4 55.2-28.9 19.3-20.3 29.1-45.7 29.1-75.9.1-29.8-9.7-55.2-29-75.5m-40.2 115.2c-8.1 10.4-19.7 15.5-33.4 15.5-12.8.3-25-5.5-33-15.5-8.6-10.4-12.8-23.7-12.8-40.6 0-16.4 4.3-29.3 12.8-39.7 8-10 20.2-15.8 33-15.5 12.8 0 24 5.2 32.5 16 9 10.4 13.3 23.7 13.3 39.7 0 16.4-4.3 29.7-12.4 40.1" style="fill:#fff"/></svg>