<svg xmlns="http://www.w3.org/2000/svg" width="242.5" height="242.5"><path fill="#272262" d="M0 121.252C0 188.064 54.44 242.5 121.252 242.5S242.5 188.064 242.5 121.252 188.064 0 121.252 0 0 54.44 0 121.252"/><g fill="#fff"><path d="M184.596 99.152h-.01l-20.31-20.329 20.31-20.33h.01z" data-name="Path 472639"/><path d="m184.696 141.477-.01.01-20.31-20.339 20.309-20.33.01.01z" data-name="Path 472640"/><path d="M184.696 183.812h-.01l-20.31-20.329 20.309-20.329h.01z" data-name="Path 472641"/><path d="M163.637 162.644h-.01v-40.649l.01-.01 20.32 20.33z" data-name="Path 472642"/><path d="m163.637 120.319-.01-.01V79.66h.01l20.32 20.33z" data-name="Path 472643"/><path d="m163.628 162.645-20.31-20.329 20.31-20.32Z" data-name="Path 472644"/><path d="m163.628 120.309-20.31-20.319 20.31-20.33Z" data-name="Path 472645"/><path d="m162.849 121.098.02.02-20.32 20.33-20.319-20.33.01-.02z" data-name="Path 472646"/><path d="m122.24 121.127-.01-.01 20.32-20.329 20.32 20.33-.02.01z" data-name="Path 472647"/><path d="M121.432 162.644v-40.659l20.32 20.33z" data-name="Path 472648"/><path d="m121.432 162.644-20.31-20.329 20.31-20.33Z" data-name="Path 472649"/><path d="m120.554 121.098.01.02-20.32 20.33-20.309-20.33.01-.02z" data-name="Path 472650"/><path d="m79.945 121.127-.01-.01 20.31-20.329 20.32 20.33-.01.01z" data-name="Path 472651"/><path d="M78.967 162.645v-40.649l20.31 20.32z" data-name="Path 472652"/><path d="M78.967 120.309V79.66l20.31 20.33z" data-name="Path 472653"/><path d="M78.968 162.644h-.01l-20.31-20.329 20.31-20.33.01.01z" data-name="Path 472654"/><path d="m78.968 120.309-.01.01-20.31-20.329 20.31-20.33h.01z" data-name="Path 472655"/><path d="M57.81 183.812v-40.659l20.32 20.33z" data-name="Path 472656"/><path d="M57.81 141.487v-40.669l20.32 20.33z" data-name="Path 472657"/><path d="M57.81 99.152V58.493l20.32 20.33z" data-name="Path 472658"/></g></svg>