<svg xmlns="http://www.w3.org/2000/svg" width="244.8" height="244.8"><defs><linearGradient id="a" x1=".15" x2=".851" y1="1.52" y2="-.521" gradientUnits="objectBoundingBox"><stop offset="0" stop-color="#fff"/><stop offset="1" stop-color="#fff"/></linearGradient></defs><path fill="#29bae2" d="M1.248 122.5c0 66.812 54.44 121.248 121.252 121.248S243.748 189.312 243.748 122.5 189.312 1.248 122.5 1.248 1.248 55.688 1.248 122.5"/><g fill="none"><path d="M0 122.4c0 67.444 54.954 122.4 122.4 122.4s122.4-54.954 122.4-122.4S189.841 0 122.4 0 0 54.954 0 122.4" data-name="Path 472526"/><path d="M122.4 11a111.4 111.4 0 1 0 111.4 111.4A111.526 111.526 0 0 0 122.4 11m0-11c67.441 0 122.4 54.954 122.4 122.4s-54.954 122.4-122.4 122.4S0 189.844 0 122.4 54.959 0 122.4 0" data-name="Path 472527"/></g><g fill="url(#a)" transform="translate(32.57 75.235)"><path d="M81.878 50.434 13.8 17.475A25.36 25.36 0 0 1 .488 1.69L0 0l.049.029L67.914 32.4a25.34 25.34 0 0 1 13.965 18.034ZM70.298 105.728 33.905 88.564a23.26 23.26 0 0 1-12.4-14.492l-.719-2.451.253.117v.01l51.249 24.169a5.23 5.23 0 0 0 7.363-5.742 23.03 23.03 0 0 0-12.676-16.33L23.516 53.109a23.3 23.3 0 0 1-12.26-14.281c-.3-1.006-.584-1.943-.813-2.724l.194.088 58.378 27.854a37.5 37.5 0 0 1 20.642 26.582 13.752 13.752 0 0 1-19.359 15.1M97.979 50.434l68.083-32.959A25.36 25.36 0 0 0 179.369 1.69l.489-1.69-.049.029L111.944 32.4a25.34 25.34 0 0 0-13.965 18.034" data-name="logoMark &lt;PathItem&gt;"/><path d="m109.56 105.728 36.394-17.164a23.26 23.26 0 0 0 12.4-14.492l.718-2.451-.253.117v.01L107.57 95.917a5.23 5.23 0 0 1-7.363-5.743 23.03 23.03 0 0 1 12.676-16.33l43.461-20.736a23.3 23.3 0 0 0 12.258-14.28c.3-1.006.585-1.943.813-2.724l-.194.088-58.378 27.854a37.5 37.5 0 0 0-20.641 26.582 13.752 13.752 0 0 0 19.358 15.1" data-name="logoMark &lt;PathItem&gt;"/></g></svg>