<svg xmlns="http://www.w3.org/2000/svg" xml:space="preserve" viewBox="0 0 245 245"><path d="M0 122.5C0 190 55 245 122.5 245S245 190 245 122.5 190 0 122.5 0 0 55 0 122.5" style="fill:#da1157"/><path d="M160 145.3c-12.6.1-22.9-10-23-22.5s10-22.9 22.5-23c12.6-.1 22.9 10 23 22.5v.2c.1 12.5-10 22.7-22.5 22.8m0-75.3c-14.1 0-27.5 5.7-37.3 15.9 19.7 20.4 19.7 52.7 0 73.2 9.6 10.1 22.9 15.8 36.9 15.9h.8c28.5-.2 51.6-23.6 51.6-52.5 0-29-23.3-52.5-52-52.5m-74.5 0c-28.7 0-52 23.5-52 52.5 0 28.9 23.1 52.3 51.6 52.5h.8c13.9-.1 27.2-5.8 36.9-15.9-9.4-9.7-14.7-22.7-14.7-36.3-.2 12.6-10.5 22.6-23.1 22.5-12.6-.2-22.6-10.5-22.5-23.1.2-12.6 10.5-22.6 23.1-22.5 12.3.2 22.3 10.1 22.5 22.5.1-13.5 5.3-26.5 14.7-36.3C113 75.8 99.6 70 85.5 70m52 52.3v.4-.4m-14.7 36.8s-.1 0 0 0c-.1 0 0 0 0 0M108 122.2v.5-.5m14.7-36.3c-19.6 20.4-19.6 52.7 0 73.1 9.4-9.8 14.7-22.8 14.7-36.4v-.3c0-13.6-5.2-26.6-14.7-36.4m4.5 67.9c-1.4 1.8-2.8 3.6-4.4 5.2 1.5-1.6 3-3.3 4.4-5.2m-4.5-67.9c-9.4 9.7-14.7 22.7-14.7 36.3v.6c.1 13.5 5.3 26.5 14.7 36.3-19.6-20.5-19.6-52.7 0-73.2m.1 73.2" style="fill:#fff"/></svg>