<svg xmlns="http://www.w3.org/2000/svg" width="250" height="250"><circle cx="125" cy="125" r="125" style="fill:#fff;stroke-width:15.3196"/><path d="M66.136 551.724c-37.924-83.219-42.736-183.21-13.019-270.5 4.86-14.273 18.992-44.544 20.525-45.491.63-.39 28.648 20.738 61.867 46.159 47.646 36.46 59.99 44.701 59.115 46.75-.663 1.552-5.487 13.977-7.396 22.043-7.479 31.61-5.87 66.17 1.589 97.982 1.891 8.066 4.987 18.782 5.296 20.249.458 2.178-11.773 8.182-60.951 45.75-33.12 25.3-59.767 48.796-60.406 49.044-.639.249-4.152-6.57-6.62-11.986" style="fill:#f9ba05;stroke-width:1.33333" transform="matrix(.25034 0 0 .25034 27.211 26.338)"/><path d="M578.392 632.807c-30.8-23.857-59.205-42.454-60.112-43.355-1.307-1.298 7.258-5.72 15.883-13.482 17.478-15.728 33.68-31.488 45.146-52.522 5.96-10.933 16.635-40.25 16.671-45.781l.02-3H400V333.323l171 .339L742 334l2.947 16c8.616 46.77 4.781 111.375-9.704 163.518-12.229 44.019-33.763 85.764-60.059 120.784-8.725 11.62-36.084 41.357-38.02 41.324-.453-.008-27.972-18.96-58.772-42.819" style="fill:#4184f2;stroke-width:1.33333" transform="matrix(.25034 0 0 .25034 27.211 26.338)"/><path d="M133.292 284.606c-33.344-25.47-60.814-46.465-61.044-46.655-.768-.631 9.245-19.57 16.833-31.84 26.384-42.664 68.213-85.307 111.054-113.216C252.993 58.46 314.806 38.399 379.13 34.802c79.539-4.447 155.61 16.13 221.135 59.817 18.2 12.134 39.736 28.605 39.736 30.39 0 .552-23.614 24.611-52.474 53.466l-52.475 52.461-7.859-5.933c-37.997-28.685-89.322-44.33-137.435-41.89-74.423 3.771-141.144 44.395-178.075 108.424-5.13 8.893-15.403 31.289-17.242 37.587-.327 1.122-23.193-15.525-61.148-44.518" style="fill:#e94234;stroke-width:1.33333" transform="matrix(.25034 0 0 .25034 27.211 26.338)"/><path d="M378 765.802c-76.807-5.993-142.377-30.191-199.714-73.704-41.367-31.393-79.606-76.242-101.854-119.46-5.083-9.875-5.09-9.906-2.43-12.451 1.465-1.404 29.052-22.74 61.302-47.414l58.638-44.862 2.368 7.045c3.724 11.078 16.218 35.387 23.962 46.62 32.223 46.742 79.003 78.356 133.728 90.376 49.425 10.857 109.754 3.288 153.937-19.312l14.612-7.475 56.392 43.595c31.016 23.977 58.68 45.152 59.211 46.365-1.481 1.653-1.75 2.565-12.386 11.472-45.09 37.757-103.578 64.298-164.433 74.618-26.079 4.423-60.885 6.339-83.333 4.587" style="fill:#33a752;stroke-width:1.33333" transform="matrix(.25034 0 0 .25034 27.211 26.338)"/></svg>