<svg xmlns="http://www.w3.org/2000/svg" xml:space="preserve" viewBox="0 0 490 490"><path d="M0 245c0 135.1 109.9 245 245 245s245-109.9 245-245S380.1 0 245 0 0 109.9 0 245" style="fill:#22b1ab"/><path d="M276.8 167.1c1.6 2.2 4.3 3.2 6.9 2.4.6-.2 1.3-.5 1.8-.9 2.8-2 3.5-6 1.5-8.8a6.31 6.31 0 0 0-5.2-2.7c-1.3 0-2.5.4-3.5 1.1-2.8 2.1-3.4 6-1.5 8.9m-16-15.9c.2 4.1 3.7 7.2 7.8 7 1.9-.1 3.7-.9 4.9-2.3 2.7-3 2.6-7.6-.4-10.4l-.2-.2c-1.3-1.2-3-1.8-4.8-1.8-4 0-7.3 3.2-7.4 7.2.1.2.1.3.1.5m-16-3.6c1.3.7 2.7 1.1 4.1 1.1.8 0 1.6-.1 2.4-.4 2.1-.6 4-2.1 5-4.1 2.3-4.1.8-9.3-3.3-11.7-1.2-.7-2.6-1-3.9-1-4.7-.1-8.6 3.6-8.7 8.3-.1 3.3 1.6 6.2 4.4 7.8m-23.4-5c1.8.5 3.7.5 5.4-.1 5.3-1.6 8.3-7.2 6.7-12.6-1-3.2-3.5-5.7-6.7-6.7-.8-.2-1.7-.4-2.5-.3-4.5 0-8.4 3-9.7 7.3-1.5 5.3 1.5 10.8 6.8 12.4m-28.2.4c6.4.3 11.8-4.7 12.1-11.1.2-3.1-.9-6.1-3-8.4-2-2.3-4.9-3.7-7.9-3.8h-.6c-6.2.1-11.2 4.9-11.6 11.1-.3 6.3 4.6 11.8 11 12.2m-47.9-3c1.3 7.4 8.4 12.3 15.8 10.9s12.3-8.4 10.9-15.8-8.4-12.3-15.8-10.9c-7.3 1.3-12.2 8.3-11 15.7.1 0 .1 0 .1.1m133.9 51.3c2.7-3 2.5-7.6-.5-10.3s-7.6-2.5-10.3.5-2.5 7.6.5 10.3c1.3 1.2 3.1 1.9 4.9 1.9q1.05 0 2.1-.3c1.2-.3 2.4-1.1 3.3-2.1m-16.5-18c-.6-2.2-2.1-4-4.1-5.2-1.2-.7-2.6-1-3.9-1-4.7-.1-8.6 3.7-8.7 8.4-.1 3.2 1.6 6.1 4.4 7.6 2 1.1 4.4 1.4 6.5.7 2.1-.6 3.9-2.1 5-4.1 1.1-1.9 1.4-4.2.8-6.4m-23.5-2.1c.7-2.6.4-5.3-.9-7.6s-3.4-4-5.9-4.7c-.8-.2-1.7-.4-2.6-.4-4.5 0-8.4 3-9.7 7.2-1.5 5.3 1.5 10.8 6.8 12.4 5.3 1.5 10.8-1.6 12.3-6.9 0 .1 0 0 0 0m-28.3-3.7c.2-3.1-.9-6.1-3-8.5-2-2.3-4.9-3.7-7.9-3.8h-.6c-6.1.2-11.1 5-11.5 11.1-.3 6.4 4.5 11.9 10.9 12.3h.7c6.1-.1 11.2-5 11.4-11.1m-46.7-8c-7.5.1-13.6 6.3-13.5 13.8.1 7.4 6 13.3 13.4 13.5 1.4 0 2.7-.2 4-.6 7.2-2.2 11.2-9.8 9.1-17-1.8-5.7-7-9.7-13-9.7M111 196.1c2.4 5.9 8.1 9.7 14.5 9.8 1.5 0 3-.2 4.4-.7l1.8-.6c8.1-3.5 11.8-12.8 8.4-20.9-3.3-8-12.5-11.9-20.6-8.5 0 0-.1 0-.1.1-8.1 3.3-11.8 12.7-8.4 20.8m163.4 11.3c-1.2-.7-2.6-1-4-1-4.7-.1-8.6 3.7-8.7 8.4 0 3.1 1.6 6.1 4.4 7.6 2 1.1 4.3 1.4 6.5.8 4.6-1.4 7.1-6.2 5.7-10.8-.6-2.1-2-3.9-3.9-5m-37.6 5.3c2.6 4.8 8.6 6.5 13.4 3.9 0 0 .1 0 .1-.1 4.8-2.7 6.5-8.8 3.8-13.6-1.3-2.3-3.4-4-5.9-4.7-.8-.2-1.7-.4-2.6-.4-5.5-.1-10 4.4-10.1 9.9 0 1.8.5 3.5 1.3 5m-10.1-5.9c.3-6.4-4.6-11.9-11-12.3h-.5c-6.1.2-11.1 5-11.6 11.1-.4 6.4 4.5 11.9 10.9 12.3h.6c1.1 0 2.2-.2 3.3-.5 4.7-1.5 8-5.7 8.3-10.6M180 226.2c.8 0 1.6-.1 2.3-.2l1.5-.3c7.2-2.2 11.2-9.7 9.1-16.9-2.1-7.1-9.5-11.3-16.7-9.2h-.1c-7.2 2.2-11.2 9.7-9.1 16.9 1.7 5.7 7 9.7 13 9.7m-24 8.9c3.3-8.2-.6-17.5-8.8-20.8q-2.85-1.2-6-1.2c-2.1 0-4.1.4-6 1.3-3.9 1.6-6.9 4.8-8.5 8.7-3.3 8.2.6 17.5 8.8 20.8 1.9.8 3.9 1.2 5.9 1.2 1.5 0 3-.2 4.5-.7 4.5-1.3 8.3-4.7 10.1-9.3m-39.7 12.5c-3.5-4.8-9-7.7-15-7.7-1.8 0-3.5.3-5.2.8-9.8 3.1-15.3 13.6-12.3 23.4 2.9 9.7 13 15.3 22.8 12.5 9.9-3.1 15.5-13.6 12.4-23.5-.6-2-1.5-3.8-2.7-5.5M315 313.2c-.3-3.3-3-5.8-6.3-5.8h-.5c-2.7.3-4.9 2.2-5.5 4.9-.2.7-.2 1.4-.2 2 .3 3.2 3 5.7 6.2 5.8h.5c3.5-.4 6.1-3.5 5.8-6.9m4.4-7.1c-.9 3.9 1.5 7.9 5.4 8.8s7.8-1.5 8.7-5.4c.3-1.3.2-2.6-.1-3.9-.9-3-3.7-5.1-6.9-5.1-.8 0-1.5.1-2.3.4-2.3.7-4.2 2.7-4.8 5.2m17.7-11.7c-1.1 4.6 1.7 9.1 6.2 10.3q1.05.3 2.1.3c1.5 0 3-.4 4.3-1.2 3.9-2.6 5.2-7.7 2.9-11.8-1.5-2.6-4.3-4.1-7.3-4.1-4-.1-7.4 2.7-8.2 6.5m26.8-6.2c2.6 0 5-1 6.9-2.8 3.8-4 3.9-10.1.2-14.2-1.9-1.9-4.4-3-7.1-3-5.5 0-10 4.4-10.1 9.9 0 5.5 4.4 10 9.9 10.1zm26.2-29.4c3.4-5.4 1.9-12.6-3.4-16.2-5.3-3.5-12.4-2-15.8 3.3l-.1.1v.1q-1.05 1.65-1.5 3.6c-1.5 6.2 2.3 12.6 8.5 14.1 4.7 1.2 9.6-.9 12.3-5m7.1-53.2c-1.5-.5-3-.8-4.6-.8-5.7 0-10.8 3.6-12.7 9-.2.5-.3 1-.4 1.5-1.6 6.7 2 13.6 8.5 16 1.5.5 3 .8 4.5.8 5.7 0 10.8-3.6 12.7-9 2.5-7.1-1.1-14.8-8-17.5m-111 87.7c-.9 3.9 1.5 7.9 5.4 8.9.5.1 1.1.2 1.7.2.8 0 1.6-.1 2.3-.4 3.9-1.4 5.9-5.6 4.5-9.5-.6-1.7-1.8-3.1-3.4-4h-.1c-1-.5-2.2-.8-3.3-.8-3.4-.1-6.4 2.3-7.1 5.6m23.8-1.4c2.2.5 4.5.2 6.4-1 3.9-2.6 5.2-7.7 2.9-11.8-1.6-2.5-4.3-4.1-7.3-4.1-4.7.1-8.5 4-8.4 8.8.1 3.8 2.7 7.1 6.4 8.1m20.6-16.5c2.6 0 5.1-1 6.9-2.8 3.8-3.9 3.9-10.1.2-14.2-3.8-3.9-10-4-13.9-.3l-.1.1c-3.9 3.9-4 10.2-.2 14.1 1.8 1.9 4.3 3 7 3zm26.2-29.5c1.6-2.6 2.2-5.7 1.5-8.8-1.1-6.2-7.1-10.3-13.3-9.1-3.2.6-5.9 2.5-7.6 5.2-3.5 5.4-1.9 12.6 3.5 16.2 5.3 3.4 12.4 2 15.8-3.3 0-.1.1-.1.1-.2m-2.1-27.5c7.1 2.4 14.7-1.3 17.2-8.4v-.1c2.4-7-1.1-14.5-8-17.2-7-2.5-14.7 1.1-17.2 8v.1c-.2.5-.3 1-.4 1.5-1.7 6.8 2 13.7 8.4 16.1m7.8-39.2c.6.1 1.3.1 1.9.1 8.8-.1 15.9-7.4 15.8-16.2-.1-7.9-6-14.6-13.9-15.6-.6-.1-1.3-.1-1.9-.1-7.3 0-13.7 5-15.3 12.2-.1.6-.3 1.3-.3 1.9-.5 4.2.6 8.5 3.3 11.9 2.4 3.1 6.2 5.3 10.4 5.8m-83.8 100.5c.6-2.2.2-4.5-.9-6.4-2.4-4-7.5-5.4-11.6-3 0 0-.1 0-.1.1-2 1.2-3.3 3.1-3.9 5.3-.5 2.2-.2 4.5 1 6.5 2.3 4 7.5 5.3 11.5 3 0 0 .1 0 .1-.1 2-1.2 3.4-3.1 3.9-5.4m10.4-10.2c2.6 0 5-1 6.8-2.8 3.8-3.9 3.9-10.1.3-14.2-3.7-3.9-9.9-4.1-13.9-.4l-.1.1c-1.3 1.4-2.3 3-2.7 4.9-1.3 5.3 1.9 10.7 7.2 12.1q1.2.3 2.4.3m10.3-25.9c5.3 3.5 12.4 2 15.9-3.4l.1-.1c3.3-5.4 1.8-12.5-3.4-16.2-5.3-3.5-12.5-2-15.9 3.3l-.1.1c-3.6 5.5-2 12.7 3.4 16.3m23-56.7c-7-2.5-14.7 1.1-17.3 8.1v.1c-2.5 7.1 1.1 14.9 8.1 17.5 1.5.5 3 .8 4.6.8 7.6-.1 13.6-6.3 13.5-13.8 0-5.7-3.6-10.8-8.9-12.7m2.4-45.3c-.6-.1-1.3-.1-1.9-.1-7.3 0-13.7 5.1-15.3 12.2-.1.6-.3 1.2-.3 1.8-1.1 8.7 5 16.7 13.7 17.8.6.1 1.2.1 1.8.1 8-.1 14.7-6.1 15.7-14 1.1-8.7-5-16.6-13.6-17.8zm-7.1-15.2c.7 0 1.3 0 2-.1 10.3-1.2 17.6-10.5 16.4-20.8-1.1-9.3-8.9-16.4-18.3-16.5-.6 0-1.3 0-2 .1-7.8.9-14.2 6.6-16.1 14.2-.5 2.1-.6 4.2-.4 6.3.9 9.5 8.8 16.7 18.4 16.8M171.2 257.5c-2.5-2.4-6.4-2.3-8.8.2l-.1.1c-.5.5-.8 1-1.1 1.6-.7 1.5-.8 3.3-.2 4.9.5 1.6 1.7 2.9 3.2 3.6.8.4 1.7.6 2.6.6 3.5 0 6.3-2.9 6.3-6.4 0-1.8-.7-3.4-1.9-4.6m-6.7 15.9c-4-.9-7.9 1.6-8.8 5.6s1.6 7.9 5.6 8.8 7.9-1.6 8.8-5.6c.9-3.9-1.6-7.8-5.5-8.7zm-.9 38c4.8-.2 8.5-4.1 8.3-8.9-.1-2.2-1-4.4-2.6-5.9-1.5-1.5-3.6-2.4-5.8-2.4-4.7 0-8.5 3.7-8.6 8.4v.3c.2 4.6 3.9 8.3 8.5 8.5zm6.3 26.7c.7 0 1.5-.1 2.2-.3 5.4-1.4 8.6-6.9 7.2-12.2-1.1-4.4-5.1-7.4-9.6-7.5q-1.2 0-2.4.3c-5.3 1.4-8.5 6.8-7.2 12.2 1.2 4.4 5.2 7.5 9.8 7.5m18.9 27.8c5.7-3 8-10 5.1-15.7-2.8-5.7-9.8-8-15.5-5.2 0 0-.1 0-.1.1-5.7 2.9-8 10-5.1 15.7 2 3.9 6.1 6.4 10.5 6.4 1.7-.1 3.5-.5 5.1-1.3m28 8.5c-.3-.4-.7-.8-1-1.1-5.4-5.1-13.8-4.9-19 .4l-.1.1c-5.1 5.5-4.9 14.1.6 19.3 2.5 2.4 5.9 3.7 9.3 3.7 3.1 0 6.2-1.1 8.6-3.2 5.6-4.8 6.3-13.4 1.6-19.2m-24.7-123.8c-.5-.1-1-.2-1.5-.2-4.1 0-7.4 3.2-7.4 7.3s3.2 7.4 7.3 7.4 7.4-3.2 7.4-7.3c0-3.4-2.4-6.4-5.8-7.2m-.9 38c4.8-.2 8.5-4.2 8.3-9-.1-2.2-1-4.3-2.6-5.8-1.5-1.5-3.6-2.3-5.7-2.3h-.3c-2.2 0-4.4 1-5.9 2.6-3.3 3.5-3.1 8.9.3 12.2 1.5 1.5 3.7 2.3 5.9 2.3m-2.4 11.7c-1.3 2.3-1.7 5-1.1 7.6 1.2 4.4 5.2 7.5 9.8 7.6.7 0 1.5-.1 2.2-.3 5.3-1.4 8.5-6.8 7.2-12.1s-6.6-8.6-11.9-7.3c-2.6.5-4.8 2.1-6.2 4.5m11.3 28.9c-2 6.1 1.4 12.7 7.5 14.6 1.2.4 2.4.6 3.7.6q2.7 0 5.1-1.2c5.7-3 7.9-10 5-15.7-1.9-3.9-5.9-6.4-10.3-6.3-5-.1-9.5 3.2-11 8m44.3 22.5c-.3-.4-.7-.8-1.1-1.2-2.5-2.4-5.8-3.7-9.3-3.7-7.5.1-13.5 6.2-13.5 13.7 0 3.2 1.1 6.3 3.2 8.8 2.5 3.1 6.3 4.9 10.3 4.9 7.5 0 13.6-6.1 13.6-13.6.1-3.3-1.1-6.4-3.2-8.9m34.2 22.8c-.5-.4-.9-.9-1.5-1.2-2.7-2.1-6.1-3.2-9.5-3.2-.8 0-1.5.1-2.3.2-8.7 1.2-14.7 9.2-13.5 17.9s9.2 14.7 17.9 13.5 14.7-9.2 13.5-17.9c-.4-3.6-2.1-6.8-4.6-9.3m-61.7-119.3c4.7 0 8.6-3.9 8.6-8.6s-3.9-8.6-8.6-8.6-8.6 3.9-8.6 8.6v.1c.2 4.6 3.8 8.3 8.4 8.4zm-3.5 19.1c1.2 4.4 5.2 7.5 9.8 7.6.7 0 1.5-.1 2.2-.3 5.3-1.4 8.6-6.8 7.3-12.1-.5-1.8-1.4-3.5-2.8-4.8-1.8-1.8-4.3-2.8-6.8-2.8q-1.2 0-2.4.3c-5.4 1.4-8.6 6.8-7.3 12.1m13.1 30.3c2 3.9 6.1 6.3 10.4 6.3 1.8 0 3.5-.4 5-1.2 5.7-2.9 8-10 5.1-15.7-2.8-5.7-9.7-8-15.4-5.2 0 0-.1 0-.1.1-5.6 2.9-7.9 9.9-5 15.7m23 31.2c2.5 3.1 6.3 4.9 10.3 4.9 7.5 0 13.6-6.2 13.5-13.7 0-3.2-1.1-6.3-3.2-8.8-.3-.4-.7-.7-1-1.1-4.9-4.8-12.8-5.1-18-.6-5.7 5-6.4 13.5-1.6 19.3m56.5 26.4c5.2-7.1 3.8-17-3.2-22.3-6.3-4.8-15.3-4.1-20.8 1.6-.4.5-.9 1-1.2 1.5-5.2 7.1-3.7 17.2 3.3 22.5 2.7 2 5.9 3.1 9.3 3.1.7 0 1.5-.1 2.2-.1 4.2-.7 7.9-2.9 10.4-6.3m45.3-2.9c-1.5-1.5-3.3-2.7-5.2-3.5-2.3-1.1-4.9-1.6-7.4-1.6-10.4.1-18.6 8.6-18.5 19 .1 7.3 4.4 13.9 11 16.9 2.3 1.1 4.9 1.6 7.4 1.6 10.4-.1 18.7-8.7 18.5-19-.1-5.2-2.2-9.9-5.8-13.4" style="fill:#fff"/></svg>