<svg xmlns="http://www.w3.org/2000/svg" xml:space="preserve" id="MITH" x="0" y="0" version="1.1" viewBox="0 0 490 490"><style>.st2{fill:none;stroke:#fff;stroke-width:8;stroke-linejoin:round}</style><path id="Full" d="M0 245c0 135.1 109.9 245 245 245s245-109.9 245-245S380.1 0 245 0 0 109.9 0 245" style="fill:#4ee5cf"/><path id="Outer" d="m86 313 51-55 61-88 50 65 50-98 65 110 43 66z" style="fill:none;stroke:#fff;stroke-width:12;stroke-linecap:round;stroke-linejoin:round"/><path id="Line1" d="m197 173-4 52-58 33 25 55 51-67 37 39v-53l49-90-1 87 64 13-5 71" class="st2"/><path id="Line2" d="m192 225 55 59 56 28 50-1-56-83" class="st2"/><path id="Line3" d="m295 229-70 82" style="fill:none;stroke:#fff;stroke-width:8"/></svg>