<svg xmlns="http://www.w3.org/2000/svg" width="250" height="250"><circle cx="125" cy="125" r="125" style="fill:#fff;stroke-width:18.4292"/><path d="m366.247 553.25.247-165.75.256 165.247.256 165.247 165.247.256 165.247.256-165.75.247L366 719ZM1.488 553c0-91.025.118-128.262.262-82.75s.144 119.988 0 165.5-.262 8.275-.262-82.75m-.026-200.25c-.262-.687-.36-75.275-.219-165.75L1.5 22.5l165.25-.004L332 22.49l-165 .258-165 .257v329.988l165.25.256 165.25.256-165.281.247c-131.488.196-165.379-.009-165.757-1.003m365 0c-.262-.687-.36-75.275-.219-165.75l.257-164.5 165.25-.004L697 22.49l-165 .258-165 .257v329.988l165.25.256 165.25.256-165.281.247c-131.488.196-165.379-.009-165.757-1.003" style="fill:#d5e0a9" transform="matrix(.21464 0 0 .21464 48.594 44.026)"/><path d="M84.25 718.25c45.513-.144 119.988-.144 165.5 0s8.275.262-82.75.262-128.262-.118-82.75-.262" style="fill:#a1a1a1" transform="matrix(.21464 0 0 .21464 48.594 44.026)"/><path d="M367 553V388h330v330H367Z" style="fill:#fcb712" transform="matrix(.21464 0 0 .21464 48.594 44.026)"/><path d="M2 553V388h330v330H2Z" style="fill:#319ed8" transform="matrix(.21464 0 0 .21464 48.594 44.026)"/><path d="M367 188V23h330v330H367Z" style="fill:#7dba41" transform="matrix(.21464 0 0 .21464 48.594 44.026)"/><path d="M2 188V23h330v330H2Z" style="fill:#ef5023" transform="matrix(.21464 0 0 .21464 48.594 44.026)"/></svg>