<svg xmlns="http://www.w3.org/2000/svg" xmlns:xlink="http://www.w3.org/1999/xlink" width="250" height="250"><defs><linearGradient xlink:href="#a" id="c" x1="17.336" x2="80" y1="74.339" y2="74.339"><stop offset="0" stop-color="#700000"/><stop offset=".327" stop-color="#730000"/><stop offset=".59" stop-color="#7d0000"/><stop offset=".83" stop-color="#8e0000"/><stop offset="1" stop-color="#9f0000"/></linearGradient><linearGradient xlink:href="#a" id="d" x1="17.586" x2="17.586" y1="67.986" y2="80.117"><stop offset=".35" stop-color="#dfdfdf"/><stop offset=".645" stop-color="#ddd"/><stop offset=".752" stop-color="#d6d6d6"/><stop offset=".828" stop-color="#cbcbcb"/><stop offset=".889" stop-color="#bababa"/><stop offset=".941" stop-color="#a4a4a4"/><stop offset=".987" stop-color="#898989"/><stop offset="1" stop-color="gray"/></linearGradient><linearGradient xlink:href="#a" id="e" x1="46.429" x2="46.429" y1="68.69" y2="80"><stop offset=".35" stop-color="#0050cf"/><stop offset=".645" stop-color="#004ecd"/><stop offset=".752" stop-color="#0049c6"/><stop offset=".828" stop-color="#003fbb"/><stop offset=".889" stop-color="#0031aa"/><stop offset=".941" stop-color="#001e94"/><stop offset=".987" stop-color="#000879"/><stop offset="1" stop-color="#000070"/></linearGradient><linearGradient xlink:href="#a" id="f" x1="48.668" x2="48.668" y1="68.691" y2="80"><stop offset=".35" stop-color="#cf2000"/><stop offset=".645" stop-color="#cd1f00"/><stop offset=".752" stop-color="#c61d00"/><stop offset=".828" stop-color="#bb1900"/><stop offset=".889" stop-color="#aa1300"/><stop offset=".941" stop-color="#940c00"/><stop offset=".987" stop-color="#790300"/><stop offset="1" stop-color="#700000"/></linearGradient><linearGradient xlink:href="#a" id="g" x1="17.336" x2="80" y1="55.314" y2="55.314"><stop offset="0" stop-color="#cf2000"/><stop offset=".021" stop-color="#d12201"/><stop offset=".244" stop-color="#e23309"/><stop offset=".487" stop-color="#ec3d0e"/><stop offset=".791" stop-color="#ef4010"/><stop offset=".841" stop-color="#ec3d0f"/><stop offset=".882" stop-color="#e2330d"/><stop offset=".919" stop-color="#d12208"/><stop offset=".954" stop-color="#b90a03"/><stop offset=".966" stop-color="#af0000"/><stop offset="1" stop-color="#ef4010"/></linearGradient><linearGradient xlink:href="#a" id="h" x1="17.337" x2="80" y1="55.971" y2="55.971"><stop offset="0" stop-color="#0050cf"/><stop offset=".021" stop-color="#0252d1"/><stop offset=".244" stop-color="#1363e2"/><stop offset=".487" stop-color="#1d6dec"/><stop offset=".791" stop-color="#2070ef"/><stop offset=".841" stop-color="#1e6dec"/><stop offset=".882" stop-color="#1963e2"/><stop offset=".919" stop-color="#1152d1"/><stop offset=".954" stop-color="#053ab9"/><stop offset=".966" stop-color="#0030af"/><stop offset="1" stop-color="#2070ef"/></linearGradient><linearGradient xlink:href="#a" id="b" x1="17.337" x2="79.998" y1="57.255" y2="57.255"><stop offset="0" stop-color="#fbbf00"/><stop offset=".021" stop-color="#fbc102"/><stop offset=".244" stop-color="#fdd213"/><stop offset=".487" stop-color="#ffdc1d"/><stop offset=".791" stop-color="#ffdf20"/><stop offset=".841" stop-color="#fddc1e"/><stop offset=".882" stop-color="#f8d219"/><stop offset=".919" stop-color="#eec111"/><stop offset=".954" stop-color="#e1a905"/><stop offset=".966" stop-color="#db9f00"/><stop offset="1" stop-color="#ffdf20"/></linearGradient><linearGradient xlink:href="#b" id="j" x1="17.336" x2="80" y1="53.8" y2="53.8"/><linearGradient xlink:href="#b" id="k" x1="17.336" x2="80.002" y1="45.229" y2="45.229"/><linearGradient xlink:href="#b" id="l" x2="79.997" y1="51.134" y2="51.134"/><linearGradient xlink:href="#b" id="m" x2="79.997" y1="64.102" y2="64.102"/><linearGradient xlink:href="#b" id="n" x1="17.335" x2="80.003" y1="64.407" y2="64.407"/><linearGradient xlink:href="#b" id="o" y1="68.818" y2="68.818"/><linearGradient xlink:href="#b" id="p" x1="17.339" x2="79.994" y1="63.832" y2="63.832"/><linearGradient xlink:href="#b" id="q" x1="17.336" x2="80.001" y1="64.489" y2="64.489"/><linearGradient xlink:href="#b" id="r" y1="71.034" y2="71.034"/><linearGradient xlink:href="#b" id="s" y1="59.631" y2="59.631"/><linearGradient xlink:href="#b" id="i"/><linearGradient id="a" gradientUnits="userSpaceOnUse"/></defs><circle cx="125" cy="125" r="125" fill="#cdcdcd" fill-rule="evenodd"/><path fill="#0e3ca5" d="M105.687 164.865c4.822 17.888 22.123 31.534 30.86 30.968.306-.019 33.137-6.157 51.11-36.26 13.984-23.432 9.225-46.053-9.797-46.546-6.845.5-81.356 17.765-72.168 51.842m70.393-114.89-.019-.017.027-.017a83.485 83.709 0 0 0-87.998-12.73 49.223 49.355 0 0 0-5.304 2.597c-1.172.626-2.344 1.25-3.481 1.934l.277.087a38.034 38.136 0 0 0-8.812 8.361c-23.945 31.738 56.372 54.817 99.32 54.884 19.747 14.22 25.292-40.034 5.99-55.099"/><path fill="#5493f7" d="M92.946 50.62C81.91 67.25 45.156 78.968 39.113 77.143l-.041-.077c.24-.5.499-1 .754-1.496a88.437 88.674 0 0 1 26.207-30.66q3.392-2.495 7.023-4.663a26.014 26.083 0 0 1 12.15-3.244c16.368.314 7.822 13.489 7.735 13.622m-9.05 117.51c.792 5.224-.02 25.866-1.086 27.602-.918.055-2.83.174-8.368-2.942A88.097 88.333 0 0 1 34.491 88.229q.441-1.33.923-2.642c6.343 8.46 13.685 16.114 19.924 24.657 5.943 8.135 14.118 21.396 15.782 24.232 10.328 17.591 11.975 28.445 12.763 33.662m122.107-52.022a87.757 87.992 0 0 1-6.126 32.407c-10.367 11.168-80.242-16.324-80.927-16.626-9.559-4.2-38.649-16.975-41.274-37.04-3.764-28.887 54.653-49.009 80.329-49.77 3.078.036 12.447.145 17.91 4.593a87.793 88.028 0 0 1 30.088 66.436m-47.304 78.255c-7.616 3.566-16.004.967-13.824-6.469 4.183-14.284 40.71-28.929 48.777-29.734.996-.099 1.418.58.977 1.357a88.875 89.114 0 0 1-35.923 34.834"/><path fill="url(#c)" d="M17.336 77.254a2.55 2.55 0 0 0 2.328 2.714c30.7.21 60.336-1.2 60.336-5.8 0-13.924-62.664 3.086-62.664 3.086" transform="matrix(2.4109 0 0 2.41737 27.128 21.612)"/><path fill="url(#d)" d="M17.587 78.389v-.007z" transform="matrix(2.4109 0 0 2.41737 27.128 21.612)"/><path fill="url(#e)" d="m59.549 75.664-5.907-5.907c-6.911.926-14.151 2.323-20.333 3.663l5.223 5.223c7.704-.82 14.885-1.958 21.017-2.979" transform="matrix(2.4109 0 0 2.41737 27.128 21.612)"/><path fill="url(#f)" d="m53.642 69.757 5.907 5.907c11.993-2 19.97-3.54 19.97-1.366 0 4.244-29.172 5.7-59.841 5.493a2 2 0 0 1-.245-.014 2.35 2.35 0 0 1-1.846-1.388v-.007a2.5 2.5 0 0 1-.138-.368 2.5 2.5 0 0 0 .138.368 2.33 2.33 0 0 0 2.089 1.388c6.437-.039 12.807-.488 18.857-1.132l-5.224-5.218c-9.146 1.982-15.973 3.834-15.973 3.834a2.55 2.55 0 0 0 2.34 2.714c30.692.233 60.287-.731 60.324-5.8 0-6.222-12.515-6.268-26.358-4.411" transform="matrix(2.4109 0 0 2.41737 27.128 21.612)"/><path fill="url(#g)" d="M19.68 37.823a2.343 2.343 0 0 0-2.344 2.343v37.088a2.343 2.343 0 0 0 2.328 2.346C50.363 79.37 80.037 69.209 80 74.169V32.393c.037-4.96-29.627 5.2-60.32 5.43" transform="matrix(2.4109 0 0 2.41737 27.128 21.612)"/><path fill="url(#h)" d="M38.3 36.632v41.774c7.616-.855 14.756-2.036 20.9-3.094V33.536c-6.148 1.064-13.287 2.24-20.9 3.096" transform="matrix(2.4109 0 0 2.41737 27.128 21.612)"/><path fill="url(#i)" d="m29.465 57.263 1.646-1.1a165 165 0 0 1-6.584.384l1.645.913 1.646.9z" transform="matrix(2.4109 0 0 2.41737 27.128 21.612)"/><path fill="url(#j)" d="M30.008 53.636a4.17 4.17 0 0 1-2.19.779 3.8 3.8 0 0 1-2.189-.525 3.6 3.6 0 0 1-1.43-1.6v.062a3.36 3.36 0 0 0 1.059 2.466 3.43 3.43 0 0 0 2.561.908 3.85 3.85 0 0 0 2.562-1.207 3.78 3.78 0 0 0 1.059-2.59v-.061a4.26 4.26 0 0 1-1.432 1.768" transform="matrix(2.4109 0 0 2.41737 27.128 21.612)"/><path fill="url(#k)" d="M27.818 47.852a1.77 1.77 0 0 0 1.647-1.744c0-.656-.412-.71-.412-.956s.248-.59-.247-.968c.247.4-.164.5-.164.913s.164.4.164.726a.356.356 0 0 1-.328.35.305.305 0 0 1-.33-.308c0-.327.33-.676.33-1.169a1.57 1.57 0 0 0-.33-1.046c-.247-.394-.659-.7-.33-1.047-.494.193-.247.835-.247 1.246s-.328.674-.328 1.166.246.56.246.888a.35.35 0 0 1-.33.346.31.31 0 0 1-.33-.31c0-.328.166-.336.166-.747s-.412-.469-.166-.892c-.493.436-.246.749-.246 1s-.412.349-.412 1a1.54 1.54 0 0 0 1.647 1.552" transform="matrix(2.4109 0 0 2.41737 27.128 21.612)"/><path fill="url(#l)" d="M27.818 53.758a2.78 2.78 0 0 0 1.863-.888 2.8 2.8 0 0 0 .771-1.912 2.43 2.43 0 0 0-.771-1.8 2.5 2.5 0 0 0-1.863-.649 2.8 2.8 0 0 0-1.863.866 2.73 2.73 0 0 0-.771 1.889 2.47 2.47 0 0 0 2.634 2.493z" transform="matrix(2.4109 0 0 2.41737 27.128 21.612)"/><path fill="url(#m)" d="M27.818 64.059a1.67 1.67 0 0 0 1.55-1.636 1.44 1.44 0 0 0-1.5-1.448h-.046a3.52 3.52 0 0 0-2.328 1.08 3.4 3.4 0 0 0-.963 2.36A3.17 3.17 0 0 0 25 66.1a3.1 3.1 0 0 0 1.25 1.127 1.85 1.85 0 0 1-.378-1.133 2.02 2.02 0 0 1 .572-1.395 2.07 2.07 0 0 1 1.374-.64m0-2.2a.616.616 0 0 1 .658.622.7.7 0 0 1-.658.693.61.61 0 0 1-.657-.617.71.71 0 0 1 .657-.697z" transform="matrix(2.4109 0 0 2.41737 27.128 21.612)"/><path fill="url(#n)" d="M29.379 61.271a1.82 1.82 0 0 1 .383 1.125 2.09 2.09 0 0 1-1.944 2.055 1.65 1.65 0 0 0-1.092.516 1.61 1.61 0 0 0-.458 1.111 1.47 1.47 0 0 0 .458 1.072 1.45 1.45 0 0 0 1.046.392h.046a3.48 3.48 0 0 0 2.329-1.112 3.52 3.52 0 0 0 .964-2.392 3.06 3.06 0 0 0-.48-1.667 3 3 0 0 0-1.252-1.1m-1.561 5.378a.61.61 0 0 1-.657-.617.7.7 0 0 1 .657-.692.61.61 0 0 1 .658.616.7.7 0 0 1-.658.693" transform="matrix(2.4109 0 0 2.41737 27.128 21.612)"/><path fill="url(#o)" d="M24.527 68.354v1.311a159 159 0 0 0 6.583-.383V67.97l-3.293.225z" transform="matrix(2.4109 0 0 2.41737 27.128 21.612)"/><path fill="url(#p)" d="m31.768 71.853 3.29-.294V55.811a217 217 0 0 1-3.29.294z" transform="matrix(2.4109 0 0 2.41737 27.128 21.612)"/><path fill="url(#q)" d="m20.575 72.411 3.293-.1V56.563l-3.293.1z" transform="matrix(2.4109 0 0 2.41737 27.128 21.612)"/><path fill="url(#r)" d="m24.526 70.322 1.645.913 1.647.895 1.647-1.087 1.645-1.106-3.292.225z" transform="matrix(2.4109 0 0 2.41737 27.128 21.612)"/><path fill="url(#s)" d="M24.527 59.166v1.313l3.29-.16 3.295-.219v-1.317l-3.294.224z" transform="matrix(2.4109 0 0 2.41737 27.128 21.612)"/></svg>