<svg xmlns="http://www.w3.org/2000/svg" xmlns:xlink="http://www.w3.org/1999/xlink" viewBox="0 0 156.17 156.17"><defs><radialGradient id="b" cx="77.29" cy="77.64" r="142.35" fx="65.88" fy="77.64" gradientTransform="matrix(1 0 0 .82 0 13.62)" gradientUnits="userSpaceOnUse"><stop offset=".37" stop-color="#fff"/><stop offset=".39" stop-color="#fff" stop-opacity=".94"/><stop offset=".45" stop-color="#fff" stop-opacity=".72"/><stop offset=".52" stop-color="#fff" stop-opacity=".53"/><stop offset=".59" stop-color="#fff" stop-opacity=".37"/><stop offset=".65" stop-color="#fff" stop-opacity=".23"/><stop offset=".72" stop-color="#fff" stop-opacity=".13"/><stop offset=".8" stop-color="#fff" stop-opacity=".06"/><stop offset=".87" stop-color="#fff" stop-opacity=".01"/><stop offset=".95" stop-color="#fff" stop-opacity="0"/></radialGradient><clipPath id="a"><circle cx="78.08" cy="78.08" r="70.08" style="fill:none"/></clipPath><symbol id="c" viewBox="0 0 156.17 156.17"><circle cx="78.08" cy="78.08" r="70.08" style="fill:#92197c;stroke:#92197c;stroke-miterlimit:10;stroke-width:16px"/><g style="clip-path:url(#a)"><path d="M115.66 18.94c-10.89 9.69-25.82 23.01-46.34 41.37-.43.35-.86.74-1.31 1.17l-.21.18v.02c-4.44 4.36-6.89 10.18-6.89 16.4 0 5.35 1.88 10.55 5.29 14.67l-.02.05.24.22c1.2 1.4 2.3 2.63 4.53 4.59.42.37 24.11 21.54 44.6 39.68 19.59-12.43 32.6-34.29 32.6-59.21s-12.97-46.71-32.51-59.14ZM84.16 98.3c-11.15 0-20.21-9.07-20.21-20.21s9.07-20.21 20.21-20.21 20.21 9.07 20.21 20.21S95.3 98.3 84.16 98.3m47.77.31-19.75-18.87v18.87h-4.62V57.44h4.62V74.8l19.07-17.36h6.26l-21.98 19.85 22.56 21.32z" style="fill:url(#b)"/><path d="M53.78 98.63V64.08L38.53 81.8h-1.46L21.88 64.09v34.54h-3.27v-41.2h1.97l17.25 20.32 17.25-20.32h1.98v41.2z" style="fill:#fff"/></g></symbol></defs><use xlink:href="#c" width="156.17" height="156.17"/></svg>