<svg xmlns="http://www.w3.org/2000/svg" width="250" height="250" fill="none"><circle cx="125" cy="125" r="125" fill="#1d1d1d"/><g clip-path="url(#a)" transform="matrix(1.55133 0 0 1.55133 33.449 46.523)"><path fill="url(#b)" fill-rule="evenodd" d="M20.32 73.2a3.74 3.74 0 0 1 2.667-1.2h83.786a1.84 1.84 0 0 1 1.663 1.109 1.843 1.843 0 0 1-.329 1.971L90.347 94.8A3.74 3.74 0 0 1 87.68 96H3.84a1.84 1.84 0 0 1-1.663-1.109 1.84 1.84 0 0 1 .329-1.971zm87.867-16.347a1.84 1.84 0 0 1 .329 1.971 1.84 1.84 0 0 1-1.663 1.109L23.04 60a3.74 3.74 0 0 1-2.667-1.2L2.48 39.147a1.84 1.84 0 0 1-.329-1.971 1.84 1.84 0 0 1 1.663-1.109L87.627 36a3.73 3.73 0 0 1 2.667 1.2zM20.32 1.2A3.74 3.74 0 0 1 22.987 0l83.84.067a1.84 1.84 0 0 1 .995.309 1.851 1.851 0 0 1 .794 1.834c-.058.35-.217.675-.456.937L90.347 22.8A3.74 3.74 0 0 1 87.68 24H3.84a1.84 1.84 0 0 1-1.663-1.109 1.84 1.84 0 0 1 .329-1.971z"/><ellipse cx="206.983" cy="-116.03" fill="none" rx="138.113" ry="89.081"/></g><defs><linearGradient id="b" x1="5.24" x2="105.427" y1="98.093" y2="-2.093" gradientUnits="userSpaceOnUse"><stop stop-color="#9945ff"/><stop offset=".297" stop-color="#8a53f4"/><stop offset=".547" stop-color="#6377d6"/><stop offset=".79" stop-color="#24b0a7"/><stop offset=".99" stop-color="#00d18c"/></linearGradient><clipPath id="a"><path fill="#fff" d="M0 0h792v96H0z"/></clipPath></defs><text xml:space="preserve" x="70.981" y="140.583" fill="#fff" font-family="Lucida Calligraphy" font-size="125.527" transform="scale(.78181 1.27908)"><tspan x="70.981" y="140.583">M</tspan></text></svg>