<svg xmlns="http://www.w3.org/2000/svg" xmlns:xlink="http://www.w3.org/1999/xlink" width="245" height="245"><defs><linearGradient id="a" x1=".5" x2=".5" y2="1" gradientUnits="objectBoundingBox"><stop offset="0" stop-color="#05aac5"/><stop offset="1" stop-color="#71e0ec"/></linearGradient><linearGradient xlink:href="#a" id="b" x1="99.61" x2="99.61" y1="29.003" y2="120.683" gradientTransform="scale(.88154 1.13438)" gradientUnits="userSpaceOnUse"/><linearGradient xlink:href="#a" id="c" x1="82.115" x2="82.115" y1="15.367" y2="131.062" gradientTransform="scale(.92307 1.08334)" gradientUnits="userSpaceOnUse"/><linearGradient xlink:href="#a" id="d" x1="69.064" x2="69.064" y1="-.011" y2="138.118" gradientTransform="scale(.94022 1.06358)" gradientUnits="userSpaceOnUse"/></defs><path fill="#fff" d="M0 122.5C0 190 55 245 122.5 245S245 190 245 122.5 190 0 122.5 0 0 55 0 122.5"/><g fill="url(#a)" transform="translate(58 48.988)"><path d="M87.81 136.9A40.43 40.43 0 0 1 47.4 96.49c0-21.68 36.581-59.968 38.133-61.572l1.915-2.018 1.966 1.966c1.6 1.6 38.806 39.893 38.806 61.572A40.443 40.443 0 0 1 87.81 136.9m-.31-96.187c-3.208 3.467-9.934 10.969-16.609 19.765-11.849 15.622-18.11 28.044-18.11 35.96a35.029 35.029 0 0 0 70.058 0c0-7.916-6.364-20.334-18.42-35.96-6.778-8.744-13.66-16.298-16.919-19.765" data-name="Path 472473" style="fill:url(#b)" transform="translate(-22.875 -15.871)"/><path d="M75.745 141.982A53.406 53.406 0 0 1 22.4 88.636c0-28.768 40.151-68.92 41.859-70.575a2.708 2.708 0 1 1 3.829 3.829c-.414.414-40.255 40.255-40.255 66.746a47.965 47.965 0 1 0 95.929 0c0-10.866-7.037-25.871-20.386-43.515a253.5 253.5 0 0 0-20.645-23.852 2.708 2.708 0 0 1 3.829-3.829c1.759 1.707 42.635 42.376 42.635 71.2a53.56 53.56 0 0 1-53.449 53.345z" data-name="Path 472474" style="fill:url(#c)" transform="translate(-10.81 -8.017)"/><path d="M64.935 146.9A65.01 65.01 0 0 1 0 81.964c0-14.8 7.451-33.011 22.094-54.07A240.5 240.5 0 0 1 43.98.834a2.708 2.708 0 1 1 3.881 3.777 242 242 0 0 0-21.369 26.44C12.677 50.868 5.381 68.46 5.381 81.964a59.555 59.555 0 1 0 119.109 0c0-13.5-7.347-31.1-21.266-50.914A243 243 0 0 0 81.648 4.611 2.708 2.708 0 0 1 85.529.834c1.811 1.863 44.342 46.05 44.342 81.131A65.01 65.01 0 0 1 64.935 146.9" data-name="Path 472475" style="fill:url(#d)"/></g></svg>