<svg xmlns="http://www.w3.org/2000/svg" xml:space="preserve" viewBox="0 0 490 490"><path d="M0 245c0 135.1 109.9 245 245 245s245-109.9 245-245S380.1 0 245 0 0 109.9 0 245" style="fill:#001c3e"/><path d="m290 297-35.4 27.4v-82.8c0-14.2 6.7-27.6 18-36.1l34.8-26.2v82c.1 13.9-6.4 27.1-17.4 35.7m-90 0c-11-8.6-17.5-21.8-17.5-35.8v-82l34.9 26.3c11.3 8.6 18 21.9 18 36.1v82.8zm159.1 43.1-34 25.9V189.2c0-15 7-29.1 18.8-38.2l34-26v176.9c.1 15-6.9 29.1-18.8 38.2m-228.2 0C119 331 112 316.9 112 301.9V125l34 26c11.9 9.1 18.8 23.2 18.8 38.2V366z" style="fill:#fff"/></svg>