<svg xmlns="http://www.w3.org/2000/svg" xml:space="preserve" viewBox="0 0 490 490"><path d="M0 245c0 135.1 109.9 245 245 245s245-109.9 245-245S380.1 0 245 0 0 109.9 0 245" style="fill:#ff3667"/><path d="M375 133c6.7 0 12.9 3.5 16.3 9.2 1.7 2.8 2.6 6.1 2.6 9.4v187.7c0 6.7-3.6 12.8-9.4 16.1-9 5.2-20.5 2.2-25.9-6.7-1.7-2.8-2.6-6.1-2.6-9.4V151.6c0-6.7 3.6-12.8 9.4-16.1 2.9-1.6 6.2-2.5 9.6-2.5m-260.1 0c10.4-.1 18.8 8.3 18.9 18.7v187.7c-.5 10.4-9.4 18.5-19.9 18-9.7-.5-17.5-8.3-18-18V151.6c.2-10.3 8.6-18.7 19-18.6m87.5 43.1c10.4-.1 18.8 8.3 18.9 18.7v109.7c-.1 10.4-8.5 18.7-18.9 18.7-10.4.1-18.8-8.3-18.9-18.7V194.7c.1-10.3 8.5-18.7 18.9-18.6m85.1 35.4c10.4-.1 18.8 8.3 18.9 18.7v46.4c-.1 10.4-8.5 18.7-18.9 18.7-10.4.1-18.8-8.3-18.9-18.7v-46.4c.1-10.4 8.5-18.7 18.9-18.7" style="fill:#fff"/></svg>