<svg xmlns="http://www.w3.org/2000/svg" width="250" height="250"><circle cx="125" cy="125" r="125" style="fill:#fff;stroke-width:9.76382"/><path d="m79.49 184.705-1.905-2.25 2.25 1.905c2.114 1.79 2.705 2.595 1.905 2.595-.19 0-1.203-1.012-2.25-2.25M383.897 13.272c.722-.289 1.585-.253 1.917.08.332.331-.258.568-1.313.524-1.165-.048-1.401-.285-.604-.604" style="fill:#ee6d71" transform="matrix(.2039 0 0 .2039 39.812 41.721)"/><path d="M418.874 798.955c-11-63.74-111.236-619.778-111.839-620.409-1.186-1.241-53.92.952-70.817 2.945-45.028 5.313-65.773 19.04-71.5 47.308-.817 4.039-1.735 7.592-2.04 7.896s-8.324-3.307-17.823-8.025c-27.817-13.817-52.25-31.041-69.285-48.84-8.414-8.793-17.485-20.046-17.485-21.692 0-2.227 44.355-19.962 75-29.987 61.338-20.067 143.853-35.908 194.903-37.418l9.404-.278 39.759 48.377c21.867 26.607 40.377 48.995 41.134 49.752 1.167 1.167 7.577-6.2 42.337-48.659l40.963-50.033 9.5.59c78.273 4.87 166.154 24.571 238.426 53.452 11.933 4.768 30.75 12.876 31.42 13.539.586.578-5.313 8.588-12.32 16.728-15.563 18.079-45.968 40.381-73.683 54.046-20.383 10.05-19.415 9.86-20.213 3.982-1.778-13.102-8.977-26.478-17.797-33.068-12.815-9.575-28.36-14.519-55.83-17.755-11.84-1.394-69.712-4.13-70.412-3.327-.23.263-93.167 522.065-110.405 619.876l-.793 4.5zM33.413 114.281c-5.557-11.454-10.347-21.567-10.645-22.473-.557-1.695 10.464-6.21 44.817-18.36 122.207-43.226 266.58-65.099 392.5-59.466 120.077 5.372 235.704 29.626 347.832 72.962 7.982 3.085 8.305 3.331 7.697 5.866-.723 3.015-17.64 37.654-19.804 40.548-1.37 1.835-1.898 1.704-14.823-3.673C659.22 79.025 526.16 55.84 385.51 60.78c-38.002 1.335-50.404 2.195-81.425 5.646-82.288 9.156-165.89 30.269-238.197 60.156-10.067 4.16-19.219 7.78-20.338 8.044-1.78.42-3.301-2.131-12.137-20.346" style="fill:#e72026" transform="matrix(.2039 0 0 .2039 39.812 41.721)"/></svg>