<svg xmlns="http://www.w3.org/2000/svg" width="250" height="250"><circle cx="125" cy="125" r="124.817" fill="#002d3e" stroke="#fff" stroke-width=".365"/><path fill="#fff" d="M132.091 159.897a6.65 6.65 0 0 1-6.433 4.973c-3.095 0-5.668-2.121-6.433-4.973l-18.882-74.903C97.491 73.52 87.094 65 74.749 65c-14.57 0-26.393 11.823-26.393 26.393v5.946c0 5.529 4.486 9.98 9.98 9.98 5.529 0 9.98-4.486 9.98-9.98v-5.946c0-3.547 2.886-6.398 6.398-6.398 2.991 0 5.529 2.086 6.224 4.868l19.195 76.05c2.991 11.301 13.284 19.612 25.524 19.612 12.206 0 22.533-8.346 25.524-19.612l19.195-76.05c.695-2.782 3.199-4.868 6.224-4.868 3.547 0 6.398 2.886 6.398 6.398v84.152c0 5.529 4.486 9.98 9.98 9.98 5.529 0 9.98-4.486 9.98-9.98V91.393c0-14.57-11.823-26.393-26.393-26.393-12.345 0-22.742 8.52-25.593 19.995zm-63.74 15.649c0 5.529-4.486 9.98-9.98 9.98-5.529 0-9.98-4.486-9.98-9.98v-22.359c0-5.529 4.486-9.98 9.98-9.98 5.529 0 9.98 4.486 9.98 9.98z"/><path fill="#f5c117" d="m51.521 118.447 3.199-3.06.104-.07a5.356 5.356 0 0 1 7.094-.035l.104.104 3.199 3.095 3.06 3.199.104.104a5.317 5.317 0 0 1 0 7.094l-.07.104-3.06 3.199-.035.035-3.164 3.06-.104.07a5.317 5.317 0 0 1-7.094 0l-.104-.104-3.199-3.06v-.035l-3.095-3.199-.104-.104a5.317 5.317 0 0 1 0-7.094l.07-.104z"/></svg>