<svg xmlns="http://www.w3.org/2000/svg" xml:space="preserve" viewBox="0 0 490 490"><path d="M0 245c0 135.1 109.9 245 245 245s245-109.9 245-245S380.1 0 245 0 0 109.9 0 245" style="fill:#41b37d"/><path d="M197 150c-20.3 0-31 17-31 17L95 291s-8.1 19 1 34 32 15 32 15h242s-37-6-46-14c-10.4-8.1-28-38-28-38l-71-121s-7.7-17-28-17" style="opacity:.9;fill:#fff"/><path d="M295 150c-20.3 0-31 17-31 17l-71 124s-8.1 19 1 34 32 15 32 15h145s17.2-3.5 24-20-1-32-1-32l-71-121s-7.7-17-28-17" style="opacity:.75;fill:#fff"/></svg>