<svg xmlns="http://www.w3.org/2000/svg" width="236" height="236"><circle cx="118" cy="118" r="118" fill="#fff" paint-order="stroke fill markers"/><path d="m168.021 43.484-34.637 51.46c-2.395 3.504 2.211 7.747 5.527 4.796l34.084-29.696c.921-.738 2.211-.184 2.211 1.107v92.776c0 1.291-1.658 1.844-2.395.922L69.637 41.271C66.321 37.213 61.531 35 56.188 35h-3.685C42.922 35 35 42.931 35 52.707v130.587C35 193.069 42.922 201 52.687 201c6.08 0 11.791-3.136 15.108-8.484l34.637-51.46c2.395-3.504-2.211-7.747-5.527-4.796L62.82 165.771c-.921.738-2.211.184-2.211-1.107V72.073c0-1.291 1.658-1.844 2.395-.922l103.174 123.578c3.316 4.058 8.291 6.271 13.45 6.271h3.685c9.765 0 17.687-7.931 17.687-17.707V52.707C201 42.931 193.078 35 183.313 35c-6.264 0-11.976 3.136-15.292 8.484"/></svg>