<svg xmlns="http://www.w3.org/2000/svg" id="svg3052" width="245" height="245" version="1.1" viewBox="0 0 64.823 64.823"><g id="layer1" transform="translate(-1.455 -230.722)"><circle id="path3597" cx="33.867" cy="263.133" r="32.411" style="opacity:1;fill:#1e4dd8;fill-opacity:1;fill-rule:nonzero;stroke:none;stroke-width:.566564;stroke-linecap:round;stroke-linejoin:round;stroke-miterlimit:4;stroke-dasharray:none;stroke-dashoffset:0;stroke-opacity:1;paint-order:stroke fill markers"/><g id="g3714" transform="matrix(.05367 0 0 .05367 19.708 244.941)"><g id="g3712"><path id="path3690" d="M260.7 579.7c-1.3-15.3-8.2-29.6-19.5-40.1s-26-16.3-41.3-16.5H197c-7.3.3-14.5 1.9-21.2 4.8l-1.5.6h-.6c-10.9 4.9-20 12.9-26.4 23s-9.6 21.8-9.4 33.8v1.2c.7 16.4 7.7 31.9 19.6 43.2 11.8 11.3 27.6 17.7 44 17.7h34.9c.9 0 1.8-.4 2.5-1 .7-.7 1-1.5 1-2.5v-19.7c0-.5-.1-.9-.3-1.3s-.4-.8-.8-1.1c-.3-.3-.7-.6-1.1-.7-.4-.2-.9-.2-1.3-.2H200c-7.4-.3-14.6-2.9-20.5-7.4s-10.3-10.8-12.5-17.8h89.6c.6 0 1.1-.1 1.6-.2.5-.2 1-.5 1.4-.9s.7-.8 1-1.3.4-1.1.4-1.6v-10.6c0-.7-.1-1.1-.3-1.4m-28.8-6.4H167c3.1-8.8 9.5-16 17.9-20l1.4-.6c4.3-1.8 9-2.6 13.6-2.5 4.7.1 9.3 1.1 13.5 3.1 4.2 1.9 8.1 4.7 11.2 8.2s5.6 7.5 7.1 11.9h.2z" class="st0" style="fill:#fff"/><path id="path3692" d="M60.6 523.3c-11.6.3-22.9 4-32.4 10.6v-7q0-.9-.6-1.5t-1.5-.6H3.4q-.9 0-1.5.6t-.6 1.5v56.5c-.1 1-.1 1.9 0 2.9V644c0 .9.4 1.8 1 2.4.6.7 1.5 1 2.4 1.1h20.1c.5 0 .9-.1 1.3-.3s.8-.4 1.1-.8c.3-.3.6-.7.7-1.1.2-.4.2-.9.2-1.3v-59.1q0-7.35 3-14.1c2-4.4 4.8-8.4 8.4-11.7s7.8-5.7 12.4-7.2 9.5-2.1 14.3-1.6c8.8.9 16.9 5.1 22.8 11.7s9.1 15.1 9 24v58.2c0 .5.1.9.2 1.3.2.4.4.8.7 1.1s.7.6 1.1.8.9.3 1.3.3h20c.9 0 1.8-.4 2.5-1 .7-.7 1-1.5 1-2.5v-59.3c0-8.3-1.7-16.6-5-24.2-3.3-7.7-8.1-14.6-14.1-20.3-6-5.8-13.1-10.2-20.9-13.2-7.6-3-15.9-4.3-24.2-3.9" class="st0" style="fill:#fff"/><path id="path3694" d="M378.5 523.9c-.3-.3-.7-.5-1.2-.5-.4 0-.9.2-1.2.5l-42.9 42.4-42.4-42.4c-.3-.3-.7-.5-1.2-.5-.4 0-.9.2-1.2.5l-17.3 17.9c-.3.3-.5.7-.5 1.2 0 .4.2.9.5 1.2l42.4 42.4-43 43.1c-.3.3-.5.7-.5 1.2 0 .4.2.9.5 1.2l16.9 16.9c.2.2.4.4.7.5s.5.2.8.2.6-.1.8-.2c.3-.1.5-.3.7-.5l42.4-42.4 42.4 42.4c.3.3.7.5 1.2.5s.9-.2 1.2-.5l17.3-17.2c.3-.3.5-.7.5-1.2 0-.4-.2-.9-.5-1.2L352.5 587l43-42.4c.3-.3.5-.7.5-1.2 0-.4-.2-.9-.5-1.2z" class="st0" style="fill:#fff"/><path id="path3696" d="M464.6 522.7c-12.6-.2-25 3.4-35.5 10.3-10.6 6.9-18.8 16.8-23.8 28.4-4.9 11.6-6.3 24.4-4 36.8 2.4 12.4 8.3 23.8 17.2 32.8s20.2 15.1 32.5 17.7c12.3 2.5 25.2 1.3 36.8-3.5 11.7-4.8 21.6-12.9 28.7-23.4 7-10.5 10.8-22.8 10.8-35.4 0-16.7-6.6-32.8-18.3-44.7-11.7-12-27.7-18.8-44.4-19m0 99.9c-5 .3-9.9-.5-14.6-2.2s-8.9-4.4-12.6-7.8c-3.6-3.4-6.5-7.6-8.5-12.1-2-4.6-3-9.5-3-14.5s1-9.9 3-14.5 4.8-8.7 8.5-12.1c3.6-3.4 7.9-6.1 12.6-7.8s9.6-2.5 14.6-2.2c9.4.5 18.2 4.6 24.6 11.4s10 15.9 10 25.2-3.6 18.4-10 25.2c-6.4 6.9-15.2 10.9-24.6 11.4" class="st0" style="fill:#fff"/><path id="path3698" d="M520.1 73 393.9 0 262.7 75.8 136.6 3c-1.6-.9-3.4-1.4-5.3-1.4s-3.7.5-5.3 1.4L.3 75.8v297.8c0 1.8.5 3.5 1.4 5s2.1 2.8 3.7 3.7l126.7 73 131.2-75.9 126.2 73c1.6.9 3.4 1.4 5.3 1.4s3.7-.5 5.3-1.4l126.7-73V81.8c-.2-1.9-.9-3.8-2.1-5.3-1.2-1.6-2.8-2.8-4.6-3.5" class="st0" style="fill:#fff"/><path id="path3700" d="m137 3 258 149.2v152.2L.3 76.1 127.3 3q2.25-1.2 4.8-1.2c1.7 0 3.4.4 4.9 1.2" class="st1" style="fill:#d9eeff"/><path id="path3702" d="M395 0 263.4 76.2l131.6 76Z" class="st2" style="fill:#bdf"/><path id="path3704" d="m395 0 126.5 73.2c1.5.9 2.8 2.2 3.7 3.8s1.4 3.3 1.4 5.1v298.5L395 304.4Z" style="fill:#a0ccff"/><path id="path3706" d="m526.7 380.5-127.1 73.2c-1.6.9-3.4 1.4-5.3 1.4s-3.7-.5-5.3-1.4L131.9 304.4V152Z" class="st2" style="fill:#bdf"/><path id="path3708" d="M.3 76.1v298.6c0 1.8.5 3.5 1.4 5.1.9 1.5 2.1 2.8 3.7 3.8l127.1 73.2V152Z" class="st0" style="fill:#fff"/><path id="path3710" d="m131.9 456.6 131.5-76.2-131.5-76.1Z" class="st1" style="fill:#d9eeff"/></g></g></g><style id="style3688" type="text/css">.st0{fill:#fff}.st1{fill:#d9eeff}.st2{fill:#bdf}</style></svg>