<svg xmlns="http://www.w3.org/2000/svg" width="245" height="245"><path fill="#fff" d="M245 122.5C245 55 190 0 122.5 0S0 55 0 122.5 55 245 122.5 245 245 190 245 122.5" data-name="BNB (1)"/><g data-name="Group 2768"><g fill="none" fill-rule="evenodd" data-name="Box Left"><path d="m35.005 118.716 35.274-20.428 35.155 20.428v40.856L70.279 180l-35.274-20.428Z"/><path fill="#232220" d="m70.276 102.912-31.271 18.11v36.244l31.27 18.11 31.16-18.106v-36.252zm.004-4.624 35.155 20.428v40.856L70.28 180l-35.274-20.428v-40.856z"/></g><g data-name="Box Right"><g fill="none" fill-rule="evenodd" data-name="Box Left"><path d="m138.571 118.716 35.274-20.428L209 118.716v40.856L173.845 180l-35.274-20.428Z"/><path fill="#232220" d="m173.842 102.912-31.271 18.11v36.244l31.27 18.11 31.16-18.106v-36.252zm.004-4.624L209 118.716v40.856L173.845 180l-35.274-20.428v-40.856z"/></g></g><g fill="none" fill-rule="evenodd" data-name="Box Main"><path d="m77.406 82.967 44.538-26.01 44.657 26.01v14.608l-31.949 18.528v37.412l-12.708 7.364-12.589-7.364v-37.412L77.406 97.576Z"/><path fill="#232220" d="M121.947 61.588 81.406 85.263v10.008l29.955 17.372 1.994 1.156v37.422l8.598 5.03 8.7-5.04v-37.412l1.992-1.156 29.956-17.372V85.266zm-.003-4.631 44.657 26.01v14.609l-31.949 18.527v37.412l-12.708 7.364-12.59-7.364v-37.412L77.407 97.576V82.967z"/></g></g></svg>