<svg xmlns="http://www.w3.org/2000/svg" xmlns:xlink="http://www.w3.org/1999/xlink" width="250" height="250"><defs><linearGradient xlink:href="#a" id="c" x1="17.335" x2="80" y1="74.339" y2="74.339"><stop offset="0" stop-color="#700000"/><stop offset=".327" stop-color="#730000"/><stop offset=".59" stop-color="#7d0000"/><stop offset=".83" stop-color="#8e0000"/><stop offset="1" stop-color="#9f0000"/></linearGradient><linearGradient xlink:href="#a" id="b" x1="17.584" x2="17.584" y1="68.073" y2="80.102"><stop offset=".35" stop-color="#dfdfdf"/><stop offset=".645" stop-color="#ddd"/><stop offset=".752" stop-color="#d6d6d6"/><stop offset=".828" stop-color="#cbcbcb"/><stop offset=".889" stop-color="#bababa"/><stop offset=".941" stop-color="#a4a4a4"/><stop offset=".987" stop-color="#898989"/><stop offset="1" stop-color="gray"/></linearGradient><linearGradient xlink:href="#a" id="e" x1="48.667" x2="48.667" y1="68.69" y2="80"><stop offset=".35" stop-color="#cf2000"/><stop offset=".645" stop-color="#cd1f00"/><stop offset=".752" stop-color="#c61d00"/><stop offset=".828" stop-color="#bb1900"/><stop offset=".889" stop-color="#aa1300"/><stop offset=".941" stop-color="#940c00"/><stop offset=".987" stop-color="#790300"/><stop offset="1" stop-color="#700000"/></linearGradient><linearGradient xlink:href="#b" id="f" x1="38.026" x2="38.026" y1="68.69" y2="80"/><linearGradient xlink:href="#a" id="g" x1="37.877" x2="37.877" y1="68.689" y2="80"><stop offset=".35" stop-color="#10208f"/><stop offset=".645" stop-color="#101f8d"/><stop offset=".752" stop-color="#0f1d86"/><stop offset=".828" stop-color="#0d197b"/><stop offset=".889" stop-color="#0a136a"/><stop offset=".941" stop-color="#060c54"/><stop offset=".987" stop-color="#020339"/><stop offset="1" stop-color="#000030"/></linearGradient><linearGradient xlink:href="#a" id="h" x1="17.335" x2="80" y1="55.313" y2="55.313"><stop offset="0" stop-color="#cf2000"/><stop offset=".021" stop-color="#d12201"/><stop offset=".244" stop-color="#e23309"/><stop offset=".487" stop-color="#ec3d0e"/><stop offset=".791" stop-color="#ef4010"/><stop offset=".841" stop-color="#ec3d0f"/><stop offset=".882" stop-color="#e2330d"/><stop offset=".919" stop-color="#d12208"/><stop offset=".954" stop-color="#b90a03"/><stop offset=".966" stop-color="#af0000"/><stop offset="1" stop-color="#ef4010"/></linearGradient><linearGradient xlink:href="#a" id="i" x1="17.335" x2="80" y1="57.229" y2="57.229"><stop offset="0" stop-color="#dfdfdf"/><stop offset=".021" stop-color="#e1e1e1"/><stop offset=".244" stop-color="#f2f2f2"/><stop offset=".487" stop-color="#fcfcfc"/><stop offset=".791" stop-color="#fff"/><stop offset=".841" stop-color="#fcfcfc"/><stop offset=".882" stop-color="#f2f2f2"/><stop offset=".919" stop-color="#e1e1e1"/><stop offset=".954" stop-color="#c9c9c9"/><stop offset=".966" stop-color="#bfbfbf"/><stop offset="1" stop-color="#fff"/></linearGradient><linearGradient xlink:href="#a" id="j" x1="17.335" x2="80" y1="57.28" y2="57.28"><stop offset="0" stop-color="#00209f"/><stop offset=".021" stop-color="#0222a1"/><stop offset=".244" stop-color="#1333b2"/><stop offset=".487" stop-color="#1d3dbc"/><stop offset=".791" stop-color="#2040bf"/><stop offset=".841" stop-color="#1e3dbc"/><stop offset=".882" stop-color="#1933b2"/><stop offset=".919" stop-color="#1122a1"/><stop offset=".954" stop-color="#050a89"/><stop offset=".966" stop-color="#00007f"/><stop offset="1" stop-color="#2040bf"/></linearGradient><linearGradient xlink:href="#b" id="d"/><linearGradient id="a" gradientUnits="userSpaceOnUse"/></defs><circle cx="125" cy="125" r="125" fill="#cdcdcd" fill-rule="evenodd"/><path fill="#0e3ca5" d="M105.685 164.858c4.822 17.887 22.122 31.53 30.86 30.967.305-.02 33.136-6.157 51.109-36.258 13.983-23.43 9.224-46.05-9.8-46.543-6.842.5-81.354 17.761-72.166 51.839m70.394-114.885-.02-.017.027-.014a83.478 83.698 0 0 0-87.995-12.732 48.786 48.915 0 0 0-5.304 2.599c-1.172.623-2.344 1.247-3.482 1.933l.278.085a38.043 38.144 0 0 0-8.812 8.364c-23.944 31.733 56.37 54.802 99.317 54.877 19.747 14.22 25.292-40.029 5.99-55.095"/><path fill="#5493f7" d="M92.944 50.623C81.91 67.25 45.157 78.965 39.113 77.14l-.041-.077q.373-.75.754-1.494a88.42 88.653 0 0 1 26.206-30.66q3.392-2.49 7.025-4.66a26.018 26.086 0 0 1 12.148-3.247c16.367.315 7.821 13.488 7.734 13.621m-9.048 117.503c.791 5.226-.021 25.864-1.087 27.602-.918.056-2.83.172-8.368-2.941A88.097 88.33 0 0 1 34.491 88.225q.441-1.331.923-2.642c6.343 8.46 13.684 16.111 19.923 24.656 5.943 8.136 14.118 21.397 15.782 24.23 10.328 17.592 11.974 28.446 12.777 33.66m122.09-52.019a87.798 88.03 0 0 1-6.124 32.41c-10.366 11.17-80.242-16.323-80.927-16.623-9.559-4.203-38.648-16.976-41.273-37.053-3.763-28.874 54.653-48.995 80.329-49.758 3.079.036 12.447.145 17.908 4.592a87.79 88.023 0 0 1 30.087 66.432m-47.3 78.253c-7.619 3.565-16.006.966-13.827-6.471 4.183-14.281 40.71-28.925 48.776-29.72.996-.097 1.42.583.976 1.356a88.873 89.108 0 0 1-35.921 34.835"/><path fill="url(#c)" d="M17.335 77.254a2.55 2.55 0 0 0 2.328 2.714c30.7.21 60.337-1.2 60.337-5.8 0-13.925-62.665 3.086-62.665 3.086" transform="matrix(2.41084 0 0 2.4172 27.128 21.617)"/><path fill="url(#d)" d="M17.586 78.389v-.007z" transform="matrix(2.41084 0 0 2.4172 27.128 21.617)"/><path fill="url(#e)" d="m40.43 71.956 5.757 5.758c19.066-2.581 33.332-6.324 33.332-3.414 0 4.245-29.173 5.7-59.843 5.494a2 2 0 0 1-.245-.014 2.35 2.35 0 0 1-1.845-1.388v-.007a2.5 2.5 0 0 1-.138-.368 3 3 0 0 0 .138.368v.007a2.33 2.33 0 0 0 2.087 1.386c5.093-.031 10.143-.319 15.027-.756l-4.834-4.836c-7.364 1.669-12.531 3.071-12.531 3.071a2.55 2.55 0 0 0 2.34 2.714c30.692.233 60.288-.731 60.325-5.8 0-8.198-21.707-5.671-39.57-2.215" transform="matrix(2.41084 0 0 2.4172 27.128 21.617)"/><path fill="url(#f)" d="m46.187 77.714-5.757-5.758c-3.774.731-7.375 1.5-10.564 2.227l4.834 4.836c3.963-.356 7.813-.809 11.487-1.305" transform="matrix(2.41084 0 0 2.4172 27.128 21.617)"/><path fill="url(#g)" d="m37.719 72.494-5.278 1.115 5.132 5.133q2.922-.3 5.739-.655z" transform="matrix(2.41084 0 0 2.4172 27.128 21.617)"/><path fill="url(#h)" d="M19.678 37.821a2.343 2.343 0 0 0-2.343 2.344v37.089a2.34 2.34 0 0 0 2.328 2.346C50.362 79.37 80.037 69.209 80 74.169V32.392c.037-4.96-29.628 5.199-60.322 5.429" transform="matrix(2.41084 0 0 2.4172 27.128 21.617)"/><path fill="url(#i)" d="M80 47.621c0-.9-.959-1.237-2.161-1.351a20.5 20.5 0 0 0-3.9.134l-3.076.409-2.7.42-2.61.439-2.562.451-2.569.444-2.619.451-2.7.461-2.86.458-3.055.473-3.276.483V35.658c-3.664.52-7.5.994-11.429 1.367v15.191l-3.173.277-2.795.2-2.606.141-2.6.1-2.8.078-3.178.033v11.398l3.176-.033 2.8-.078 2.6-.1 2.605-.142 2.8-.2 3.173-.277V78.8c3.931-.372 7.762-.846 11.425-1.366V62.288a216 216 0 0 0 3.279-.483l3.052-.473q1.476-.229 2.86-.458l2.7-.462 2.618-.45 2.569-.444 2.562-.451 2.61-.439 2.7-.42c.918-.136 1.833-.273 3.075-.408a20.5 20.5 0 0 1 3.9-.135c1.2.114 2.161.456 2.161 1.351V47.621z" transform="matrix(2.41084 0 0 2.4172 27.128 21.617)"/><path fill="url(#j)" d="M80 50.47c0-.895-.962-1.236-2.172-1.351a20.6 20.6 0 0 0-3.929.14l-3.1.414-2.738.425-2.636.445-2.577.453-2.562.445-2.583.443-2.637.45-2.749.441-2.9.449-3.064.456-3.306.44V36.049l-5.707.686v18.049a285 285 0 0 1-6.066.562 160 160 0 0 1-5.227.33l-2.645.106-2.86.081-3.21.035v5.7l3.209-.035 2.86-.081a197 197 0 0 0 5.225-.248l2.648-.189 2.856-.247 3.21-.314V78.51q2.9-.314 5.706-.685v-18.01q1.716-.215 3.305-.439l3.066-.457 2.9-.448 2.749-.441 2.638-.45 2.584-.443 2.562-.444 2.577-.453a212 212 0 0 1 5.374-.871l3.1-.414a20.5 20.5 0 0 1 3.929-.14c1.21.114 2.172.457 2.172 1.35V50.47z" transform="matrix(2.41084 0 0 2.4172 27.128 21.617)"/></svg>