<svg xmlns="http://www.w3.org/2000/svg" xml:space="preserve" id="NTK" x="0" y="0" version="1.1" viewBox="0 0 490 490"><style>.st1{fill:none;stroke:#fff;stroke-width:2;stroke-linecap:round;stroke-linejoin:round}</style><path id="Full" d="M0 245c0 135.1 109.9 245 245 245s245-109.9 245-245S380.1 0 245 0 0 109.9 0 245" style="fill:#a059a2"/><path id="Form_3" d="M245 86v154l45-76z" class="st1"/><path id="Form_5" d="m245 86-41 67 14 3zm0 0-41 67 14 3zm0 1-27 71 21 82 2 1v-8l4 7zm0-1v154l45-76z" class="st1"/><path id="Form_3_kopiera_4" d="M244.9 409V255l-45.1 76z" class="st1"/><path id="Form_4_kopiera_4" d="m244.9 408 28-72-22-82h-2v8l-4-7z" class="st1"/><path id="Form_5_kopiera_4" d="m244.9 409 41.1-67-14-3zm0 0 41.1-67-13-4zm0-1 28-72-22-82h-2v8l-4-7zm0 1V255l-44.1 76z" class="st1"/><path id="Form_3_kopiera" d="m129.3 134.1 111.1 106.6-23.7-85.1z" class="st1"/><path id="Form_4_kopiera" d="m130.1 134.8 32.6 69.1 74.4 41.9 1.4-1.4-5.5-4.8 7.5 1.2z" class="st1"/><path id="Form_5_kopiera" d="m129.3 134.1 20 76 11.9-7zm.8.7 32.6 69.1 74.4 41.9 1.4-1.4-5.5-4.8 7.5 1.2zm-.8-.7 111.1 106.6-23.7-84.1z" class="st1"/><path id="Form_3_kopiera_2" d="m84.2 247.6 154-.4-76.2-44.8z" class="st1"/><path id="Form_4_kopiera_2" d="m85.2 247.6 71.1 26.8 82.9-21.2v-2h-8l7-4z" class="st1"/><path id="Form_5_kopiera_2" d="m84.2 247.6 66.1 39.8 4-13zm1 0 71.1 26.8 82.9-21.2v-2h-8l7-4zm-1 0 154-.4-76.2-43.8z" class="st1"/><path id="Form_3_kopiera_3" d="m130.7 361.3 109.2-108.6-85.6 21.7z" class="st1"/><path id="Form_4_kopiera_3" d="m131.4 360.6 69.8-30.9 43.6-73.4-1.4-1.4-6 6.4 2.4-8.5z" class="st1"/><path id="Form_5_kopiera_3" d="m130.7 361.3 76.4-18.2-6.7-12zm.7-.7 69.8-30.9 43.6-73.4-1.4-1.4-6 6.4 2.4-8.5zm-.7.7 109.2-108.6-85.6 21.7z" class="st1"/><path id="Form_3_kopiera_5" d="M362.7 361 251.2 254.5l23.8 85z" class="st1"/><path id="Form_4_kopiera_5" d="m362 360.3-32.7-69-74.6-41.9-1.4 1.4 6.5 5.8-8.5-2.2z" class="st1"/><path id="Form_5_kopiera_5" d="m362.7 361-20-75.9-11.9 7zm-.7-.7-32.7-69-74.6-41.9-1.4 1.4 6.5 5.8-8.5-2.2zm.7.7L251.2 254.5l22.8 84z" class="st1"/><path id="Form_3_kopiera_5-2" d="m408 247.6-154.5.4 76.3 44.8z" class="st1"/><path id="Form_4_kopiera_5-2" d="m407 247.6-72.3-26.8-82.2 21.2v2h8l-7 4z" class="st1"/><path id="Form_5_kopiera_5-2" d="m408 247.6-67.3-40.8-4 14zm-1 0-72.3-26.8-82.2 21.2v2h8l-7 4zm1 0-154.5.4 76.3 43.8z" class="st1"/><path id="Form_3_kopiera_5-3" d="M361.3 134 251.8 242.5l85.9-21.7z" class="st1"/><path id="Form_4_kopiera_5-3" d="m360.6 134.7-71 30.9-42.7 73.4 1.4 1.4 6-6.3-2.4 8.5z" class="st1"/><path id="Form_5_kopiera_5-3" d="m361.3 134-77.6 18.2 6.8 12zm-.7.7-71 30.9-43.7 74.4 2.4.4 6-6.3-2.4 8.5zm.7-.7L251.8 242.5l84.9-21.7z" class="st1"/></svg>