<svg xmlns="http://www.w3.org/2000/svg" width="256" height="256" viewBox="0 0 67.733 67.733"><g transform="translate(0 -229.267)"><circle cx="33.867" cy="263.133" r="32.411" style="opacity:1;fill:#20252e;fill-opacity:1;fill-rule:nonzero;stroke:none;stroke-width:2.99606323;stroke-linecap:round;stroke-linejoin:round;stroke-miterlimit:4;stroke-dasharray:none;stroke-dashoffset:0;stroke-opacity:1;paint-order:stroke fill markers"/><path d="M35.201 239.395c2.3.455 4.307 2.02 5.324 4.14 1.464 3.063.829 6.46-1.672 8.894-.602.589-.977 1.124-1.21 1.74-.215.554-.262 1.691-.101 2.306a3.98 3.98 0 0 0 2.876 2.843c.515.134 1.41.127 1.932-.006.79-.2 1.264-.522 2.214-1.465 1.083-1.09 1.806-1.585 2.976-2.02 1.518-.575 3.571-.588 5.103-.04 3.972 1.411 6.072 5.772 4.681 9.684-.996 2.789-3.444 4.722-6.407 5.056-1.765.2-3.711-.32-5.196-1.391-.288-.207-.83-.696-1.21-1.083-.522-.549-.79-.77-1.157-.957-1.144-.595-2.442-.608-3.639-.033-.588.28-1.424 1.117-1.718 1.725-.462.93-.542 2.12-.214 3.063.167.488.688 1.304 1.023 1.599.435.38 1.25 1.31 1.558 1.779a7.61 7.61 0 0 1 .415 7.677 7.6 7.6 0 0 1-8.253 3.96c-2.3-.462-4.28-2-5.317-4.134-1.458-3.01-.836-6.44 1.599-8.834.91-.89 1.317-1.599 1.478-2.568.247-1.478-.415-2.997-1.672-3.853-1.204-.816-2.675-.916-4-.26-.408.2-.642.394-1.47 1.217-1.05 1.05-1.532 1.39-2.602 1.852-2.883 1.25-6.254.549-8.46-1.759-1.826-1.912-2.515-4.56-1.86-7.129.73-2.855 3.157-5.082 6.086-5.597.676-.114 2.114-.1 2.729.033 1.638.354 2.682.936 4.086 2.274.675.642.963.87 1.351 1.057 1.612.789 3.437.461 4.635-.83.715-.762 1.05-1.625 1.05-2.695.006-1.264-.342-1.96-1.579-3.203-1.117-1.117-1.625-1.88-2.06-3.097-.541-1.511-.541-3.484 0-5.002.997-2.776 3.471-4.742 6.374-5.05.649-.073 1.632-.026 2.307.108z" style="fill:#fff;fill-opacity:1;stroke:none;stroke-width:.00668776" transform="matrix(.96194 0 0 .96194 1.289 10.015)"/><path d="M32.6 242.465c-1.585.4-2.91 1.738-3.284 3.33-.114.475-.127 1.545-.027 1.986.375 1.679 1.699 3.037 3.344 3.438.488.12 1.538.14 2 .033a4.58 4.58 0 0 0 3.103-2.427c.354-.73.461-1.298.428-2.194-.054-1.21-.422-2.08-1.258-2.93a4.9 4.9 0 0 0-1.805-1.143c-.569-.194-1.9-.24-2.501-.093m1.986 1.437c1.598.495 2.541 2.228 2.06 3.8a3.078 3.078 0 0 1-4.34 1.878c-.449-.22-1.124-.882-1.345-1.31a3.23 3.23 0 0 1 0-2.85c.2-.38.863-1.056 1.257-1.27a3.14 3.14 0 0 1 2.368-.248M49.112 258.575c-1.539.395-2.716 1.465-3.224 2.936-.174.502-.187.629-.187 1.485.006.85.02.983.187 1.438.268.722.549 1.17 1.09 1.705.542.535 1.01.836 1.712 1.09.442.16.582.181 1.425.181.782 0 1.01-.027 1.404-.147a4.4 4.4 0 0 0 1.806-1.124c.535-.541.836-1.016 1.09-1.718.227-.65.281-1.746.114-2.495-.355-1.612-1.706-2.956-3.344-3.344-.488-.12-1.619-.12-2.073-.006zm2.126 1.512c.776.294 1.492 1.01 1.786 1.792.22.582.254 1.358.074 1.94-.388 1.277-1.458 2.126-2.796 2.207-2.347.133-3.966-2.375-2.89-4.488.202-.381.864-1.057 1.258-1.27.75-.409 1.78-.482 2.568-.181M16.542 258.91c-1.538.394-2.688 1.431-3.23 2.93-.16.447-.18.574-.18 1.457s.02 1.01.18 1.458a4.24 4.24 0 0 0 1.09 1.719c.87.87 1.732 1.244 2.976 1.29.876.034 1.411-.066 2.087-.374 1.21-.555 2.187-1.746 2.494-3.036.114-.482.127-1.552.027-1.993-.368-1.679-1.692-3.037-3.344-3.438-.521-.127-1.618-.134-2.1-.013m2.107 1.505a3.087 3.087 0 0 1 1.672 4.266c-.248.502-.856 1.11-1.358 1.358a3.08 3.08 0 0 1-4.327-1.853c-.508-1.638.468-3.39 2.147-3.865.495-.134 1.384-.094 1.866.094M33.061 275.007c-1.692.415-3.03 1.74-3.417 3.37-.148.636-.1 1.833.093 2.442.208.642.589 1.244 1.117 1.772.863.863 1.732 1.237 2.956 1.29 1.217.048 2.14-.24 3.043-.955.736-.576 1.344-1.539 1.558-2.455.12-.528.127-1.571.007-2.06-.375-1.538-1.385-2.668-2.876-3.23-.482-.18-.642-.2-1.378-.22-.461-.014-.956.005-1.103.046zm1.739 1.431c.548.148.963.388 1.404.83 1.572 1.571.99 4.226-1.103 5.029-1.538.588-3.364-.24-3.946-1.8-.87-2.306 1.257-4.68 3.645-4.059" style="fill:#20252e;fill-opacity:1;stroke:none;stroke-width:.00668776" transform="matrix(.96194 0 0 .96194 1.289 10.015)"/></g></svg>