<svg xmlns="http://www.w3.org/2000/svg" xml:space="preserve" viewBox="0 0 490 490"><path d="M0 245c0 135.1 109.9 245 245 245s245-109.9 245-245S380.1 0 245 0 0 109.9 0 245" style="fill:#161c32"/><path d="M355.2 134.1c29.7 29.2 45.9 69.3 44.8 110.9.4 41.5-15.7 81.4-44.8 110.9C325.3 387.5 288.5 401 245 401c-84.8.8-154.2-67.3-155-152v-4c-.6-32.4 9.4-64.1 28.5-90.3l38 38.3c-9.8 16.1-15 34.6-14.9 53.4 0 27.6 10.7 54.1 29.9 74 38.6 40.6 102.7 42.2 143.3 3.7.2-.2.4-.4.7-.6l3-3c19.7-19.5 30.6-46.2 29.9-74 0-27.6-10.7-54.1-29.9-74-19.2-19.8-45.9-30.7-73.5-30.1-18.2-.5-36.1 4.3-51.6 13.7l-38-38.3c25.9-19.2 57.5-29.3 89.7-28.7 41.4-1 81.2 15.4 110.1 45" style="fill:#fff"/></svg>