<svg xmlns="http://www.w3.org/2000/svg" width="256" height="256" viewBox="0 0 67.733 67.733"><g transform="translate(0 -229.267)"><circle cx="33.867" cy="263.133" r="32.411" style="opacity:1;fill:#141414;fill-opacity:1;fill-rule:nonzero;stroke:none;stroke-width:6.23717594;stroke-linecap:round;stroke-linejoin:round;stroke-miterlimit:4;stroke-dasharray:none;stroke-dashoffset:0;stroke-opacity:1;paint-order:stroke fill markers"/><path d="M18.156 262.334a2.27 2.27 0 0 1-2.27 2.274 2.273 2.273 0 0 1 0-4.547 2.27 2.27 0 0 1 2.27 2.273m36.085 0a2.273 2.273 0 0 1-2.27 2.274 2.273 2.273 0 0 1 0-4.547 2.27 2.27 0 0 1 2.27 2.273M36.2 271.306a2.273 2.273 0 0 1-2.27 2.273 2.273 2.273 0 0 1-2.272-2.273 2.27 2.27 0 0 1 2.271-2.274 2.27 2.27 0 0 1 2.27 2.274m-9.082-4.424a2.27 2.27 0 0 1-2.27 2.273 2.27 2.27 0 0 1-2.271-2.273 2.272 2.272 0 1 1 4.541 0m18.043 0a2.273 2.273 0 0 1-2.27 2.273 2.27 2.27 0 0 1-2.272-2.273 2.272 2.272 0 1 1 4.542 0m-27.74 2.335a1.535 1.535 0 1 1-1.533-1.537c.847 0 1.534.688 1.534 1.537m36.085 0c0 .847-.687 1.536-1.534 1.536a1.536 1.536 0 0 1 0-3.073c.847 0 1.534.688 1.534 1.537m-18.043 9.093c0 .848-.687 1.537-1.533 1.537a1.537 1.537 0 0 1 0-3.072c.846 0 1.533.687 1.533 1.535m-9.082-4.546a1.535 1.535 0 1 1-3.069 0 1.535 1.535 0 1 1 3.068 0m18.043 0a1.535 1.535 0 1 1-3.07.001 1.535 1.535 0 0 1 3.07 0m-27.739.858a.798.798 0 1 1-1.596.003.798.798 0 0 1 1.596-.003m36.086 0a.799.799 0 1 1-1.598.002.799.799 0 0 1 1.598-.002m-18.043 9.095a.8.8 0 1 1-1.598 0 .8.8 0 0 1 1.598 0m-9.083-4.547a.799.799 0 1 1-1.598 0 .799.799 0 0 1 1.598 0m18.043 0a.799.799 0 1 1-1.598 0 .799.799 0 0 1 1.598 0m-6.75-34.35a3.07 3.07 0 0 1-3.069 3.073 3.07 3.07 0 0 1-3.069-3.072 3.07 3.07 0 0 1 3.07-3.073 3.07 3.07 0 0 1 3.067 3.073m0 9.094a3.07 3.07 0 0 1-3.068 3.073 3.07 3.07 0 0 1-3.069-3.073 3.07 3.07 0 0 1 3.07-3.072 3.07 3.07 0 0 1 3.067 3.072m0 8.972a3.07 3.07 0 0 1-3.068 3.072 3.07 3.07 0 0 1-3.069-3.072 3.07 3.07 0 0 1 3.07-3.073 3.07 3.07 0 0 1 3.067 3.073m18.043-8.972a3.07 3.07 0 0 1-3.068 3.073 3.07 3.07 0 0 1-3.07-3.073 3.07 3.07 0 0 1 3.07-3.072 3.07 3.07 0 0 1 3.068 3.072m-36.086 0a3.07 3.07 0 0 1-3.068 3.073 3.07 3.07 0 0 1-3.068-3.073 3.07 3.07 0 0 1 3.068-3.072 3.07 3.07 0 0 1 3.068 3.072m9.083-4.547a3.07 3.07 0 0 1-3.068 3.072 3.07 3.07 0 0 1-3.069-3.072 3.07 3.07 0 1 1 6.137 0m0 8.971a3.07 3.07 0 0 1-3.068 3.073 3.07 3.07 0 0 1-3.069-3.073 3.07 3.07 0 0 1 3.069-3.072 3.07 3.07 0 0 1 3.068 3.072m18.043-8.971a3.07 3.07 0 0 1-3.069 3.072 3.07 3.07 0 0 1-3.068-3.072 3.07 3.07 0 1 1 6.137 0m0 8.971a3.07 3.07 0 0 1-3.069 3.073 3.07 3.07 0 0 1-3.068-3.073 3.07 3.07 0 0 1 3.068-3.072 3.07 3.07 0 0 1 3.069 3.072" style="fill:#fff;fill-rule:evenodd;stroke-width:.11473457"/></g></svg>