<svg xmlns="http://www.w3.org/2000/svg" width="236.002" height="236.002"><path fill="#1a82ff" d="M118.001 0c65.17 0 118.001 52.831 118.001 118.001s-52.831 118.001-118.001 118.001S0 183.171 0 118.001 52.831 0 118.001 0"/><path fill="#fff" d="M161.142 166.59q-15.323 18.772-43.101 18.772T74.934 166.59q-15.333-18.782-15.327-48.556t15.32-48.549q15.323-18.782 43.107-18.779t43.101 18.779q15.323 18.772 15.327 48.549t-15.32 48.556"/><g fill="#1a82ff"><path d="M117.825 159.193q7.313 0 12.434-3.985t7.417-10.809q2.293-6.827 3.237-13.088t.937-13.277q0-8.638-1.045-15.461l-42.002 43.768q5.826 12.845 19.022 12.852m.418-82.317q-7.313 0-12.434 3.985T98.392 91.67q-2.306 6.827-3.237 13.088-.944 6.261-.937 13.277 0 4.622.297 8.725l40.06-41.739q-5.836-8.142-16.331-8.145z"/><path d="m62.871 159.76-5.158-4.949 39.116-40.774 5.158 4.949zm73.7-42.548-5.158-4.949 39.116-40.774 5.158 4.949z"/></g></svg>