<svg xmlns="http://www.w3.org/2000/svg" width="256" height="256" viewBox="0 0 67.733 67.733"><path fill="#ed1b6c" fill-rule="evenodd" d="M1.532 33.923c0 17.872 14.54 32.411 32.411 32.411s32.411-14.54 32.411-32.411S51.815 1.512 33.943 1.512 1.532 16.052 1.532 33.923"/><g fill="#fff"><path d="m40.092 22.097-.128.089-.784.54c-.022.014-.051.018-.077.028.017-.018.032-.039.052-.053l.843-.602c.013-.011.039-.002.093-.002zm-2.947 3.626-.027-.005c.002-.012.001-.028.007-.036l.274-.332q.008-.006.02-.011zm.397-.708-.026-.008c.004-.012.004-.028.011-.035l.307-.303.129-.138c.04-.038.308-.321.023 0zm.172-.926c.068-.09.325-.36.699-.721l.398-.361a1 1 0 0 1 .076-.055c0 .005-.051.057-.052.059l-1.121 1.079zM37.405 26.065l-.219.324c-.006.009-.025.011-.038.017-.001-.009-.005-.023-.001-.028l.258-.312zm-1.505.787-.183.345c-.005.009-.023.014-.036.021-.002-.009-.007-.022-.004-.028zm14.301 20.84c.034-.009.067-.023.102-.027l.177-.012-.179.039c-.032.005-.067-.001-.1-.001zm-9.874-25.734c-.007.007-.013.017-.022.021l-.102.051c0-.008-.002-.023 0-.025l.116-.054z"/><path d="m38.95 22.931-.026-.033.106-.098c-.015.049-.046.086-.081.131zm-1.294 2.882-.107.086a.3.3 0 0 1 .085-.098q.001 0 .022.012m.428-.784.035-.033.059-.051a.5.5 0 0 1-.094.084m-1.091.416.036-.033a.06.06 0 0 1-.02.044zm2.103-1.378.037-.003-.082.059zm-1.413 19.91.064.068zM35.574 27.01c-.01.011-.066.143-.073.153-.004-.006-.011-.014-.008-.019a3 3 0 0 1 .081-.134m1.812-1.191.058-.031zm3.019-3.907-.078.047c.02-.023.046-.038.072-.054zm-1.666 2.744.037-.003-.066.031q.016-.014.029-.028m-2.083 17.918-.036-.048c.023.012.032.027.042.041zm.749-16.508.024-.043c0 .02-.012.031-.024.043M50.2 47.691l-.094.014.001.001zm-7.92.015.157.063.029.031v-.001l-.67-.279.483.186zm-5.893-4.775.023.066zm14.316-22.149c-.14-.018-.397.092-1.373-.167l-.307-.072-.574-.046c-.248.02-.392.092-.725.054a1.5 1.5 0 0 0-.518.039c-.325.076-.471.2 0 0l.02-.008c.232-.1.694-.114 1.223-.084a2 2 0 0 1 .574.046l1.664.236z"/><path fill-rule="evenodd" d="m59.974 42.938.137-.178.084-.124.15-.225.098-.137.107-.15.311-.519.117-.213.44-.844.32-.776.117-.301.037-.094.167-.451.281-.974.013-.049.007-.029.241-.995c.064-.322.106-.65.141-.978l.063-.969.005-.428.001-.881-.022-.329-.065-.703-.332-1.857c-.359-1.86-1.276-3.575-2.418-5.068-.977-1.273-2.053-2.398-3.389-3.31-1.918-1.311-3.935-2.168-6.263-2.507l-1.179-.133-.276-.027-.363-.022-.17-.007h-.326l-.079.026-.022-.008.024-.016h-.078l-.181.012-.27.018-.862.072-.178.015-.564.059-.864.167-1.148.308a2 2 0 0 0-.27.107l-.206.086-.297.093-.226.069c-.018.006-.034.021-.049.036s-.029.029-.047.036l-.258.102-.392.159-.692.338-.844.463c-.029.016-.052.042-.075.068l-.034.037.005.005.379-.195.738-.38.824-.377.336-.15.113-.052.318-.132a3 3 0 0 1 .252-.059c.109-.022.218-.043.321-.083l.016-.006.016-.006a3 3 0 0 1 .579-.183l.543-.118.334-.076c.037-.008.076-.008.115-.009s.075-.001.111-.008l.228-.053.379-.077.794-.059.135-.007.463-.016.232-.006.105-.003.31-.007.178.006.162.006.156-.002.227.001 1.004.083c.029.002.056.013.084.024l.034.013-.04.001-.08.002h-.1l-.291-.014-.58-.023-.298-.003.031-.006c-.029-.014-.041-.021-.054-.021l-.213-.008-.57-.011-1.145.067c-.158.014-.315.045-.471.075l-.211.04-.162.029-.359.064-.346.061-.88.167c-.221.049-.434.13-.645.213l-.787.318-.439.179-.214.082-.394.161-.999.528-1.091.664a2 2 0 0 0-.316.286l-.136.138-.039.04-.039.04-.106.09-.246.205-.187.148-.358.293a1.4 1.4 0 0 0-.163.186l-.104.127-.294.311-.134.14v.044l-.024.007.007-.021.007-.021-.139.152.029-.023h.019l-.024.015-.024.015-.063.085-.153.196-.219.239-.347.389c-.076.093-.14.196-.204.299l-.107.168-.283.426-.283.427c.059-.083.132-.168.205-.252l.177-.213.496-.638.295-.344.092-.105c.007-.009.02-.014.031-.02q.014.038 0 .048-.026.027-.055.052a1 1 0 0 0-.078.079l-.426.588-.208.328-.171.275-.002.003-.005.007-.002.002-.035.05.021-.019.023-.023.055-.078.231-.315.213-.275.691-.856 1.048-1.091.086-.085.737-.677c.085-.073.179-.136.273-.198l.16-.109.199-.149.342-.248.485-.3.336-.205a10 10 0 0 1 1.676-.841l.213-.086.763-.293.9-.277.141-.041.517-.128.329-.046.281-.038.211-.045.245-.05.672-.075.278-.029.078-.009.229-.02.398.003.239.003.259.001.648.006c.033.001.066.013.1.025l.037.013-.095.005-.224.006q-.061-.003-.122-.013c-.049-.007-.098-.014-.146-.012l-.907.041-.135.007-.137.007-.639.042-.359.051-.256.04-.204.02-.31.036a3 3 0 0 0-.291.078l-.194.056-.259.059-.462.119-.164.058-1.738.656a12 12 0 0 0-1.076.548l-.316.173a8 8 0 0 0-.637.386l-.745.53-.622.499-.381.349-.143.135a.3.3 0 0 0-.039.049l-.015.021q.011-.006.024-.013.03-.015.057-.036l.364-.317.22-.192q.018-.015.042-.02-.002.031-.018.043l-.261.237-.499.463-.645.655-.213.22q-.014.015-.023.035l-.011.02q.01-.007.02-.012a.1.1 0 0 0 .035-.024l.181-.184.293-.294.034-.033.767-.719.54-.451.241-.197q.013-.009.031-.013.003.033-.011.043l-.237.196-.482.409-.808.775-.63.689-.128.144c-.026.029-.043.064-.061.1a1 1 0 0 1-.045.081l-.076.106c-.544.759-1.091 1.522-1.479 2.376-.064.142-.354.925-.281.779l.946-1.802c.527-.828 1.081-1.577 1.767-2.226l.018-.017.018-.017.05-.071.01.021a1 1 0 0 0 .124-.11l.353-.349.289-.267.106-.097.029-.037.016-.02.023-.021.023-.021-.004.032v.002l.046-.029.412-.312 1.012-.744c.352-.242.731-.448 1.109-.651l1.045-.503 1.302-.468 1.431-.372a13.4 13.4 0 0 1 3.801-.198c1.068.094 2.111.302 3.129.638l1.025.389a9 9 0 0 0-.866-.308l-.158-.056-.158-.056-.293-.09-.252-.072-.582-.154-1.149-.203-1.577-.113-.171-.001a17 17 0 0 0-.393.001l-.59.04-.016.001-1.265.156-1.173.216c-.066.013-.13.041-.193.068l-.136.053-.3.089-.529.168-1.216.503-1.023.515-.653.406-.176.115a3 3 0 0 0-.218.16l-.079.061-.316.239h-.001v.001l-.315.238-.134.097-.27.209-.806.776-.001.001-.126.123-.396.411-.207.246-.031.038q-.009.014-.006.036v.02l.021-.005q.026-.002.04-.015l.063-.083.079-.101.157-.16.108-.108.383-.401.186-.195.028-.028.021-.006.03-.007.205-.195.442-.398 1.243-.913c.204-.144.42-.271.636-.398l.084-.05.347-.19.175-.093.03-.018.03-.018-.002.028.215-.103.445-.207.953-.389.928-.281.07-.017 1.335-.283 1.786-.178a12 12 0 0 1 2.164.102 14.3 14.3 0 0 1 2.408.541c.905.287 1.777.656 2.587 1.147a17 17 0 0 1 1.632 1.123c.48.375.93.797 1.367 1.224.596.583 1.102 1.248 1.559 1.944a13.3 13.3 0 0 1 1.86 4.306c.316 1.363.415 2.742.308 4.138a13.3 13.3 0 0 1-.549 2.908 13.4 13.4 0 0 1-1.637 3.454 13.4 13.4 0 0 1-1.92 2.306 12 12 0 0 1-2.508 1.86l-.194.108h-.001l-.969.501-1.732.677a7 7 0 0 1-.876.248l-.76.15h-.002l-.325.06-.11.019-.022.003-.033.005.07-.025.07-.025.006-.005-.001-.001-.255.03-.692.083c-.814.114-1.631.087-2.445.033a11.6 11.6 0 0 1-2.552-.458c-1.969-.585-3.745-1.507-5.306-2.85a18 18 0 0 1-1.97-1.982q-.018-.018-.044-.032l-.019-.011.006.025q.004.028.017.051l.122.186.326.457.935 1.002.532.488.235.208-.085-.06a2 2 0 0 1-.215-.167l-.216-.208-1.169-1.151c-.162-.168-.306-.352-.451-.537l-.193-.244-.006.006.048.079.115.181.323.432.03.04.031.041.011.014.235.306.235.306.062.072.285.323.015.024a.02.02 0 0 1-.025-.007l-.072-.058c-.055-.043-.111-.086-.157-.138l-.875-1.008-.13-.154-.609-.786-.732-1.216-.251-.432-.157-.25-.166-.267q-.012-.021-.03-.047l-.06-.096.057.139.002.007.115.291.213.531q.083.2.192.39l.668 1.143c.074.12.16.233.246.347l.112.149.012.033.011.033.042.046.12.135.102.118.322.372.061.066.107.121.141.188.207.27.514.574.771.718.772.587.332.245c1.259.953 2.852 1.553 4.373 1.967 1.611.442 3.117.498 4.768.39 1.692-.114 3.356-.43 4.914-1.106l.81-.367.497-.245.356-.203.619-.385.33-.234.257-.2.179-.14.252-.194.495-.389c.18-.15.35-.313.516-.48l.851-.882.546-.64.306-.391zM39.07 44.99q.01.025.017.032l.191.141.6.409-.748-.55a.2.2 0 0 0-.039-.022l-.02-.009zm9.983-24.737-.027.03.013.003q.015.005.029.007l.109.006.217.016.424.044c.352.032.705.064 1.043.185a.3.3 0 0 0 .087.008q.037-.002.072.005l.477.103.338.073.092.015.127.024q.09.029.178.068l.077.032c.005-.012.244-.001.382.006l.095.003-1.146-.25-.465-.096-1.167-.213c-.22-.03-.443-.042-.665-.054l-.289-.017zm3.268.625.027.008.165.049.021.003a1 1 0 0 0-.213-.061zm-3.911-.94-.203-.007-.271-.008-.025.003q.014.013.026.013h.304zm-.595.868-.068-.003-.02.012.089-.008zm.014-.001.06-.001q-.03-.004-.06.002zm13.934 12.51v-.03zm0 0 .005.036zm0-.152zm-24.441-8.248-.216.226c.008-.016.204-.262.204-.262l.45-.478.027-.026.018-.017.082-.087-.018.034q-.02.04-.046.074l-.333.358-.167.179zm3.398-2.445.024.001-.032.028-.024.02-.266.172-.033.014q.01-.026.016-.03l.292-.203q.007-.003.023-.002m-1.044.099-.111.076q-.015-.005-.022-.006c.006-.016.007-.023.012-.026l.209-.138c.004-.003.016-.002.021.001-.036.043-.073.068-.11.094zm-1.47 1.395a.3.3 0 0 1-.089.104l-.079.071c.016-.037.044-.065.071-.094l.084-.086zm-.291 20.704h.02l.435.385.002.001h.001l.534.473c.753.674-.045-.022-.045-.022l-.776-.662-.168-.156zm.496-21.065c-.018.036-.047.061-.075.087l-.053.047-.01-.012.132-.126zm8.848-2.754-.113.009-.108-.011.04-.007.094-.013a.2.2 0 0 1 .057.013l.029.008zm-9.057 23.664a.14.14 0 0 1 .057.046l.049.058.644.619-.762-.706q0-.002.012-.017M40 22.967l-.044.033-.009-.016.138-.098c-.021.033-.052.056-.084.081zm-1.404.498-.001.004-.005.003-.047.039c-.01-.016-.004-.02.002-.026l.034-.029.015.006zm23.677 6.911.001.001zm-22.856-7.635-.035.034c.015-.035.033-.053.051-.071.003.017-.006.026-.016.036zm14.055-1.484.025.013q-.018.002-.029.005-.015.004-.022.001a.1.1 0 0 1-.026-.018l-.001-.011q.013-.003.025-.002c.012.001.016.006.028.012m-6.134-1.317.018.012h-.027q-.022.001-.034-.001l-.021-.019q.029-.003.042-.002c.013.001.011.003.02.011zm-6.662 2.055.001.012-.03.024-.016-.015.035-.025zm21.75 9.035a.1.1 0 0 1 .002.022c-.001-.016-.001-.019-.003-.022zM49.39 47.839l.004.009a.1.1 0 0 1-.027.007c.001-.014.006-.017.012-.018zm-13.279-5.366.002.002.006.009-.001.001q-.022-.008-.031-.024l.022.006.001.001zm15.055-22.261c-.022.004-.029.003-.037.002l-.017-.011.03-.001.025.005zm-4.616.158c.023-.005.028-.004.031-.004l-.032.014zm5.916.166.021.005c-.018.012-.023.015-.026.014l-.018-.008-.004-.007q.017-.006.029-.003zm-.893-.223c.02.001.027.003.033.004l-.032.004-.022-.004zM37.77 44.504l.002.001.002.001a1 1 0 0 0 .078.096l.02.023-.129-.121c.017-.01.022-.005.027 0m4.333-22.767c-.004.009-.008.019-.01.02l-.026-.002.007-.007c.015-.013.02-.013.023-.011h.001zm11.423-.752c-.011.005-.018 0-.024-.004l-.004-.002c.012-.008.021-.004.029.001zm-3.197-.927v.004q-.017.001-.021-.004c.011-.005.014-.004.021 0m-1.126-.097-.002.003c-.02.001-.024-.001-.026-.004.022-.004.025-.003.029-.001zm-2.759-.139c-.014.016-.018.016-.021.016.008-.016.013-.016.02-.016zm-8.408 4.202-.003.01zm8.778 24.345.014.001zm2.848-.078-.035.005a1 1 0 0 0 .126-.052l.142-.075a1.4 1.4 0 0 1-.447.072 1.3 1.3 0 0 0-.464.086l-.193.057-.642.031-.169-.023c-.661-.105-.93-.057-1.067-.033l-.087.011.849.047-.828-.038c-2.718-.232-4.963-1.376-7.085-2.703 1.089.903 3.699 2.437 7.085 2.703l.99.043.447.005a2 2 0 0 0 .292-.005c.424-.012.811-.048 1.05-.126l.035-.005zm.306-.047-.306.047zm-1.39.178-.292.005-.111-.008.607-.031a2 2 0 0 1-.204.035zm2.69-.18c-2.61.65-4.48.463-6.571-.022.092.007.235.035.427.072.924.181 2.998.586 6.145-.05zm-6.391-.499c1.794.507 3.154.682 5.624.093-2.686.601-4.465.174-5.258-.017l-.366-.077zm.016.597c-2.625-.585-4.215-1.588-5.869-2.956.081.048.198.142.356.269.739.595 2.379 1.917 5.513 2.687"/></g><path fill="#fefefe" d="M8.205 35.356 6.2 31.192h-.654v6.178H6.2v-4.835l1.755 3.598h.5l1.747-3.598v4.835h.654v-6.178h-.654zm5.675-4.164-2.247 6.178h.689l.448-1.283.261-.758h-.003l1.121-3.222.722 2.066.404 1.156h-.003l.247.711.464 1.33h.689l-2.247-6.178zm7.422 4.961-3.197-4.961h-.654v6.178h.654v-4.977l3.197 4.977h.654v-6.178h-.654zm1.439-4.371h1.764v5.587h.646v-5.587h1.764v-.591h-4.173zm8.766 2.239q.35-.43.349-1.093 0-.832-.497-1.286c-.497-.454-.786-.45-1.365-.45h-2.291v6.178h.654v-2.711h1.486l1.395 2.711h.753l-1.459-2.774q.626-.144.975-.574zm-3.151.071v-2.31h1.585q.609 0 .937.291.323.292.324.865 0 .555-.332.854c-.332.299-.53.299-.931.299zm13.93-2.9h-2.113v6.178h2.113q.985 0 1.563-.569c.578-.569.577-.978.577-1.794v-1.45q0-1.227-.577-1.794c-.577-.567-.907-.571-1.563-.571m1.475 3.851q0 1.735-1.467 1.736h-1.458v-4.997h1.458q.709 0 1.088.429c.379.429.382.742.382 1.371v1.461zm10.63-3.362q-.579-.569-1.552-.569-.984 0-1.565.569c-.581.569-.583.978-.583 1.794v1.601q0 1.227.577 1.794c.577.567.906.569 1.563.569q.977 0 1.557-.569c.58-.569.583-.978.583-1.794v-1.601q.001-1.225-.58-1.794m-.074 3.434q0 1.727-1.478 1.728-.733 0-1.115-.412c-.382-.412-.382-.714-.382-1.316v-1.612q0-.949.376-1.373c.376-.424.623-.426 1.118-.426q1.476 0 1.478 1.799v1.612zm-4.2 2.255-2.247-6.178h-.546l-2.247 6.178h.689l.371-1.06.338-.981.258-.747.86-2.475 1.129 3.222h-.002l.324.934.385 1.107zm-12.666 0-2.247-6.178h-.546l-2.247 6.178h.689l.437-1.253.272-.788h-.002l1.121-3.222 1.025 2.928.102.294.272.788.437 1.253z"/></svg>