<svg xmlns="http://www.w3.org/2000/svg" xml:space="preserve" viewBox="0 0 490 490"><path d="M0 245c0 135.1 109.9 245 245 245s245-109.9 245-245S380.1 0 245 0 0 109.9 0 245" style="fill:#489ed7"/><path d="M153.3 318.6v56m51.5-40.2V402m64.3-67.6v38.7m67.2-54.5v73.2m-29.2-135.5L148.3 97v97.6m0 0c-.1 53.6 43.2 97.3 96.9 97.4 25.9.1 50.7-10.2 69-28.5L176.8 125.7m12.3 12.2 153.6 154.2v-97.6m0 0c.2-53.6-43.2-97.3-96.8-97.5-25.9-.1-50.7 10.2-69 28.4l137.4 137.9" style="fill:none;stroke:#fff;stroke-width:7"/></svg>