<svg xmlns="http://www.w3.org/2000/svg" xml:space="preserve" width="491.339" height="491.339"><path d="M0 245.67c0 135.468 110.2 245.669 245.67 245.669 135.468 0 245.669-110.2 245.669-245.67S381.139 0 245.669 0 0 110.2 0 245.67" style="fill:#fff;stroke-width:1.00273"/><path fill="#000005" d="M88.737 245.383v-80.701a16.43 16.43 0 0 1 8.977-15.44l88.51-50.988c16.877-9.695 33.843-19.39 50.72-29.264a17.77 17.77 0 0 1 19.3 0l139.139 80.162a16.79 16.79 0 0 1 8.887 11.131c.27 1.167.359 2.424.359 3.59v163.378a15.71 15.71 0 0 1-8.348 14.273l-28.098 16.158-110.863 63.825a28 28 0 0 1-6.193 2.962 16.16 16.16 0 0 1-13.466-1.795l-37.433-21.724c-7.45-4.22-14.722-8.528-22.172-12.657a17.06 17.06 0 0 1-9.336-16.158v-46.68a16.427 16.427 0 0 1 13.824-17.055c4.13-.539 8.259.359 11.67 2.513l34.291 19.749c4.937 2.873 9.875 5.655 14.722 8.618a5.655 5.655 0 0 0 6.643 0c20.467-11.94 41.113-23.789 61.67-35.638 5.117-2.873 10.054-5.835 15.17-8.618a4.76 4.76 0 0 0 2.784-4.668v-89.408a4.76 4.76 0 0 0-2.693-4.758l-77.47-44.614a5.03 5.03 0 0 0-5.655.09c-25.674 14.9-51.437 29.623-77.2 44.434a5.39 5.39 0 0 0-2.873 5.566v147.937c0 1.795 0 3.59-.359 5.296a16.338 16.338 0 0 1-23.788 11.042c-3.95-2.065-7.81-4.399-11.67-6.643a78744 78744 0 0 0-30.521-17.595 17.4 17.4 0 0 1-6.733-6.642 15.53 15.53 0 0 1-1.795-7.72zm58.618 106.195v-150.81a19.75 19.75 0 0 1 10.772-18.671c26.033-14.902 51.976-29.803 77.919-44.884a19.75 19.75 0 0 1 21.185 0l78.008 44.884a20.11 20.11 0 0 1 10.772 18.85v89.14a20.29 20.29 0 0 1-10.952 19.12l-78.098 44.884a19.3 19.3 0 0 1-20.646.09l-47.667-27.469-3.321-1.795v3.59l-.09 42.012a4.49 4.49 0 0 0 2.693 4.488c18.672 10.772 37.254 21.455 55.836 32.316a4.85 4.85 0 0 0 5.655 0c45.333-26.212 90.755-52.424 136.267-78.456a4.85 4.85 0 0 0 2.693-4.938V167.195a4.85 4.85 0 0 0-2.872-4.847L249.78 84.25l-3.232-1.795-141.384 81.509V327.34z" style="stroke-width:8.97676"/></svg>