<svg xmlns="http://www.w3.org/2000/svg" width="250" height="250"><circle cx="125" cy="125" r="119.038" fill="#cdcdcd" stroke="#fff" stroke-width="1.924"/><path fill="#404a72" d="M82.493 152.931a2.27 2.27 0 0 1-1.619 2.005 2.25 2.25 0 0 1-2.435-.818l-32.43-30.387a2.455 2.455 0 0 1-1.074-2.497 2.44 2.44 0 0 1 1.884-1.952l45.402-18.211c2.108-.845 3.376.267 2.816 2.491z"/><path fill="#556195" d="M55.664 181.805c-1.725 1.483-3.464.875-3.862-1.379l-8.845-49.384c-.413-2.254.619-2.818 2.285-1.261L76.051 158.7a3.68 3.68 0 0 1 1.22 2.805 3.67 3.67 0 0 1-1.323 2.757zm37.147-90.567a2.8 2.8 0 0 1 .781 2.686 2.78 2.78 0 0 1-1.931 2.015L46.54 114.106c-2.123.845-3.199-.208-2.403-2.358l18.544-50.14a2.235 2.235 0 0 1 4.142-.756zm-47.288 82.174c.413 2.254-.28 2.521-1.474.608l-17.571-27.213a6.47 6.47 0 0 1 .236-6.837l7.813-10.544c1.371-1.839 2.816-1.483 3.214.756zm-5.513-64.749c-.796 2.15-2.034 2.136-2.757 0l-5.97-18.108a7 7 0 0 1 1.754-6.748l21.33-19.442c1.68-1.483 2.418-1.038 1.621 1.112zm-5.631 6.971a8.94 8.94 0 0 1-1.165 7.252l-6.117 8.29c-1.371 1.839-2.285 1.483-2.064-.801l2.919-28.667c.221-2.284 1.017-2.373 1.725-.193zm24.072-64.556c.767.875 0 2.862-1.695 4.449l-9.641 8.705c-1.695 1.483-1.961 1.29-.604-.549l7.975-10.87c1.474-1.839 3.214-2.595 3.965-1.735m60.54 152.572a2.43 2.43 0 0 1-4.422.163L89.51 167.094a2.28 2.28 0 0 1-.441-2.544 2.25 2.25 0 0 1 2.21-1.312l50.399-5.235c2.255-.237 3.169 1.186 2.019 3.174zm-10.51.03c1.297 1.898.59 2.833-1.577 2.106l-47.171-16.165c-2.152-.742-2.506-2.566-.781-4.063l20.18-17.529a3.63 3.63 0 0 1 2.905-.913 3.64 3.64 0 0 1 2.579 1.625z"/><path fill="#6ecce0" d="M142.695 149.476c1.474 1.735.84 3.337-1.474 3.574l-51.151 5.309a2.69 2.69 0 0 1-2.598-.887 2.73 2.73 0 0 1-.483-2.717l12.795-50.096c.575-2.21 2.255-2.61 3.729-.875z"/><path fill="#556195" d="M179.444 192.394a2.26 2.26 0 0 1 .728 2.49 2.24 2.24 0 0 1-2.084 1.529l-52.035 11.004c-2.226.475-3.11-.756-1.961-2.744l24.544-42.221a2.79 2.79 0 0 1 2.268-1.606 2.78 2.78 0 0 1 2.522 1.161zM95.76 220.571a6.38 6.38 0 0 1-6.751-.786l-24.205-21.459c-1.695-1.483-1.327-2.15.825-1.483l41.274 14.133c2.167.742 2.285 2.239.28 3.322zm56.103 2.047a6.88 6.88 0 0 1-6.884.742l-16.79-8.616c-2.034-1.053-1.872-2.284.354-2.758l44.827-9.491c2.226-.475 2.609.326.855 1.78zm-46.949 1.112c-2.285-.104-2.491-1.083-.486-2.165l9.021-4.924a8.8 8.8 0 0 1 7.37-.089l13.178 6.748c2.034 1.038 1.828 1.794-.442 1.691zm82.902-21.548c.752.875-.265 2.491-2.27 3.574l-11.881 6.377c-2.019 1.083-2.226.771-.457-.682l10.024-8.246c1.769-1.453 3.833-1.913 4.584-1.023"/><path fill="#404a72" d="M157.789 148.942c-2.123.845-3.39-.267-2.816-2.491l12.603-49.354a2.28 2.28 0 0 1 1.624-2.009 2.26 2.26 0 0 1 2.445.807l32.43 30.402a2.44 2.44 0 0 1 1.098 2.502 2.42 2.42 0 0 1-1.909 1.947z"/><path fill="#556195" d="M207.083 118.97c.398 2.254-.619 2.833-2.285 1.261l-30.823-28.919a3.67 3.67 0 0 1-1.212-2.808 3.67 3.67 0 0 1 1.33-2.753l20.239-17.544c1.725-1.483 3.479-.875 3.877 1.379zm-19.753 69.45a2.26 2.26 0 0 1-1.823 1.818 2.25 2.25 0 0 1-2.334-1.077l-26.003-30.387a2.8 2.8 0 0 1-.824-2.71 2.78 2.78 0 0 1 1.959-2.036l45.166-18.167c2.108-.845 3.199.208 2.403 2.358zm36.174-85.214a6.5 6.5 0 0 1-.221 6.837l-7.827 10.544c-1.356 1.839-2.801 1.483-3.214-.756l-7.768-43.23c-.398-2.254.28-2.521 1.474-.608zm-4.776 56.25a7 7 0 0 1-1.754 6.748l-21.33 19.442c-1.695 1.483-2.418 1.038-1.621-1.097l15.979-43.2c.781-2.15 2.019-2.136 2.742 0zm3.302-11.152c-.236 2.284-1.017 2.358-1.739.193l-4.673-14.118a8.94 8.94 0 0 1 1.165-7.282l6.132-8.26c1.356-1.839 2.285-1.483 2.049.801zm-26.622 48.895c-1.371 1.854-3.096 2.625-3.862 1.735s0-2.862 1.695-4.449l9.596-8.75c1.68-1.483 1.961-1.29.604.549z"/><path fill="#404a72" d="M160.531 82.918a2.28 2.28 0 0 1 .441 2.544 2.25 2.25 0 0 1-2.21 1.312l-50.399 5.235c-2.27.237-3.184-1.186-2.034-3.159l24.691-42.488a2.43 2.43 0 0 1 2.159-1.511 2.43 2.43 0 0 1 2.263 1.348z"/><path fill="#556195" d="M170.938 81.984a3.63 3.63 0 0 1-2.905.913 3.64 3.64 0 0 1-2.579-1.625l-23.998-34.94c-1.282-1.898-.575-2.833 1.577-2.091l47.171 16.135c2.152.742 2.506 2.566.781 4.063zm-20.785 63.369c-.56 2.225-2.241 2.61-3.729.875l-39.108-45.677c-1.474-1.735-.855-3.352 1.474-3.589l51.136-5.309a2.69 2.69 0 0 1 2.61.878 2.73 2.73 0 0 1 .486 2.725zM101.361 87.56a2.77 2.77 0 0 1-2.267 1.62 2.77 2.77 0 0 1-2.524-1.175L70.568 57.633a2.26 2.26 0 0 1-.731-2.483 2.24 2.24 0 0 1 2.072-1.536l52.035-11.019c2.241-.475 3.125.756 1.975 2.744zm41.658-48.583c-2.152-.742-2.27-2.225-.265-3.322l11.527-6.199a6.38 6.38 0 0 1 6.751.786l24.146 21.459c1.71 1.483 1.341 2.15-.811 1.483zM76.7 47.519c-2.226.475-2.609-.267-.84-1.75l22.273-18.374a6.91 6.91 0 0 1 6.899-.742l16.864 8.631c2.034 1.038 1.872 2.269-.354 2.744zm59.862-14.148a8.8 8.8 0 0 1-7.37.089l-13.267-6.748c-1.916-1.038-1.725-1.794.56-1.705l28.612 1.335c2.255.148 2.491 1.083.486 2.165zM66.779 46.807c-1.769 1.483-3.833 1.913-4.584 1.038s.265-2.506 2.27-3.574l11.881-6.392c2.005-1.083 2.211-.771.457.682zM51.537 191.964c.87-.771 2.845 0 4.422 1.691l8.697 9.654c1.474 1.705 1.282 1.972-.545.608l-10.82-8.082c-1.887-1.364-2.653-3.114-1.754-3.871M201.702 61.815c.884-.771 2.491.267 3.553 2.284l6.353 11.953c1.061 2.032.767 2.225-.678.46l-8.196-10.084c-1.445-1.78-1.902-3.856-1.032-4.612zm-4.938-7.637c1.828 1.364 2.609 3.114 1.725 3.871s-2.845 0-4.422-1.691l-8.697-9.654c-1.474-1.705-1.282-1.972.545-.608zM47.277 183.585c1.474 1.78 1.902 3.856 1.017 4.612s-2.476-.267-3.553-2.284l-6.339-11.953c-1.076-2.032-.767-2.225.678-.46z"/></svg>