<svg xmlns="http://www.w3.org/2000/svg" xml:space="preserve" viewBox="0 0 490 490"><path d="M0 245c0 135.1 109.9 245 245 245s245-109.9 245-245S380.1 0 245 0 0 109.9 0 245" style="fill:#34445b"/><path d="m258.6 182.4 28.9-45.4c15.8 3.4 31.4-6.6 34.9-22.5s-6.6-31.4-22.5-34.9c-15.8-3.4-31.4 6.6-34.9 22.5-1.8 8.3.1 16.9 5.1 23.7l-35.9 56.3c-62.9 6.2-108.9 62.3-102.6 125.2s62.3 109 125.2 102.7 108.9-62.3 102.6-125.2c-5.3-53.6-47.3-96.3-100.8-102.4m-13.2 175.2c-33.7.1-61.1-27.1-61.3-60.8s27.1-61.1 60.8-61.3c25.5-.1 48.3 15.6 57.3 39.5-11.9-15.4-34.1-18.2-49.5-6.3s-18.2 34.1-6.3 49.5 34.1 18.2 49.5 6.3c2.3-1.8 4.4-3.9 6.2-6.2-8.9 23.6-31.5 39.2-56.7 39.3" style="fill:#fff"/></svg>