<svg xmlns="http://www.w3.org/2000/svg" width="242.5" height="242.5"><path fill="#2261f6" d="M0 121.252C0 188.064 54.44 242.5 121.252 242.5S242.5 188.064 242.5 121.252 188.064 0 121.252 0 0 54.44 0 121.252"/><g fill="#fff" data-name="oxygen-solan a" transform="translate(-3473.702 -6390.217)"><circle cx="10.642" cy="10.642" r="10.642" data-name="Ellipse 834" transform="translate(3584.212 6562.452)"/><circle cx="10.642" cy="10.642" r="10.642" data-name="Ellipse 835" transform="translate(3584.212 6439)"/><circle cx="8.514" cy="8.514" r="8.514" data-name="Ellipse 836" transform="translate(3586.34 6472.346)"/><circle cx="8.514" cy="8.514" r="8.514" data-name="Ellipse 837" transform="translate(3556.542 6456.738)"/><circle cx="8.514" cy="8.514" r="8.514" data-name="Ellipse 838" transform="translate(3556.542 6549.681)"/><circle cx="8.514" cy="8.514" r="8.514" data-name="Ellipse 839" transform="translate(3612.947 6488.31)"/><circle cx="8.514" cy="8.514" r="8.514" data-name="Ellipse 840" transform="translate(3612.947 6517.754)"/><circle cx="8.514" cy="8.514" r="8.514" data-name="Ellipse 841" transform="translate(3586.34 6533.363)"/><circle cx="6.74" cy="6.74" r="6.74" data-name="Ellipse 842" transform="translate(3588.115 6504.627)"/><circle cx="6.74" cy="6.74" r="6.74" data-name="Ellipse 843" transform="translate(3558.315 6519.883)"/><circle cx="6.74" cy="6.74" r="6.74" data-name="Ellipse 844" transform="translate(3558.315 6490.083)"/><circle cx="4.966" cy="4.966" r="4.966" data-name="Ellipse 845" transform="translate(3531 6475.894)"/><circle cx="4.966" cy="4.966" r="4.966" data-name="Ellipse 846" transform="translate(3531 6506.401)"/><circle cx="4.966" cy="4.966" r="4.966" data-name="Ellipse 847" transform="translate(3531 6536.909)"/><circle cx="10.642" cy="10.642" r="10.642" data-name="Ellipse 848" transform="translate(3610.818 6454.61)"/><circle cx="10.642" cy="10.642" r="10.642" data-name="Ellipse 849" transform="translate(3610.818 6547.197)"/><circle cx="10.642" cy="10.642" r="10.642" data-name="Ellipse 850" transform="translate(3637.424 6470.217)"/><circle cx="10.642" cy="10.642" r="10.642" data-name="Ellipse 851" transform="translate(3637.424 6531.234)"/><circle cx="10.642" cy="10.642" r="10.642" data-name="Ellipse 852" transform="translate(3637.424 6500.725)"/></g></svg>