<svg xmlns="http://www.w3.org/2000/svg" width="400" height="400"><circle cx="200" cy="200" r="200" style="fill:#e3924e;fill-opacity:1;stroke-width:1.79451"/><path fill="#fbfbfb" fill-rule="evenodd" d="M135.319 101.584c-2.711 1.653-2.519-3.352-2.519 65.616 0 68.454-.168 63.771 2.356 65.568 1.659 1.182 22.367 1.294 24.411.132 3.055-1.736 2.833 3.42 2.833-65.708 0-67.401.154-63.182-2.376-65.311l-1.285-1.081-11.07.001c-10.273.002-11.161.058-12.35.783m52.246.128c-2.49 1.678-2.369-.458-2.262 39.762l.097 36.874 1.138 1.188c2.109 2.2 21.174 3.032 25.166 1.098 2.811-1.362 2.662.664 2.82-38.605.156-38.825.195-38.015-1.88-39.917l-1.432-1.312h-11.147c-10.941 0-11.172.017-12.5.912m52.994 64.85c-.683.303-1.628 1.093-2.1 1.756l-.859 1.205.001 62.739c.002 70.463-.268 64.361 2.912 65.87 2.151 1.02 21.433.994 23.487-.033 2.985-1.491 2.753 3.663 2.935-65.1.174-65.405.221-63.725-1.818-65.679l-1.168-1.12-11.075-.094c-8.687-.073-11.342.025-12.315.456m-52.791 52.592c-2.694 1.643-2.568-.298-2.568 39.513 0 34.049.039 36.017.731 37.308 1.43 2.666 2.205 2.825 13.776 2.825 11.345 0 12.298-.16 13.834-2.316l.859-1.207v-73.801l-1.617-1.538-1.617-1.538-11.083.001c-10.138.002-11.188.066-12.315.753"/></svg>