<svg xmlns="http://www.w3.org/2000/svg" xml:space="preserve" viewBox="0 0 256 256"><path d="M0 128c0 70.6 57.4 128 128 128s128-57.4 128-128S198.6 0 128 0 0 57.4 0 128" style="fill:#00522c"/><path d="M213.2 110.7c15.2 24.5 5.3 40 3.6 42.9-8.3 13.4-30.9 18.8-42.3 28.2-10.9 7.3-29.9 27-35.5 30.3-6 4-36.8 11.6-61.4-17.5-2.6-.4-5.1-.8-7.6-1.3-7.7-3.4-35.6-6-35.6-35.5 0-14.2 9.4-34.4 13.2-44.4 6.3-28.1 6.5-40.2 13.6-48.1 6.7-12 23.3-13.5 35.8-12.9 7.1-6.1 16.9-12.5 26.4-12.2 17.8.6 22.8 9.8 34 14.1 13 6.6 38.8 8.9 48.1 11.5 21.5 11.2 8.5 43 7.7 44.9m-127-11.4c-20.8 24.4-6.4 52.5-.5 59.6 20.1 25.3 49.1 17.8 57.5 15.2 8.4-2.7 36.7-21.8 26.6-60.1-7.7-36.4-38.5-36.6-41.8-36.6-3.3-.1-24-1.2-41.8 21.9" style="fill:#fff"/></svg>