<svg xmlns="http://www.w3.org/2000/svg" width="256" height="256"><defs><mask id="a" width="23.84" height="54.6" x="0" y="4.82" maskUnits="userSpaceOnUse"><path fill="#fff" fill-rule="evenodd" d="M23.84 59.42H0V4.82h23.84z"/></mask></defs><path fill="#fff" fill-rule="evenodd" stroke="#b0b0b0" stroke-width="13.114" d="M6.557 128c0 66.964 54.479 121.443 121.443 121.443S249.443 194.964 249.443 128 194.964 6.557 128 6.557 6.557 61.036 6.557 128Z" style="stroke:#fff;stroke-opacity:1"/><g mask="url(#a)" transform="matrix(2.88442 0 0 2.88442 24.556 30.347)"><path fill="#efe812" d="m20 8.84 3.83-4c-20.26-.65-14.36 14-21 28.87-7.6 17.14.9 23.67 13.56 25.71a27.6 27.6 0 0 1-4.28-7C3.94 42.09 7.25 23.26 20 8.84"/></g><g fill="#ede70a"><path d="M222.86 108.515a166.9 166.9 0 0 1-29.508 49.41 141.6 141.6 0 0 1-35.853 31.066 96.8 96.8 0 0 1-52.9 15.028 208 208 0 0 1-32.652-2.28 66.75 66.75 0 0 0 21.835 17.105c52.843 25.556 56.16-21.892 112.06-45.977 31.382-13.528 31.498-39.95 16.99-64.352M157.499 59.192a69.4 69.4 0 0 1 21.806 7.73 121.64 121.64 0 0 1 43.555 41.593c9.519-26.825 5.077-47.881-15.72-51.689-22.902-4.182-40.786-5.538-57.977-17.537-21.172-14.71-39.747-9.922-55.843 5.048l3.49.144c22.326 1.327 43.67 5.769 60.574 14.653"/></g><path fill="#dec21c" d="M82.244 55.846C45.468 97.439 35.92 151.753 59.602 181.549a90.46 90.46 0 0 1 5.105-80.764c19.931-33.229 59.938-47.65 92.792-41.593-17.018-9-38.363-13.326-60.573-14.653l-3.49-.173c-3.577 3.288-7.211 6.98-11.192 11.48"/><path fill="#e5cb22" d="M179.305 66.864a69.4 69.4 0 0 0-21.806-7.672c22.383 11.768 37.238 31.728 37.238 63.284a79.41 79.41 0 0 1-37.238 66.515 141 141 0 0 0 35.853-31.066 166.9 166.9 0 0 0 29.508-49.41 121.64 121.64 0 0 0-43.555-41.65"/><path fill="#cca727" d="M157.499 59.192c-32.854-6.058-72.86 8.364-92.792 41.449a90.37 90.37 0 0 0-5.105 80.908 78.7 78.7 0 0 0 12.345 20.19 208 208 0 0 0 32.652 2.28 96.8 96.8 0 0 0 52.9-15.028 79.38 79.38 0 0 0 37.238-66.515c0-31.556-14.855-51.516-37.238-63.284m-3.692 114.8a54.63 54.63 0 0 1-75.341-16.21c-16.326-25.182-8.25-57.69 16.239-74.996 27.402-19.47 62.534-11.797 75.341 16.21 12.49 27.287 9.057 58.814-16.24 74.996"/></svg>