<svg xmlns="http://www.w3.org/2000/svg" width="256" height="256" viewBox="0 0 67.733 67.733"><g transform="translate(0 -229.267)"><path d="M1.488 263.204c0 17.871 14.54 32.411 32.412 32.411s32.411-14.54 32.411-32.411-14.54-32.412-32.411-32.412-32.412 14.54-32.412 32.412" class="cls-1" style="stroke-width:.13229166;fill:#8b68ae;fill-opacity:1"/><path d="m28.528 246.372 5.684 15.762 4.496-15.865M47.7 253.4l-13.488 8.734-14.573-8.527m-.827 11.679s-4.237-2.687-3.669-6.408c.569-3.72 3.153-5.116 4.496-5.27 0 0 .517-8.63 8.889-7.236 0 0 5.684-5.684 10.18-.103 0 0 9.353-1.757 8.992 7.131 0 0 8.994 4.218 1.708 12.02l-15.452-2.738z" style="fill:none;fill-opacity:1;stroke:#fff;stroke-width:1.56500006;stroke-linecap:butt;stroke-linejoin:miter;stroke-miterlimit:4;stroke-dasharray:none;stroke-opacity:1"/><path d="M15.32 269.548s1.026 12.544 18.475 12.85c0 0 17.273.067 18.686-12.756" style="fill:#8b68ae;fill-opacity:1;stroke:#fff;stroke-width:1.95299995;stroke-linecap:round;stroke-linejoin:miter;stroke-miterlimit:4;stroke-dasharray:none;stroke-opacity:1"/><ellipse cx="33.895" cy="269.156" rx="18.471" ry="6.283" style="opacity:1;fill:#8a67ac;fill-opacity:1;fill-rule:nonzero;stroke:#fff;stroke-width:2.17054677;stroke-linecap:round;stroke-linejoin:miter;stroke-miterlimit:4;stroke-dasharray:none;stroke-dashoffset:65.67904663;stroke-opacity:1;paint-order:fill markers stroke"/><path d="M43.1 269.058s-2.325-2.325-4.599-3.979M24.549 269.058s2.067-2.273 4.65-3.772" style="fill:none;stroke:#fff;stroke-width:2.06500006;stroke-linecap:round;stroke-linejoin:miter;stroke-miterlimit:4;stroke-dasharray:none;stroke-opacity:1"/><path d="M40.45 262.96a6.703 6.703 0 0 1-6.703 6.703 6.703 6.703 0 0 1-6.703-6.702 6.703 6.703 0 0 1 6.703-6.703 6.703 6.703 0 0 1 6.703 6.703z" style="opacity:1;fill:#8b68ae;fill-opacity:1;fill-rule:nonzero;stroke:#fff;stroke-width:1.648;stroke-linecap:round;stroke-linejoin:miter;stroke-miterlimit:4;stroke-dasharray:none;stroke-dashoffset:65.67904663;stroke-opacity:1;paint-order:normal"/><circle cx="32.3" cy="261.462" r="2.678" style="opacity:1;fill:#fff;fill-opacity:1;fill-rule:nonzero;stroke:none;stroke-width:3.96287322;stroke-linecap:round;stroke-linejoin:miter;stroke-miterlimit:4;stroke-dasharray:none;stroke-dashoffset:65.67904663;stroke-opacity:1;paint-order:stroke fill markers"/></g></svg>