<svg xmlns="http://www.w3.org/2000/svg" width="236" height="236" fill="none"><g transform="scale(7.375)"><circle cx="16" cy="16" r="16" fill="#3ceaaa"/><g fill="#185e44"><g fill-rule="evenodd"><path d="M12.348 8.764a2.676 2.676 0 0 1 3.745 0l2.463 2.413a2.676 2.676 0 0 1 0 3.823l-4.293 4.205 3.078 3.016a1.486 1.486 0 1 1-2.08 2.124l-7.458-7.306a2.676 2.676 0 0 1 0-3.823zm-.209 8.36 4.119-4.035-2.038-1.997-4.12 4.035z"/><path d="M18.592 10.803a2.676 2.676 0 0 1 3.745 0l2.463 2.413a2.676 2.676 0 0 1 0 3.823l-7.458 7.306a1.485 1.485 0 1 1-2.08-2.124l3.079-3.016-2.211-2.166a2.676 2.676 0 0 1 0-3.823zm1.873 6.321 2.038-1.997-2.038-1.997-2.038 1.997z"/></g><path d="m18.425 15.133-2.165-2.056-2.077 2.04 2.114 2.103z" opacity=".95"/></g></g></svg>