<svg xmlns="http://www.w3.org/2000/svg" xmlns:xlink="http://www.w3.org/1999/xlink" width="250" height="250"><defs><linearGradient xlink:href="#a" id="c" x1="17.337" x2="80" y1="74.339" y2="74.339"><stop offset="0" stop-color="#700000"/><stop offset=".327" stop-color="#730000"/><stop offset=".59" stop-color="#7d0000"/><stop offset=".83" stop-color="#8e0000"/><stop offset="1" stop-color="#9f0000"/></linearGradient><linearGradient xlink:href="#a" id="d" x1="48.669" x2="48.669" y1="68.69" y2="80"><stop offset=".35" stop-color="#cf2000"/><stop offset=".645" stop-color="#cd1f00"/><stop offset=".752" stop-color="#c61d00"/><stop offset=".828" stop-color="#bb1900"/><stop offset=".889" stop-color="#aa1300"/><stop offset=".941" stop-color="#940c00"/><stop offset=".987" stop-color="#790300"/><stop offset="1" stop-color="#700000"/></linearGradient><linearGradient xlink:href="#a" id="e" x1="17.337" x2="80" y1="50.108" y2="50.108"><stop offset="0" stop-color="#0050cf"/><stop offset=".021" stop-color="#0252d1"/><stop offset=".244" stop-color="#1363e2"/><stop offset=".487" stop-color="#1d6dec"/><stop offset=".791" stop-color="#2070ef"/><stop offset=".841" stop-color="#1e6dec"/><stop offset=".882" stop-color="#1963e2"/><stop offset=".919" stop-color="#1152d1"/><stop offset=".954" stop-color="#053ab9"/><stop offset=".966" stop-color="#0030af"/><stop offset="1" stop-color="#2070ef"/></linearGradient><linearGradient xlink:href="#a" id="f" x1="17.337" x2="80" y1="65.759" y2="65.759"><stop offset="0" stop-color="#cf2000"/><stop offset=".021" stop-color="#d12201"/><stop offset=".244" stop-color="#e23309"/><stop offset=".487" stop-color="#ec3d0e"/><stop offset=".791" stop-color="#ef4010"/><stop offset=".841" stop-color="#ec3d0f"/><stop offset=".882" stop-color="#e2330d"/><stop offset=".919" stop-color="#d12208"/><stop offset=".954" stop-color="#b90a03"/><stop offset=".966" stop-color="#af0000"/><stop offset="1" stop-color="#ef4010"/></linearGradient><linearGradient xlink:href="#a" id="g" x1="17.337" x2="80" y1="58.727" y2="58.727"><stop offset="0" stop-color="#dfdfdf"/><stop offset=".021" stop-color="#e1e1e1"/><stop offset=".244" stop-color="#f2f2f2"/><stop offset=".487" stop-color="#fcfcfc"/><stop offset=".791" stop-color="#fff"/><stop offset=".841" stop-color="#fcfcfc"/><stop offset=".882" stop-color="#f2f2f2"/><stop offset=".919" stop-color="#e1e1e1"/><stop offset=".954" stop-color="#c9c9c9"/><stop offset=".966" stop-color="#bfbfbf"/><stop offset="1" stop-color="#fff"/></linearGradient><linearGradient xlink:href="#a" id="b" x1="17.337" x2="80.001" y1="58.261" y2="58.261"><stop offset="0" stop-color="#fbbf00"/><stop offset=".021" stop-color="#fbc102"/><stop offset=".244" stop-color="#fdd213"/><stop offset=".487" stop-color="#ffdc1d"/><stop offset=".791" stop-color="#ffdf20"/><stop offset=".841" stop-color="#fddc1e"/><stop offset=".882" stop-color="#f8d219"/><stop offset=".919" stop-color="#eec111"/><stop offset=".954" stop-color="#e1a905"/><stop offset=".966" stop-color="#db9f00"/><stop offset="1" stop-color="#ffdf20"/></linearGradient><linearGradient xlink:href="#b" id="i" x1="17.335" x2="80.002" y1="56.33" y2="56.33"/><linearGradient xlink:href="#b" id="j" x2="80.003" y1="73.695" y2="73.695"/><linearGradient xlink:href="#b" id="k" x2="80.002" y1="43.75" y2="43.75"/><linearGradient xlink:href="#b" id="h"/><linearGradient id="a" gradientUnits="userSpaceOnUse"/></defs><circle cx="125" cy="125" r="125" fill="#cdcdcd" fill-rule="evenodd"/><path fill="#0e3ca5" d="M105.682 164.866c4.822 17.889 22.121 31.535 30.858 30.97.306-.02 33.136-6.158 51.108-36.261 13.982-23.432 9.223-46.052-9.798-46.547-6.844.502-81.35 17.765-72.163 51.843m70.39-114.891-.02-.017.026-.017a83.48 83.71 0 0 0-87.992-12.73 48.784 48.918 0 0 0-5.303 2.598c-1.172.624-2.344 1.248-3.482 1.934l.278.085a37.99 38.096 0 0 0-8.812 8.364C46.83 81.933 127.14 105.01 170.085 105.08c19.747 14.222 25.292-40.034 5.991-55.1"/><path fill="#5493f7" d="M92.942 50.618c-11.034 16.634-47.786 28.351-53.83 26.526l-.04-.078c.24-.5.498-1 .754-1.496A88.431 88.675 0 0 1 66.03 44.91q3.392-2.49 7.023-4.663a26.036 26.108 0 0 1 12.15-3.244c16.367.314 7.82 13.489 7.731 13.622m-9.047 117.512c.793 5.224-.02 25.866-1.085 27.602-.918.055-2.83.174-8.368-2.942A88.091 88.334 0 0 1 34.491 88.23q.44-1.332.923-2.642c6.343 8.46 13.683 16.114 19.922 24.657 5.943 8.135 14.118 21.399 15.781 24.232 10.328 17.592 11.974 28.446 12.763 33.662m122.1-52.01a87.751 87.993 0 0 1-6.127 32.393c-10.366 11.169-80.237-16.324-80.921-16.624-9.559-4.197-38.647-16.978-41.272-37.042-3.763-28.885 54.65-49.008 80.324-49.77 3.078.037 12.446.146 17.909 4.594a87.787 88.03 0 0 1 30.086 66.45m-47.301 78.243c-7.616 3.566-16.003.967-13.823-6.469 4.182-14.284 40.707-28.929 48.774-29.712.995-.1 1.417.58.976 1.356a88.87 89.115 0 0 1-35.92 34.835"/><path fill="url(#c)" d="M17.337 77.255a2.55 2.55 0 0 0 2.329 2.713c30.7.211 60.334-1.2 60.334-5.8 0-13.924-62.663 3.087-62.663 3.087" transform="matrix(2.41075 0 0 2.4174 27.128 21.609)"/><path fill="url(#d)" d="M17.337 77.255a2.55 2.55 0 0 0 2.34 2.713c30.691.233 60.285-.731 60.323-5.8 0-13.924-62.663 3.087-62.663 3.087m2.342 2.537a2 2 0 0 1-.245-.015 2.4 2.4 0 0 1-1.987-1.763 2.37 2.37 0 0 0 2.228 1.763c30.671-.194 59.844-9.637 59.844-5.479 0 4.244-29.171 5.702-59.84 5.494" transform="matrix(2.41075 0 0 2.4174 27.128 21.609)"/><path fill="url(#e)" d="M19.681 37.824a2.343 2.343 0 0 0-2.344 2.343v29.017q1.8 0 3.511-.039t3.356-.1q1.639-.063 3.216-.148t3.1-.2l2.986-.249 2.9-.276 2.825-.3 2.762-.327 2.728-.349 2.7-.376 2.683-.408 2.7-.421 2.719-.44 2.752-.472 2.814-.483 2.884-.5 2.967-.515 3.074-.494 3.3-.463a24.3 24.3 0 0 1 4.28-.229c1.346.092 2.411.433 2.411 1.37V32.4c.032-4.966-29.631 5.194-60.324 5.424" transform="matrix(2.41075 0 0 2.4174 27.128 21.609)"/><path fill="url(#f)" d="M19.666 79.6C50.364 79.37 80.037 69.21 80 74.17V53.318c0-.937-1.065-1.281-2.41-1.37a24.3 24.3 0 0 0-4.28.227c-1.307.161-2.258.306-3.3.465l-3.072.492-2.968.517-2.884.5-2.814.483-2.75.473-2.718.439-2.7.42-2.68.409-2.7.376a289 289 0 0 1-5.491.676l-2.825.3-2.9.277a169 169 0 0 1-9.301.596 182 182 0 0 1-6.868.14v18.51a2.34 2.34 0 0 0 2.327 2.352" transform="matrix(2.41075 0 0 2.4174 27.128 21.609)"/><path fill="url(#g)" d="M23.582 75.922a293 293 0 0 0 8.134-5.138l2.525-1.684 2.517-1.691 2.536-1.728 2.59-1.8 2.7-1.893 2.83-2.022 3-2.19 3.23-2.362q-1.674-.7-3.229-1.354a289 289 0 0 1-5.83-2.512l-2.7-1.2-2.589-1.186-2.535-1.188-2.519-1.2-2.534-1.234-2.6-1.3-2.7-1.392-2.83-1.513-3.014-1.645a246 246 0 0 1-2.36-1.326 2.33 2.33 0 0 0-.875 1.812v37.079a2.33 2.33 0 0 0 .915 1.845l2.315-1.36q1.567-.928 3.023-1.818" transform="matrix(2.41075 0 0 2.4174 27.128 21.609)"/><path fill="url(#h)" d="m36.394 57.047-1.854.384a5 5 0 0 0-.049-.318l1.677-.437 1.678-.446-.625-.443-2.818.975a3.8 3.8 0 0 0-.373-.853l2.5-1.7.087-.8-1.393 1.109-1.392 1.1a3 3 0 0 0-.2-.245l1.454-1.294 1.456-1.3.081-1.312-1.319.2-1.165 1.561-1.162 1.557a4 4 0 0 0-.263-.173l.989-1.463.991-1.468-.8.157-1.493 2.609a4 4 0 0 0-.895-.288l.732-2.859-.5-.582-.295 1.693-.3 1.692a6 6 0 0 0-.326-.025l.207-1.859.208-1.859-.869-.913-.881 1.041.207 1.832.206 1.832-.325.072-.275-1.652-.276-1.654-.51.657.7 2.761a4.6 4.6 0 0 0-.893.428l-1.467-2.41-.8-.048.977 1.339.974 1.333a4 4 0 0 0-.265.213l-1.162-1.389-1.161-1.395-1.307-.027.071 1.31a304 304 0 0 0 2.911 2.188 6 6 0 0 0-.2.272 274 274 0 0 1-2.758-1.852l.081.8 2.485 1.382a4.3 4.3 0 0 0-.364.91 195 195 0 0 1-2.806-.614l-.625.522 1.673.233 1.673.221-.05.328-1.849-.127-1.848-.142-.983.894.983.849a251 251 0 0 0 3.702-.556l.05.322-1.676.346-1.675.336.624.488 2.814-.816a4 4 0 0 0 .373.871l-2.5 1.57-.086.8 1.39-1.028 1.393-1.038q.092.132.2.253l-1.454 1.229-1.455 1.218-.08 1.307 1.315-.125 1.166-1.506 1.174-1.525.264.18-.992 1.431-.99 1.425.8-.12 1.495-2.564a4 4 0 0 0 .9.306l-.733 2.846.5.591.294-1.689.3-1.689a3 3 0 0 0 .326.028l-.208 1.857-.208 1.859.869.916.88-1.045-.207-1.831-.206-1.83.324-.074.277 1.648.275 1.649.509-.664-.7-2.75a4.4 4.4 0 0 0 .892-.445l1.466 2.365.8.011-.976-1.3-.973-1.3.265-.221 1.161 1.346 1.161 1.34 1.31-.05-.073-1.3-1.463-1.016-1.455-1.025.2-.28 1.379.859 1.383.851-.082-.793-2.486-1.249a4.7 4.7 0 0 0 .363-.928l2.809.455.625-.566-1.675-.122-1.675-.133.05-.33 1.851.028 1.851.014.98-.974-.98-.768z" transform="matrix(2.41075 0 0 2.4174 27.128 21.609)"/><path fill="url(#i)" d="m47.718 55.764.008-1.873-1.089 1.679-1.781-.341 1.112 1.355-1.11 1.659 1.78-.834 1.092 1.359-.011-1.868 1.777-.84z" transform="matrix(2.41075 0 0 2.4174 27.128 21.609)"/><path fill="url(#j)" d="m21.131 73-.753-1.7-.382 1.839-1.87.2 1.63.912-.4 1.833 1.391-1.283 1.619.9-.77-1.683 1.4-1.285z" transform="matrix(2.41075 0 0 2.4174 27.128 21.609)"/><path fill="url(#k)" d="m20 44.3.382 1.823.753-1.73 1.868.151a227 227 0 0 1-1.4-1.2l.772-1.727-1.621.986-1.392-1.232.4 1.821-1.632.946z" transform="matrix(2.41075 0 0 2.4174 27.128 21.609)"/></svg>