<svg xmlns="http://www.w3.org/2000/svg" xml:space="preserve" id="Po.et" x="0" y="0" version="1.1" viewBox="0 0 245 245"><style>.st3{fill:none;stroke:#fff;stroke-width:8}</style><path id="Main" d="M0 122.5C0 190 55 245 122.5 245S245 190 245 122.5 190 0 122.5 0 0 55 0 122.5" style="fill:#43b880"/><g id="Po.et-2"><path id="Middle" d="M47.5 194.5h12l112-112c3.5-4.3-2.2-9.8-6.5-5.5z" style="fill:#fff"/><path id="Outer" d="m72.5 175 .5-40s58.3-57.8 74-73.5c9.2-9.2 28.3-8.8 38.5 3 10.6 11.3 9.3 28.2 1 36.5l-74 74z" style="fill:none;stroke:#fff;stroke-width:8;stroke-linecap:round;stroke-linejoin:round"/><path id="Top_Line" d="M144 65v38h39.5" class="st3"/><path id="Middle_Line" d="M120 89.5v38h39.5" class="st3"/><path id="Bottom_Line" d="M95.5 114v38H135" class="st3"/></g></svg>