<svg xmlns="http://www.w3.org/2000/svg" xml:space="preserve" viewBox="0 0 245 245"><path d="M0 122.5C0 190 55 245 122.5 245S245 190 245 122.5 190 0 122.5 0 0 55 0 122.5" style="fill:#252e6a"/><path d="m52.5 176.5 10-2.5-1.5-6.5 8-17 16.5-6.5 6-10.5 10.5-8 20.5 3.5 21-9.5-3.5 15h-9.5L128 147l8.5-5.5L149 136l10.5-16.5.5-7.5 5.5 5.5 16 10.5 10-4.5L190 101l-2.5-7.5 12-3 8-10.5v-5.5l-2 4.5-9.5 8.5-11 1.5-3-3 9.5-13.5 11.5-3-12.5.5L175 81l-14-1-20.5-11-11.5 2.5-37.5 32-18 5.5-7.5 8.5H52.5L46 130l-8.5 2.5 8 1.5 8.5-11.5 12 3V137l-6 16.5-3.5 16z" style="fill:#fff"/></svg>