<svg xmlns="http://www.w3.org/2000/svg" xml:space="preserve" id="Lager_1" x="0" y="0" version="1.1" viewBox="0 0 256 256"><style>.st1{fill:#fff}.st2{font-family:&quot;CourierNewPS-BoldMT&quot;}.st3{font-size:10.449px}.st4{letter-spacing:1}</style><g id="PORLOGO"><g id="POR"><path id="Full" d="M0 128c0 70.6 57.4 128 128 128s128-57.4 128-128S198.6 0 128 0 0 57.4 0 128" style="fill:#101010"/><text class="st1 st2 st3 st4" transform="translate(52.245 53.813)">  </text><text class="st1 st2 st3 st4" transform="translate(67.189 53.813)">0000000019d6689c</text><text class="st1 st2 st3 st4" transform="translate(186.742 53.813)"> </text><text class="st1 st2 st3 st4" transform="translate(52.245 65.829)"> </text><text class="st1 st2 st3 st4" transform="translate(59.717 65.829)">00000000019d6689c08</text><text class="st1 st2 st3 st4" transform="translate(201.685 65.829)"> </text><text class="st1 st2 st3 st4" transform="translate(52.245 77.845)">000000000019d6689c085</text><text class="st1 st2 st3 st4" transform="translate(209.158 77.845)"> </text><text class="st1 st2 st3 st4" transform="translate(52.245 89.861)">00000</text><text class="st1 st2 st3 st4" transform="translate(89.605 89.861)">           </text><text class="st1 st2 st3 st4" transform="translate(171.798 89.861)">9c085</text><text class="st1 st2 st3 st4" transform="translate(209.158 89.861)"> </text><text class="st1 st2 st3 st4" transform="translate(52.245 101.878)">00000</text><text class="st1 st2 st3 st4" transform="translate(89.605 101.878)">            </text><text class="st1 st2 st3 st4" transform="translate(179.27 101.878)">c085</text><text class="st1 st2 st3 st4" transform="translate(209.158 101.878)"> </text><text class="st1 st2 st3 st4" transform="translate(52.245 113.894)">00000</text><text class="st1 st2 st3 st4" transform="translate(89.605 113.894)">            </text><text class="st1 st2 st3 st4" transform="translate(179.27 113.894)">c085</text><text class="st1 st2 st3 st4" transform="translate(209.158 113.894)"> </text><text class="st1 st2 st3 st4" transform="translate(52.245 125.91)">00000</text><text class="st1 st2 st3 st4" transform="translate(89.605 125.91)">           </text><text class="st1 st2 st3 st4" transform="translate(171.798 125.91)">9c085</text><text class="st1 st2 st3 st4" transform="translate(209.158 125.91)"> </text><text class="st1 st2 st3 st4" transform="translate(52.245 137.927)">00000</text><text class="st1 st2 st3 st4" transform="translate(89.605 137.927)">    </text><text class="st1 st2 st3 st4" transform="translate(119.493 137.927)">019d6689c085</text><text class="st1 st2 st3 st4" transform="translate(209.158 137.927)"> </text><text class="st1 st2 st3 st4" transform="translate(52.245 149.943)">00000</text><text class="st1 st2 st3 st4" transform="translate(89.605 149.943)">   </text><text class="st1 st2 st3 st4" transform="translate(112.022 149.943)">0019d6689c085</text><text class="st1 st2 st3 st4" transform="translate(209.158 149.943)"> </text><text class="st1 st2 st3 st4" transform="translate(52.245 161.959)">00000</text><text class="st1 st2 st3 st4" transform="translate(89.605 161.959)">  </text><text class="st1 st2 st3 st4" transform="translate(104.549 161.959)">00019d6689c</text><text class="st1 st2 st3 st4" transform="translate(186.742 161.959)"> </text><text class="st1 st2 st3 st4" transform="translate(52.245 173.976)">00000</text><text class="st1 st2 st3 st4" transform="translate(89.605 173.976)"> </text><text class="st1 st2 st3 st4" transform="translate(52.245 185.992)">00000</text><text class="st1 st2 st3 st4" transform="translate(89.605 185.992)"> </text><text class="st1 st2 st3 st4" transform="translate(52.245 198.008)">00000</text><text class="st1 st2 st3 st4" transform="translate(89.605 198.008)"> </text><text class="st1 st2 st3 st4" transform="translate(52.245 210.024)">00000</text></g></g></svg>