<svg xmlns="http://www.w3.org/2000/svg" xml:space="preserve" id="Portfolio_Tracker" x="0" y="0" version="1.1" viewBox="0 0 457 457"><style>.st2{fill:#232220}</style><circle id="Main" cx="228.5" cy="228.5" r="228.5" style="fill:#fff"/><circle id="Pie" cx="229" cy="229" r="130.2" style="fill:none;stroke:#232220;stroke-width:10;stroke-linecap:round;stroke-linejoin:round"/><path id="PieLine" d="M224.4 96.9h10.1v134h-10.1z" class="st2"/><path id="PieLine2" d="M234.2 223.5v10.1h-134v-10.1z" class="st2"/><path id="PieLine3" d="m232.5 227.8-8.8 5.1-67-116 8.8-5.1z" class="st2"/><path id="Line1" d="m194.6 310.5-7.2-6.9 42-44 7.2 6.9z"/><path id="Line2" d="m224.5 269.5 7.1-7.1 22 22-7.1 7.1z"/><path id="Line3" d="m251.5 286.5-7.1-7.1 54-54 7.1 7.1z"/><path id="Arrow" d="m269.1 268 37.8-37.8-.1 28.5 10.1-10.1.1-35.6-35.6.1-10.1 10.1 28.5-.1-37.8 37.8z"/></svg>