<svg xmlns="http://www.w3.org/2000/svg" width="250" height="250" fill="none"><circle cx="125" cy="125" r="125" fill="#1f2242"/><g clip-path="url(#a)" transform="translate(60 50)scale(6.34118)"><path fill="url(#b)" d="m11.598 1.559-5.203.048L6.898 0 0 4.838l4.634 4.914.427-1.354c.077-.315.329-.53.644-.53l4.704.013a.674.674 0 0 0 .659-.528l.331-1.496 4.636 4.906-6.901 4.816.004-.013.769-2.365h-4.56a2.51 2.51 0 0 0-2.391 1.737L.028 23.95h6.384l1.15-3.541a.71.71 0 0 1 .675-.491h3.36a9.18 9.18 0 0 0 9.18-9.179 9.18 9.18 0 0 0-9.179-9.18"/></g><defs><linearGradient id="b" x1="10.389" x2="10.389" y1="0" y2="23.95" gradientUnits="userSpaceOnUse"><stop stop-color="#826df9"/><stop offset=".283" stop-color="#7f6df9"/><stop offset=".523" stop-color="#746ffa"/><stop offset=".749" stop-color="#6371fc"/><stop offset=".964" stop-color="#4a74ff"/><stop offset="1" stop-color="#4575ff"/></linearGradient><clipPath id="a"><path fill="#fff" d="M0 0h60v23.95H0z"/></clipPath></defs></svg>