<svg xmlns="http://www.w3.org/2000/svg" xml:space="preserve" viewBox="0 0 245 245"><path d="M0 122.5C0 190 55 245 122.5 245S245 190 245 122.5 190 0 122.5 0 0 55 0 122.5" style="fill:#00cdd7"/><path d="m163.2 52.7 10 37.2-37.2 10-10-37.2z" style="opacity:.2;fill:#fff"/><path d="m192.9 82.4-10 37.2-37.2-10 10-37.2z" style="opacity:.25;fill:#fff"/><path d="m204.1 122.5-27.2 27.2-27.2-27.2 27.2-27.2z" style="opacity:.3;fill:#fff"/><path d="m192.9 163.4-37.2 10-10-37.2 37.2-10z" style="opacity:.35;fill:#fff"/><path d="m163.4 193.1-37.2-10 10-37.2 37.2 10z" style="opacity:.4;fill:#fff"/><path d="M122.5 204.2 95.3 177l27.2-27.2 27.2 27.2z" style="opacity:.45;fill:#fff"/><path d="m82.6 193.1-10-37.2 37.2-10 10 37.2z" style="opacity:.55;fill:#fff"/><path d="m52.2 163.4 10-37.2 37.2 10-10 37.2z" style="opacity:.6;fill:#fff"/><path d="m41.6 122.5 27.2-27.2L96 122.5l-27.2 27.2z" style="opacity:.65;fill:#fff"/><path d="m52.2 82.4 37.2-10 10 37.2-37.2 10z" style="opacity:.7;fill:#fff"/><path d="m81.6 52.7 37.2 10-10 37.2-37.2-10z" style="opacity:.75;fill:#fff"/><path d="m122.5 41.5 27.2 27.2L122.5 96 95.3 68.8z" style="opacity:.8;fill:#fff"/></svg>