<svg xmlns="http://www.w3.org/2000/svg" xml:space="preserve" viewBox="0 0 490 490"><path d="M0 245c0 135.1 109.9 245 245 245s245-109.9 245-245S380.1 0 245 0 0 109.9 0 245" style="fill:#5ca0f6"/><path d="M269.5 106c.1 18.4-14.7 33.3-33 33.5-18.4.1-33.3-14.7-33.5-33-.1-18.4 14.7-33.3 33-33.5h.2c18.3-.1 33.2 14.7 33.3 33M156 341.2h43V160.5h-3.9c-21.5-.1-39.1 17.3-39.1 38.9zM257.7 417h-43V158.5h66.5c29.1-.1 52.7 23.4 52.8 52.5v77.7c-.1 29.1-23.8 52.5-52.8 52.5h-23.5zm0-118.6h23.5c5.4 0 9.8-4.3 9.8-9.7V211c0-5.4-4.4-9.7-9.8-9.7h-23.5z" style="fill:#fff"/></svg>