<svg xmlns="http://www.w3.org/2000/svg" width="245" height="245"><path fill="#2d8eff" d="M0 122.5C0 190 55 245 122.5 245S245 190 245 122.5 190 0 122.5 0 0 55 0 122.5"/><g fill="#fff" data-name="Group 9113"><path d="M103.37 137.515h12.44a24 24 0 0 0 10.282-2.327 25.7 25.7 0 0 0 8-6.135 28.4 28.4 0 0 0 5.077-8.928 29.4 29.4 0 0 0 1.862-10.324 25.6 25.6 0 0 0-1.989-9.986 31 31 0 0 0-5.377-8.758 26.8 26.8 0 0 0-8.166-6.3 22.1 22.1 0 0 0-10.324-2.459h-32.75v79.5h21.156Zm0-36.008h10.578a5.67 5.67 0 0 1 3.85 1.862 9.3 9.3 0 0 1 1.989 6.728 8.97 8.97 0 0 1-1.819 6.474 4.74 4.74 0 0 1-3.554 1.862H103.37Z" data-name="Path 472478"/><path d="M55.472 63.13v117.967a7.66 7.66 0 0 0 7.658 7.658h117.967a7.66 7.66 0 0 0 7.658-7.658V63.13a7.66 7.66 0 0 0-7.658-7.658H63.13a7.66 7.66 0 0 0-7.658 7.658m110.012 110.012H78.659a7.66 7.66 0 0 1-7.658-7.658V78.659a7.66 7.66 0 0 1 7.658-7.658h86.824a7.66 7.66 0 0 1 7.658 7.658v86.824a7.66 7.66 0 0 1-7.658 7.574Z" data-name="Path 472479"/><path d="M112.72 146.866h49.04v15.063h-49.04z" data-name="Rectangle 848"/></g></svg>