<svg xmlns="http://www.w3.org/2000/svg" xml:space="preserve" viewBox="0 0 245 245"><path d="M0 122.5C0 190 55 245 122.5 245S245 190 245 122.5 190 0 122.5 0 0 55 0 122.5" style="fill:#1348e8"/><path d="M116.8 80.9h11.5c12.4 0 22.5 10.1 22.5 22.5v32.2c0 12.4-10.1 22.5-22.5 22.5h-11.5c-12.4 0-22.5-10.1-22.5-22.5v-32.2c0-12.4 10-22.5 22.5-22.5m14.7 64.1 19.5 19.5" style="fill:none;stroke:#fff;stroke-width:7;stroke-linecap:round;stroke-linejoin:round"/><path d="M122.5 35c48.3 0 87.5 39.2 87.5 87.5S170.8 210 122.5 210 35 170.8 35 122.5 74.2 35 122.5 35m.3 9.8c43 0 77.9 34.9 77.9 77.9s-34.9 77.9-77.9 77.9-77.9-34.9-77.9-77.9c-.1-43 34.8-77.9 77.9-77.9" style="fill:none;stroke:#fff;stroke-width:3;stroke-linecap:round;stroke-linejoin:round"/><circle cx="122.5" cy="122.5" r="82.3" style="fill:none;stroke:#fff;stroke-width:10;stroke-dasharray:12.122,4.0407"/></svg>