<svg xmlns="http://www.w3.org/2000/svg" xmlns:xlink="http://www.w3.org/1999/xlink" width="1400" height="1400"><defs><linearGradient id="a" x1="932.4" x2="1597.81" y1="1593.87" y2="999.4" gradientUnits="userSpaceOnUse"><stop offset=".35" stop-color="#00b2ec"/><stop offset=".43" stop-color="#2ec0ef"/><stop offset=".55" stop-color="#6dd3f4"/><stop offset=".66" stop-color="#a1e3f8"/><stop offset=".77" stop-color="#caeffb"/><stop offset=".86" stop-color="#e7f8fd"/><stop offset=".94" stop-color="#f9fdff"/><stop offset="1" stop-color="#fff"/></linearGradient><linearGradient xlink:href="#a" id="c" x1="951.93" x2="1617.34" y1="1615.73" y2="1021.26"/><linearGradient xlink:href="#a" id="d" x1="1158.13" x2="1158.64" y1="1368.02" y2="1367.57"/><linearGradient xlink:href="#a" id="b" x1="932.4" x2="1597.81" y1="1593.87" y2="999.4" gradientUnits="userSpaceOnUse"/></defs><g data-name="Layer 1" transform="translate(-300.82 -300.82)"><circle cx="1000.82" cy="1000.82" r="700" fill="#fff"/><path fill="none" d="M1193 1403.53q1.89 1.47 3.89 3-2-1.48-3.89-3M1205.5 1412.51q-4.5-3-8.57-6 4.07 3 8.57 6"/><path fill="url(#a)" d="m1163.85 1375.14-5.46-7.34za174 174 0 0 0 18.61 19.51 174 174 0 0 1-18.61-19.51" style="fill:url(#b)"/><path fill="url(#c)" d="M1189.26 1400.5q1.83 1.5 3.78 3-1.95-1.5-3.78-3" style="fill:url(#c)"/><path d="M1001.89 1267.47h-.91a267.17 267.17 0 0 1-199-89c-98-109.66-88.45-278.57 21.2-376.53a266.15 266.15 0 0 1 177.52-67.81 267.12 267.12 0 0 1 199 89c65.89 73.75 83.08 174.3 54 262.05l119.84 161c108.75-164.9 97.84-388.41-40-542.66-88.13-98.65-210.22-148.92-332.85-148.91a444.5 444.5 0 0 0-297.1 113.51C519.85 832.28 504 1114.31 668.13 1298.06 756.26 1396.71 878.35 1447 1001 1447a446.7 446.7 0 0 0 123.32-17.42c-4.62-4.9-122.43-162.11-122.43-162.11"/><path fill="url(#d)" d="M1158.38 1367.8h.01z" style="fill:url(#d)"/><path fill="#00b2ec" d="M1441 1446.07 1287.65 1240l-82.64-111-5.46-7.35c-1.38-1.7-3.11-3.71-5-5.83a178 178 0 0 0-13.6-13.67q-3.18-2.88-6.8-5.86-1.83-1.5-3.78-3l-3.9-3q-4.05-3-8.56-6c-27.05-18-66.28-34.46-119-34.46H922.39l.42.57-.42.32 153.36 206.09 82.63 111.06 5.46 7.34c1.37 1.7 3.11 3.71 5 5.84a180 180 0 0 0 13.6 13.67c2.12 1.91 4.39 3.87 6.8 5.85q1.83 1.5 3.78 3t3.89 3q4.07 3 8.57 6c27 17.94 66.27 34.45 119 34.45H1441l-.42-.57z"/></g></svg>