<svg xmlns="http://www.w3.org/2000/svg" xml:space="preserve" viewBox="0 0 490 490"><path d="M0 245c0 135.1 109.9 245 245 245s245-109.9 245-245S380.1 0 245 0 0 109.9 0 245" style="fill:#4d3d9d"/><path d="M245 358.1c7.6-.2 13.6-6.5 13.5-14.1-.2-7.4-6.1-13.3-13.5-13.5-47.2-.1-85.5-38.3-85.5-85.6.1-7.6-6.1-13.8-13.7-13.9s-13.8 6.1-13.9 13.7v.2c-.1 62.5 50.6 113.2 113.1 113.2m0-226.2c-7.6.2-13.6 6.5-13.5 14.1.2 7.4 6.1 13.3 13.5 13.5 47.2.1 85.5 38.3 85.5 85.6 0 7.6 6.2 13.8 13.8 13.8s13.8-6.2 13.8-13.8c.1-62.5-50.6-113.2-113.1-113.2m0 52.9c33.3 0 60.2 27 60.2 60.3 0 7.6-6.2 13.8-13.8 13.8s-13.8-6.2-13.8-13.8c-.1-18-14.8-32.6-32.8-32.5s-32.6 14.8-32.5 32.8 14.7 32.5 32.6 32.5c7.6.2 13.6 6.5 13.5 14.1-.2 7.4-6.1 13.3-13.5 13.5-33.3 0-60.3-27.1-60.3-60.4s27.1-60.4 60.4-60.3m56.2 116.4c5.4-5.4 5.4-14.1 0-19.5l-.2-.2c-5.4-5.4-14.1-5.4-19.5 0s-5.4 14.1 0 19.5l.2.2c5.3 5.4 14 5.4 19.5 0-.1.1 0 0 0 0M245 80c-7.6.2-13.6 6.5-13.4 14.1.2 7.3 6.1 13.3 13.4 13.4 75.9.1 137.4 61.6 137.4 137.5 0 7.6 6.2 13.8 13.8 13.8S410 252.6 410 245c-.1-91.1-73.9-164.9-165-165m0 330c7.6-.2 13.6-6.5 13.4-14.1-.2-7.3-6.1-13.3-13.4-13.4-75.9-.1-137.4-61.6-137.4-137.5 0-7.6-6.2-13.8-13.8-13.7S80 237.4 80 245c0 91.2 73.9 165 165 165" style="fill:#fff"/></svg>