<svg xmlns="http://www.w3.org/2000/svg" width="256" height="256" viewBox="0 0 67.733 67.733"><g transform="translate(0 -229.267)"><circle cx="33.867" cy="-263.133" r="32.411" style="opacity:1;fill:#030303;fill-opacity:1;fill-rule:nonzero;stroke:none;stroke-width:3.70443511;stroke-linecap:round;stroke-linejoin:round;stroke-miterlimit:4;stroke-dasharray:none;stroke-dashoffset:0;stroke-opacity:1;paint-order:stroke fill markers" transform="scale(1 -1)"/><path d="M16.806 268.887v3.788l3.28-1.89v-3.795z" style="fill:#fff;stroke-width:.37897032" transform="matrix(2.61886 0 0 2.61886 -1.544 -446.006)"/><path d="m20.086 274.573-3.28-1.898-.565 3.601 3.845 2.085zM14.157 266.613l-.632-3.411-6.569 3.788 3.281 1.898zM14.157 274.95l-4.548-2.653-2.653 2.276 3.281 1.897 3.288 1.89z" style="fill:#fff;stroke-width:.37897032" transform="matrix(2.61886 0 0 2.61886 -1.544 -446.006)"/><path d="M6.956 266.99v7.583l3.281-1.898v-4.167zM16.805 272.675l-3.28 1.898v3.788l3.28-1.89zM17.189 269.265l2.897-2.275-3.28-1.89-3.282-1.898v3.788z" style="fill:#fff;stroke-width:.37897032" transform="matrix(2.61886 0 0 2.61886 -1.544 -446.006)"/></g></svg>