<svg xmlns="http://www.w3.org/2000/svg" xml:space="preserve" viewBox="0 0 490 490"><path d="M0 245c0 135.1 109.9 245 245 245s245-109.9 245-245S380.1 0 245 0 0 109.9 0 245" style="fill:#4cbbfd"/><path d="M361.1 245c0-22.4-6.5-44.4-18.8-63.1l45.5-45.5-34.2-34.2-45.5 45.5c-38.4-25-87.9-25-126.3 0l-45.6-45.5-34.2 34.2 45.5 45.5c-25 38.4-25 87.9 0 126.3L102 353.8l34.2 34.2 45.5-45.5c38.4 25 87.9 25 126.3 0l45.5 45.5 34.2-34.2-45.5-45.5c12.4-18.9 19-40.8 18.9-63.3m-183.8 0c-.1-37.4 30.2-67.8 67.6-67.8 37.4-.1 67.8 30.2 67.8 67.6 0 9.6-2 19.1-5.9 27.8l-44.7-44.7-34.2 34.2 44.7 44.7c-34.1 15.3-74.1.1-89.4-34-3.9-8.7-5.9-18.2-5.9-27.8" style="fill:#fff"/></svg>