<svg xmlns="http://www.w3.org/2000/svg" width="382.606" height="382.595"><g fill-rule="evenodd"><path fill="#1b245b" d="M262.955 20.096c-3.132 12.546-15.613 35.571-22.812 42.086-1.494 1.352-.85 1.347 3.685-.029 2.475-.752 4.945-1.484 5.489-1.627l.989-.26-.758 1.164c-8.874 13.651-28.54 29.605-42.475 34.456-1.087.38-1.376.804-2.156 3.174-1.943 5.907-5.15 11.33-9.145 15.468l-2.638 2.733 2.069-.816c44.19-17.418 66.168-47.352 68.392-93.149.28-5.783.158-6.396-.64-3.2m-74.618 74.56c-.875.76-3.79 2.465-6.477 3.79l-4.887 2.407-.646 1.946c-.945 2.845-3.318 6.28-6.135 8.88-3.863 3.567-6.402 4.807-16.064 7.851-1.983.624 6.414.18 10.265-.544 11.893-2.234 20.162-9.429 24.37-21.206 1.667-4.662 1.633-4.912-.426-3.124m58.79 29.487c15.677 3.093 30.274 9.047 42.574 17.367 2.97 2.01 4.247 2.627 6 2.905 13.666 2.17 17.853 3.096 25.627 5.676 2.75.912 7.245 2.794 9.99 4.182s5.068 2.523 5.163 2.523c.174 0-1.56-1.33-9.966-7.646-9.268-6.963-17.846-12.375-28.252-17.822-6.578-3.443-6.34-3.647-2.776 2.38 2.459 4.156 2.488 4.137-2.66 1.715-14.498-6.823-31.593-11.258-46.3-12.01l-4.2-.216zm-67.586 19.961c4.07 2.225 7.37 4.331 10.257 6.548 1.248.96 2.43 1.744 2.626 1.744.594 0 7.454 7.224 9.443 9.944 2.944 4.025 2.786 4.165-2.94 2.604-38.626-10.53-76.966-5.695-106.065 13.378-6.07 3.98-6.01 3.862-3.587 6.77 7.796 9.361 19.939 15.131 35.253 16.752l2.6.276-1.407-1.562c-7.385-8.198-3.54-15.609 9.807-18.902 20.344-5.019 56.882.58 65.786 10.08 36.869 39.336-24.968 93.36-88.201 77.056-31.691-8.17-58.333-33.359-75.043-70.949l-2.333-5.247-.004 4.236c-.05 45.374 24.186 91.73 63.103 120.705 37.228 27.717 86.764 37.396 132.337 25.857 55.792-14.126 84.3-62.353 69.197-117.054-13.944-50.499-57.498-82.843-112.842-83.798l-11.2-.193zm-79.27 1.495c-4.024.89-9 6.911-9.911 11.997-.23 1.277-.148 1.207.923-.8 4.48-8.397 12.885-11.145 12.384-4.048-.167 2.375.197 2.32.812-.122 1.227-4.873-.548-7.835-4.208-7.027"/><path fill="#458ccc" d="M190.648 54.816C111.32 60.311 50.096 122.234 45.139 201.987l-.462 7.419 1.907 4.397c16.508 38.077 43.592 63.94 75.601 72.193 63.233 16.304 125.07-37.72 88.201-77.057-7.522-8.026-41.777-14.582-59.586-11.404-18.731 3.343-24.57 10.721-16.007 20.227l1.407 1.562-2.6-.276c-15.469-1.637-29.053-8.239-35.8-17.4-1.53-2.077-1.279-2.131-5.283 1.152-4.634 3.799-4.386 3.881-5.482-1.8-2.338-12.118-2.018-22.491.943-30.605l1.178-3.227-1.478 1.183c-.813.65-7.058 5.942-13.878 11.759-6.82 5.816-12.461 10.419-12.535 10.228-.22-.567 1.117-8.157 2.384-13.537 14.503-61.572 70.546-106.733 133.075-107.234 3.589-.028 6.589.012 6.667.091.078.078-20.719 17.872-46.217 39.542l-46.359 39.4-.008 1.713c-.048 11.145 16.107 7.656 29.981-6.476 2.987-3.042 2.834-3.004 5.763-1.463 2.67 1.405 5.05 1.82 8.151 1.424l2.298-.293-2.19-.568c-11.205-2.901-13.174-16.3-3.73-25.383 3.567-3.431 4.848-4.135 14.541-7.991 23.074-9.178 37.877-19.331 42.97-29.47 1.359-2.707 1.814-2.473 4.004 2.055 1.977 4.088 3.273 8.385 3.655 12.109l.255 2.493 3.567-2.398c10.458-7.032 21.603-16.736 29.379-25.579 4.595-5.226 4.711-4.734-1.593-6.725-18.554-5.862-39.241-8.477-57.21-7.232m76.972 16.533c-.199.521-.919 2.546-1.601 4.5-4.774 13.679-15.742 29.098-27.306 38.385l-1.487 1.194 5.666.713c34.982 4.404 69.406 22.066 94.777 48.628 4.329 4.532 5.787 6.442 5.596 7.331-.036.165.07.255.235.2s.705.305 1.2.8.85.9.79.9c-.061 0-2.356-1.135-5.1-2.523-9.013-4.557-21.214-7.96-34.762-9.694l-2.173-.278 4.173 3.343c24.067 19.286 40.384 50.137 42.239 79.867.335 5.376.584 5.359 1.877-.129 15.949-67.724-18.131-141.33-79.836-172.426-4.095-2.064-3.831-2.014-4.288-.811m-88.42 49.41c-12.834 5.079-16.88 8.378-17.487 14.258l-.218 2.114 3.46-.974c10.784-3.037 17.401-8.175 20.277-15.745.95-2.5 1.197-2.514-6.032.347m-72.837 46.378c-2.208 1.401-4.504 4.014-5.853 6.663l-1.018 2 2.061-1.923c3.744-3.492 8.298-4.609 9.996-2.451.443.564.709 1.329.591 1.7-.162.506-.121.542.163.146.658-.917.59-5.271-.099-6.321-.913-1.395-3.477-1.313-5.841.186M205 173.2c1.971 1.98 3.673 3.6 3.783 3.6s-1.412-1.62-3.383-3.6-3.673-3.6-3.783-3.6 1.412 1.62 3.383 3.6m6.385 7.5c.617.935 1.198 1.7 1.291 1.7.288 0-1.243-2.434-1.844-2.931-.312-.258-.064.296.553 1.231m101.939 91.1c.002 1.32.077 1.812.166 1.093s.087-1.799-.004-2.4-.164-.013-.162 1.307M89.4 319.2c1.083 1.1 2.06 2 2.17 2s-.687-.9-1.77-2-2.06-2-2.17-2 .687.9 1.77 2m5.6 5.2c1.083 1.1 2.06 2 2.17 2s-.687-.9-1.77-2-2.06-2-2.17-2 .687.9 1.77 2m3 2.525c0 .069.585.654 1.3 1.3l1.3 1.175-1.175-1.3C98.33 326.888 98 326.616 98 326.925m8.8 7.221c0 .11.54.584 1.2 1.054s1.2.764 1.2.654-.54-.584-1.2-1.054-1.2-.764-1.2-.654m175.775 5.554L281.4 341l1.3-1.175c.715-.646 1.3-1.231 1.3-1.3 0-.309-.33-.037-1.425 1.175m-7.694 5.672c-1.858 1.313-2.119 1.689-.55.79.732-.419 1.519-.987 1.749-1.262.591-.707.313-.598-1.199.472M127.6 347.398c0 .267 5.649 3.087 5.827 2.908.08-.079-1.199-.809-2.841-1.622s-2.986-1.391-2.986-1.286m136 4.602c-1.21.639-2.059 1.171-1.887 1.181.425.026 4.287-1.945 4.287-2.188 0-.267.055-.29-2.4 1.007m-65.284 13.497c1.383.078 3.543.077 4.8-.002s.124-.143-2.516-.142c-2.64 0-3.668.065-2.284.144" style="stroke:#458ccc;stroke-opacity:1" transform="translate(-9.072 -17.204)"/><path fill="#76a2d5" d="M193.505 54.683c.497.096 1.217.092 1.6-.008.382-.1-.025-.179-.905-.174-.88.004-1.193.086-.695.182m11.995-.001a5.7 5.7 0 0 0 1.8 0c.495-.095.09-.173-.9-.173s-1.395.078-.9.173m47.7 9.396c0 .263-.495 1.027-1.1 1.699l-1.1 1.22 1.137-.998c1.338-1.176 2.091-2.399 1.477-2.399-.228 0-.414.215-.414.478m-3.819 4.822-1.581 1.7 1.7-1.581c1.581-1.471 1.884-1.819 1.581-1.819-.065 0-.83.765-1.7 1.7m-56.181.744c-61.515 2.318-115.344 46.842-129.551 107.157-1.266 5.377-2.604 12.971-2.384 13.535.444 1.136 27.989-23.387 29.584-26.339 3.347-6.192 9.336-13.079 16.151-18.573 5.26-4.24 5.608-4.238 4.369.022-.347 1.194-.567 2.359-.49 2.591s20.956-17.277 46.397-38.908 46.227-39.349 46.19-39.374c-.414-.281-4.558-.326-10.266-.111m74.833.508c.408.372 4.367 2.241 4.367 2.061 0-.225-3.82-2.213-4.253-2.213-.154 0-.205.068-.114.152M241.6 76.896c-3.41 3.33-4.94 4.954-3.4 3.609 2.789-2.437 10.156-9.724 9.792-9.684-.106.011-2.982 2.745-6.392 6.075m-116.1-3.467c-1.495.811-1.404 1.149.1.371.66-.341 1.2-.706 1.2-.81 0-.258-.043-.243-1.3.439m157.1 4.778c.44.359 1.16.828 1.6 1.044l.8.393-.8-.651c-.44-.359-1.16-.828-1.6-1.044l-.8-.393.8.651m5 3.139c0 .11.54.584 1.2 1.054s1.2.764 1.2.654-.54-.584-1.2-1.054-1.2-.764-1.2-.654M111 82.635l-1.2 1.031 1.3-.86c.715-.473 1.3-.938 1.3-1.033 0-.3-.169-.195-1.4.862m121.8 2.222-2.2 2.032 2.099-1.681c1.84-1.474 2.814-2.435 2.425-2.395-.068.007-1.114.927-2.324 2.044m-127.267 1.73c-2.127 1.641-3.988 3.178-4.134 3.415-.23.372 6.924-5.045 7.981-6.043 1.155-1.091-.441-.001-3.847 2.628M202.4 88.2c-1.639 1.65-2.89 3-2.78 3s1.541-1.35 3.18-3 2.89-3 2.78-3-1.541 1.35-3.18 3m26.2.044-1.6 1.432 1.7-1.272c1.463-1.094 1.991-1.621 1.6-1.598-.055.003-.82.65-1.7 1.438m-131 4.989-3 2.832 3.1-2.7c2.781-2.422 3.332-2.966 3-2.964-.055 0-1.45 1.274-3.1 2.832m126.2-1.398-1.2 1.031 1.3-.86c.715-.473 1.3-.938 1.3-1.033 0-.3-.169-.195-1.4.862m78.573 1.06c.755.821 1.46 1.406 1.566 1.299s.118-.239.026-.294c-.093-.055-.798-.64-1.567-1.299L301 91.402l1.373 1.493M310 100.2c3.184 3.19 5.88 5.8 5.99 5.8s-2.406-2.61-5.59-5.8-5.88-5.8-5.99-5.8 2.406 2.61 5.59 5.8m-219.808-.1-3.992 4.1 4.1-3.992C94.108 96.499 94.582 96 94.292 96c-.059 0-1.904 1.845-4.1 4.1m101.305-3.334c-1.644 1.053-1.872 1.425-.422.688.701-.357 1.386-.83 1.523-1.051.321-.519.225-.488-1.101.363m-9.197 5.261c-.825.436-1.5.881-1.5.991s.72-.169 1.6-.618 1.6-.903 1.6-1.008c0-.262-.003-.261-1.7.635m-4.7 2.373c-1.21.639-2.02 1.162-1.8 1.162s1.39-.523 2.6-1.162 2.02-1.162 1.8-1.162-1.39.523-2.6 1.162m-93.2 1.8c-.972.99-1.677 1.8-1.567 1.8s.995-.81 1.967-1.8 1.677-1.8 1.567-1.8-.995.81-1.967 1.8m232.8 1.6c.746.77 1.447 1.4 1.557 1.4s-.411-.63-1.157-1.4-1.447-1.4-1.557-1.4.411.63 1.157 1.4m-235.632 1.7c-2.359 2.643-2.894 3.3-2.686 3.3.121 0 1.067-.99 2.1-2.2 1.914-2.24 2.373-3.102.586-1.1m-4.368 5.3c-.697.88-1.177 1.6-1.067 1.6s.77-.72 1.467-1.6 1.177-1.6 1.067-1.6-.77.72-1.467 1.6m161.3 1.076c.385.1 1.015.1 1.4 0 .385-.101.07-.183-.7-.183s-1.085.082-.7.183m86.075 1.056c.616.807 1.201 1.468 1.3 1.468.278 0-1.454-2.34-1.966-2.656-.25-.155.05.38.666 1.188M74.8 118c-.47.66-.764 1.2-.654 1.2s.584-.54 1.054-1.2.764-1.2.654-1.2-.584.54-1.054 1.2m191 3.2c.44.189 1.07.344 1.4.344.378 0 .304-.127-.2-.344-.44-.189-1.07-.344-1.4-.344-.378 0-.304.127.2.344m64.055 3.2c1.025 1.54 1.937 2.8 2.027 2.8.213 0-.084-.499-1.967-3.3-.849-1.265-1.63-2.3-1.733-2.3s.649 1.26 1.673 2.8m-159.155-.374c-1.265.653-2.3 1.268-2.3 1.368 0 .272 1.065-.189 3.348-1.448 2.717-1.498 1.886-1.435-1.048.08m-5.9 4.174c-.972.99-1.677 1.8-1.567 1.8s.995-.81 1.967-1.8 1.677-1.8 1.567-1.8-.995.81-1.967 1.8m128 3.59c0 .11 1.26.834 2.8 1.61s2.8 1.32 2.8 1.21-1.26-.834-2.8-1.61-2.8-1.32-2.8-1.21m-229 3.41c-.341.66-.531 1.2-.421 1.2s.48-.54.821-1.2.531-1.2.421-1.2-.48.54-.821 1.2m272.8.4c.341.66.711 1.2.821 1.2s-.08-.54-.421-1.2-.711-1.2-.821-1.2.08.54.421 1.2m-190.6.291c0 1.424 5.442 6.52 6.945 6.504.25-.002-.355-.467-1.345-1.031-2.39-1.363-3.106-2.028-4.461-4.142-.626-.978-1.139-1.577-1.139-1.331m-5.422 8.144c-1.528 1.547-4.083 3.817-5.678 5.044-1.595 1.228-2.9 2.318-2.9 2.424 0 .195 2.023-1.26 4.2-3.021 1.794-1.45 7.442-6.973 7.289-7.126-.073-.073-1.383 1.132-2.911 2.679m171.822-.689c0 .11.54.584 1.2 1.054s1.2.764 1.2.654-.54-.584-1.2-1.054-1.2-.764-1.2-.654m28.828 1.254c0 .22.258.85.572 1.4s.572.82.572.6-.258-.85-.572-1.4-.572-.82-.572-.6m-24.841 1.662c5.237 4.298 9.726 7.795 9.255 7.21-.614-.764-6.517-5.489-9.042-7.239l-1.6-1.109 1.387 1.138M327.8 155.6c.859.88 1.652 1.6 1.762 1.6s-.503-.72-1.362-1.6-1.652-1.6-1.762-1.6.503.72 1.362 1.6m6.8 6.4c2.633 2.64 4.877 4.8 4.987 4.8s-1.954-2.16-4.587-4.8-4.877-4.8-4.987-4.8 1.954 2.16 4.587 4.8m-31.2-.12c.22.208 1.21.966 2.2 1.685l1.8 1.307-1.4-1.264c-1.226-1.107-3.644-2.714-2.6-1.728m8 6.52c.859.88 1.652 1.6 1.762 1.6s-.503-.72-1.362-1.6-1.652-1.6-1.762-1.6.503.72 1.362 1.6m29.622.425c.868 1.004 1.659 1.763 1.758 1.687.1-.077-.61-.898-1.577-1.826L339.444 167l1.578 1.825m-23.513 5.375c6.079 6.705 7.773 8.455 5.242 5.419-1.183-1.42-3.744-4.21-5.691-6.2l-3.541-3.619 3.99 4.4M104.7 171.429c-1.551.841-1.375 1.132.2.33 1.508-.766 1.775-.965 1.267-.943-.202.009-.862.285-1.467.613m-3.715 3.071L99 176.6l2.1-1.985c1.155-1.092 2.1-2.037 2.1-2.1 0-.298-.371.034-2.215 1.985M328.4 187.2c.47.66.944 1.2 1.054 1.2s-.184-.54-.654-1.2-.944-1.2-1.054-1.2.184.54.654 1.2m6.2 9.6c.341.66.711 1.2.821 1.2s-.08-.54-.421-1.2-.711-1.2-.821-1.2.08.54.421 1.2m2 3.6c.557 1.1 1.103 2 1.213 2s-.256-.9-.813-2-1.103-2-1.213-2 .256.9.813 2m18.693-.8c0 .77.082 1.085.183.7s.1-1.015 0-1.4c-.101-.385-.183-.07-.183.7M93.6 201.474c-3.913 3.261-5.012 4.233-4.4 3.893.989-.55 7.28-5.769 6.927-5.746-.18.011-1.317.845-2.527 1.853M44.901 202.6c.004.88.086 1.193.182.695.096-.497.092-1.217-.008-1.6-.1-.382-.179.025-.174.905m310.823 7.2c.002 1.32.077 1.812.166 1.093s.087-1.799-.004-2.4-.164-.013-.162 1.307m-5.69 40.42c.034 1.561.039 1.566.39.39.22-.737.207-1.339-.034-1.58-.253-.253-.378.165-.356 1.19" style="fill:#458ccc;fill-opacity:1;stroke:#458ccc;stroke-opacity:1" transform="translate(-9.072 -17.204)"/><path fill="#fbfbfb" d="M186.6 17.852C98.563 24.756 27.055 89.446 12.225 175.6c-4.044 23.496-3.434 51.064 1.638 74 22.067 99.784 118.054 164.048 219.485 146.948C312.279 383.24 375.406 319.733 388.76 240.2c2.456-14.627 3.173-39.561 1.525-53C379.254 97.28 312.006 29.895 222 18.571c-4.789-.603-30.281-1.12-35.4-.719m86.232 23.42c-.65 10.082-2.844 23.377-4.612 27.938-.174.448.482.964 2.472 1.946 63.387 31.257 97.743 105.753 80.839 175.289l-1.302 5.355-.302-4.4c-3.682-53.755-44.482-98.752-96.327-106.236-7.879-1.137-2.827-1.363 7.2-.322 14.021 1.456 30.767 6.305 42.94 12.432 3.02 1.52 3.017 1.622.088-3.276-1.38-2.309-2.372-4.253-2.203-4.32 1.684-.67 23.907 12.831 35.275 21.431 7.005 5.299 7.231 5.195 1.752-.805-19.918-21.814-49.438-39.366-78.452-46.646-10.378-2.604-22.639-4.421-23.859-3.536-10.062 7.298-17.875 11.749-28.781 16.396-6.03 2.569-6.048 2.567-3.266-.34 4.222-4.414 7.26-9.482 9.516-15.878.602-1.705 1.295-3.103 1.542-3.106 1.079-.016 12.827-6.13 16.648-8.664 9.483-6.291 18.174-14.823 26.904-26.411.231-.307-.593-.198-2.271.3-9.804 2.909-9.078 2.823-7.463.881 10.687-12.844 18.026-26.404 22.642-41.833 1.42-4.748 1.541-4.295 1.02 3.805M218.4 55.375c11.031 1.413 20.779 3.569 30.531 6.75l5.209 1.699-3.639 4.216c-7.621 8.827-18.945 18.852-29.24 25.885l-4.767 3.257-.4-2.691c-.856-5.764-4.446-15.482-5.894-15.957-.22-.072-1.015 1.058-1.766 2.511-4.905 9.485-20.613 20.077-42.634 28.749-8.652 3.407-10.995 4.661-14.059 7.523-10.089 9.427-8.277 22.201 3.618 25.507l2.441.678-1.934.299c-3.801.589-7.644.057-9.953-1.379-1.253-.779-2.147-1.119-2.236-.852-.616 1.847-11.636 10.391-16.678 12.93-12.447 6.268-19.947.64-15.19-11.4 1.46-3.695-13.378 9.844-17.695 16.145-8.377 12.228-10.309 23.928-6.862 41.555.452 2.31.94 4.323 1.085 4.473.225.234 3.066-1.922 7.863-5.965 4.971-4.19 17.445-11.162 26.2-14.643 24.189-9.619 53.968-10.696 84.752-3.064 5.713 1.416 5.714 1.416 4.129-.873-4.928-7.117-12.817-13.835-22.281-18.973l-3.6-1.955 3.8-.363c11.4-1.088 31.636 1.511 45.002 5.78 84.944 27.13 108.065 139.001 37.74 182.603-16.228 10.061-35.27 15.649-59.342 17.414-95.86 7.027-175.291-72.41-167.418-167.434C51.601 120.313 111.654 60.869 189.8 54.65c4.698-.374 23.807.11 28.6.725m-20.1 58.956c-5.035 14.708-15.302 22.026-31.926 22.757l-5.027.221.265-2.555c.636-6.144 4.604-9.337 17.903-14.405 7.721-2.942 15.221-6.584 17.885-8.683 2.541-2.003 2.52-2.066.9 2.665m-85.929 48.654c1.829.946 2.231 4.257.976 8.044-.761 2.297-1.347 3.115-1.347 1.88 0-3.996-6.815-2.592-11.387 2.347l-2.124 2.293.588-2.274c2.165-8.388 8.864-14.581 13.294-12.29" style="stroke:#fbfbfb;stroke-opacity:1" transform="translate(-9.072 -17.204)"/><path fill="#bcb4be" d="m263.718 19.515.193 1.881.136-1.553c.074-.854-.012-1.7-.193-1.88-.181-.182-.242.517-.136 1.552m-24.412 53.981-1.378 1.5 1.5-1.378c1.396-1.284 1.684-1.622 1.378-1.622-.066 0-.741.675-1.5 1.5m-4 4-1.378 1.5 1.5-1.378c1.396-1.284 1.684-1.622 1.378-1.622-.066 0-.741.675-1.5 1.5m-87.773 18.611c-2.728 1.468-7.653 5.958-8.722 7.952-.62 1.153-.623 1.2-.027.337 1.684-2.438 6.494-6.698 9.144-8.098 1.54-.813 2.62-1.479 2.4-1.48s-1.478.58-2.795 1.29m93.029 27.083c.374.22 1.113.228 1.8.022 1.076-.32 1.028-.35-.634-.37-1.288-.016-1.62.083-1.166.348m-108.253 3.305-1.581 1.7 1.7-1.58c1.58-1.472 1.884-1.82 1.58-1.82-.064 0-.83.765-1.7 1.7m-32.38.144-1.6 1.432 1.8-1.315 1.967-1.438c.09-.068 0-.12-.2-.117-.202.003-1.087.65-1.967 1.438m-8.02 7.056c-3.107 3.19-6.744 7.238-4.94 5.5 1.697-1.635 8.862-9.2 8.714-9.2-.093 0-1.792 1.665-3.774 3.7m9.534-1.1c.003 1.1.08 1.503.173.895.092-.609.09-1.509-.005-2s-.171.005-.168 1.105m1.684 5.337c.436.515 1.155 1.122 1.598 1.35.849.434.725.3-1.193-1.293-1.155-.959-1.17-.96-.405-.057m-18.905 4.763c-1.036 1.496-1.372 2.1-1.17 2.1.094 0 .647-.72 1.23-1.6 1.183-1.788 1.13-2.22-.06-.5m98.807-.403c1.485.077 3.915.077 5.4 0s.27-.14-2.7-.14-4.185.063-2.7.14m-101.3 4.503c-.45.88-.726 1.6-.616 1.6s.567-.72 1.016-1.6.726-1.6.616-1.6-.567.72-1.016 1.6m13.375 1.7-1.175 1.3 1.3-1.175c1.212-1.095 1.484-1.425 1.175-1.425-.07 0-.654.585-1.3 1.3m60.742 10.997c1.494.077 3.834.077 5.2 0 1.365-.079.143-.142-2.717-.142-2.86.001-3.978.065-2.483.142m190.776 29.703c0 .77.082 1.085.183.7s.1-1.015 0-1.4c-.101-.385-.183-.07-.183.7m-311.173 7.2c0 1.21.075 1.705.167 1.1a9 9 0 0 0 0-2.2c-.092-.605-.167-.11-.167 1.1m311.18-.2c.005.88.087 1.193.183.695.096-.497.092-1.217-.008-1.6-.1-.382-.18.025-.174.905m-42.408 53.8c0 .77.082 1.085.183.7s.1-1.015 0-1.4c-.101-.385-.183-.07-.183.7m0 9.2c0 .77.082 1.085.183.7s.1-1.015 0-1.4c-.101-.385-.183-.07-.183.7m-23.715 57.1-1.378 1.5 1.5-1.378c1.396-1.284 1.684-1.622 1.378-1.622-.066 0-.741.675-1.5 1.5m-97.273 31.983c.497.096 1.217.092 1.6-.008.382-.1-.025-.179-.905-.174-.88.004-1.193.086-.695.182m15.195 0a5.7 5.7 0 0 0 1.8 0c.495-.096.09-.174-.9-.174s-1.395.078-.9.173"/></g></svg>