<svg xmlns="http://www.w3.org/2000/svg" width="242.5" height="242.5"><path fill="#634efe" d="M0 121.252C0 188.064 54.44 242.5 121.252 242.5S242.5 188.064 242.5 121.252 188.064 0 121.252 0 0 54.44 0 121.252"/><g fill="#fff" data-name="Group 9259"><path d="M184.26 100.861v56.738l-63.108 36.429-63.144-36.429V84.706l63.144-36.465 48.5 28.017 7.321-4.224-55.821-32.24-70.465 40.688v81.341l70.465 40.688 70.465-40.688V96.637Z" data-name="Path 472522"/><path d="M103.483 157.639H92.924v-35.413h35.2a12.67 12.67 0 0 0 12.53-12.636 12.07 12.07 0 0 0-3.7-8.834 12.22 12.22 0 0 0-8.834-3.7H92.924V86.29h35.232a23.44 23.44 0 0 1 23.3 23.3 22.63 22.63 0 0 1-4.118 13.2 22.95 22.95 0 0 1-10.137 8.307 40.6 40.6 0 0 1-12.6 1.9h-21.118Z" data-name="Path 472523"/><path d="M151.211 156.754h-12.32l-9.5-16.578a40.1 40.1 0 0 0 11.017-2.253z" data-name="Path 472524"/><path d="m176.904 89.07 7.286 4.048 7.286-4.048v-8.553l-7.286-4.224-7.286 4.224Z" data-name="Path 472525"/></g></svg>