<svg xmlns="http://www.w3.org/2000/svg" xml:space="preserve" id="Ripio" x="0" y="0" version="1.1" viewBox="0 0 245 245"><style>.st2{fill:#fff}</style><path id="Full" d="M0 122.5C0 190 55 245 122.5 245S245 190 245 122.5 190 0 122.5 0 0 55 0 122.5" style="fill:#4155ff"/><circle id="Ring" cx="122.5" cy="122.5" r="73.5" style="fill:none;stroke:#fff;stroke-width:10;stroke-linecap:round;stroke-linejoin:round"/><path id="Left" d="m122.5 71.5 7-7 32.5 32-29 28.5-6.5-6.5s11.2-10.7 16.5-16c-30.8-2.9-87.5 20-100.5 56-3 4.4-9.6 3.4-9.6-2.5 9.8-30.9 57.2-65 110.1-64-3.7-3.6-20.5-20.5-20.5-20.5" class="st2"/><path id="Right" d="m122.5 173.5-7 7L83 148.6l29-28.4 6.5 6.5s-11.2 10.7-16.5 16c30.8 2.9 87.5-20 100.4-55.9 3-4.3 9.6-3.4 9.6 2.5-9.8 30.8-57.2 64.8-110 63.9 3.6 3.4 20.5 20.3 20.5 20.3" class="st2"/></svg>