<svg xmlns="http://www.w3.org/2000/svg" width="236" height="236" fill="none"><g transform="scale(.9077)"><path fill="#fff" d="M130.523 256.829c70.045 0 126.828-56.783 126.828-126.828S200.568 3.173 130.523 3.173 3.695 59.956 3.695 130.001s56.783 126.828 126.828 126.828"/><path fill="#4d2176" d="M162.348 203.113v-58.552H98.7v58.552H69.632V56.889H98.7v58.552h63.648V56.889h29.068v146.224z"/><circle r="130" fill="url(#a)" style="fill:url(#a)" transform="matrix(1 0 0 -1 130 130)"/><path fill="#fff" d="M121.001 130.114a8 8 0 0 1-1.264-.105l5.267-11.272a304 304 0 0 0 4.425-10.219q1.897-4.635 3.055-8.217t1.159-5.583-.632-3.266q-.633-1.37-1.475-2.002a4.04 4.04 0 0 0-1.896-.948q-1.054-.316-1.791-.316-2.739 0-6.216 3.16-3.37 3.055-7.268 8.217-3.793 5.162-7.901 11.904a478 478 0 0 0-8.006 13.8l-31.077 56.886a21.3 21.3 0 0 0-1.791 4.741 20.4 20.4 0 0 0-.632 4.951q0 1.686.421 3.582a10.6 10.6 0 0 0 1.686 3.476q1.159 1.58 3.266 2.634t5.478 1.053q4.108 0 7.585-2.95t6.531-7.69q3.055-4.845 5.583-10.85a375 375 0 0 0 4.846-12.325l4.319-12.01q2.001-5.9 3.898-10.218 3.371 10.956 7.69 20.858 4.319 9.797 9.586 17.171t11.694 11.693q6.426 4.32 14.01 4.32 9.271 0 19.595-4.636 10.429-4.74 21.279-14.959 3.687-3.476 5.162-6.636 1.58-3.266 1.58-5.689 0-2.528-1.474-4.003-1.475-1.475-3.582-1.475-3.372 0-6.637 3.687a39.2 39.2 0 0 1-8.217 8.112q-4.003 3.055-10.008 5.583-6.006 2.528-13.694 2.528h-1.475q-.738 0-1.58-.105-4.214-.316-8.007-4.214t-6.952-9.376a83.6 83.6 0 0 1-5.268-11.693q-2.106-6.215-3.055-11.166 6.742-1.16 13.906-3.793a98 98 0 0 0 14.116-6.426 89.3 89.3 0 0 0 12.852-8.638q6.11-4.951 10.64-10.745 4.53-5.9 7.163-12.536 2.739-6.742 2.739-14.117 0-10.956-4.529-19.173-4.425-8.217-12.01-13.59-7.584-5.478-17.487-8.217-9.797-2.739-20.542-2.739-10.956 0-20.753 2.318-9.797 2.212-18.12 6.005-8.217 3.687-14.854 8.638-6.637 4.846-11.272 10.113-4.53 5.268-7.058 10.534-2.423 5.267-2.423 9.797 0 4.846 2.634 7.584 2.633 2.634 7.901 2.634 3.898 0 6.531-1.791t4.741-4.635q2.212-2.844 4.214-6.531a149 149 0 0 1 4.424-7.585q2.529-3.898 5.899-7.585 3.476-3.687 8.427-6.531 5.057-2.844 11.904-4.635 6.954-1.791 16.54-1.791 8.532 0 14.643 2.002 6.215 2.001 10.113 5.373 4.003 3.37 5.794 7.901 1.896 4.53 1.896 9.586 0 7.058-3.582 14.537-3.476 7.48-9.586 13.59t-14.327 10.113q-8.112 3.898-17.277 3.898z"/></g><defs><linearGradient id="a" x1="320.33" x2="320.33" y1="-50.182" y2="432.086" gradientUnits="userSpaceOnUse"><stop stop-color="#9e00f6"/><stop offset="1" stop-color="#fa7564"/></linearGradient></defs></svg>