<svg xmlns="http://www.w3.org/2000/svg" xml:space="preserve" viewBox="0 0 490 490"><path d="M0 245c0 135.1 109.9 245 245 245s245-109.9 245-245S380.1 0 245 0 0 109.9 0 245" style="fill:#001b3a"/><path d="m155.4 160.8 21.5-12.4 3 5 79.6-45.9-5.9-3.5-5.9-3.2L245 99l-130 75v3.2l37.3-21.4zm0 47.2 62.5-36 2.8 5 79.9-46-5.9-3.5-5.9-3.2-2.8-1.7L115 221v3.5l37.3-21.4zm0 23.6 82.9-47.9 2.8 5 79.9-45.9-5.9-3.3-5.9-3.5-2.8-1.7L115 244.6v3.4l37.3-21.6zm0 23.4 103.9-59.8 2.8 5 79.2-45.7-5.9-3.3-5.9-3.4-2.8-1.5-211.7 122v3.2l37.3-21.4zm0 23.6 124.3-71.7 2.8 5.2 79.2-45.7-5.9-3.5-5.6-3.3-3-1.7-232.2 134v3.2l37.3-21.4zm215.2-107.2-3-1.7L115 315.5v3.2l37.3-21.4 3 5 124.3-71.7 2.8 5 92.4-53.1V174zM131.1 333.1l20.8-11.9 3 5L279 254.5l3 5.2 92.9-53.7v-16.7l-246.7 142zm148-55.1 3 5.2 92.9-53.7v-16.7L148.7 343.2l2.8 1.7 21.3-12.4 3 5m-3.9 19.2 21.5-12.4 2.8 5.2 82.9-47.9 3 5 92.9-53.5v-16.9L169 354.9zm20.6 11.7 21.3-12.1 2.8 5 62.5-36 3 5 92.9-53.5v-16.9l-185.6 107zm17.3 10.2 3 1.7 21.3-12.4 2.8 5.2 42.1-24.3 3 5 92.9-53.5v-16.9zm23.5 13.4 21.3-12.1 3 5 21.5-12.6 3 5.2L375 324v-17l-144.5 83.4zm46.8-272.9-5.9-3.2-5.9-3.5-3-1.7L115 197.6v3.2l37.3-21.4 3 5 42.1-24.2 2.8 5z" style="fill:#fff"/></svg>