<svg xmlns="http://www.w3.org/2000/svg" xml:space="preserve" viewBox="0 0 245 245"><path d="M0 122.5C0 190 55 245 122.5 245S245 190 245 122.5 190 0 122.5 0 0 55 0 122.5" style="fill:#553580"/><path d="M204.7 163.1 124.5 33.9c-.6-.9-1.8-1.2-2.8-.6-.2.2-.5.4-.6.6L40.8 162.6c-.5.9-.3 2.1.6 2.6h.1l80.4 46.4c.6.4 1.4.4 2 0l80.2-45.9c.4-.3.8-.7.9-1.2.1-.4 0-.9-.3-1.4M151.5 132l.3 1.7.1.7c1.2 9.3 4.8 12 13.7 16h.1l32.4 14.4-73.2 41.9v-24c0-8.8.5-10.4 8.3-14.7q2.25-1.2 4.8-2.7l1.1-.6c4.8-2.6 8.8-6.4 11.7-11 .1-.2.9-1.3 1-1.5-.6-.3-1.2-.7-1.7-1.2s-1-1-1.3-1.6c-2.5 5-6.5 9.2-11.4 11.9l-1.2.7c-1.7 1-3.4 1.9-4.9 2.7-9.6 5.3-10.3 8.5-10.3 18v24L47 164l31.6-13.9 2.1-.9c.8-.4 3.3-1.4 5.3-1.5s5 0 6.6 2.1l4.5 5.7c3.5 4.6 8.1 8.2 13.5 10.5h.1c1.5.5 3 1 4.5 1.3.4-.7.8-1.3 1.3-1.9.3-.4.8-.9 1.3-1.4-2.4-.4-4.8-1.2-7.1-2.2-4.1-1.9-7.7-4.7-10.5-8.3l-.2-.2c-.1-.1-.1-.2-.2-.3-.3-.4-.6-.7-.8-1.1-1.1-1.5-2.2-3-3.4-4.4-1.1-1.3-2.5-2.3-4.1-2.8-1.8-.6-3.8-.9-5.7-.9-3.2.1-6.8 1.8-6.8 1.9l-1.1.5h-.1l-2.9 1.2-27.6 12.1 73.6-117.8v49.9c0 8.6-.6 10.5-8.5 14.9-.6.3-1.2.6-1.9.9-.3.2-.7.3-1 .5-.3.1-.5.2-.8.4-10.3 5-17.5 15-18.1 26.8.7.2 1.7.5 2.3.6.5.2 1.1.4 1.6.7.1-10.9 6.6-20.2 16.1-24.8h.1c.6-.3 1.1-.6 1.7-.8.7-.3 1.4-.7 2.1-1.1 1.2-.7 2.5-1.4 3.6-2.2.3-.2.5-.4.8-.6.6-.4 1.1-.8 1.6-1.3.3-.2.5-.4.7-.7 3.1-3.2 3.8-6.8 3.8-13.4V41.8l73.8 118.9-32.8-14.4c-7.2-3.2-9.4-5.9-10.4-13.6 0-.1 0-.4-.1-.5-1.9-12.3-11-22.2-23.1-25.7-.8-.2-1.5-.4-1.6-.5-.2.6-.5 1.2-.8 1.8-.4.6-.8 1.2-1.3 1.7.2 0 1.3.3 1.5.3 10.9 2.8 19.3 11.4 21.3 22.2" style="fill:#fff"/></svg>