<svg xmlns="http://www.w3.org/2000/svg" xml:space="preserve" viewBox="0 0 490 490"><path d="M0 245c0 135.1 109.9 245 245 245s245-109.9 245-245S380.1 0 245 0 0 109.9 0 245" style="fill:#fbd503"/><path d="M357.6 210.1c-22.2 2.5-38.6 22-37.2 44.3 0 6.1-2.3 11.5-7.6 14.5-2.5 1.6-5.4 2.4-8.4 2.3-2.9 0-5.8-.8-8.4-2.3-6.7-3.9-14.3-6-22-6.1h-4.6c-22 2.3-38 22.2-36.5 44.3 0 6.1-2.3 11.5-7.6 14.5-2.5 1.6-5.4 2.4-8.4 2.3-2.7.1-5.4-.7-7.6-2.3-6.7-3.9-14.3-6-22-6.1h-4.6c-20.5 2.3-35.7 19.9-36.5 41.3 0 22.9 18.2 42 41 42h3.8c19.8-2.3 35.7-17.6 37.2-37.4v-6.9c0-6.1 2.3-11.5 7.6-14.5 2.5-1.6 5.4-2.4 8.4-2.3 2.9 0 5.8.8 8.4 2.3 6.7 3.9 14.3 6 22 6.1h4.6c19.5-2.3 34.7-17.9 36.5-37.4v-6.9c0-6.1 2.3-11.5 7.6-14.5 2.5-1.6 5.4-2.4 8.4-2.3 2.7-.1 5.4.7 7.6 2.3 6.7 3.9 14.3 6 22 6.1h4.6c20.5-3.8 36.5-20.6 36.5-42 0-22.9-18.2-42-41-42-1.6-.1-3.1-.1-3.8.7m-87.4-52.7c-22.2 2.5-38.6 22-37.2 44.3 0 6.1-2.3 11.5-7.6 14.5-2.5 1.6-5.4 2.4-8.4 2.3-2.7.1-5.4-.7-7.6-2.3-6.7-3.9-14.3-6-22-6.1h-4.6c-20.5 3.1-35.7 19.9-35.7 40.5 0 22.9 18.2 42 41 42h3.8c19.8-2.3 35.7-17.6 37.2-37.4v-6.9c0-6.1 2.3-11.5 7.6-14.5 2.5-1.6 5.4-2.4 8.4-2.3 2.7-.1 5.4.7 7.6 2.3 6.7 3.9 14.3 6 22 6.1h4.6c20.5-2.3 35.7-19.9 36.5-41.3 0-22.9-18.2-42-41-42-2.3.1-3.1.1-4.6.8m-83.6-52.7c22.8-.1 41.3 18.3 41.4 41s-18.3 41.3-41 41.4c-22.8.1-41.3-18.3-41.4-41v-.2c-.1-22.6 18.2-41.1 41-41.2-.1 0 0 0 0 0" style="fill:#fff"/></svg>