<svg xmlns="http://www.w3.org/2000/svg" width="244.8" height="244.8"><path fill="#649acd" d="M1.248 122.5c0 66.812 54.44 121.248 121.252 121.248S243.748 189.312 243.748 122.5 189.312 1.248 122.5 1.248 1.248 55.688 1.248 122.5"/><g fill="none"><path d="M0 122.4c0 67.444 54.954 122.4 122.4 122.4s122.4-54.954 122.4-122.4S189.841 0 122.4 0 0 54.954 0 122.4" data-name="Path 472526"/><path d="M122.4 11a111.4 111.4 0 1 0 111.4 111.4A111.526 111.526 0 0 0 122.4 11m0-11c67.441 0 122.4 54.954 122.4 122.4s-54.954 122.4-122.4 122.4S0 189.844 0 122.4 54.959 0 122.4 0" data-name="Path 472527"/></g><g fill="#fff" data-name="Group 9244"><path d="m136.005 63.162 6.554-23.947a12.658 12.658 0 0 0-24.452-6.554l-6.554 23.947a44.06 44.06 0 0 1 24.452 6.554" data-name="Path 472521"/><path d="m109.033 181.638-6.554 23.947a12.691 12.691 0 1 0 24.452 6.806v-.253l6.554-23.947a48.7 48.7 0 0 1-24.452-6.553" data-name="Path 472522"/><path d="M170.036 117.863a39.1 39.1 0 0 0-11.091-12.1l-8.319 38.064a17.6 17.6 0 1 1-34.535-6.806v-.252l7.814-28.989a12.985 12.985 0 0 0-8.826-15.629h-.252a12.707 12.707 0 0 0-15.377 9.327l-9.071 40.333a43.021 43.021 0 0 0 85.959-3.781 40.27 40.27 0 0 0-6.302-20.167" data-name="Path 472523"/><path d="M94.159 101.225a17.655 17.655 0 1 1 34.787 6.05v.5l-7.813 28.993a12.985 12.985 0 0 0 8.823 15.629h.252a12.707 12.707 0 0 0 15.377-9.327l8.823-40.332a43.23 43.23 0 0 0-44.621-41.341c-23.7.756-42.1 20.922-41.341 44.618a43.34 43.34 0 0 0 17.142 32.768Z" data-name="Path 472524"/></g></svg>