<svg xmlns="http://www.w3.org/2000/svg" width="256" height="256" viewBox="0 0 67.733 67.733"><g transform="translate(0 -229.267)"><circle cx="33.867" cy="263.133" r="32.411" style="opacity:1;fill:#000;fill-opacity:1;fill-rule:nonzero;stroke:none;stroke-width:2.66967654;stroke-linecap:round;stroke-linejoin:round;stroke-miterlimit:4;stroke-dasharray:none;stroke-dashoffset:0;stroke-opacity:1;paint-order:stroke fill markers"/><path d="M15.51 258.184c0 .278.277.555.555.555h6.754v3.423h-6.754c-.278 0-.555.278-.555.555v5.644c0 .278.277.555.555.555h6.754v13.509c0 .277.185.462.463.462h6.476c.278 0 .463-.185.463-.462v-12.768c0-.278.185-.463.462-.463h5.181c.185 0 .37.093.463.278l5.736 13.23a.51.51 0 0 0 .463.278h6.94c.37 0 .554-.37.462-.648L44.19 269.38c-.092-.277 0-.555.278-.647 2.776-1.018 4.534-3.516 4.534-6.847v-8.327c0-4.256-3.516-7.772-7.772-7.772H23.28c-.277 0-.462.185-.462.463v5.736h-6.754c-.278 0-.555.277-.555.555zm14.71-4.904c0-.277.186-.462.463-.462h8.697c1.203 0 2.22 1.017 2.22 2.22v4.996c0 1.203-1.017 2.22-2.22 2.22h-8.697c-.277 0-.462-.184-.462-.462z" style="fill:#fefefe;stroke-width:.92521888;fill-opacity:1"/></g></svg>