<svg xmlns="http://www.w3.org/2000/svg" width="245" height="245"><path fill="#b64326" d="M0 122.5C0 190 55 245 122.5 245S245 190 245 122.5 190 0 122.5 0 0 55 0 122.5"/><g fill="#fff"><path fill-rule="evenodd" d="M64.339 148.773c-5.341-34.635 3.669-49.323 10.349-56.036 21.377-21.52 78.355-21.544 97.383-25.5a60.6 60.6 0 0 0 16.751-5.127 114 114 0 0 0 10.993-5.627 72.2 72.2 0 0 1-12.459 16.382 74 74 0 0 1-8.083 6.832 271 271 0 0 1-40.978 24.227c-38.223 17.6-49.908 17.288-64.584 32.858a81.6 81.6 0 0 0-9.371 11.994Z" data-name="Path 472525"/><path d="M180.274 78.931a213 213 0 0 1-21.961 14.736 259.5 259.5 0 0 1-29.067 14.414c-17.347 7.618-26.015 11.434-31.9 13.52a58.2 58.2 0 0 0-16.155 8.405 55.7 55.7 0 0 0-7.511 6.76 78 78 0 0 1 12.137-16.489c11.136-11.505 22.653-15.988 46.033-24.393 20.334-7.308 36.989-13.031 48.424-16.953" data-name="Path 472526"/><path fill-rule="evenodd" d="M210.246 79.742c-23.249.763-46 24.155-70.08 27.922 44.209-.345 54.39-21.889 70.08-27.922" data-name="Path 472528"/><path fill-rule="evenodd" d="M69.597 160.588c2.3 1.085 21.866 9.848 42.539-.68s25.085-31.618 25.6-34.134a37 37 0 0 0 .489-3.66c.393-4.936-.441-7.666-.083-7.762.584-.155 4.066 6.486 4.519 14.844a39.5 39.5 0 0 1-1.133 10.873c-8.25 32-30.724 37.2-30.724 37.2-14.608 3.349-30.811-3.316-41.207-16.681m-5.544.083c-8.513 12.662-5.651 25.323.5 37.985.31-7.154.99-14.307 8-21.46-5.508-5.532-7.022-11.028-8.5-16.525m83.827-31.082" data-name="Path 472529"/><path fill-rule="evenodd" d="M84.464 150.216a34.7 34.7 0 0 1 3.779-7.642 37 37 0 0 1 3.231-4.173 40.54 40.54 0 0 1 17.466-11.076 131 131 0 0 1 5.449-1.466c1.061-.274 1.943-.477 2.563-.62 5.354 16.261-9.358 35.874-32.488 24.977" data-name="Path 472530"/></g></svg>