<svg xmlns="http://www.w3.org/2000/svg" xml:space="preserve" id="Ravencoin" x="0" y="0" version="1.1" viewBox="0 0 245 245"><style>.st1{fill:#fff}</style><path id="Main-F" d="M0 122.5C0 190 55 245 122.5 245S245 190 245 122.5 190 0 122.5 0 0 55 0 122.5" style="fill:#f05239"/><g id="RVN"><path d="M75.5 198 101 80.5l15 88zM102 80.5s0 .1.1.3c1 5.9 14.9 87.7 14.9 87.7l24.5.5zm53.5 7L163 96l-19 71zm-52-10 31-21L149 63zm8-20.5 19.5-.5-22.5 8.5zM142.5 168.5l-40-89.5 52.5 7zm-40-91.5 6-10.5 25-10zm9-21 7-6.5 13.5 6zm7.5-7.5 9.5-4.5 13 14.5zm10.5-5H140l6 6.5zM146 52l3 10-6-3zM104.5 78 149 64l5.5 21.5zm26-33 12 13 2.5-7zm16 5.5 3.5 12 19.5-5.5z" class="st1"/></g></svg>