<svg xmlns="http://www.w3.org/2000/svg" width="256" height="256" viewBox="0 0 67.733 67.733"><g style="fill:#e6523e;fill-opacity:1"><path d="M1.455 263.133c0 17.872 14.54 32.412 32.412 32.412 17.871 0 32.411-14.54 32.411-32.412 0-17.871-14.54-32.411-32.411-32.411s-32.412 14.54-32.412 32.411" class="cls-1" style="fill:#e6523e;fill-opacity:1;stroke-width:.13229166" transform="translate(0 -229.267)"/></g><path d="m6.81 31.198 1.914 15.255 2.574-.659-2.166-8.538 9.417 6.78-4.112-15.663-.345 9.072ZM16.383 35.467l3.076-13.905 7.125-1.978-.031 15.946-2.7-.031v-6.843l-4.77.063v6.811z" style="fill:#fff;fill-opacity:1;stroke:none;stroke-width:.28541917px;stroke-linecap:butt;stroke-linejoin:miter;stroke-opacity:1"/><path d="m19.18 26.324 4.572-4.428.01 4.45z" style="fill:#e6523e;fill-opacity:1;stroke:none;stroke-width:.28541917px;stroke-linecap:butt;stroke-linejoin:miter;stroke-opacity:1"/><path d="m29.3 22.24-3.963 23.923 4.008-.03-.045-10.232 6.97.044.022 10.21 4.017-.022.023-23.927-3.996 10.21h-7.013z" style="fill:#fff;fill-opacity:1;stroke:none;stroke-width:.07011873;stroke-linecap:butt;stroke-linejoin:miter;stroke-miterlimit:4;stroke-dasharray:none;stroke-opacity:1"/><path d="M47.678 34.84h2.73l.032-15.978-7.408 1.884-2.73 14.156 2.73-.062v-6.812l4.677.063z" style="fill:#fff;fill-opacity:1;stroke:none;stroke-width:.28541917px;stroke-linecap:butt;stroke-linejoin:miter;stroke-opacity:1"/><path d="m43.123 25.682 4.541-4.345.005 4.355z" style="fill:#e6523e;fill-opacity:1;stroke:none;stroke-width:.10787497;stroke-linecap:butt;stroke-linejoin:miter;stroke-miterlimit:4;stroke-dasharray:none;stroke-opacity:1"/><path d="m53.17 29.849-4.739 14.596 2.48.47 1.695-8.38 5.242 9.667 3.076-15.349-4.112 7.816z" style="fill:#fff;fill-opacity:1;stroke:none;stroke-width:.28541917px;stroke-linecap:butt;stroke-linejoin:miter;stroke-opacity:1"/></svg>