<svg xmlns="http://www.w3.org/2000/svg" width="380" height="380"><circle cx="190" cy="190" r="190" fill="#fcdc6c" fill-rule="evenodd"/><g fill-rule="evenodd"><path fill="#fcdc6c" d="M156.343 40.589c-.148.148-.268 2.84-.268 5.986v5.716l-35.723.208-.11 5.881-.11 5.88-10.866.107-10.866.106-.11 5.876-.11 5.877-5.878.11-5.876.11-.223 9.756-9.755.223-.11 5.876-.11 5.878-5.878.11-5.876.11-.106 10.866-.107 10.866-5.88.11-5.881.11-.104 17.85-.104 17.852-5.883.11-5.883.11v67.454l5.883.11 5.882.11.105 16.854.104 16.852 5.881.11 5.88.11.107 10.867.106 10.865 5.887.11 5.887.11v5.754c0 3.617.157 5.85.422 6.014.233.144 5.082.13 10.777-.03l10.354-.291v-5.454c0-6.822-.413-6.412 6.466-6.412h5.508v-4.51c0-5.657-.188-5.469 5.469-5.469h4.51v-11.175h-4.51c-5.743 0-5.469.324-5.469-6.466v-5.508h-5.508c-6.79 0-6.466.274-6.466-5.469v-4.51h-5.508c-3.751 0-5.66-.152-5.987-.479-.688-.688-.688-35.073 0-35.762.327-.326 2.236-.479 5.987-.479h5.508v-10.497c0-12.595-.643-11.455 6.466-11.455h5.508v-16.484c0-19.29-.578-17.442 5.469-17.442h4.51v-11.495c0-13.738-.668-12.453 6.466-12.453h5.508v-10.497c0-12.595-.644-11.456 6.466-11.456h5.508v-5.508c0-6.883-.417-6.465 6.466-6.465h5.508v-4.51c0-5.657-.189-5.469 5.468-5.469h4.51V70.34c0-3.752.153-5.66.479-5.987.691-.691 45.049-.691 45.74 0 .327.327.48 2.235.48 5.987v5.508h5.507c6.79 0 6.466-.274 6.466 5.468v4.51h5.508c6.883 0 6.466-.417 6.466 6.466V97.8h4.51c5.952 0 5.469-1.012 5.469 11.456v10.497h5.508c7.133 0 6.466-1.285 6.466 12.453V143.7h5.508c7.11 0 6.466-1.14 6.466 11.455v10.497h4.51c6.047 0 5.468-1.847 5.468 17.442v16.484h5.539c4.194 0 5.648.133 5.99.545.326.392.424 5.513.349 18.26l-.104 17.716-5.875.11-5.875.11-.112 4.88-.112 4.878-9.758.224-.11 5.875-.11 5.875-5.887.11-5.887.11v11.155h5.508c6.79 0 6.466-.274 6.466 5.468v4.51h4.51c5.737 0 5.468-.315 5.468 6.403v5.445l8.445.262c4.646.145 9.945.264 11.775.264h3.329v-11.974h11.974v-21.953h9.978v-33.926h11.979l-.103-33.826-.102-33.827-5.883-.11-5.883-.11-.104-17.851-.104-17.85-4.883-.112-4.882-.113-.107-10.863-.106-10.865-5.876-.11-5.877-.11-.11-5.878-.111-5.876-5.875-.11-5.875-.11-.112-4.88-.112-4.878-5.876-.11-5.877-.11-.11-5.878-.11-5.876-10.866-.106-10.867-.107-.11-5.88-.11-5.881-16.852-.104-16.854-.105-.11-5.882-.11-5.883-33.558-.102c-18.457-.056-33.68.02-33.827.166m43.816 58.119c-.113.29-.154 2.945-.092 5.898l.112 5.368 5.875.11 5.875.11.112 4.88.112 4.878 11.8.222-.114-4.9-.111-4.9-5.877-.112-5.877-.11-.11-5.877-.11-5.876-5.696-.11c-4.446-.087-5.74.004-5.9.419M144.5 161.262v4.79h11.575v-9.58H144.5zm67.852 0v4.79h11.575v-9.58h-11.575zm-55.967 45.003-.11 5.887-23.728.211-.11 5.882-.11 5.88-5.888.112-5.887.11V235.5h35.124v-5.508c0-3.752.152-5.66.479-5.987.753-.753 33.18-.681 33.808.075.311.375.424 2.399.348 6.286l-.11 5.733-23.749.211v9.168h33.128v-4.51c0-5.742-.324-5.468 6.466-5.468h5.508v-11.176h-5.508c-6.883 0-6.466.417-6.466-6.466v-5.508h-4.51c-5.743 0-5.468.325-5.468-6.466v-5.508h-33.107zm-58.022 98.037c-.103.269-.136 2.904-.075 5.857l.112 5.368 10.865.106 10.863.107.113 4.882.111 4.883 35.702.208.11 5.883.11 5.883 33.827.102 33.826.103v-11.98h33.926v-9.977h21.974l-.11-5.888-.11-5.887-90.528-.069c-71.063-.055-90.568.036-90.716.42"/><path fill="#fcc40c" d="m144.41 24.66-.112 5.887-23.723.211-.113 4.884-.112 4.883-10.865.106-10.866.107-.11 5.88-.11 5.881-10.866.106-10.867.107-.11 5.88-.11 5.881-5.876.11-5.878.11-.11 5.878-.11 5.876-5.881.11-5.88.11-.107 10.867-.106 10.865-5.881.11-5.88.11-.107 10.867-.106 10.865-4.883.112-4.884.113-.105 11.861-.106 11.862-5.887.111-5.888.11v90.96l5.888.11 5.887.11.106 10.865.106 10.863 4.883.113 4.883.112.106 10.865.107 10.867 5.88.11 5.881.11.106 11.863.106 11.865 5.88.11 5.882.11.11 5.876.11 5.877 5.878.11 5.876.111.112 4.883.112 4.883 10.864.107 10.864.105.11 5.882.11 5.88 10.867.106 10.865.106.111 5.881.11 5.882 23.727.211.112 4.89.113 4.889h90.952l.113-4.89.112-4.889 10.865-.106 10.866-.106.11-5.88.11-5.882 10.866-.106 10.867-.106.11-5.88.11-5.882 23.724-.211.112-4.884.112-4.883 5.876-.11 5.877-.11.11-5.878.111-5.876 4.883-.112 4.884-.112.106-11.862.105-11.862 5.882-.11 5.88-.11.106-10.867.106-10.865 5.881-.11 5.88-.11.107-10.867.106-10.865 4.89-.112 4.889-.113v-90.952l-4.89-.113-4.889-.112-.106-11.863-.105-11.864-5.882-.11-5.88-.11-.107-10.866-.106-10.866-5.88-.11-5.882-.11-.105-10.865-.107-10.864-4.883-.112-4.883-.112-.11-5.876-.11-5.878-5.878-.11-5.876-.11-.11-5.881-.11-5.881-23.728-.212-.11-5.881-.11-5.88-10.867-.107-10.865-.106-.112-4.883-.113-4.883-10.863-.106-10.864-.106-.111-5.887-.11-5.888h-90.96zm79.427 21.748.11 5.882 16.854.105 16.852.104.11 5.881.11 5.88 10.867.107 10.865.106.11 5.876.11 5.877 5.878.11 5.876.11.112 4.88.112 4.879 5.875.11 5.875.11.11 5.876.11 5.878 5.878.11 5.876.11.106 10.865.107 10.863 4.882.113 4.883.111.104 17.85.104 17.852 5.883.11 5.883.11.102 33.827.103 33.826h-11.98v33.926h-9.977v21.953h-11.974v11.974h-11.554l-.111 6.086-.11 6.087h-12.373l-.11-5.875-.11-5.875-9.758-.224-.11-5.876-.11-5.877-5.878-.11-5.876-.11-.112-4.88-.112-4.879-5.875-.11-5.875-.11v-12.373l5.876-.11 5.877-.11.11-5.878.11-5.876 5.876-.11 5.875-.11.112-4.88.112-4.878 4.89-.112 4.889-.113v-35.074l-4.89-.112-4.89-.112-.103-16.853-.105-16.853-5.882-.11-5.883-.11-.106-10.866-.107-10.866-5.88-.11-5.881-.11-.106-11.863-.106-11.861-4.883-.113-4.883-.112-.106-10.865-.107-10.866-5.88-.11-5.881-.11-.111-5.877-.11-5.877-5.877-.11-5.876-.11-.112-4.89-.113-4.89h-45.052l-.113 4.89-.111 4.89-9.758.223-.11 5.875-.11 5.875-5.882.11-5.88.11-.107 10.867-.106 10.865-5.887.111-5.887.11v23.117l23.748.211-.128 10.971c-.07 6.035-.16 11.001-.2 11.038-.039.037-5.46.13-12.045.205l-11.974.138-.105-10.877-.107-10.876h-11.154l-.105 16.863-.104 16.864-4.883.111-4.882.113-.107 10.863-.106 10.865-5.887.11-5.887.11v35.103h11.154l.11-5.887.111-5.887 9.758-.224.11-5.875.11-5.875 5.877-.111 5.877-.11.11-5.877.11-5.876 23.724-.212.112-4.883.112-4.884H190.2l.223 9.755 9.755.224.11 5.88.11 5.882 23.728.212V236.1l-5.875.11-5.876.11-.111 4.88-.112 4.878-5.876.11-5.878.11-.11 5.878-.11 5.876h-44.304l-.11-5.887-.11-5.887H120.55v11.154l5.887.11 5.887.11.111 5.877.11 5.877 5.877.11 5.876.11.106 10.866.107 10.867 5.88.11 5.881.11.11 6.087.11 6.087h55.04l.11-6.087.11-6.087 5.88-.11 5.881-.11.107-10.867.106-10.865h12.373v22.351l-5.887.111-5.888.11v11.549l27.64.101 27.64.103.11 5.887.11 5.888h-21.973v9.978h-33.926v11.979l-67.653-.205-.11-5.883-.11-5.883-35.702-.208-.111-4.883-.113-4.882-10.863-.107-10.865-.106v-11.575l45.302-.206v-11.547l-5.888-.11-5.887-.11-.105-10.877-.107-10.876h-11.138l-.113 4.889-.112 4.89-9.757.223-.11 5.875-.11 5.875-5.877.111-5.877.11-.11 5.877-.11 5.876H86.024l-.11-6.074-.11-6.074-4.68-.112-4.68-.113-.11-5.876-.11-5.877-5.877-.11-5.876-.11-.106-10.866-.107-10.867-5.88-.11-5.881-.11-.104-16.852-.105-16.854-5.882-.11-5.883-.11v-67.454l5.883-.11 5.883-.11.104-17.851.104-17.85 5.881-.111 5.88-.11.107-10.866.106-10.866 5.876-.11 5.877-.11.11-5.878.11-5.876 9.756-.223.223-9.755 5.876-.11 5.878-.11.11-5.878.11-5.876 10.866-.106 10.866-.107.11-5.88.11-5.881 35.723-.208v-5.716c0-3.145.12-5.838.268-5.986s15.37-.222 33.827-.166l33.558.102zm-11.974 57.867.11 5.878 5.877.11 5.877.11.111 4.9.113 4.9-11.8-.22-.11-4.88-.113-4.878-5.875-.11-5.875-.111-.112-5.368c-.148-7.078-.744-6.448 5.991-6.318l5.696.111zm12.134 50.596c-.07 6.035-.16 11.001-.2 11.038-.038.037-5.459.13-12.044.205l-11.974.138-.107-10.771c-.058-5.924-.018-11 .09-11.281.154-.403 2.755-.488 12.28-.406l12.084.106zM110.573 240.89v4.59h9.18v-9.18h-9.18z"/><path fill="#947404" d="M143.7 11.987v5.987h-33.926v11.974H97.8v9.978H75.848V51.9H63.874v11.974H51.9v11.974H39.926V97.8h-9.978v11.974H17.974v33.927H6v92.598h11.974v33.927h11.974v9.978h9.978v23.948H51.9v11.974h11.974v9.978h11.974v11.974H97.8v11.974h11.974v9.978h33.927V374h92.598v-13.97h33.927v-9.978h9.978v-11.974h23.948v-11.974h11.974v-9.978h9.978v-11.974h11.974v-23.948h11.974v-9.978h9.978v-33.927H374v-92.598h-13.97v-33.927h-9.978V97.8h-11.974V75.848h-11.974V63.874h-9.978V51.9h-11.974V39.926h-23.948v-9.978h-9.978V17.974h-33.927V6h-92.598zm92.51 12.467.11 5.88 10.866.107 10.865.106.112 4.883.112 4.883 10.864.106 10.864.106.111 5.881.11 5.881 23.727.212.11 5.876.11 5.877 5.878.11 5.876.111.11 5.875.11 5.875 9.758.224.106 10.865.107 10.867 5.88.11 5.881.11.106 10.866.107 10.866 5.88.11 5.881.11.106 11.863.106 11.86 4.883.114 4.884.111.101 45.459c.074 33.26-.02 45.603-.348 46-.331.398-1.653.541-4.991.541h-4.541v10.497c0 12.595.644 11.456-6.466 11.456h-5.508v10.497c0 12.594.644 11.455-6.466 11.455h-5.508v11.495c0 13.604.506 12.453-5.468 12.453h-4.51v5.508c0 6.883.417 6.466-6.466 6.466h-5.508v4.51c0 5.974 1.151 5.468-12.453 5.468h-11.495v5.508c0 7.11 1.14 6.466-11.455 6.466h-10.497v5.508c0 7.11 1.14 6.466-11.456 6.466H236.3v4.541c0 3.338-.143 4.66-.542 4.991-.396.328-12.739.422-46 .348l-45.458-.101-.111-4.884-.113-4.883-23.724-.212-.11-5.88-.11-5.881-10.866-.107-10.866-.106-.11-5.88-.11-5.881-10.867-.107-10.865-.106-.112-4.878-.112-4.88-5.875-.11-5.875-.11-.11-5.876-.11-5.877-5.878-.11-5.876-.11-.106-11.864-.106-11.864-5.88-.11-5.882-.11-.106-10.865-.106-10.864-4.883-.112-4.883-.112-.106-10.865-.107-10.867-5.88-.11-5.881-.11-.102-45.99-.1-45.99 5.887-.109 5.89-.11.105-11.863.106-11.861 4.884-.113 4.883-.112.106-10.865.106-10.866 5.88-.11L52.1 98l.106-10.866.106-10.867 5.88-.11 5.882-.11.11-5.876.11-5.878 5.878-.11 5.876-.11.11-5.881.11-5.88 10.867-.107L98 52.1l.11-5.881.11-5.88 10.867-.107 10.865-.106.112-4.883.113-4.884 23.723-.211.111-5.89.11-5.888 45.99.101 45.989.102zM166.451 70.46v5.787h45.102V64.673h-45.102zm-9.978 10.989v4.802l4.69-.112 4.69-.113.112-4.69.112-4.69h-9.604zm55.878-.013v4.79h11.176v-9.58h-11.176zM144.5 92.423v5.799L155.874 98l.222-11.375h-11.597zm79.826-.01V98.2h11.176V86.625h-11.176zm-91.8 16.974v10.788l11.375-.222.107-10.676.106-10.677h-11.588zm103.774-.01v10.776h9.18V98.599h-9.18zm-115.748 22.961v11.786l11.375-.222.212-23.349H120.55zm125.727-.01V144.1h11.175V120.55h-11.175zm-135.705 28.95v16.776l4.69-.112 4.69-.113.103-16.663.105-16.664h-9.588zm21.952-6v10.777h11.176v-4.71c0-5.985-.374-5.667 6.665-5.667h5.708v-11.176h-23.549zm67.852 0v10.777h11.176v-4.71c0-5.985-.373-5.667 6.666-5.667h5.707v-11.176h-23.549zm57.875 0v10.777h11.175V144.5h-11.175zm11.974 27.94v16.763h9.18v-33.527h-9.18zm-171.627 5.998V200l11.375-.221.107-10.677.106-10.677H98.599zm57.874 5.776v4.59H190v-9.18h-33.527zm-69.848 22.95v17.562H98.2v-35.124H86.625zm45.9-11.974v5.588h23.15v-11.176h-23.15zm57.874 0v5.588h9.58v-11.176h-9.58zm89.805 11.974v17.562h11.176v-35.124h-11.176zm-159.653 0v5.588h11.176v-11.176H120.55zm79.826 0v5.588h5.508c6.9 0 6.466-.447 6.466 6.677v5.718l11.376-.221.211-23.35h-23.56zm-89.805 12.174v5.787h9.18v-11.575h-9.18zm45.811.1-.11 5.887-35.723.207v9.563l35.722.208.111 5.89.11 5.891 21.643-.103 21.642-.103.221-11.375h-16.694c-19.514 0-17.653.567-17.653-5.389 0-5.88-1.139-5.388 12.453-5.388H189.6v-11.176h-33.107zM98.6 240.889v4.59h11.575v-9.18H98.599zm101.778.21v4.801l11.376-.221.112-4.69.112-4.69h-11.6zm69.849-.21v4.59h9.18v-9.18h-9.18zm-159.653 10.976v5.588h9.579v-11.175h-9.58zm147.68 0v5.588h11.175v-11.175h-11.175zM120.55 264.05v5.798l11.375-.221.222-11.375H120.55zm125.727-.011v5.787h11.175v-11.574h-11.175zm-135.705 10.99v4.8l4.69-.111 4.69-.113.112-4.69.112-4.69h-9.604zm21.952 5.985v10.788l11.375-.222.107-10.677.106-10.676h-11.588zm91.8 0v10.788l11.376-.222.106-10.677.106-10.676h-11.588zm33.927-5.998v4.79h11.175v-9.58h-11.175zM98.599 286.002v5.799l11.375-.222.222-11.375H98.599zm171.627-.01v5.787h9.18v-11.575h-9.18zM86.625 297.976v5.799L98 303.553l.222-11.375H86.625zm57.874-.21v5.587h11.575v-11.175h-11.575zm67.852 0v5.587h11.575v-11.175h-11.575zm67.853.21v5.799l11.375-.222.222-11.375h-11.597z"/><path fill="#a8ac38" d="M236.06 24.36c0 3.183.062 4.485.138 2.894s.075-4.196 0-5.788-.138-.289-.138 2.894m21.946 10.976c0 2.635.065 3.66.144 2.28s.077-3.536-.002-4.79c-.08-1.253-.143-.124-.142 2.51m21.958 10.976c0 3.184.062 4.486.138 2.894s.076-4.196 0-5.787-.138-.29-.138 2.893m23.948 11.974c0 3.183.062 4.486.138 2.894s.076-4.196 0-5.787-.138-.29-.138 2.893m-137.59 6.25c-.15.149-.27 2.839-.27 5.978v5.708l-4.89.113-4.889.112-.111 4.878-.112 4.88-5.875.11-5.876.11-.11 5.876-.11 5.878-5.877.11-5.877.11-.105 10.866-.107 10.866-5.88.11-5.882.11-.105 11.863-.106 11.86-4.883.114-4.884.111-.104 16.853-.104 16.853-5.883.11-5.883.11-.106 10.866-.106 10.866-5.88.11-5.882.11v35.524l5.875.11 5.876.11.111 4.88.112 4.878 5.876.11 5.878.11.11 5.878.11 5.876 4.89.112 4.889.112v11.924l-4.89.113-4.889.112-.112 4.878-.111 4.88-5.876.11-5.875.11-.11 5.876-.11 5.878-5.878.11-5.876.11-.016 5.588-.017 5.588.127-5.477.128-5.478 5.876-.11 5.876-.11.11-5.877.11-5.877 5.878-.11 5.876-.11.224-9.756 9.754-.223.111-5.887.11-5.887 11.354-.146-6.585-.272c-3.623-.148-8.427-.295-10.677-.326l-4.091-.055v-11.15l4.89-.113 4.888-.112.112-4.885.113-4.886 35.697-.207.111-5.887.11-5.888H189.6v11.164l-11.675.112-11.674.113 11.885.092 11.884.094-.11-5.887-.11-5.887h-33.528l-.11 5.887-.11 5.887h-35.901v-11.974h11.974v-11.974h23.948v-11.974h33.905l.11 5.887.11 5.888 9.758.223.11 5.875.11 5.876 5.788.018 5.788.017-5.688-.128-5.688-.129v-11.154l11.675-.076 11.675-.076-13.371-.267c-7.354-.147-14.853-.292-16.664-.323l-3.293-.056v-11.176l4.69-.068 4.69-.07-5.588-.282c-3.073-.154-12.817-.302-21.653-.329l-16.065-.049v-9.17l33.327-.222-16.763.006-16.764.007-.111 4.883-.113 4.883-23.724.212-.11 5.876-.11 5.877-5.877.11-5.877.11-.11 5.876-.11 5.875-9.758.224-.11 5.887-.11 5.887h-3.084c-1.695-.002-6.988-.12-11.763-.264l-8.681-.262v-34.976l5.887-.11 5.887-.11.106-10.866.107-10.866 5.88-.11 5.881-.11.104-16.852.105-16.85 4.884-.113 4.885-.112.106-11.863.106-11.864 5.881-.11 5.881-.11.106-10.866.107-10.866 5.88-.11 5.881-.11.111-5.877.11-5.877 5.877-.11 5.876-.11.224-9.756 9.755-.223.11-5.887.11-5.887h45.081l.049 5.088c.027 2.8.175 7.604.33 10.677l.28 5.588.07-4.69.07-4.69h11.175l.055 4.092c.03 2.25.178 7.054.326 10.676L224.18 98l.145-11.375h11.176l.053 4.29c.029 2.36.175 9.859.324 16.664l.272 12.373.15-21.353h9.18l.055 9.28c.031 5.103.176 15.296.324 22.65l.266 13.371.076-11.674.077-11.675h11.175l.053 10.278a1639 1639 0 0 0 .324 22.65l.272 12.373.15-21.353h11.175l.057 8.681c.032 4.775.177 17.213.321 27.64l.265 18.959.156-33.328h9.049l.264 25.211c.146 13.866.266 29.487.266 34.713v9.5l-4.89.113-4.89.112-.11 4.878-.113 4.88-5.875.11-5.875.11-.11 5.876-.11 5.877-5.878.11-5.876.111-.016 5.588-.017 5.588.128-5.488.127-5.488h11.153l.05 5.088c.026 2.8.174 7.604.328 10.677l.282 5.588.07-4.69.069-4.69h11.175l.055 4.092c.031 2.25.178 7.054.326 10.676l.272 6.586.146-11.375h9.085l.347 11.674c.28 9.416.367 10.576.457 5.998l.11-5.676 11.354-.246-11.753-.175-.11-5.888-.11-5.887-9.756-.223-.223-9.755-5.887-.11-5.888-.11v-11.954h11.974v-11.974h9.979V235.9h11.982l-.208-35.722-5.883-.11-5.882-.11-.105-16.854-.104-16.852-4.883-.112-4.883-.113-.106-10.863-.106-10.865-5.881-.11-5.882-.11-.105-11.864-.106-11.864-5.881-.11-5.88-.11-.107-10.866-.106-10.866-9.758-.223-.11-5.876-.11-5.875-5.876-.11-5.875-.11-.112-4.88-.111-4.878-5.877-.11-5.877-.11-.11-5.878-.11-5.876-22.581-.103c-12.42-.057-22.703.018-22.85.166m149.564 5.724c0 3.183.062 4.486.138 2.894s.076-4.196 0-5.787-.138-.29-.138 2.893m9.994 16.963c0 5.928.056 8.408.124 5.513s.068-7.746 0-10.777-.124-.663-.124 5.264m11.974 21.953c0 5.927.056 8.407.124 5.512s.068-7.745 0-10.777-.124-.662-.124 5.265m11.976 22.95c0 6.476.055 9.125.122 5.887s.067-8.536 0-11.774-.122-.59-.122 5.887m-217.706 22.75.198 10.976.214-21.341 11.669-.106 11.667-.107-11.974-.198-11.974-.2zm68.033-10.27c-.107.277-.144 5.171-.08 10.876l.113 10.37.185-21.341 11.675-.112 11.675-.113-11.688-.092c-9.131-.074-11.73.017-11.88.412M359.82 190c0 25.135.048 35.418.106 22.85s.06-33.133 0-45.7-.106-2.285-.106 22.85m-212.418-34.028c1.71.075 4.405.074 5.987-.001 1.581-.076.181-.138-3.112-.137s-4.587.062-2.875.138m67.852 0c1.711.075 4.405.074 5.987-.001 1.582-.076.182-.138-3.111-.137s-4.587.062-2.876.138m-71.409 5.29c0 2.745.064 3.867.142 2.495s.078-3.617 0-4.99-.142-.249-.142 2.495m67.853 0c0 2.745.064 3.867.141 2.495s.078-3.617 0-4.99-.141-.249-.141 2.495m-56.032 44.703v5.588h-23.15v-11.176h23.15zM291.37 217.94v17.562h-11.176v-35.124h11.176zm-159.653 0v5.588h-11.176v-11.176h11.176zm-11.793 16.992c.161 5.834.199 10.7.085 10.815-.115.114-4.981.076-10.814-.085l-10.606-.292v-9.049l5.887-.11 5.887-.11.11-5.887.11-5.888h9.049zm92.106-4.929-.088 5.877-5.887.11-5.887.11-.112 4.886-.113 4.884-33.701.222 16.963-.006 16.963-.007.112-4.89.112-4.889h5.788c6.838 0 6.223.67 6.062-6.604l-.125-5.57zm-190.575 6.195c1.591.075 4.195.075 5.787 0s.29-.138-2.894-.138-4.485.062-2.893.138m328.365.21c-.106.276-.143 5.17-.08 10.875l.113 10.37.093-10.663.093-10.665 4.69-.125 4.69-.127-4.703-.086c-3.49-.064-4.752.045-4.896.42m-184.03 4.483c0 2.635.065 3.66.144 2.28s.077-3.536-.002-4.79-.142-.124-.141 2.51m113.603 0v4.59h-9.18v-9.18h9.18zm-123.173 10.976c0 3.184.062 4.486.138 2.894s.076-4.196 0-5.787-.138-.29-.138 2.893m113.194 0v5.588h-11.175v-11.175h11.175zM33.05 258.15c1.38.078 3.536.077 4.79-.002 1.253-.079.124-.143-2.51-.142-2.635 0-3.66.065-2.28.144m304.797.21c-.106.277-.143 5.171-.08 10.876l.113 10.37.186-21.331 11.375-.246-5.7-.088c-4.297-.066-5.748.037-5.894.418m-205.732 22.245.198 10.976.214-21.332 5.682-.111 5.68-.113-5.987-.198-5.987-.198zm92.067-10.51c-.147.145-.267 5.08-.267 10.965v10.7l-5.887.11-5.887.11v11.575l11.575.032-5.688-.127-5.688-.125v-11.134l5.888-.11 5.887-.11.106-10.866.106-10.866 11.363-.245-5.621-.088c-3.092-.048-5.742.032-5.887.179M43.405 280.1c1.591.076 4.196.076 5.787 0s.29-.138-2.894-.138-4.485.062-2.893.138m282.465.208c-.106.277-.142 5.62-.08 11.874l.112 11.37.093-11.664.094-11.663 11.375-.246-5.7-.088c-4.289-.065-5.748.037-5.894.417m-181.784 17.257.2 5.987 11.574.032-5.687-.127-5.688-.125V292.2l5.688-.112 5.687-.113-5.987-.197-5.987-.199zm-88.707 6.483c1.591.076 4.196.076 5.787 0s.29-.138-2.894-.138-4.485.062-2.893.138m260.513.222c-.11.286-.142 2.935-.075 5.888l.125 5.368.088-5.675.087-5.675 4.69-.126 4.69-.127-4.703-.086c-3.554-.064-4.751.041-4.902.433m-248.54 11.752c1.592.076 4.197.076 5.788 0s.29-.138-2.894-.138-4.485.062-2.893.138m236.555.228c-.11.289-.142 2.489-.072 4.89l.13 4.364.169-9.357 11.375-.246-5.7-.088c-4.404-.067-5.746.032-5.902.437m-221.967 9.752c3.031.068 7.88.068 10.777 0s.415-.124-5.512-.124-8.296.056-5.265.124m198.02.22c-.11.286-.143 2.935-.075 5.888l.124 5.368.088-5.681.087-5.682 11.674-.112 11.675-.113-11.688-.092c-9.29-.075-11.727.013-11.886.425m-176.067 11.753c3.032.068 7.881.068 10.777 0s.415-.124-5.512-.124-8.296.056-5.265.124m154.115.22c-.11.286-.143 2.935-.075 5.888l.125 5.368.088-5.68.087-5.682 10.676-.113 10.677-.114-10.69-.092c-8.47-.074-10.73.015-10.888.426M126.215 349.95c3.238.067 8.536.067 11.774 0s.589-.122-5.887-.122-9.125.055-5.887.122m109.83.227c-.11.288-.142 2.488-.071 4.889l.129 4.365.085-4.683.084-4.684 10.677-.113 10.677-.114-10.69-.092c-8.527-.074-10.73.013-10.89.432m-68.923 9.752c12.567.06 33.133.06 45.7 0s2.285-.106-22.85-.106-35.418.048-22.85.106"/><path fill="#e09c40" d="m144.19 24.26.087 5.888.123-5.686.123-5.687 91.579-.205-92-.197zm92.057 6.194c.169.168 5.144.257 11.057.199l10.75-.107-11.057-.199c-6.08-.11-10.918-.062-10.75.107M120.24 35.237l.086 4.889.126-4.684.126-4.684 11.663-.111 11.661-.113-11.874-.093-11.874-.094zm137.96 5.195c.168.168 5.143.258 11.057.199l10.75-.107-11.058-.199c-6.08-.11-10.918-.061-10.75.107m-159.912 5.78.088 5.888.123-5.68.123-5.682 10.666-.113 10.665-.114-21.752-.186zm181.865 6.192c.168.169 5.593.258 12.054.2l11.748-.107-12.054-.199c-6.63-.11-11.917-.061-11.748.106M76.335 58.187l.088 5.887.123-5.68.122-5.682 10.666-.113L98 52.485l-21.753-.186zM304.1 64.384c.171.172 2.903.26 6.068.199l5.756-.113-6.068-.198c-3.337-.11-5.928-.058-5.756.112M64.36 70.161l.088 5.887.245-11.354 11.354-.245-11.775-.176zm147.51.124.12 5.975-46.14-.212.395 9.978.114-4.687.114-4.686 22.838-.103 22.838-.103.11-5.757c.062-3.165-.027-5.896-.199-6.067-.17-.172-.256 2.376-.19 5.662m104.203 6.075c.172.173 2.454.262 5.07.198l4.756-.115-5.07-.198c-2.788-.108-4.929-.057-4.756.115M52.387 87.124 52.48 98l.114-10.666.113-10.666 11.362-.245-11.775-.176zm171.457-5.849.123 4.992-5.99-.121c-3.296-.066-5.852.02-5.68.19.171.172 2.902.262 6.067.2l5.757-.11.113-4.757c.062-2.616-.027-4.898-.2-5.07-.172-.173-.257 1.931-.19 4.676m-67.776 10.738.197 5.987.113-5.675.112-5.675 4.679-.114 4.679-.115-9.979-.395zm79.747.239.121 5.989-5.989-.121c-3.294-.066-5.848.02-5.677.19.172.172 2.903.262 6.068.2l5.757-.11.11-5.757c.062-3.165-.027-5.896-.2-6.068-.17-.172-.256 2.383-.19 5.677m-91.72 16.724.198 10.976.214-21.331 5.682-.112 5.68-.113-5.987-.197-5.987-.199zM326.049 98.31c.172.172 2.903.26 6.068.199l5.756-.113-6.067-.197c-3.338-.11-5.929-.06-5.757.111M40.41 109.076l.093 10.876.114-10.665.113-10.666 11.362-.246-11.775-.175zm205.374.143.112 10.979-4.983-.123c-2.74-.068-4.841.018-4.669.19s2.455.262 5.07.2l4.757-.114.107-10.75c.058-5.912-.032-10.887-.2-11.056s-.255 4.635-.194 10.674M132.03 132.046l.112 12.093-6.099-.119-6.098-.12.4 33.926.103-16.652.105-16.654 5.882-.11 5.883-.11.212-23.727 5.682-.112 5.681-.113-5.987-.197-5.987-.199zm205.992-11.783c.172.171 2.903.26 6.068.198l5.756-.113-6.067-.197c-3.338-.11-5.929-.059-5.757.112M30.432 132.026l.093 11.874.113-11.661.111-11.663 4.684-.126 4.684-.126-9.779-.172zm227.326.14.11 11.974-5.98-.12c-3.288-.066-5.839.02-5.667.19.171.172 2.902.262 6.068.2l5.756-.11.106-11.75c.059-6.46-.031-11.885-.2-12.053-.167-.169-.255 5.082-.193 11.669m92.239 12.047c.173.172 2.455.261 5.07.197l4.757-.115-5.07-.197c-2.79-.109-4.93-.057-4.757.115M18.468 190.1l.099 46 .205-91.58 11.373-.245-11.775-.175zm137.6-40.094.198 5.868.113-5.556c.063-3.056-.027-5.696-.197-5.869-.172-.172-.223 2.329-.113 5.557m67.852 0 .198 5.868.113-5.556c.062-3.056-.027-5.696-.198-5.869-.172-.172-.223 2.329-.113 5.557m45.814 5.11.112 10.976-5.98-.12c-3.29-.066-5.841.02-5.67.19.172.172 2.903.262 6.068.2l5.757-.11.107-10.75c.058-5.913-.032-10.888-.2-11.057s-.255 4.633-.194 10.67m-125.557 5.848.085 4.89.127-4.68.126-4.678 11.35-.246-11.774-.175zm67.852 0 .086 4.888.127-4.678.125-4.68 11.35-.245-11.774-.175zm-79.563 5.2c.173.17 2.813.26 5.87.197l5.555-.112-5.868-.198c-3.228-.11-5.729-.059-5.557.113m67.853 0c.172.17 2.812.26 5.869.197l5.556-.112-5.869-.198c-3.228-.11-5.728-.059-5.556.113m79.385 16.894.109 16.966-4.98-.123c-2.738-.067-4.837.018-4.664.19.172.173 2.454.262 5.07.2l4.756-.113.104-16.74c.058-9.206-.032-16.875-.2-17.043-.166-.166-.254 7.331-.195 16.663m-169.541 5.745.198 10.976.107-10.664.107-10.665 4.684-.114 4.682-.114-9.978-.396zm79.75 6.213.122 4.98-17.086-.11-17.086-.107.199 5.987.197 5.987.113-5.684.112-5.683 16.852-.104 16.853-.104.112-4.757c.063-2.615-.027-4.897-.2-5.07-.17-.172-.257 1.927-.189 4.665M98.098 217.86l.108 18.081-5.976-.12c-3.287-.066-5.837.02-5.665.19.172.173 2.903.262 6.068.2l5.756-.11.208-35.7 5.683-.112 5.684-.113-5.987-.198-5.987-.198zm101.788-11.852.121 5.991-4.99-.123c-2.746-.067-4.85.018-4.678.19.173.173 2.455.262 5.07.2l4.757-.113.11-5.757c.062-3.165-.027-5.896-.199-6.067-.17-.172-.256 2.384-.19 5.68m91.88 11.851.2 17.842.103-17.538c.058-9.645-.032-17.675-.2-17.841-.166-.167-.213 7.725-.103 17.537m-159.653-.12.197 5.988.113-5.682.112-5.682 11.664-.105 11.663-.107-11.974-.199-11.974-.2zm91.801 6.106.199 11.855.107-11.55c.058-6.35-.031-11.686-.2-11.854-.168-.168-.216 5.029-.106 11.55m-103.854 5.99.12 6.108-5.11-.122-5.108-.122.123 5.108.122 5.11-5.991-.12c-3.295-.066-5.85.02-5.68.19.173.172 2.904.262 6.069.2l5.756-.111.224-9.755 9.754-.223.111-5.876.11-5.877 5.678-.111 5.676-.113-5.987-.198-5.987-.198zm80.256-5.8c.171.172 2.902.26 6.067.199l5.757-.113-6.068-.198c-3.338-.11-5.928-.059-5.756.112m-10.329 5.795.198 5.869.112-5.556c.063-3.057-.027-5.697-.197-5.87-.172-.171-.223 2.33-.113 5.557m21.951 10.858.198 4.989.115-4.679.113-4.679 5.676-.112 5.675-.112-5.987-.198-5.987-.198zm67.853 0 .197 4.989.115-4.679.114-4.679 5.675-.112 5.675-.112-5.987-.198-5.987-.198zm-249.458 6.305.199 11.057.107-10.75c.058-5.913-.031-10.888-.199-11.057-.169-.168-.217 4.67-.107 10.75m135.795-6.006.087 5.089.251-9.767 11.662-.111 11.662-.113-11.874-.093-11.874-.094zm-46.066 10.799.12 6.11-4.991-.123c-2.744-.068-4.849.018-4.676.19.172.172 2.454.262 5.07.199l4.756-.113.111-5.883.11-5.883 35.701-.208-36.32-.4zm79.904-.122.198 5.987.113-5.677.111-5.676 5.677-.112 5.677-.113-5.987-.198-5.987-.198zm69.848 0 .198 5.987.113-5.675.111-5.675 4.68-.114 4.678-.115-9.978-.395zm-113.413 6.29c.167.166 9.991.256 21.834.199l21.529-.103-21.833-.2c-12.008-.11-21.697-.062-21.53.104m101.36 5.804.12 6.107-5.989-.12c-3.293-.066-5.848.02-5.676.19.171.172 2.902.262 6.068.2l5.756-.111.11-5.876.11-5.876 5.678-.112 5.677-.113-5.987-.198-5.987-.198zm-217.447 5.187.198 11.057.107-10.75c.059-5.913-.031-10.888-.199-11.056-.168-.169-.216 4.669-.106 10.75m91.72-5.07.12 5.988-12.214-.24.395 9.98.115-4.68.114-4.68 5.875-.11 5.874-.11.111-5.757c.062-3.165-.028-5.896-.2-6.067-.17-.172-.256 2.382-.19 5.676m11.966 16.964.113 10.977-5.981-.12c-3.29-.066-5.84.02-5.669.19.172.172 2.903.262 6.068.2l5.756-.11.107-10.75c.058-5.914-.032-10.889-.2-11.057s-.255 4.633-.194 10.67m91.888-.12.199 10.857.107-10.55c.058-5.802-.03-10.689-.2-10.857s-.216 4.579-.106 10.55m33.85-5.868.122 4.992-5.99-.121c-3.296-.066-5.852.02-5.68.19.171.172 2.902.262 6.067.2l5.757-.11.113-4.757c.063-2.616-.027-4.898-.2-5.07-.171-.173-.257 1.931-.19 4.676m-159.572 10.738.197 5.987.113-5.675.112-5.675 4.679-.114 4.678-.115-9.978-.395zm-57.874 6.306.199 12.054.107-11.748c.058-6.461-.031-11.886-.2-12.054-.167-.169-.215 5.118-.106 11.748m227.426-6.064.12 5.99-4.99-.122c-2.746-.068-4.85.018-4.677.19.172.172 2.454.262 5.07.199l4.756-.113.111-5.756c.062-3.165-.028-5.896-.2-6.068-.17-.172-.256 2.385-.19 5.68M98.194 297.566l.197 5.987.113-5.677.112-5.676 5.676-.112 5.677-.113-5.987-.197-5.987-.199zm125.726 0 .198 5.987.113-5.677.111-5.676 5.677-.112 5.677-.113-5.987-.197-5.987-.199zm-67.852.119.197 5.868.113-5.556c.063-3.056-.027-5.696-.197-5.87-.172-.17-.223 2.33-.113 5.558m135.705 0 .197 5.868.113-5.556c.063-3.056-.027-5.696-.198-5.87-.171-.17-.222 2.33-.112 5.558m-205.204 6.18c.173.17 2.813.26 5.87.197l5.555-.113-5.868-.197c-3.228-.11-5.729-.06-5.557.112m57.874 0c.173.171 2.813.26 5.87.198l5.555-.113-5.868-.197c-3.228-.11-5.729-.06-5.557.112m67.852 0c.173.171 2.813.26 5.87.198l5.556-.113-5.869-.197c-3.228-.11-5.728-.06-5.557.112m67.853 0c.173.171 2.813.26 5.87.198l5.555-.113-5.868-.197c-3.228-.11-5.729-.06-5.557.112m-215.88 5.994.197 6.068.113-5.756c.062-3.165-.027-5.897-.199-6.068-.17-.172-.221 2.419-.112 5.756m11.973 10.976.198 5.07.115-4.756c.064-2.616-.025-4.898-.198-5.07-.172-.173-.223 1.968-.115 4.756m21.954 10.977.197 6.067.113-5.756c.062-3.165-.027-5.896-.199-6.068-.17-.172-.221 2.419-.111 5.757m21.952 11.974.197 6.067.113-5.756c.062-3.165-.027-5.896-.198-6.068s-.222 2.419-.112 5.757m23.947 10.976.197 5.07.115-4.757c.064-2.615-.025-4.897-.197-5.07s-.224 1.968-.115 4.757"/><path fill="#e0c808" d="M235.57 24.436c-.04 3.225.062 5.948.226 6.05.165.103.252-1.638.194-3.868-.19-7.337-.344-8.136-.42-2.182m21.95 10.976c-.04 2.676.064 4.95.229 5.053.164.102.251-1.369.192-3.27-.188-6.095-.35-6.78-.422-1.783m21.956 10.976c-.04 3.225.061 5.948.226 6.05.165.103.251-1.637.193-3.867-.19-7.337-.344-8.137-.419-2.183m23.948 11.974c-.04 3.225.061 5.948.226 6.05.164.103.251-1.637.193-3.867-.19-7.338-.344-8.137-.419-2.183m-125.926 5.812c6.186.061 16.423.061 22.75 0 6.327-.062 1.266-.113-11.247-.113s-17.69.05-11.503.113m-11.76 5.974-.086 5.675-4.69.126-4.69.127 4.703.086c5.589.101 5.138.674 4.976-6.32l-.124-5.369zm149.664.188c-.04 3.225.061 5.948.226 6.05.164.103.251-1.637.193-3.868-.19-7.337-.344-8.136-.419-2.182m-100.351 5.809c1.591.075 4.195.075 5.787 0s.29-.138-2.894-.138-4.485.062-2.893.138m-59.287 4.98-.084 4.68-11.376.245 5.701.088c6.68.103 6.148.579 5.973-5.327l-.129-4.364zm55.864.186c-.039 2.677.065 4.95.23 5.053.164.102.25-1.369.192-3.27-.189-6.095-.35-6.78-.422-1.783M325.39 87.3c-.046 5.97.05 10.938.215 11.04s.254-3.076.198-7.062c-.192-13.529-.33-14.861-.413-3.978m-98.37-1.176c1.591.076 4.195.076 5.787 0s.29-.138-2.894-.138-4.485.062-2.894.138m-83.232 5.979-.086 5.677-11.376.245 5.701.088c6.733.104 6.138.734 5.974-6.318l-.125-5.369zm79.814.186c-.041 3.225.06 5.949.225 6.05.165.103.252-1.637.194-3.867-.19-7.337-.344-8.137-.42-2.183m15.01 5.809c1.38.078 3.536.077 4.79-.002 1.253-.079.124-.143-2.51-.142-2.635 0-3.66.065-2.28.144m-106.788 10.968-.092 10.666-11.376.245 5.701.088c6.86.106 6.115 1.516 5.974-11.294l-.114-10.37zm103.765.187c-.046 5.969.05 10.937.215 11.039s.254-3.076.198-7.062c-.192-13.529-.33-14.86-.413-3.977m101.778 0c-.045 5.969.051 10.937.216 11.039s.253-3.076.198-7.062c-.192-13.529-.33-14.86-.414-3.977m-88.391 10.797c1.591.076 4.196.076 5.787 0s.29-.138-2.894-.138-4.485.062-2.893.138m-129.13 11.964-.093 11.663-4.69.125-4.69.127 4.703.086c5.711.104 5.114 1.583 4.976-12.292l-.113-11.37zm125.716.189c-.047 6.518.05 11.934.215 12.036s.253-3.344.197-7.66c-.192-14.785-.327-16.218-.412-4.376m103.774 0c-.046 6.518.05 11.934.215 12.036s.253-3.344.198-7.66c-.193-14.785-.328-16.218-.413-4.376M136.52 143.983c10.505.281 19.865.29 19.696.017-.102-.165-5.519-.261-12.036-.215s-9.965.136-7.66.198m63.33-.016c-.37.368-.338 21.994.032 22.224.165.102.25-4.833.188-10.964l-.112-11.15 12.148.112c6.681.06 12.065-.024 11.962-.189-.229-.37-23.85-.402-24.218-.033m61.1.03c1.591.076 4.196.076 5.787 0s.29-.138-2.894-.138-4.485.062-2.893.138m-151.072 16.955-.095 16.653-11.375.245 5.7.088c4.262.066 5.75-.038 5.892-.41.106-.276.143-7.865.083-16.864l-.109-16.365zm21.942-5.8c-.046 5.969.05 10.937.215 11.039s.253-3.076.198-7.062c-.192-13.528-.33-14.86-.413-3.977m125.726 0c-.046 5.969.051 10.937.216 11.039s.253-3.076.197-7.062c-.191-13.528-.33-14.86-.413-3.977m101.789 34.736-.098 45.588-4.89.113-4.889.112-.106 10.865-.106 10.866-5.88.11-5.882.11-.106 10.866-.106 10.867-5.88.11-5.882.11-.105 11.862-.106 11.862-4.884.112-4.883.112-.11 5.876-.11 5.877-5.878.11-5.876.111-.112 4.883-.112 4.884-23.724.211-.11 5.882-.11 5.88-10.867.106-10.865.106-.11 5.881-.11 5.88-10.867.107-10.865.106-.112 4.888-.113 4.888-91.177.208 91.402-.005.111-4.884.113-4.882 10.863-.107 10.865-.106.11-5.881.11-5.88 10.867-.107 10.865-.106.11-5.881.11-5.881 23.728-.212.112-4.878.112-4.88 5.875-.11 5.875-.11.11-5.875.11-5.875 9.758-.224.106-11.863.106-11.864 5.881-.11 5.881-.11.106-10.866.107-10.867 5.88-.11 5.881-.11.106-10.876.107-10.877h4.795c3.47 0 4.849-.138 4.986-.499.104-.274.143-20.884.085-45.8l-.103-45.302zm-86.793-23.94c1.38.078 3.536.077 4.79-.002 1.253-.079.124-.142-2.51-.141-2.635 0-3.66.064-2.28.143m-3.02 17.142c-.049 9.262.046 16.923.21 17.026.273.169.267-12.628-.012-27.878-.06-3.293-.15 1.59-.198 10.852m-171.627 5.8-.093 10.666-11.375.246 5.7.087c6.86.106 6.116 1.516 5.975-11.294l-.114-10.37zm58.048.976c-.147.146-.266 2.39-.266 4.983v4.717l-23.749.212-.11 5.876-.11 5.877-5.877.11-5.877.11-.11 5.876-.11 5.875-9.758.224-.11 5.876-.11 5.876-5.479.128-5.477.127 5.588-.017 5.588-.016.11-5.876.11-5.875 9.758-.223.111-5.877.11-5.877 5.877-.11 5.876-.11.111-5.882.11-5.88 23.727-.212.112-4.898.113-4.898 17.111.109c9.413.059 17.03-.027 16.928-.192-.229-.37-33.828-.402-34.197-.033m35.855 9.975c3.793.29 8.493.312 8.322.036-.103-.164-2.377-.268-5.053-.229-2.676.038-4.147.125-3.269.193m91.102.034c1.591.075 4.196.075 5.787 0s.29-.138-2.893-.138-4.486.062-2.894.138M86.006 217.939c0 9.769.052 13.765.116 8.88.063-4.883.063-12.876 0-17.76-.064-4.885-.116-.889-.116 8.88m103.755-11.974c0 3.183.061 4.486.137 2.894s.076-4.196 0-5.787-.137-.29-.137 2.893m89.741 11.862-.095 17.65-4.89.112-4.89.112-.11 4.878-.113 4.88-5.875.11-5.875.11-.11 5.876-.11 5.877-5.878.11-5.876.11-.11 5.957c-.062 3.276.028 6.096.199 6.267s.256-2.458.191-5.845l-.12-6.157 11.814-.221.11-5.876.11-5.878 5.878-.11 5.876-.11.112-4.89.112-4.889h4.79c3.463 0 4.842-.138 4.981-.499.105-.274.143-8.312.083-17.86l-.109-17.363zm-75.132-5.993c10.505.282 19.865.29 19.696.017-.103-.164-5.52-.261-12.037-.214s-9.964.136-7.66.197m-4.63 6.104c0 3.183.062 4.485.138 2.894s.075-4.196 0-5.787-.138-.29-.138 2.893m-34.956 5.887c4.68.064 12.223.064 16.763 0s.712-.116-8.508-.116-12.935.053-8.255.116m-9.02 5.983-.087 5.684-17.662.108-17.662.109 17.675.094c14.205.077 17.712-.006 17.873-.423.11-.285.143-2.934.075-5.887l-.125-5.368zm55.879-.007-.087 5.677-11.375.246 5.7.087c6.734.104 6.138.735 5.974-6.318l-.124-5.368zm-191.075 5.966c4.813.29 10.09.307 9.918.032-.102-.164-2.825-.266-6.05-.225s-4.965.128-3.868.193m77.385 5.121c0 2.635.065 3.66.144 2.28s.077-3.536-.002-4.79-.143-.124-.142 2.51m21.885-.112-.085 4.677-4.69.126-4.69.127 4.703.086c5.543.1 5.149.523 4.975-5.329l-.129-4.364zm79.826.009-.085 4.684-33.327.218 16.676.096c13.475.076 16.715-.006 16.878-.43.11-.289.142-2.489.072-4.89l-.13-4.364zm-89.73 11.08c0 3.183.061 4.485.137 2.893s.076-4.196 0-5.787-.138-.29-.138 2.893m45.815.076c-.04 3.225.061 5.948.226 6.05.165.103.251-1.637.194-3.867-.191-7.338-.345-8.137-.42-2.183m-123.6 5.775c3.792.291 8.492.312 8.321.037-.103-.165-2.377-.269-5.053-.23-2.676.038-4.147.125-3.269.193m90.204.005c4.813.29 10.09.306 9.918.032-.102-.165-2.825-.267-6.05-.226s-4.966.128-3.868.194m-2.507 6.006-.087 5.675-4.69.126-4.69.127 4.703.086c5.589.101 5.138.674 4.976-6.32l-.125-5.369zm14.481 5.968c4.813.29 10.09.306 9.917.032-.101-.165-2.824-.267-6.05-.226s-4.965.128-3.867.194m89.472-.001c-.146.145-.266 5.08-.266 10.965v10.7l-5.887.11-5.887.11-.111 5.956c-.061 3.276.029 6.096.2 6.267s.256-2.458.191-5.845l-.12-6.156 11.814-.222.105-10.895.107-10.897 6.143.12c3.378.065 6.059-.016 5.957-.18-.23-.37-11.877-.402-12.246-.033m37.153.03c1.591.075 4.196.075 5.787 0s.29-.138-2.894-.138-4.485.062-2.893.138m-151.092 4.98-.085 4.68-11.375.245 5.7.088c6.681.103 6.148.579 5.974-5.327l-.129-4.364zm21.952 6.173c-.046 5.97.05 10.938.215 11.04s.254-3.076.198-7.062c-.192-13.529-.33-14.861-.413-3.978m125.716-5.987c-.039 2.677.065 4.95.23 5.053.164.102.251-1.369.192-3.27-.188-6.095-.35-6.78-.422-1.783m-215.002 4.782c4.812.29 10.089.306 9.917.032-.102-.165-2.825-.267-6.05-.226s-4.965.128-3.867.194m230.02.029c1.38.078 3.535.077 4.79-.002 1.252-.079.123-.143-2.511-.142-2.635 0-3.66.065-2.28.144m-174.65 5.979-.087 5.677-11.375.245 5.7.088c6.734.104 6.138.734 5.975-6.318l-.125-5.369zm171.617.186c-.04 3.225.06 5.949.226 6.05.164.103.251-1.637.193-3.867-.19-7.337-.344-8.137-.419-2.183m-123.202 5.78c4.813.29 10.09.306 9.917.032-.101-.165-2.824-.267-6.05-.226s-4.965.128-3.867.194m136.603.029c1.591.076 4.196.076 5.787 0s.29-.138-2.893-.138-4.486.062-2.894.138m-197.002 5.966c-.04 3.335.061 6.148.226 6.25s.252-1.728.194-4.068c-.186-7.565-.344-8.386-.42-2.182m57.874.2c-.04 3.224.061 5.948.226 6.05s.251-1.638.194-3.868c-.191-7.337-.345-8.137-.42-2.183m135.705 0c-.04 3.225.061 5.949.226 6.05.165.103.251-1.637.193-3.867-.19-7.337-.344-8.137-.419-2.183m-224.98 5.78c4.812.29 10.089.306 9.917.032-.102-.165-2.825-.267-6.05-.226s-4.965.128-3.867.194m11.974 11.974c4.812.29 10.089.306 9.917.032-.102-.165-2.825-.267-6.05-.226s-4.965.128-3.867.194m13.77 9.991c9.443.284 18.269.292 18.1.02-.102-.166-5.07-.262-11.04-.216s-9.146.134-7.06.196m21.952 11.974c9.443.283 18.27.292 18.1.019-.102-.165-5.07-.261-11.04-.215s-9.146.134-7.06.196m22.351 11.976c10.505.281 19.865.29 19.696.017-.102-.165-5.519-.261-12.036-.215s-9.965.136-7.66.198"/></g></svg>