<svg xmlns="http://www.w3.org/2000/svg" width="238.486" height="238.486"><path fill="#00a89e" d="M0 119.243c0 65.705 53.538 119.243 119.243 119.243s119.243-53.538 119.243-119.243S184.949 0 119.243 0 0 53.538 0 119.243"/><g data-name="Layer 2"><g fill="#fff" data-name="Layer 1"><path d="m114.238 132.913 1 4.931 1.849-2.466 1.815 9.258 1.807-9.258 1.849 2.466 1-4.931z" data-name="Path 474306"/><path d="M123.824 125.073v-13.891c0-2.71-4.878-9.566-4.878-9.566s-4.922 6.856-4.922 9.566v13.891a15.88 15.88 0 0 0-7.958 5.79h25.678a15.88 15.88 0 0 0-7.92-5.79" data-name="Path 474307"/><path d="M178.089 139.182a7.28 7.28 0 1 0-7.28 7.28 7.28 7.28 0 0 0 7.28-7.28m-11.544 0a4.264 4.264 0 1 1 4.264 4.255 4.264 4.264 0 0 1-4.264-4.255" data-name="Path 474308"/><path d="M118.909 40.728a78.276 78.276 0 0 0-78.186 78.176c0 29.807 18.309 53.779 42.6 55.794 14.777 1.22 29.066-4.046 38.478-8.69a59 59 0 0 0 15.5-9.385l1.011-.84a74 74 0 0 0 2.142-1.933c8.815-8.355 19.32-23.385 19.32-47.565v-2.664l-40.529-27.8-40.538 27.8v2.655c0 24.18 10.505 39.21 19.32 47.565a63 63 0 0 0 3.234 2.854c3.7-1.336 7.388-2.71 10.993-4.308-9.2-5.98-22.545-18.9-23.43-43.491l30.418-20.875 30.412 20.875c-.714 19.871-9.655 32.074-17.478 38.966l-.973.75c-.235.181-23.71 17.993-47.05 16.051-14.588-1.21-26.42-13.07-31.135-29.592a8.319 8.319 0 0 0-2.2-14.678v-1.489a67.6 67.6 0 0 1 5.947-27.766 20 20 0 0 0 7.515 1.482 19.772 19.772 0 0 0 17.414-29.059c-.226-.416-.47-.8-.714-1.2a68.014 68.014 0 0 1 95.157 19.691 14.172 14.172 0 0 0 9.159 24.993h.659a68 68 0 0 1 1.093 11.86c0 35.317-28.1 63.227-68.286 68.132-32.137 3.947-52.749-9.393-52.749-9.393 12.023 13.268 28.832 19.446 52.9 19.446a78.182 78.182 0 0 0 .002-156.362Zm-65.54 88.7a5.23 5.23 0 0 1-1.2 2.366 60 60 0 0 1-1.185-7.966 5.28 5.28 0 0 1 2.385 5.6M79.023 64.98a16.743 16.743 0 0 1-20.994 23.421 68.6 68.6 0 0 1 20.477-24.289c.154.28.361.569.524.867zm106.274 39.048a11.155 11.155 0 0 1-7.551-19.371 68 68 0 0 1 7.614 19.366z" data-name="Path 474309"/></g></g></svg>