<svg xmlns="http://www.w3.org/2000/svg" xml:space="preserve" viewBox="0 0 245 245"><path d="M0 122.5C0 190 55 245 122.5 245S245 190 245 122.5 190 0 122.5 0 0 55 0 122.5" style="fill:#00688b"/><path d="m53 82.5 69-40 70 40v80l-69.5 40-69.5-40z" style="fill:none;stroke:#e6e6e6;stroke-width:15"/><path d="m122.5 64 50 29-9 5.5-41-23.5L86 96l12 7.5L122.5 89l29.5 17v28l25 13.5-54.5 32.5L72 151l9-5 41.5 24 37-22.5-11.5-6-25.5 15L93 140v-30L68 96z" style="fill:#fff"/><path d="M122.5 107c-1.6 0-8 .5-8.5 8 0 5 3 6.3 5.5 8-.6 2-4 15.5-4 15.5H129s-3.7-14.3-4-15.5c2-1 5.5-2.5 5.5-8-1-7.5-6.4-8-8-8" style="fill:#efefef"/></svg>