<svg xmlns="http://www.w3.org/2000/svg" width="250" height="250"><circle cx="125" cy="125" r="125" fill="#fff"/><path fill="#ef43bb" d="M101.775 197.496H69.868c-9.868 0-17.868-8-17.868-17.868v-31.907c0-9.868 8-17.868 17.868-17.868h29.354a7.66 7.66 0 0 1 7.658 7.658 5.106 5.106 0 0 0 5.105 5.105h7.658v10.21h-7.658a15.315 15.315 0 0 1-15.06-12.763H69.868a7.66 7.66 0 0 0-7.658 7.658v31.907a7.66 7.66 0 0 0 7.658 7.658h31.907a7.66 7.66 0 0 0 7.658-7.658v-19.144h10.21v19.144c0 9.868-8 17.868-17.868 17.868m77.853 0h-31.907c-9.868 0-17.868-8-17.868-17.868v-29.354a7.66 7.66 0 0 1 7.658-7.658 5.106 5.106 0 0 0 5.105-5.105v-7.658h10.21v7.658a15.315 15.315 0 0 1-12.763 15.06v27.057a7.66 7.66 0 0 0 7.658 7.658h31.907a7.66 7.66 0 0 0 7.658-7.658v-31.907a7.66 7.66 0 0 0-7.658-7.658h-19.144v-10.21h19.144c9.868 0 17.868 8 17.868 17.868v31.907c0 9.868-8 17.868-17.868 17.868m0-77.853h-29.354a7.66 7.66 0 0 1-7.658-7.658 5.106 5.106 0 0 0-5.105-5.105h-7.658V96.67h7.658a15.315 15.315 0 0 1 15.06 12.763h27.057a7.66 7.66 0 0 0 7.658-7.658V69.868a7.66 7.66 0 0 0-7.658-7.658h-31.907a7.66 7.66 0 0 0-7.658 7.658v19.144h-10.21V69.868c0-9.868 8-17.868 17.868-17.868h31.907c9.868 0 17.868 8 17.868 17.868v31.907c0 9.868-8 17.868-17.868 17.868m-72.748 0H96.67v-7.658a15.315 15.315 0 0 1 12.763-15.06V69.868a7.66 7.66 0 0 0-7.658-7.658H69.868a7.66 7.66 0 0 0-7.658 7.658v31.907a7.66 7.66 0 0 0 7.658 7.658h19.144v10.21H69.868c-9.868 0-17.868-8-17.868-17.868V69.868C52 60 60 52 69.868 52h31.907c9.868 0 17.868 8 17.868 17.868v29.354a7.66 7.66 0 0 1-7.658 7.658 5.106 5.106 0 0 0-5.105 5.105z"/></svg>