<svg xmlns="http://www.w3.org/2000/svg" xmlns:xlink="http://www.w3.org/1999/xlink" width="250" height="250"><defs><linearGradient id="a"><stop offset="0" style="stop-color:#2d307f;stop-opacity:1"/><stop offset="1" style="stop-color:#5c61d5;stop-opacity:1"/></linearGradient><linearGradient xlink:href="#a" id="b" x1="199.771" x2="201.145" y1="242.383" y2="79.267" gradientTransform="matrix(.99205 0 0 1.1045 -72.727 -37.45)" gradientUnits="userSpaceOnUse"/></defs><circle cx="125" cy="125" r="125" style="fill:url(#b);fill-opacity:1;stroke-width:20.9353"/><path d="M58.974 193.946C55.708 192.173 55 189.775 55 180.497c0-6.023.291-9 1.034-10.567 2.086-4.398.483-4.23 41.246-4.335 20.409-.053 37.228-.217 37.376-.365s-8.093-5.842-18.314-12.653-18.583-12.748-18.583-13.194c0-.445.478-.993 1.063-1.218s20.835-.335 45-.246c42.777.158 44 .199 46.35 1.566 4.358 2.535 4.826 4.442 4.827 19.696.002 15-.62 18.53-4.268 24.282-3.423 5.395-9.34 9.316-16.282 10.788-2.536.538-20.486.767-58.62.748-47.274-.024-55.231-.171-56.855-1.053m2.578-82.582c-2.982-1.043-5.085-3.2-5.955-6.108-.49-1.635-.658-7.534-.474-16.607.278-13.71.336-14.182 2.254-18.407 2.498-5.502 8.355-11.108 13.978-13.38l3.99-1.611 56.516-.2c26.934-.095 55.535.555 58.443.6 2.908.043 4.563 1.277 4.581 4.394l.115 19.04c.145 2.75-1.543 5.041-4.72 5.156l-37.704.345-37.704.346 19.03 12.715c10.466 6.993 19.029 13.127 19.029 13.632 0 .754-7.945.908-44.655.863-29.227-.036-45.37-.305-46.724-.778" style="fill:#fff;fill-opacity:1;stroke-width:.689952"/></svg>