<svg xmlns="http://www.w3.org/2000/svg" width="250" height="250"><defs><linearGradient id="a" x1="17.336" x2="80" y1="74.339" y2="74.339" gradientUnits="userSpaceOnUse"><stop offset="0" stop-color="#004080"/><stop offset=".325" stop-color="#004383"/><stop offset=".585" stop-color="#004d8d"/><stop offset=".823" stop-color="#005e9d"/><stop offset="1" stop-color="#0070af"/></linearGradient><linearGradient id="b" x1="48.668" x2="48.668" y1="68.69" y2="80" gradientUnits="userSpaceOnUse"><stop offset=".35" stop-color="#009fdf"/><stop offset=".645" stop-color="#009ddd"/><stop offset=".752" stop-color="#0096d6"/><stop offset=".828" stop-color="#008bcb"/><stop offset=".889" stop-color="#007aba"/><stop offset=".941" stop-color="#0064a4"/><stop offset=".987" stop-color="#004989"/><stop offset="1" stop-color="#004080"/></linearGradient><linearGradient id="c" x1="17.336" x2="80" y1="55.314" y2="55.314" gradientUnits="userSpaceOnUse"><stop offset="0" stop-color="#009fdf"/><stop offset=".021" stop-color="#02a1e1"/><stop offset=".244" stop-color="#13b2f2"/><stop offset=".487" stop-color="#1dbcfc"/><stop offset=".791" stop-color="#20bfff"/><stop offset=".841" stop-color="#1ebcfc"/><stop offset=".882" stop-color="#19b2f2"/><stop offset=".919" stop-color="#11a1e1"/><stop offset=".954" stop-color="#0589c9"/><stop offset=".966" stop-color="#007fbf"/><stop offset="1" stop-color="#20bfff"/></linearGradient></defs><circle cx="125" cy="125" r="125" fill="#cdcdcd" fill-rule="evenodd"/><path fill="#0e3ca5" d="M105.687 164.865c4.822 17.888 22.123 31.534 30.86 30.97.306-.02 33.137-6.159 51.11-36.26 13.984-23.431 9.225-46.05-9.8-46.546-6.842.503-81.355 17.765-72.167 51.843m70.395-114.893-.019-.017.027-.017a83.485 83.709 0 0 0-87.998-12.73 48.787 48.918 0 0 0-5.275 2.6c-1.172.623-2.344 1.247-3.482 1.933l.278.085a37.993 38.095 0 0 0-8.812 8.364c-23.974 31.735 56.343 54.814 99.29 54.881 19.748 14.222 25.293-40.034 5.991-55.099"/><path fill="#5493f7" d="M92.946 50.62C81.91 67.25 45.156 78.968 39.113 77.143l-.041-.077c.24-.5.499-1 .754-1.496a88.437 88.674 0 0 1 26.207-30.66q3.392-2.49 7.025-4.663a26.038 26.108 0 0 1 12.149-3.244c16.367.314 7.82 13.489 7.734 13.622m-9.05 117.51c.792 5.224-.02 25.866-1.086 27.602-.918.055-2.83.174-8.368-2.942A88.097 88.333 0 0 1 34.491 88.229q.441-1.33.923-2.642c6.343 8.46 13.685 16.114 19.924 24.657 5.943 8.137 14.118 21.399 15.782 24.232 10.328 17.593 11.975 28.445 12.763 33.662m122.107-52.022a87.8 88.036 0 0 1-6.124 32.407C189.5 159.691 119.622 132.2 118.937 131.9c-9.559-4.199-38.649-16.977-41.274-37.041-3.764-28.888 54.653-49.01 80.329-49.771 3.078.036 12.45.145 17.91 4.593a87.793 88.028 0 0 1 30.088 66.436m-47.304 78.257c-7.616 3.564-16.004.967-13.824-6.47 4.183-14.285 40.71-28.93 48.777-29.735.996-.099 1.418.58.977 1.357a88.866 89.104 0 0 1-35.923 34.836"/><path fill="url(#a)" d="M17.336 77.254a2.55 2.55 0 0 0 2.329 2.714c30.7.21 60.335-1.2 60.335-5.8 0-13.924-62.664 3.086-62.664 3.086" transform="matrix(2.4109 0 0 2.41737 27.128 21.612)"/><path fill="url(#b)" d="M17.336 77.254a2.55 2.55 0 0 0 2.34 2.714c30.692.233 60.287-.731 60.324-5.8 0-13.924-62.664 3.086-62.664 3.086m2.342 2.537a2 2 0 0 1-.245-.014 2.4 2.4 0 0 1-1.988-1.763 2.37 2.37 0 0 0 2.23 1.762c30.67-.193 59.844-9.636 59.844-5.479 0 4.245-29.172 5.703-59.841 5.494" transform="matrix(2.4109 0 0 2.41737 27.128 21.612)"/><path fill="url(#c)" d="M19.68 37.822a2.343 2.343 0 0 0-2.344 2.344v37.088a2.344 2.344 0 0 0 2.329 2.346C50.363 79.37 80.037 69.209 80 74.169V32.394c.037-4.961-29.627 5.199-60.32 5.428" transform="matrix(2.4109 0 0 2.41737 27.128 21.612)"/><g fill="#fff"><path d="M125.206 161.956c-.176.102-.174.102-.174.262-.173.103-.173.263-.347.287-.087.09-.087.242-.171.341 0 .16-.087.242 0 .397v.396c0 .16-.085.483.09.624.086.147.26.203.349.27.086 0 .26-.193.26-.193.087-.092-.09-.227-.09-.307a3.423 3.433 0 0 1 .088-.409.465.467 0 0 1 .173-.34c0-.08.176-.264.176-.344 0-.316.087-.568-.091-.783.002-.08-.174-.213-.263-.2m12.409-3.645c0-.08.2-.259.299-.348.098-.17.2-.181 0-.314-.104-.068-.106-.225 0-.242.202-.179.202-.102.301-.268 0-.08-.306-.124-.407-.112-.102-.067-.2.102-.3.191s-.3.194-.402.283a1.184 1.187 0 0 1-.704.317c-.2.101-.2.101-.198.256-.099.17 0 .242.104.302a1.393 1.397 0 0 0 .104.303c.103.067.303-.034.405-.046.202-.022.303-.034.405.033a.241.242 0 0 0 .303-.036c-.01-.15.092-.162.09-.319m-.902 1.127c-.101.012-.504.058-.504-.022-.101-.148-.101-.305-.202-.372-.102.089 0 .241-.1.328-.1.17.1.225.2.293.203-.022.305.046.505.022a.523.525 0 0 1 .405.11c.202-.021.304-.193.101-.326 0-.07-.294-.046-.405-.033m-5.774-1.526c0 .078-.094.324.099.38.195-.024.291-.271.29-.348s.095-.324-.1-.38c0 0-.29.268-.29.348m26.214-10.718c-.078.014-.155.186-.241.278 0 .08-.075.241.08.22a.526.527 0 0 0 .153-.264c.172-.114.172-.263.008-.234m-1.707 5.098s-.241-.114-.241-.034c0 .155.084.22.166.205a2.148 2.154 0 0 0 .65.194c.08-.015.32-.058.32-.138a.14.14 0 0 0-.162-.126 2.41 2.417 0 0 1-.733-.101m2.642.263a.22.22 0 0 0-.075-.14c-.147-.046-.147-.046-.222.048v.078c.075-.017.297.092.297.014m-.81-9.531c.08-.015.154-.107.241-.044.077-.014.077.065.154.128.155.049.23.114.379.085l.224-.044c.075-.094 0-.157 0-.241a1.042 1.044 0 0 1-.376-.242c-.077-.065-.23-.036-.383-.164-.155-.049-.241-.034-.386.15 0 .077-.077.091-.157.106s-.077.171 0 .241c.073.146.15.131.304.025m-12.607 15.558c.2-.104.198-.653-.098-.537-.198.104-.1.631.098.537m8.173-16.634a.964.967 0 0 0-.443.145 1.389 1.392 0 0 0-.265.353s0 .242-.087.242a1.04 1.042 0 0 0-.451.145.299.3 0 0 0-.087.241c0 .078-.087.242-.178.262 0-.078-.278-.196-.367-.027 0 .08.186.133.186.21s0 .08.094.145c.092-.014.092-.092.183.051v.242c.092.142.097.302.367.26a.323.324 0 0 1 .364.185c.089.065.091.142.18.207 0 .08.092.066.181.054a.436.438 0 0 0 .446.166c.176.054.265.04.44.09.088.065.262.039.177.21 0 .078-.17.184-.17.341 0 .314.607-.017.778.034s.342.022.427.087c.169-.027.166-.184.166-.264 0-.157-.087-.22 0-.391 0-.078.166-.107.241-.119.167-.106.164-.263 0-.241-.169-.051-.24-.037-.422-.087a.964.967 0 0 1-.342-.182c-.087-.142-.087-.142-.26-.193-.258-.039-.519 0-.87-.022-.266-.116-.707.186-.724-.208l.178-.026a.096.097 0 0 0 0-.157 1.246 1.25 0 0 1 .442-.146c.265-.04.528 0 .786-.043.173-.027.26.039.431.012s.09.22.09.3.086.142.257.193c.085-.012.171.13.256.196a1.958 1.963 0 0 0 .752.343 2.331 2.338 0 0 0 .723.032c.241-.044.482-.165.482-.484a.328.329 0 0 0-.24-.27c-.083-.066-.083-.143-.162-.208a.506.508 0 0 0-.164-.363c-.082-.143 0-.242-.085-.3-.081-.142-.163-.205-.163-.362 0-.242 0-.242-.085-.3a.798.8 0 0 0-.412-.087c-.166-.05-.241.041-.333-.024a.964.967 0 0 1-.337-.18c-.172-.052-.256-.115-.427-.168a.81.812 0 0 0-.43 0c-.173.104-.173.104-.26.038-.248-.104-.508.015-.863.068m-17.65 16.404a2.341 2.347 0 0 0-.605-.321 1.4 1.404 0 0 0-.798-.066c-.099.09 0 .242 0 .242a.706.708 0 0 0 .398.034 2.257 2.263 0 0 1 .603.321 2.874 2.881 0 0 1 .407.503c.099 0 .403.506.504.336 0-.16.198-.573 0-.628a1.929 1.934 0 0 0-.509-.42m3.947 1.516a1.996 2.002 0 0 1-.709.162c-.101.012 0 .157.101.147 0 .078.203.056.304-.036.101 0 .101-.092.203-.024l.303-.036c.203-.022.203-.102.102-.242zm-.955-4.53q-.152.134 0 .241a.779.78 0 0 0 .405.112c.101-.012.099-.242 0-.242 0-.08-.205-.293-.106-.302.101-.092.2-.182.099-.242a.27.27 0 0 0-.304-.12c-.405.038-.096.396-.094.553m.448 4.59c.203-.104.102-.169-.1-.147-.102-.068-.203-.056-.406-.032l-.304.037a.69.691 0 0 0-.405-.034c-.2.101 0 .16.102.147.202-.024.202.056.405.032.103-.012.607.087.708-.003m1.423-8.35c-.205-.052-.704.242-.502.296.2-.022.502-.138.502-.295m-1.259 4.318c.102 0 .205.053.203-.024a.586.587 0 0 0-.104-.225c-.205-.133-.299.27-.099.25m.936 1.7c0-.078.099-.17.099-.242s-.306-.044-.408-.032c0 .158-.197.259-.094.484 0 .08.408.188.509.099 0 0 .2-.181.096-.242s-.2.012-.202-.067m-.627-1.5a.458.46 0 0 0-.301.272c.1.065.202.053.205.132s-.1.17-.1.242c-.202-.055-.303.036-.506.058-.098.09-.096.242.107.225a.099.1 0 0 0 .098-.092.439.44 0 0 1 .304.044c.104.067.104.147.408.11.202-.1 0-.24 0-.39s-.205-.136-.106-.303c.096-.087-.01-.31-.109-.297m.506-7.375c.2-.101-.306-.278-.407-.343s-.104-.068-.104-.225c-.103-.065-.103-.065-.205-.21a9.668 9.694 0 0 0-1.114-.483.099.1 0 0 1-.098.091c.202.29.708.385 1.015.663.1.067.103.382.207.447s.607.152.706.06m-1.116 7.209c-.202.102 0 .242.205.213s-.104-.225-.205-.213m.535 2.22c.102-.013.403-.127.198-.26a2.003 2.009 0 0 0-.909.262.634.636 0 0 0-.296.582v.317a.933.936 0 0 0 .405.188c.303-.113-.203-.37-.104-.539.101-.012.104.068.205.136 0 .077.101.145.202.133s.304-.114.203-.102c0-.08-.101-.145-.203-.135-.306-.121.2-.18.302-.191.301-.271-.306-.121-.408-.111 0-.158.203-.26.405-.28m-.467-4.821a.275.276 0 0 0-.1.242c-.098.091-.096.403-.093.483a.369.37 0 0 0 .501-.217 4.653 4.666 0 0 1-.106-.46s-.104-.138-.202-.048m9.48-4.4c-.095.092 0 .157.098.223 0 .08.101.302.292.198.094-.092 0-.242-.101-.302a.665.667 0 0 0-.29-.119m2.93-4.975c0-.157.088-.328 0-.394a.212.213 0 0 0-.272.196c-.004.157.087.145.273.198m-.168 1.518a.663.665 0 0 0 .55 0c0-.077.089-.091.089-.169-.092-.065-.183-.053-.186-.13-.091-.068-.091-.145-.183-.133s-.183.026-.186-.051c0 0-.094-.145 0-.157 0-.157 0-.157-.096-.223-.183-.053-.277-.04-.369.051-.183.104 0 .242 0 .394a1.815 1.82 0 0 1-.089.327.6.602 0 0 0 .47.091m21.908-1.196-.444-.604-.443.241a26.149 26.219 0 0 1 1.658 4.968l2.057-.612v-.536l-1.034.19c-.57-.048-.902-1.592-.902-1.592l6.866-2.384.355.706.723-.273-1.531-3.418-.59.179.24.725a236.181 236.815 0 0 0-6.955 2.41m-22.195.138a.663.665 0 0 0 .181-.341c.09-.17-.188-.13-.28-.039s-.18.184-.18.261c.002.155.19.288.28.119m-.455.614a.287.288 0 0 0-.1-.382c-.093-.066-.093-.066-.187-.051-.094-.065-.094.012-.186.104 0 .08-.09.326.099.38.19.132.284.118.374-.051m6.66 7.339c.078.063.08.14.158.125a.241.242 0 0 0 .24.032l.304-.063s.152.126.15-.029c-.075-.22-.301-.094-.456-.065-.077-.14-.077-.14-.24-.109 0 0-.235.044-.155.109m-17.808 22.672c.701-.258 1.403-.437 2.005-.604a10.367 10.395 0 0 1 2.096-.546c.296-.044.694-.182.99-.228a7.474 7.494 0 0 0 .789-.43 6.061 6.077 0 0 1 1.08-.399c.292-.123.68-.104.873-.213.096-.014.192-.029.192-.106s0-.08-.094-.063l-.58.09c-.292.043-.586.166-.88.21l-2.072.469a15.791 15.834 0 0 0-1.892.515l-2.307.882-2.303 1.117a.32.322 0 0 0 .198.053zm-13.48.247c-.176-.058-.352-.276-.528-.336-.087.169.352.358.441.425s.533.416.444.665c-.09-.068-.176-.058-.176.022s.09.227.09.307.088.15.088.23a.29.29 0 0 0 .449-.133 1.292 1.296 0 0 0-.27-.764c-.094-.148-.36-.276-.538-.416m17.173 3.287c.395-.062.692-.033.989-.08a8.197 8.219 0 0 0 1.376-.222 2.435 2.442 0 0 1 .977-.314c.098-.014.098-.172.098-.172l-.964.16a6.189 6.205 0 0 1-1.278.048c-.482 0-.89-.094-1.386-.094-.793-.034-1.591-.225-2.392-.34a5.545 5.56 0 0 0-2 .06c.098.142.8.118 1 .089a5.91 5.925 0 0 0 .8.196l1.796.51zm8.368-34.462-.091.013c0 .08.094.222 0 .241 0 0-.184.104-.09.17s.28.195.372.183c.089-.171.178-.263.084-.406 0-.162-.094-.307-.275-.2m2.823 4.139.514-.085c-.087-.142-.09-.3-.176-.362-.084.012-.345-.181-.43-.09-.084.172.261.194.177.288a1.138 1.141 0 0 1-.432.147c-.084.17.26.117.347.102"/><path d="M157.871 153.384a.817.82 0 0 1-.446.33l.224-.284c.075-.094.075-.094.073-.171-.073.014-.075-.063-.15-.046a3.33 3.338 0 0 1-.76.39c-.076.014-.154.185-.24.28 0 0 0-.078-.078.014l-.08.017a.21.21 0 0 1-.153.186.448.45 0 0 0-.321-.017c-.08.015-.241.2-.32.215-.162-.048-.242-.034-.326-.096a.335.336 0 0 1 0-.392c0-.242.077-.563-.241-.505-.241.043-.581.338-.752.13-.087-.22.417-.541.077-.64-.256-.114-.509.164-.767.285a.292.293 0 0 1-.345.056c-.089-.066-.178-.208-.267-.274a1.635 1.639 0 0 1-.181-.365c0-.157.087-.169.171-.34a.55.551 0 0 1 .171-.421c.085-.092.174-.027.347-.056.087-.014.258-.12.343-.135.17-.106.258-.121.426-.227.17-.03.241-.121.42-.15a.504.505 0 0 1 .337.256c.082.063 0 .157 0 .314 0 .078.17.283.242.114.24-.28.24-.515.074-.725 0-.08-.082-.143-.084-.223 0-.154 0-.241.08-.326a4.716 4.728 0 0 1 .482-.636 1.743 1.748 0 0 0 .074-.64c.08-.172.077-.484.316-.607.241-.2.077-.406.241-.592.08-.172.241-.356.39-.622.078-.092.078-.092.076-.241 0-.078-.242-.034-.157-.206l.157-.029c.077-.092 0-.077-.08-.14-.08.014-.241.12-.316.135.082.063.16.049.162.206-.08.094-.157.186-.241.123-.082-.143 0-.157-.162-.128-.08-.065-.241.043-.32.058.079-.094.159-.264.24-.278.162-.03.242-.123.398-.152.241-.044.545-.18.545-.414.075-.171-.08-.22-.159-.283a.22.22 0 0 0-.077-.142c-.08.014-.157.106-.241.12a3.395 3.404 0 0 1-.723-.106.935.938 0 0 1-.659-.278.15.15 0 0 0-.24-.113c-.085.092-.167.106-.336.055a1.285 1.288 0 0 0-.766.046c-.174.027-.26.041-.258.198-.085.242 0 .242.176.286.086.065 0 .157.089.222s.258.116.26.193c0 .242.092.457.094.692-.171-.05-.258-.194-.431-.165-.258-.038-.345.054-.521-.074a1.218 1.22 0 0 0-.528-.075c0-.08-.179.026-.179-.054l-.18-.13c-.181-.128-.181-.208 0-.312.086-.172.262-.278.35-.447 0-.08-.182-.368-.095-.38a2.387 2.393 0 0 1 .439-.302c-.09-.145-.446-.242-.624-.3a1.008 1.01 0 0 1-.36-.181c-.18-.053-.183-.21-.364-.184-.091-.065-.183-.05-.27.119 0 .08.094.222.094.302.094.143.275.196.188.365-.178.184-.27.118-.45.225a2.611 2.618 0 0 1-.827.038c-.186-.053-.28-.118-.468-.171a.463.464 0 0 0-.376-.104c-.282-.041-.564.077-.851-.041-.285-.041-.574-.16-.861-.2a.482.483 0 0 0-.292-.12c0-.077-.099-.144-.195-.132-.193-.051-.482.142-.771.258-.193.107-.483.143-.582.242a.658.66 0 0 0-.19.339c0 .08-.096.091-.193.104-.294.116-.198.026-.195.183l-.193.182a.427.428 0 0 0-.09.563c.102.145.102.145 0 .242-.093.169-.093.169-.293.116-.196.024-.495-.017-.69.164l.2.133.198-.024a.885.887 0 0 0 .482.017c.195-.104.195-.184.393-.13.099.067.294-.037.39-.05a2.534 2.54 0 0 1 1.071-.14c.292-.036.482.242.588.397.295.435.495.88.789 1.315 0 .077.096.065.096.065 0 .078.097.145.099.223v.394a2.8 2.807 0 0 0-.08.877c0 .08 0 .242.1.302 0 .08.192.21.195.29a1.408 1.412 0 0 0 .289.353.943.945 0 0 0 .287.276 1.536 1.54 0 0 0 .386.655c.19.21.289.433.569.551.185.051 0-.241 0-.314a.335.336 0 0 1-.191-.288c.09-.171 0-.16-.099-.302-.094-.065-.282-.118-.376-.263s0-.242.183-.182c.094-.014.188.13.19.208.095.145.189.21.191.288.094.145.188.21.282.355.094.066.186.051.28.196a.494.496 0 0 0 .188.288c.094.065.275-.041.366.101.092.066.095.223.186.288a1.372 1.375 0 0 0 1.263.752c.176-.03.35-.136.437-.07a.873.875 0 0 1 .434.084 1.545 1.55 0 0 0 .684.278c.085-.014.254-.12.338-.058.166.049.169.206.241.271a.557.558 0 0 0 .333.097l.176-.041c.082.062.084.14.164.205s.08-.172.159-.266c.08-.171.159-.186.32-.138a.67.672 0 0 1 .242.658 1.379 1.383 0 0 0-.242.36c-.08.092-.077.242-.156.42a2.136 2.142 0 0 0 0 .704c.08.063.077.218.077.372s.077.216.077.37c.157.2.077.45.154.665a3.616 3.626 0 0 1-.08.401c.078.063.155.201.242.264a.456.457 0 0 0 .309.242v.386a.323.324 0 0 1-.08.242c0 .077-.077.172-.08.242a1.3 1.303 0 0 1-.156.57c0 .078-.08.17-.082.242l-.157.109c0 .152-.082.242-.082.324-.08.092-.16.183-.16.26v.243c0 .154 0 .077-.079.169l-.24.507a2.12 2.125 0 0 0-.329.523c0 .154-.166.338-.24.507.081-.014.163.049.081.14 0 .078-.166.107-.24.199s-.334.212-.336.367c-.084.17.082.45-.087.556-.084.092-.253.353 0 .384-.168.184-.34.368-.087.556 0 0 .167.049.167.126.084.06 0 .23 0 .307.169-.029.169-.106.24-.12.083.062.083.062.165.048 0 .077.166.048.166.048.082-.092.082-.092 0-.155v-.31c-.082-.217-.166.107-.24-.033 0-.077 0-.077.084-.17s.081-.014.166-.106c.164-.029.164-.106.24-.275a6.061 6.077 0 0 1 .41-.692 3.332 3.34 0 0 1 .563-.8c.24-.198.393-.384.547-.483a3.73 3.74 0 0 0 .762-.462l.518-.65c.145-.184.432-.324.574-.51.14-.111.21-.126.347-.242a.456.457 0 0 0 .275-.22l.562-.522a3.546 3.556 0 0 1 .448-.575 1.786 1.791 0 0 0 .54-.438 2.317 2.323 0 0 0 .482-.66c.08-.174.08-.242.241-.37a.526.527 0 0 1 .082-.33 3.515 3.525 0 0 1 .415-.726 5.015 5.028 0 0 0 .422-.648.745.747 0 0 1 .173-.353c.087-.099 0-.157-.086-.295a1.333 1.337 0 0 1-.343-.469c0-.077-.24-.096-.24-.176a.62.621 0 0 0-.334 0l-.643-.078c-.08.02-.16-.038-.241-.019l-.386.094a.656.658 0 0 0 0-.541c-.154-.119-.23-.242-.376-.295a.837.839 0 0 1-.506-.027c-.068-.06-.135-.123-.135-.2l-.203-.184c-.137-.044-.275-.167-.415-.213s-.284-.242-.426-.29a.224.225 0 0 1-.217-.031c-.162.053-.237-.095-.309.08m-2.548-5.153c.08-.092.164-.027.24-.121s.165-.03.165.05c.082.063-.408.15-.482.165zm-.837.065a.494.496 0 0 1 .338.022c.084.063.335.099.168.205-.082.015-.24-.036-.335-.022-.084-.062-.424-.164-.17-.205m-.675.66c0-.08.084-.092.084-.172s.082-.169.082-.241c0-.158.242-.276.34-.133-.084.084-.332.597-.506.546m-.101-1.243c.084-.091.345.102.429.09.087.063.09.22.176.362l-.514.085c-.086.015-.431.068-.347-.102a1.138 1.141 0 0 0 .432-.147c.084-.094-.26-.116-.186-.288z"/><path d="M152.897 145.796a.41.411 0 0 0 .352.102c.176.05.176-.027.174-.184-.09-.065-.176-.05-.352-.101l-.176.026zm1.08 2.74c0 .079-.084.17-.082.241s-.086.092-.084.172c.174.05.422-.462.506-.554-.086-.135-.342-.017-.34.14m3.248-2.138c-.077.092-.241.356-.152.498s.383-.23.46-.167a.133.133 0 0 0 .152.126c.078-.014.15-.186.075-.242 0-.154-.304-.019-.38-.082 0-.077.151-.186.074-.241s-.152.094-.23.108m-13.612 1.207c0 .08.2.133.299.12s.4.03.395-.128c0-.08-.2-.133-.299-.12a.796.798 0 0 0-.395.128m-.593.389c.101.145.301.04.4.109.101-.015.3-.116.198-.184s-.2-.053-.302-.119c-.197.102-.397.049-.296.194m1.056-2.575a1.082 1.085 0 0 0 .497.017 1.651 1.656 0 0 0 .39-.285c0 .077.101.145.2.13 0-.077.097-.089.195-.101 0 .077 0 .483.104.46a.634.636 0 0 0 .39-.209 1.408 1.412 0 0 0 .29-.353v-.157c0-.077.096-.092.094-.169a.482.483 0 0 0-.2-.29c-.101-.145 0-.242-.104-.302 0-.242-.482-.174-.69-.227a3.356 3.365 0 0 0-.891-.044c-.196.102-.196.181-.39.285-.102.012-.297.116-.399.128a1.357 1.361 0 0 1-.482.22.632.633 0 0 0-.296.194.99.994 0 0 1-.794.413c-.195.339-.696.401-.894.74l.603-.075.6-.073c.099-.091.198-.103.198-.18s.099-.015.2-.027a.673.674 0 0 0 .4.029zm10.589 3.082c.084-.014.253.037.335.022.166-.106-.085-.142-.17-.205a.494.496 0 0 0-.337-.022c-.26.041.08.143.172.205m1.065-.34c0-.08-.082-.143-.164-.051s-.164.029-.24.12l-.083.095c.08-.015.57-.102.487-.164m21.597-11.016-1.507-1.564-8.02 2.221-.51-.437-.405.309 1.322 1.274.417-.312-.311-.483 1.687-.484 1.517 1.692-1.206 1.151-.747-.85-.53.258 2.357 3.447.552-.259-.108-.515zm-5.367 1.692a185.986 186.485 0 0 1-1.147-1.315l3.515-.967a126.042 126.38 0 0 0-2.375 2.277zm-20.815 4.225a.22.22 0 0 1 .18-.183c0-.078.09-.17.179-.261l.272-.04c.087-.24-.364-.105-.455-.014a.988.991 0 0 0-.36.445c-.089.172.087.065.184.053m-41.125 30.372.376.699.378-.283-.964-2.338-2.968.058a24.74 24.807 0 0 0 2.442-2.088c-.075-.138-.446-2.79-.446-2.79l-.455.143.072.74-4.663 1.402-.152-.66-.383.125.378 1.915.384-.203-.152-.583 3.214-.967-3.376 2.575.304 1.092 3.896-.176-2.982 1.557-.304-.636-.383.205 1.205 3.295.384-.208-.23-.643zm-5.693-7.697 1.536-1.332 1.372.863-.528-1.58 1.447-1.292-1.756.242-.458-1.648-.612 1.79-1.762.226 1.379.911zm23.478-38.487 1.54 4.446-.737.263.185.363 2.057-.76-.1-.456-.657.242-1.015-2.969 3.876 2.495 2.24-.537-.774-5.11.88-.273-.096-.455-2.524.653.094.375.87-.196.378 3.06a212.29 212.859 0 0 1-4-2.48l-3.025 1.144.176.44zm-6.592 60.21.796-1.306a21.057 21.113 0 0 1-4.014-2.9l-.222.398.369.363-2.893 3.962-.449-.343-.224.326c.449.484 4.304 3.143 4.304 3.143l.723-1.17-.441-.307-.37.623a5.786 5.802 0 0 1-1.846-1.017l1.408-1.678.66.442-.294.551.37.148.723-1.26-.37-.224-.293.316-.589-.447 1.252-1.75c.595.208 1.301 1.27 1.301 1.27l-.31.642zm-16.956-30.831 4.581.611-.152.725h.456l.834-3.705-.38-.097-.227.657a197.573 198.103 0 0 1-4.581-.524l.154-.64-.383-.03-.921 3.694.46.02z"/><path d="M111.659 180.657a3.4 3.408 0 0 0 .988-3.142l-1.273-2.16a2.893 2.9 0 0 0-4.25.922 2.45 2.456 0 0 0-.39 2.54l1.135 1.934a2.814 2.821 0 0 0 3.79-.094m-3.71-.75s-.379-.32-.379-.483a.545.546 0 0 1 0-.602c.152-.241.154-.483.535-.756l1.902-1.405s.683-.483.91-.357a1 1.003 0 0 1 .527.15.926.928 0 0 1 .225.345.752.754 0 0 1 .072.967 20.285 20.34 0 0 1-2.652 2.035s-.685.491-1.14.107m11.08-47.447 2.194 3.785-.528.484.301.256 3.12-2.24-.241-.426s-.241.273-.415.3c-.164.106-.164.026-.164.026l-1.048-1.692.882-.54a4.113 4.124 0 0 0 .482-.24c.085-.015.241.113.241.113l.93 1.41c.085.142.43.089.517.074a3.836 3.846 0 0 0 .964-.302l1.702-.8-.183-.443-.09.092a2.341 2.347 0 0 1-.452.145 1.034 1.037 0 0 1-.449-.167 2.879 2.886 0 0 0-.446-.725c-.087.015-.528-.387-.964-.242a1.623 1.627 0 0 1-.687.107c1.625-1.501.154-3.07-1.155-2.688a34.857 34.95 0 0 0-5.304 3.846l.29.256zm3.055-2.357s.318-.13.482 0a11.261 11.292 0 0 1 .803 1.264.873.875 0 0 1-.241.428 7.175 7.194 0 0 1-1.121.815 85.298 85.526 0 0 1-1.073-1.753zm-12.486 14.968-.379-.331a9.504 9.53 0 0 1 .682-1.658l3.617 2.366-.374.607.374.172 1.116-1.828v-1.09l-3.375-2.231a6.203 6.22 0 0 1 1.278-1.221l.376.242.373-.452-.964-.77a57.38 57.533 0 0 0-4.091 6.02l1.14.53zm-3.961 6.633 4.416 1.154-.226.655.378.096.68-1.895-.378-.174-.302.67-2.965-.726 4.173-1.177.976-2.026-4.54-1.86.382-.678-.381-.179-.991 1.934.38.18.382-.678 2.81 1.209a175.369 175.84 0 0 1-4.414 1.267l-1.07 2.787.383.184zm7.876-13.72 2.596 2.572 1.758-.33 2.531-2.658-.798-1.093-.356.38s-.07.014.072.142a.964.967 0 0 1 .215.269 6.907 6.926 0 0 1-1.228 1.793l-.072.092a17.961 18.01 0 0 0-1.314-1.228v-.155l.586-.655.364.32.292-.288-.948-1.066-.294.367.294.256c.073.22-.66.745-.66.745l-1.329-1.315a7.69 7.711 0 0 1 2.134-1.792l.366.4.292-.368-.723-.95a54.115 54.26 0 0 0-4.518 4.926l.299.26zm3.819 45.393.222-.402a90.148 90.39 0 0 0-1.11-1.056l-.296.334.371.425-2.242 2.502.981-4.593-1.415-1.578-.373.35.373.331-3.703 3.43-.453-.536-.379.28 1.283 1.475.304-.266-.454-.542 2.573-2.298-.991 4.578 1.425 1.27 3.515-4.064zm53.968-18.689-.548-.053-1.072 1.791.537.136.432-.639 4.024.663-6.56 2.204-1.418 2.176.403.157.506-.573 5.5 1.64-.558.739.449.152 1.687-2.06-.571-.13-.564.817-3.537-1.228 6.625-2.038 1.278-2.132-6.946-1zm-9.555 18.752a51.52 51.66 0 0 1-1.133-1.613l.8-.68.33.337.505-.484-.998-1-.482.394.24.43-.703.662-1.095-1.692a5.408 5.422 0 0 1 1.717-1.146l.482.382.412-.464a31.486 31.57 0 0 1-.976-.998 29.955 30.036 0 0 1-4.36 3.92l.157.284.707-.428 2.355 3.737a47.374 47.501 0 0 0-.501.462l.284.345 3.195-2.61-.347-.334zm8.058-9.52-3.51-1.617.395-.551-.497-.22-1.348 1.692.483.302.482-.645 3.363 1.646c.212.118.441.084.641.67.224.652-.323 1.09-1.053 1.544a1.905 1.91 0 0 1-1.548.293l-3.197-2.077.46-.483-.462-.305-2.6 2.998.242.268.417-.47 3.074 2.109a2.138 2.144 0 0 0 1.367.22 6.591 6.61 0 0 0 1.519-.76l2.319-2.257a2.355 2.362 0 0 0 .32-1.01c-.002-.561-.867-1.347-.867-1.347m7.604-17.023a5.437 5.451 0 0 0-4.473 2.328 475.598 476.874 0 0 0-1.866 4.793l.55.054.328-.697 6.659.353a63.262 63.432 0 0 0-.35.854l.704.031a32.202 32.289 0 0 0 2.115-5.43c.11-.969-.982-2.366-3.667-2.286m2.837 3.143-.468 1.269-6.834-.339.221-.993a.844.846 0 0 1 .789-.387l5.817.058c.711-.046.475.39.475.39zm-2.146-10.398-.94 1.852-2.652.484 2.076.713-.92 1.99 2.326-1.606 2.244.725-.964-1.576 2.252-1.472-2.725.462zm-26.838 34.842.179.355.54-.241a12.537 12.57 0 0 1-1.189 2.514l-2.124-.994c-.091-.14.564-.179.564-.256a1.473 1.477 0 0 0-.185-.356l-4.607 1.45.096.448.586-.181 3.53 1.491.64 1.934-.846.377.186.271 4.202-1.571-.173-.35-.712.197-.617-1.933 1.536-3.411.612-.416-.258-.264zm-17.035 9.387-1.348-5.263a107.733 108.022 0 0 1-2.601-.198l-4.07 4.924-.622-.015-.178.327 1.883.418.275-.34-.637-.158.914-1.112 3.001.23.189 1.208-1.14.08v.31c.378.026 4.821-.027 4.821-.027v-.462zm-6.013-1.934 1.876-2.01.66 2.3a58.684 58.841 0 0 1-2.536-.28zm16.679.099-.1.094a1.762 1.767 0 0 1-.78-.012c0-.077-.097-.058-.097-.058s.1-.094 0-.38c0-.761-1.072-1.177-1.072-1.177s1.477-.87 1.485-1.781-1.07-1.255-1.365-1.21a4.822 4.835 0 0 0-.89.078 62.105 62.271 0 0 1-6.352.902l.099.452.691-.034-.318 4.716-.692.114s-.1.483 0 .46 4.36-.59 4.36-.59l-.097-.44-.596.103.111-2.151 1.391-.242c.1-.094.393.312.393.312l.09 1.658c0 .078.482.293.689.334l3.24-.725zm-3.727-2.002a.412.413 0 0 1-.2.341l-1.587.273.21-2.175 1.39-.242.297.176c.003.165-.11 1.627-.11 1.627m3.006-32.325a.224.225 0 0 0 .101.223c0 .08 0 .08.104.145.099 0 .198-.102.195-.182.097-.169-.304-.355-.603-.319v.078c.003.072.102.055.203.055m-17.696 30.594a39.539 39.645 0 0 0 1.37.726l-.182.59.647.084.458-1.412a31.653 31.738 0 0 1-6.269-1.934l-.646 1.303.408.213.325-.336a3.481 3.49 0 0 1 1.427.048l-1.991 4.61-.723-.278-.16.397 3.653 1.235.176-.404-.694-.171zm-5.246-38.29.31-.054c.078-.014.155-.106.242-.118.157-.104.077-.17.077-.242 0-.157-.077-.22-.157-.208a.258.259 0 0 1-.24-.036.347.348 0 0 1-.155.104c0 .077-.077.241-.152.26-.154.105-.306.131-.229.351.075.145.152.046.304-.058"/><path d="M121.228 150.401c0 .155.154.051.24.037s.155.05.242.038a.347.348 0 0 0 .241-.118c.08-.012.16-.104.241-.116.16-.106 0-.08.08-.17a2.939 2.947 0 0 0 .32-.676c0-.078.08-.09.162-.259a.241.242 0 0 0-.162-.05 1.225 1.228 0 0 0-.482.389c-.08.169 0 .389-.159.483-.241.119-.393 0-.547.172-.099.101-.176.19-.176.27m1.827-2.794a1.111 1.114 0 0 0 .482-.242c.085-.092.167-.26 0-.312-.084.09-.084.09-.24.116a.608.61 0 0 0-.33-.024c-.08.09-.242.196-.242.35s.166.136.33.112m-1.98 2.976c.078-.092 0-.155-.076-.063-.075.012 0 .077.077.063m4.017 2.163c-.086.012-.173.027-.173-.053l-.087-.065c-.087-.065-.258.039-.342.13-.087 0-.171.26-.171.336-.085.09.17.131.255.119.174-.104.608.145.694-.024a.482.483 0 0 0 .087-.324c-.087-.143-.087-.143-.263-.119m15.208-5.286c.302-.116-.205-.213-.205-.213a.627.629 0 0 1-.298.193.615.616 0 0 0 .503.02m3.578 10.974c.099-.012.099-.012.198-.101v-.157c0-.078 0-.157-.101-.145l-.1.09c.104.144-.098.168-.197.26-.104.177.099.232.2.053m-19.222-7.96c.084-.092.084-.17 0-.157-.173.104-.087.17 0 .157m15.587 7.22.1.066c-.1.012-.2.104-.3.114-.203.103-.1.169 0 .157a1.022 1.025 0 0 1 .204.212.709.71 0 0 0 .405.032.911.914 0 0 1 .61.167c.102.065.104.065.104.222a.29.29 0 0 1-.104.242c-.1.169.203.21.403.266.304.043.304.2.605.241.2.133.301-.193.502-.137.2-.027.299.198.499.241.1.066.301-.116.4.03 0 .077.099.379.296.275.3-.116-.096-.534-.195-.68a2.52 2.526 0 0 0-.497-.642c0-.078-.1-.066-.2-.054 0-.08 0-.08-.1-.145a.776.778 0 0 0-.404-.11c-.303-.122-.41-.424-.723-.545s-.603.307-.805.172c-.101.012-.205-.053-.205-.133.099-.09.099-.09.099-.17-.104-.064-.104-.144-.205-.132-.393-.015-.798.031-.49.312m.062-9.92c.1-.092.1-.092 0-.157l-.301.036c-.101.012-.099.17 0 .157s.195.053.301-.036m.027 1.885c0-.08.096-.241 0-.314-.2.024-.198.339-.297.428-.099.17.106.38 0 .483 0 .158-.299.35-.296.428s.202.133.306.278a.63.63 0 0 0-.403.128c-.099.17-.197.26-.296.428-.102 0-.198.259-.097.327a.2.2 0 0 0 .094 0c-.103.096-.388.435-.188.483.102.065.1-.092.198-.181 0 0 .202-.104.099-.17 0-.074-.09-.07-.1-.14a.316.317 0 0 0 .196-.263 2.17 2.176 0 0 0 .603-.31c.099 0 .2-.024.2-.101a.275.276 0 0 0 .096-.242s.102-.012.1-.09c.1-.011 0-.077 0-.156l.1-.092c0-.078 0-.312-.105-.38a3.09 3.1 0 0 0 .094-.403c-.102-.087-.196-.068-.304-.14m-.514-.725a1.43 1.433 0 0 1-.304-.12c-.402.125.104.379.107.459.1.065 0 .311.207.367.099-.012.198-.259.198-.259 0-.08.299-.193.397-.285.2-.101 0-.077-.103-.222 0-.08-.403.048-.502.06m13.4-19.467-.808-.123-.084.404a34.756 34.849 0 0 1 3.742 1.03l.24-.431-.667-.29 2.088-4.612.627.212s.24-.425.154-.483c0-.078-3.513-1.028-3.513-1.028l-.253.346.685.29zm4.048-.524a2.146 2.151 0 0 0 .798 2.448 13.019 13.054 0 0 0 1.929 1.296 3.961 3.972 0 0 0 4.286-1.658 2.35 2.357 0 0 0-.361-3.4l-2.677-1.208a3.134 3.143 0 0 0-3.975 2.522m1.929 1.167 1.183-2.07s.466-.7.789-.758a1.702 1.707 0 0 1 .656-.039c.166-.029.421.157.421.157s.7.196.516.832a9.935 9.962 0 0 1-1.837 3.043s-.561.88-1.217.69l-.511-.298a.675.677 0 0 1-.297-.57 1.962 1.968 0 0 1 .297-.982zm-12.281-5.886 1.914-.174-1.396 4.62-.873.036-.09.406c.483-.063 4.476.43 4.476.43l.084-.483-.745-.136c0-.08 1.34-4.704 1.34-4.704a11.03 11.06 0 0 1 1.539.483l-.174.571.622.068.43-1.383a35.534 35.63 0 0 0-7.52-.621 13.87 13.907 0 0 0-.379 1.37h.581zm-1.232 4.438-.685.012-2.785-5.163-2.374.23-3.07 5.767-.691.17.1.454c.297-.116 2.28-.377 2.28-.377l-.102-.532-.596.077.596-1.245 2.78-.437.699 1.153-.793.181.103.455c.596-.155 4.545-.274 4.545-.274zm-7.03-1.112 1.287-2.267.998 1.97zm-14.17 22.639c.087-.17.258-.119.345-.13.174-.105.347-.129.521-.243s.617 0 .704-.256c.178-.181 0-.157-.176-.13-.09.012-.265.116-.441.14-.087.092-.263.039-.35.05l-.087-.065c-.086-.065 0-.077 0-.154.087-.17.26-.196.348-.286s.262.04.352-.05a.347.348 0 0 0 .176-.336c0-.08-.266-.041-.355-.03a2.143 2.149 0 0 0-.607.56c-.087.088-.172.258-.258.347-.087.015-.171.027-.171.104a.277.278 0 0 0-.085.17c-.084.086-.711.326-.75.127 0 .167-.055.363.157.43 0 0 .241.117.338.025s.255-.184.34-.273m39.07-16.782 1.01-.195 1.636-1.625-.595 4.496v.54l.78.611 5.814-4.11.554.43.564-.41-1.777-1.349-.55.411.546.433-2.693 1.972.646-4.032a75.268 75.47 0 0 1-2.582-1.501l-.4.384.597.423z"/><path d="M118.667 160.29c.145-.026.362 0 .362.088.072.063 0 .387 0 .466a.43.43 0 0 0 .072.295 2.867 2.874 0 0 1 .287.726c.07.22.285.413.285.645v.39a.74.742 0 0 1-.142.415.453.454 0 0 0 .07.3 1.297 1.3 0 0 0 .289.416c.072.145.144.367.22.51a11.688 11.72 0 0 0 .674 1.537c.075.222.23.435.306.66a.511.512 0 0 0 .311.114c.078-.012.241-.194.314-.283.24-.191.557-.314.798-.508.24-.113.24-.507.325-.756 0-.08.082-.092.164-.182.241-.116.415-.377.241-.59a.241.242 0 0 1-.082-.147v-.32c0-.313.164-.338.333-.521a.784.786 0 0 0 .241-.67v-1.03c0-.08-.422-.413-.337-.505l.585-.643 1.295-1.431a2.17 2.176 0 0 0 .35-.752c0-.155.089-.242.176-.413 0 0 .267-.271.089-.324-.268-.041-.706.242-.964.447-.09.012-.348-.029-.434-.014-.258-.119-.258-.43-.43-.561-.084-.066-.168-.208-.253-.273-.084.012-.168.101-.168.024-.085.012 0-.155 0-.242a2.001 2.006 0 0 0-.242-.662c-.082-.143-.082-.223-.166-.288a.723.725 0 0 1-.082-.375v-.389c0-.077.241-.273.241-.196.167.13.167.52.241.663a1.873 1.878 0 0 0 .338.725c0 .157.171.13.255.196.172.053.087.222.174.287a.964.967 0 0 0 .087.532c.084.223.17.208.345.184a4.58 4.593 0 0 0 .436-.14c.176-.102.263-.114.441-.218a2.425 2.432 0 0 0 .723-.483 1.008 1.01 0 0 1 .451-.138c.092-.012.273-.27.273-.348l.274-.271c0-.077.09-.324 0-.312l-.183.024a.328.329 0 0 0-.183-.287 1.519 1.523 0 0 0-.634 0c-.27.036-.27.036-.36-.107a.482.483 0 0 1-.178-.365c-.089-.065-.089-.065-.089-.22.09.066.265.039.265.119a.557.558 0 0 1 .092.377c.09-.012.27-.116.36-.128.18-.024.18.053.36.106.092.065.184.21.276.198a.76.761 0 0 1 .458.017c.277-.036.554-.15.74-.174s.282-.036.376.107a.947.95 0 0 1 .282.278c.096.142.096.142.284.118s.191-.024.191.133a1.1 1.102 0 0 0 .195.757 2.835 2.843 0 0 0 .579.553 1.025 1.027 0 0 0 .482.484 1.772 1.777 0 0 0 .287-.58c0-.158.094-.17.19-.26s.097-.168.097-.323a.639.64 0 0 1 .287-.583c.193-.181.482-.372.68-.55a1.13 1.134 0 0 1 .687-.32.482.483 0 0 1 .296.123c.101.066 0 .242.101.3 0 0 0 .08.102.068 0 .077.099.065.197.055 0 .078.102.223.104.3.2.29.4.268.596 0 .1.145.106.457.306.59a5.895 5.91 0 0 1 .207.604 4.012 4.022 0 0 0 .306.593 1.28 1.284 0 0 0 .71.469c.1 0 .202-.025.098-.17 0 0-.101.012-.101-.067v-.242a4.388 4.4 0 0 0-.309-.592c-.101-.068-.301-.121-.403-.189-.1.012-.103-.145-.202-.213-.104-.222 0-.391.294-.582.203.133.405.423.709.466.2-.021.299-.19.4-.28s.099-.092.2-.102a.77.771 0 0 0 .198-.258c.099-.242-.106-.54-.212-.84a.66.662 0 0 1-.106-.458c0-.08.301-.271.299-.349.1.066.202.133.103.223s0 .077 0 .157c.102.065.302-.036.302-.114.1 0 0-.157 0-.241 0-.155.197-.336.397-.36a2.476 2.483 0 0 0 .5-.45.82.822 0 0 0 .197-.484c0-.157.094-.403 0-.548-.106-.382-.11-.774-.518-.967.101-.09.301-.191.2-.259-.205-.133-.304.036-.403.126 0 0-.205-.21-.103-.302.099 0 .099-.09.2-.102.099-.09.099-.09.2-.024l.306.2c.203.054.104.223.207.368 0 .08 0 .08.102.145.1-.012.1-.012.2-.102 0-.08.2-.18.2-.258 0-.157.096-.327 0-.394-.205-.133-.306-.121-.309-.356a.938.94 0 0 1 .193-.725c.2-.104.2-.104.097-.326-.102.012-.203.024-.102-.068v-.157c0-.314.196-.483.09-.795a2.29 2.296 0 0 0-.512-.568.964.967 0 0 0-.303-.278c-.104-.066-.405-.11-.405-.186-.102-.068 0-.158 0-.158 0-.08-.102-.145-.203-.133-.101-.067-.301.114-.4.126s0-.312.094-.404c0-.077.099-.169.299-.193a1.758 1.762 0 0 0 .4-.205c.099-.09.099-.242.297-.35l.308.434c.101.065.101.145.203.133 0 .077.101-.012.101-.012.203.053.101.145.304.12.301-.035.504.095.805.059.203-.024.203.056.2-.102s-.101-.145-.104-.302a3.358 3.367 0 0 0-.81-.295c-.303-.12-.508-.33-.81-.452a1.181 1.185 0 0 0-.405-.186 1.43 1.433 0 0 0-.402-.109 1.618 1.622 0 0 0-.907-.282l-.4.048a.706.708 0 0 0-.497.22l-.197.024c-.1 0-.1.167-.1.167-.098.092-.096.242-.195.338q-.145.255-.294.273l-.595.073a1.01 1.013 0 0 1-.482.14c-.1.012-.297.114-.393.126a1.623 1.627 0 0 1-.589.152 1.278 1.281 0 0 1-.482-.017c-.195.024-.291.036-.388.206a1.594 1.598 0 0 1-.386.283 3.877 3.887 0 0 1-.964.514c-.096.09-.287.194-.38.283-.285.116 0 .078-.095.324-.094-.065-.19-.053-.287-.196 0 0-.094-.222-.188-.133a.446.447 0 0 0-.284.116c-.092.17-.092.17-.28.116-.282.037-.468.14-.747.177-.186.024-.46-.094-.552 0a.723.725 0 0 1-.367.128c0-.08 0-.242-.092-.3a.328.329 0 0 1-.183-.287.687.689 0 0 0-.723-.21c-.178.024-.268.038-.357-.027s-.354-.107-.441-.015l-.263.271c-.087.014-.087.092-.173.104 0 .077-.087.092-.174.104-.174.024-.174.181-.345.208a.921.923 0 0 0-.427.14l-.421.065c-.17.027-.17.182-.333.286-.085.091-.085.169-.085.326s.242.039.336.024.082 0 .082.065v.157c0 .143-.133.242-.155.315a.2.2 0 0 0-.096-.199c0-.077-.241.04-.333.051a.868.87 0 0 0-.41.145 2.28 2.287 0 0 1-.643.484c-.16.026-.242.118-.396.145 0 .077-.24.038-.31.053l-.387.065c-.151.03-.151.107-.24.276-.075.09-.15.258-.225.35s-.075.242-.224.353c-.072.09-.147-.128-.22-.116-.074-.063-.291.133-.364 0-.072-.063-.142-.128-.214.041a.41.411 0 0 0-.212.353c0 .157-.073.17-.145.261s-.214.199-.142.341a.668.67 0 0 1 .072.375c0 .155.215.034.285.022.142-.03.356 0 .501-.02.217-.04.145-.026.292-.21 0-.077.075-.092.075-.17.072-.091 0-.077.072-.168.075-.013.299-.054.374 0 0 .08.229.038.303.024a.241.242 0 0 1 .304-.022c.154.05.154.13.241.27.08.066 0 .242 0 .313a.482.483 0 0 0 .16.207c0 .078.077.14.077.22 0 .155 0 .155-.157.26v.24a.7.701 0 0 0 .482-.313v.241a.882.885 0 0 0 .241-.74c0-.077-.159-.128-.159-.207v-.242c0-.077 0-.077.08-.092.32-.053.24.273.24.505v.701c.162-.026.483-.077.572-.241 0-.078-.084-.22-.084-.298s.166-.104.24-.118a.723.725 0 0 0-.081.404c0 .077-.082.089 0 .154v.155c.082.065.24.041.332.104s.085.065.085.145c0 .155.084.063.166.05s.256.197.171.209c0 .157-.084.324-.168.338s-.336.05-.42-.014a1.273 1.276 0 0 1-.412-.092c-.082-.066-.082-.143-.241-.194l-.405.066-.319.05c-.08-.142-.08-.22-.24-.27-.08-.143-.545-.063-.545-.295v-.242l.154-.027c.077.143.077.22.154.286.157-.104.08-.17.08-.242l-.157-.13c-.077-.064 0-.078-.154-.051-.077.014 0 .077-.077.014-.078.012-.078-.065-.155-.05 0-.158 0-.08-.075-.143-.077 0-.077-.066-.151-.051-.078-.065-.227-.039-.302-.024l-.516.094-.289.056c-.142-.051-.215-.114-.354-.165-.073.015-.215-.113-.215-.113-.072.091-.145.183-.217.198a4.26 4.271 0 0 1-.798.776 8.867 8.891 0 0 0-1.095 1.14 7.206 7.226 0 0 0-.588.888 1.109 1.112 0 0 0-.144.65c-.075.324-.075.556-.15.883 0 .154-.072.241-.072.4-.075.093 0 .243.072.298l.222.725.22.426v.312c0 .241 0 .241.146.283.075.142.147.05.294.024.22-.119.22-.119.367 0 .072.063.145.048.292.021s.653-.203.723-.14.13.225.202.288m6.601-7.101c-.086.169-.52-.08-.694.024-.084.012-.34-.03-.255-.119 0-.077.084-.324.17-.336.085-.091.256-.195.343-.13l.087.065c0 .08.087.065.173.053.176-.024.176-.024.263.119a.482.483 0 0 1-.087.324m-.612-2.872c.084 0 .084.065 0 .157-.087.012-.173-.053 0-.157m1.586 3.046v-.312c0-.155.09-.242.268-.27.09-.09.362-.129.273.118-.092.09-.181.18-.09.324 0 .157.09.145-.089.403 0 .078 0 .242-.27.271-.09.012-.178.102-.268-.041-.089-.065 0-.157.09-.17.178-.024.089-.246.086-.328zm-2.437-2.906c-.212-.068-.161-.263-.157-.43.039.198.666-.041.75-.128a.277.278 0 0 1 .085-.17c0-.077.084-.089.17-.104.087-.089.172-.258.259-.348a2.143 2.149 0 0 1 .607-.558c.09 0 .355-.05.355.029a.347.348 0 0 1-.176.336c-.09.09-.266-.041-.352.05s-.26.117-.348.286c0 .077-.086.09 0 .155l.087.065c.087 0 .263.041.35-.05.176-.025.352-.129.441-.141.176-.027.354-.05.176.13-.087.242-.53.153-.704.257s-.347.128-.52.242c-.088.012-.259-.04-.345.13-.085.09-.256.193-.34.283s-.338-.034-.338-.034"/><path d="M111.186 162.94c-.043 13.946 10.408 25.027 28.712 22.272 15.637-2.362 29.627-16.557 30.264-31.854a17.493 17.54 0 0 0-4.947-12.302l.098-5.214c.015-.832 0-1.692 0-2.539l-1.039.204-1 .193-.615.12-.345.066-.086.017-4.651.865a31.072 31.155 0 0 0-17.995-2.398 33.95 34.041 0 0 0-17.9 7.38l-4.92.926-1.844.336v7.649a31.1 31.184 0 0 0-3.732 14.28m26.826 15.783a1.673 1.678 0 0 1-.8-.592c-.2-.05-.299-.196-.499-.324-.2-.05-.398-.26-.598-.242l-.894.126c-.102.015-.2-.13-.2-.21-.1-.065-.198-.051-.297-.116a.482.483 0 0 0-.299-.119c-.198-.053-.198-.133-.294-.038.198.21.395.343.593.553.099.145 0 .317.198.29s.496-.15.696-.176a1.664 1.668 0 0 1 1.495 1.051 2.507 2.514 0 0 1 .198.842v.394a1.533 1.537 0 0 0-.2.425c0 .08-.099.334-.198.348a1.929 1.934 0 0 1-.598.242 2.112 2.118 0 0 1-.993.065 1.885 1.89 0 0 1-.989-.333 1.22 1.223 0 0 1-.482-.17 2.792 2.8 0 0 1-.294-.514v-.317a4.429 4.44 0 0 0-.108-.443 2.652 2.66 0 0 1 .588-.966l.296.437c.102.145.2.21.398.024s-.101-.304-.2-.37a.224.225 0 0 1-.099-.224.224.225 0 0 0-.099-.225l-.494-.329c-.099-.068-.393-.186-.393-.266s-.101-.464-.296-.198c-.196.186 0 .242.099.464a4.913 4.927 0 0 1-1.076-.094c-.291-.041-.583-.082-.964-.112-.579-.084-1.152-.241-1.721-.338a18.607 18.657 0 0 0-1.96-.319c-.092-.068-.184-.056-.367-.036a1.278 1.281 0 0 0-.545.065c-.091 0-.27.111-.36.123-.18.02-.358.041-.447-.109-.536-.256-.536-.814-.888-1.25a3.72 3.73 0 0 0-1.29-.966 1.43 1.433 0 0 1-.588-.409c0-.157-.084-.307.082-.326.241-.027.241-.027.42.19.168.061.508.02.68.08.258.129.605.242.867.375a15.83 15.872 0 0 1 1.517.776 6.182 6.198 0 0 0 1.654.6 8.691 8.715 0 0 0 1.687.425 1.999 2.004 0 0 1 .965.119c.193.053.29.04.386-.051.096-.172.192-.264.192-.423.097-.012.097-.092.193-.184l-.099-.068a.656.658 0 0 1-.192-.372c.096-.171.192-.266.289-.437a1.381 1.385 0 0 0 .29-.356 2.666 2.674 0 0 1 .78-.5 3.857 3.868 0 0 1 .885-.276 4.207 4.218 0 0 1 .989-.13 1.095 1.097 0 0 0 .496.092l.494-.06a.617.619 0 0 1 .2.686 1.688 1.692 0 0 1-.496.86c-.099.172-.099.332-.198.423l-.595.32a3.489 3.498 0 0 1-1.184.398l-.588.08c-.1-.068-.482-.014-.482-.094-.097-.148.195-.266.291-.438.1-.092-.096-.304-.195-.372l-.096.092v.16a1.659 1.663 0 0 1-.389.37l-.098.091c0 .08.098.148 0 .242 0 .08-.193.184-.193.263.289.121.58-.075.875-.033.096-.015.292.038.39.026.295-.039.483.015.687 0l.591-.08c.099-.014.198-.186.396-.215a4.132 4.143 0 0 0 .894-.36c.099-.092.297-.12.398-.213a1.377 1.38 0 0 1 .299-.36c.299-.278.499-.544.699-.725.499-.387 1.102-.786 1.603-1.173a28.449 28.525 0 0 1 2.008-1.073 4.687 4.7 0 0 1 1.001-.22 4.629 4.641 0 0 0 1-.222 17.824 17.872 0 0 1 1.985-.293c.393.02.786-.038 1.176-.02a3.857 3.868 0 0 0 .965-.07l.964-.149c.383-.06.67-.181.964-.227a3.884 3.894 0 0 1 .94-.07c.095.062.837.096.466.311a3.732 3.742 0 0 1-.938.46 2.324 2.33 0 0 0-.854.445 4.323 4.334 0 0 1-.769.51 3.857 3.868 0 0 1-.964.461 13.573 13.61 0 0 1-1.859.755c-.296.125-.692.263-.988.386a1.056 1.059 0 0 1-.497.075 1.418 1.421 0 0 0-.496.242l-.5.075a3.616 3.626 0 0 0-.499.242c-.397.058-.699.181-1.099.241a16.124 16.167 0 0 1-2.003.53l-1.003.142-.4.058-.5.07a1.786 1.791 0 0 0-.896.286 1.888 1.893 0 0 1-.398.213c-.198.106.299.195.299.195a4.504 4.516 0 0 0 1.097-.075 1.042 1.044 0 0 0 .397-.135c.102-.094.2-.109.502-.23a16.153 16.196 0 0 1 1.902-.278c.4.022.702-.024 1.102 0a3.134 3.143 0 0 0 .998.165 13.019 13.054 0 0 1 1.688.367 4.945 4.958 0 0 0 1.085-.014c.296.031.482.08.785.11a7.45 7.47 0 0 0 1.93 0l.672-.11c.284-.046.482-.242.665-.186l.567-.095a.456.457 0 0 1 .373.092c.28.032.374.017.278.264a2.541 2.548 0 0 1-.374.14l-.482.08a25.507 25.576 0 0 0-1.237.67c-.383.14-.675.422-.964.546l-1.167.425a10.005 10.032 0 0 1-1.965.631 6.302 6.319 0 0 1-2.184.034c-.3-.032-.598-.143-.998-.16-.69-.251-1.49-.447-2.19-.66m10.447-4.278c-.094.091-.188.029-.379.06a2.768 2.775 0 0 1-.383.14c-.19.03-.287-.034-.482 0a2.828 2.836 0 0 1-.386.14c-.29.124-.677.184-.964.31a11.572 11.603 0 0 1-1.57.321l-.887.138c-.2.03-.595.17-.796.044a3.194 3.203 0 0 1 .796-.278c.395-.14.692-.186.989-.31a15.227 15.268 0 0 0 1.957-.848c.584-.242 1.259-.588 1.929-.849l.836-.133 1.302-.212a8.766 8.79 0 0 0 1.813-.764 6.772 6.79 0 0 1 1.143-.348l.516-.09c.087-.014.087-.014.171.048.085-.014.241.189.167.28s-.085.17-.17.185l-.342.058s-.173.183-.26.198a84.719 84.946 0 0 1-.79.829c-.442.307-.804.754-1.257 1.061a7.09 7.11 0 0 0-.723.585c-.275.124-.646.418-.926.542a18.844 18.894 0 0 1-1.98.713 16.703 16.748 0 0 1-1.928.242 9.299 9.324 0 0 1-1.466 0c-.482-.078-.986-.08-1.48-.16-.595-.065-1.095-.225-1.591-.307a16.686 16.73 0 0 0 1.989-.145l2.17-.338c.291-.046.682-.187.964-.242a5.516 5.53 0 0 0 .964-.31 7.544 7.564 0 0 0 1.806-.756 2.76 2.768 0 0 0-.752.196m16.62-20.345.119-9.404c.012-.725 0-1.474 0-2.211a17.645 17.693 0 0 1 3.889 11.078c.048 14.055-10.927 27.619-28.529 30.805a59.332 59.491 0 0 0 3.694-1.376 47.876 48.004 0 0 0 8.291-4.288 24.454 24.52 0 0 0 7.298-6.95 29.587 29.666 0 0 0 4.682-10.373 42.03 42.142 0 0 0 .557-7.281m-.648-3.549c.552 4.262-2.013 9.37-5.005 12.812a14.417 14.456 0 0 1-8.597 4.509 18.267 18.316 0 0 1-9.285-.989c-.299-.116-.602-.312-.904-.43a1.902 1.907 0 0 1-.39-.194 14.05 14.088 0 0 0 5.86-10.851 11.035 11.064 0 0 0-5.971-9.382.4.4 0 0 1 .14-.063 1.167 1.17 0 0 1 .499-.375 20.203 20.258 0 0 1 16.416-3.647 10.297 10.325 0 0 1 7.237 8.61M139.6 133.07a31.489 31.573 0 0 1 16.688 1.902l-.603.097a382.489 383.515 0 0 1-10.562 1.47l-12.397 1.578-9.766 1.41a34.29 34.382 0 0 1 16.64-6.457m-10.647 11.572a17.5 17.548 0 0 1 10.731 1.869 10.574 10.603 0 0 1 5.74 8.987 10.176 10.204 0 0 1-.455 3.165v-.119c-.099.092-.198.104-.297.194l-.098.091c-.102.167 0 .078 0 .155.098.065 0 .312.197.21.02 0 .024-.038.039-.053a14.719 14.758 0 0 1-3.303 5.222.287.288 0 0 0 .048-.145c.101-.092.301-.196.304-.276.099-.17.2-.26.301-.43 0-.078.2-.181.203-.339a.538.54 0 0 0 .101-.406v-.706a1.04 1.042 0 0 1-.099-.773.516.517 0 0 0-.099-.38.533.534 0 0 1-.099-.38c0-.156.104-.874-.298-.589-.102.09-.102.242-.203.416 0 .08-.101.169-.203.338 0 .157-.1.17-.202.339s-.203.18-.304.036c-.2-.133-.603-.32-.301-.513.101-.169.202-.18.202-.338s.104-.242-.099-.225l-.506.06-.506.059c-.304.116-.506.374-.81.483a1.594 1.598 0 0 0-.91.423c-.1.09-.202.102-.303.273-.101.012-.101.09-.202.102l-.203.024a4.631 4.644 0 0 1-.906.423 1.275 1.279 0 0 0-.605.549c-.1.169-.1.242-.2.418a.46.462 0 0 0-.2.343.774.776 0 0 1-.1.409.663.665 0 0 1-.2.34c-.1.092 0 .242.102.305.098-.012.299.123.4.111a7.816 7.837 0 0 1 1.91-.391c.404.029.506.242.706.466.1.145 0 .242.202.29.101.068.2-.104.403-.207a2.433 2.44 0 0 0-.101.802c.1.145.1.302.2.37s.202.053.405.027c.1-.013.301-.119.504-.143l.402-.053c.171-.109.314-.218.458-.324-.282.258-.562.522-.86.771-.08.065-.176.114-.256.179 0-.049-.022-.094-.15-.128a.685.687 0 0 0-.3.196l-.203.026v-.08a.405.406 0 0 0-.302-.038l-.101.012c-.101.092-.304.275-.304.355a.26.261 0 0 0 .403.184c0 .065.043.07.07.099a21.56 21.618 0 0 1-9.62 3.807c-8.578 1.066-13.334-3.867-13.334-10.946a14.837 14.876 0 0 1 13.211-14.946m-14.029 18.96v1.977a18.66 18.71 0 0 0 .658 4.996 16.76 16.806 0 0 0 4.849 7.845 21.76 21.82 0 0 0 8.228 4.535 38.075 38.177 0 0 0 8.06 1.583 12.778 12.812 0 0 0 1.548.164c-17.262 2.07-26.436-8.702-26.397-21.87a30.052 30.132 0 0 1 3.062-12.828v5.076zm11.143-9.745c.09.143.179.053.268.041.27-.039.27-.193.27-.27.179-.26.09-.243.09-.404-.092-.143 0-.242.089-.324.089-.242-.184-.208-.273-.119q-.267.037-.268.27v.308c0 .077.092.3-.086.324-.09.017-.181.109-.09.174"/></g></svg>