<svg xmlns="http://www.w3.org/2000/svg" viewBox="0 0 490 490"><rect width="490" height="490" rx="60.06" ry="60.06" style="fill:#36c2d8;fill-opacity:1"/><g fill="#fff"><path d="M240.647 371.636A105.004 105.004 0 0 1 135.7 266.689c0-56.304 95.003-155.74 99.033-159.905l4.974-5.24 5.106 5.105c4.155 4.155 100.78 103.604 100.78 159.905a105.03 105.03 0 0 1-104.946 105.082m-.805-249.802c-8.332 9.004-25.8 28.487-43.134 51.33-30.773 40.572-47.033 72.832-47.033 93.39a90.972 90.972 0 0 0 181.944 0c0-20.558-16.528-52.808-47.838-93.39-17.603-22.708-35.475-42.326-43.94-51.33" data-name="Path 472473"/><path d="M240.647 405.231a138.7 138.7 0 0 1-138.54-138.542c0-74.711 104.274-178.988 108.71-183.286a7.032 7.032 0 1 1 9.944 9.944c-1.075 1.075-104.544 104.544-104.544 173.342a124.566 124.566 0 1 0 249.132 0c0-28.22-18.275-67.188-52.943-113.01a658 658 0 0 0-53.616-61.945 7.032 7.032 0 0 1 9.944-9.944c4.568 4.433 110.725 110.053 110.725 184.91a139.1 139.1 0 0 1-138.81 138.539z" data-name="Path 472474"/><path d="M240.647 438.824a168.834 168.834 0 0 1-168.64-168.642c0-38.436 19.351-85.73 57.38-140.422a624.5 624.5 0 0 1 56.839-70.276 7.033 7.033 0 1 1 10.079 9.81 628 628 0 0 0-55.496 68.665c-35.878 51.466-54.826 97.153-54.826 132.223a154.666 154.666 0 1 0 309.33 0c0-35.06-19.08-80.768-55.228-132.225a630 630 0 0 0-56.034-68.664 7.033 7.033 0 0 1 10.08-9.809c4.703 4.839 115.157 119.594 115.157 210.7a168.834 168.834 0 0 1-168.641 168.64" data-name="Path 472475"/></g></svg>