<svg xmlns="http://www.w3.org/2000/svg" xmlns:xlink="http://www.w3.org/1999/xlink" width="250" height="250"><defs><linearGradient xlink:href="#a" id="b" x1="17.334" x2="80" y1="74.339" y2="74.339"><stop offset="0" stop-color="#000070"/><stop offset=".327" stop-color="#000273"/><stop offset=".59" stop-color="#00097d"/><stop offset=".83" stop-color="#00148e"/><stop offset="1" stop-color="#00209f"/></linearGradient><linearGradient xlink:href="#a" id="c" x1="17.584" x2="17.584" y1="68.073" y2="80.102"><stop offset=".35" stop-color="#dfdfdf"/><stop offset=".645" stop-color="#ddd"/><stop offset=".752" stop-color="#d6d6d6"/><stop offset=".828" stop-color="#cbcbcb"/><stop offset=".889" stop-color="#bababa"/><stop offset=".941" stop-color="#a4a4a4"/><stop offset=".987" stop-color="#898989"/><stop offset="1" stop-color="gray"/></linearGradient><linearGradient xlink:href="#a" id="d" x1="48.667" x2="48.667" y1="68.69" y2="80"><stop offset=".35" stop-color="#0050cf"/><stop offset=".645" stop-color="#004ecd"/><stop offset=".752" stop-color="#0049c6"/><stop offset=".828" stop-color="#003fbb"/><stop offset=".889" stop-color="#0031aa"/><stop offset=".941" stop-color="#001e94"/><stop offset=".987" stop-color="#000879"/><stop offset="1" stop-color="#000070"/></linearGradient><linearGradient xlink:href="#a" id="e" x1="38.625" x2="38.625" y1="68.69" y2="80"><stop offset=".35" stop-color="#fbbf00"/><stop offset=".645" stop-color="#f9bd00"/><stop offset=".752" stop-color="#f2b600"/><stop offset=".828" stop-color="#e7ab00"/><stop offset=".889" stop-color="#d69a00"/><stop offset=".941" stop-color="#c08400"/><stop offset=".987" stop-color="#a56900"/><stop offset="1" stop-color="#9c6000"/></linearGradient><linearGradient xlink:href="#a" id="f" x1="17.334" x2="80" y1="55.313" y2="55.313"><stop offset="0" stop-color="#0050cf"/><stop offset=".021" stop-color="#0252d1"/><stop offset=".244" stop-color="#1363e2"/><stop offset=".487" stop-color="#1d6dec"/><stop offset=".791" stop-color="#2070ef"/><stop offset=".841" stop-color="#1e6dec"/><stop offset=".882" stop-color="#1963e2"/><stop offset=".919" stop-color="#1152d1"/><stop offset=".954" stop-color="#053ab9"/><stop offset=".966" stop-color="#0030af"/><stop offset="1" stop-color="#2070ef"/></linearGradient><linearGradient xlink:href="#a" id="g" x1="17.334" x2="80" y1="57.174" y2="57.174"><stop offset="0" stop-color="#fbbf00"/><stop offset=".021" stop-color="#fbc102"/><stop offset=".244" stop-color="#fdd213"/><stop offset=".487" stop-color="#ffdc1d"/><stop offset=".791" stop-color="#ffdf20"/><stop offset=".841" stop-color="#fddc1e"/><stop offset=".882" stop-color="#f8d219"/><stop offset=".919" stop-color="#eec111"/><stop offset=".954" stop-color="#e1a905"/><stop offset=".966" stop-color="#db9f00"/><stop offset="1" stop-color="#ffdf20"/></linearGradient><linearGradient id="a" gradientUnits="userSpaceOnUse"/></defs><circle cx="125" cy="125" r="125" fill="#cdcdcd" fill-rule="evenodd"/><path fill="#0e3ca5" d="M105.685 164.857c4.822 17.888 22.123 31.53 30.86 30.968.306-.02 33.138-6.157 51.112-36.26 13.983-23.43 9.224-46.05-9.798-46.543-6.845.5-81.358 17.762-72.17 51.84m70.393-114.887-.02-.014.03-.017a83.491 83.71 0 0 0-88-12.73 49.408 49.537 0 0 0-5.275 2.597c-1.172.626-2.346 1.247-3.482 1.933l.278.087a38.035 38.135 0 0 0-8.812 8.362c-23.975 31.733 56.344 54.804 99.292 54.88 19.746 14.22 25.291-40.031 5.989-55.098"/><path fill="#5493f7" d="M92.943 50.62c-11.035 16.626-47.79 28.345-53.834 26.52l-.041-.077q.373-.754.754-1.496A88.438 88.67 0 0 1 66.03 44.909q3.393-2.495 7.023-4.663a25.983 26.05 0 0 1 12.152-3.244c16.368.324 7.82 13.486 7.739 13.619m-9.056 117.507c.793 5.223-.019 25.864-1.085 27.6-.918.056-2.83.172-8.368-2.942a87.855 88.085 0 0 1-43.281-62.365 88.964 89.196 0 0 1 0-28.623 87.496 87.724 0 0 1 3.334-13.572q.441-1.33.923-2.642c6.344 8.46 13.685 16.113 19.924 24.656 5.943 8.134 14.119 21.395 15.782 24.23 10.329 17.59 11.976 28.444 12.764 33.66m122.11-52.021a87.759 87.988 0 0 1-6.126 32.41c-10.367 11.168-80.244-16.324-80.929-16.626-9.56-4.2-38.65-16.974-41.275-37.051-3.764-28.874 54.654-48.996 80.33-49.757 3.079.034 12.448.145 17.911 4.593a87.785 88.014 0 0 1 30.089 66.43m-47.305 78.254c-7.619 3.566-16.004.967-13.825-6.468 4.183-14.284 40.712-28.928 48.779-29.733.993-.096 1.417.583.976 1.359a88.892 89.124 0 0 1-35.923 34.833"/><path fill="url(#b)" d="M17.334 77.254a2.553 2.553 0 0 0 2.329 2.714c30.7.21 60.337-1.2 60.337-5.8 0-13.925-62.666 3.086-62.666 3.086" transform="matrix(2.41095 0 0 2.41725 27.124 21.614)"/><path fill="url(#c)" d="M17.586 78.389v-.007z" transform="matrix(2.41095 0 0 2.41725 27.124 21.614)"/><path fill="url(#d)" d="m39.658 72.107 5.715 5.715c19.473-2.582 34.146-6.473 34.146-3.522 0 4.245-29.173 5.7-59.843 5.494a2 2 0 0 1-.244-.014 2.35 2.35 0 0 1-1.846-1.388v-.007a3 3 0 0 1-.139-.368 3 3 0 0 0 .139.368v.007a2.33 2.33 0 0 0 2.087 1.386c5.88-.036 11.7-.414 17.278-.97l-5.073-5.073c-8.419 1.86-14.544 3.522-14.544 3.522a2.55 2.55 0 0 0 2.341 2.714c30.692.233 60.287-.731 60.325-5.8 0-8.317-22.34-5.602-40.342-2.064" transform="matrix(2.41095 0 0 2.41725 27.124 21.614)"/><path fill="url(#e)" d="m45.373 77.822-5.715-5.715a337 337 0 0 0-7.78 1.625l5.073 5.073z" transform="matrix(2.41095 0 0 2.41725 27.124 21.614)"/><path fill="url(#f)" d="M19.678 37.822a2.344 2.344 0 0 0-2.344 2.343v37.089a2.344 2.344 0 0 0 2.329 2.346c30.7-.23 60.374-10.391 60.337-5.431V32.393c.037-4.961-29.627 5.198-60.322 5.429" transform="matrix(2.41095 0 0 2.41725 27.124 21.614)"/><path fill="url(#g)" d="M80 49.142c0-.916-1-1.252-2.251-1.358a21.5 21.5 0 0 0-3.995.163l-3.1.42-2.767.431-2.671.455-2.624.462-2.63.455-2.679.459-2.766.468-2.931.464-3.12.482-3.36.481V35.771l-8.379 1.031v16.716l-3.592.341a173 173 0 0 1-6.105.441l-2.942.131-3.161.1-3.593.042v8.355l3.593-.042 3.159-.1 2.944-.131 2.946-.185 3.156-.255 3.591-.341v16.7l8.377-1.03V60.88q1.754-.239 3.361-.482t3.121-.481l2.929-.464 2.769-.469 2.679-.46 2.63-.454 2.624-.461a188 188 0 0 1 5.439-.887l3.1-.42a21.5 21.5 0 0 1 4-.164C79 56.246 80 56.581 80 57.5z" transform="matrix(2.41095 0 0 2.41725 27.124 21.614)"/></svg>