<svg xmlns="http://www.w3.org/2000/svg" width="80.003" height="190.002"><g data-name="Group 9621"><path fill="#425cc7" d="M45.399 122.488v63.438c0 3.368-2.116 4.98-4.729 3.558L4.787 169.808a10.81 10.81 0 0 1-4.756-8.716V99.101a12 12 0 0 0 1.667 1.116Z"/><path fill="#005cb9" d="M4.012 92.173 76.05 55.236A8.49 8.49 0 0 0 80 48.249V3.351C80 .568 78.22-.711 76.05.398L9.666 34.444C2.815 38.118-.356 39.846.032 47.609v41.612c0 2.647 1.81 4.069 3.98 2.953"/><path fill="#3cb4e5" d="M4.012 40.79 76.05 77.727a8.53 8.53 0 0 1 3.953 7.015v44.871c0 2.783-1.783 4.089-3.953 2.98L4.012 95.649a8.52 8.52 0 0 1-3.98-7.008V43.764c0-2.749 1.81-4.089 3.98-2.973"/><path fill="#00a0df" d="m5.139 92.174 50.1-25.691-50.1-25.691a2.52 2.52 0 0 0-2.783 0 9.9 9.9 0 0 0-1.2 4.341v43.5a8 8 0 0 0 .585 2.79 2.367 2.367 0 0 0 3.239.85q.072-.052.156-.1"/></g></svg>