<svg xmlns="http://www.w3.org/2000/svg" xmlns:xlink="http://www.w3.org/1999/xlink" width="250" height="250"><defs><linearGradient id="b" x1="17.337" x2="80" y1="74.339" y2="74.339" gradientUnits="userSpaceOnUse"><stop offset="0" stop-color="gray"/><stop offset=".327" stop-color="#838383"/><stop offset=".59" stop-color="#8d8d8d"/><stop offset=".83" stop-color="#9e9e9e"/><stop offset="1" stop-color="#afafaf"/></linearGradient><linearGradient id="c" x1="48.669" x2="48.669" y1="68.69" y2="80" gradientUnits="userSpaceOnUse"><stop offset=".35" stop-color="#dfdfdf"/><stop offset=".645" stop-color="#ddd"/><stop offset=".752" stop-color="#d6d6d6"/><stop offset=".828" stop-color="#cbcbcb"/><stop offset=".889" stop-color="#bababa"/><stop offset=".941" stop-color="#a4a4a4"/><stop offset=".987" stop-color="#898989"/><stop offset="1" stop-color="gray"/></linearGradient><linearGradient id="a" x1="17.337" x2="80" y1="55.314" y2="55.314" gradientUnits="userSpaceOnUse"><stop offset="0" stop-color="#dfdfdf"/><stop offset=".021" stop-color="#e1e1e1"/><stop offset=".244" stop-color="#f2f2f2"/><stop offset=".487" stop-color="#fcfcfc"/><stop offset=".791" stop-color="#fff"/><stop offset=".841" stop-color="#fcfcfc"/><stop offset=".882" stop-color="#f2f2f2"/><stop offset=".919" stop-color="#e1e1e1"/><stop offset=".954" stop-color="#c9c9c9"/><stop offset=".966" stop-color="#bfbfbf"/><stop offset="1" stop-color="#fff"/></linearGradient><linearGradient id="e" x1="17.337" x2="80" y1="44.88" y2="44.88" gradientUnits="userSpaceOnUse"><stop offset="0" stop-color="#cf2000"/><stop offset=".021" stop-color="#d12201"/><stop offset=".244" stop-color="#e23309"/><stop offset=".487" stop-color="#ec3d0e"/><stop offset=".791" stop-color="#ef4010"/><stop offset=".841" stop-color="#ec3d0f"/><stop offset=".882" stop-color="#e2330d"/><stop offset=".919" stop-color="#d12208"/><stop offset=".954" stop-color="#b90a03"/><stop offset=".966" stop-color="#af0000"/><stop offset="1" stop-color="#ef4010"/></linearGradient><linearGradient xlink:href="#a" id="f" x2="80.001" y1="47.75" y2="47.75"/><linearGradient xlink:href="#a" id="g" x1="17.338" x2="79.998" y1="46.261" y2="46.261"/><linearGradient xlink:href="#a" id="h" y1="45.477" y2="45.477"/><linearGradient xlink:href="#a" id="i" x1="17.335" x2="80.006" y1="42.796" y2="42.796"/><linearGradient xlink:href="#a" id="j" x2="79.999" y1="51.11" y2="51.11"/><linearGradient xlink:href="#a" id="k" x2="79.998" y1="50.617" y2="50.617"/><linearGradient xlink:href="#a" id="d"/></defs><circle cx="125" cy="125" r="125" fill="#cdcdcd" fill-rule="evenodd"/><path fill="#0e3ca5" d="M105.685 164.866c4.822 17.889 22.123 31.533 30.86 30.97.306-.02 33.138-6.158 51.112-36.261 13.983-23.432 9.224-46.054-9.798-46.547-6.845.5-81.358 17.763-72.17 51.843m70.395-114.894-.019-.014.027-.017a83.486 83.71 0 0 0-88-12.73 49.224 49.356 0 0 0-5.275 2.596c-1.172.626-2.344 1.247-3.482 1.934l.278.085a38.045 38.147 0 0 0-8.812 8.364c-23.975 31.735 56.344 54.814 99.292 54.884 19.748 14.22 25.293-40.034 5.991-55.102"/><path fill="#5493f7" d="M92.943 50.618c-11.035 16.631-47.79 28.349-53.834 26.526l-.041-.078q.373-.754.754-1.496A88.438 88.675 0 0 1 66.03 44.91q3.393-2.494 7.023-4.663a25.983 26.052 0 0 1 12.152-3.244c16.368.32 7.82 13.487 7.739 13.615m-9.056 117.519c.793 5.224-.019 25.866-1.085 27.6-.918.057-2.83.173-8.368-2.94a87.855 88.09 0 0 1-43.281-62.369 88.964 89.202 0 0 1 0-28.624 87.517 87.751 0 0 1 3.334-13.576 90 90 0 0 1 .923-2.64c6.344 8.46 13.685 16.114 19.924 24.657 5.943 8.137 14.119 21.399 15.782 24.232 10.329 17.594 11.976 28.448 12.764 33.665m122.11-52.027a87.759 87.993 0 0 1-6.126 32.407c-10.367 11.171-80.244-16.324-80.929-16.624-9.56-4.2-38.65-16.978-41.275-37.042-3.764-28.885 54.654-49.008 80.33-49.772 3.079.037 12.448.148 17.911 4.593a87.785 88.02 0 0 1 30.089 66.435m-47.305 78.261c-7.619 3.563-16.004.967-13.825-6.471 4.183-14.282 40.712-28.927 48.779-29.734.995-.097 1.417.582.976 1.358a88.892 89.13 0 0 1-35.923 34.835"/><path fill="url(#b)" d="M17.337 77.254a2.55 2.55 0 0 0 2.329 2.714c30.7.21 60.334-1.2 60.334-5.8 0-13.924-62.663 3.086-62.663 3.086" transform="matrix(2.41095 0 0 2.4174 27.124 21.609)"/><path fill="url(#c)" d="M17.337 77.254a2.55 2.55 0 0 0 2.341 2.714c30.69.233 60.285-.731 60.322-5.8 0-13.924-62.663 3.086-62.663 3.086m2.342 2.537a2 2 0 0 1-.245-.014 2.4 2.4 0 0 1-1.987-1.762 2.37 2.37 0 0 0 2.229 1.76c30.67-.192 59.843-9.635 59.843-5.477 0 4.244-29.172 5.702-59.84 5.493" transform="matrix(2.41095 0 0 2.4174 27.124 21.609)"/><path fill="url(#d)" d="M19.681 37.823a2.344 2.344 0 0 0-2.344 2.344v37.087a2.343 2.343 0 0 0 2.329 2.346C50.364 79.37 80.037 69.208 80 74.168V32.4c.037-4.966-29.626 5.194-60.319 5.423" transform="matrix(2.41095 0 0 2.4174 27.124 21.609)"/><path fill="url(#e)" d="M19.681 37.823a2.344 2.344 0 0 0-2.344 2.344v18.56q1.8 0 3.513-.041t3.356-.1q1.64-.06 3.216-.148t3.095-.2l2.986-.248 2.9-.276 2.826-.3 2.762-.328 2.73-.348 2.7-.377 2.681-.409 2.7-.42 2.718-.44 2.75-.471 2.814-.485 2.884-.5 2.967-.516 3.073-.493 3.3-.464a24.3 24.3 0 0 1 4.279-.228C78.933 52.02 80 52.361 80 53.3V32.4c.037-4.966-29.626 5.194-60.319 5.423" transform="matrix(2.41095 0 0 2.4174 27.124 21.609)"/><path fill="url(#f)" d="M28.566 53.065a6.8 6.8 0 0 1-1.523-2.232 7.1 7.1 0 0 1-.559-2.792 7.6 7.6 0 0 1 .559-2.849 8.1 8.1 0 0 1 1.523-2.41 8.5 8.5 0 0 1 2.27-1.76 8.2 8.2 0 0 1 2.787-.9 7.9 7.9 0 0 0-2.6-.225 8.6 8.6 0 0 0-3.068.826 8.7 8.7 0 0 0-2.5 1.812 8.3 8.3 0 0 0-1.69 2.565 8 8 0 0 0-.62 3.079 7.6 7.6 0 0 0 .619 3.035 7.4 7.4 0 0 0 1.686 2.431 7.2 7.2 0 0 0 2.506 1.555 7.3 7.3 0 0 0 3.068.407 8 8 0 0 0 2.6-.668 6.9 6.9 0 0 1-2.787-.429 6.65 6.65 0 0 1-2.271-1.445" transform="matrix(2.41095 0 0 2.4174 27.124 21.609)"/><path fill="url(#g)" d="m31.335 45.786-.407-1.291-.406 1.352-1.326.091 1.075.739-.413 1.35 1.07-.9 1.07.732-.411-1.285 1.072-.9z" transform="matrix(2.41095 0 0 2.4174 27.124 21.609)"/><path fill="url(#h)" d="m39.734 44.968-.405-1.277-.408 1.367-1.324.14 1.073.7-.411 1.366 1.07-.936 1.066.694-.41-1.273 1.069-.939z" transform="matrix(2.41095 0 0 2.4174 27.124 21.609)"/><path fill="url(#i)" d="m35.791 43.088 1.075-.92-1.327.134-.408-1.282-.407 1.36-1.326.12 1.074.714-.411 1.359 1.07-.92 1.073.714z" transform="matrix(2.41095 0 0 2.4174 27.124 21.609)"/><path fill="url(#j)" d="m32.5 49.339-.406 1.356-1.325.1 1.074.728-.412 1.355 1.069-.908 1.07.723-.412-1.283 1.072-.911-1.324.123z" transform="matrix(2.41095 0 0 2.4174 27.124 21.609)"/><path fill="url(#k)" d="m38.164 50.114-.406-1.278-.408 1.364-1.327.13 1.076.706-.413 1.362 1.072-.929 1.069.7-.412-1.274 1.072-.933z" transform="matrix(2.41095 0 0 2.4174 27.124 21.609)"/></svg>