<svg xmlns="http://www.w3.org/2000/svg" width="236" height="236"><circle cx="118" cy="118" r="118" fill="#fff" paint-order="stroke fill markers"/><path fill="#f00500" d="M159.77 50.532a115 115 0 0 0-12.791 15.003l-1.206-.388a88.5 88.5 0 0 0-21.433-4.105c-2.188-.166-10.35-.166-13.016 0-8.05.527-14.222 1.72-21.236 4.133-.28.11-.533.194-.785.277A113.3 113.3 0 0 0 76.09 50.56c23.284-11.787 50.523-13.201 74.9-3.91 2.61.97 5.162 2.107 7.659 3.327zm43.426 105.188c-3.535 9.956-8.837 19.191-15.71 27.234-3.73 4.326-7.854 8.292-12.287 11.897a91.1 91.1 0 0 1-35.43 17.277 93.9 93.9 0 0 1-43.537 0 90.9 90.9 0 0 1-35.43-17.277c-4.432-3.605-8.556-7.571-12.287-11.897-19.777-23.101-25.78-54.827-15.71-83.42a90 90 0 0 1 7.154-15.252c1.318-2.218 2.945-4.714 3.73-5.74 2.694 11.453 6.004 21.52 7.238 25.153a6.329 6.256 0 0 1-.308.61c-6.536 13.09-10.071 25.708-10.913 39.13 0 .166-.028.36-.028.527-.224 4.021-.112 5.935.561 8.458 2.104 7.904 8.584 16.612 18.74 25.154 16.634 13.977 39.189 24.071 56.272 25.236 17.814 1.192 44.099-9.096 61.604-24.127a88 88 0 0 0 7.742-7.682c1.74-1.997 4.32-5.436 4.124-5.436-.056 0 0-.055.112-.11.084-.056.168-.14.112-.195-.028-.027.028-.11.112-.138.085-.028.14-.083.113-.139-.028-.055 0-.11.112-.139.084-.027.112-.11.084-.166-.028-.055 0-.11.056-.11s.112-.084.112-.14c0-.055.056-.138.112-.138.057 0 .113-.056.113-.111.084-.222.224-.444.364-.638.421-.638 2.104-3.605 2.329-4.104 1.599-3.578 2.609-6.767 3.085-9.956.225-1.526.365-4.327.253-4.992-.028-.111-.028-.305-.056-.61-.056-.555-.084-1.387-.14-2.219a93 93 0 0 0-.253-3.855c-1.206-12.59-4.46-22.879-10.632-33.778a10 10 0 0 1-.617-1.164c-.056-.083-.084-.167-.112-.222.87-2.58 4.432-13.367 7.265-25.708l.057.055.42.555c.73.97 2.665 3.855 3.535 5.242a86.8 86.8 0 0 1 9.23 20.383c5.077 17.222 4.656 35.58-1.291 52.552"/><path d="M166.784 122.58c-.084.444-1.403 1.775-2.721 2.746-3.872 2.8-10.8 5.408-17.842 6.656-4.011.72-8.023.832-9.229.25-.785-.389-.898-.694-.617-1.692.59-2.08 2.497-4.354 5.47-6.49 1.515-1.081 7.658-4.77 10.52-6.323 4.713-2.551 8.528-4.076 11.109-4.437.813-.11 1.795-.139 2.104 0 .504.194 1.065 1.664 1.29 3.439.112.943.056 5.103-.084 5.851m-66.092 9.18c-.168.333-1.01.693-1.963.832-.954.138-3.872.055-5.527-.139-5.947-.776-12.259-2.579-16.86-4.798-2.58-1.248-4.431-2.495-5.806-3.854l-.785-.805-.085-1.053c-.14-1.83-.112-4.715.113-5.741.14-.86.448-1.692.87-2.44.224-.278.224-.278 1.233-.278 1.235 0 2.273.194 3.956.721 3.45 1.054 8.584 3.605 14.84 7.322 5.161 3.05 7.097 4.548 8.584 6.6 1.01 1.276 1.683 3.078 1.43 3.633m39.723 38.603c0 .083-.337 1.414-.758 2.995l-.757 2.912c-.309.028-.59.056-.898.028h-.898l-1.234 2.884-1.375 3.272-.168.389-.589-.943-.59-.943v-7.682l-.223.056c-.477.11-3.872.554-5.358.693a77.3 77.3 0 0 1-18.43-.388c-.983-.14-1.824-.25-1.852-.222s0 1.802.056 3.993l.084 3.938-.477.721c-.252.388-.505.721-.505.749-.084.083-.365-.36-1.01-1.636-.701-1.331-1.206-2.746-1.57-4.216l-.197-.804-.87.056-.87.083-.224-1.026a29 29 0 0 1-.308-1.886l-.085-.887-.729-.638-.926-.777c-.14-.11-.196-.305-.196-.471v-.333l3.507.028 3.506.027.112.36.113.361 1.206.056 4.713.139 3.506.083.898-1.387.926-1.386h1.178l-.028-2.885-.028-2.884-1.543-.665c-4.966-2.163-7.883-4.632-8.977-7.627-.224-.61-.224-.832-.28-3.605-.029-2.745-.029-2.995.168-3.605a4.06 4.06 0 0 1 2.89-2.829c.476-.138 1.738-.138 8.359-.138l7.798.027.87.416c1.038.5 1.515.86 2.104 1.636.673.888.87 1.581.87 3.273 0 2.413-.169 4.492-.421 5.324a11.5 11.5 0 0 1-1.627 3.19c-1.403 1.775-3.956 3.55-6.284 4.354l-.673.25.028 2.911.028 2.912.617.055.617.056.842 1.248.813 1.248h3.76l4.067.055c.28.056.336.028.617-.443l.337-.5h3.226c2.412-.11 3.142-.055 3.142.028m-14.812 7.96c-.533.304-.898.443-.982.388-.084-.028-.477-.36-.898-.666l-.757-.61-.786.832c-1.71 1.83-1.767 1.913-2.272 1.941-.785.083-.954-.055-1.907-1.47a46 46 0 0 1-.898-1.33s-.365-.056-.786-.084l-.785-.083-.365.749-.364.748-.646-.194c-.504-.166-1.01-.36-1.486-.582l-.842-.416v-1.58l7.462.027 7.462.028.028.748c.028.888.056.86-1.178 1.553"/><path fill="#fff" d="M195.734 144.489c-.028-.111-.028-.305-.056-.61-6.733-.721-25.949-1.165-43.79 13.395 0 0-5.75-26.069-32.681-26.069S82.29 157.274 82.29 157.274C67.198 141.217 47 142.38 39.706 143.435c0 .166-.028.36-.028.527-.224 4.021-.112 5.935.561 8.458 2.104 7.904 8.584 16.612 18.74 25.154 16.634 13.977 39.189 24.071 56.272 25.236 17.814 1.192 44.099-9.096 61.604-24.127a88 88 0 0 0 7.742-7.682c1.74-1.997 4.32-5.436 4.124-5.436-.056 0 0-.055.112-.11.084-.056.168-.14.112-.195-.028-.027.028-.11.112-.138.085-.028.14-.083.113-.139-.028-.055 0-.11.112-.139.084-.027.112-.11.084-.166-.028-.055 0-.11.056-.11s.112-.084.112-.14c0-.055.056-.138.112-.138.057 0 .113-.056.113-.111.084-.222.224-.444.364-.638.421-.638 2.104-3.605 2.329-4.104 1.599-3.578 2.609-6.767 3.085-9.956.169-1.526.309-4.327.197-4.992m-70.131 33.833c-.533.305-.898.444-.982.389-.084-.028-.477-.36-.898-.666l-.757-.61-.786.832c-1.71 1.83-1.767 1.913-2.272 1.941-.785.083-.954-.055-1.907-1.47a46 46 0 0 1-.898-1.33s-.365-.056-.786-.084l-.785-.083-.365.749-.364.748-.646-.194c-.504-.166-1.01-.36-1.486-.582l-.842-.416v-1.58l7.462.027 7.462.028.028.748c.028.888.056.86-1.178 1.553m14.026-4.991-.757 2.911c-.309.028-.59.056-.898.028h-.898l-1.206 2.912-1.375 3.272-.168.389-.589-.943-.59-.943v-7.682l-.223.056c-.477.11-3.872.554-5.358.693a77.3 77.3 0 0 1-18.43-.388c-.983-.14-1.824-.25-1.852-.222s0 1.802.056 3.993l.084 3.938-.477.721c-.252.388-.505.721-.505.749-.084.083-.365-.36-1.01-1.636-.701-1.331-1.206-2.746-1.57-4.216l-.197-.804-.87.056-.87.083-.224-1.026a29 29 0 0 1-.308-1.886l-.085-.887-.729-.638-.926-.777c-.14-.11-.196-.305-.196-.471v-.333l3.507.028 3.506.027.112.36.113.361 1.206.056 4.713.139 3.506.083.898-1.387.926-1.386h1.178l-.028-2.885-.028-2.884-1.543-.665c-4.966-2.163-7.883-4.632-8.977-7.627-.224-.61-.224-.832-.28-3.605-.029-2.745-.029-2.995.168-3.605a4.06 4.06 0 0 1 2.89-2.829c.476-.138 1.738-.138 8.359-.138l7.798.027.87.416c1.038.5 1.515.86 2.104 1.636.673.888.87 1.581.87 3.273 0 2.413-.169 4.492-.421 5.324a11.5 11.5 0 0 1-1.627 3.19c-1.403 1.775-3.956 3.55-6.284 4.354l-.673.25.028 2.911.028 2.912.617.055.617.056.842 1.248.813 1.248h3.76l4.067.055c.28.056.336.028.617-.443l.337-.5h3.226c2.496 0 3.226.028 3.226.111-.084-.027-.45 1.331-.87 2.885"/><path fill="#ffa409" d="M195.51 141.66a93 93 0 0 0-.253-3.855c-1.206-12.59-4.46-22.879-10.632-33.778a10 10 0 0 1-.617-1.164c-.056-.083-.084-.167-.112-.222.87-2.58 4.432-13.367 7.265-25.708 3.843-16.75 6.284-36.33-1.178-42.209 0 0-12.904-.942-30.184 15.808a115 115 0 0 0-12.792 15.003l-1.206-.388a88.5 88.5 0 0 0-21.432-4.105c-2.189-.166-10.352-.166-13.017 0-8.05.527-14.222 1.72-21.235 4.133-.281.11-.533.194-.786.277A113.3 113.3 0 0 0 76.118 50.56C58.137 33.726 44.756 34.697 44.756 34.697c-7.911 6.073-5.218 26.54-1.122 43.845 2.693 11.453 6.003 21.52 7.237 25.153a6.329 6.256 0 0 1-.308.61c-6.537 13.09-10.071 25.708-10.913 39.13 7.322-1.054 27.492-2.246 42.612 13.839 0 0 9.987-26.069 36.917-26.069s32.68 26.069 32.68 26.069c17.842-14.56 37.058-14.089 43.79-13.395zM56.172 93.24S45.682 67.31 48.375 52.5c.448-2.495 1.29-4.686 2.608-6.35 0 0 11.895 1.165 31.083 22.241 0 0-3.647 1.748-8.528 5.464 0 0-.028.027-.057.027-5.301 4.022-12.09 10.4-17.308 19.358m44.52 38.52c-.169.333-1.01.693-1.964.832-.954.138-3.872.055-5.527-.139-5.947-.776-12.259-2.579-16.86-4.798-2.58-1.248-4.431-2.495-5.806-3.854l-.785-.805-.085-1.053c-.14-1.83-.112-4.715.113-5.741.14-.86.448-1.692.87-2.44.224-.278.224-.278 1.233-.278 1.235 0 2.273.194 3.956.721 3.45 1.054 8.584 3.605 14.84 7.322 5.161 3.05 7.097 4.548 8.584 6.6 1.01 1.276 1.683 3.078 1.43 3.633m66.09-9.18c-.083.444-1.402 1.775-2.72 2.746-3.872 2.8-10.8 5.408-17.842 6.656-4.011.72-8.023.832-9.229.25-.785-.389-.898-.694-.617-1.692.59-2.08 2.497-4.354 5.47-6.49 1.515-1.081 7.658-4.77 10.52-6.323 4.713-2.551 8.528-4.076 11.109-4.437.813-.11 1.795-.139 2.104 0 .504.194 1.065 1.664 1.29 3.439.112.943.056 5.103-.084 5.851m-4.656-48.725-.056-.028c-4.713-3.716-8.247-5.463-8.247-5.463 18.542-21.077 30.016-22.242 30.016-22.242 1.262 1.692 2.075 3.855 2.524 6.351 2.61 14.81-7.518 40.767-7.518 40.767a66.3 66.3 0 0 0-16.719-19.385"/><path fill="#ff9300" d="M186.392 52.473c-2.188-.277-12.539-.333-24.265 21.382l-.056-.028c-4.713-3.716-8.247-5.463-8.247-5.463 18.542-21.077 30.016-22.242 30.016-22.242 1.29 1.692 2.104 3.855 2.552 6.351"/><g fill="#ff8300"><path d="M178.874 93.24a66 66 0 0 0-16.747-19.385c11.726-21.715 22.05-21.66 24.265-21.382 2.61 14.837-7.518 40.767-7.518 40.767M186.813 52.556l-.42-.083z"/></g><path fill="#ff9300" d="M82.066 68.364s-3.647 1.747-8.528 5.463c0 0-.028.028-.057.028-12.146-21.742-22.834-21.66-25.134-21.382.448-2.496 1.29-4.687 2.608-6.35.028 0 11.923 1.164 31.11 22.24"/><g fill="#ff8300"><path d="M73.51 73.855c-5.33 4.049-12.12 10.4-17.337 19.385 0 0-10.491-25.93-7.798-40.767 2.272-.277 12.988-.333 25.135 21.382M48.375 52.473l-.45.083z"/></g><path fill="#fff" d="M150.485 107.633s-8.976.554-7.854-6.379 8.135-7.765 10.099-7.487c1.963.277 9.818 3.05 8.415 8.874-1.402 5.824-3.366 4.714-4.488 4.992s-6.172 0-6.172 0m-66.203 0s-8.977.554-7.855-6.379 8.135-7.765 10.099-7.487 9.818 3.05 8.416 8.874c-1.403 5.824-3.367 4.714-4.489 4.992s-6.171 0-6.171 0"/></svg>