<svg xmlns="http://www.w3.org/2000/svg" xmlns:xlink="http://www.w3.org/1999/xlink" width="250" height="250"><defs><linearGradient xlink:href="#a" id="b" x1="67.622" x2="38.62" y1="93.895" y2="23.686" gradientTransform="scale(.82014 1.2193)"><stop offset="0%" stop-color="#c20ff6"/><stop offset="48.575%" stop-color="#749cce"/><stop offset="100%" stop-color="#47c1c1"/></linearGradient><linearGradient xlink:href="#a" id="c" x1="40.908" x2="81.091" y1="4.141" y2="39.073" gradientTransform="scale(1.14801 .87107)"><stop offset="0%" stop-color="#4af3ff"/><stop offset="100%" stop-color="#087792"/></linearGradient><linearGradient xlink:href="#a" id="d" x1="82.868" x2="55.278" y1="47.372" y2="66.96" gradientTransform="scale(1.11034 .90062)"><stop offset="0%" stop-color="#004957"/><stop offset="100%" stop-color="#7a97d0"/></linearGradient><linearGradient xlink:href="#a" id="e" x1="34.383" x2="25.438" y1="29.533" y2="40.05" gradientTransform="scale(1.20107 .8326)"><stop offset="0%" stop-color="#4adae8"/><stop offset="100%" stop-color="#5e92c9"/></linearGradient><linearGradient xlink:href="#a" id="f" x1="15.467" x2="46.181" y1="146.363" y2="158.319" gradientTransform="scale(1.3937 .71752)"><stop offset="0%" stop-color="#d29bff"/><stop offset="100%" stop-color="#b661e2"/></linearGradient><linearGradient xlink:href="#a" id="g" x1="28.162" x2="28.162" y1="71.847" y2="92.078"><stop offset="0%" stop-color="#7599ce"/><stop offset="100%" stop-color="#69039c"/></linearGradient><linearGradient xlink:href="#a" id="h" x1="27.375" x2="80.831" y1="56.398" y2="92.157" gradientTransform="scale(1.14463 .87364)"><stop offset="0%" stop-color="#1eb8f1"/><stop offset="100%" stop-color="#9f76db"/></linearGradient><linearGradient xlink:href="#a" id="i" x1="59.585" x2="44" y1="48.985" y2="64.798"><stop offset="0%" stop-color="#313131" stop-opacity="0"/><stop offset="100%"/></linearGradient><linearGradient xlink:href="#a" id="j" x1="23.099" x2="6.635" y1="88.977" y2="101.377" gradientTransform="scale(1.15671 .86452)"><stop offset="0%" stop-color="#313131" stop-opacity="0"/><stop offset="100%"/></linearGradient><linearGradient id="a" gradientUnits="userSpaceOnUse"/></defs><circle cx="125" cy="125" r="125"/><g fill-rule="evenodd"><path fill="url(#b)" d="M50.185 0H38.09L0 38.343l27.019 26.548L43.8 48.164 33.409 37.665l10.565-10.553 10.571 10.594L23.954 68.2 0 92.078l38.09 38.262h12.095l37.486-38.262-27.18-26.908-16.517 16.148 10.571 10.387-10.71 10.422-10.426-10.422 54.262-53.362z" transform="matrix(-1.40007 0 0 1.40007 186.376 33.857)"/><path fill="url(#c)" d="M49.581 0H37.486l38.072 38.078h12.113z" transform="matrix(1.40007 0 0 1.40007 63.63 33.857)"/><path fill="url(#d)" d="M60.651 64.892 87.67 38.079H75.995l-21.381 20.76z" transform="matrix(1.40007 0 0 1.40007 63.63 33.857)"/><path fill="url(#e)" d="m33.708 38.078 9.988-10.967-7.425-7.255L17.41 38.078z" transform="matrix(1.40007 0 0 1.40007 63.63 33.857)"/><path fill="url(#f)" d="M49.581 130.34 12.627 92.078h20.777L52.39 110.28l18.665-18.575H87.67z" transform="matrix(1.40007 0 0 1.40007 63.63 33.857)"/><path fill="url(#g)" d="M33.404 92.078H12.627l21-20.232 10.07 9.471z" transform="matrix(1.40007 0 0 1.40007 63.63 33.857)"/><path fill="url(#h)" d="m33.824 38.165-16.414-.086 53.646 53.627h16.615z" transform="matrix(1.40007 0 0 1.40007 63.63 33.857)"/><path fill="url(#i)" d="m44 48.29 16.651 16.601L73.479 53.16 53.732 38.078z" transform="matrix(1.40007 0 0 1.40007 63.63 33.857)"/><path fill="url(#j)" d="M7.675 75.917 24.13 92.078l19.567-19.827-25.729-7.095z" transform="matrix(-1.40007 0 0 -1.40007 135.555 253.997)"/></g></svg>