<svg xmlns="http://www.w3.org/2000/svg" xml:space="preserve" viewBox="0 0 490 490"><path d="M0 245c0 135.1 109.9 245 245 245s245-109.9 245-245S380.1 0 245 0 0 109.9 0 245" style="fill:#b30d23"/><path d="M260.2 319.7 245.5 347l-14.7-27.3c-89-6.9-158.8-72.9-158.8-72.9 0-.2 67.8-64.1 155-72.5l11.5-19.7 7-11.6 11.8 19.7 6.7 11.6c87.1 8.3 155 72.5 155 72.5s-69.9 66-158.8 72.9M86.7 246.8c-.2 0 67.1 45.7 134.6 55.4l-32.9-61.3 8.9-15.4 8.2 15.3-.2.2 32 62.7c2.6.2 5.1.2 7.7.2s5 0 7.6-.2l23.5-46.7 17.2-31.8 8.9 15.4-32.7 61.4c67.5-9.5 134.8-54.1 134.8-55.4 0-1.1-64-43.7-129.9-54.6l10 17.3L276 226l-21.7-36.2c-2.9-.2-5.9-.3-8.8-.3s-5.9.2-9 .3L214.4 226l-8.2-15.9 10.5-17.9c-65.9 11.1-130 54.6-130 54.6" style="fill:#fff"/></svg>