<svg xmlns="http://www.w3.org/2000/svg" xml:space="preserve" id="Status" x="0" y="0" version="1.1" viewBox="0 0 245 245"><style>.st1{fill:#fff}</style><path id="Main" d="M0 122.5C0 190 55 245 122.5 245S245 190 245 122.5 190 0 122.5 0 0 55 0 122.5" style="fill:#505db7"/><path id="Down" d="M157 130c-16.5 4.3-54.4-2.2-64.5-2-.8.2-30-.2-32 28 0 30.1 28.1 28.5 30.5 28.5 36.4 0 66-27 66-54.5" class="st1"/><path id="Up" d="M88 114.8c16.5-4.3 54.4 2.2 64.5 2 .8-.2 30 .2 32-27.9 0-30-28.1-28.4-30.5-28.4-36.3 0-66 26.9-66 54.3" class="st1"/></svg>