<svg xmlns="http://www.w3.org/2000/svg" width="256" height="256" viewBox="0 0 67.733 67.733"><g transform="translate(0 -229.267)"><circle cx="33.867" cy="263.133" r="32.411" style="opacity:1;fill:#00d1ff;fill-opacity:1;fill-rule:nonzero;stroke:none;stroke-width:.55256832;stroke-linecap:round;stroke-linejoin:round;stroke-miterlimit:4;stroke-dasharray:none;stroke-dashoffset:0;stroke-opacity:1;paint-order:stroke fill markers"/><path d="M86.98 59.21q-3.773-4.321-9.303-4.322H2.26c-.67 0-1.218-.212-1.63-.636-.42-.417-.63-.89-.63-1.396V2.032q0-.76.63-1.395C1.041.212 1.59 0 2.26 0h79.693c20.11 0 37.458 8.22 52.04 24.65l19.358 23.631-37.708 45.995zm139.278-34.813Q248.13 0 278.548 0h79.443c.67 0 1.17.172 1.508.506q.5.51.501 1.526v50.825c0 .505-.169.978-.501 1.395-.338.424-.838.636-1.508.636h-75.417q-5.53 0-9.304 4.323l-55.558 67.595 55.808 68.101c2.517 2.715 5.528 4.07 9.054 4.07h75.417c.67 0 1.17.212 1.508.636.332.425.501.979.501 1.648v50.825c0 .507-.169.979-.501 1.395-.338.425-.838.637-1.508.637h-79.443c-20.279 0-37.628-8.214-52.04-24.65l-46.255-56.412-46.26 56.412c-14.582 16.436-32.012 24.65-52.29 24.65H2.26c-.67 0-1.177-.212-1.509-.637-.338-.423-.5-.97-.5-1.654v-50.825c0-.507.162-.972.5-1.396.332-.423.839-.636 1.509-.636h75.417c3.519 0 6.618-1.437 9.304-4.322l54.55-66.576z" style="fill:#fff;fill-opacity:1" transform="translate(12.997 248.402)scale(.11594)"/></g></svg>