<svg xmlns="http://www.w3.org/2000/svg" width="250" height="250" viewBox="0 0 66.146 66.146"><circle cx="33.073" cy="33.073" r="33.073" fill="#303067"/><path fill="#00f9bb" fill-rule="evenodd" d="M53.56 37.786a8.2 8.2 0 0 1-1.877 1.554c-1.845 1.109-4.166 1.468-7.463 1.503h-.838.003H25.18l-11.962 7.695h28.78c4.673-.017 8.833-3.096 10.412-7.495zm-28.594-9.538H47.34a4.2 4.2 0 0 1 3.433 1.755 4.2 4.2 0 0 1 .552 3.815c-.549 1.593-2.046 2.76-3.733 2.765H21.114a3.42 3.42 0 0 1-3.134-4.503l2.33-6.968c1.158 2.154 3.49 3.11 4.656 3.136zm19.811-4.152 7.713-6.68H27.65c-1.109.003-2.096.802-2.46 1.852a3.637 3.637 0 0 0 3.454 4.828z"/></svg>