<svg xmlns="http://www.w3.org/2000/svg" width="245" height="245"><path fill="#1ae5ae" d="M0 122.5C0 190 55 245 122.5 245S245 190 245 122.5 190 0 122.5 0 0 55 0 122.5"/><g fill="#fff"><path d="M75.025 152.094a4.61 4.61 0 0 1 3.262-1.347h112.551a2.3 2.3 0 0 1 1.631 3.936l-22.238 22.234a4.61 4.61 0 0 1-3.262 1.348H54.423a2.3 2.3 0 0 1-1.631-3.936Z" data-name="Path 472470"/><path d="M75.025 69.082a4.74 4.74 0 0 1 3.263-1.347h112.55a2.3 2.3 0 0 1 1.631 3.936l-22.238 22.234a4.61 4.61 0 0 1-3.262 1.347H54.423a2.3 2.3 0 0 1-1.631-3.936Z" data-name="Path 472471"/><path d="M170.231 110.322a4.61 4.61 0 0 0-3.262-1.347H54.423a2.3 2.3 0 0 0-1.631 3.936l22.233 22.234a4.61 4.61 0 0 0 3.262 1.348h112.551a2.3 2.3 0 0 0 1.631-3.936Z" data-name="Path 472472"/></g></svg>