<svg xmlns="http://www.w3.org/2000/svg" xml:space="preserve" viewBox="0 0 245 245"><path d="M0 122.5C0 190 55 245 122.5 245S245 190 245 122.5 190 0 122.5 0 0 55 0 122.5" style="fill:#6522ff"/><path d="M122.5 31.5c-50.2 0-91 38-91 91 0 52.4 43.5 90.5 91 90.5 48.4 0 90.5-39.3 90.5-90.5 0-52.6-40.7-91-90.5-91m32.6 30.8c1-.5 1.4-1.3 2-2.2 2.5-3.6 2-7.4-.1-10.9 1.9.5 3.6 1.8 5.2 2.7 3.7 2.3 7.1 4.4 10.5 6.9 1.5 1.2 3 2.4 4.3 3.7l1.9 2c1.7 1.3 5.2 4.9 6.2 6.8-1.5-1-2.8-2.3-4.3-3.3q-3.9-2.25-8.1-3.9c-2.6-1.1-5.3-1-8.4-1.7-1.3-.3-7.5-.7-8.6 0h-.6zm2.4 7.5c16.5 0 26.1 7.6 30.9 19.1 1.8 4.2 3.5 11.3 2 17.4-.6 2.5-1.3 5-2.3 7.3-3.2 7.4-9.7 13-17.3 16.1-2.5 1-5.2 1.2-8.1 1.9h-2.4c-3.8.8-9.4-1.2-12.1-2.3-9.3-3.9-14.9-10.3-18.1-20.3-1-3-1.9-8.6-1-12.5.5-2 .7-4.2 1.4-6 3.5-8.6 9.2-15 17.7-18.5 1.9-.7 3.9-1.3 5.9-1.7 1.1-.4 2.6 0 3.4-.5m26.9 64.7c.3 1 .6 1.9 1 2.9-1.6-.7-3.3-1.3-5-1.7-.8-.2-2.3.1-3-.3-.1 0-.2-.1-.3-.1 1.8-.5 6.7-3.7 7.6-5 .3.6-.6 2.7-.3 4.2m-23.6 29.3c.7.6 1 1.6 1.6 2.3 1.2 1.5 2.8 2.9 4.5 3.9-.5.3-1.4.1-2 .3-1.7.5-3.6 1.6-4.5 2.9h-.1c.4-3.1.5-6.3.5-9.4m2.8-22.6c-3.1 3-4.9 7-5.2 11.2h-.1c-.4-1.4-1-2.8-1.9-4-1.3-2.1-2.2-4-3.6-5.9s-3.4-3.4-5-5.2c1.1.3 2.3.7 3.3 1l5.3.9h2.4c2.4.2 5.2-.3 7.5-.4v.1c-1.2.4-1.9 1.5-2.7 2.3M121 113.3c.4-1.2 1.1-2.5 1.2-4h.3c.6 6.3 5.4 12.9 8.5 17l3.5 3.5c-4.8-1.9-13-2.7-18.9-1.3-1.7.4-3.9.3-5.2 1.3h-.1l3.5-3.5c2.9-4.1 5.1-7.6 7.2-13m-4.5-34.5c-.7-1-1.7-1.9-2.3-2.9 3.5 1.7 8.9 2.4 13.2 1 1-.3 2.1-.4 2.7-1h.1c-.9 1.3-2 2.4-2.9 3.7-1.6 2.6-2.7 5.3-3.9 8.3-.4 1.2-1.1 2.5-1.2 4-.6-.4-1.5-4.7-1.9-5.6-.9-2.5-2.2-5.1-3.8-7.5M141.2 60q.15 0 0 0c.8.6 1.2 1.7 2 2.3 1.2.9 2.5 1.3 4 1.9-.6.6-1.7.6-2.6 1-1.6.7-5 2.2-6 3.5h-.1c1.3-2.6 2.4-5.1 2.7-8.7q.15 0 0 0m8.8-1c-2.9.7-5.6-2.7-4.8-5.3.4-1.2 1.3-2.2 2.4-2.7.4-.2.8-.1 1.2-.3 5.7-.1 6 7 1.2 8.3m-11.9-16.1c2.1.6 4 .6 6 1.3 1.2.4 2.4 1 3.7 1.2-.6.4-1.6.4-2.3.7-2.3 1.1-4.9 3.3-5.3 6.3h-.1c-.7-3-3.7-6.8-5.9-8.5-1-.8-2.5-1.3-3.5-2.2 2.5.1 5 .5 7.4 1.2m-19.4 5c.9-.3 2.4-.1 3.3-.6 7.7.5 14.4 7.5 10.8 16-1.7 4.1-5.2 5.9-10.1 6.9-1.9.4-4.2-.7-5.3-1.3-4.2-2.2-8.4-7.7-5.8-14.2 1.3-3.2 3.9-5.6 7.1-6.8m-18.8-3.4c2.7-.9 5.8-1.4 8.8-2.2 1.2-.3 2.9 0 3.9-.6h1.2v.1c-2.9.8-6.3 4.6-7.8 6.9-.6 1-.9 2.4-1.6 3.3v.3c-.3-.8-.7-1.6-1-2.4-1.5-2.4-4-4.1-6.8-4.5.8-.6 2.3-.6 3.3-.9m6.1 24.1c-1.6-1-3.4-2.2-5.2-3-1.1-.5-2.4-.6-3.3-1.3-.1 0-.2-.1-.3-.1 2.6-.9 4.7-1.9 5.9-4.2.6.8.4 2.7.7 3.7.6 1.7 1.3 3.3 2.2 4.9M91.2 53.7c.4-1.2 1.3-2.2 2.4-2.7.4-.2.8-.1 1.1-.3 5.7 0 6 7.1 1.2 8.3-2.9.7-5.6-2.7-4.7-5.3M64.8 65.5c1-1.3 2.2-2.4 3.5-3.3 1.3-1 2.3-2.4 3.6-3.3 2.7-2 5.4-4 8.2-5.8 1.5-.9 3.1-1.8 4.6-2.6.9-.4 1.9-.7 2.6-1.3h.3c-2.1 3.5-2.6 7.3-.1 10.9.6.9 1 1.7 2 2.2v.1c-10.4-.7-17.9 1.1-24.3 5-1.8 1.1-4.3 2.1-5.5 3.9h-.1c1.1-2.3 3.7-3.8 5.2-5.8m-23 64.2h-.1c0-6.6-.7-14.2.7-20l.3-2.6 2-8.2c.5-1.6 1.5-3.3 1.7-5 .2.5-.1 2-.3 2.6 0 2.3-.1 4.6-.1 6.9.3 2 .6 3.9.9 5.9 1 3.7 2.3 7.2 4 10.1.9 1.5 1.5 3.5 2.9 4.5v.3c-3.7-1.5-8.5.2-10.2 2.4-.7.9-1 2-1.7 2.9v.2zm7.9 17.7-.9 3c-.2.7 0 1.5-.3 2v3h-.1c-.4-1.6-1.3-3-1.9-4.5-1-2.5-1.4-4.9-2.3-7.6q-.75-2.1-1.2-4.5c.5.3.7 1 1.2 1.3 1.6 1.2 2.9 1.6 5.3 2.2.8.2 2.4.3 3-.1h.1c-.8 1.8-2.1 3.3-2.9 5.2m1.4-10.2c-2.7.7-5.4-2.8-4.6-5.3.7-2.1 1.9-2 3.5-3 5.9-.2 6.2 7.1 1.1 8.3m2.8-41.3c.5-2 .8-4.2 1.6-6 3.3-8.2 9.1-14.4 17.1-17.8 2-.8 4.2-1.3 6.3-1.9 1-.2 2.4.1 3.2-.4 16.3 0 24.8 7 30.4 17.7 2.3 4.5 4.3 12.6 2.6 19.3-.6 2.4-1.4 4.8-2.3 7-3.3 7.5-9.9 13-17.6 16.1-2.3.9-5 1.1-7.6 1.7H85c-3.9.8-9.6-1.3-12.4-2.4-8.7-3.7-14.5-10.1-17.6-19.4-1.1-3.5-2.2-9.3-1.1-13.9m30.3 76.8v.4c-1.9-1.3-3.2-3.1-6.6-3 .4-.6 1.1-.8 1.7-1.3 1.7-1.4 3.1-3.1 4.2-5 .3.5.1 1.9.1 2.7.1 1.8 0 5.2.6 6.2m-.4-27.9c-1.1-1.7-2.3-3.2-3.7-4.6-.5-.5-1.2-.7-1.6-1.3h-.3v-.1l3 .4h2.9c2.6.5 6.4-.3 8.6-.9 1.3-.3 2.8-.3 3.7-1h.3v.1c-1.1.4-2.9 2.7-3.6 3.6-1.5 1.9-3.2 3.8-4.5 5.9-1 1.6-1.3 3.7-2.4 5.2v.3c-.5-.7-.3-2-.6-2.9-.3-1.6-1-3.2-1.8-4.7m-24.2-14.6c2.4 1.6 4.7 4.3 7.8 5v.1c-3 .6-6.4.3-8.2 2h-.1c.9-2.2 1.1-4.7.5-7.1m-2.7 19.7c1.3-2.8 3.5-5 6.3-6.2.8-.4 2.1-.2 2.9-.7 1.9 0 3.6 0 5 .6 4.9 1.9 9.6 8.2 6.6 15.1-1.5 3.5-4.6 5.8-8.6 6.8-2 .5-4.4-.2-5.6-.7-4.9-2.2-9.5-8-6.6-14.9m11.2 30.7c.2.7.1 1.3.4 1.7v.3c-1.1-.4-2.6-2.3-3.5-3.2-2.2-2.2-4.3-4.5-6.2-7-.6-.9-1.5-1.6-2-2.6q2.85 1.8 6 2.7c.9.3 1.7.1 2.7.3s3.6.4 4.5-.1h.4c-1.1 2-3.1 4.3-2.3 7.9m5.4-2.6c.5-1.4 1.6-1.8 2.7-2.6 6.1-.2 6.3 6.6 1.6 7.8-2.6.7-5.3-2.6-4.3-5.2m30.8 23.2c-2-.6-4-.9-5.8-1.6-1.5-.6-2.9-.7-4.3-1.3-4.5-1.8-8.9-4-13.1-6.5-1.7-1.1-3.8-1.9-5.2-3.3h-.1v-.1c5.1 1 10.4-3.2 10.5-7.5.7.4.8 1.5 1.2 2.3.8 1.8 1.9 3.5 3 5.2 3.3 4.7 7.4 8.2 12.4 11.2 1.2.7 2.4 1.6 3.9 2-.7.3-1.9-.2-2.5-.4m20.1-3.9c-1.4.2-2.9.1-4.3-.1l-3.3-.3c-2.2-.5-4.3-1.2-6.3-2-8.8-3.7-14.6-10-17.7-19.4-1-3-2.3-8.8-1.3-13.1.5-2.4.9-4.8 1.7-6.9 3.5-8.7 9.7-14.7 18.4-18.3 1.9-.8 4.2-1.1 6.3-1.6.9-.2 2.4.2 3.2-.3 15.3 0 25.1 8.3 29.7 19.1 3 7 3.2 16.7.1 23.9-3.5 8-9.7 13.8-17.9 17.1-2.6 1.1-5.5 1.2-8.6 1.9m44.3-8.8c-1.9 1-3.6 2.5-5.5 3.6-4 2.4-8.5 4.3-13 6.2l-7.8 2.4c-1.4.4-3.2.3-4.3 1h-.4v-.1c1.9-.5 3.5-1.8 5-2.7 4.9-3 9-7.1 11.9-11.9 1.1-1.8 2.6-3.7 3.2-6h.3c.1 3.7 3.2 6 6 7 .7.3 3.1 1.1 4.2.4h.3v.1zm-.8-5.3c-2.4.6-5.2-2.3-4.5-4.9.4-1.6 1.7-2 2.9-2.9 6.1-.1 6.3 6.6 1.6 7.8m19.6-13.2c-.4 1.3-1.7 2.2-2.4 3.2-1.7 2.3-3.6 4.5-5.6 6.5-1 1-2.4 1.8-3.2 3h-.3c.8-3.6.6-8-2-9.8v-.1c4.5.5 8.5-.1 11.5-1.7.7-.4 1.5-.5 2-1.2l.1.1zm.4-12.2c-1.5 4-4.6 6.6-9.1 7.6-2.2.5-4.6-.3-5.9-.9-4-1.7-8.7-6.7-6.8-13.1.9-3.4 3.3-6.1 6.5-7.6.9-.4 2.4-.3 3.3-.9 1.5 0 2.8-.1 4 .3 5.1 1.5 10.5 7.6 8 14.6m2-26.1c.6-1.8 1.9-1.9 3.3-2.9 6-.1 6.3 7.1 1.3 8.3-2.8.8-5.5-2.6-4.6-5.4m10.7 11.3c-1 3.1-2 6.3-3.2 9.1-.5 1.1-.6 2.4-1.3 3.2v.3h-.1c0-5.7-1.3-10.3-4.2-13.1v-.1c3.8 1.3 8.2-1.1 9.5-3.3.2.2-.5 3.1-.7 3.9m2.3-14.6v1.3h-.1c-.7-3.3-3.6-5-6.8-5.9-1.3-.4-4-.5-5 .3h-.1c.3-.8 1-1.4 1.4-2 1.1-1.6 2.1-3.4 2.9-5.2 2.8-6.4 4-14.1 2.9-23 1.1 1.4 1.5 4.7 2.2 6.6 1.9 5.9 2.9 12 3 18.1.1 2.5.3 5.6-.1 7.8-.3.7 0 1.6-.3 2" style="fill:#fff"/></svg>