<svg xmlns="http://www.w3.org/2000/svg" xml:space="preserve" id="Sophiatx" x="0" y="0" version="1.1" viewBox="0 0 245 245"><style>.st1{fill:#fff}</style><path id="Main_copy_3" d="M0 122.5C0 190 55 245 122.5 245S245 190 245 122.5 190 0 122.5 0 0 55 0 122.5" style="fill:#00b098"/><g id="TX"><g id="T"><path id="T_1" d="M45.5 87v-3H110v3z" class="st1"/><path id="T_2" d="M45.5 95v-3H110v3z" class="st1"/><path id="T_3" d="M72 100.5h3v68h-3z" class="st1"/><path id="T_4" d="M79.5 100.5h3v68h-3z" class="st1"/></g><g id="X"><path id="X_1" d="m118.9 91.5 2.2-2.1 29 30.5-2.2 2.1z" class="st1"/><path id="X_2" d="m123.9 86.5 2.2-2.1 29 30.5-2.2 2.1z" class="st1"/><path id="X_1_Down" d="m162.9 137.5 2.2-2.1 29 30.5-2.2 2.1z" class="st1"/><path id="X_2_Down" d="m167.9 132.5 2.2-2.1 29 30.5-2.2 2.1z" class="st1"/><path id="X_3" d="m120.6 163.5-2.2-2.1 73-77.5 2.2 2.1z" class="st1"/><path id="X_4" d="m126.1 169-2.2-2.1 73-77.5 2.2 2.1z" class="st1"/></g></g></svg>