<svg xmlns="http://www.w3.org/2000/svg" xml:space="preserve" viewBox="0 0 245 245"><path d="M0 122.5C0 190 55 245 122.5 245S245 190 245 122.5 190 0 122.5 0 0 55 0 122.5" style="fill:#070f12"/><path d="M104 114h6s.5 11 6.5 17c-.1 2.2-1.9 12.9-9 13.5-7.3-.7-9.7-9.3-10.5-12.5 5.2-4.9 7-18 7-18m15-11.5c3.5.9 4.8.2 6.5 0 .1 3.8 6 11 6 11s-1 15.9-9 16.5c-8.7.6-10-17-10-17s5.4-6.1 6.5-10.5m-29.5-1c1.4.8 6 .5 6 .5s2.4 10 6 10.5c-.7 2.6-2.7 17.8-10 18s-8.8-14.4-9-18c4.8-3.8 6.6-9.8 7-11m46 12.5h6.5s.5 13.5 7 18c-1.6 3.4-4.4 12.7-11 12.5-7.5-.3-8.8-12.3-9-14 5.9-5.1 6.5-16.5 6.5-16.5m-29-27.5c1.5.8 5.5 0 5.5 0s1.2 11.4 4.5 12.5c.4 3.3-4 12.9-10 12.5-4.5 0-8-6.7-8-11.5 3.1-.8 7.8-10.7 8-13.5M134 86c1.8.7 5 0 5 0s2.1 8.7 7.5 13c-.1 2.2-.3 11.9-8.5 12s-8.4-10-9-12.5c4.7-1.9 4.5-10.4 5-12.5m-11.5-11.5c-4.5 0-3 9.1-8.5 11.5.5 2.8 1.1 13.3 8.5 13.5 7.9.2 8.4-11.3 8.5-13.5-4.5-1.9-4-11.5-8.5-11.5m-23.5 0c-2.5-.2-8.2 10.5-11 11-.4 1.2-2.5 13 4.5 13.5s10.4-12.3 11-13.5c-3.9-2.5-.9-10.8-4.5-11m47.5 0c3.7-.8 7.7 10.2 11.5 11.5.6 2.3 2.7 12.9-5 13s-10.4-11.8-11-13.5c4.3-4.4.8-10.3 4.5-11m3 27.5c2.2 1.1 7-.5 7-.5s2.3 9.5 7.5 12c-.9 2.3-2.4 17.4-9.5 17.5-8.7.1-9.3-17.1-10-18 4.8-3 4.9-9.6 5-11m11-16c1.4.7 3.5 0 3.5 0s4.4 11.3 8 13.5c.4 1.8-.3 11.8-5 11.5s-7.4-7.2-9-12c5.1-6.4 1.1-13.7 2.5-13m6.5-11c2.1-.8 9.6 9.1 12 11 .5 1.2 4.3 11.9-1 13.5-4.1 1.2-10.9-11.8-11.5-14 1.9-1.2-1.3-9.1.5-10.5m14.5 1.5c2.3.1 6.7 4.5 10 8 1.1 2 7.4 11.6 3.5 15-2.3.4-9.8-13.2-10.5-15 .4-1.5-3.4-7.1-3-8m13 10.5c1.2-.1 5.4 5.7 6 8.5.6 1.6 4.5 9.6 2.5 15-.9.3-4.4-8.2-5-11 1.4-4.8-4-12.1-3.5-12.5M181 86c.9.3 1.2 0 2 0 .7 3.1 8.5 14 8.5 14s2.1 11.5-2 11.5S182 99 182 99s1.3-5.2-1-13m22.5 28c.7 0 2.3 6 2.5 10s.6 16.5-4 19.5c-.8.2-.9-9.3-1-12 2.2-3.6 1.8-17.5 2.5-17.5m-8-12h2s2.4 7.4 4 10.5c0 1.3 0 17.2-3 18s-4.5-17-5-18.5c1.5-1.8 2-10 2-10m-19.5 0h4.5s1.2 7.1 6.5 11.5c-.2 4.1-.8 18.4-6.5 18-5.3-.3-7.2-14.1-8-18.5 4.4-3.9 3.5-11 3.5-11m12.5 12h2.5s2.6 13.4 4 17.5c-.2 2.4-3.5 14-7 13-3.8-1-3-10-3.5-13.5 4.3-3.4 4-17 4-17m8.5 20h2.5s-.6 8 0 12.5c-.8 2.1-6.5 14.1-9 13.5s.4-10.9.5-13c4-3.6 6-13 6-13m4.5 13c.7.2-1.4 8.6-4.5 13.5-.4.9-4.2 7-8 6.5-1.2-.9 2.4-6 6-9 2-1.3 5.8-11.2 6.5-11m-15 0c.9.5 2.5-.5 2.5-.5s-1.8 10.7-1.5 13.5c-1 1.7-5.8 11.2-11.5 8.5-1.9-1 1.4-7.2 2-8.5 2.7-1.1 8.1-11.5 8.5-13m-8.5-13c1.5.8 4 0 4 0s.3 10.5 3 11.5c-.9 1.5-7.7 14.6-12 14.5-3.3-.4-1.9-12-2-14 4.3-1.9 6.3-10.6 7-12m-12.5-20c1.1.5 4.5 0 4.5 0s2.9 16.9 5.5 18c-.3 1.1-3.1 11.1-9 12.5-6-.9-6.1-10.6-6.5-13.5 6.1-4.7 5.5-15.9 5.5-17M151 134c3.1 1 6.5 0 6.5 0s-.2 7.6 4.5 12c-1.9 3.8-5.7 13-12 13-6.3-.4-6.4-9.8-6.5-13 5.4-1.5 7.1-10.8 7.5-12m13 13c1 .7 3.5 0 3.5 0s-.7 9.8 1.5 14c-.7 2.6-5.6 8.2-10 8.5s-4.1-5.9-4-8.5c7.4-4.8 8.4-12.6 9-14m-29.5 0 6 .5s.1 10.3 3.5 14c-1.5 3.6-2.6 8.5-9.5 8.5-6.3.1-6.1-6.6-7-9.5 4.1-1.3 7-13.5 7-13.5M119 133c2.4.9 6.5 0 6.5 0s2.7 11.3 6 13c0 1.4-.5 12.2-9 13.5-7.2-.3-8.5-10.8-9.5-14 4.1-3 5.5-11.4 6-12.5m-14.5 13h6s2.2 12.8 6.5 13.5c.1 2.1.4 10-7.5 10-6.5 0-8.2-6.8-9-8.5 4.8-4.2 4-15 4-15m-17-12.5c2.7 1.2 7 0 7 0s2 11 7 12.5c0 1.2.6 12.9-6 13-4.5.6-11.4-8.8-12.5-13.5 3.5-1 4.8-10.1 4.5-12m-10 13.5c1.3.7 2.8.2 4 0-.3 1.2 4.2 12.5 8.5 13.5.5 1.7 1.9 8.7-3.5 9-4 .5-9.4-7.4-10-9 2-1.2 1.1-11.8 1-13.5m-14-13q2.25.15 4.5 0s3 10.7 6.5 12c.2 1.5 1.8 13.3-2 14-4.2.6-11.3-11.7-11.5-14.5 1.1-2.9 2.5-10.7 2.5-11.5m-7 13.5H59s5.2 12.3 8.5 14c2.3 3 2.8 7.1 2 8-1.8 1.4-8.7-.9-11.5-9 .5-2.3-1.5-13-1.5-13m-12-.5s3.7 9.3 5.5 11.5c2 1.6 8 7 7 8s-5.6-.9-8.5-6.5-4-13-4-13m2-13h2s2.8 9.9 6 12.5c.5 2.8 2.7 12.7 1 13-3.3.3-9-10.1-9.5-14 .5-.9.5-11.5.5-11.5M41 114.5c1.7-.1.8 14.4 2.5 17.5.1 2.7.5 10.4-1 12-3.1-3.6-3.7-9.9-4-14 .1-7.5 1.5-14.8 2.5-15.5m13-1h2.5s1.1 14.1 4 17.5c.2 3.2 1.3 13.7-3.5 13.5s-6.8-11-7-13c1.1-3.3 4-18 4-18m22 .5c1.4.5 4 0 4 0s.5 13.8 5.5 17.5c0 1.6-1.3 12.9-6.5 13-6.7-.1-8.3-9.9-9-13 4.7-2.5 5.6-15.3 6-17.5m-11-12c1.5.7 4.5.5 4.5.5s.8 8.4 3.5 9.5c-.1 2.7-2.3 18-7.5 18.5s-6.6-15.1-6.5-18c2.6-.8 5.2-8.1 6-10.5m-16.5 0H50s.4 8.2 1.5 10.5c0 2.2-2 17.8-4.5 18-3 .2-3.4-15.3-3-17.5 1.1-2 4.5-11 4.5-11m2-15c.1 1.4-4.3 7.5-3.5 13-.9 3.3-3.5 10.3-5.5 10-1.5-.2 2-12.5 2-12.5s3.7-9.4 7-10.5m13-10.5c1 .7-3.5 8.5-3.5 8.5s-7.3 15-10 14.5c-3.4-3.1 2.2-13.2 3-14 1.4-.8 9-9.6 10.5-9m-2 10h2s-2.6 9.8-1 12c-.2 2.5-3.7 13.2-7.5 13-4.8-1-2.1-10.2-1.5-11.5 2.6-1.8 8-13.5 8-13.5m20 0h3S84.2 97.6 87 99c-.5 1.8-4.4 13.2-9 12.5-5.7-.6-5.1-9.6-5.5-11.5 3.5-1.4 9-13.5 9-13.5m-3-11.5c1.6.6-2 8.7.5 11-1.8 2-7.7 14.7-12 13.5-4.7-1.8-1-11.6-.5-13.5 1.1 0 10.4-11.6 12-11" style="fill:#fff"/></svg>