<svg xmlns="http://www.w3.org/2000/svg" width="331.661" height="331.687" fill="none"><g clip-path="url(#a)" transform="translate(-4 -1.313)"><path fill="#000" d="M170.699 326.149c88.282 0 159.848-71.566 159.848-159.848 0-88.281-71.566-159.848-159.848-159.848-88.281 0-159.848 71.567-159.848 159.848S82.418 326.149 170.7 326.149"/><path fill="#2b65c1" d="M170.699 333A166.7 166.7 0 0 1 7.203 133.78a166.7 166.7 0 0 1 45.622-85.352 166.698 166.698 0 0 1 235.722 235.721 165.6 165.6 0 0 1-54.031 36.23A165.6 165.6 0 0 1 170.699 333m0-319.696A152.996 152.996 0 0 0 62.513 274.487a152.99 152.99 0 0 0 166.736 33.166 153 153 0 0 0 94.448-141.352A153.17 153.17 0 0 0 170.699 13.304"/><path fill="#2b65c1" d="m160.398 169.648-.665.873c-1.732 2.292-3.516 4.649-5.209 6.954-5.873 8.075-12.112 17.751-13.831 28.3-1.302 8.009-.325 17.894 6.76 23.155l.885.664.69.56-.325.43-10.028 14.104v.079l-.638-.482-.443-.339c-8.713-6.512-14.039-17.334-15.003-29.237a48.2 48.2 0 0 1 .495-11.721c2.331-14.326 10.327-26.763 17.034-35.971a437 437 0 0 1 5.366-7.188z"/><path fill="#2649a6" d="M175.322 146.532a62 62 0 0 1-1.302 2.461c-.456.821-.729 1.303-1.12 1.98a143 143 0 0 1-8.699 13.023l-14.613-10.419a109 109 0 0 0 9.677-15.12v-.078a68.16 68.16 0 0 0 5.482-45.816l-.156-.677-.13-.573 17.477-4.115.3 1.302c.377 1.654.716 3.321 1.003 5.001a86.5 86.5 0 0 1-7.919 53.031M185.884 157.562l13.597 11.995c-2.97 4.441-6.16 8.647-9.286 12.789-.508.651-1.003 1.302-1.511 1.979l-3.659 4.962c-5.874 8.075-12.112 17.751-13.831 28.3a30.7 30.7 0 0 0 4.441 20.342 17.8 17.8 0 0 0 4.232 4.571l1.147.847-11.617 11.513-.677.729-.925-.69-.313-.248a36.34 36.34 0 0 1-13.583-21.736 48.5 48.5 0 0 1-.482-18.232c2.357-14.326 10.419-26.763 17.048-35.971a258 258 0 0 1 4.896-6.511c.157-.222.326-.43.482-.638 3.595-4.767 7.033-9.325 10.041-14.001"/><path fill="#2b65c1" d="M206.083 158.487a64 64 0 0 1-2.604 4.715l-13.766-12.216c.117-.208.221-.417.326-.625a67.5 67.5 0 0 0 7.475-35.762l17.464-3.595c1.146 15.394-1.94 33.757-8.895 47.483"/><path fill="#00adee" d="M205.432 246.251c-6.147 5.21-14.325 8.4-23.78 9.364-.886.091-1.771.169-2.605.221a63 63 0 0 1-9.299-.182l-1.914-.195a69.96 69.96 0 0 1-29.133-10.692l10.015-14.079.378-.533a54 54 0 0 0 4.87 2.708 49.4 49.4 0 0 0 21.671 5.066c.781 0 1.55 0 2.331-.078 4.649-.26 11.187-1.406 15.876-5.365 6.602-5.574 9.272-16.931 6.511-27.571A50.4 50.4 0 0 0 188.71 184.3a84 84 0 0 0-7.501-7.411 120 120 0 0 0-5.821-4.766c.156-.222.325-.43.481-.638 3.582-4.728 7.02-9.273 10.028-13.948a166 166 0 0 1 7.15 5.834c2.292 2.019 4.454 4.063 6.447 6.147 9.285 9.637 15.419 19.991 18.232 30.878 4.519 17.412-.416 35.827-12.294 45.855"/><path fill="#00adee" d="m215.174 113.531-17.621 1.016a61 61 0 0 0-1.133-7.814 7.2 7.2 0 0 0-.456-1.394 11 11 0 0 0-.885-1.615 1 1 0 0 0-.144-.208 20 20 0 0 0-.781-1.107l-.078-.117c-.248-.313-.495-.639-.755-.951a29.5 29.5 0 0 0-9.976-7.944 25 25 0 0 0-1.407-.625c-.677-.274-1.302-.534-2.044-.743a26.05 26.05 0 0 0-15.199-.182 24.3 24.3 0 0 0-4.779 1.888 26.05 26.05 0 0 0-12.503 14.326 24.36 24.36 0 0 0 1.303 19.001c2.37 4.35 6.394 8.009 10.601 11.278l1.029.795.755.573c3.659 2.747 7.54 5.456 11.291 8.061l.586.417 1.055.742c3.907 2.735 7.944 5.561 11.864 8.582-3.008 4.676-6.446 9.221-10.028 13.948-.156.209-.325.417-.481.638-3.569-2.773-7.307-5.43-11.174-8.113l-1.055-.729-1.042-.73c-3.777-2.604-7.671-5.352-11.5-8.204l-.312-.235-.704-.534c-6.225-4.727-12.489-10.21-16.669-17.907a42.237 42.237 0 0 1-2.501-33.457 44.005 44.005 0 0 1 54.88-27.349 43.54 43.54 0 0 1 24.823 19.04l.664 1.068a16.4 16.4 0 0 1 1.589 3.386l.521 1.576q.153.409.247.834a61 61 0 0 1 2.019 12.789"/><path fill="#00adee" d="M163.536 59.067h-11.825v19.379h11.825zM191.419 59.067h-11.825v19.379h11.825zM163.536 250.38h-11.825v19.378h11.825zM191.419 250.38h-11.825v19.378h11.825z"/></g><defs><clipPath id="a"><path fill="#fff" d="M0 0h340v333H0z"/></clipPath></defs></svg>