<svg xmlns="http://www.w3.org/2000/svg" width="242.5" height="242.5"><path fill="#ffd166" d="M0 121.252C0 188.064 54.44 242.5 121.252 242.5S242.5 188.064 242.5 121.252 188.064 0 121.252 0 0 54.44 0 121.252"/><path fill="#fff" fill-rule="evenodd" d="M188.674 161.265V83.473l-67.435-38.938v77.823l-67.413 38.92 67.436 38.931 67.371-38.893.041.024v-.047l.024-.014z" data-name="Path 472584"/><path fill="#fff" d="m53.847 83.472 67.433-38.938v77.867l-67.436 38.933Z" data-name="Path 472585"/><path fill="#fff" d="m121.287 44.461 67.437 38.931-22.479 12.977-67.441-38.931Z" data-name="Path 472586"/><path fill="#ffd166" d="M166.195 96.345v25.953L98.763 83.365V57.409Z" data-name="Path 472587"/><path fill="#fff" d="m98.716 83.404 67.436 38.931-22.478 12.979-67.436-38.933Z" data-name="Path 472588"/><path fill="#ffd166" d="M143.941 135.446v25.956l-67.432-38.936V96.51Z" data-name="Path 472589"/><path fill="#fff" d="m76.305 122.349 67.436 38.927-22.478 12.973-67.437-38.927Z" data-name="Path 472590"/><path fill="#ffd166" d="M121.212 174.229v25.956L53.78 161.248v-25.955Z" data-name="Path 472591"/><path fill="#fff" d="m166.223 96.353 22.478-12.979v77.867L166.22 174.22z" data-name="Path 472592"/><path fill="#fff" d="m143.699 135.296 22.478-12.978v51.911l-22.48 12.978z" data-name="Path 472593"/></svg>