<svg xmlns="http://www.w3.org/2000/svg" width="238.501" height="236.921"><path fill="#00a3ff" d="M119.25 0C185.111 0 238.5 53.037 238.5 118.461s-53.39 118.461-119.25 118.461S0 183.885 0 118.461 53.39 0 119.25 0" data-name="Path 473878"/><g fill="#fff"><path d="m76.853 106.509-1.157 1.775a49.86 49.86 0 0 0 7.008 63.042 52.05 52.05 0 0 0 36.526 14.826Z" data-name="Path 473870"/><path d="m119.23 130.715-42.377-24.206 42.377 79.643Z" data-name="Path 473871" opacity=".6"/><path d="m161.647 106.509 1.157 1.775a49.86 49.86 0 0 1-7.008 63.042 52.05 52.05 0 0 1-36.526 14.826Z" data-name="Path 473872" opacity=".6"/><path d="m119.271 130.715 42.376-24.206-42.376 79.643Z" data-name="Path 473873" opacity=".2"/><path d="M119.28 76.647v41.748l36.5-20.86Z" data-name="Path 473874" opacity=".2"/><path d="M119.28 76.647 82.748 97.534l36.529 20.861Z" data-name="Path 473875" opacity=".6"/><path d="m119.28 41.525-36.532 56.01 36.529-20.946Z" data-name="Path 473876"/><path d="m119.28 76.59 36.53 20.947-36.53-56.039Z" data-name="Path 473877" opacity=".6"/></g></svg>