<svg xmlns="http://www.w3.org/2000/svg" viewBox="0 0 490 490"><defs><style>.a{fill:#fff}</style></defs><rect width="490" height="490" rx="60.06" ry="60.06"/><path d="M203.36 276.89h-19.89v-49h-28v-14.78h75v14.77h-27.12v49ZM322.08 262v14.85h-70v-63.74h70v14.77H272v10.71h47v12.9h-47V262ZM370 276.89h-26.82l30.91-31.48-29.78-32.3h25.89l17.61 19.71 17.53-19.71h26.13l-30.11 32.29 31.49 31.49h-26.7l-18.1-19.15ZM135.43 213.11v13.18H84.66v.71c-.47 0-.91.06-1.33.11a8.5 8.5 0 0 0-2.43.7 4.25 4.25 0 0 0-1.83 1.58 5 5 0 0 0-.69 2.76q0 3.08 2.19 4.05a12.1 12.1 0 0 0 4.08.9v1h30.52l3.22.15c1.73.08 3.16.17 4.3.29 4.24.23 7.56 1.4 10 3.49a2.75 2.75 0 0 0-.15 3.75c.39.52.74 1 1.06 1.44-1.18 3.84-.48 9-1.41 12.08a3 3 0 0 0 1 3.4c-1 2.68-1.74 5.25-1.12 8.19l-4.9 4.9a29.2 29.2 0 0 1-8.66 1.13H60.86v-13.8h50.95c.45 0 .89-.06 1.3-.1a9.4 9.4 0 0 0 2-.46 7 7 0 0 0 .62-.24 4.4 4.4 0 0 0 1.95-1.58 4.76 4.76 0 0 0 .73-2.76 4.58 4.58 0 0 0-1-3.12 5.66 5.66 0 0 0-2.28-1.59l-.35-.12a14 14 0 0 0-3-.61v-1.2H79.12c-1.68-.07-3.12-.17-4.31-.28-5.42-.29-9.45-1.94-12.09-4.92a3.5 3.5 0 0 0 .26-.43 14.6 14.6 0 0 0 1.5-4.79c.33-2.39-1.38-4.82-1-6.94s2-3 1.75-5.33c-.23-2.78-2.23-4.65-2.71-7.21a3.7 3.7 0 0 0-.4-1.11l6-6a20.8 20.8 0 0 1 7.5-1.21Z" class="a"/><path d="M79.59 213.11V228a3.42 3.42 0 0 0-2.92 4.61c-.93 2 0 4.9 2.73 5.07h.19v13.55H60.83v-29.62l1.29-1.29 6-6 1.2-1.21Z" class="a"/><path d="M73.62 226.66h11.04v11.04H73.62zM134.82 238.08v30.06l-2.82 2.78v-.06l-4.9 4.9h.09l-1.15 1.16h-10.9v-38.84Z" class="a"/><path d="M111.85 252.1h7.44v11.48H111v-.5h.81V252.1Z" class="a"/><path d="M111 263.08h.81v1.09h-51v-1H110ZM84.66 224.95h50.78v2.93H84.66zM127.13 275.77h.09l-1.15 1.15H126ZM134.82 268.07v.07l-2.82 2.78v-.06Z" class="a"/><path d="m120.231 271.048 8.747-8.747 5.84 5.841-8.746 8.747z" class="a"/></svg>