<svg xmlns="http://www.w3.org/2000/svg" width="236" height="236"><defs><filter id="a" width="1" height="1" x="0" y="0"><feColorMatrix in="SourceGraphic" values="0 0 0 0 1.000000 0 0 0 0 1.000000 0 0 0 0 1.000000 0 0 0 1.000000 0"/></filter></defs><g fill="none" fill-rule="evenodd" transform="scale(1.18)"><circle cx="100" cy="100" r="100" fill="#fd2e53"/><g filter="url(#a)" transform="translate(38 45)"><path fill="#000" fill-rule="nonzero" d="m32.779 0 35.802 41.791a20.28 20.28 0 0 1 0 26.418L32.779 110H0l39.577-46.193a13.52 13.52 0 0 0 0-17.614L0 0Zm62.458 85.811L124.951 110H83.997L65.559 87.593l17.689-4.438a13.71 13.71 0 0 1 11.99 2.657zM124.951 0 95.238 24.189a13.72 13.72 0 0 1-11.99 2.657l-17.689-4.438L83.997 0Z"/></g></g></svg>