<svg xmlns="http://www.w3.org/2000/svg" xml:space="preserve" id="Storj" x="0" y="0" version="1.1" viewBox="0 0 245 245"><style>.st1{fill:#fff}</style><path id="Main" d="M0 122.5C0 190 55 245 122.5 245S245 190 245 122.5 190 0 122.5 0 0 55 0 122.5" style="fill:#2683ff"/><g id="Storj-2"><path d="M146 120.5s0-16.6-19.5-18.5c-8.3-1.3-17.5 7.5-17.5 7.5s-17.5-1.6-17.5 15c0 15.9 16.5 17.4 21.5 14.5 1.6 1.4 8.1 4.6 12.5 4.5 4.4.2 10-2.5 10-2.5s2 1.9 6.5 2c10.7 0 11.5-9.6 11.5-11 .7-7.3-7.5-11.5-7.5-11.5" class="st1"/><path d="M193.5 146.6v-48s8.5-3.8 8.5-13.5c0-10.2-8.6-14.5-14.5-14.6-3 0-6 .8-8.5 2.5 0 0-39.1-22.4-42-24 0-9.7-6-16-14.5-16-7.6 0-14.5 5-14.5 16-1.3 1-41.8 24-41.8 24s-4.1-2.4-8.7-2.5S43 74.4 43 85.1c-.1 5.8 3.3 11.1 8.5 13.5v48c-5.2 2.3-8.6 7.5-8.5 13.2 0 10 7.4 14.7 14.5 14.7 3 0 6-.7 8.7-2.2 0 0 38.4 22 41.8 24.1 0 9.9 6.6 15.6 14.5 15.6s14.5-6 14.5-15.6c5.5-3.2 42-24.1 42-24.1s2.8 2.5 8.5 2.7c5.6 0 14.5-4.8 14.5-15.2 0-9.9-8.5-13.2-8.5-13.2m-6 24.9c-8.5 0-12-6.7-12-13-2.5-1.4-21-12.5-21-12.5s-5.9 3.1-9.5 3c-2.2 0-6.6-1.4-8-2.4-4.2 1.4-10.5 2.9-10.5 2.9V186c3.3 1.6 7.5 4.6 7.5 11.5s-4.4 12-11.5 12c-6 .1-11.5-5.3-11.5-12s4.2-9.6 7.5-11.5v-37.5s-5.2-2.8-7-4c-.4.3-2.9 1.5-7 1.5s-10-2.5-10-2.5l-25.5 15s.8 6.1-3 10c-.7.8-11.5 7.7-18-1.5-5-8 .7-14.6 1-15 7.2-7.1 16-1.5 16-1.5l23-13c-2.6-3.9-4-8.4-4-13 0-8.1 7-15.5 7-15.5L65 94.5s-9.2 6.5-16.5-2c-5.5-6.3-1-13.5-1-13.5s3.9-5.5 10-5.5c12 .1 12 13.5 12 13.5l30.5 17.5c1.6.3 3.4.3 5 0 3-.4 5.7-4.4 13-7.5V59s-7.5-4.2-7.5-11c0-8.7 7.6-12 12-12 9.1 0 12 9.2 12 11.5C134.6 55 127 59 127 59v36.5c12.3 1.7 18.5 8.5 18.5 8.5L176 86.5s-.8-5.7 3-9.5c4.5-4.6 11.9-4.7 16.5-.2 2.2 2.2 3.5 5.1 3.5 8.2 0 6.5-6.3 11.9-11.5 11.9-4.9 0-7.5-2.5-7.5-2.5s-28.3 16.4-29.5 17c.1 2 4.4 7.8 5 9 .5.6 5.5 5 5.5 10 0 2.9-.3 5.7-1 8.5l20 11.5s3.7-2 7.5-2c7.3 0 11.5 6.2 11.5 11.3s-3 11.8-11.5 11.8" class="st1"/><path id="Rounds" d="M122.5 44c1.9 0 3.5 1.6 3.5 3.5s-1.6 3.5-3.5 3.5-3.5-1.6-3.5-3.5 1.6-3.5 3.5-3.5m65 37.5c1.9 0 3.5 1.6 3.5 3.5s-1.6 3.5-3.5 3.5-3.5-1.6-3.5-3.5 1.6-3.5 3.5-3.5m0 75c1.9 0 3.5 1.6 3.5 3.5s-1.6 3.5-3.5 3.5-3.5-1.6-3.5-3.5 1.6-3.5 3.5-3.5m-65 37.5c1.9 0 3.5 1.6 3.5 3.5s-1.6 3.5-3.5 3.5-3.5-1.6-3.5-3.5 1.6-3.5 3.5-3.5m-65-37.5c1.9 0 3.5 1.6 3.5 3.5s-1.6 3.5-3.5 3.5-3.5-1.6-3.5-3.5 1.6-3.5 3.5-3.5m0-75c1.9 0 3.5 1.6 3.5 3.5s-1.6 3.5-3.5 3.5S54 86.9 54 85s1.6-3.5 3.5-3.5" class="st1"/></g></svg>