<svg xmlns="http://www.w3.org/2000/svg" xml:space="preserve" viewBox="0 0 490 490"><path d="M0 245c0 135.1 109.9 245 245 245s245-109.9 245-245S380.1 0 245 0 0 109.9 0 245" style="fill:#1488ca"/><path d="M240.2 377.4 92.5 294.8c-.2 0-.2-.3 0-.3l6.3-9.9c0-.2.3-.2.3 0l146.1 81.7h.3l136.9-76.6c3.4-1.9 5.1-5.6 5.1-9.6v-20.9c0-.2-.2-.3-.5-.2l-136.4 76.3c-3.8 2-6.7 2-10.6 0l-137.9-77.1c-7.1-4.4-11.4-12.3-11.3-20.7v-36.3c0-5.3 2.7-7 6.7-9.2L240 112.4c3.4-1.9 7.5-1.9 11 0l144.4 80.9c4.8 3.2 6.1 9.6 2.9 14.4-.8 1.1-1.7 2.1-2.9 2.9l-144.7 81.1c-3.8 2.1-6.7 2.1-10.4 0l-136.5-76.5c-.1-.1-.4-.1-.5.1 0 0 0 .1-.1.1v22.1c0 4.1 2.1 8 5.6 10.1l136.4 76.3h.3l139.1-77.8c3.6-2.2 8.7-2.4 12.1.5 2.1 1.9 3.3 4.7 3.2 7.5v25.7c0 7.9-4.6 16.6-10.9 20l-138.4 77.5c-3.6 2.4-6.5 2.4-10.4.1M106.1 202.5l139.3 78h.3l139.3-78c.1-.1.2-.3.1-.5l-.1-.1-139.3-78h-.3l-139.3 78q-.3.3 0 .6-.15 0 0 0" style="fill:#fff"/></svg>