<svg xmlns="http://www.w3.org/2000/svg" width="250" height="250"><defs><linearGradient id="a" x1="36" x2="213.259" y1="35.407" y2="35.407" gradientUnits="userSpaceOnUse"><stop stop-color="#fff"/><stop stop-color="#21bbc0"/><stop offset=".34" stop-color="#20b9c0"/><stop offset="1" stop-color="#1387c9"/></linearGradient></defs><circle cx="125" cy="125" r="119.922" fill="#cdcdcd" stroke="#fff" stroke-width=".156"/><path fill="url(#a)" d="m48.038 101.022 77.556 48.87a.15.15 0 0 0 .169 0l79.119-49.977a.15.15 0 0 0 .044-.214.1.1 0 0 0-.044-.044l-78.393-49.96a.15.15 0 0 0-.169 0l-78.283 51.059a.16.16 0 0 0-.026.232.1.1 0 0 0 .026.035zm77.557 106.171a5.33 5.33 0 0 1-2.903-.857l-83.059-53.488a.163.163 0 0 1 0-.214l3.536-5.501a.163.163 0 0 1 .214 0l82.174 52.925a.15.15 0 0 0 .169 0l77.878-50.04a6.19 6.19 0 0 0 2.858-5.229V132.47a.167.167 0 0 0-.169-.152.2.2 0 0 0-.072.018l-78.655 50.093a5.37 5.37 0 0 1-5.761 0L42.323 131.86A13.47 13.47 0 0 1 36 120.438v-17.237a5.35 5.35 0 0 1 1.507-3.733l.266-.214 1.527-1.045 84.317-54.95.089-.053a5.36 5.36 0 0 1 5.538.134l81.512 51.924a5.378 5.378 0 0 1 0 9.083l-82.209 51.907a5.41 5.41 0 0 1-5.716 0l-79.748-50.208a.16.16 0 0 0-.214.053.13.13 0 0 0-.018.081v14.25a6.66 6.66 0 0 0 3.09 5.647l78.673 50.005a.15.15 0 0 0 .169 0l80.244-51.192a5.35 5.35 0 0 1 6.47.532 5.56 5.56 0 0 1 1.724 4.189v15.12a13.05 13.05 0 0 1-6.002 11.021l-78.762 50.607a5.5 5.5 0 0 1-2.858.83z"/></svg>