<svg xmlns="http://www.w3.org/2000/svg" width="512" height="512" fill="none"><path fill="#fff" d="M256 512c141.385 0 256-114.615 256-256S397.385 0 256 0 0 114.615 0 256s114.615 256 256 256"/><path fill="url(#a)" d="M156.104 142.826a9.66 9.66 0 0 1 6.827-2.826h236.23c4.304 0 6.458 5.204 3.413 8.245l-46.678 46.642a9.66 9.66 0 0 1-6.827 2.826h-236.23c-4.303 0-6.458-5.204-3.413-8.245zM156.104 317.076a9.65 9.65 0 0 1 6.827-2.826h236.23c4.304 0 6.458 5.203 3.413 8.245l-46.678 46.641a9.66 9.66 0 0 1-6.827 2.827h-236.23c-4.303 0-6.458-5.204-3.413-8.246zM349.069 226.57a9.66 9.66 0 0 1 6.827 2.826l46.678 46.641c3.045 3.042.891 8.246-3.413 8.246h-236.23a9.66 9.66 0 0 1-6.827-2.827l-46.678-46.641c-3.045-3.042-.89-8.245 3.413-8.245z"/><defs><linearGradient id="a" x1="404" x2="115.507" y1="139.991" y2="380.486" gradientUnits="userSpaceOnUse"><stop stop-color="#00a3ff"/><stop offset="1" stop-color="#3adcff"/></linearGradient></defs></svg>