<svg xmlns="http://www.w3.org/2000/svg" xml:space="preserve" id="Stox" x="0" y="0" version="1.1" viewBox="0 0 245 245"><style>.st1{fill:none;stroke:#fff;stroke-width:4;stroke-linejoin:round}</style><path id="Main_copy_25" d="M0 122.5C0 190 55 245 122.5 245S245 190 245 122.5 190 0 122.5 0 0 55 0 122.5" style="fill:#710afc"/><g id="Stox-2"><path id="S" d="M31.6 144.4s18.5 1.3 20.4-21.3c.5-16.1 14.7-22.6 17.9-22.6h31.9" class="st1"/><path id="T" d="M87.8 123.8v22" class="st1"/><path id="O" d="M135.7 101.8c11.6 0 21.1 9.5 21.1 21.3s-9.4 21.3-21.1 21.3-21.1-9.5-21.1-21.3 9.5-21.3 21.1-21.3" style="fill:none;stroke:#fff;stroke-width:4;stroke-linecap:round;stroke-linejoin:round"/><path id="X" d="M167.6 101.8c11.6 0 21.1 9.5 21.1 21.3s-9.4 21.3-21.1 21.3" class="st1"/><path id="X2" d="M213 101.8c-11.6 0-21.1 9.5-21.1 21.3s9.4 21.3 21.1 21.3" class="st1"/></g></svg>