<svg xmlns="http://www.w3.org/2000/svg" xml:space="preserve" id="Substratum" x="0" y="0" version="1.1" viewBox="0 0 245 245"><style>.st1{fill:none;stroke:#fff;stroke-width:5;stroke-linecap:round;stroke-linejoin:round}</style><path id="Full" d="M0 122.5C0 190 55 245 122.5 245S245 190 245 122.5 190 0 122.5 0 0 55 0 122.5" style="fill:#ef4138"/><g id="Substratum-2"><path id="S" d="M101 48.5 92 41 61.5 64.5l122 92.5-8 7" class="st1"/><path id="S2" d="m144 196.5 9 7.5 30.5-23.5L61.5 88l8-7" class="st1"/><path id="Bottom" d="m162 174-39.5 29.5-61-46H92l39.5 30" class="st1"/><path id="Top" d="m83 71 39.5-29.5 61 46H153l-39.5-30" class="st1"/></g></svg>