<svg xmlns="http://www.w3.org/2000/svg" width="256" height="256" viewBox="0 0 67.733 67.733"><g style="fill:#ffd609;fill-opacity:1"><path d="M1.488 263.204c0 17.871 14.54 32.411 32.412 32.411s32.411-14.54 32.411-32.411-14.54-32.412-32.411-32.412-32.412 14.54-32.412 32.412" class="cls-1" style="stroke-width:.13229166;fill:#ffd609;fill-opacity:1" transform="translate(0 -229.267)"/></g><path d="m36.91 18.75-3.375 19.747 5.063.058-4.21 13.467s3.839-.185 7.86-2.279c2.15-1.12 7.902-5.578 8.164-13.574.26-7.96-3.196-11.894-6.91-14.438s-7.104-3.005-6.591-2.981z" style="opacity:1;fill:#fff;fill-opacity:1;stroke:#000;stroke-width:0;stroke-linecap:butt;stroke-linejoin:miter;stroke-miterlimit:4;stroke-dasharray:none;stroke-opacity:1"/><path d="m213.457 92.823.006-.003" style="fill:#fffef7;stroke:#0c0c0c;stroke-width:0;stroke-linecap:butt;stroke-linejoin:miter;stroke-miterlimit:4;stroke-dasharray:none;stroke-opacity:1;fill-opacity:1" transform="scale(.26458)"/><path d="m23.322 28.283 21.62.03s2.124-.175 1.542 2.123c-.582 2.3-2.735 7.1-2.735 7.1l-7.362.058-1.426-4.917s-.786-2.211-1.542.145c-.757 2.357-1.28 4.772-1.28 4.772l-7.333.03-2.619-6.606s-1.28-2.735 1.135-2.735z" style="fill:#fff;fill-opacity:1;stroke:#ffd609;stroke-width:.52916667;stroke-linecap:butt;stroke-linejoin:miter;stroke-miterlimit:4;stroke-dasharray:none;stroke-opacity:1"/><path d="m25.273 29.78 6.461.062s1.008-.083.885.987c-.124 1.07-1.07 4.63-1.07 4.63s-.206.987-1.255.987c-1.05 0-3.333.041-3.333.041s-.988.083-1.379-.925c-.39-1.009-1.42-4.321-1.42-4.321s-.658-1.482 1.111-1.461zM43.417 29.78l-6.46.062s-1.008-.083-.885.987c.124 1.07 1.07 4.63 1.07 4.63s.206.987 1.255.987c1.05 0 3.333.041 3.333.041s.988.083 1.379-.925c.39-1.009 1.42-4.321 1.42-4.321s.658-1.482-1.112-1.461zM37.058 43.44l-.2.647s2.687-.704 3.675-1.918l-.37-.401s-.89 1.06-3.105 1.671z" style="fill:#ffd609;fill-opacity:1;stroke:#000;stroke-width:0;stroke-linecap:butt;stroke-linejoin:miter;stroke-miterlimit:4;stroke-dasharray:none;stroke-opacity:1"/><path d="m37.058 43.44-.2.647s-7.12 1.052-9.113-2.265l.596-.233s1.3 2.784 8.717 1.85" style="fill:#fffdfc;fill-opacity:1;stroke:none;stroke-width:.26458332px;stroke-linecap:butt;stroke-linejoin:miter;stroke-opacity:1"/><path d="m24.628 11.337.803-.33s2.448 4.219 2.448 4.116.062-4.938.062-4.938l.926-.185-.144 8.867zM30.307 9.753l1.05-.144-.042 8.99-.905.166ZM33.126 9.465l.823.02-.02 8.703-.844.021zM36.397 9.63l.906.102L37.2 18.6l-.988-.185z" style="fill:#fffef7;stroke:#0c0c0c;stroke-width:0;stroke-linecap:butt;stroke-linejoin:miter;stroke-opacity:1;stroke-miterlimit:4;stroke-dasharray:none;fill-opacity:1"/><path d="m38.866 10.061.985.2.085 4.54 2.204-3.876 1.006.421-4.108 7.974zM43.975 11.769l1.06.48-1.744 4.581 3.618-3.468.949.632-6.42 6.458z" style="fill:#fffef7;fill-opacity:1;stroke:#0c0c0c;stroke-width:0;stroke-linecap:butt;stroke-linejoin:miter;stroke-miterlimit:4;stroke-dasharray:none;stroke-opacity:1"/><path d="m49.236 14.896.823.659-6.172 5.987-.782-.617zM51.212 16.666l.7.638-6.009 5.843-.7-.7zM53.372 19.176l.638.761-6.09 5.782-.638-.823zM54.894 21.316l.494.926-3.21 3.189 4.074-1.379.453.988-7.386 2.18zM56.973 25.925l.37.987-3.827 2.264 4.3-.227.206 1.07-7.695-.062zM58.228 31.603l.082 1.05-7.675.04-.185-1.048zM58.344 33.867l-.014 1.152-7.51-.103-.061-1.132zM58.104 37.406l-.185 1.008-7.325-.103.124-1.111zM57.466 40.183l-.123.762-3.128.04 2.593 1.38-.453 1.193s-6.193-3.375-6.049-3.375zM55.82 44.566l-.35.74-2.757-.555 2.037 1.872-.617.926-4.753-4.814zM52.878 49.216l-.555.679-4.753-4.815.535-.843zM51.232 51.067l-.7.7-4.567-4.794.802-.802zM48.742 53.269l-.905.638-4.506-4.691.844-.68zM46.356 54.812l-.906.576-1.604-1.46.535 1.995-.906.432-1.83-5.987zM42.302 56.787l-.946.33-1.132-1.688-.102 2.058-1.07.247s.164-6.214.247-6.152 3.003 5.205 3.003 5.205zM36.418 58.145c.165 0 .967-.144.967-.144l.02-6.172-1.049.267zM34.895 58.248h-.946l.082-5.967 1.132-.061zM31.542 58.125l-1.009-.083.021-6.172 1.05.185zM28.887 57.713c.062-.144.062-6.11.062-6.11l-3.107 5.246 1.05.391 1.049-1.667-.041 1.976z" style="fill:#fffef7;stroke:#0c0c0c;stroke-width:0;stroke-linecap:butt;stroke-linejoin:miter;stroke-opacity:1;stroke-miterlimit:4;stroke-dasharray:none;fill-opacity:1"/><path d="M24.178 56.145s.864.523.95.436c.087-.087 1.708-6.274 1.708-6.274l-4.841 4.684 1.059.566 1.405-1.285z" style="fill:#fffef7;fill-opacity:1;stroke:#0c0c0c;stroke-width:0;stroke-linecap:butt;stroke-linejoin:miter;stroke-miterlimit:4;stroke-dasharray:none;stroke-opacity:1"/><path d="m20.06 53.927-.884-.679 4.506-4.361.946.658zM17.983 52.323l-.823-.782 4.63-4.342.801.762zM15.637 49.936l-.7-.782 4.63-4.547.617.843zM13.744 47.529s-.658-.782-.576-.823c.082-.042 2.078-1.893 2.078-1.893l-2.695.7-.473-.865 6.46-1.913zM11.522 43.537s-.473-.905-.37-.967 2.407-1.296 2.325-1.296c-.083 0-2.799-.041-2.799-.041l-.267-.947s7.263-.103 7.263-.02-6.152 3.271-6.152 3.271zM10 38.599l-.165-1.029 7.16.082.144.988zM9.65 36.089l-.083-1.111 7.325.082v1.09zM9.588 32.653l.062-.988 7.571.206s-.102 1.029-.185 1.029c-.082 0-7.448-.247-7.448-.247zM9.794 30.533l.144-1.008 4.958.144-4.423-2.613.329-.946 6.872 3.847s-.062.659-.185.7c-.124.041-7.695-.124-7.695-.124zM11.09 25.41l.39-.926 4.178 1.317-3.23-3.498.575-.987 5.906 6.172zM20.37 24.978l-5.782-5.884-.782.987 5.926 5.72zM15.452 17.942l.823-.885 5.761 5.925-.844.865zM17.756 15.617l.844-.741 6.11 6.214-.863.617zM19.793 14.053l.988-.72 3.354 3.25-1.111-4.588.925-.37 2.49 8.56-.411.164z" style="fill:#fffef7;stroke:#0c0c0c;stroke-width:0;stroke-linecap:butt;stroke-linejoin:miter;stroke-opacity:1;stroke-miterlimit:4;stroke-dasharray:none;fill-opacity:1"/><circle cx="33.853" cy="35.253" r="16.737" style="opacity:1;fill:none;fill-opacity:1;fill-rule:nonzero;stroke:#fff;stroke-width:1.11125;stroke-linecap:butt;stroke-linejoin:round;stroke-miterlimit:4;stroke-dasharray:none;stroke-dashoffset:65.67904663;stroke-opacity:1;paint-order:stroke fill markers"/><path d="M25.777 29.95h.389l-1.473 2.455-.136-.429z" style="fill:#fff;fill-opacity:1;stroke:none;stroke-width:.05291667;stroke-linecap:butt;stroke-linejoin:miter;stroke-miterlimit:4;stroke-dasharray:none;stroke-opacity:1"/><path d="M26.615 29.95c.084-.014.65 0 .65 0l-2.2 3.725-.201-.677z" style="fill:#fff;fill-opacity:1;stroke:none;stroke-width:.079375;stroke-linecap:butt;stroke-linejoin:miter;stroke-miterlimit:4;stroke-dasharray:none;stroke-opacity:1"/><path d="M28.545 29.95h1.95c-.088 0-3.638 6.3-3.638 6.3s-.915.116-1.215-1.114z" style="fill:#fff;fill-opacity:1;stroke:none;stroke-width:0;stroke-linecap:butt;stroke-linejoin:miter;stroke-miterlimit:4;stroke-dasharray:none;stroke-opacity:1"/><path d="M40.999 29.95h1.964l-3.66 6.274s-1.385.211-1.709-.367c0-.117 3.405-5.907 3.405-5.907" style="fill:#fff;fill-opacity:1;stroke:none;stroke-width:.26458332px;stroke-linecap:butt;stroke-linejoin:miter;stroke-opacity:1"/><path d="M37.955 29.95h.39l-1.73 2.836-.096-.46z" style="fill:#fff;fill-opacity:1;stroke:none;stroke-width:.05291667;stroke-linecap:butt;stroke-linejoin:miter;stroke-miterlimit:4;stroke-dasharray:none;stroke-opacity:1"/><path d="M38.793 29.95c.084-.014.65 0 .65 0l-2.487 4.218-.202-.758z" style="fill:#fff;fill-opacity:1;stroke:none;stroke-width:.079375;stroke-linecap:butt;stroke-linejoin:miter;stroke-miterlimit:4;stroke-dasharray:none;stroke-opacity:1"/></svg>