<svg xmlns="http://www.w3.org/2000/svg" xmlns:xlink="http://www.w3.org/1999/xlink" width="250" height="250" fill="none"><circle cx="125" cy="125" r="125" fill="#fff"/><defs><linearGradient xlink:href="#a" id="b" x1="28.924" x2="3.758" y1="-6.965" y2="12.715"><stop stop-color="red"/><stop offset="1" stop-color="#ffc700"/></linearGradient><linearGradient xlink:href="#a" id="c" x1="18.97" x2="-4.668" y1="-2.727" y2="22.423"><stop stop-color="red"/><stop offset="1" stop-color="#ffc700"/></linearGradient><linearGradient xlink:href="#a" id="d" x1="16.571" x2="-6.746" y1="12.572" y2="34.917"><stop stop-color="red"/><stop offset="1" stop-color="#ffc700"/></linearGradient><linearGradient xlink:href="#a" id="e" x1="19.034" x2="-8.448" y1="20.553" y2="39.527"><stop stop-color="red"/><stop offset="1" stop-color="#ffc700"/></linearGradient><linearGradient xlink:href="#a" id="f" x1="34.314" x2="9.068" y1="23.486" y2="42.953"><stop stop-color="red"/><stop offset="1" stop-color="#ffc700"/></linearGradient><linearGradient xlink:href="#a" id="g" x1="47.691" x2="24.614" y1="21.607" y2="46.988"><stop stop-color="red"/><stop offset="1" stop-color="#ffc700"/></linearGradient><linearGradient xlink:href="#a" id="h" x1="47.592" x2="24.432" y1="6.121" y2="28.779"><stop stop-color="red"/><stop offset="1" stop-color="#ffc700"/></linearGradient><linearGradient xlink:href="#a" id="i" x1="42.494" x2="15.034" y1="-8.445" y2="9.883"><stop stop-color="red"/><stop offset="1" stop-color="#ffc700"/></linearGradient><linearGradient id="a" gradientUnits="userSpaceOnUse"/></defs><path fill="url(#b)" d="m13.9.4 4 3.8c1.5 1.4 2.3 3.3 2.3 5.4 0 2 .8 3.9 2.2 5.3l.5.5L27.5.5" transform="matrix(4.34783 0 0 4.34783 25 25)"/><path fill="url(#c)" d="m.3 13.7 5.5-.2c2-.1 4 .7 5.4 2.1s3.3 2.1 5.3 2.1h.7L9.8 4" transform="matrix(4.34783 0 0 4.34783 25 25)"/><path fill="url(#d)" d="m.3 32.7 3.7-4c1.4-1.5 3.3-2.4 5.3-2.4s3.8-.9 5.2-2.3l.5-.5-15-4.3" transform="matrix(4.34783 0 0 4.34783 25 25)"/><path fill="url(#e)" d="m13.9 45.9-.3-5.5a7.52 7.52 0 0 1 2-5.5c1.3-1.4 2.1-3.4 2-5.3v-.7L4 36.6" transform="matrix(4.34783 0 0 4.34783 25 25)"/><path fill="url(#f)" d="m32.9 45.5-4.1-3.6c-1.5-1.3-2.4-3.2-2.5-5.3-.1-2-1-3.8-2.4-5.2l-.5-.5-4 15.1" transform="matrix(4.34783 0 0 4.34783 25 25)"/><path fill="url(#g)" d="m45.9 31.6-5.5.4c-2 .2-4-.5-5.5-1.9-1.5-1.3-3.4-2-5.4-1.9h-.7l8 13.4" transform="matrix(4.34783 0 0 4.34783 25 25)"/><path fill="url(#h)" d="m45 12.7-3.5 4.2c-1.3 1.5-3.2 2.5-5.2 2.6s-3.8 1-5.1 2.5l-.4.5L46 26.1" transform="matrix(4.34783 0 0 4.34783 25 25)"/><path fill="url(#i)" d="m30.9 0 .5 5.5c.2 2-.4 4-1.8 5.6-1.3 1.5-1.9 3.4-1.8 5.4l.1.7 13.2-8.3" transform="matrix(4.34783 0 0 4.34783 25 25)"/></svg>