<svg xmlns="http://www.w3.org/2000/svg" xml:space="preserve" id="SUQA" x="0" y="0" version="1.1" viewBox="0 0 245 245"><style>.st1{fill:#fff}</style><path id="Full" d="M0 122.5C0 190 55 245 122.5 245S245 190 245 122.5 190 0 122.5 0 0 55 0 122.5" style="fill:#e76b38"/><path id="Left" d="M118.9 204v-61s-41-20.5-41-41c0-21.5 41-61 41-61S37 94.9 37 126c0 31 81.9 78 81.9 78" class="st1"/><path id="Right" d="M126 41v61s41 20.5 41 41c0 21.5-41 61-41 61s82-53.9 82-85c0-31-82-78-82-78" class="st1"/></svg>