<svg xmlns="http://www.w3.org/2000/svg" width="256" height="256" viewBox="0 0 67.733 67.733"><g transform="translate(0 -229.267)"><circle cx="33.867" cy="263.133" r="32.411" style="opacity:1;fill:#f14f9b;fill-opacity:1;fill-rule:nonzero;stroke:none;stroke-width:3.70443511;stroke-linecap:round;stroke-linejoin:round;stroke-miterlimit:4;stroke-dasharray:none;stroke-dashoffset:0;stroke-opacity:1;paint-order:stroke fill markers"/><path d="M14.792 242.745h39.064v39.064H14.792z" style="clip-rule:evenodd;fill:none;fill-rule:evenodd;stroke-width:.02712795;stroke-linecap:round;stroke-linejoin:round" transform="matrix(1.1563 0 0 1.1563 -5.822 -40.136)"/><path d="M24.157 247.601c1.017-1.424 2.983-2.051 5.526-1.848 3.51.289 8.155 2.17 12.631 5.358 4.459 3.204 7.73 7.019 9.121 10.24 1.017 2.34 1.051 4.408.034 5.832l-6.985 9.765c-1.017 1.424-3 2.052-5.527 1.848-3.51-.305-8.172-2.17-12.63-5.374-4.476-3.187-7.731-7.002-9.138-10.223-1.018-2.34-1.052-4.408-.034-5.832zm26.346 18.887v-.017c.813-1.12.644-2.78-.153-4.645-1.34-3.07-4.476-6.68-8.748-9.732-4.255-3.052-8.68-4.866-12.02-5.137-2.035-.17-3.645.204-4.46 1.34l-.033.067c-.763 1.136-.593 2.747.203 4.578 1.34 3.085 4.476 6.697 8.732 9.748 4.255 3.052 8.68 4.866 12.02 5.137 2 .153 3.577-.203 4.408-1.271l.05-.085zm-10.885-11.63c2.137 1.525 3.713 3.34 4.374 4.882.39.865.492 1.628.102 2.153-.373.526-1.136.679-2.068.594-1.679-.136-3.883-1.051-6.019-2.577s-3.713-3.323-4.374-4.866c-.373-.865-.475-1.627-.102-2.153s1.136-.678 2.086-.61c1.661.152 3.882 1.05 6.001 2.577" style="clip-rule:evenodd;fill:#fff;fill-opacity:1;fill-rule:evenodd;stroke-width:.16953748;stroke-linecap:round;stroke-linejoin:round" transform="matrix(1.1563 0 0 1.1563 -5.822 -40.136)"/><path d="M23.455 251.095c.187 4.459 4.578 8.714 7.952 11.596 4.696 4.001 12.257 7.002 16.479 6.324" style="clip-rule:evenodd;fill:none;fill-rule:evenodd;stroke:#f14f9b;stroke-width:.50861245px;stroke-linecap:round;stroke-linejoin:round;stroke-dasharray:1.01722494,1.01722494,12.71531175,12.71531175;stroke-dashoffset:3;stroke-opacity:1" transform="matrix(1.1563 0 0 1.1563 -5.822 -40.136)"/></g></svg>