<svg xmlns="http://www.w3.org/2000/svg" width="238.501" height="236.921"><g data-name="Group 10126"><path fill="#14c8ff" d="M119.25 0C185.111 0 238.5 53.037 238.5 118.461s-53.39 118.461-119.25 118.461S0 183.885 0 118.461 53.39 0 119.25 0" data-name="Path 81"/><path fill="#fff" d="M141.197 179.961h-30.04a24.7 24.7 0 0 1-10.556-2.274 23.55 23.55 0 0 1-8.207-6.418 30.4 30.4 0 0 1-6.191-13.677 48 48 0 0 1 .249-18.39c1.816-9.2 7.3-34.5 7.353-34.756h-16.26l3.372-17.672a75.5 75.5 0 0 0 36.091-29.814h12.006l-5.252 27.018 37.193-.063-3.97 20.49-37.152-.053-6.911 35.68c-1.339 6.809-2.106 11.846.218 14.675 1.462 1.78 4.063 2.609 8.186 2.609h25.119l-5.252 22.643Z" data-name="Subtraction 111"/></g></svg>