<svg xmlns="http://www.w3.org/2000/svg" id="Cube" width="256" height="256" version="1.1"><defs id="defs1806"><style id="style1804">.cls-1{fill:#183c87}.cls-2{fill:#fff;fill-rule:evenodd}</style></defs><g id="g5158"><g id="g2438" transform="translate(0 -1746)"><circle id="ellipse1808" cx="128.023" cy="1874.076" r="122.5" class="cls-1" style="fill:#183c87;stroke-width:.12240822"/><path id="Full-4-8" d="M19.374 1874.338c0 60.061 48.863 108.924 108.925 108.924 60.06 0 108.924-48.863 108.924-108.924s-48.863-108.925-108.924-108.925-108.925 48.863-108.925 108.925z" class="cls-1" style="fill:none;fill-opacity:1;fill-rule:evenodd;stroke:#fff;stroke-width:5.15905523;stroke-miterlimit:4;stroke-dasharray:none;stroke-opacity:1"/><g id="g2883" transform="translate(.029 -2.866)"><g id="g2404" transform="matrix(.03843 0 0 .0384 38.956 1869.07)"><g id="Box_Left" data-name="Box Left"><path id="Box_Left-2" d="m269 974 297-172 296 172v344l-296 172-297-172Z" class="cls-2" data-name="Box Left" style="fill:#fff;fill-rule:evenodd"/></g><g id="Box_Right" data-name="Box Right"><path id="Box_Left-3" d="m1141 974 297-172 296 172v344l-296 172-297-172z" class="cls-2" data-name="Box Left" style="fill:#fff;fill-rule:evenodd"/></g><g id="Box_Main" data-name="Box Main"><path id="Box_Main-2" d="m626 673 375-219 376 219v123l-269 156v315l-107 62-106-62V952L626 796Z" class="cls-2" data-name="Box Main" style="fill:#fff;fill-rule:evenodd"/></g></g><path id="path2518" d="M90.958 1836.865H78.649v33.866h-7.01v-33.866H59.466v-5.676h31.492z" style="font-style:normal;font-variant:normal;font-weight:500;font-stretch:normal;font-size:331.23999023px;line-height:1.25;font-family:Heebo;-inkscape-font-specification:&quot;Heebo, Medium&quot;;font-variant-ligatures:normal;font-variant-caps:normal;font-variant-numeric:normal;font-feature-settings:normal;text-align:center;letter-spacing:0;word-spacing:0;writing-mode:lr-tb;text-anchor:middle;fill:#fff;fill-opacity:1;stroke:none;stroke-width:.16795458"/><path id="path2520" d="M122.07 1865.082v5.649H96.12v-39.542h25.786v5.676h-18.748v10.727h16.167v5.54h-16.167v11.95z" style="font-style:normal;font-variant:normal;font-weight:500;font-stretch:normal;font-size:331.23999023px;line-height:1.25;font-family:Heebo;-inkscape-font-specification:&quot;Heebo, Medium&quot;;font-variant-ligatures:normal;font-variant-caps:normal;font-variant-numeric:normal;font-feature-settings:normal;text-align:center;letter-spacing:0;word-spacing:0;writing-mode:lr-tb;text-anchor:middle;fill:#fff;fill-opacity:1;stroke:none;stroke-width:.16795458"/><path id="path2522" d="M139.948 1853.73q-6.25-1.928-9.646-4.753-3.396-2.824-3.396-7.36 0-3.177 1.766-5.675 1.793-2.499 5-3.884 3.206-1.412 7.336-1.412 4.32 0 7.553 1.63 3.26 1.602 5 4.372 1.739 2.743 1.739 6.083h-7.01q0-2.96-1.875-4.725-1.848-1.766-5.489-1.766-3.424 0-5.217 1.494-1.766 1.467-1.766 3.857 0 2.118 2.01 3.584 2.011 1.467 6.332 2.716 4.51 1.33 7.363 3.042 2.88 1.71 4.293 4.046t1.413 5.46q0 3.312-1.739 5.756t-4.945 3.776q-3.18 1.303-7.445 1.303-3.967 0-7.554-1.412-3.56-1.44-5.787-4.291-2.201-2.851-2.201-6.871h7.037q0 3.558 2.31 5.296 2.337 1.71 6.195 1.71 3.424 0 5.244-1.411 1.82-1.413 1.82-3.803 0-1.63-.679-2.715-.68-1.114-2.472-2.064-1.767-.95-5.19-1.983" style="font-style:normal;font-variant:normal;font-weight:500;font-stretch:normal;font-size:331.23999023px;line-height:1.25;font-family:Heebo;-inkscape-font-specification:&quot;Heebo, Medium&quot;;font-variant-ligatures:normal;font-variant-caps:normal;font-variant-numeric:normal;font-feature-settings:normal;text-align:center;letter-spacing:0;word-spacing:0;writing-mode:lr-tb;text-anchor:middle;fill:#fff;fill-opacity:1;stroke:none;stroke-width:.16795458"/><path id="path2524" d="M190.08 1836.865h-12.31v33.866h-7.01v-33.866h-12.172v-5.676h31.491z" style="font-style:normal;font-variant:normal;font-weight:500;font-stretch:normal;font-size:331.23999023px;line-height:1.25;font-family:Heebo;-inkscape-font-specification:&quot;Heebo, Medium&quot;;font-variant-ligatures:normal;font-variant-caps:normal;font-variant-numeric:normal;font-feature-settings:normal;text-align:center;letter-spacing:0;word-spacing:0;writing-mode:lr-tb;text-anchor:middle;fill:#fff;fill-opacity:1;stroke:none;stroke-width:.16795458"/><path id="path2526" d="M142.865 1920.65v5.65h-29.563v-4.51l20.379-29.357h-20.243v-5.676h28.802v4.373l-20.352 29.52z" style="font-style:normal;font-variant:normal;font-weight:500;font-stretch:normal;font-size:331.23999023px;line-height:1.25;font-family:Heebo;-inkscape-font-specification:&quot;Heebo, Medium&quot;;font-variant-ligatures:normal;font-variant-caps:normal;font-variant-numeric:normal;font-feature-settings:normal;text-align:center;letter-spacing:0;word-spacing:0;writing-mode:lr-tb;text-anchor:middle;fill:#fff;fill-opacity:1;stroke:none;stroke-width:.16795458"/><path id="path2528" d="M174.655 1920.65v5.65h-25.948v-39.543h25.785v5.676h-18.748v10.728h16.167v5.54h-16.167v11.95z" style="font-style:normal;font-variant:normal;font-weight:500;font-stretch:normal;font-size:331.23999023px;line-height:1.25;font-family:Heebo;-inkscape-font-specification:&quot;Heebo, Medium&quot;;font-variant-ligatures:normal;font-variant-caps:normal;font-variant-numeric:normal;font-feature-settings:normal;text-align:center;letter-spacing:0;word-spacing:0;writing-mode:lr-tb;text-anchor:middle;fill:#fff;fill-opacity:1;stroke:none;stroke-width:.16795458"/><path id="path2530" d="M205.142 1920.65v5.65h-24.917v-39.543h7.038v33.893z" style="font-style:normal;font-variant:normal;font-weight:500;font-stretch:normal;font-size:331.23999023px;line-height:1.25;font-family:Heebo;-inkscape-font-specification:&quot;Heebo, Medium&quot;;font-variant-ligatures:normal;font-variant-caps:normal;font-variant-numeric:normal;font-feature-settings:normal;text-align:center;letter-spacing:0;word-spacing:0;writing-mode:lr-tb;text-anchor:middle;fill:#fff;fill-opacity:1;stroke:none;stroke-width:.16795458"/></g></g></g></svg>