<svg xmlns="http://www.w3.org/2000/svg" width="245" height="245"><g transform="translate(-5.523 -1751.58)"><circle cx="122.5" cy="122.5" r="122.5" fill="#2b61d1" transform="translate(5.523 1751.58)"/><path fill="none" stroke="#fff" stroke-width="5.159" d="M19.374 1874.34A108.924 108.924 0 1 0 128.3 1765.416 109.047 109.047 0 0 0 19.374 1874.34Z"/><g fill="#fff"><path d="M90.987 1833.994H78.678v33.866h-7.01v-33.866H59.495v-5.676h31.492ZM122.098 1862.214v5.649H96.149v-39.542h25.786v5.676h-18.748v10.727h16.167v5.54h-16.167v11.949ZM139.977 1850.864a28 28 0 0 1-9.646-4.753 9.12 9.12 0 0 1-3.4-7.36 9.6 9.6 0 0 1 1.766-5.676 11.7 11.7 0 0 1 5-3.884 18 18 0 0 1 7.336-1.412 16.6 16.6 0 0 1 7.554 1.629 11.95 11.95 0 0 1 5 4.372 11.13 11.13 0 0 1 1.739 6.083h-7.01a6.18 6.18 0 0 0-1.875-4.725 7.66 7.66 0 0 0-5.489-1.765 7.97 7.97 0 0 0-5.217 1.494 4.77 4.77 0 0 0-1.766 3.857 4.33 4.33 0 0 0 2.011 3.585 21 21 0 0 0 6.331 2.716 32 32 0 0 1 7.363 3.042 12.06 12.06 0 0 1 4.293 4.047 10.34 10.34 0 0 1 1.413 5.459 9.67 9.67 0 0 1-1.739 5.757 11.1 11.1 0 0 1-4.945 3.775 19.5 19.5 0 0 1-7.445 1.3 20.4 20.4 0 0 1-7.554-1.412 13.7 13.7 0 0 1-5.788-4.291 10.9 10.9 0 0 1-2.2-6.871h7.037a6.2 6.2 0 0 0 2.31 5.3 10.25 10.25 0 0 0 6.2 1.711 8.4 8.4 0 0 0 5.244-1.412 4.56 4.56 0 0 0 1.82-3.8 5.03 5.03 0 0 0-.679-2.716 6.2 6.2 0 0 0-2.473-2.064 29.4 29.4 0 0 0-5.19-1.983ZM190.108 1833.994h-12.309v33.866h-7.01v-33.866h-12.173v-5.676h31.492Z"/></g></g><g data-name="Group 194"><g fill="#fff" data-name="Group 180"><path d="m61.702 177.016-4.212 2.433-9.048-5.223 4.109-2.373.1-.06.157.091Z" data-name="Path 73"/><path d="M77.87 144.156v4.9l-8.906-5.142-2.415-1.395-2.415 1.395-11.322 6.534-2.415 1.395v2.888l-4.358-2.52-2.415-1.395-2.412 1.395-4.1 2.364v-10.419l20.379-11.765Z" data-name="Path 74"/><path d="M77.87 154.632v13.073l-11.322 6.536-.015-.009-11.306-6.527v-13.073l11.322-6.539Z" data-name="Path 75"/><path d="M50.136 160.155v7.518l-6.512 3.762-6.512-3.763v-7.518l6.512-3.759Z" data-name="Path 76"/></g></g><text fill="#fff" font-family="Helvetica-Bold, Helvetica" font-size="46" font-weight="700" transform="translate(85 173)"><tspan x="0" y="0">FLUX</tspan></text></svg>