<svg xmlns="http://www.w3.org/2000/svg" id="Cube" width="256" height="256" version="1.1"><defs id="defs1806"><style id="style1804">.cls-1{fill:#183c87}</style></defs><g id="g2438" transform="translate(0 -1746)"><g id="g1814"><circle id="ellipse1808" cx="128.023" cy="1873.778" r="122.5" class="cls-1" style="fill:#e6007a;fill-opacity:1;stroke-width:.12240822"/><path id="Full-4-8" d="M19.374 1874.338c0 60.061 48.863 108.924 108.925 108.924 60.06 0 108.924-48.863 108.924-108.924s-48.863-108.925-108.924-108.925-108.925 48.863-108.925 108.925z" class="cls-1" style="fill:none;fill-opacity:1;fill-rule:evenodd;stroke:#fff;stroke-width:5.15905523;stroke-miterlimit:4;stroke-dasharray:none;stroke-opacity:1"/><path id="path2518" d="M90.987 1834H78.678v33.865h-7.01V1834H59.495v-5.676h31.492z" style="font-style:normal;font-variant:normal;font-weight:500;font-stretch:normal;font-size:331.23999023px;line-height:1.25;font-family:Heebo;-inkscape-font-specification:&quot;Heebo, Medium&quot;;font-variant-ligatures:normal;font-variant-caps:normal;font-variant-numeric:normal;font-feature-settings:normal;text-align:center;letter-spacing:0;word-spacing:0;writing-mode:lr-tb;text-anchor:middle;fill:#fff;fill-opacity:1;stroke:none;stroke-width:.16795458"/><path id="path2520" d="M122.098 1862.216v5.65H96.149v-39.543h25.786V1834h-18.748v10.727h16.167v5.54h-16.167v11.95z" style="font-style:normal;font-variant:normal;font-weight:500;font-stretch:normal;font-size:331.23999023px;line-height:1.25;font-family:Heebo;-inkscape-font-specification:&quot;Heebo, Medium&quot;;font-variant-ligatures:normal;font-variant-caps:normal;font-variant-numeric:normal;font-feature-settings:normal;text-align:center;letter-spacing:0;word-spacing:0;writing-mode:lr-tb;text-anchor:middle;fill:#fff;fill-opacity:1;stroke:none;stroke-width:.16795458"/><path id="path2522" d="M139.977 1850.864q-6.25-1.928-9.646-4.752-3.396-2.825-3.396-7.36 0-3.178 1.766-5.676 1.793-2.499 5-3.884 3.205-1.412 7.336-1.412 4.32 0 7.553 1.63 3.26 1.602 5 4.372 1.739 2.743 1.739 6.083h-7.01q0-2.96-1.875-4.725-1.848-1.765-5.489-1.765-3.424 0-5.217 1.493-1.766 1.467-1.766 3.857 0 2.118 2.01 3.585 2.011 1.466 6.332 2.715 4.51 1.331 7.363 3.042 2.88 1.71 4.293 4.047 1.413 2.335 1.413 5.458 0 3.314-1.739 5.758t-4.945 3.775q-3.18 1.303-7.445 1.303-3.967 0-7.554-1.412-3.56-1.44-5.787-4.291-2.201-2.851-2.201-6.87h7.037q0 3.557 2.31 5.295 2.337 1.71 6.195 1.71 3.423 0 5.244-1.411 1.82-1.413 1.82-3.802 0-1.63-.679-2.716-.68-1.114-2.472-2.064-1.767-.95-5.19-1.983" style="font-style:normal;font-variant:normal;font-weight:500;font-stretch:normal;font-size:331.23999023px;line-height:1.25;font-family:Heebo;-inkscape-font-specification:&quot;Heebo, Medium&quot;;font-variant-ligatures:normal;font-variant-caps:normal;font-variant-numeric:normal;font-feature-settings:normal;text-align:center;letter-spacing:0;word-spacing:0;writing-mode:lr-tb;text-anchor:middle;fill:#fff;fill-opacity:1;stroke:none;stroke-width:.16795458"/><path id="path2524" d="M190.108 1834H177.8v33.865h-7.01V1834h-12.174v-5.676h31.492z" style="font-style:normal;font-variant:normal;font-weight:500;font-stretch:normal;font-size:331.23999023px;line-height:1.25;font-family:Heebo;-inkscape-font-specification:&quot;Heebo, Medium&quot;;font-variant-ligatures:normal;font-variant-caps:normal;font-variant-numeric:normal;font-feature-settings:normal;text-align:center;letter-spacing:0;word-spacing:0;writing-mode:lr-tb;text-anchor:middle;fill:#fff;fill-opacity:1;stroke:none;stroke-width:.16795458"/><g id="flowRoot1010" aria-label="WND" style="font-style:normal;font-variant:normal;font-weight:400;font-stretch:normal;font-size:331.23999023px;line-height:1.25;font-family:HelveticaNeue;-inkscape-font-specification:&quot;HelveticaNeue, Normal&quot;;font-variant-ligatures:normal;font-variant-caps:normal;font-variant-numeric:normal;font-feature-settings:normal;text-align:center;letter-spacing:0;word-spacing:0;writing-mode:lr-tb;text-anchor:middle;fill:#fff;fill-opacity:1;stroke:none" transform="matrix(.17015 0 0 .17015 125.174 1797.842)"><path id="path1794" d="M73.174 503.438 19.154 738.93h-40.597l-43.83-170.311-44.802 170.31h-40.596l-54.021-235.49h41.566l36.068 175.647 44.155-175.648h35.097l43.67 176.134 35.582-176.134Z" style="font-style:normal;font-variant:normal;font-weight:500;font-stretch:normal;font-size:331.2406311px;font-family:Heebo;-inkscape-font-specification:&quot;Heebo, Medium&quot;;font-variant-ligatures:normal;font-variant-caps:normal;font-variant-numeric:normal;font-feature-settings:normal;text-align:center;writing-mode:lr-tb;text-anchor:middle;fill:#fff;fill-opacity:1"/><path id="path1796" d="M248.014 738.93 144.339 573.31v165.62h-41.89V503.438h41.89l103.998 165.944V503.438h41.567V738.93z" style="font-style:normal;font-variant:normal;font-weight:500;font-stretch:normal;font-size:331.2406311px;font-family:Heebo;-inkscape-font-specification:&quot;Heebo, Medium&quot;;font-variant-ligatures:normal;font-variant-caps:normal;font-variant-numeric:normal;font-feature-settings:normal;text-align:center;writing-mode:lr-tb;text-anchor:middle;fill:#fff;fill-opacity:1"/><path id="path1798" d="M407.812 503.438q31.377 0 55.476 13.91t37.362 39.302q13.424 25.393 13.424 58.873v11.484q0 33.641-13.424 59.034-13.263 25.231-37.686 39.14-24.422 13.749-56.77 13.749H337.94V503.438h41.89zm64.21 111.762q0-37.847-16.498-57.903-16.497-20.055-47.712-20.055H379.83v168.046h26.363q32.348 0 49.007-20.379 16.82-20.54 16.82-57.902z" style="font-style:normal;font-variant:normal;font-weight:500;font-stretch:normal;font-size:331.2406311px;font-family:Heebo;-inkscape-font-specification:&quot;Heebo, Medium&quot;;font-variant-ligatures:normal;font-variant-caps:normal;font-variant-numeric:normal;font-feature-settings:normal;text-align:center;writing-mode:lr-tb;text-anchor:middle;fill:#fff;fill-opacity:1"/></g><g id="g938" transform="matrix(.42347 0 0 .42347 27.65 1866.587)"><g id="g936"><path id="path934" d="M85 34.7c-20.8 0-37.8 16.9-37.8 37.8 0 4.2.7 8.3 2 12.3.9 2.7 3.9 4.2 6.7 3.3 2.7-.9 4.2-3.9 3.3-6.7-1.1-3.1-1.6-6.4-1.5-9.7.4-14.1 11.8-25.7 25.9-26.4 15.7-.8 28.7 11.7 28.7 27.2 0 14.5-11.4 26.4-25.7 27.2 0 0-5.3.3-7.9.7-1.3.2-2.3.4-3 .5-.3.1-.6-.2-.5-.5l.9-4.4L81 73.4c.6-2.8-1.2-5.6-4-6.2s-5.6 1.2-6.2 4c0 0-11.8 55-11.9 55.6-.6 2.8 1.2 5.6 4 6.2s5.6-1.2 6.2-4c.1-.6 1.7-7.9 1.7-7.9 1.2-5.6 5.8-9.7 11.2-10.4 1.2-.2 5.9-.5 5.9-.5 19.5-1.5 34.9-17.8 34.9-37.7 0-20.9-17-37.8-37.8-37.8m2.7 87c-3.4-.7-6.8 1.4-7.5 4.9-.7 3.4 1.4 6.8 4.9 7.5 3.4.7 6.8-1.4 7.5-4.9s-1.4-6.8-4.9-7.5" class="st0" style="fill:#fff"/></g></g></g></g></svg>