<svg xmlns="http://www.w3.org/2000/svg" width="245" height="245"><defs><linearGradient id="a" x1="-.032" x2=".461" y1=".69" y2=".375" gradientUnits="objectBoundingBox"><stop offset=".001" stop-color="#fff" stop-opacity=".502"/><stop offset=".101" stop-color="#fff" stop-opacity=".549"/><stop offset="1" stop-color="#fff"/></linearGradient><linearGradient id="b" x1=".076" x2=".546" y1=".198" y2=".648" gradientUnits="objectBoundingBox"><stop offset="0" stop-color="#fff" stop-opacity=".502"/><stop offset=".147" stop-color="#fff" stop-opacity=".573"/><stop offset="1" stop-color="#fff"/></linearGradient></defs><g transform="translate(-5.523 -1751.28)"><circle cx="122.5" cy="122.5" r="122.5" fill="#ed098f" transform="translate(5.523 1751.28)"/><path fill="none" stroke="#fff" stroke-width="5.159" d="M19.374 1874.34A108.924 108.924 0 1 0 128.3 1765.416 109.047 109.047 0 0 0 19.374 1874.34Z"/><path fill="#fff" d="M90.987 1834H78.678v33.866h-7.01V1834H59.495v-5.676h31.492ZM122.1 1862.22v5.649H96.149v-39.542h25.786V1834h-18.748v10.727h16.167v5.54h-16.167v11.949ZM139.977 1850.86a28 28 0 0 1-9.646-4.753 9.12 9.12 0 0 1-3.4-7.36 9.6 9.6 0 0 1 1.766-5.676 11.7 11.7 0 0 1 5-3.884 18 18 0 0 1 7.336-1.412 16.6 16.6 0 0 1 7.554 1.629 11.95 11.95 0 0 1 5 4.372 11.13 11.13 0 0 1 1.739 6.083h-7.01a6.18 6.18 0 0 0-1.875-4.725 7.66 7.66 0 0 0-5.489-1.765 7.97 7.97 0 0 0-5.217 1.494 4.77 4.77 0 0 0-1.766 3.857 4.33 4.33 0 0 0 2.011 3.585 21 21 0 0 0 6.331 2.716 32 32 0 0 1 7.363 3.042 12.06 12.06 0 0 1 4.293 4.047 10.34 10.34 0 0 1 1.413 5.459 9.67 9.67 0 0 1-1.739 5.757 11.1 11.1 0 0 1-4.945 3.775 19.5 19.5 0 0 1-7.445 1.3 20.4 20.4 0 0 1-7.554-1.412 13.7 13.7 0 0 1-5.788-4.291 10.9 10.9 0 0 1-2.2-6.871h7.037a6.2 6.2 0 0 0 2.31 5.3 10.25 10.25 0 0 0 6.2 1.711 8.4 8.4 0 0 0 5.244-1.412 4.56 4.56 0 0 0 1.82-3.8 5.03 5.03 0 0 0-.679-2.716 6.2 6.2 0 0 0-2.473-2.064 29.4 29.4 0 0 0-5.19-1.983ZM190.108 1834H177.8v33.866h-7.01V1834h-12.174v-5.676h31.492Z"/><text fill="#fff" font-family="HelveticaNeue-Medium, 'Helvetica 65'" font-size="56" font-weight="500" letter-spacing="-.03em" transform="translate(152.523 1924.28)"><tspan x="-56.398" y="0">KDA</tspan></text></g><g data-name="Group 2620"><path fill="#fff" d="M40.622 129.6h11.62v44.811h-11.62Z"/><path fill="url(#a)" d="M213 106.8h13.273L197.9 136.83v-14.1Z" transform="translate(-145.821 22.8)"/><path fill="url(#b)" d="m230.26 218.1-7.26 7.682 12.8 19.075h12.8Z" transform="translate(-166.852 -70.463)"/></g></svg>