<svg xmlns="http://www.w3.org/2000/svg" id="Cube" width="256" height="256" version="1.1"><defs id="defs1806"><style id="style1804">.cls-1{fill:#183c87}</style></defs><g id="g2438" transform="translate(0 -1746)"><g id="g5223"><g id="g5119"><circle id="ellipse1808" cx="128.023" cy="1873.778" r="122.5" class="cls-1" style="fill:#f7931a;fill-opacity:1;stroke-width:.12240822"/><path id="Full-4-8" d="M19.374 1874.338c0 60.061 48.863 108.924 108.925 108.924 60.06 0 108.924-48.863 108.924-108.924s-48.863-108.925-108.924-108.925-108.925 48.863-108.925 108.925z" class="cls-1" style="fill:none;fill-opacity:1;fill-rule:evenodd;stroke:#fff;stroke-width:5.15905523;stroke-miterlimit:4;stroke-dasharray:none;stroke-opacity:1"/><path id="path2518" d="M90.987 1834H78.678v33.865h-7.01V1834H59.495v-5.676h31.492z" style="font-style:normal;font-variant:normal;font-weight:500;font-stretch:normal;font-size:331.23999023px;line-height:1.25;font-family:Heebo;-inkscape-font-specification:&quot;Heebo, Medium&quot;;font-variant-ligatures:normal;font-variant-caps:normal;font-variant-numeric:normal;font-feature-settings:normal;text-align:center;letter-spacing:0;word-spacing:0;writing-mode:lr-tb;text-anchor:middle;fill:#fff;fill-opacity:1;stroke:none;stroke-width:.16795458"/><path id="path2520" d="M122.098 1862.216v5.65H96.149v-39.543h25.786V1834h-18.748v10.727h16.167v5.54h-16.167v11.95z" style="font-style:normal;font-variant:normal;font-weight:500;font-stretch:normal;font-size:331.23999023px;line-height:1.25;font-family:Heebo;-inkscape-font-specification:&quot;Heebo, Medium&quot;;font-variant-ligatures:normal;font-variant-caps:normal;font-variant-numeric:normal;font-feature-settings:normal;text-align:center;letter-spacing:0;word-spacing:0;writing-mode:lr-tb;text-anchor:middle;fill:#fff;fill-opacity:1;stroke:none;stroke-width:.16795458"/><path id="path2522" d="M139.977 1850.864q-6.25-1.928-9.646-4.752-3.396-2.825-3.396-7.36 0-3.178 1.766-5.676 1.793-2.499 5-3.884 3.205-1.412 7.336-1.412 4.32 0 7.553 1.63 3.26 1.602 5 4.372 1.739 2.743 1.739 6.083h-7.01q0-2.96-1.875-4.725-1.848-1.765-5.489-1.765-3.424 0-5.217 1.493-1.766 1.467-1.766 3.857 0 2.118 2.01 3.585 2.011 1.466 6.332 2.715 4.51 1.331 7.363 3.042 2.88 1.71 4.293 4.047 1.413 2.335 1.413 5.458 0 3.314-1.739 5.758t-4.945 3.775q-3.18 1.303-7.445 1.303-3.967 0-7.554-1.412-3.56-1.44-5.787-4.291-2.201-2.851-2.201-6.87h7.037q0 3.557 2.31 5.295 2.337 1.71 6.195 1.71 3.423 0 5.244-1.411 1.82-1.413 1.82-3.802 0-1.63-.679-2.716-.68-1.114-2.472-2.064-1.767-.95-5.19-1.983" style="font-style:normal;font-variant:normal;font-weight:500;font-stretch:normal;font-size:331.23999023px;line-height:1.25;font-family:Heebo;-inkscape-font-specification:&quot;Heebo, Medium&quot;;font-variant-ligatures:normal;font-variant-caps:normal;font-variant-numeric:normal;font-feature-settings:normal;text-align:center;letter-spacing:0;word-spacing:0;writing-mode:lr-tb;text-anchor:middle;fill:#fff;fill-opacity:1;stroke:none;stroke-width:.16795458"/><path id="path2524" d="M190.108 1834H177.8v33.865h-7.01V1834h-12.174v-5.676h31.492z" style="font-style:normal;font-variant:normal;font-weight:500;font-stretch:normal;font-size:331.23999023px;line-height:1.25;font-family:Heebo;-inkscape-font-specification:&quot;Heebo, Medium&quot;;font-variant-ligatures:normal;font-variant-caps:normal;font-variant-numeric:normal;font-feature-settings:normal;text-align:center;letter-spacing:0;word-spacing:0;writing-mode:lr-tb;text-anchor:middle;fill:#fff;fill-opacity:1;stroke:none;stroke-width:.16795458"/><g id="flowRoot2923" aria-label="BTC" style="font-style:normal;font-variant:normal;font-weight:400;font-stretch:normal;font-size:331.23999023px;line-height:1.25;font-family:HelveticaNeue;-inkscape-font-specification:&quot;HelveticaNeue, Normal&quot;;font-variant-ligatures:normal;font-variant-caps:normal;font-variant-numeric:normal;font-feature-settings:normal;text-align:center;letter-spacing:0;word-spacing:0;writing-mode:lr-tb;text-anchor:middle;fill:#fff;fill-opacity:1;stroke:none" transform="matrix(.16789 0 0 .16789 54.347 1805.66)"><path id="path3090" d="M388.169 576.037q19.57 5.176 29.598 19.894 10.027 14.556 10.027 33.803 0 33.48-21.51 51.271-21.512 17.63-60.49 17.63H258.94V463.144h80.869q39.787 0 61.137 15.85 21.35 15.689 21.35 47.875 0 16.497-8.896 29.436-8.734 12.94-25.231 19.732m-87.34-79.09v65.18h39.303q19.247 0 29.76-8.571 10.675-8.573 10.675-24.1 0-17.144-9.866-24.745-9.866-7.764-30.892-7.764zm44.964 168.046q19.409 0 29.76-9.542 10.513-9.705 10.513-25.717 0-36.876-38.494-36.876H300.83v72.135z" style="font-style:normal;font-variant:normal;font-weight:500;font-stretch:normal;font-size:331.23999023px;font-family:Heebo;-inkscape-font-specification:&quot;Heebo, Medium&quot;;font-variant-ligatures:normal;font-variant-caps:normal;font-variant-numeric:normal;font-feature-settings:normal;text-align:center;writing-mode:lr-tb;text-anchor:middle;fill:#fff;fill-opacity:1"/><path id="path3092" d="M635.143 496.947h-73.268v201.688h-41.728V496.947h-72.459v-33.803h187.455z" style="font-style:normal;font-variant:normal;font-weight:500;font-stretch:normal;font-size:331.23999023px;font-family:Heebo;-inkscape-font-specification:&quot;Heebo, Medium&quot;;font-variant-ligatures:normal;font-variant-caps:normal;font-variant-numeric:normal;font-feature-settings:normal;text-align:center;writing-mode:lr-tb;text-anchor:middle;fill:#fff;fill-opacity:1"/><path id="path3094" d="M846.211 621.647q-2.102 23.614-13.262 41.729-10.998 18.115-31.054 28.304t-48.198 10.19q-28.951 0-50.462-13.586-21.512-13.748-33.157-38.98-11.645-25.23-11.645-59.034v-18.6q0-33.803 11.807-59.034 11.969-25.231 33.803-38.98 21.997-13.747 51.271-13.747 27.658 0 47.228 10.351 19.57 10.19 30.407 28.628 10.998 18.276 13.424 42.375h-41.728q-2.75-23.613-14.072-35.42-11.16-11.969-35.259-11.969-27.01 0-40.92 20.056-13.747 19.893-13.747 57.417v18.923q0 36.876 12.777 57.255 12.94 20.38 40.273 20.38 16.82 0 27.334-5.176 10.674-5.337 16.012-15.365 5.499-10.19 7.44-25.717z" style="font-style:normal;font-variant:normal;font-weight:500;font-stretch:normal;font-size:331.23999023px;font-family:Heebo;-inkscape-font-specification:&quot;Heebo, Medium&quot;;font-variant-ligatures:normal;font-variant-caps:normal;font-variant-numeric:normal;font-feature-settings:normal;text-align:center;writing-mode:lr-tb;text-anchor:middle;fill:#fff;fill-opacity:1"/></g><path id="B" d="m68.527 1879.424-1.84 6.746-8.279-1.993-1.073 4.447 3.526.766s1.874.927 1.38 2.453c-.357 1.411-4.6 18.4-4.6 18.4s-.224 1.198-1.993.92c-1.547-.378-2.76-.767-2.76-.767l-2.146 4.906 8.278 2.147-1.686 6.746 4.14 1.074 1.686-6.747 3.22.767-1.687 6.746 4.294 1.074 1.533-6.747s12.823 3.139 14.717-5.98c2.37-7.53-3.833-9.66-3.833-9.66s4.57-.972 5.213-5.825c1.51-7.235-8.279-9.813-8.279-9.813l1.687-6.747-4.14-1.073-1.533 6.593-3.373-.766 1.686-6.593zm1.38 12.573s9.458 1.438 8.585 6.286c-.888 5.354-10.578 1.993-10.578 1.993zm-3.067 12.573-2.3 8.892s11.384 3.753 12.571-1.533c1.73-6.017-10.27-7.36-10.27-7.36z" style="fill:#fff;fill-rule:evenodd;stroke-width:.15332602"/></g></g></g></svg>