<svg xmlns="http://www.w3.org/2000/svg" id="Cube" width="256" height="256" version="1.1"><defs id="defs1806"><style id="style1804">.cls-1{fill:#183c87}.cls-2{fill:#fff;fill-rule:evenodd}</style></defs><g id="g5087"><circle id="ellipse1808" cx="128.023" cy="127.778" r="122.5" class="cls-1" style="fill:#b0b0b0;fill-opacity:1;stroke-width:.12240822"/><path id="Full-4-8" d="M19.374 128.338c0 60.061 48.863 108.924 108.925 108.924 60.06 0 108.924-48.863 108.924-108.924S188.36 19.413 128.299 19.413 19.374 68.276 19.374 128.338z" class="cls-1" style="fill:none;fill-opacity:1;fill-rule:evenodd;stroke:#fff;stroke-width:5.15905523;stroke-miterlimit:4;stroke-dasharray:none;stroke-opacity:1"/><path id="path2518" d="M90.987 88H78.678v33.865h-7.01V88H59.495v-5.676h31.492z" style="font-style:normal;font-variant:normal;font-weight:500;font-stretch:normal;font-size:331.23999023px;line-height:1.25;font-family:Heebo;-inkscape-font-specification:&quot;Heebo, Medium&quot;;font-variant-ligatures:normal;font-variant-caps:normal;font-variant-numeric:normal;font-feature-settings:normal;text-align:center;letter-spacing:0;word-spacing:0;writing-mode:lr-tb;text-anchor:middle;fill:#fff;fill-opacity:1;stroke:none;stroke-width:.16795458"/><path id="path2520" d="M122.098 116.216v5.65H96.149V82.322h25.786V88h-18.748v10.728h16.167v5.54h-16.167v11.95z" style="font-style:normal;font-variant:normal;font-weight:500;font-stretch:normal;font-size:331.23999023px;line-height:1.25;font-family:Heebo;-inkscape-font-specification:&quot;Heebo, Medium&quot;;font-variant-ligatures:normal;font-variant-caps:normal;font-variant-numeric:normal;font-feature-settings:normal;text-align:center;letter-spacing:0;word-spacing:0;writing-mode:lr-tb;text-anchor:middle;fill:#fff;fill-opacity:1;stroke:none;stroke-width:.16795458"/><path id="path2522" d="M139.977 104.864q-6.25-1.928-9.646-4.752-3.396-2.825-3.396-7.36 0-3.178 1.766-5.676 1.793-2.499 5-3.884 3.205-1.412 7.336-1.412 4.32 0 7.553 1.63 3.26 1.602 5 4.372 1.739 2.743 1.739 6.083h-7.01q0-2.96-1.875-4.725-1.848-1.765-5.489-1.765-3.424 0-5.217 1.493-1.766 1.467-1.766 3.857 0 2.118 2.01 3.585 2.011 1.466 6.332 2.715 4.51 1.331 7.363 3.042 2.88 1.71 4.293 4.047 1.413 2.335 1.413 5.458 0 3.314-1.739 5.758t-4.945 3.775q-3.18 1.303-7.445 1.303-3.967 0-7.554-1.412-3.56-1.44-5.787-4.291-2.201-2.851-2.201-6.87h7.037q0 3.557 2.31 5.295 2.337 1.71 6.195 1.71 3.423 0 5.244-1.411 1.82-1.413 1.82-3.802 0-1.63-.679-2.716-.68-1.114-2.472-2.064-1.767-.95-5.19-1.983" style="font-style:normal;font-variant:normal;font-weight:500;font-stretch:normal;font-size:331.23999023px;line-height:1.25;font-family:Heebo;-inkscape-font-specification:&quot;Heebo, Medium&quot;;font-variant-ligatures:normal;font-variant-caps:normal;font-variant-numeric:normal;font-feature-settings:normal;text-align:center;letter-spacing:0;word-spacing:0;writing-mode:lr-tb;text-anchor:middle;fill:#fff;fill-opacity:1;stroke:none;stroke-width:.16795458"/><path id="path2524" d="M190.108 88H177.8v33.865h-7.01V88h-12.174v-5.676h31.492z" style="font-style:normal;font-variant:normal;font-weight:500;font-stretch:normal;font-size:331.23999023px;line-height:1.25;font-family:Heebo;-inkscape-font-specification:&quot;Heebo, Medium&quot;;font-variant-ligatures:normal;font-variant-caps:normal;font-variant-numeric:normal;font-feature-settings:normal;text-align:center;letter-spacing:0;word-spacing:0;writing-mode:lr-tb;text-anchor:middle;fill:#fff;fill-opacity:1;stroke:none;stroke-width:.16795458"/><g id="flowRoot2923" aria-label="ETH" style="font-style:normal;font-variant:normal;font-weight:400;font-stretch:normal;font-size:331.23999023px;line-height:1.25;font-family:HelveticaNeue;-inkscape-font-specification:&quot;HelveticaNeue, Normal&quot;;font-variant-ligatures:normal;font-variant-caps:normal;font-variant-numeric:normal;font-feature-settings:normal;text-align:center;letter-spacing:0;word-spacing:0;writing-mode:lr-tb;text-anchor:middle;fill:#fff;fill-opacity:1;stroke:none" transform="matrix(.16789 0 0 .16789 51.6 60.274)"><path id="path3741" d="M411.135 664.993v33.642h-154.46V463.144h153.49v33.803h-111.6v63.887H394.8v32.994h-96.235v71.165z" style="font-style:normal;font-variant:normal;font-weight:500;font-stretch:normal;font-size:331.23999023px;font-family:Heebo;-inkscape-font-specification:&quot;Heebo, Medium&quot;;font-variant-ligatures:normal;font-variant-caps:normal;font-variant-numeric:normal;font-feature-settings:normal;text-align:center;writing-mode:lr-tb;text-anchor:middle;fill:#fff;fill-opacity:1"/><path id="path3743" d="M618.646 496.947h-73.268v201.688H503.65V496.947h-72.46v-33.803h187.456z" style="font-style:normal;font-variant:normal;font-weight:500;font-stretch:normal;font-size:331.23999023px;font-family:Heebo;-inkscape-font-specification:&quot;Heebo, Medium&quot;;font-variant-ligatures:normal;font-variant-caps:normal;font-variant-numeric:normal;font-feature-settings:normal;text-align:center;writing-mode:lr-tb;text-anchor:middle;fill:#fff;fill-opacity:1"/><path id="path3745" d="M836.992 463.144v235.49h-41.728v-104.32H691.266v104.32h-41.89v-235.49h41.89v97.69h103.998v-97.69z" style="font-style:normal;font-variant:normal;font-weight:500;font-stretch:normal;font-size:331.23999023px;font-family:Heebo;-inkscape-font-specification:&quot;Heebo, Medium&quot;;font-variant-ligatures:normal;font-variant-caps:normal;font-variant-numeric:normal;font-feature-settings:normal;text-align:center;writing-mode:lr-tb;text-anchor:middle;fill:#fff;fill-opacity:1"/></g><g id="Eth_copy" data-name="Eth copy" transform="matrix(.13599 0 0 .13599 34.757 122.02)"><path id="Shape1" d="M256 87 152 259l104-47Z" class="cls-2" style="fill:#fff;fill-rule:evenodd"/><path id="Shape2" d="m256 87 104 172-104-47Z" class="cls-2" style="fill:#fff;fill-rule:evenodd"/><path id="Shape3" d="m152 258 104-47v109Z" class="cls-3" style="fill:#efefef;fill-rule:evenodd"/><path id="Shape4" d="m360 258-104-47v109z" class="cls-3" style="fill:#efefef;fill-rule:evenodd"/><path id="Shape5" d="m152 279 104 61v85z" class="cls-2" style="fill:#fff;fill-rule:evenodd"/><path id="Shape6" d="m360 279-104 61v85z" class="cls-2" style="fill:#fff;fill-rule:evenodd"/></g><text xml:space="preserve" id="text2223" x="93.616" y="204.626" style="font-style:normal;font-weight:400;font-size:17.4672px;line-height:1.25;font-family:sans-serif;fill:#fff;fill-opacity:1;stroke:none;stroke-width:.436679"><tspan id="tspan2221" x="93.616" y="204.626" style="fill:#fff;stroke-width:.436679">SEPOLIA</tspan></text></g></svg>