<svg xmlns="http://www.w3.org/2000/svg" xmlns:xlink="http://www.w3.org/1999/xlink" width="250" height="250"><defs><linearGradient xlink:href="#a" id="b" x1="17.336" x2="80" y1="74.339" y2="74.339"><stop offset="0" stop-color="#700000"/><stop offset=".327" stop-color="#730000"/><stop offset=".59" stop-color="#7d0000"/><stop offset=".83" stop-color="#8e0000"/><stop offset="1" stop-color="#9f0000"/></linearGradient><linearGradient xlink:href="#a" id="c" x1="48.668" x2="48.668" y1="68.689" y2="80"><stop offset=".35" stop-color="#cf2000"/><stop offset=".645" stop-color="#cd1f00"/><stop offset=".752" stop-color="#c61d00"/><stop offset=".828" stop-color="#bb1900"/><stop offset=".889" stop-color="#aa1300"/><stop offset=".941" stop-color="#940c00"/><stop offset=".987" stop-color="#790300"/><stop offset="1" stop-color="#700000"/></linearGradient><linearGradient xlink:href="#a" id="d" x1="17.336" x2="80" y1="55.313" y2="55.313"><stop offset="0" stop-color="#cf2000"/><stop offset=".021" stop-color="#d12201"/><stop offset=".244" stop-color="#e23309"/><stop offset=".487" stop-color="#ec3d0e"/><stop offset=".791" stop-color="#ef4010"/><stop offset=".841" stop-color="#ec3d0f"/><stop offset=".882" stop-color="#e2330d"/><stop offset=".919" stop-color="#d12208"/><stop offset=".954" stop-color="#b90a03"/><stop offset=".966" stop-color="#af0000"/><stop offset="1" stop-color="#ef4010"/></linearGradient><linearGradient xlink:href="#a" id="e" x1="17.336" x2="80" y1="55.313" y2="55.313"><stop offset="0" stop-color="#dfdfdf"/><stop offset=".021" stop-color="#e1e1e1"/><stop offset=".244" stop-color="#f2f2f2"/><stop offset=".487" stop-color="#fcfcfc"/><stop offset=".791" stop-color="#fff"/><stop offset=".841" stop-color="#fcfcfc"/><stop offset=".882" stop-color="#f2f2f2"/><stop offset=".919" stop-color="#e1e1e1"/><stop offset=".954" stop-color="#c9c9c9"/><stop offset=".966" stop-color="#bfbfbf"/><stop offset="1" stop-color="#fff"/></linearGradient><linearGradient xlink:href="#a" id="f" x1="17.336" x2="80" y1="55.313" y2="55.313"><stop offset="0" stop-color="#00209f"/><stop offset=".021" stop-color="#0222a1"/><stop offset=".244" stop-color="#1333b2"/><stop offset=".487" stop-color="#1d3dbc"/><stop offset=".791" stop-color="#2040bf"/><stop offset=".841" stop-color="#1e3dbc"/><stop offset=".882" stop-color="#1933b2"/><stop offset=".919" stop-color="#1122a1"/><stop offset=".954" stop-color="#050a89"/><stop offset=".966" stop-color="#00007f"/><stop offset="1" stop-color="#2040bf"/></linearGradient><linearGradient id="a" gradientUnits="userSpaceOnUse"/></defs><circle cx="125" cy="125" r="125" fill="#cdcdcd" fill-rule="evenodd"/><path fill="#0e3ca5" d="M105.676 164.863c4.821 17.888 22.12 31.532 30.857 30.968.306-.019 33.134-6.157 51.106-36.26 13.982-23.43 9.223-46.052-9.797-46.545-6.844.5-81.348 17.762-72.161 51.842m70.387-114.891-.02-.015.027-.017a83.477 83.707 0 0 0-87.99-12.73 49.219 49.355 0 0 0-5.303 2.597c-1.172.626-2.346 1.247-3.481 1.934l.277.087a38.03 38.136 0 0 0-8.81 8.361C46.823 81.93 127.133 105 170.077 105.077c19.745 14.22 25.287-40.033 5.99-55.1"/><path fill="#5493f7" d="M92.936 50.622C81.902 67.248 45.15 78.968 39.108 77.142l-.041-.077q.373-.754.754-1.496a88.428 88.673 0 0 1 26.204-30.66q3.392-2.494 7.023-4.662a25.98 26.052 0 0 1 12.15-3.244c16.365.324 7.82 13.486 7.738 13.619M83.88 168.133c.793 5.224-.02 25.866-1.085 27.602-.918.055-2.83.171-8.367-2.942a87.845 88.088 0 0 1-43.277-62.368 88.954 89.2 0 0 1 0-28.623 87.486 87.727 0 0 1 3.334-13.573q.442-1.33.924-2.643c6.342 8.461 13.683 16.114 19.922 24.657 5.942 8.135 14.116 21.396 15.78 24.232 10.327 17.59 11.974 28.444 12.762 33.66m122.096-52.023a87.749 87.991 0 0 1-6.126 32.412c-10.366 11.168-80.234-16.324-80.919-16.626-9.558-4.202-38.645-16.975-41.27-37.053-3.764-28.875 54.647-48.997 80.32-49.759 3.08.034 12.447.145 17.91 4.593a87.775 88.018 0 0 1 30.085 66.433m-47.3 78.257c-7.618 3.565-16.002.967-13.823-6.469 4.183-14.284 40.707-28.928 48.773-29.733.993-.097 1.417.582.976 1.358a88.882 89.127 0 0 1-35.919 34.834"/><path fill="url(#b)" d="M17.336 77.255a2.55 2.55 0 0 0 2.328 2.713c30.7.21 60.336-1.2 60.336-5.8 0-13.925-62.664 3.087-62.664 3.087" transform="matrix(2.41068 0 0 2.41733 27.124 21.614)"/><path fill="url(#c)" d="M17.336 77.255a2.55 2.55 0 0 0 2.34 2.713c30.691.233 60.287-.732 60.324-5.8 0-13.925-62.664 3.087-62.664 3.087m2.341 2.536a2 2 0 0 1-.245-.014 2.4 2.4 0 0 1-1.987-1.763 2.37 2.37 0 0 0 2.229 1.762c30.671-.193 59.845-9.637 59.845-5.479 0 4.245-29.172 5.703-59.842 5.494" transform="matrix(2.41068 0 0 2.41733 27.124 21.614)"/><path fill="url(#d)" d="M19.679 37.822a2.343 2.343 0 0 0-2.343 2.344v37.089a2.34 2.34 0 0 0 2.328 2.345C50.363 79.37 80.038 69.208 80 74.168V32.393c.038-4.961-29.627 5.199-60.321 5.429" transform="matrix(2.41068 0 0 2.41733 27.124 21.614)"/><path fill="url(#e)" d="M77.59 38a24.5 24.5 0 0 0-4.28.228l-3.3.465-3.074.492-2.967.517-2.883.5-2.815.484-2.747.471-2.717.44-2.706.42-2.678.41-2.7.375-2.733.349-2.761.329-2.826.3-2.9.277-2.987.247-3.095.2-3.214.148-3.356.1-3.514.041v27.858l3.511-.04 3.356-.1 3.217-.149 3.095-.2 2.984-.253 2.9-.275 2.825-.3a324 324 0 0 0 5.49-.677 199 199 0 0 0 5.383-.785l2.7-.42 2.718-.439 2.754-.474 2.815-.483 2.883-.5 2.969-.516 3.072-.493 3.3-.465a24.3 24.3 0 0 1 4.28-.228c1.343.09 2.408.433 2.41 1.369V39.37c.001-.937-1.066-1.278-2.409-1.37" transform="matrix(2.41068 0 0 2.41733 27.124 21.614)"/><path fill="url(#f)" d="M77.591 44.965a24.3 24.3 0 0 0-4.281.228l-3.3.464-3.073.493-2.968.516-2.882.5-2.816.485-2.749.471-2.717.441-2.7.418-2.68.411-2.7.375a313 313 0 0 1-5.493.677l-2.824.3-2.9.276-2.987.247-3.094.2-3.216.148-3.355.1-3.514.04v13.933l3.511-.04 3.356-.1 3.217-.149 3.1-.2 2.986-.248 2.9-.276 2.824-.3 2.762-.327 2.729-.349 2.7-.377 2.683-.409 2.7-.419 2.719-.44 2.752-.473 2.815-.483 2.883-.5 2.968-.517 3.073-.494 3.3-.462a24 24 0 0 1 4.279-.229c1.343.091 2.408.433 2.41 1.369V46.334c-.009-.934-1.075-1.277-2.418-1.369" transform="matrix(2.41068 0 0 2.41733 27.124 21.614)"/></svg>