<svg xmlns="http://www.w3.org/2000/svg" xml:space="preserve" viewBox="0 0 490 490"><path d="M0 245c0 135.1 109.9 245 245 245s245-109.9 245-245S380.1 0 245 0 0 109.9 0 245" style="fill:#fcb31b"/><circle cx="245" cy="245" r="174.9" style="fill:none;stroke:#fff;stroke-width:5"/><path d="M101.6 185.9c10.6 0 21.2.1 31.8 0-2.1 8-3.6 16.1-5.8 24.2H96.2c1.5-8.2 3.6-16.2 5.4-24.2m38.7 0c33.6 0 67.1.1 100.7 0-9.9 41.4-19.1 82.9-28.9 124.2-9.8-.1-19.8.1-29.6-.1 7.9-33.3 15.3-66.7 23.4-100-12.9.1-25.8 0-38.6 0q-11.7 49.95-23.1 99.9c-10.8.2-21.6 0-32.3.1 9.2-41.4 19-82.8 28.4-124.1m154.7-.1c16.5.2 33-.2 49.5.2 11.6.8 24.2 2.8 32.8 11.3 5.1 4.7 6.9 11.9 6.7 18.7h9.8c-1.4 4.1-2 8.4-3.7 12.4-3.1.3-6.3.1-9.4.2-4.9 8.4-13.7 12.9-22.7 15.7 6.1 1.8 12.3 4.5 16.6 9.5 2.8 3.3 3.7 7.7 4.4 11.9h11.2c-1.2 4.1-2.5 8.2-3.5 12.4-3 0-6 0-8.9.2-3.3 13.6-15.3 23.1-28.1 27.2-15.6 5.2-32.3 4.6-48.5 4.6-11.1-.1-22.2.2-33.2-.1-.5-1.5-1.6-3-.9-4.5 9.6-40 18.4-79.9 27.9-119.7m24.2 23.2q-3.15 12.9-6 25.8c7.4-.1 14.8.4 22.2-.7 5.5-1 11.4-3.7 13.6-9.2 1.7-4.5 1.7-10.8-2.9-13.6-6.7-3.6-14.6-2.5-22-2.7-1.6.2-3.6-.5-4.9.4m-10.9 47.2c-2.6 10.3-4.8 20.6-7.2 30.9 12.6-.5 26.2 1.9 37.7-4.5 6.9-3.6 9.5-12.7 6.2-19.5-2.3-4-7.1-5.2-11.3-6.1-8.5-1.3-17-.7-25.4-.8m-71.6-22.9c3.6-15.6 7.1-31.1 10.8-46.6 8.6 20.3 17.5 40.3 26.2 60.5-4 16.2-7.4 32.6-11.5 48.7-8-19.4-16.3-38.6-24.6-58-.4-1.4-1.5-3-.9-4.6" style="fill:#fff"/></svg>