<svg xmlns="http://www.w3.org/2000/svg" xml:space="preserve" viewBox="0 0 490 490"><path d="M0 245c0 135.1 109.9 245 245 245s245-109.9 245-245S380.1 0 245 0 0 109.9 0 245" style="fill:#ff4081"/><path d="M315.3 283.1c-46.4-3.3-93-3.3-139.4 0-1.5-23.5-2.3-35.3-3.8-58.9 49-3.4 98.1-3.4 147 0-1.5 23.6-2.3 35.4-3.8 58.9M277.2 379q-31.65-1.8-63.3 0c-.7-21-1-31.5-1.7-52.5 22.2-1.3 44.5-1.3 66.8 0-.7 21-1.1 31.5-1.8 52.5M85.1 129.4c4.2 28.4 6.3 42.7 10.4 71.1 5.9-10.4 9-15.6 15.2-25.9 90.6-13.2 182.6-13 273.1.5 4.9 10.1 7.3 15.2 12 25.4 4.1-28.4 6.2-42.7 10.4-71.1-108.7-18.1-212.6-18.1-321.1 0" style="fill:#fff"/></svg>