<svg xmlns="http://www.w3.org/2000/svg" xml:space="preserve" viewBox="0 0 245 245"><path d="M0 122.5C0 190 55 245 122.5 245S245 190 245 122.5 190 0 122.5 0 0 55 0 122.5" style="fill:#f5692c"/><path d="M52.6 67.8S83.8 55 122.5 55s69.9 12.8 69.9 12.8zm0 14.6h54.5l15.4 120.2L95.4 90.9zm85.3 0-15.4 120.2 26.6-111.5 43.3-8.7zm54.5 3.4 23.1 44.3s-2.1 13.8-23.8 13.8S165 130 165 130l18.2-33.5-13.3 33.5h40.4zm-139.8 0-23 44.3s2.2 13.8 23.8 13.8S80 130 80 130L62.1 96.5l13 33.5H34.4z" style="fill:#fff"/></svg>