<svg xmlns="http://www.w3.org/2000/svg" width="256" height="256" viewBox="0 0 67.733 67.733"><g style="fill:#1a5fac;fill-opacity:1;stroke:#1a5fac;stroke-opacity:1"><path d="M1.455 263.133c0 17.872 14.54 32.412 32.412 32.412 17.871 0 32.411-14.54 32.411-32.412 0-17.871-14.54-32.411-32.411-32.411s-32.412 14.54-32.412 32.411z" class="cls-1" style="fill:#1a5fac;fill-opacity:1;stroke-width:.13229166;stroke:#1a5fac;stroke-opacity:1" transform="translate(0 -229.267)"/></g><path d="M47.137 34.223 33.33 52.263l.016-15.273 5.194-2.767z" style="fill:none;fill-opacity:1;stroke:#fff;stroke-width:.57201242;stroke-linecap:round;stroke-linejoin:round;stroke-miterlimit:4;stroke-dasharray:none;stroke-opacity:1" transform="matrix(1.04616 0 0 1.04616 -1.02 -2.353)"/><path d="m19.553 34.223 13.792-25.05v22.282l-5.194 2.768zM47.137 34.223 33.345 9.173v22.282l5.194 2.768z" style="fill:none;fill-opacity:1;stroke:#fff;stroke-width:.57201248;stroke-linecap:round;stroke-linejoin:round;stroke-miterlimit:4;stroke-dasharray:none;stroke-opacity:1" transform="matrix(1.04616 0 0 1.04616 -1.02 -2.353)"/><path d="m19.607 34.27 13.722 17.993.016-15.273-5.194-2.767Z" style="fill:none;fill-opacity:1;stroke:#fff;stroke-width:.57201236;stroke-linecap:round;stroke-linejoin:round;stroke-miterlimit:4;stroke-dasharray:none;stroke-opacity:1" transform="matrix(1.04616 0 0 1.04616 -1.02 -2.353)"/><path d="m9.074 42.793-.043-4.401s.474-.518.575-.547 6.588-.029 6.588-.029l.043.087.13-.115 4.2.115s.244-.072.604.287c0 0 .244-.33 1.481-.33s10.27.043 10.27.043l.072-.115 2.79.043.173-.245 4.992.202.23.302.302-.23 4.142.187s.274-.274 1.31-.245c1.035.029 9.277.187 10.73-.029 0 0-.633.446-.59 2.259s.331 10.744.331 10.744l-.633.648-7.45.144.071-.187-.36.158-3.854-.144-.331.33-8.444-.402-.13.273-11.233-.244-.201.158-5.286-.115s-.526.115-1.23.1c-.705-.014-2.82-.043-2.82-.043s-.532-.057-.69-.273l-.288.302-4.775-.043s.82-.82.776-2.042l-.057-7.494s-.766.085-1.283.79" style="fill:#ecf3fc;fill-opacity:1;stroke:none;stroke-width:.09764192;stroke-linecap:square;stroke-linejoin:miter;stroke-miterlimit:4;stroke-dasharray:none;stroke-opacity:1" transform="matrix(1.04616 0 0 1.04616 -1.02 -2.353)"/><path d="m10.196 38.701 5.43-.05s-.54.093-.41 2.366c0 0-.374-.374-1.165-.31l.028 8.574s.007.697.295.92l-2.913-.007s.23-.209.216-1.287c-.014-1.08-.029-8.235-.029-8.235s-.783-.08-1.43.446z" style="fill:#1a5fac;fill-opacity:1;stroke:#fff;stroke-width:.0325473;stroke-linecap:butt;stroke-linejoin:miter;stroke-miterlimit:4;stroke-dasharray:none;stroke-opacity:1" transform="matrix(1.04616 0 0 1.04616 -1.02 -2.353)"/><path d="m15.498 39.73-.244 9.621s-.081.916.814.916h3.783s.936-.122.956-1.16.285-9.845.285-9.845-.142-.712-.956-.712h-3.743s-.875.183-.895 1.18z" style="fill:#1a5fac;fill-opacity:1;stroke:#fdfdfd;stroke-width:.06509461;stroke-linecap:butt;stroke-linejoin:miter;stroke-miterlimit:4;stroke-dasharray:none;stroke-opacity:1" transform="matrix(1.04616 0 0 1.04616 -1.02 -2.353)"/><path d="M17.898 41.296h.651l-.122 6.245-.712-.02z" style="fill:#fff;fill-opacity:1;stroke:none;stroke-width:.06509461;stroke-linecap:butt;stroke-linejoin:miter;stroke-miterlimit:4;stroke-dasharray:none;stroke-opacity:1" transform="matrix(1.04616 0 0 1.04616 -1.02 -2.353)"/><path d="m21.194 43.615.183-4.496s.081-.57.956-.57h4.11l-.225 6.022-2.197-2.156-.04-1.16h-.672l-.02 1.18 3.051 3.01-.06 3.927s-.041.895-1.242.895h-4.15l-.04-.326s.305-.244.325-.55c.02-.304.082-5.146.082-5.146L23.35 46.3l-.02 1.22h.488l.04-1.322z" style="fill:#1a5fac;fill-opacity:1;stroke:#fefefe;stroke-width:.13018923;stroke-linecap:butt;stroke-linejoin:miter;stroke-miterlimit:4;stroke-dasharray:none;stroke-opacity:1" transform="matrix(1.04616 0 0 1.04616 -1.02 -2.353)"/><path d="M27.073 38.55h2.766s-.386.529-.407.976c-.02.448-.04 3.377-.04 3.377l.915-.02.081-3.743s-.142-.59-.223-.59h2.827s-.468.61-.447 1.668c.02 1.057-.204 9.235-.204 9.235s-.02.57.224.814H29.88s.407.203.407-4.577l-1.038.04-.162 3.682s-.02.509.223.855h-2.685s.305 0 .366-1.384.265-9.52.265-9.52.081-.427-.183-.813z" style="fill:#1a5fac;fill-opacity:1;stroke:#eee;stroke-width:.06509461;stroke-linecap:butt;stroke-linejoin:miter;stroke-miterlimit:4;stroke-dasharray:none;stroke-opacity:1" transform="matrix(1.04616 0 0 1.04616 -1.02 -2.353)"/><path d="M33.643 38.55h2.91s-.367.386-.469 2.258l-.468 8.665s-.081.346.244.794h-2.766s.25-.55.25-1.078c0-.53.543-9.582.543-9.582s.054-.59-.244-1.057z" style="fill:#1a5fac;fill-opacity:1;stroke:#fff;stroke-width:.16273654;stroke-linecap:butt;stroke-linejoin:miter;stroke-miterlimit:4;stroke-dasharray:none;stroke-opacity:1" transform="matrix(1.04616 0 0 1.04616 -1.02 -2.353)"/><path d="M36.959 38.55h3.499l.386 2.746.773-2.746h3.784s-.448-.02-.59 2.319-.55 8.706-.55 8.706-.08.529.265.936l-2.685-.244s.142.59.264-1.18.163-3.214.163-3.214l-1.2 4.394h-1.465l-.813-4.537-.249 3.947v.59h-1.948s-.346-.061-.285-.834.529-10.538.529-10.538z" style="fill:#1a5fac;fill-opacity:1;stroke:#fefefe;stroke-width:.06509461;stroke-linecap:butt;stroke-linejoin:miter;stroke-miterlimit:4;stroke-dasharray:none;stroke-opacity:1" transform="matrix(1.04616 0 0 1.04616 -1.02 -2.353)"/><path d="m45.323 39.73-.245 9.621s-.081.916.814.916h3.784s.935-.122.956-1.16.285-9.845.285-9.845-.143-.712-.956-.712h-3.743s-.875.183-.895 1.18z" style="fill:#1a5fac;fill-opacity:1;stroke:#fdfdfd;stroke-width:.06509461;stroke-linecap:butt;stroke-linejoin:miter;stroke-miterlimit:4;stroke-dasharray:none;stroke-opacity:1" transform="matrix(1.04616 0 0 1.04616 -1.02 -2.353)"/><path d="M47.679 41.294h.65l-.121 6.245-.712-.02z" style="fill:#fff;fill-opacity:1;stroke:none;stroke-width:.06509461;stroke-linecap:butt;stroke-linejoin:miter;stroke-miterlimit:4;stroke-dasharray:none;stroke-opacity:1" transform="matrix(1.04616 0 0 1.04616 -1.02 -2.353)"/><path d="M50.975 38.55h2.278l.793 2.624.02-1.892s-.101-.732-.203-.732h2.807s-.284.142-.244 1.363c.041 1.22.305 10.354.305 10.354H54.8l-1.302-3.113-.081 2.502s0 .122.305.61h-2.828s.366-.04.285-1.18c-.081-1.138-.163-5.227-.163-5.227l.163-4.8s-.081-.51-.203-.51z" style="fill:#1a5fac;fill-opacity:1;stroke:#f7f7f7;stroke-width:.16273654;stroke-linecap:butt;stroke-linejoin:miter;stroke-miterlimit:4;stroke-dasharray:none;stroke-opacity:1" transform="matrix(1.04616 0 0 1.04616 -1.02 -2.353)"/></svg>