<svg xmlns="http://www.w3.org/2000/svg" width="242.5" height="242.5"><path fill="#c44de5" d="M0 121.252C0 188.064 54.44 242.5 121.252 242.5S242.5 188.064 242.5 121.252 188.064 0 121.252 0 0 54.44 0 121.252"/><g data-name="Layer 2"><g data-name="Layer 1"><path fill="#fff" stroke="#c44de5" stroke-width="1.85" d="M174.477 141.302s7.936 49.056-50.86 55.91l-9.018-10.821v-45.089h13.708v23.085s15.51-21.636 46.17-23.085z" data-name="Path 473139"/><g data-name="Group 9315" opacity=".2"><path fill="#fff" stroke="#c44de5" stroke-width="1.85" d="M174.477 141.302s7.936 49.056-50.86 55.91l-9.018-10.821v-45.089h13.708v23.085s15.51-21.636 46.17-23.085z" data-name="Path 473140"/></g><path fill="#fff" stroke="#c44de5" stroke-width="1.85" d="M123.617 197.214s2.525-52.3-55.91-57.713c.001 0-3.605 52.3 55.91 57.713z" data-name="Path 473141"/><path fill="#fff" stroke="#c44de5" stroke-width="1.85" d="M127.299 143.104c12.887-13.923 39-54.57 2.039-94.883a9.083 9.083 0 0 0-13.1-.288c-13.71 13.668-39.357 52.282-.371 95.111a7.76 7.76 0 0 0 11.428.06z" data-name="Path 473143"/><path fill="#fff" stroke="#c44de5" stroke-width="1.85" d="M129.567 143.031c6.534-17.808 15-65.377-34.627-88.36a9.083 9.083 0 0 0-12.2 4.773c-7.395 17.888-16.209 63.4 36.256 87.928a7.76 7.76 0 0 0 10.569-4.341z" data-name="Path 473144"/><path fill="#fff" stroke="#c44de5" stroke-width="1.85" d="M115.598 143.207c-6.534-17.809-15-65.377 34.627-88.36a9.083 9.083 0 0 1 12.2 4.773c7.395 17.888 16.21 63.4-36.256 87.928a7.76 7.76 0 0 1-10.569-4.341z" data-name="Path 473145"/></g></g></svg>