<svg xmlns="http://www.w3.org/2000/svg" xml:space="preserve" id="TrueUSD" x="0" y="0" version="1.1" viewBox="0 0 245 245"><style>.st1{fill:#fff}</style><path id="Main" d="M0 122.5C0 190 55 245 122.5 245S245 190 245 122.5 190 0 122.5 0 0 55 0 122.5" style="fill:#56cabd"/><g id="TrueUSD-2"><path id="T" d="M82.5 104.5h29V170s19-6.3 19-21.5v-44h6.5c17.2 0 22.5-17.5 22.5-17.5H109c-22.7 0-26.5 17.5-26.5 17.5" class="st1"/><path id="Bottom" d="M163.9 72c35.7 32.8 26.6 76.7.5 100-28.2 25-85 32.4-120.4-11 15.2 37.5 85 73.4 137.9 23.5 39-36.5 22.3-94.7-18-112.5" class="st1"/><path id="Top" d="M81 173c-35.7-32.8-26.6-76.6-.5-100 28.2-25 85.1-32.4 120.5 11-15.2-37.5-85.1-73.4-138-23.5C24 97 40.7 155.2 81 173" class="st1"/></g></svg>