<svg xmlns="http://www.w3.org/2000/svg" id="svg8" width="256" height="256" version="1.1" viewBox="0 0 67.733 67.733"><defs id="defs2"><style id="style868">.cls-1{fill:#ff4a4a}</style></defs><g id="layer1" transform="translate(0 -229.267)"><circle id="path815" cx="33.867" cy="263.133" r="32.411" style="opacity:1;fill:#ff4a4a;fill-opacity:1;fill-rule:nonzero;stroke:none;stroke-width:.72985065;stroke-linecap:round;stroke-linejoin:round;stroke-miterlimit:4;stroke-dasharray:none;stroke-dashoffset:0;stroke-opacity:1;paint-order:stroke fill markers"/><g id="g886" style="fill:#fff;fill-opacity:1" transform="matrix(.37073 0 0 .37073 8.471 256.772)"><path id="Fill_1" d="M40.635 34.02h-5.794a1.97 1.97 0 0 1-1.971-1.965V16.786L22.7 23.145a2.63 2.63 0 0 1-2.792 0l-10.172-6.36v15.27a1.97 1.97 0 0 1-1.971 1.965H1.971A1.97 1.97 0 0 1 0 32.055V2.625A2.628 2.628 0 0 1 4.112.464L20.19 11.445a1.97 1.97 0 0 0 2.228 0L38.493.464a2.627 2.627 0 0 1 4.113 2.16v29.431a1.97 1.97 0 0 1-1.971 1.965" class="cls-1" data-name="Fill 1" style="fill:#fff;fill-opacity:1" transform="translate(47.24 .296)"/><path id="Fill_4" d="M38.511 34.054H2.615A2.61 2.61 0 0 1 0 31.444V1.957A1.96 1.96 0 0 1 1.961 0h5.767a1.96 1.96 0 0 1 1.961 1.957v22.43h21.748V1.957A1.96 1.96 0 0 1 33.4 0h5.767a1.96 1.96 0 0 1 1.961 1.957v29.488a2.61 2.61 0 0 1-2.615 2.609" class="cls-1" data-name="Fill 4" style="fill:#fff;fill-opacity:1"/><path id="Fill_6" d="M2.615 0h35.9a2.61 2.61 0 0 1 2.615 2.609V32.1a1.96 1.96 0 0 1-1.961 1.957H33.4a1.96 1.96 0 0 1-1.963-1.957V10.971a1.306 1.306 0 0 0-1.308-1.3H11a1.306 1.306 0 0 0-1.308 1.3V32.1a1.96 1.96 0 0 1-1.961 1.957h-5.77A1.96 1.96 0 0 1 0 32.1V2.609A2.61 2.61 0 0 1 2.615 0" class="cls-1" data-name="Fill 6" style="fill:#fff;fill-opacity:1" transform="translate(95.874)"/><path id="Fill_8" d="M0 1.943v5.806a1.953 1.953 0 0 0 1.963 1.943h5.766a1.953 1.953 0 0 0 1.963-1.943V1.943A1.953 1.953 0 0 0 7.729 0H1.963A1.953 1.953 0 0 0 0 1.943" class="cls-1" data-name="Fill 8" style="fill:#fff;fill-opacity:1" transform="translate(111.591 15.979)"/></g></g></svg>