<svg xmlns="http://www.w3.org/2000/svg" width="256" height="256" viewBox="0 0 67.733 67.733"><path d="M1.455 263.133c0 17.872 14.54 32.412 32.412 32.412 17.871 0 32.411-14.54 32.411-32.412 0-17.871-14.54-32.411-32.411-32.411s-32.412 14.54-32.412 32.411" class="cls-1" style="fill:#ff007a;fill-opacity:1;stroke-width:.13229166" transform="translate(0 -229.267)"/><g style="fill:#fff;fill-opacity:1"><path d="M91.902 48.666c-2.307-.358-2.404-.4-1.318-.567 2.08-.32 6.994.116 10.38.922 7.905 1.878 15.098 6.692 22.775 15.24l2.04 2.271 2.918-.469c12.293-1.975 24.799-.405 35.259 4.427 2.877 1.33 7.414 3.976 7.981 4.656.181.216.512 1.611.737 3.1.777 5.15.388 9.097-1.187 12.046-.857 1.604-.905 2.113-.329 3.486.46 1.096 1.743 1.907 3.013 1.905 2.599-.004 5.397-4.206 6.693-10.052l.515-2.323 1.02 1.156c5.595 6.34 9.99 14.985 10.745 21.138l.197 1.605-.941-1.459c-1.618-2.51-3.245-4.218-5.327-5.596-3.754-2.484-7.724-3.33-18.237-3.884-9.494-.5-14.868-1.311-20.196-3.049-9.065-2.955-13.635-6.892-24.404-21.02-4.783-6.276-7.74-9.748-10.68-12.544-6.683-6.353-13.249-9.685-21.654-10.989" style="fill:#fff;fill-opacity:1" transform="matrix(.2024 0 0 .2024 12.152 13.158)"/><path d="M174.079 62.678c.238-4.205.809-6.98 1.955-9.512.454-1.003.879-1.823.945-1.823s-.132.74-.439 1.644c-.833 2.458-.97 5.82-.396 9.733.729 4.963 1.144 5.68 6.39 11.041 2.46 2.515 5.323 5.687 6.36 7.049l1.887 2.476-1.887-1.77c-2.307-2.164-7.613-6.384-8.785-6.987-.786-.405-.903-.398-1.387.085-.447.444-.541 1.112-.603 4.27-.097 4.923-.768 8.082-2.387 11.241-.876 1.709-1.014 1.344-.221-.585.592-1.44.652-2.073.647-6.838-.009-9.573-1.145-11.875-7.811-15.818-1.689-.999-4.471-2.44-6.183-3.201s-3.072-1.426-3.022-1.476c.189-.187 6.689 1.71 9.306 2.716 3.891 1.497 4.534 1.691 5.007 1.51.316-.12.47-1.043.624-3.755M96.385 79.056c-4.685-6.45-7.583-16.337-6.956-23.728l.194-2.288 1.067.195c2.002.365 5.455 1.65 7.071 2.632 4.437 2.694 6.357 6.242 8.311 15.35.572 2.669 1.323 5.688 1.669 6.71.556 1.645 2.658 5.488 4.367 7.984 1.231 1.798.413 2.65-2.308 2.404-4.155-.375-9.784-4.26-13.415-9.259M168.397 127.053c-21.891-8.814-29.601-16.465-29.601-29.374 0-1.9.065-3.454.145-3.454s.926.627 1.882 1.394c4.439 3.56 9.41 5.081 23.171 7.088 8.098 1.182 12.655 2.136 16.859 3.53 13.361 4.431 21.628 13.424 23.599 25.672.573 3.559.237 10.234-.692 13.751-.733 2.779-2.97 7.786-3.564 7.978-.164.054-.326-.577-.368-1.435-.225-4.599-2.549-9.077-6.452-12.431-4.438-3.813-10.401-6.849-24.979-12.719M153.029 130.715c-.275-1.633-.75-3.717-1.058-4.632l-.558-1.665 1.037 1.165c1.436 1.611 2.571 3.674 3.532 6.42.734 2.096.817 2.72.811 6.126-.005 3.344-.097 4.045-.775 5.932-1.068 2.976-2.395 5.085-4.62 7.35-3.999 4.07-9.14 6.323-16.559 7.258-1.29.162-5.048.435-8.353.607-8.327.433-13.808 1.328-18.733 3.057-.708.249-1.341.4-1.405.336-.199-.198 3.154-2.197 5.924-3.531 3.905-1.881 7.792-2.908 16.503-4.358 4.302-.717 8.746-1.586 9.874-1.932 10.655-3.267 16.132-11.698 14.38-22.133" style="fill:#fff;fill-opacity:1" transform="matrix(.2024 0 0 .2024 12.152 13.158)"/><path d="M163.064 148.537c-2.909-6.253-3.577-12.29-1.983-17.92.17-.601.444-1.094.609-1.094s.851.372 1.525.825c1.34.902 4.029 2.422 11.19 6.326 8.937 4.873 14.032 8.645 17.497 12.956 3.034 3.775 4.912 8.074 5.816 13.317.512 2.97.212 10.115-.55 13.106-2.403 9.429-7.987 16.835-15.952 21.157-1.167.633-2.215 1.153-2.328 1.155s.312-1.079.945-2.402c2.679-5.601 2.984-11.05.959-17.114-1.241-3.713-3.77-8.244-8.876-15.901-5.936-8.903-7.392-11.272-8.852-14.411M80.838 182.272c8.124-6.859 18.232-11.732 27.439-13.228 3.968-.645 10.578-.389 14.253.552 5.889 1.507 11.158 4.883 13.898 8.905 2.678 3.932 3.827 7.357 5.023 14.979.472 3.007.985 6.026 1.14 6.71.899 3.95 2.647 7.108 4.813 8.693 3.44 2.519 9.365 2.675 15.192.402.99-.386 1.848-.653 1.909-.593.211.21-2.724 2.175-4.794 3.209-2.786 1.391-5.001 1.929-7.944 1.929-5.338 0-9.769-2.715-13.467-8.251-.728-1.09-2.363-4.354-3.635-7.253-3.904-8.905-5.832-11.617-10.365-14.586-3.945-2.583-9.032-3.046-12.86-1.169-5.027 2.465-6.43 8.889-2.829 12.961 1.431 1.618 4.1 3.014 6.282 3.285 4.083.508 7.591-2.598 7.591-6.72 0-2.676-1.028-4.203-3.618-5.372-3.537-1.596-7.339.27-7.321 3.592.008 1.417.625 2.307 2.046 2.95.911.412.932.444.189.29-3.245-.673-4.006-4.585-1.396-7.183 3.132-3.118 9.61-1.742 11.835 2.514.935 1.788 1.043 5.348.228 7.498-1.823 4.812-7.14 7.342-12.534 5.966-3.673-.938-5.168-1.953-9.596-6.514-7.693-7.925-10.68-9.461-21.772-11.192l-2.125-.332z" style="fill:#fff;fill-opacity:1" transform="matrix(.2024 0 0 .2024 12.152 13.158)"/><path d="M22.823 4.74c25.693 31.185 65.305 79.737 67.272 82.455 1.623 2.244 1.012 4.262-1.77 5.844-1.546.879-4.726 1.77-6.319 1.77-1.8 0-3.83-.868-5.307-2.269-1.044-.99-5.26-7.284-14.99-22.382-7.444-11.552-13.675-21.135-13.845-21.295-.392-.371-.386-.358 13.087 23.747 8.46 15.137 11.315 20.488 11.315 21.204 0 1.456-.397 2.22-2.193 4.224-2.993 3.339-4.332 7.092-5.298 14.857-1.083 8.706-4.128 14.855-12.567 25.38-4.94 6.161-5.748 7.29-6.994 9.773-1.57 3.127-2.002 4.879-2.177 8.827-.185 4.175.175 6.872 1.45 10.864 1.117 3.494 2.283 5.802 5.263 10.417 2.571 3.983 4.052 6.943 4.052 8.1 0 .922.176.923 4.16.023 9.536-2.153 17.28-5.941 21.635-10.582 2.695-2.873 3.328-4.459 3.348-8.396.014-2.575-.077-3.114-.773-4.595-1.133-2.411-3.196-4.416-7.742-7.524-5.957-4.072-8.501-7.351-9.204-11.859-.577-3.699.092-6.309 3.387-13.216 3.411-7.149 4.257-10.196 4.828-17.402.37-4.655.881-6.491 2.219-7.965 1.395-1.537 2.65-2.057 6.103-2.529 5.629-.769 9.213-2.225 12.16-4.94 2.555-2.355 3.624-4.624 3.788-8.04l.125-2.59-1.428-1.665C91.236 78.946 19.359 0 19.04 0c-.068 0 1.634 2.133 3.782 4.74M56.705 161.6c1.17-2.071.548-4.733-1.408-6.034-1.848-1.229-4.72-.65-4.72.952 0 .488.271.844.88 1.157 1.026.528 1.1 1.121.293 2.334-.817 1.228-.751 2.308.186 3.042 1.51 1.183 3.65.532 4.769-1.451M101.388 103.569c-2.642.812-5.211 3.612-6.006 6.549-.485 1.791-.21 4.934.517 5.904 1.173 1.568 2.309 1.981 5.382 1.959 6.018-.042 11.249-2.623 11.857-5.849.499-2.645-1.799-6.31-4.964-7.919-1.633-.83-5.106-1.16-6.786-.644m7.035 5.501c.927-1.319.522-2.744-1.057-3.708-3.005-1.835-7.55-.316-7.55 2.523 0 1.414 2.37 2.956 4.542 2.956 1.446 0 3.425-.863 4.065-1.771" style="clip-rule:evenodd;fill:#fff;fill-opacity:1;fill-rule:evenodd" transform="matrix(.2024 0 0 .2024 12.152 13.158)"/></g></svg>