<svg xmlns="http://www.w3.org/2000/svg" viewBox="0 0 28.15 28.15"><defs><linearGradient id="a" x1="1085.26" x2="1085.26" y1="108.27" y2="107.27" gradientTransform="matrix(28.15 0 0 -28.15 -30531.59 3047.23)" gradientUnits="userSpaceOnUse"><stop offset="0" stop-color="#5c90e8"/><stop offset="1" stop-color="#2e4874"/></linearGradient></defs><g data-name="Layer 2"><g data-name="Layer 1"><g data-name="Сгруппировать 185796"><path fill="url(#a)" d="M0 14.07A14.08 14.08 0 1 0 14.07 0 14.08 14.08 0 0 0 0 14.07"/><g fill="#fff"><path d="M12.88 7.93h-.11a3 3 0 0 1 .84.08 3.53 3.53 0 0 1 1.83 1.22l.16.19h.24a4.9 4.9 0 0 1 2.85.35 3.5 3.5 0 0 1 .64.38 1 1 0 0 1 .06.24 1.5 1.5 0 0 1-.1 1 .26.26 0 0 0 0 .28.28.28 0 0 0 .24.15c.22 0 .44-.34.55-.81v-.19l.08.09a3.6 3.6 0 0 1 .84 1.61v.14-.12a1.5 1.5 0 0 0-.42-.45 2.7 2.7 0 0 0-1.47-.32 6 6 0 0 1-1.63-.24c-.73-.25-1.1-.56-2-1.7a7 7 0 0 0-.87-1 3 3 0 0 0-1.73-.9" data-name="Контур 13789"/><path d="M19.52 9.06a1.9 1.9 0 0 1 .16-.77.6.6 0 0 1 .08-.15s0 .06 0 .14a1.7 1.7 0 0 0 0 .78c.06.4.09.45.51.89.2.2.43.46.52.57l.15.2-.15-.14A4.7 4.7 0 0 0 20 10h-.12c-.05 0 0 .09 0 .34a1.9 1.9 0 0 1-.2.91c-.07.14-.08.11 0 0a1.3 1.3 0 0 0 .05-.55c0-.78-.09-1-.63-1.28-.13-.08-.37-.2-.5-.26L18.31 9a4.3 4.3 0 0 1 .75.22c.31.13.36.13.4.13s.05-.07.06-.29" data-name="Контур 13790"/><path d="M13.24 10.39a3.22 3.22 0 0 1-.56-1.92v-.19h.09a2 2 0 0 1 .57.22c.36.21.52.5.67 1.23 0 .22.11.47.13.55a4 4 0 0 0 .36.64c.1.14 0 .21-.19.2a1.9 1.9 0 0 1-1.07-.73" data-name="Контур 13791"/><path d="M19.06 14.26c-1.76-.71-2.39-1.33-2.39-2.37v-.27a.6.6 0 0 1 .15.11 3.6 3.6 0 0 0 1.88.57 8 8 0 0 1 1.36.29A2.58 2.58 0 0 1 22 14.66a3.5 3.5 0 0 1 0 1.12 2.6 2.6 0 0 1-.28.64s0-.05 0-.12a1.5 1.5 0 0 0-.52-1 7.1 7.1 0 0 0-2.14-1.04" data-name="Контур 13792"/><path d="M17.81 14.56a1.6 1.6 0 0 0-.08-.38l-.05-.13.08.1a1.7 1.7 0 0 1 .29.51 1.4 1.4 0 0 1 .06.5 1.4 1.4 0 0 1-.06.49 1.65 1.65 0 0 1-.38.6 2.13 2.13 0 0 1-1.33.58l-.68.06a5.2 5.2 0 0 0-1.52.25h-.11a2 2 0 0 1 .48-.28 5.1 5.1 0 0 1 1.34-.36 5.5 5.5 0 0 0 .79-.16 1.52 1.52 0 0 0 1.17-1.78" data-name="Контур 13793"/><path d="M18.62 16a2.1 2.1 0 0 1-.16-1.44c0-.05 0-.09.06-.09a.3.3 0 0 1 .12.06c.11.07.33.2.9.51a4.4 4.4 0 0 1 1.42 1 2.15 2.15 0 0 1 .47 1.08 3.4 3.4 0 0 1 0 1.06 2.64 2.64 0 0 1-1.29 1.71l-.19.09a.7.7 0 0 1 .08-.2 1.8 1.8 0 0 0 .08-1.38 5.8 5.8 0 0 0-.71-1.29 8.7 8.7 0 0 1-.78-1.11" data-name="Контур 13794"/><path d="M12 18.72a4.75 4.75 0 0 1 2.22-1.07 3.1 3.1 0 0 1 1.14 0 2 2 0 0 1 1.13.72 2.8 2.8 0 0 1 .41 1.21c0 .25.08.5.09.55a1.15 1.15 0 0 0 .39.7 1.34 1.34 0 0 0 1.23 0h.15a1.3 1.3 0 0 1-.39.26 1.26 1.26 0 0 1-.64.15 1.3 1.3 0 0 1-1.08-.67 7 7 0 0 1-.3-.59 2.1 2.1 0 0 0-.83-1.17 1.09 1.09 0 0 0-1-.1.67.67 0 0 0-.32.89.6.6 0 0 0 .09.15.93.93 0 0 0 .51.26.53.53 0 0 0 .61-.46.2.2 0 0 0 0-.08.41.41 0 0 0-.29-.43c-.28-.13-.6 0-.59.29a.25.25 0 0 0 .17.24q.105 0 0 0a.33.33 0 0 1-.23-.41.34.34 0 0 1 .11-.17.64.64 0 0 1 .9.12l.06.08a.88.88 0 0 1 0 .6.84.84 0 0 1-1 .49 1.5 1.5 0 0 1-.78-.53 2.35 2.35 0 0 0-1.75-.9h-.17Z" data-name="Контур 13795"/><path fill-rule="evenodd" d="M7.3 4.38c2.08 2.52 5.28 6.44 5.44 6.62s.08.34-.15.47a1.25 1.25 0 0 1-.5.14.6.6 0 0 1-.43-.18c-.08-.08-.43-.59-1.21-1.81-.6-.9-1.1-1.62-1.12-1.68a15 15 0 0 0 1.05 1.92 14 14 0 0 1 .91 1.71c0 .12 0 .18-.17.34a1.94 1.94 0 0 0-.43 1.2 3.74 3.74 0 0 1-1 2.05 3.7 3.7 0 0 0-.56.79 1.5 1.5 0 0 0-.18.71 2.2 2.2 0 0 0 .12.88 3 3 0 0 0 .43.84 2.2 2.2 0 0 1 .33.64c0 .08 0 .08.34 0a3.5 3.5 0 0 0 1.74-.85.82.82 0 0 0 .27-.68.8.8 0 0 0-.06-.37 1.6 1.6 0 0 0-.63-.61 1.42 1.42 0 0 1-.74-1 1.75 1.75 0 0 1 .25-1.02 3.14 3.14 0 0 0 .4-1.4c0-.38.07-.53.18-.64a.62.62 0 0 1 .49-.2 1.74 1.74 0 0 0 1-.4.87.87 0 0 0 .3-.65V11l-.12-.14C12.83 10.38 7 4 7 4s.13.17.3.38M10 17.05a.38.38 0 0 0-.12-.49c-.15-.1-.38 0-.38.08a.1.1 0 0 0 .07.09c.08 0 .09.09 0 .19s-.07.18 0 .24a.25.25 0 0 0 .43-.06Z" data-name="Контур 13796"/><path fill-rule="evenodd" d="M13.65 12.36a.82.82 0 0 0-.48.53.8.8 0 0 0 0 .48c.1.13.19.16.44.16.49 0 .91-.21.95-.47a.67.67 0 0 0-.4-.64.86.86 0 0 0-.51-.06m.57.45a.2.2 0 0 0-.05-.28c-.24-.15-.61 0-.61.2s.19.24.37.24a.47.47 0 0 0 .33-.14Z" data-name="Контур 13797"/></g></g></g></g></svg>