<svg xmlns="http://www.w3.org/2000/svg" xml:space="preserve" viewBox="0 0 256 256"><path d="M0 128c0 70.6 57.4 128 128 128s128-57.4 128-128S198.6 0 128 0 0 57.4 0 128" style="fill:#2775ca"/><path d="M124.9-4c-.8-.8-1.5-1.6-2.3-2.4s-1.6-1.5-2.4-2.3l-2.3 2.3-2.4 2.4-7.6 7.6-.3.3-4.4 4.4-7.8 7.7-4.7 4.7c.8.7 1.7 1.4 2.5 2.2s1.5 1.6 2.2 2.5c7.9 9 12.3 20.5 12.3 32.6 0 13.3-5.2 25.7-14.5 35.1-9.4 9.4-21.8 14.5-35.1 14.5-12.1 0-23.6-4.4-32.6-12.3l-1.3 1.3-3.4 3.4c10.3 9.2 23.4 14.2 37.3 14.2 15 0 29.2-5.9 39.8-16.5C108.5 87.2 114.4 73 114.4 58c0-13.9-5.1-27-14.3-37.3l7.7-7.7c11.2 12.4 17.4 28.2 17.4 45 0 17.9-7 34.8-19.7 47.4C92.8 118.1 76 125 58 125c-16.8 0-32.7-6.1-45.1-17.4l-4.7 4.7c13.6 12.5 31.2 19.3 49.8 19.3 19.7 0 38.2-7.7 52.2-21.6 13.9-13.9 21.6-32.4 21.6-52.1 0-18.6-6.8-36.1-19.3-49.7l7.6-7.6c30.6 33.1 29.9 84.9-2.3 117.1-16 16-37.2 24.7-59.8 24.7-21.5 0-41.7-8-57.4-22.5l-2.4 2.4-2.3 2.3C12.8 140.3 34.7 149 58 149c24.4 0 47.3-9.5 64.5-26.7 34.8-34.6 35.6-90.6 2.4-126.3" style="fill:#f2f2f2" transform="translate(70 70)"/><path d="m107.6 3.8.3-.3C94.2-8.9 76.7-15.7 58.1-15.7 38.4-15.7 19.9-8 5.9 5.9-8 19.8-15.7 38.3-15.7 58c0 18.6 6.8 36.1 19.3 49.7l-7.6 7.6c-30.6-33.1-29.8-84.9 2.3-117 16-16 37.2-24.7 59.8-24.7 21.5 0 41.7 8 57.4 22.5l-7.6 7.6 7.6-7.6 2.4-2.4 2.3-2.3C103.3-24.3 81.4-33 58.1-33 33.7-33 10.8-23.5-6.4-6.3-41.1 28.3-41.9 84.3-8.7 120c.8.8 1.5 1.6 2.3 2.4s1.6 1.5 2.4 2.3l2.3-2.3L.7 120l7.6-7.6 4.7-4.7 7.7-7.7 3.4-3.4 1.3-1.3c-.8-.7-1.7-1.4-2.5-2.2s-1.5-1.6-2.2-2.5C12.8 81.6 8.4 70.1 8.4 58c0-13.3 5.2-25.7 14.5-35.1C32.3 13.5 44.7 8.4 58 8.4c12.1 0 23.6 4.4 32.6 12.3l4.7-4.7C85.1 6.8 72 1.7 58.1 1.7c-15 0-29.2 5.9-39.8 16.5S1.8 43 1.8 58c0 13.9 5.1 27 14.3 37.3L8.4 103C-2.9 90.7-9 74.8-9 58c0-17.9 7-34.8 19.7-47.4C23.3-2.1 40.2-9.1 58.1-9.1c16.8 0 32.7 6.1 45.1 17.4L95.4 16l7.7-7.7z" style="fill:#fff" transform="translate(70 70)"/></svg>