<svg xmlns="http://www.w3.org/2000/svg" width="256" height="256" viewBox="0 0 67.733 67.733"><path d="M1.488 263.204c0 17.871 14.54 32.411 32.412 32.411s32.411-14.54 32.411-32.411-14.54-32.412-32.411-32.412-32.412 14.54-32.412 32.412" class="cls-1" style="fill:#b0170d;fill-opacity:1;stroke-width:.13229166" transform="translate(0 -229.267)"/><path d="M22.304 259.46H28.6v5.408h-6.296z" style="opacity:1;fill:#fff;fill-opacity:1;stroke:#fff;stroke-width:.02645833;stroke-linecap:butt;stroke-linejoin:miter;stroke-miterlimit:4;stroke-dasharray:none;stroke-opacity:1" transform="translate(0 -229.267)"/><g aria-label="J" style="font-style:normal;font-variant:normal;font-weight:400;font-stretch:normal;font-size:49.0278511px;line-height:1.25;font-family:HelveticaNeue;-inkscape-font-specification:&quot;HelveticaNeue, Normal&quot;;font-variant-ligatures:normal;font-variant-caps:normal;font-variant-numeric:normal;font-feature-settings:normal;text-align:center;letter-spacing:0;word-spacing:0;writing-mode:lr-tb;text-anchor:middle;opacity:1;fill:#fff;fill-opacity:1;stroke:#fff;stroke-width:.02645833;stroke-miterlimit:4;stroke-dasharray:none;stroke-opacity:1"><path d="M42.41 252.574v24.394q0 3.376-1.461 5.866-1.46 2.465-4.07 3.782-2.585 1.293-5.889 1.293-3.4 0-5.96-1.15-2.562-1.148-4.023-3.495-1.436-2.37-1.436-5.84h6.2q0 2.872 1.389 4.189 1.388 1.316 3.83 1.316 2.37 0 3.807-1.556 1.436-1.58 1.436-4.405v-24.394zm-6.177 0v-.774H28.92l13.488-6.085v6.86zm-16.662 24.85v-4.547h6.2v4.546z" style="font-style:normal;font-variant:normal;font-weight:500;font-stretch:normal;font-size:49.0278511px;font-family:Heebo;-inkscape-font-specification:&quot;Heebo, Medium&quot;;font-variant-ligatures:normal;font-variant-caps:normal;font-variant-numeric:normal;font-feature-settings:normal;text-align:center;writing-mode:lr-tb;text-anchor:middle;fill:#fff;fill-opacity:1;stroke:#fff;stroke-width:.02645833;stroke-miterlimit:4;stroke-dasharray:none;stroke-opacity:1" transform="matrix(1.01548 0 0 .98476 2.43 -228.804)"/></g></svg>