<svg xmlns="http://www.w3.org/2000/svg" xmlns:xlink="http://www.w3.org/1999/xlink" width="250" height="250"><defs><linearGradient xlink:href="#a" id="c" x1="17.336" x2="80" y1="74.339" y2="74.339"><stop offset="0" stop-color="#600000"/><stop offset=".327" stop-color="#630000"/><stop offset=".59" stop-color="#6d0000"/><stop offset=".83" stop-color="#7e0000"/><stop offset="1" stop-color="#8f0000"/></linearGradient><linearGradient xlink:href="#a" id="d" x1="48.668" x2="48.668" y1="68.69" y2="80"><stop offset=".35" stop-color="#bf1010"/><stop offset=".645" stop-color="#bd1010"/><stop offset=".752" stop-color="#b60f0f"/><stop offset=".828" stop-color="#ab0d0d"/><stop offset=".889" stop-color="#9a0a0a"/><stop offset=".941" stop-color="#840606"/><stop offset=".987" stop-color="#690202"/><stop offset="1" stop-color="#600000"/></linearGradient><linearGradient xlink:href="#a" id="e" x1="17.336" x2="80" y1="55.314" y2="55.314"><stop offset="0" stop-color="#bf1010"/><stop offset=".021" stop-color="#c11212"/><stop offset=".244" stop-color="#d22323"/><stop offset=".487" stop-color="#dc2d2d"/><stop offset=".791" stop-color="#df3030"/><stop offset=".841" stop-color="#dc2e2e"/><stop offset=".882" stop-color="#d22626"/><stop offset=".919" stop-color="#c11919"/><stop offset=".954" stop-color="#a90808"/><stop offset=".966" stop-color="#9f0000"/><stop offset="1" stop-color="#df3030"/></linearGradient><linearGradient xlink:href="#a" id="b" x1="17.336" x2="80" y1="48.905" y2="48.905"><stop offset="0" stop-color="#dfdfdf"/><stop offset=".021" stop-color="#e1e1e1"/><stop offset=".244" stop-color="#f2f2f2"/><stop offset=".487" stop-color="#fcfcfc"/><stop offset=".791" stop-color="#fff"/><stop offset=".841" stop-color="#fcfcfc"/><stop offset=".882" stop-color="#f2f2f2"/><stop offset=".919" stop-color="#e1e1e1"/><stop offset=".954" stop-color="#c9c9c9"/><stop offset=".966" stop-color="#bfbfbf"/><stop offset="1" stop-color="#fff"/></linearGradient><linearGradient xlink:href="#b" id="g" y1="64.973" y2="64.973"/><linearGradient xlink:href="#b" id="h" y1="71.401" y2="71.401"/><linearGradient xlink:href="#a" id="i" x1="17.336" x2="80" y1="47.875" y2="47.875"><stop offset="0" stop-color="#00209f"/><stop offset=".021" stop-color="#0222a1"/><stop offset=".244" stop-color="#1333b2"/><stop offset=".487" stop-color="#1d3dbc"/><stop offset=".791" stop-color="#2040bf"/><stop offset=".841" stop-color="#1e3dbc"/><stop offset=".882" stop-color="#1933b2"/><stop offset=".919" stop-color="#1122a1"/><stop offset=".954" stop-color="#050a89"/><stop offset=".966" stop-color="#00007f"/><stop offset="1" stop-color="#2040bf"/></linearGradient><linearGradient xlink:href="#b" id="j" x1="17.337" x2="79.997" y1="39.947" y2="39.947"/><linearGradient xlink:href="#b" id="k" x1="17.337" x2="79.994" y1="51.042" y2="51.042"/><linearGradient xlink:href="#b" id="l" x1="17.337" x2="79.994" y1="55.527" y2="55.527"/><linearGradient xlink:href="#b" id="m" x1="17.337" x2="79.997" y1="48.919" y2="48.919"/><linearGradient xlink:href="#b" id="n" x1="17.337" x2="79.997" y1="53.403" y2="53.403"/><linearGradient xlink:href="#b" id="o" x1="17.337" x2="79.997" y1="44.433" y2="44.433"/><linearGradient xlink:href="#b" id="p" x1="17.333" x2="80.009" y1="55.161" y2="55.161"/><linearGradient xlink:href="#b" id="q" x1="17.337" x2="79.994" y1="46.557" y2="46.557"/><linearGradient xlink:href="#b" id="r" x1="17.337" x2="79.994" y1="53.123" y2="53.123"/><linearGradient xlink:href="#b" id="s" x1="17.337" x2="79.994" y1="57.609" y2="57.609"/><linearGradient xlink:href="#b" id="t" x1="17.337" x2="79.994" y1="42.071" y2="42.071"/><linearGradient xlink:href="#b" id="u" x1="17.337" x2="79.996" y1="48.638" y2="48.638"/><linearGradient xlink:href="#b" id="v" x1="17.337" x2="79.997" y1="57.89" y2="57.89"/><linearGradient xlink:href="#b" id="w" x2="80.008" y1="49.054" y2="49.054"/><linearGradient xlink:href="#b" id="x" x2="80.008" y1="44.568" y2="44.568"/><linearGradient xlink:href="#b" id="y" x2="79.991" y1="58.025" y2="58.025"/><linearGradient xlink:href="#b" id="z" x1="17.337" x2="79.994" y1="44.153" y2="44.153"/><linearGradient xlink:href="#b" id="Y" x1="17.337" x2="79.994" y1="39.666" y2="39.666"/><linearGradient xlink:href="#b" id="Z" x2="79.991" y1="53.539" y2="53.539"/><linearGradient xlink:href="#b" id="aa" x2="79.993" y1="42.277" y2="42.277"/><linearGradient xlink:href="#b" id="ab" x2="79.993" y1="46.762" y2="46.762"/><linearGradient xlink:href="#b" id="ac" x2="79.993" y1="55.732" y2="55.732"/><linearGradient xlink:href="#b" id="ad" x2="79.993" y1="51.247" y2="51.247"/><linearGradient xlink:href="#b" id="ae" x2="80.006" y1="40.082" y2="40.082"/><linearGradient xlink:href="#b" id="af" x1="17.333" x2="80.009" y1="50.676" y2="50.676"/><linearGradient xlink:href="#b" id="ag" x1="17.339" x2="79.995" y1="49.546" y2="49.546"/><linearGradient xlink:href="#b" id="ah" x1="17.339" x2="79.995" y1="45.061" y2="45.061"/><linearGradient xlink:href="#b" id="ai" x1="17.339" x2="79.995" y1="54.032" y2="54.032"/><linearGradient xlink:href="#b" id="aj" x1="17.327" x2="80.015" y1="43.144" y2="43.144"/><linearGradient xlink:href="#b" id="ak" x1="17.34" x2="79.994" y1="40.576" y2="40.576"/><linearGradient xlink:href="#b" id="al" x1="17.327" x2="80.015" y1="38.659" y2="38.659"/><linearGradient xlink:href="#b" id="am" x1="17.338" x2="79.998" y1="46.953" y2="46.953"/><linearGradient xlink:href="#b" id="an" x1="17.338" x2="79.998" y1="42.468" y2="42.468"/><linearGradient xlink:href="#b" id="ao" x1="17.339" x2="79.997" y1="55.925" y2="55.925"/><linearGradient xlink:href="#b" id="ap" x1="17.338" x2="79.998" y1="37.981" y2="37.981"/><linearGradient xlink:href="#b" id="aq" x1="17.338" x2="79.998" y1="51.438" y2="51.438"/><linearGradient xlink:href="#b" id="ar" x1="17.327" x2="80.015" y1="47.63" y2="47.63"/><linearGradient xlink:href="#b" id="as" x1="17.333" x2="80.009" y1="41.705" y2="41.705"/><linearGradient xlink:href="#b" id="at" x1="17.338" x2="79.995" y1="52.676" y2="52.676"/><linearGradient xlink:href="#b" id="au" x1="17.327" x2="80.015" y1="52.115" y2="52.115"/><linearGradient xlink:href="#b" id="av" x1="17.338" x2="79.995" y1="43.706" y2="43.706"/><linearGradient xlink:href="#b" id="aw" x1="17.338" x2="79.995" y1="57.163" y2="57.163"/><linearGradient xlink:href="#b" id="ax" x1="17.333" x2="80.009" y1="46.19" y2="46.19"/><linearGradient xlink:href="#b" id="ay" x1="17.334" x2="80.006" y1="39.22" y2="39.22"/><linearGradient xlink:href="#b" id="az" x1="17.338" x2="79.995" y1="48.192" y2="48.192"/><linearGradient xlink:href="#b" id="aA" x1="17.327" x2="80.015" y1="56.601" y2="56.601"/><linearGradient xlink:href="#b" id="aB" x1="17.338" x2="79.996" y1="54.653" y2="54.653"/><linearGradient xlink:href="#b" id="aC" x1="17.338" x2="79.996" y1="41.198" y2="41.198"/><linearGradient xlink:href="#b" id="aD" x1="17.338" x2="79.996" y1="50.168" y2="50.168"/><linearGradient xlink:href="#b" id="aE" x1="17.338" x2="79.996" y1="45.682" y2="45.682"/><linearGradient xlink:href="#b" id="f"/><linearGradient id="a" gradientUnits="userSpaceOnUse"/></defs><circle cx="125" cy="125" r="125" fill="#cdcdcd" fill-rule="evenodd"/><path fill="#0e3ca5" d="M105.685 164.865c4.822 17.888 22.122 31.534 30.859 30.968.306-.019 33.137-6.157 51.11-36.26 13.983-23.432 9.226-46.053-9.798-46.546-6.842.5-81.354 17.765-72.166 51.842m70.392-114.89-.02-.017.027-.017a83.482 83.709 0 0 0-87.996-12.73 49.222 49.355 0 0 0-5.303 2.597c-1.172.626-2.344 1.247-3.482 1.934l.278.087a38.033 38.136 0 0 0-8.812 8.361c-23.945 31.738 56.37 54.817 99.317 54.884 19.747 14.22 25.292-40.034 5.99-55.099"/><path fill="#5493f7" d="M92.944 50.62C81.91 67.25 45.156 78.968 39.112 77.143l-.04-.077c.24-.5.498-1 .754-1.496a88.434 88.674 0 0 1 26.206-30.66q3.392-2.495 7.025-4.663a25.998 26.069 0 0 1 12.148-3.244c16.367.314 7.821 13.489 7.734 13.622m-9.05 117.51c.793 5.224-.02 25.866-1.085 27.602-.919.055-2.83.174-8.368-2.942A88.094 88.333 0 0 1 34.491 88.229q.441-1.33.923-2.642c6.343 8.46 13.684 16.114 19.923 24.657 5.943 8.135 14.118 21.396 15.782 24.232 10.328 17.591 11.974 28.445 12.763 33.662m122.104-52.022a87.798 88.036 0 0 1-6.124 32.407c-10.366 11.168-80.242-16.324-80.927-16.626-9.559-4.2-38.648-16.975-41.273-37.04-3.764-28.887 54.651-49.009 80.326-49.77 3.079.036 12.448.145 17.91 4.593a87.786 88.024 0 0 1 30.088 66.436m-47.303 78.255c-7.616 3.566-16.003.967-13.824-6.469 4.183-14.284 40.71-28.929 48.776-29.734.996-.099 1.418.58.976 1.357a88.856 89.097 0 0 1-35.921 34.834"/><path fill="url(#c)" d="M17.336 77.255a2.55 2.55 0 0 0 2.329 2.713c30.7.21 60.335-1.2 60.335-5.8 0-13.924-62.664 3.087-62.664 3.087" transform="matrix(2.41084 0 0 2.41737 27.128 21.612)"/><path fill="url(#d)" d="M17.336 77.255a2.55 2.55 0 0 0 2.34 2.713c30.692.233 60.287-.731 60.324-5.8 0-13.924-62.664 3.087-62.664 3.087m2.341 2.536a2 2 0 0 1-.245-.014 2.4 2.4 0 0 1-1.987-1.762 2.37 2.37 0 0 0 2.229 1.761c30.671-.192 59.845-9.636 59.845-5.478 0 4.244-29.172 5.702-59.842 5.493" transform="matrix(2.41084 0 0 2.41737 27.128 21.612)"/><path fill="url(#e)" d="M19.679 37.822a2.343 2.343 0 0 0-2.343 2.344v37.089a2.34 2.34 0 0 0 2.329 2.345C50.363 79.37 80.037 69.209 80 74.17V32.393c.037-4.96-29.627 5.2-60.321 5.429" transform="matrix(2.41084 0 0 2.41737 27.128 21.612)"/><path fill="url(#f)" d="m24.205 63.421 3.216-.148 3.095-.2 2.986-.249 2.9-.275 2.825-.3a292 292 0 0 0 5.492-.677l2.7-.375 2.682-.409 2.7-.42 2.718-.44 2.751-.472 2.815-.484 2.884-.5 2.967-.516 3.073-.494 3.3-.464a24.4 24.4 0 0 1 4.28-.228c1.345.091 2.41.433 2.41 1.371v-3.216c0-.926-1.021-1.258-2.274-1.361a21.6 21.6 0 0 0-4 .168l-3.089.419-2.759.432-2.672.453-2.644.465-2.68.464-2.767.476-2.9.488-3.127.492-3.381.519v-3.214l3.381-.519 3.127-.492 2.9-.489 2.768-.475 2.679-.464 2.644-.465 2.672-.453 2.759-.432 3.089-.419a22 22 0 0 1 4-.169c1.254.1 2.275.436 2.275 1.361V48.5c0-.924-1.021-1.258-2.274-1.362a22 22 0 0 0-4 .169l-3.089.419-2.759.432-2.672.453-2.644.466-2.68.464-2.767.475-2.9.487-3.127.493-3.38.518v-3.213l3.381-.519 3.127-.492 2.9-.488 2.768-.475 2.679-.464 2.644-.465a218 218 0 0 1 5.431-.885l3.089-.42a22 22 0 0 1 4-.168c1.253.1 2.274.437 2.274 1.362V42.07c0-.925-1.021-1.256-2.274-1.36a22 22 0 0 0-4 .168l-3.089.419-2.759.432-2.672.452-2.644.467-2.68.463-2.767.475-2.9.487-3.129.494-3.38.519v-3.214l3.379-.52 3.13-.493 2.9-.487 2.768-.475 2.679-.464 2.644-.465 2.672-.454 2.758-.431 3.09-.419a22 22 0 0 1 4-.169c1.254.1 2.275.437 2.275 1.361v-3.213c0-.925-1.021-1.258-2.274-1.362a22 22 0 0 0-4 .169l-3.089.419-2.759.432-2.672.453-2.644.466-2.679.462-2.768.477a300 300 0 0 1-6.03.979l-3.38.52v-3.259a204 204 0 0 1-28.029 2.423 2.343 2.343 0 0 0-2.343 2.344v23.4l3.512-.04z" transform="matrix(2.41084 0 0 2.41737 27.128 21.612)"/><path fill="url(#g)" d="m24.2 69.849 3.217-.148 3.1-.2 2.985-.248 2.9-.276 2.825-.3a318 318 0 0 0 5.49-.676l2.7-.376 2.683-.41 2.7-.418 2.72-.441 2.752-.472 2.814-.484 2.884-.5 2.968-.516 3.073-.494 3.3-.464a24 24 0 0 1 4.28-.229c1.345.092 2.41.435 2.41 1.372v-3.217c0-.937-1.065-1.281-2.409-1.372a24.3 24.3 0 0 0-4.281.228l-3.3.465-3.073.493-2.967.516-2.885.5-2.814.484-2.751.472-2.72.44-2.7.421-2.683.408-2.7.376-2.728.349-2.762.327-2.825.3-2.9.275-2.986.249-3.1.2-3.217.148-3.357.1-3.51.042v3.213a203 203 0 0 0 6.867-.137" transform="matrix(2.41084 0 0 2.41737 27.128 21.612)"/><path fill="url(#h)" d="M77.59 66.407a24.4 24.4 0 0 0-4.28.228l-3.3.465-3.072.493-2.969.516-2.884.5-2.815.484-2.752.472-2.72.44-2.7.419-2.684.409-2.7.377a326 326 0 0 1-5.49.676l-2.825.3-2.9.276-2.986.248-3.1.2a194 194 0 0 1-10.084.29v3.22q1.8 0 3.51-.04t3.357-.1l3.217-.148 3.1-.2 2.986-.248 2.9-.275 2.825-.3 2.763-.328 2.726-.348 2.7-.376 2.684-.409 2.7-.42 2.72-.441 2.754-.472 2.814-.483 2.883-.5 2.97-.516 3.072-.494 3.3-.463a24.5 24.5 0 0 1 4.28-.228c1.345.089 2.41.432 2.41 1.37v-3.223c0-.938-1.065-1.278-2.41-1.371" transform="matrix(2.41084 0 0 2.41737 27.128 21.612)"/><path fill="url(#i)" d="m24 60.216 2.963-.132 2.82-.173 2.746-.215a295 295 0 0 0 5.564-.537l2.958-.337 3.184-.4 3.47-.482V35.4a204 204 0 0 1-28.024 2.422 2.343 2.343 0 0 0-2.343 2.344v20.185l3.477-.039z" transform="matrix(2.41084 0 0 2.41737 27.128 21.612)"/><path fill="url(#j)" d="m24.566 38.77-.285.9-.924.034.747.524-.286.9.748-.576.747.518-.286-.876.748-.583-.925.04z" transform="matrix(2.41084 0 0 2.41737 27.128 21.612)"/><path fill="url(#k)" d="m27.236 49.858-.285.905-.926.046.748.513-.286.9.749-.588.75.506-.287-.872.75-.595-.926.055z" transform="matrix(2.41084 0 0 2.41737 27.128 21.612)"/><path fill="url(#l)" d="m27.523 55.216-.287-.873-.285.906-.926.045.748.513-.286.9.749-.59.75.508-.287-.872.75-.595z" transform="matrix(2.41084 0 0 2.41737 27.128 21.612)"/><path fill="url(#m)" d="m24.565 47.74-.285.9-.924.034.746.522-.284.9.747-.579.748.52-.287-.878.749-.582-.925.04z" transform="matrix(2.41084 0 0 2.41737 27.128 21.612)"/><path fill="url(#n)" d="m24.564 52.225-.284.9-.925.034.747.522-.285.9.747-.581.749.519-.287-.877.749-.583-.925.04z" transform="matrix(2.41084 0 0 2.41737 27.128 21.612)"/><path fill="url(#o)" d="m24.566 43.255-.286.9-.924.034.747.523-.285.9.748-.578.747.519-.287-.877.749-.583-.925.041z" transform="matrix(2.41084 0 0 2.41737 27.128 21.612)"/><path fill="url(#p)" d="m32.582 53.965-.285.912-.927.077.749.489-.285.913.748-.612.748.483-.286-.864.748-.618-.925.083z" transform="matrix(2.41084 0 0 2.41737 27.128 21.612)"/><path fill="url(#q)" d="m27.236 45.373-.285.905-.926.046.748.512-.286.905.749-.589.75.506-.287-.873.75-.593-.926.054z" transform="matrix(2.41084 0 0 2.41737 27.128 21.612)"/><path fill="url(#r)" d="m29.911 51.933-.287.91-.924.057.75.5-.286.907.749-.6.749.494-.286-.868.748-.606-.925.07a63 63 0 0 1-.288-.864" transform="matrix(2.41084 0 0 2.41737 27.128 21.612)"/><path fill="url(#s)" d="m30.2 57.287-.286-.868-.287.909-.926.061.75.5-.286.91.749-.6.749.495-.286-.868.748-.606z" transform="matrix(2.41084 0 0 2.41737 27.128 21.612)"/><path fill="url(#t)" d="m27.236 40.888-.285.9-.926.047.748.513-.286.9.749-.589.75.507-.287-.873.75-.595-.926.055z" transform="matrix(2.41084 0 0 2.41737 27.128 21.612)"/><path fill="url(#u)" d="m29.909 47.449-.285.909-.925.06.749.5-.287.909.75-.6.749.494-.286-.869.748-.6-.925.07z" transform="matrix(2.41084 0 0 2.41737 27.128 21.612)"/><path fill="url(#v)" d="m24.85 57.589-.286-.878-.285.9-.924.035.747.522-.285.9.747-.579.749.52-.287-.877.749-.583z" transform="matrix(2.41084 0 0 2.41737 27.128 21.612)"/><path fill="url(#w)" d="m19.218 47.886-.287.893-.927.006.75.544-.287.893.75-.559.75.539-.285-.884.749-.563-.927.016z" transform="matrix(2.41084 0 0 2.41737 27.128 21.612)"/><path fill="url(#x)" d="m19.218 43.4-.287.892-.927.006.75.544-.286.893.75-.557.749.537-.285-.885.749-.562-.927.015z" transform="matrix(2.41084 0 0 2.41737 27.128 21.612)"/><path fill="url(#y)" d="m19.5 57.742-.287-.885-.287.891-.926.008.75.543-.286.894.749-.558.75.539-.286-.887.749-.562z" transform="matrix(2.41084 0 0 2.41737 27.128 21.612)"/><path fill="url(#z)" d="m29.161 45.342.748-.6.75.495-.285-.869.748-.607-.925.071-.287-.867-.286.907-.926.062.75.5z" transform="matrix(2.41084 0 0 2.41737 27.128 21.612)"/><path fill="url(#Y)" d="m29.161 40.856.749-.6.749.494-.285-.868.748-.606-.925.07-.287-.869-.286.909-.926.062.75.5z" transform="matrix(2.41084 0 0 2.41737 27.128 21.612)"/><path fill="url(#Z)" d="m19.218 52.371-.288.893h-.926l.75.547-.287.891.75-.558.75.538-.285-.885.748-.562-.926.015z" transform="matrix(2.41084 0 0 2.41737 27.128 21.612)"/><path fill="url(#aa)" d="m21.894 41.1-.286.895-.927.023.75.533-.286.9.749-.57.75.528-.287-.881.749-.574-.924.029z" transform="matrix(2.41084 0 0 2.41737 27.128 21.612)"/><path fill="url(#ab)" d="m21.894 45.588-.286.9-.927.022.75.531-.286.9.748-.569.751.526-.287-.88.749-.573-.926.029z" transform="matrix(2.41084 0 0 2.41737 27.128 21.612)"/><path fill="url(#ac)" d="m22.179 55.439-.286-.881-.286.9-.928.022.751.532-.287.9.749-.569.751.528-.287-.881.749-.574z" transform="matrix(2.41084 0 0 2.41737 27.128 21.612)"/><path fill="url(#ad)" d="m21.893 50.073-.286.9-.926.021.749.533-.286.9.749-.57.75.528-.287-.88.75-.575-.926.031z" transform="matrix(2.41084 0 0 2.41737 27.128 21.612)"/><path fill="url(#ae)" d="m19.218 38.914-.286.893-.928.008.75.543-.286.891.75-.555.75.536-.285-.884.75-.563-.929.017z" transform="matrix(2.41084 0 0 2.41737 27.128 21.612)"/><path fill="url(#af)" d="m32.582 49.481-.285.912-.926.076.748.488-.285.914.748-.613.748.483-.286-.863.748-.618-.925.083z" transform="matrix(2.41084 0 0 2.41737 27.128 21.612)"/><path fill="url(#ag)" d="m43.268 48.335-.287.925-.927.117.749.456-.287.925.751-.644.75.453-.287-.852.751-.648-.927.121z" transform="matrix(2.41084 0 0 2.41737 27.128 21.612)"/><path fill="url(#ah)" d="m43.268 43.85-.287.925-.927.115.75.458-.286.924.75-.644.75.453-.287-.851.751-.649-.927.121z" transform="matrix(2.41084 0 0 2.41737 27.128 21.612)"/><path fill="url(#ai)" d="m43.553 53.672-.286-.852-.287.926-.926.115.749.457-.287.925.75-.644.75.453-.286-.851.75-.649z" transform="matrix(2.41084 0 0 2.41737 27.128 21.612)"/><path fill="url(#aj)" d="m40.6 41.936-.284.924-.922.106.746.463-.284.923.744-.637.747.459-.286-.854.75-.641-.926.113a32 32 0 0 1-.285-.856" transform="matrix(2.41084 0 0 2.41737 27.128 21.612)"/><path fill="url(#ak)" d="m43.269 39.364-.288.925-.927.115.751.458-.287.926.75-.646.751.455-.287-.853.751-.649-.928.121z" transform="matrix(2.41084 0 0 2.41737 27.128 21.612)"/><path fill="url(#al)" d="m40.6 37.452-.284.923-.922.106.746.463-.284.922.744-.637.748.459-.286-.853.749-.641-.926.113a36 36 0 0 1-.285-.855" transform="matrix(2.41084 0 0 2.41737 27.128 21.612)"/><path fill="url(#am)" d="m45.944 45.738-.287.929-.925.124.749.449-.287.928.749-.652.748.445-.285-.849.746-.656-.922.131z" transform="matrix(2.41084 0 0 2.41737 27.128 21.612)"/><path fill="url(#an)" d="m45.946 41.253-.287.927-.926.126.748.447-.286.93.75-.654.747.447-.285-.851.746-.655-.922.131z" transform="matrix(2.41084 0 0 2.41737 27.128 21.612)"/><path fill="url(#ao)" d="m46.226 55.558-.285-.849-.287.928-.924.125.748.449-.287.93.75-.655.747.447-.286-.85.747-.656z" transform="matrix(2.41084 0 0 2.41737 27.128 21.612)"/><path fill="url(#ap)" d="m45.947 36.766-.287.929-.927.126.751.448-.288.927.751-.651.747.444-.285-.849.745-.656-.921.132z" transform="matrix(2.41084 0 0 2.41737 27.128 21.612)"/><path fill="url(#aq)" d="m45.943 50.224-.287.928-.925.124.748.45-.286.927.749-.651.747.444-.285-.849.746-.656-.923.131z" transform="matrix(2.41084 0 0 2.41737 27.128 21.612)"/><path fill="url(#ar)" d="m40.6 46.422-.284.923-.923.107.747.464-.284.922.744-.638.748.46-.286-.854.749-.641-.926.112z" transform="matrix(2.41084 0 0 2.41737 27.128 21.612)"/><path fill="url(#as)" d="m32.582 40.509-.285.912-.927.077.749.49-.285.913.748-.614.748.484-.286-.863.748-.619-.925.084z" transform="matrix(2.41084 0 0 2.41737 27.128 21.612)"/><path fill="url(#at)" d="m35.254 51.477-.286.917-.927.086.75.479-.287.917.75-.621.75.477-.287-.86.749-.624-.925.092z" transform="matrix(2.41084 0 0 2.41737 27.128 21.612)"/><path fill="url(#au)" d="m40.6 50.907-.284.923-.923.107.747.464-.285.921.745-.636.747.459-.285-.853.749-.642-.926.112a32 32 0 0 1-.285-.855" transform="matrix(2.41084 0 0 2.41737 27.128 21.612)"/><path fill="url(#av)" d="m35.254 42.507-.286.916-.927.087.75.479-.287.917.75-.621.75.477-.286-.862.749-.623-.926.091z" transform="matrix(2.41084 0 0 2.41737 27.128 21.612)"/><path fill="url(#aw)" d="m35.254 55.963-.286.916-.927.087.75.479-.287.918.75-.622.75.478-.287-.862.749-.623-.925.09z" transform="matrix(2.41084 0 0 2.41737 27.128 21.612)"/><path fill="url(#ax)" d="m32.582 45-.285.913-.926.076.748.489-.285.913.748-.613.748.483-.286-.863.748-.618-.925.084z" transform="matrix(2.41084 0 0 2.41737 27.128 21.612)"/><path fill="url(#ay)" d="m35.255 38.021-.287.917-.927.086.749.48-.286.915.751-.62.749.477-.286-.861.75-.624-.927.092z" transform="matrix(2.41084 0 0 2.41737 27.128 21.612)"/><path fill="url(#az)" d="m35.254 46.992-.286.916-.927.092.75.48-.286.917.749-.622.75.477-.286-.861.749-.624-.926.092z" transform="matrix(2.41084 0 0 2.41737 27.128 21.612)"/><path fill="url(#aA)" d="m40.88 56.249-.285-.856-.284.923-.923.106.746.464-.284.923.745-.639.748.461-.286-.854.749-.642z" transform="matrix(2.41084 0 0 2.41737 27.128 21.612)"/><path fill="url(#aB)" d="m38.214 54.308-.286-.859-.287.921-.925.1.749.473-.286.919.75-.629.748.47-.287-.858.749-.634z" transform="matrix(2.41084 0 0 2.41737 27.128 21.612)"/><path fill="url(#aC)" d="m37.929 39.994-.286.919-.926.1.749.474-.286.919.75-.629.748.469-.287-.857.749-.633-.925.1z" transform="matrix(2.41084 0 0 2.41737 27.128 21.612)"/><path fill="url(#aD)" d="m37.928 48.965-.286.919-.926.1.75.472-.286.919.749-.627.749.467-.287-.856.749-.633-.925.1z" transform="matrix(2.41084 0 0 2.41737 27.128 21.612)"/><path fill="url(#aE)" d="m37.929 44.479-.287.92-.926.095.75.472-.286.919.749-.627.749.468-.287-.857.749-.633-.925.1z" transform="matrix(2.41084 0 0 2.41737 27.128 21.612)"/></svg>