<svg xmlns="http://www.w3.org/2000/svg" xml:space="preserve" viewBox="0 0 490 490"><path d="M0 245c0 135.1 109.9 245 245 245s245-109.9 245-245S380.1 0 245 0 0 109.9 0 245" style="fill:#12284b"/><path d="m173 200.2 12.1 42.8h43.6l-11.3-42.8zm30.4-52.4h-45.2l12.1 42.5h44.4zm82.5 0-41.4 155.4-13.4-50.3h-43.3l25.3 90.1h62.7l55.1-195.2zM245 66c-98.9 0-179 80.1-179 179s80.1 179 179 179 179-80.1 179-179S343.9 66 245 66m1.7 325.6c-80.8 0-146.3-65.5-146.3-146.3S165.9 99 246.7 99 393 164.5 393.1 245.3c0 80.8-65.5 146.3-146.4 146.3" style="fill:#fff"/></svg>