<svg xmlns="http://www.w3.org/2000/svg" xml:space="preserve" id="VEIL" x="0" y="0" version="1.1" viewBox="0 0 490 490"><style>.st6{fill:#ebebeb}</style><path id="Full" d="M0 245c0 135.1 109.9 245 245 245s245-109.9 245-245S380.1 0 245 0 0 109.9 0 245" style="fill:#0d124d"/><path id="VEIL_W10" d="M319.2 207.6c7.1-22.4 20.2-42.3 37.9-57.6 7.9-6.9 16.6-12.7 26-17.4.3-.1.5-.2.8-.3.4.5.6 1.2.4 1.9-1.1 10.9-3.4 21.6-7 32-.1.3-.2.6-.4.9-2.9 8.2-6.6 16.1-11 23.7-3.1 5.3-6.6 10.5-10.4 15.4-.6.8-1.1 1.8-2.3 1.9-.5.1-1.1.2-1.6.1h-30.2c-.7-.1-1.6.1-2.2-.6m-213-75.4c6.8 3.3 13.3 7.2 19.3 11.7 21.5 15.9 37.4 38.1 45.5 63.6v.1c-.6.5-1.5.7-2.3.5h-28.9c-.9 0-1.8 0-2.6.1-.8-.1-1.5-.5-1.9-1.2-2.9-3.6-5.5-7.5-8-11.3-3.2-5-6.1-10.2-8.6-15.6-.9-1.9-1.7-3.9-2.7-5.8-5.3-13-8.7-26.6-10.1-40.6q-.15-.9.3-1.5" style="fill:#d1d1d1"/><path id="VEIL_W9" d="M142.2 214.4c-2-2-3.9-4.2-5.6-6.6q1.05-.3 2.1-.3H171c.5 1.8 1.5 3.5 2.1 5.3.2.4.3.9.5 1.3-.7.9-1.6.8-2.5.8h-26.9c-.7.1-1.4-.1-2-.5m206-.2h-29.7c-.6 0-1.3-.1-1.9-.3.8-2.1 1.7-4.2 2.5-6.3h34.6c-.5 1.1-1.5 1.7-2 2.8-1 .9-1.9 2-2.8 3-.1.3-.4.6-.7.8" style="fill:#d6d6d6"/><path id="VEIL_W8" d="M251 384.8v.8c-.1 1.5-.2 3.1-.1 4.6.1.5 0 1-.1 1.5-.1 5.2-.5 10.3-1.2 15.4-.9 7.3-2.3 14.5-4.1 21.6v.5c-.2.9-.5.6-.8 0-1.7-2.9-3.4-5.8-5-8.7-5.1-8.8-10.1-17.5-15.2-26.3.5-.6 1.2-1 1.9-1.1 6.9-2.4 13.7-4.9 20.6-7.3.9-.3 1.7-.7 2.6-.9.4-.4 1-.4 1.4-.1m97.2-170.6c-2.6 3.1-5.5 6-8.6 8.6-.6.2-1.2.3-1.9.3h-23.2c-.8 0-1.7.2-2.2-.7 1.5-2.7 3-5.5 4.3-8.4.4-.2 1-.3 1.5-.3h28c.7-.2 1.5 0 2.1.5M177 220.8q-1.5.3-3 .3h-25.3c-.4.1-.8 0-1-.4-1.6-1.6-3.3-3.2-4.9-4.9-.2-.2-.4-.5-.5-.9l-.3-.5h27.8q1.8.15 3.6-.3zm88.5 72.1c-1.2 2.1-2.4 4.2-3.6 6.4-4.2 7.3-7.8 15-10.8 22.8-2.2 5.7-4.1 11.4-5.7 17.3-.1.2-.1.4-.3.8-1.2-4.4-2.5-8.5-3.9-12.6-2-5.6-4.3-11.2-6.8-16.6-2.8-6.1-6-12-9.6-17.6 0-.1-.1-.2-.1-.4.4-.4 1-.6 1.6-.5h37.5c.6-.2 1.2 0 1.7.4" style="fill:#dbdbdb"/><path id="VEIL_W7" d="M177 220.8c1.6 2.6 3.2 5.2 5.1 7.7l.6.9c-.4.4-1 .6-1.6.5H160c-.5 0-.9-.1-1.4-.1-.4 0-.8-.1-1.2-.4-2.9-2.2-5.6-4.5-8.1-7.1-.4-.4-1.2-.9-.2-1.6.7-.2 1.3-.2 2-.2h24.6c.5-.1 1 0 1.3.3m44.2 167.8c2.1-1 4.2-1.8 6.5-2.5l23.1-8.1v1c.1 1.1.2 2.3.1 3.5-.1.5 0 .9.1 1.3v1l-18 6.3c-2.9 1-5.7 2-8.6 3zM332 229.4h-22.6c-.6.1-1.2 0-1.7-.3 1.5-2.3 3.1-4.6 4.6-6.8.5.2 1.1.3 1.6.2h24.2c.5-.1 1 0 1.4.2-1.6 2-3.7 3.4-5.6 5.1-.5.6-1.2 1.1-1.9 1.6m-66.5 63.5h-40.8c-1.9-2.9-3.9-5.8-5.8-8.6l-4.5-6.3c.4-.3.9-.4 1.4-.3h60.3c-3.5 4.5-6.6 9.2-9.7 14q-.3.75-.9 1.2" style="fill:#e0e0e0"/><path id="VEIL_W6" d="M332 229.4c-1.1 1.4-2.8 2.1-4 3.3l-.5.5-9.9 6.3c-2.1.3-4.2.4-6.3.2h-10.9c-.7.1-1.4-.1-1.9-.5 3.3-3.2 6.3-6.5 9.2-10.1.6-.2 1.1-.3 1.7-.3H330c.7-.1 1.5.1 2 .6m-173.9 0h24.6q4.05 5.1 8.7 9.6c-.3.6-.9.9-1.5.8-5.3.1-10.6 0-15.9 0-.4 0-.8-.1-1.2-.2-2-.8-3.6-2.2-5.4-3.3-1.4-.8-2.8-1.8-4.2-2.8-1.4-.8-2.8-1.8-4.2-2.8-.5-.3-.8-.8-.9-1.3m59.8 153.4c2.1-.9 4.3-1.8 6.5-2.5 8.1-2.9 16.2-5.8 24.4-8.7.7-.3 1.4-.5 1.7.5 0 1.9.4 3.9.3 5.8-.4.4-.9.8-1.5.9-8.9 3.2-17.8 6.3-26.7 9.5-.4.2-.9.3-1.3.2-1.2-1.9-2.3-3.8-3.4-5.7M214.3 278c-2.2-2.6-4.4-5.2-6.5-7.8-.9-1.1-1.9-2.2-2.8-3.2-1.4-1.6-2.9-3.1-4.3-4.7.2-.5.7-.8 1.2-.7.5 0 .9-.1 1.4 0h83.6c.5 0 1.1 0 1.6.1.5 0 1 .4 1 .9-1.4 1.8-3.2 3.3-4.7 5.1q-4.2 4.65-8.1 9.6c-.2.2-.4.3-.6.5-.7.4-1.4.6-2.2.5H216c-.5-.1-1.1-.2-1.7-.3" style="fill:#e6e6e6"/><path id="VEIL_W5" d="M214.7 377.2c5.1-1.8 10.1-3.6 15.2-5.4 6.4-2.3 12.8-4.6 19.2-6.8.2-.1.4-.1.6-.2v.5c.3.4-.1.9.2 1.3.2 1.9.3 3.7.5 5.6q-1.35-.3-2.7.3c-9.3 3.4-18.7 6.6-28 10-.6.3-1.3.5-1.9.4-1-1.9-2.1-3.8-3.1-5.7m74.8-114.7c-.4-.8-1.2-.5-1.8-.5h-85.6q-.75-.15-1.5.3c-1.6-1.5-3.2-2.9-4.8-4.4-4.5-4.3-9.3-8.4-14.3-12.1-.2-.1-.3-.3-.4-.5.6-.4 1.3-.4 1.9 0 2.8 1.6 5.8 2.8 8.8 4.1 8.6 3.5 17.6 6.2 26.8 8 4.6.9 9.2 1.5 13.8 1.9 3.1.2 6.2.2 9.3.5 3.7.4 7.3 0 10.9-.2 4.4-.2 8.8-.7 13.1-1.4 6.7-1 13.3-2.5 19.8-4.4 4-1.2 8-2.6 11.9-4.3 1.5-.4 3-1 4.4-1.7 2.9-1.3 5.7-2.7 8.5-4.1.3-.1.7-.7 1 0-1.6.9-3.1 2-4.4 3.3-6 4.6-11.7 9.7-17 15.2-.1.1-.3.2-.4.3" class="st6"/><path id="VEIL_W5_2" d="M297.3 249.6c-.4-.3-.9-.4-1.3-.2h-7.6c-1.1.1-2.3 0-3.4-.3 4.8-2.9 9.3-6.2 13.4-9.9h17.3c.6-.1 1.2 0 1.7.3l-6.3 4.3c-.3-.3-.5 0-.8.1-3.6 2.1-7.4 4-11.3 5.5-.4.3-1 .8-1.7.2m-93-1c-.5.2-1 .3-1.6.3h-9.4c-.5-.2-1.1 0-1.4.5-.5.2-1.1.1-1.5-.2-2.3-1.1-4.7-2-6.9-3.2-.7-.3-1.4-.5-2.2-.6l-8.4-5.8c.4-.3.9-.4 1.4-.3h15.4c.6.1 1.2 0 1.7-.3q6 5.25 12.9 9.6" class="st6"/><path id="VEIL_W4" d="M351.8 210.4c.4.3 1 .4 1.4.2h16.7c.5-.1 1.1 0 1.6.3-.9 2-2.1 3.7-3.2 5.6-8 2.2-15.9 4.9-23.5 8.2-5.5 2.3-10.8 4.9-15.9 7.9-.4.2-.9.4-1.4.6-.1-.7.5-.9.8-1.2 1.1-1 2.5-1.7 3.5-2.8 2.7-2 5.2-4.2 7.6-6.6 3.1-2.7 5.9-5.6 8.6-8.6.8-1 1.7-1.9 2.5-2.9.3-.5.8-.8 1.3-.7m-140.5 161c5.4-1.9 10.8-3.9 16.1-5.8l20.1-7.2c.5-.3 1.1-.1 1.4.3-.1 2.1.8 4 .8 6.1-.3.4-.8.7-1.2.8-8.7 3.1-17.4 6.2-26.2 9.3-2 .7-4 1.4-6.1 2.1-.5.3-1 .4-1.6.2zm-7-122.8c5 2.8 10.2 5.2 15.6 7 10.7 3.5 22 4.7 33.2 3.6 10.3-.9 20.4-3.9 29.5-8.8.8-.5 1.6-1 2.5-1.3.5-.2 1-.3 1.5-.2h8.9c.7-.1 1.4.1 1.9.5.1.9-.7 1-1.3 1.3-5.2 2.1-10.5 3.8-16 5.2-8.4 2.2-17 3.6-25.7 4.2-2.9.2-5.8.3-8.7.4-5 0-10-.2-15-.8-8.4-.9-16.6-2.5-24.7-4.8-4.4-1.3-8.7-2.7-12.9-4.4-.6-.1-1.2-.5-1.3-1.2.3-.6.9-.9 1.6-.8 3.6-.1 7.2-.4 10.9.1m-61.9-33.7c1.7 1.7 3.5 3.4 5.2 5.1.4.3.7.7 1.1 1 2.4 2.6 4.9 4.9 7.7 7 .6.4 1.1.9 1.7 1.3 1.7 1.4 3.4 2.7 5.1 4.1-1.6-.7-3.2-1.5-4.7-2.5-8-4.2-16.2-7.8-24.7-10.8-3.5-1.2-7.1-2.2-10.6-3.3-.4-.1-.8-.1-1.2-.1l-.6-1.2q.9-.45 1.8-.3H141c.5.1 1 0 1.4-.3" style="fill:#f0f0f0"/><path id="VEIL_W3" d="M110.1 196c.6-.2 1.3-.3 2-.3h14c.5.1 1 0 1.4-.2 2.2 3.1 4.2 6.4 6.6 9.3.7 1.1 1.6 2.1 2.5 3.1.3.1.5.3.7.5 1.7 2.1 3.6 4 5.2 6.1.1.3.1.6-.1.8-.5.3-1.2.5-1.8.4h-17.9c-.5 0-.9 0-1.4-.2zm255.6-5.4c.4.3.9.4 1.4.3h16c-3.8 6.7-7.6 13.4-11.6 20-.6.2-1.1.3-1.7.3h-15.9c-.7.1-1.4 0-2-.3-.4-.3-.4-.9-.1-1.3l.1-.1c.5-.8 1.1-1.4 1.9-1.9 1.9-2.3 3.7-4.6 5.4-7.1q3.15-4.5 6-9.3c.1-.2.3-.4.5-.6M207.8 365.3c3.1-1 6.1-2.1 9.2-3.1 4.4-1.5 8.7-3.1 13.1-4.7l16.2-5.7c.5-.2 1-.2 1.5-.4.2 2.5 1 4.9 1.3 7.3-2.8.3-5.4 1.6-8 2.5-8.8 3.1-17.5 6.3-26.3 9.3-1.1.4-2.1 1.2-3.4.8z" style="fill:#f5f5f5"/><path id="VEIL_W2" d="M376.6 167.1h14.7q2.7-.15 5.4.3c-4.5 7.8-9 15.7-13.6 23.5-.5.4-1.1.5-1.8.5h-14c-.6 0-1.4.1-1.6-.8.7-1.5 1.5-2.9 2.3-4.3 3.2-6.1 6-12.3 8.3-18.8.1-.1.2-.3.3-.4M203 356.9c1.7-.3 3.4-.9 5-1.6 6.2-2.1 12.4-4.4 18.7-6.6 5.7-2 11.4-4.1 17.1-6.1 1.7-.6 1.8-.6 2.2 1.2.6 2.5 1.2 5.1 1.8 7.6-.3.3-.7.6-1.2.7l-37.2 13.2c-.5.3-1.1.3-1.6 0zM97.8 174.7H115c.5 0 1.1.3 1.4-.5.7 1.3 1.3 2.6 1.8 4 2.7 5.9 5.8 11.7 9.3 17.3-.3 1-1.2.7-1.9.7h-14.1q-.75.15-1.5-.3z" style="fill:#fafafa"/><path id="VEIL_W" d="M368.3 216.5c-3.5 6-6.9 12-10.4 18-9.1 15.8-18.3 31.7-27.4 47.5-11.4 19.8-22.9 39.6-34.3 59.4-9.6 16.7-19.3 33.4-28.9 50.1-7.2 12.4-14.4 24.9-21.6 37.3-.1.1-.2.2-.2.3-.6-.6-.2-1.4-.1-2 1.4-6 2.7-12.1 3.5-18.2.8-5.3 1.2-10.7 1.4-16.1 0-.4 0-.8.1-1.3.2-2.5.2-3.9.2-5.9-.1-.3 0-.6 0-.9-.1-.4-.1-.7 0-1.1.2-1.6.1-3.1-.2-4.7 0-.4-.1-.8-.1-1.1 0-1.9-.3-3.8-.3-5.7.1-1.3-.4-2.6-.4-4 0-.5-.1-1-.1-1.5.1-.5 0-1-.1-1.4 0-.2 0-.4-.1-.6-.2-2-.8-3.9-.8-5.9-.2-1.9-.7-3.7-1-5.6-.1-.5-.2-1.1-.2-1.6-.5-2.5-1-5-1.7-7.5-.4-1.3-.5-1.5-1.9-1-9 3.3-18.1 6.4-27.2 9.7-4 1.4-8 2.8-11.9 4.2-.5.3-1.2.3-1.7-.1-2.7-4.6-5.4-9.2-8-13.8-9-15.6-18.1-31.3-27.1-46.9-9.3-16.1-18.5-32.1-27.8-48.2-5.8-10-11.6-20.1-17.4-30.1-.2-.4-.5-.8-.7-1.2.5-.4 1.2-.5 1.8-.1 8.3 2.3 16.5 5.3 24.4 8.8 5.2 2.3 10.2 4.9 15.1 7.7 3.3 2 6.4 4.2 9.7 6.1 2.9 1.8 5.7 3.8 8.4 5.8 6.9 5.2 13.4 10.9 19.5 17 4.8 5 9.4 10.3 13.7 15.8 3.7 4.8 7.2 9.9 10.4 15.1 6.3 10.1 11.5 20.8 15.6 32 1.6 4.3 3 8.6 4.2 13 .3.6.3 1.3.1 2 4.3-16.6 11.2-32.4 20.2-47 2.5-4 5.3-7.9 7.9-11.9.8-1.2 1.8-2.4 2.7-3.5 2.1-2.5 4.1-5 6.2-7.5 2.3-2.7 4.7-5.3 7.2-7.7 5.9-6.1 12.3-11.7 19-16.9.9-.7 1.8-1.4 2.8-2 2.1-1.5 4.2-2.9 6.4-4.2 3.4-2 6.6-4.4 10-6.4 3-1.5 5.8-3.2 8.8-4.7 9.7-4.8 19.9-8.7 30.4-11.6.7-.2 1.4-.2 1.9.1m-262.1-84.3c1.2 14 4.5 27.7 9.7 40.7.2.4.3.9.4 1.3.3.6-.2.7-.6.9-.4.1-.9.2-1.4.1H99.6c-.7.1-1.4-.1-1.9-.5-2.9-4.9-5.7-9.8-8.6-14.7l-22.5-39c-.2-.3-.3-.6-.6-1.1 2 .3 3.8.5 5.6.9 11.9 2.1 23.4 5.8 34.2 11.1.3.1.4.2.4.3m270.4 34.9c1.6-5 3.2-10.1 4.4-15.3 1.3-5.4 2.2-10.9 2.8-16.5.1-1 .2-2.1.2-3.1q9.75-4.95 20.4-8.1c6.3-1.9 12.6-3.2 19.1-4.1h.4c-.1.5-.3 1-.6 1.3-8.8 15.3-17.6 30.6-26.5 45.8 0 .1-.1.1-.2.2-.3.2-.7.3-1.1.3-5.8-.2-11.5 0-17.3-.1-.5.2-1.2 0-1.6-.4" style="fill:#fff"/></svg>