<svg xmlns="http://www.w3.org/2000/svg" width="236" height="236"><defs><linearGradient id="a" x1="183.327" x2="-26.087" y1="85.439" y2="-10.019" gradientUnits="userSpaceOnUse"><stop offset="0" stop-color="#171176"/><stop offset="1" stop-color="#493ed1"/></linearGradient></defs><path fill="url(#a)" fill-rule="evenodd" d="M77.201-75.304c65.17 0 118 52.831 118 118s-52.83 118-118 118-118-52.831-118-118 52.83-118 118-118m-39.687 64.9H7.455l-.181.011a2.1 2.1 0 0 0-.591.164c-1.128.343-1.431 1.139-1.45 1.893l-.013.227c-.002.293.047.612.164.957l.018.071.022.047a4.7 4.7 0 0 0 .417.832l.073.122L71.87 122.957l.111.256q1.495 3.264 5.673 3.264l.412-.005q4.075-.125 5.466-3.515L150-7.08l.096-.206q.575-1.323-.096-2.14c-.481-.587-1.445-.978-2.651-.978l-49.964.002c-2.373.028-3.219.481-4.291 2.749L68.027 41.56 43.057-7.079l-.075-.248c-.761-2.345-2.438-3.076-5.467-3.076zm104.167 6.129L78.074 120.166l-.085.172-.112.006-.295.002-.166-.003-.087-.178-8.87-17.353 55-107.089z" style="fill:url(#a)" transform="translate(40.799 75.304)"/></svg>