<svg xmlns="http://www.w3.org/2000/svg" xml:space="preserve" viewBox="0 0 490 490"><path d="M0 245c0 135.1 109.9 245 245 245s245-109.9 245-245S380.1 0 245 0 0 109.9 0 245" style="fill:#00bfff"/><path d="M388.1 283.4c-10.6-6.7-22.4-10.5-34.4-13.8-5.9-1.6-11.8-2.9-18-4.5 24.5-37.6 48.8-74.9 73.2-112.6-.7-.1-1.5-.1-2.2-.1-15.6 0-31.2 0-46.9-.1-2.4 0-3.1 1.2-4.2 2.8-28.9 44.5-57.7 89-86.6 133.5-7.9 12.2-15.9 24.4-24.1 37.1-.7-.8-1.3-1.7-1.8-2.6-35.8-56-71.7-112-107.6-167.9-1.3-2.1-2.6-3-5.1-3-14.8.1-29.7 0-44.5.1-.9 0-2 .1-3.4.3 24 37.3 47.5 74 71.3 111.1-.9.3-1.4.3-2 .4-11 2.9-22 5.4-32.9 8.8s-21.4 7.9-29.9 15.7c-10.8 9.8-10.5 20.1.7 29.6.4.4.9.7 1.3 1 7.6 6.2 16.4 10.2 25.6 13.5 29 10.6 59.3 14.7 90 16.9 1.9 0 3.7 1.1 4.6 2.8 8.9 14 17.9 28.1 26.9 42 2.2 3.4 4.5 6.8 6.8 10.5.7-1.2 1.5-2.3 2.4-3.4 10.8-16.4 21.4-32.8 32.2-49.2.8-1.3 2.1-2.2 3.5-2.5 15.4-2 30.8-3.3 46.1-5.6 18.8-2.9 37.1-7.7 54.5-16.3 6.8-3.3 13.3-7.2 18-13.4 5.4-7.1 5.8-14.2-.1-20.9-4.2-3.8-8.6-7.2-13.4-10.2m-248.9 26.5c-4-2.3-7.6-5.3-10.6-8.8-3.2-3.4-3.2-8.8.1-12.2 2.8-3.4 6.3-6.2 10.1-8.4 5.9-2.9 12-5.4 18.2-7.5 1.2-.2 2.4.2 3.3 1 10.6 16.4 21.1 32.9 31.8 49.3.1.3.1.7.4 1.6-18.8-2.8-36.9-6.1-53.3-15m215.1-5.6c-5.3 5.2-11.8 9-19 11-11.4 3.3-23.1 5.9-34.6 8.8-.8.3-1.7 0-3.1 0 4.1-6.3 8-12.5 11.9-18.5 6.3-9.6 12.6-19.2 18.8-28.9 1.2-1.8 2.4-2.6 4.3-1.6 5.8 2.9 11.7 5.6 17.3 8.5 1.7 1 3.2 2.2 4.5 3.7 5.1 5.5 5.1 11.6-.1 17M335.4 137c-30.1 48.8-59.8 97.3-89.9 146.3-30.5-48.9-60.6-97.5-91.1-146.3z" style="fill:#fff"/></svg>