<svg xmlns="http://www.w3.org/2000/svg" width="245" height="245"><g data-name="Group 9265"><path fill="#048657" d="M0 122.5C0 190 55 245 122.5 245S245 190 245 122.5 190 0 122.5 0 0 55 0 122.5"/><g data-name="Layer 2"><g fill-rule="evenodd" data-name="Layer 1"><path fill="#048657" d="M185.002 58.993q-.775-.744-1.564-1.459l-62.006 86.759-23.694-30.531H59.171l-10.839 12.467h20.17l48.145 62.844a7.06 7.06 0 0 0 4.789 2.289 6.26 6.26 0 0 0 4.538-2.289l76.12-106.351q-.661-1.366-1.366-2.705a90.1 90.1 0 0 1 10.83 42.984c0 49.591-39.815 89.8-88.929 89.8s-88.927-40.206-88.927-89.8 39.82-89.8 88.93-89.8a88.2 88.2 0 0 1 62.37 25.792"/><path fill="#fff" d="m48.332 126.229 10.839-12.467h38.567l23.693 30.531 62.009-86.76a79.5 79.5 0 0 1 10.335 11.452 84 84 0 0 1 8.318 13.738l-76.124 106.35a6.26 6.26 0 0 1-4.538 2.289 7.06 7.06 0 0 1-4.789-2.289l-48.145-62.844Z"/></g></g></g></svg>