<svg xmlns="http://www.w3.org/2000/svg" xml:space="preserve" viewBox="0 0 490 490"><path d="M0 245c0 135.1 109.9 245 245 245s245-109.9 245-245S380.1 0 245 0 0 109.9 0 245" style="fill:#ff5847"/><path d="M245.4 117.1c-70.7 0-128.3 57.6-128.3 128.4s57.6 128.4 128.3 128.4 128.3-57.6 128.3-128.4-57.5-128.4-128.3-128.4m0 300.9C150.4 418 73 340.6 73 245.5S150.4 72.9 245.4 72.9s172.4 77.4 172.4 172.5S340.5 418 245.4 418m-38.2-172.5 38.2 38.2 38.2-38.2-38.2-38.2zm38.2 91.5c-5.9 0-11.5-2.3-15.6-6.5L160.4 261c-8.6-8.6-8.6-22.6 0-31.2l69.4-69.5c8.6-8.6 22.6-8.6 31.2 0l69.4 69.5c8.6 8.6 8.6 22.6 0 31.2L261 330.6c-4.1 4.1-9.7 6.4-15.6 6.4" style="fill:#fff"/></svg>