<svg xmlns="http://www.w3.org/2000/svg" xml:space="preserve" id="WAX" x="0" y="0" version="1.1" viewBox="0 0 245 245"><style>.st1{fill:#fff}</style><path id="Full" d="M0 122.5C0 190 55 245 122.5 245S245 190 245 122.5 190 0 122.5 0 0 55 0 122.5" style="fill:#f78e1e"/><path d="m115.5 105-11 29-11-29h-15l16 44H114l10.5-28 10 28h14l-16-44zM148.5 123.5l7 20 14-38.5h-15z" class="st1"/><path d="M205 133.5c.4-5.8 7.1-10.2 6.1-26.5-.5-7.3-12.2-17.1-15.6-25.5-1.6-3.9.6-7.2-4.5-14.5-2.5-3.6-13.6-8.9-16-13.5-3.8-7.3-9.5-10.2-13-10.5-8.6-.8-12.7 2.1-23.5-.5-6.5-1.2-6.4-6.5-16-8C101 34.1 90 45.9 84 45.5c-9.1 0-12.5 4.4-14.5 7-3.2 3.9-5.1 13.3-11 17S44.6 77.6 41 87c-4.1 3.7-1.9 23.2-2.1 28.3-3.2 4.8-5.3 22.4-4.4 32.2 2.1 9.1 8.3 13.1 13 17 2.7 3.4 9.1 8.1 8.5 16 .9 4.5 7.8 12.6 14 16.5 7 3.5 6.5 5.6 26.5 5.5 5.6.2 8.8 6.9 17 8.1 8-.1 9-2.4 15.5-3.6 9-.5 14 8.8 39.5-1.5 14.1-9 12.5-11.4 18-24 3.2-7.4 10.9-7.2 15-10 1.8-1.2 2.9-1.2 5.5-10 3.4-11.4-2.6-18.5-2-28m-82.5 47C90.2 180.5 64 154.3 64 122s26.2-58.5 58.5-58.5S181 89.7 181 122s-26.2 58.5-58.5 58.5" class="st1"/></svg>