<svg xmlns="http://www.w3.org/2000/svg" width="256" height="256" viewBox="0 0 67.733 67.733"><g transform="translate(0 -229.267)"><circle cx="33.871" cy="263.133" r="33.867" style="opacity:1;fill:#342946;fill-opacity:1;fill-rule:nonzero;stroke:#fff;stroke-width:0;stroke-linecap:round;stroke-linejoin:miter;stroke-miterlimit:4;stroke-dasharray:none;stroke-dashoffset:65.67904663;stroke-opacity:1;paint-order:normal"/><path d="m51.481 246.74-1.553 1.558c7.684 8.423 7.684 21.332 0 29.755l1.553 1.558c8.553-9.294 8.553-23.612 0-32.906zM18.801 246.876c8.404-7.702 21.283-7.702 29.687 0l1.553-1.557c-9.272-8.572-23.557-8.572-32.83 0zM17.35 278.07c-7.674-8.422-7.674-21.32 0-29.74l-1.553-1.558c-8.552 9.294-8.552 23.612 0 32.906zM48.472 279.507c-8.404 7.702-21.283 7.702-29.687 0l-1.553 1.557c9.272 8.572 23.557 8.572 32.83 0z" style="fill:#fff;fill-rule:evenodd;stroke:none;stroke-width:.96034813;fill-opacity:1"/><path d="M38.342 259.23c0 3.115-4.858 2.736-6.402 2.736v-5.487c1.544 0 6.402-.488 6.402 2.752m1.269 8.518c0 3.406-5.822 3.016-7.676 3.016v-6.042c1.854.005 7.676-.53 7.676 3.026M43.443 258c-.31-3.25-3.107-4.34-6.645-4.672v-4.48h-2.734v4.392c-.72 0-1.456 0-2.186.026v-4.418H29.16v4.506h-5.541v2.933s2.02-.036 1.988 0a1.414 1.414 0 0 1 1.554 1.205v12.339a.97.97 0 0 1-1.026.909h-.01c.037.03-1.989 0-1.989 0l-.543 3.275h5.521v4.578h2.734v-4.51h2.186v4.49h2.74v-4.527c4.62-.28 7.84-1.422 8.245-5.757.326-3.488-1.31-5.046-3.926-5.674 1.59-.81 2.59-2.237 2.351-4.615" style="fill:#fff;fill-rule:evenodd;stroke:none;stroke-width:.96034813"/><circle cx="33.655" cy="263.183" r="27.276" style="opacity:1;fill:none;fill-opacity:1;fill-rule:nonzero;stroke:#fff;stroke-width:2.22399998;stroke-linecap:round;stroke-linejoin:miter;stroke-miterlimit:4;stroke-dasharray:none;stroke-dashoffset:65.67904663;stroke-opacity:1;paint-order:normal"/></g></svg>