<svg xmlns="http://www.w3.org/2000/svg" width="256" height="256" viewBox="0 0 67.733 67.733"><g transform="translate(0 -229.267)"><circle cx="33.864" cy="263.139" r="33.864" style="opacity:1;fill:#1e416b;fill-opacity:1;fill-rule:nonzero;stroke:none;stroke-width:2.52220392;stroke-linecap:round;stroke-linejoin:miter;stroke-miterlimit:4;stroke-dasharray:none;stroke-dashoffset:65.67904663;stroke-opacity:1;paint-order:normal"/><path d="M71.256 101.72V84.314c.105-.056.214-.161.327-.166 14.184-.547 28.15.66 41.37 6.222 30.697 12.913 49.672 35.72 55.49 68.528 8.49 47.87-23.33 93.507-71.078 102.93-48.246 9.522-95.308-21.901-105.115-70.182a88.7 88.7 0 0 1-1.803-17.723q.001-10.515.004-21.03c0-.211.03-.423.056-.757h158.109c-5.42-16.572-15.19-29.594-29.633-39.034-14.472-9.458-30.519-12.643-47.727-11.384M8.02 169.884c-1.49 22.967 9.382 50.741 35.975 66.05 25.375 14.606 56.83 12.552 80.008-5.653 19.459-15.285 28.268-35.73 27.862-60.352H37.724c.136 3.015.021 5.948.438 8.804 1.777 12.194 7.764 21.888 17.88 28.927 7.23 5.03 15.334 7.404 24.137 7.4h8.324v17.515c-16.152 1.248-31.154-1.742-44.137-11.747-16.639-12.822-24.144-30.041-23.64-50.944z" style="clip-rule:evenodd;fill:#fdfdfd;fill-opacity:1;fill-rule:evenodd;stroke-width:.26458332" transform="matrix(.27275 0 0 .27275 12.023 215.789)"/><path d="M69.785 192.365c.024-5.618 4.601-10.132 10.229-10.087 5.54.044 10.051 4.604 10.05 10.157-.002 5.6-4.598 10.186-10.186 10.164-5.61-.022-10.118-4.592-10.093-10.234" style="clip-rule:evenodd;fill:#fdfdfd;fill-opacity:1;fill-rule:evenodd;stroke-width:.26458332" transform="matrix(.27275 0 0 .27275 12.023 215.789)"/></g></svg>