<svg xmlns="http://www.w3.org/2000/svg" xml:space="preserve" viewBox="0 0 490 490"><path d="M0 245c0 135.1 109.9 245 245 245s245-109.9 245-245S380.1 0 245 0 0 109.9 0 245" style="fill:#f5e74b"/><path d="m191.1 282.6 21.3-89.7h40.3l21.3 89.7 25.1-89.7h40.4l.3 1.6 43.5 155.4c58.3-75.9 43.7-184.4-32.6-242.4C287 59.3 198.8 60.3 136.4 110zm128.1-34.1-21.1 75.3-.3 1.6h-45.1l-20.1-73.7-20.1 73.7h-45.1l-.3-1.6-58.3-186.3c-59.4 74.4-47.1 182.9 27.3 242.2.3.3.7.6 1.1.8 64.3 50.6 155.2 49.8 218.6-2z" style="fill:#fff"/></svg>