<svg xmlns="http://www.w3.org/2000/svg" xmlns:xlink="http://www.w3.org/1999/xlink" width="245" height="245"><defs><linearGradient id="a" x1=".907" x2=".355" y1="1.512" y2="-3.91" gradientUnits="objectBoundingBox"><stop offset="0" stop-color="#00ffa3"/><stop offset="1" stop-color="#dc1fff"/></linearGradient><linearGradient xlink:href="#a" id="b" x1=".666" x2=".114" y1="5.175" y2="-.247"/><linearGradient xlink:href="#a" id="c" x1=".786" x2=".234" y1="3.356" y2="-2.067"/></defs><path fill="#fff" d="M0 122.5C0 190 55 245 122.5 245S245 190 245 122.5 190 0 122.5 0 0 55 0 122.5"/><path fill="url(#a)" d="M22.894 235.447a4.61 4.61 0 0 1 3.262-1.347h112.551a2.3 2.3 0 0 1 1.631 3.936L118.1 260.27a4.61 4.61 0 0 1-3.262 1.348H2.292a2.3 2.3 0 0 1-1.631-3.936z" data-name="Path 472470" transform="translate(52.131 -83.353)"/><path fill="url(#b)" d="M22.894 1.347A4.74 4.74 0 0 1 26.157 0h112.55a2.3 2.3 0 0 1 1.631 3.936L118.1 26.17a4.61 4.61 0 0 1-3.262 1.347H2.292a2.3 2.3 0 0 1-1.631-3.936Z" data-name="Path 472471" transform="translate(52.131 67.735)"/><path fill="url(#c)" d="M118.1 117.647a4.61 4.61 0 0 0-3.262-1.347H2.292a2.3 2.3 0 0 0-1.631 3.936l22.233 22.234a4.61 4.61 0 0 0 3.262 1.348h112.551a2.3 2.3 0 0 0 1.631-3.936z" data-name="Path 472472" transform="translate(52.131 -7.325)"/></svg>