<svg xmlns="http://www.w3.org/2000/svg" width="246.261" height="244.754"><path fill="#fecc47" d="M123.13 0c67.778 0 123.13 54.976 123.13 122.377s-55.352 122.377-123.13 122.377C54.976 244.754 0 190.155 0 122.377S54.976 0 123.13 0" data-name="Path 452956"/><path fill="#fecc47" d="M123.127 18.827c57.611 0 104.3 46.315 104.3 103.55s-47.062 103.926-104.3 103.926c-57.608 0-104.3-46.691-104.3-103.926s46.692-103.55 104.3-103.55" data-name="Path 452957"/><path fill="#fff" d="M123.13 228.186c-58.741 0-106.562-47.444-106.562-105.809S64.389 16.568 123.13 16.568s106.563 47.445 106.563 105.809-48.198 105.809-106.563 105.809m0-207.1c-56.105.001-101.662 45.563-101.662 101.291S67.025 223.668 123.13 223.668s101.668-45.562 101.668-101.291-45.562-101.29-101.668-101.29Z" data-name="Path 452958"/><path fill="#fff" d="M167.939 164.55H77.568a2.43 2.43 0 0 1-2.259-2.256V83.216a23.71 23.71 0 0 1 24.1-23.722h47.067a23.946 23.946 0 0 1 24.1 23.722v79.078a2.82 2.82 0 0 1-2.636 2.259Zm-87.73-4.518h85.476V83.594a19.285 19.285 0 0 0-19.2-19.2H99.409a19.285 19.285 0 0 0-19.2 19.2Z" data-name="Path 452959"/><path fill="#fff" d="M99.032 150.62a9.32 9.32 0 0 1-9.414-9.414 9.32 9.32 0 0 1 9.414-9.414 9.32 9.32 0 0 1 9.418 9.412 9.564 9.564 0 0 1-9.418 9.416m0-14.309a4.9 4.9 0 1 0 4.9 4.9c-.377-3.012-2.259-4.9-4.9-4.9m48.197 14.309a9.32 9.32 0 0 1-9.414-9.414 9.32 9.32 0 0 1 9.414-9.414 9.32 9.32 0 0 1 9.414 9.414 9.32 9.32 0 0 1-9.414 9.414m0-14.309a4.9 4.9 0 1 0 4.9 4.9 4.746 4.746 0 0 0-4.9-4.9m-10.543-59.872h-27.488a2.43 2.43 0 0 1-2.259-2.259 2.43 2.43 0 0 1 2.259-2.26h27.488a2.43 2.43 0 0 1 2.264 2.259 2.17 2.17 0 0 1-2.264 2.26M166.81 186.39a2.88 2.88 0 0 1-1.883-.753l-14.685-20.71a2.2 2.2 0 1 1 3.765-2.259l14.685 20.71a2.035 2.035 0 0 1-.753 3.012Zm-87.735 0a2.85 2.85 0 0 1-1.506-.377 2.46 2.46 0 0 1-.753-3.012l14.685-20.71c.753-1.13 2.259-1.506 3.012-.753s1.506 2.259.753 3.012l-14.685 20.71c0 .753-.753 1.13-1.506 1.13" data-name="Path 452960"/><path fill="#fff" d="M82.84 181.495a2.85 2.85 0 0 1-1.506-.377 2.46 2.46 0 0 1-.753-3.012l10.92-15.438c.753-1.13 2.259-1.506 3.012-.753s1.506 2.259.753 3.012l-10.92 15.438c0 .753-.753 1.13-1.506 1.13m85.1-87.735H77.568a2.43 2.43 0 0 1-2.259-2.26 2.43 2.43 0 0 1 2.259-2.259h90.371a2.43 2.43 0 0 1 2.259 2.259 2.17 2.17 0 0 1-2.259 2.26Zm0 28.994H77.568a2.26 2.26 0 1 1 0-4.519h90.371a2.43 2.43 0 0 1 2.259 2.259 2.17 2.17 0 0 1-2.259 2.26Z" data-name="Path 452961"/><path fill="#fff" d="M99.032 122.753c-.753 0-1.13 0-1.506-.753a1.99 1.99 0 0 1-.377-3.012l10.543-11.673c.753-.753 2.259-1.13 3.012 0 .753.753 1.13 2.259 0 3.012L100.161 122c0 .377-.753.753-1.129.753m13.556 0c-.753 0-1.13 0-1.506-.753-.753-.753-1.13-2.259 0-3.012l21.086-23.722c.753-.753 2.259-1.13 3.012 0 .753.753 1.13 2.259 0 3.012L114.094 122a1.96 1.96 0 0 1-1.507.753Zm43.3 48.951h-65.9a2.26 2.26 0 1 1 0-4.519h65.9a2.43 2.43 0 0 1 2.261 2.257 2.17 2.17 0 0 1-2.259 2.262Zm7.154 9.79h-80.2a2.26 2.26 0 1 1 0-4.519h80.2a2.43 2.43 0 0 1 2.259 2.259c.38 1.131-.75 2.261-2.257 2.261Z" data-name="Path 452962"/><path fill="#fff" d="M123.13 214.254c-51.21 0-92.63-41.043-92.63-91.877C30.5 71.92 71.92 30.5 122.754 30.5s92.254 41.043 92.254 91.877a91.76 91.76 0 0 1-91.878 91.877m0-179.236a87.5 87.5 0 0 0-87.73 87.359c0 48.2 39.537 87.358 87.735 87.358s87.735-39.161 87.735-87.358-39.542-87.358-87.74-87.358Z" data-name="Path 452963"/></svg>