<svg xmlns="http://www.w3.org/2000/svg" xml:space="preserve" viewBox="0 0 490 490"><path d="M0 245c0 135.1 109.9 245 245 245s245-109.9 245-245S380.1 0 245 0 0 109.9 0 245" style="fill:#211f33"/><path d="M245.6 409c.6-.4 1.4-.8 2-1.2 19.2-11.3 37-24.7 53.1-40.1 1-1 1.8-2.2 2.6-3.4 1-2 2.2-4.2 3.2-6.1 7.7-16 9.3-32.4 4.2-49.4-9.5-31.9-40.7-52.2-73.7-47.9-9 1.1-17.7 4-25.6 8.5-22.4 12.9-49.6 14.4-73.3 4.2-6.1-2.7-11.9-6.2-17.2-10.3-.5-.4-1-.8-1.6-1 .1.6.3 1.1.6 1.6 6.8 17.4 15.3 34 25.4 49.6 10.9 16.9 23.4 32.7 37.4 47.1 14.1 14.4 29.6 27.2 46.4 38.4 7.2 4.7 14.3 9 16.5 10m80-68.2c.7-.4 1.2-.9 1.6-1.6 6.1-7.7 11.9-15.6 17.2-23.7 19-29.3 32.6-61.9 40-96.1 2.6-11.7 4.4-23.5 5.3-35.4q1.2-12.15 1.2-24.3c0-.5 0-1.1-.2-1.6-.8-.4-1.5-.9-2.2-1.4q-9.45-5.4-19.2-9.9c-9.5-4.4-19-8.5-28.9-11.5-11.8-4.1-24.5-4.6-36.6-1.6-35 8.4-57.4 42.7-50.9 78.1 3.8 19.6 14.3 34.8 31.1 45.5 1.2.8 2.4 1.4 3.4 2.2 25.4 15.5 40.2 43.7 38.6 73.4.1 2.6-.1 5.3-.4 7.9M100 157.7v2c.1 11.2.7 22.3 2 33.4 1.2 10.1 3 20 5.2 29.9.4 1.7 1 3.4 1.8 4.9 16 34.1 56.6 48.8 90.7 32.9 17.8-8.4 31.2-24 36.7-43 1.6-6.5 2.5-13.2 2.8-20 .2-4.4.6-8.9 1.4-13.2 5-26.7 23.2-49.1 48.3-59.5 1.4-.6 2.9-1.2 4.4-1.6.2 0 .6-.2.4-.4-4-1.4-27.7-3.8-42-4-30.4-.7-60.8 3.5-89.9 12.3-21.7 6.2-42.4 15-61.8 26.3" style="fill:#fff"/></svg>