<svg xmlns="http://www.w3.org/2000/svg" xml:space="preserve" width="491.339" height="491.339"><path d="M0 245.67c0 135.468 110.2 245.669 245.67 245.669 135.468 0 245.669-110.2 245.669-245.67S381.139 0 245.669 0 0 110.2 0 245.67" style="fill:#fff;stroke-width:1.00273"/><path d="M75.282 96.628c-1.569 1.14-3.28 3.708-3.708 5.704-.713 4.279-.57 4.564 48.206 74.591 16.544 23.676 33.374 47.921 37.51 53.911 3.993 5.99 7.416 12.408 7.416 14.263 0 3.137-5.848 12.265-26.813 42.643-4.992 6.989-15.26 21.821-22.82 32.946-7.558 10.982-19.538 28.239-26.67 38.365-16.972 24.388-17.827 25.957-16.116 31.092.856 2.282 2.995 4.706 4.992 5.42 5.42 1.996 110.389 1.568 113.241-.571 1.141-.999 7.132-8.843 13.122-17.4 21.963-31.805 33.088-47.92 60.471-87 15.26-21.963 28.524-41.36 29.38-43.214 1.997-4.136-.285-8.842-11.41-23.817-4.706-6.276-27.24-37.225-50.202-68.744-22.82-31.662-42.787-58.047-44.356-58.903-1.711-.855-22.391-1.426-55.907-1.426-44.64 0-53.769.285-56.336 2.14"/><path d="M288.074 97.055c-2.425 1.57-7.845 7.702-12.123 13.977-4.279 6.133-11.838 16.972-16.687 23.818l-9.128 12.55 3.851 4.85c1.997 2.71 4.279 4.992 4.992 4.992.998 0 12.123-14.833 28.952-38.936l6.703-9.556h53.483c45.211 0 53.483.286 54.196 1.997.428 1.284-5.42 11.125-13.977 23.675-16.116 23.39-35.655 51.914-55.051 80.154-6.846 9.983-13.55 20.252-14.976 22.819-4.849 8.985-4.706 9.413 32.66 61.898 10.982 15.545 34.658 48.491 48.064 67.174 7.131 9.984 8.272 13.977 4.279 14.833-1.426.285-26.243.285-55.195-.143l-52.627-.713-18.684-25.957c-10.268-14.262-19.11-25.957-19.681-25.957-.57-.143-2.71 2.425-4.85 5.42l-3.708 5.562 18.826 25.814c10.27 14.263 20.11 26.813 21.822 27.954 2.567 1.854 11.694 2.14 60.614 2.14 63.038 0 63.609-.143 68.03-8.558s2.995-13.834-7.559-28.524c-65.32-91.135-80.153-112.243-80.153-113.527 0-.855 9.698-15.403 19.824-29.808 2.71-3.993 10.269-14.832 16.687-24.245 11.41-16.83 28.81-42.216 42.501-62.04 4.85-7.132 7.131-11.838 7.56-16.26.712-5.562.284-6.845-4.28-11.694l-4.991-5.563-57.62-.428c-53.91-.285-57.761-.142-61.754 2.282"/></svg>