<svg xmlns="http://www.w3.org/2000/svg" overflow="visible" viewBox="0 0 80 80"><circle cx="40" cy="40" r="40" fill="#1d1d1d" style="fill:#fff"/><path d="m50.029 13.636 21.623 26.3-21.623 26.298H29.964L8.34 40l21.624-26.299h20.065M51.782 10H28.21L3.6 40l24.61 30h23.572l24.61-30Z" style="stroke-width:.649351"/><path d="M47.95 60.13H32.043L15.483 40l16.559-20.13H47.95L64.509 40Zm-15.324-1.234h14.74L62.886 40l-15.52-18.896h-14.74L17.106 40Z" class="st0" style="fill:#6fccdd;stroke-width:.649351"/><path d="M43.73 49.545h-7.533l-.065-.13L28.405 40l7.792-9.545h7.533l.065.13L51.522 40Zm-7.208-.649h6.948L50.743 40l-7.273-8.896h-6.948L29.184 40Z" class="st0" style="fill:#6fccdd;stroke-width:.649351"/></svg>