<svg xmlns="http://www.w3.org/2000/svg" xml:space="preserve" viewBox="0 0 490 490"><path d="M0 245c0 135.1 109.9 245 245 245s245-109.9 245-245S380.1 0 245 0 0 109.9 0 245" style="fill:#08b5e5"/><path d="m359.8 144.6-38.5 19.7-186.1 95.2c-.6-4.8-.9-9.7-.9-14.5.1-61.5 49.8-111.3 111-111.2 18.9 0 37.4 4.9 53.9 14.1l22.1-11.3 3.3-1.7C264.4 91 179.9 104.2 136 164.4c-.2.2-.3.4-.5.7-16.8 23.3-25.8 51.2-25.8 79.9 0 3.5.1 6.9.4 10.4.8 9.9-4.5 19.4-13.4 23.9l-11.6 6V313l34.2-17.5 11.1-5.7 10.9-5.6 196.1-100.4 22-11.3 45.6-23.3v-27.8zM405 177 152.4 306.2l-22 11.3L85 340.7v27.8l45-23.1 38.5-19.7 186.3-95.3c.6 4.9.9 9.7.9 14.6 0 61.5-49.7 111.3-110.9 111.3-19 0-37.6-4.9-54.1-14.2l-1.4.7-23.8 12.2c60.2 43.9 144.7 30.7 188.6-29.5.2-.2.3-.4.5-.7 16.8-23.2 25.8-51.2 25.8-79.9 0-3.5-.1-7-.4-10.4-.8-9.9 4.5-19.3 13.4-23.9l11.6-6z" style="fill:#fff"/></svg>