<svg xmlns="http://www.w3.org/2000/svg" xml:space="preserve" viewBox="0 0 245 245"><path d="M0 122.5C0 190 55 245 122.5 245S245 190 245 122.5 190 0 122.5 0 0 55 0 122.5" style="fill:#f60"/><path d="M64.5 151H37.7c2.1 6.1 4.8 12 8.1 17.5H84V122l38.5 38.5L161 122v46.5s31.8.1 38.2.1c3.3-5.5 6.1-11.4 8.1-17.5h-26.8V75.5l-58 58-58-58z" style="fill:#fff"/><path d="M33 122.5c0 49.4 40.2 89.5 89.5 89.5s89.5-40.1 89.5-89.5S171.9 33 122.5 33 33 73.2 33 122.5z" style="fill:none;stroke:#fff;stroke-width:20"/></svg>