<svg xmlns="http://www.w3.org/2000/svg" xml:space="preserve" id="Snowgem" x="0" y="0" version="1.1" viewBox="0 0 245 245"><style>.st1{fill:#fff}</style><path id="Main_copy_23" d="M0 122.5C0 190 55 245 122.5 245S245 190 245 122.5 190 0 122.5 0 0 55 0 122.5" style="fill:#d21e2b"/><g id="Snowgem_copy"><path id="L" d="M45 78.5 63 89v67l-18 10.5z" class="st1"/><path id="R" d="m200.5 78.5-18 10.5v67l18 10.5z" class="st1"/><path id="TL" d="m46 77 18.1 10.3 58-33.5.1-20.8z" class="st1"/><path id="TR" d="m199.5 77.1-18 10.4-57.9-33.6-.1-20.9z" class="st1"/><path id="BL" d="m46 168.5 18.1-10.3 58 33.5.1 20.8z" class="st1"/><path id="BR" d="m199.5 168.4-18-10.4-57.9 33.6-.1 20.9z" class="st1"/><path id="CTR" d="M122.5 122.5H134V119l15-8.5 16 9.5 3-4.5-13.5-7.5 13.5-8-3-4.5-13.5 7.5V88h-5v18l-15 8.5-6.5-4v-16l16.5-9.5-2.5-4-14 7.5V73h-2.5z" class="st1"/><path id="CTL" d="M122.5 122.5H111V119l-15-8.5-16 9.5-3-4.5 13.5-7.5-13.5-8 3-4.5 13.5 7.5V88h5v18l15 8.5 6.5-4v-16L103.5 85l2.5-4 14 7.5V73h2.5z" class="st1"/><path id="CBR" d="M122.5 122.5H134v3.5l15 8.5 16-9.5 3 4.5-13.5 7.5 13.5 8-3 4.5-13.5-7.5v15h-5v-18l-15-8.5-6.5 4v16l16.5 9.5-2.5 4-14-7.5V172h-2.5z" class="st1"/><path id="CTL-2" d="M122.5 122.5H111v3.5l-15 8.5-16-9.5-3 4.5 13.5 7.5-13.5 8 3 4.5 13.5-7.5v15h5v-18l15-8.5 6.5 4v16l-16.5 9.5 2.5 4 14-7.5V172h2.5z" class="st1"/></g></svg>