<svg xmlns="http://www.w3.org/2000/svg" width="236" height="236"><circle cx="118" cy="118" r="118" fill="#2c7df7" paint-order="stroke fill markers"/><path fill="#fff" d="M139.453 218q-21.425 0-31.276-10.313a31.83 31.83 0 0 1-9.82-22.222 14.73 14.73 0 0 1 1.72-7.345 12.7 12.7 0 0 1 4.691-4.691 16.37 16.37 0 0 1 14.606 0 12.5 12.5 0 0 1 4.664 4.691 14.43 14.43 0 0 1 1.782 7.345 14.02 14.02 0 0 1-2.502 8.594 11.66 11.66 0 0 1-5.945 4.347 16.24 16.24 0 0 0 9.383 5.844 46.5 46.5 0 0 0 12.791 1.843 28.53 28.53 0 0 0 16.107-4.812 28.12 28.12 0 0 0 10.508-14.218 61.7 61.7 0 0 0 3.44-21.281 58.4 58.4 0 0 0-3.753-22.126 27.3 27.3 0 0 0-10.853-13.75 28.9 28.9 0 0 0-15.635-4.468 29.76 29.76 0 0 0-13.543 4.594l-10.042 5.031v-5.031l45.131-60.493H98.356v62.775a22.45 22.45 0 0 0 3.44 12.844 11.86 11.86 0 0 0 10.508 5.031 17.58 17.58 0 0 0 10.383-3.656 37.5 37.5 0 0 0 8.695-8.938 3.1 3.1 0 0 1 1.131-1.499 2.3 2.3 0 0 1 1.508-.562 5.22 5.22 0 0 1 2.94 1.249 6.25 6.25 0 0 1 1.595 4.25 25 25 0 0 1-.563 3.125 30.26 30.26 0 0 1-10.728 13.308 26.6 26.6 0 0 1-15.048 4.567q-20.314 0-28.146-8a29.95 29.95 0 0 1-7.757-21.876V69.538H44.5V57.874h31.964V31.281l-7.318-7.317V18h21.235l7.976 4.126v35.749l82.629-.251 8.227 8.25-50.667 50.871a34 34 0 0 1 9.57-2.313 41.5 41.5 0 0 1 18.519 5.282 38.03 38.03 0 0 1 15.952 14.223 50.2 50.2 0 0 1 7.194 17.156 72 72 0 0 1 1.72 14.689A61.4 61.4 0 0 1 185.245 193a39.93 39.93 0 0 1-18.766 18.751A60.8 60.8 0 0 1 139.454 218z"/></svg>