<svg xmlns="http://www.w3.org/2000/svg" width="250" height="250"><circle cx="125" cy="125" r="119.566" fill="#8c91c7" stroke="#fff" stroke-width=".868"/><g fill="#fff"><path d="m174.356 39-99.178.462L26 125.601l50 85.677 99.177-.462 49.178-86.14zm-5.442 161.087-86.754.41-43.737-74.948L81.44 50.191l86.755-.41 43.736 74.947z"/><path d="M183.647 107.582h-5.75l-10.625-55.44-60.113 18.993v-5.287l59.445-18.635 4.774 2.208zM91.143 61.587l-3.747 2.361-9.754-15.04h5.288zm1.027 25.154h4.98v74.434h-4.98zM78.977 198.803l2.977 5.185 6.468-12.217-3.285-3.748zm90.194 5.031-1.437.154-59.24-20.328 1.283-4.21 56.673 18.891 11.807-56.878h4.928zm44.404-76.54h-14.373l.308-5.081 14.168-.052zm-104.824 43.789 61.447-35.215-3.286-3.953-60.317 35.164zm-27.67-3.645-45.738-40.143.718-6.16 47.639-42.3 2.669 4.107-46.56 42.197 44.558 38.86zm87.577-48.767L106.03 82.172l2.413-4.312 62.422 36.396z"/></g><path fill="#f43b7b" d="M183.185 105.888c-10.472 0-18.993 8.522-18.993 18.994s8.521 18.994 18.993 18.994 18.994-8.522 18.994-18.994-8.47-18.994-18.994-18.994m0 33.06a14 14 0 0 1-14.014-14.015 14 14 0 0 1 14.014-14.014 14 14 0 0 1 14.015 14.014 14 14 0 0 1-14.015 14.015"/><path fill="#5aa2da" d="M95.61 58.507c-8.42 0-15.247 6.827-15.247 15.246S87.19 89 95.609 89s15.246-6.828 15.246-15.247c-.05-8.47-6.827-15.246-15.246-15.246m0 25.975c-5.956 0-10.781-4.825-10.781-10.78s4.825-10.78 10.78-10.78 10.78 4.825 10.78 10.78-4.825 10.78-10.78 10.78"/><path fill="#f66f4d" d="M94.531 158.917c-9.753 0-17.71 7.905-17.71 17.71s7.905 17.71 17.71 17.71c9.754 0 17.71-7.905 17.71-17.71s-7.905-17.71-17.71-17.71m0 30.287a12.577 12.577 0 1 1 0-25.154 12.567 12.567 0 0 1 12.577 12.577c.051 6.93-5.595 12.577-12.577 12.577"/></svg>