<svg xmlns="http://www.w3.org/2000/svg" width="256" height="256" fill="none"><circle cx="127.5" cy="127.5" r="122.5" fill="#ff2e83" paint-order="stroke fill markers"/><path fill="#fff" d="M73.253 129.533v-11.992h104.752v11.992zm28.081-42.098c-5.905-3.345-11.417-4.544-18.688-4.544C60.197 82.891 42 101.09 42 123.537s18.197 40.647 40.646 40.647c19.022 0 34.987-13.068 39.42-30.713h-12.132c-4.057 11.141-14.741 19.1-27.288 19.1-16.034 0-29.033-12.999-29.033-29.034s12.999-29.033 29.033-29.033c5.926 0 10.954 1.827 15.548 4.875l-19.229 2.11 1.496 11.596 36.661-5.612L109.826 71l-12.157 2.057zm50.934 73.892c5.172 2.386 8.976 2.858 15.045 2.858 22.448 0 40.647-18.199 40.647-40.647S189.761 82.89 167.313 82.89c-19.02 0-34.985 13.068-39.418 30.715h12.129c4.057-11.143 14.744-19.102 27.289-19.102 16.035 0 29.033 13 29.033 29.035s-12.999 29.033-29.033 29.033c-4.04 0-7.888-.826-11.384-2.318l17.051-6.45-3.333-10.666-36 10.333 13 35.333 10.13-4.297z"/></svg>