<svg xmlns="http://www.w3.org/2000/svg" xml:space="preserve" viewBox="0 0 490 490"><path d="M0 245c0 135.1 109.9 245 245 245s245-109.9 245-245S380.1 0 245 0 0 109.9 0 245" style="fill:#428bca"/><path d="M180.3 259c18.8 0 33.9 15.3 33.9 34.1S198.9 327 180.1 327c-18.7 0-33.9-15.2-33.9-34s15.3-34 34.1-34m65.2-65c18.8 0 33.9 15.3 33.9 34.1S264.1 262 245.3 262c-18.7 0-33.9-15.2-33.9-34 .1-18.8 15.3-34 34.1-34m65.2 65c18.8 0 33.9 15.3 33.9 34.1S329.3 327 310.5 327c-18.7 0-33.9-15.2-33.9-34 .1-18.8 15.3-34 34.1-34m65.2-65c18.8 0 33.9 15.3 33.9 34.1S394.5 262 375.7 262c-18.7 0-33.9-15.2-33.9-34 .1-18.8 15.3-34 34.1-34m-260.8 0c18.8 0 33.9 15.3 33.9 34.1S133.7 262 114.9 262C96.2 262 81 246.8 81 228s15.3-34 34.1-34m32.6 54.4c6.7 0 12.1 5.5 12.1 12.2s-5.5 12.1-12.2 12.1-12.1-5.4-12.1-12.1c0-6.8 5.5-12.2 12.2-12.2m65.2 0c6.7 0 12.1 5.5 12.1 12.2s-5.5 12.1-12.2 12.1-12.1-5.4-12.1-12.1c0-6.8 5.5-12.2 12.2-12.2m65.2 0c6.7 0 12.1 5.5 12.1 12.2s-5.5 12.1-12.2 12.1-12.1-5.4-12.1-12.1c0-6.8 5.5-12.2 12.2-12.2m65.2 0c6.7 0 12.1 5.5 12.1 12.2s-5.5 12.1-12.2 12.1-12.1-5.4-12.1-12.1c.1-6.8 5.5-12.2 12.2-12.2" style="fill:#fff"/></svg>