<svg xmlns="http://www.w3.org/2000/svg" xml:space="preserve" id="svg134" x="0" y="0" version="1.1" viewBox="0 0 1400 1400"><style>.st2{fill-rule:evenodd;clip-rule:evenodd;fill:#346afd}</style><path d="M700 1372.1c-90.7 0-178.7-17.8-261.6-52.8-80-33.8-151.9-82.3-213.6-144s-110.2-133.6-144-213.6C45.8 878.9 28 790.9 28 700.1s17.8-178.7 52.8-261.6c33.8-80 82.3-151.9 144-213.6s133.6-110.2 213.6-144c82.8-35 170.8-52.8 261.6-52.8s178.8 17.8 261.6 52.8c80 33.8 151.9 82.3 213.6 144s110.2 133.6 144 213.6c35 82.8 52.8 170.8 52.8 261.6s-17.8 178.8-52.8 261.6c-33.8 80-82.3 151.9-144 213.6s-133.6 110.2-213.6 144c-82.8 35-170.9 52.8-261.6 52.8" style="fill-rule:evenodd;clip-rule:evenodd;fill:#fff"/><path d="M700 55.4c87 0 171.4 17 250.9 50.6 38.2 16.1 75 36.1 109.5 59.4 34.1 23.1 66.2 49.6 95.4 78.7 29.2 29.2 55.7 61.3 78.7 95.4 23.3 34.5 43.3 71.3 59.4 109.5 33.6 79.4 50.6 163.8 50.6 250.9s-17 171.4-50.6 250.9c-16.1 38.2-36.1 75-59.4 109.5-23.1 34.1-49.6 66.2-78.7 95.4-29.2 29.2-61.3 55.7-95.4 78.7-34.5 23.3-71.3 43.3-109.5 59.4-79.4 33.6-163.8 50.6-250.9 50.6s-171.4-17-250.9-50.6c-38.2-16.1-75-36.1-109.5-59.4-34.1-23.1-66.2-49.6-95.4-78.7-29.2-29.2-55.7-61.3-78.7-95.4-23.3-34.5-43.3-71.3-59.4-109.5C72.5 871.4 55.4 787 55.4 700s17-171.4 50.6-250.9c16.1-38.2 36.1-75 59.4-109.5 23.1-34.1 49.6-66.2 78.7-95.4 29.2-29.2 61.3-55.7 95.4-78.7 34.5-23.3 71.3-43.3 109.5-59.4 79.6-33.6 164-50.7 251-50.7m0-55C313.6.4.4 313.6.4 700s313.2 699.6 699.6 699.6 699.6-313.2 699.6-699.6S1086.4.4 700 .4" style="fill:#346afd"/><path d="M366.9 992.1c33.4 10.3 69.8 19.8 109 27.6 104.3 20.7 198.3 23.5 275.4 19.2 10.1 10.9 22.1 22.2 36.3 33.2 43.7 33.9 88.4 49.2 120 56.7-.1 0-323.7 37.1-540.7-136.7M952.5 785.9c101 73.3 151.2 172.3 126.6 242.4-16.8 47.8-58.3 71.7-58.3 71.7-47 27-95.8 14.1-106.3 11-24.9-7.5-56.5-20.1-89.4-41.8-16.4-10.8-30.3-22.1-41.9-32.7 98.8-1.4 242.9 3.4 169.3-250.6M391.7 444.5s161.6-104.8 457.4-50.6c0 0-143.9 0-190.4 27.1-.1 0-198.4 5.4-267 23.5M703.3 216.9 738.5 356s62.5 2.9 78.2 12.3c15.7 9.3-92.6-86.4-113.4-151.4M563.3 357.8s114.3-96.7 126.9-130.5c-.1 0-16.9 89.5-126.9 130.5M723.4 431.2s295-5.2 300.2 240.3c0 0 39.2-131.6-22.9-203.9s-173.4-60.5-277.3-36.4" class="st2"/><path d="M947.7 538.4s7.9 45.2 7.9 66.1c0 18.2-6.1 50.9-6.1 50.9s-16.9 57.9 2.1 87.5c21.4 37.6 90.4 91.5 90.4 91.5s-43.2-63.1-45.8-87.3 15.2-69.4 6.7-107.2-24.6-69.2-55.2-101.5M329.3 960.6c-27.4-55.3-29.1-98-25.5-127.2 7.4-59.3 38.4-71.1 43.9-135.4 4.2-48.9-12.3-59.3-11.4-117.9.7-47 12-85.2 21.5-110.3-8.1 10.2-16.6 23.1-23.8 38.8-22.3 48.9-17.7 95.4-13.7 118.2 1.5 7.4 3.2 17.7 4.2 30.1 0 0 1.5 28-1.3 56.7-6.7 69.7-40.7 88.4-44 133.5-1.8 25.2 5 63.5 50.1 113.5" class="st2"/><ellipse cx="448.6" cy="658.9" class="st2" rx="16.5" ry="26.7"/><ellipse cx="723.4" cy="658.9" class="st2" rx="16.5" ry="26.7"/></svg>