<svg xmlns="http://www.w3.org/2000/svg" xml:space="preserve" id="ZB" x="0" y="0" version="1.1" viewBox="0 0 490 490"><style>.st2{fill:none;stroke:#fff;stroke-width:30;stroke-linejoin:round}</style><path id="Full" d="M0 245c0 135.1 109.9 245 245 245s245-109.9 245-245S380.1 0 245 0 0 109.9 0 245" style="fill:#e6201a"/><circle id="RIng" cx="245" cy="245" r="161" style="fill:none;stroke:#fff;stroke-width:30;stroke-linecap:round;stroke-linejoin:round"/><path id="LockTop" d="M189 223c-15.2-14.7-20.9-55 22-55h71c22.4-.4 45.9 20.7 27 48-24.4 29-39 43-39 43s-22 28.1-51-1" class="st2"/><path id="LockBottom" d="M302.8 258.1c15.2 14.7 20.9 54.9-22 54.9h-70.9c-22.4.4-45.9-20.7-27-47.9 24.4-29 39-42.9 39-42.9s22-28.1 51 1" class="st2"/></svg>