<svg xmlns="http://www.w3.org/2000/svg" xml:space="preserve" id="Lager_1" x="0" y="0" version="1.1" viewBox="0 0 245 245"><style>.st2{fill:none;stroke:#fff;stroke-width:5;stroke-linecap:round;stroke-linejoin:round}</style><g id="ZClassic"><path id="Main" d="M0 122.5C0 190 55 245 122.5 245S245 190 245 122.5 190 0 122.5 0 0 55 0 122.5" style="fill:#c86f35"/><g id="ZCL"><path id="Z" d="M128 82H64.5l-10 21H116zm51 80.5H87L133 82h25.5l-34 60.5H189z" style="fill:#fff"/><circle id="Round_inner1" cx="122.5" cy="122.5" r="69.5" class="st2"/><circle id="Round_inner2" cx="122.5" cy="122.5" r="88.5" class="st2"/><path id="Round_outer" d="M183.5 172.8c-27.8 33.7-77.5 38.5-111.2 10.7S33.8 105.9 61.5 72.2 139 33.7 172.7 61.5c3.8 3.1 7.3 6.6 10.5 10.4" style="fill:none;stroke:#fff;stroke-width:20"/></g></g></svg>