<svg xmlns="http://www.w3.org/2000/svg" xml:space="preserve" id="Zen" x="0" y="0" version="1.1" viewBox="0 0 245 245"><style>.st1{fill:#fff}</style><path id="Main" d="M0 122.5C0 190 55 245 122.5 245S245 190 245 122.5 190 0 122.5 0 0 55 0 122.5" style="fill:#61b884"/><path id="Top" d="M172 52.5s-19.2 12.7-21 14c-10.9-4.6-18.5-6.8-29-6.5-25.2-1.1-62.5 20.7-62.5 62.5 0 12.3 4 21 4 21s7.3-9.5 16.5-15c-4.9-24 14-49 42-49 15.8 0 43 11.1 43 43-16.1 0-72.3-13.3-111.5 51-.6-.2-17.5-19.3-17.5-51C36 80.9 69.6 36 122 36c30.2 0 50 16.5 50 16.5" class="st1"/><path id="Bottom" d="m72.5 192.5 22-14s9.7 6.7 27.5 6.5c37.3 0 63-30 63-62.5 0-15.8-7-28.5-7-28.5l14-21.5s16.5 18.9 16.5 50c0 43.1-34.6 86-86.5 86-29.7 0-49.5-16-49.5-16M87 147c33-27.6 75.4-17.1 77.5-16.5-6.3 30.4-34 34.5-34 34.5s-26.2 5.9-43.5-18" class="st1"/></svg>