<svg xmlns="http://www.w3.org/2000/svg" xml:space="preserve" id="zrx" x="0" y="0" version="1.1" viewBox="0 0 245 245"><style>.st1{fill:#fff}</style><path id="Main_copy_6" d="M0 122.5C0 190 55 245 122.5 245S245 190 245 122.5 190 0 122.5 0 0 55 0 122.5" style="fill:#404040"/><g id="zrx-2"><path id="Top" d="M51.8 63.6c1.8 2.6 18.9 25.4 20.3 27.6 9.5-15 25.2-21.9 25.2-21.9l15.5 14.6s52.5-38.4 55.3-40.6C143.5 30 93.1 18.7 51.8 63.6" class="st1"/><path id="Right" d="M181.1 52.2c-2.6 1.8-25.3 18.9-27.5 20.3 14.9 9.5 21.8 25.2 21.8 25.2l-14.6 15.4s38.2 52.4 40.4 55.2c13.3-24.6 24.5-74.9-20.1-116.1" class="st1"/><path id="Bottom" d="M192.7 181.1c-1.8-2.6-18.9-25.3-20.3-27.4-9.5 14.9-25.2 21.8-25.2 21.8L131.6 161s-52.5 38.2-55.3 40.3c24.7 13.2 75.1 24.4 116.4-20.2" class="st1"/><path id="Left" d="M63.4 192.7c2.6-1.8 25.3-18.9 27.5-20.3-14.9-9.5-21.8-25.2-21.8-25.2l14.6-15.4S45.5 79.4 43.3 76.6C30 101.2 18.8 151.5 63.4 192.7" class="st1"/></g></svg>